<?xml version="1.0" standalone="no"?>
<!DOCTYPE svg PUBLIC "-//W3C//DTD SVG 1.1//EN"
"http://www.w3.org/Graphics/SVG/1.1/DTD/svg11.dtd">
<svg width="6630.05" height="4661.54" viewBox="0 0 6630.05 4661.54" version="1.1"
xmlns="http://www.w3.org/2000/svg"
xmlns:xlink="http://www.w3.org/1999/xlink">
<circle cx="1068" cy="4345" r="32" style=""/>
<circle cx="1068" cy="4105" r="32" style=""/>
<circle cx="908" cy="3385" r="32" style=""/>
<circle cx="1908" cy="3385" r="32" style=""/>
<circle cx="2248" cy="3405" r="32" style=""/>
<circle cx="2248" cy="3205" r="32" style=""/>
<circle cx="2518" cy="3255" r="32" style=""/>
<circle cx="2518" cy="3455" r="32" style=""/>
<circle cx="2518" cy="3655" r="32" style=""/>
<circle cx="2518" cy="3855" r="32" style=""/>
<circle cx="2518" cy="4055" r="32" style=""/>
<circle cx="2518" cy="4255" r="32" style=""/>
<circle cx="2068" cy="4345" r="32" style=""/>
<circle cx="2068" cy="4105" r="32" style=""/>
<circle cx="3118" cy="4055" r="32" style=""/>
<circle cx="3118" cy="4255" r="32" style=""/>
<circle cx="3118" cy="3855" r="32" style=""/>
<circle cx="3118" cy="3655" r="32" style=""/>
<circle cx="3118" cy="3455" r="32" style=""/>
<circle cx="3118" cy="3255" r="32" style=""/>
<circle cx="3118" cy="3055" r="32" style=""/>
<circle cx="3118" cy="2855" r="32" style=""/>
<circle cx="3118" cy="2655" r="32" style=""/>
<circle cx="3118" cy="2455" r="32" style=""/>
<circle cx="2518" cy="2455" r="32" style=""/>
<circle cx="2518" cy="2655" r="32" style=""/>
<circle cx="2518" cy="2855" r="32" style=""/>
<circle cx="2518" cy="3055" r="32" style=""/>
<circle cx="4048" cy="3225" r="32" style=""/>
<circle cx="4048" cy="3425" r="32" style=""/>
<circle cx="4048" cy="3625" r="32" style=""/>
<circle cx="4048" cy="3905" r="32" style=""/>
<circle cx="4048" cy="4105" r="32" style=""/>
<circle cx="4048" cy="4305" r="32" style=""/>
<circle cx="4088" cy="2785" r="32" style=""/>
<circle cx="4088" cy="2585" r="32" style=""/>
<circle cx="4088" cy="2385" r="32" style=""/>
<circle cx="4088" cy="2065" r="32" style=""/>
<circle cx="4088" cy="1865" r="32" style=""/>
<circle cx="4088" cy="1665" r="32" style=""/>
<circle cx="4728" cy="1285" r="32" style=""/>
<circle cx="4868" cy="705" r="32" style=""/>
<circle cx="5968" cy="1565" r="32" style=""/>
<circle cx="5208" cy="2245" r="32" style=""/>
<circle cx="4728" cy="2285" r="32" style=""/>
<circle cx="5208" cy="3245" r="32" style=""/>
<circle cx="5968" cy="3925" r="32" style=""/>
<circle cx="2508" cy="705" r="32" style=""/>
<circle cx="1548" cy="895" r="32" style=""/>
<circle cx="1548" cy="1095" r="32" style=""/>
<circle cx="1548" cy="1295" r="32" style=""/>
<circle cx="1548" cy="1495" r="32" style=""/>
<circle cx="1348" cy="1395" r="32" style=""/>
<circle cx="1348" cy="1195" r="32" style=""/>
<circle cx="1348" cy="995" r="32" style=""/>
<circle cx="1348" cy="795" r="32" style=""/>
<circle cx="848" cy="678" r="32" style=""/>
<circle cx="1048" cy="265" r="32" style=""/>
<circle cx="1248" cy="265" r="32" style=""/>
<circle cx="1448" cy="265" r="32" style=""/>
<circle cx="848" cy="1613" r="32" style=""/>
</svg>
