<?xml version="1.0" standalone="no"?>
<!DOCTYPE svg PUBLIC "-//W3C//DTD SVG 1.1//EN"
"http://www.w3.org/Graphics/SVG/1.1/DTD/svg11.dtd">
<svg width="6609" height="4641" viewBox="0 0 6609 4641" version="1.1"
xmlns="http://www.w3.org/2000/svg"
xmlns:xlink="http://www.w3.org/1999/xlink">
<g fill-rule="evenodd"><path d="M 2342,3281 L 2238,3281 L 2237,3281 L 2220,3280 L 2219,3279 L 2203,3274 L 2202,3273 L 2187,3265 L 2186,3264 L 2174,3253 L 2173,3252 L 2163,3239 L 2162,3237 L 2156,3222 L 2155,3221 L 2152,3205 L 2152,3203 L 2152,3186 L 2152,3185 L 2155,3169 L 2156,3167 L 2162,3152 L 2163,3151 L 2173,3137 L 2174,3136 L 2186,3125 L 2187,3124 L 2202,3116 L 2203,3115 L 2219,3110 L 2220,3110 L 2237,3108 L 2238,3108 L 2378,3108 L 2379,3108 L 2399,3111 L 2401,3111 L 2420,3119 L 2422,3120 L 2438,3133 L 2439,3133 L 2464,3158 L 2508,3158 L 2508,3158 L 2525,3160 L 2526,3160 L 2542,3165 L 2544,3166 L 2558,3174 L 2559,3175 L 2571,3186 L 2573,3187 L 2582,3201 L 2583,3202 L 2590,3217 L 2590,3219 L 2594,3235 L 2594,3236 L 2594,3253 L 2594,3255 L 2590,3271 L 2590,3272 L 2583,3287 L 2582,3289 L 2573,3302 L 2571,3303 L 2559,3314 L 2558,3315 L 2544,3323 L 2542,3324 L 2526,3329 L 2525,3330 L 2508,3331 L 2508,3331 L 2428,3331 L 2427,3331 L 2406,3329 L 2404,3328 L 2385,3320 L 2384,3319 L 2367,3307 L 2366,3306 L 2342,3281 z " style="fill-opacity:1.000000;fill:rgb(103,198,105);stroke:rgb(0,0,0);stroke-width:2"/></g>
<g fill-rule="evenodd"><path d="M 3741,3293 L 3334,3700 L 3333,3701 L 3319,3712 L 3317,3713 L 3300,3720 L 3298,3721 L 3279,3723 L 3278,3723 L 3108,3723 L 3107,3723 L 3092,3722 L 3090,3721 L 3076,3717 L 3075,3716 L 3062,3709 L 3061,3708 L 3050,3698 L 3049,3697 L 3040,3685 L 3039,3683 L 3033,3670 L 3032,3668 L 3029,3654 L 3029,3652 L 3029,3637 L 3029,3636 L 3032,3621 L 3033,3620 L 3039,3606 L 3040,3605 L 3049,3593 L 3050,3591 L 3061,3581 L 3062,3580 L 3075,3573 L 3076,3572 L 3090,3568 L 3092,3567 L 3107,3566 L 3108,3566 L 3246,3566 L 3653,3159 L 3653,3158 L 3668,3147 L 3670,3146 L 3687,3139 L 3689,3138 L 3707,3136 L 3708,3136 L 5177,3136 L 5178,3136 L 5197,3138 L 5199,3139 L 5216,3146 L 5218,3147 L 5232,3158 L 5233,3159 L 5253,3179 L 5253,3180 L 5263,3191 L 5264,3193 L 5270,3206 L 5271,3207 L 5275,3222 L 5275,3223 L 5276,3238 L 5276,3240 L 5273,3254 L 5273,3256 L 5268,3270 L 5267,3271 L 5259,3284 L 5258,3285 L 5247,3295 L 5246,3296 L 5234,3304 L 5232,3305 L 5218,3310 L 5217,3311 L 5202,3313 L 5201,3313 L 5186,3313 L 5184,3312 L 5170,3308 L 5168,3308 L 5155,3301 L 5154,3300 L 5145,3293 L 3741,3293 z " style="fill-opacity:1.000000;fill:rgb(115,81,255);stroke:rgb(0,0,0);stroke-width:2"/></g>
<g fill-rule="evenodd"><path d="M 3775,2966 L 4022,2719 L 4023,2718 L 4037,2707 L 4039,2706 L 4056,2699 L 4058,2698 L 4076,2696 L 4077,2696 L 4431,2696 L 4639,2488 L 4639,2275 L 4639,2274 L 4640,2259 L 4641,2258 L 4645,2244 L 4646,2242 L 4653,2229 L 4654,2228 L 4664,2217 L 4665,2216 L 4677,2207 L 4679,2206 L 4692,2200 L 4694,2200 L 4708,2197 L 4710,2196 L 4725,2196 L 4726,2197 L 4741,2200 L 4742,2200 L 4756,2206 L 4757,2207 L 4769,2216 L 4771,2217 L 4781,2228 L 4781,2229 L 4789,2242 L 4790,2244 L 4794,2258 L 4794,2259 L 4796,2274 L 4796,2275 L 4796,2521 L 4796,2522 L 4794,2540 L 4793,2542 L 4786,2559 L 4785,2561 L 4774,2575 L 4773,2576 L 4519,2830 L 4518,2831 L 4503,2842 L 4502,2843 L 4485,2850 L 4483,2851 L 4464,2853 L 4463,2853 L 4110,2853 L 3863,3100 L 3862,3101 L 3848,3112 L 3846,3113 L 3829,3120 L 3827,3121 L 3809,3123 L 3807,3123 L 3108,3123 L 3107,3123 L 3092,3122 L 3090,3121 L 3076,3117 L 3075,3116 L 3062,3109 L 3061,3108 L 3050,3098 L 3049,3097 L 3040,3085 L 3039,3083 L 3033,3070 L 3032,3068 L 3029,3054 L 3029,3052 L 3029,3037 L 3029,3036 L 3032,3021 L 3033,3020 L 3039,3006 L 3040,3005 L 3049,2993 L 3050,2991 L 3061,2982 L 3062,2981 L 3075,2973 L 3076,2972 L 3090,2968 L 3092,2968 L 3107,2966 L 3108,2966 L 3775,2966 z " style="fill-opacity:1.000000;fill:rgb(74,236,41);stroke:rgb(0,0,0);stroke-width:2"/></g>
<g fill-rule="evenodd"><path d="M 1755,1164 L 1538,1164 L 1537,1164 L 1522,1162 L 1521,1162 L 1507,1157 L 1505,1157 L 1492,1149 L 1491,1148 L 1480,1138 L 1479,1137 L 1470,1125 L 1469,1124 L 1463,1110 L 1463,1109 L 1460,1094 L 1459,1092 L 1459,1078 L 1460,1076 L 1463,1061 L 1463,1060 L 1469,1046 L 1470,1045 L 1479,1033 L 1480,1032 L 1491,1022 L 1492,1021 L 1505,1013 L 1507,1013 L 1521,1008 L 1522,1008 L 1537,1006 L 1538,1006 L 1788,1006 L 1789,1006 L 1807,1009 L 1809,1009 L 1826,1016 L 1828,1017 L 1843,1029 L 1843,1029 L 1953,1139 L 1954,1140 L 1965,1155 L 1966,1157 L 1973,1174 L 1974,1176 L 1976,1194 L 1976,1195 L 1976,3375 L 1976,3375 L 1975,3390 L 1975,3392 L 1970,3406 L 1969,3407 L 1962,3420 L 1961,3422 L 1951,3433 L 1950,3434 L 1938,3442 L 1936,3443 L 1923,3449 L 1921,3450 L 1907,3453 L 1905,3453 L 1890,3453 L 1889,3453 L 1874,3450 L 1873,3449 L 1859,3443 L 1858,3442 L 1846,3434 L 1844,3433 L 1835,3422 L 1834,3420 L 1826,3407 L 1826,3406 L 1821,3392 L 1821,3390 L 1819,3375 L 1819,3375 L 1819,1228 L 1755,1164 z " style="fill-opacity:1.000000;fill:rgb(205,186,171);stroke:rgb(0,0,0);stroke-width:2"/></g>
<g fill-rule="evenodd"><path d="M 2044,4257 L 2312,3989 L 2313,3988 L 2327,3977 L 2329,3976 L 2346,3969 L 2348,3968 L 2367,3966 L 2368,3966 L 2508,3966 L 2508,3966 L 2523,3967 L 2525,3968 L 2539,3972 L 2540,3973 L 2553,3980 L 2555,3981 L 2566,3991 L 2567,3993 L 2575,4005 L 2576,4006 L 2582,4019 L 2583,4021 L 2586,4036 L 2586,4037 L 2586,4052 L 2586,4054 L 2583,4068 L 2582,4070 L 2576,4083 L 2575,4085 L 2567,4097 L 2566,4098 L 2555,4108 L 2553,4109 L 2540,4116 L 2539,4117 L 2525,4121 L 2523,4122 L 2508,4123 L 2508,4123 L 2400,4123 L 2133,4390 L 2133,4391 L 2118,4402 L 2116,4403 L 2099,4410 L 2097,4411 L 2079,4413 L 2078,4413 L 2058,4413 L 2057,4413 L 2042,4412 L 2041,4411 L 2026,4407 L 2025,4406 L 2012,4399 L 2011,4398 L 2000,4388 L 1999,4387 L 1990,4375 L 1989,4373 L 1983,4360 L 1983,4358 L 1980,4344 L 1979,4342 L 1979,4327 L 1980,4325 L 1983,4311 L 1983,4309 L 1989,4296 L 1990,4294 L 1999,4282 L 2000,4281 L 2011,4271 L 2012,4270 L 2025,4263 L 2026,4262 L 2041,4258 L 2042,4257 L 2044,4257 z " style="fill-opacity:1.000000;fill:rgb(242,251,227);stroke:rgb(0,0,0);stroke-width:2"/></g>
<g fill-rule="evenodd"><path d="M 2380,3366 L 2508,3366 L 2508,3366 L 2523,3368 L 2525,3368 L 2539,3372 L 2540,3373 L 2553,3381 L 2555,3381 L 2566,3391 L 2567,3393 L 2575,3405 L 2576,3406 L 2582,3420 L 2583,3421 L 2586,3436 L 2586,3437 L 2586,3452 L 2586,3454 L 2583,3468 L 2582,3470 L 2576,3483 L 2575,3485 L 2567,3497 L 2566,3498 L 2555,3508 L 2553,3509 L 2540,3516 L 2539,3517 L 2525,3521 L 2523,3522 L 2508,3523 L 2508,3523 L 2348,3523 L 2347,3523 L 2328,3521 L 2326,3520 L 2309,3513 L 2307,3512 L 2293,3501 L 2292,3500 L 2265,3473 L 2238,3473 L 2237,3473 L 2222,3472 L 2221,3471 L 2206,3467 L 2205,3466 L 2192,3459 L 2191,3458 L 2180,3448 L 2179,3447 L 2170,3435 L 2169,3433 L 2163,3420 L 2163,3418 L 2160,3404 L 2159,3402 L 2159,3387 L 2160,3386 L 2163,3371 L 2163,3370 L 2169,3356 L 2170,3355 L 2179,3343 L 2180,3341 L 2191,3331 L 2192,3331 L 2205,3323 L 2206,3322 L 2221,3318 L 2222,3318 L 2237,3316 L 2238,3316 L 2298,3316 L 2299,3316 L 2317,3318 L 2319,3319 L 2336,3326 L 2338,3327 L 2353,3338 L 2353,3339 L 2380,3366 z " style="fill-opacity:1.000000;fill:rgb(70,124,194);stroke:rgb(0,0,0);stroke-width:2"/></g>
<g fill-rule="evenodd"><path d="M 1237,1106 L 1338,1106 L 1339,1106 L 1353,1108 L 1355,1108 L 1369,1113 L 1371,1113 L 1383,1121 L 1385,1122 L 1396,1132 L 1397,1133 L 1406,1145 L 1406,1146 L 1412,1160 L 1413,1161 L 1416,1176 L 1416,1178 L 1416,1192 L 1416,1194 L 1413,1208 L 1412,1210 L 1406,1224 L 1406,1225 L 1397,1237 L 1396,1238 L 1385,1248 L 1383,1249 L 1371,1257 L 1369,1257 L 1355,1262 L 1353,1262 L 1339,1264 L 1338,1264 L 1168,1264 L 1167,1264 L 1148,1261 L 1146,1261 L 1129,1254 L 1128,1253 L 1113,1241 L 1112,1241 L 1102,1231 L 1101,1230 L 1090,1215 L 1089,1213 L 1082,1196 L 1082,1194 L 1079,1176 L 1079,1175 L 1079,615 L 1079,614 L 1082,596 L 1082,594 L 1089,577 L 1090,575 L 1101,560 L 1102,559 L 1159,502 L 1159,255 L 1159,254 L 1161,240 L 1161,238 L 1166,224 L 1166,222 L 1174,210 L 1175,208 L 1185,197 L 1186,196 L 1198,187 L 1199,187 L 1213,181 L 1214,180 L 1229,177 L 1230,177 L 1245,177 L 1247,177 L 1261,180 L 1263,181 L 1276,187 L 1278,187 L 1290,196 L 1291,197 L 1301,208 L 1302,210 L 1309,222 L 1310,224 L 1315,238 L 1315,240 L 1317,254 L 1317,255 L 1317,535 L 1316,536 L 1314,554 L 1314,556 L 1306,573 L 1305,575 L 1294,590 L 1293,591 L 1237,648 L 1237,1106 z " style="fill-opacity:1.000000;fill:rgb(84,248,27);stroke:rgb(0,0,0);stroke-width:2"/></g>
<g fill-rule="evenodd"><path d="M 4105,4095 L 4104,4108 L 4104,4109 L 4100,4121 L 4099,4123 L 4093,4134 L 4092,4135 L 4083,4144 L 4082,4146 L 4072,4153 L 4071,4154 L 4059,4159 L 4058,4159 L 4045,4162 L 4044,4162 L 4031,4162 L 4030,4162 L 4017,4159 L 4016,4159 L 4004,4154 L 4003,4153 L 3993,4146 L 3991,4144 L 3983,4135 L 3982,4134 L 3976,4123 L 3975,4121 L 3971,4109 L 3971,4108 L 3970,4095 L 3970,4094 L 3971,4081 L 3971,4080 L 3975,4068 L 3976,4066 L 3982,4055 L 3983,4054 L 3991,4045 L 3993,4044 L 4003,4036 L 4004,4035 L 4016,4030 L 4017,4030 L 4030,4027 L 4031,4027 L 4044,4027 L 4045,4027 L 4058,4030 L 4059,4030 L 4071,4035 L 4072,4036 L 4082,4044 L 4083,4045 L 4092,4054 L 4093,4055 L 4099,4066 L 4100,4068 L 4104,4080 L 4104,4081 L 4105,4094 L 4105,4095 z " style="fill-opacity:1.000000;fill:rgb(232,231,141);stroke:rgb(0,0,0);stroke-width:2"/></g>
<g fill-rule="evenodd"><path d="M 5265,696 L 5256,779 L 5256,781 L 5230,860 L 5230,862 L 5188,934 L 5187,935 L 5131,998 L 5130,999 L 5062,1048 L 5061,1049 L 4984,1083 L 4983,1083 L 4901,1100 L 4899,1101 L 4816,1101 L 4814,1100 L 4732,1083 L 4731,1083 L 4654,1049 L 4653,1048 L 4585,999 L 4584,998 L 4528,935 L 4527,934 L 4485,862 L 4484,860 L 4459,781 L 4458,779 L 4450,696 L 4450,694 L 4458,611 L 4459,609 L 4484,530 L 4485,528 L 4527,456 L 4528,455 L 4584,393 L 4585,391 L 4653,342 L 4654,341 L 4731,307 L 4732,307 L 4814,290 L 4816,289 L 4899,289 L 4901,290 L 4983,307 L 4984,307 L 5060,341 L 5062,342 L 5130,391 L 5131,393 L 5187,455 L 5188,456 L 5230,528 L 5230,530 L 5256,609 L 5256,611 L 5265,694 L 5265,696 z " style="fill-opacity:1.000000;fill:rgb(118,90,46);stroke:rgb(0,0,0);stroke-width:2"/></g>
<g fill-rule="evenodd"><path d="M 989,1603 L 986,1633 L 986,1635 L 977,1663 L 976,1665 L 961,1691 L 960,1692 L 940,1715 L 939,1716 L 914,1733 L 913,1734 L 885,1746 L 884,1747 L 855,1753 L 853,1753 L 823,1753 L 821,1753 L 792,1747 L 790,1746 L 763,1734 L 761,1733 L 737,1716 L 736,1715 L 716,1692 L 715,1691 L 700,1665 L 699,1663 L 690,1635 L 690,1633 L 686,1603 L 686,1602 L 690,1572 L 690,1570 L 699,1542 L 700,1540 L 715,1514 L 716,1513 L 736,1490 L 737,1489 L 761,1472 L 763,1471 L 790,1459 L 792,1458 L 821,1452 L 823,1452 L 853,1452 L 855,1452 L 884,1458 L 885,1459 L 913,1471 L 914,1472 L 939,1489 L 940,1490 L 960,1513 L 961,1514 L 976,1540 L 977,1542 L 986,1570 L 986,1572 L 989,1602 L 989,1603 z " style="fill-opacity:1.000000;fill:rgb(99,51,159);stroke:rgb(0,0,0);stroke-width:2"/></g>
<g fill-rule="evenodd"><path d="M 989,669 L 986,699 L 986,700 L 977,729 L 976,730 L 961,756 L 960,758 L 940,780 L 939,781 L 914,799 L 913,800 L 885,812 L 884,812 L 855,819 L 853,819 L 823,819 L 821,819 L 792,812 L 790,812 L 763,800 L 761,799 L 737,781 L 736,780 L 716,758 L 715,756 L 700,730 L 699,729 L 690,700 L 690,699 L 686,669 L 686,667 L 690,637 L 690,636 L 699,607 L 700,606 L 715,580 L 716,578 L 736,556 L 737,555 L 761,537 L 763,536 L 790,524 L 792,524 L 821,517 L 823,517 L 853,517 L 855,517 L 884,524 L 885,524 L 913,536 L 914,537 L 939,555 L 940,556 L 960,578 L 961,580 L 976,606 L 977,607 L 986,636 L 986,637 L 989,667 L 989,669 z " style="fill-opacity:1.000000;fill:rgb(201,154,102);stroke:rgb(0,0,0);stroke-width:2"/></g>
<g fill-rule="evenodd"><path d="M 1405,986 L 1403,998 L 1403,1000 L 1399,1011 L 1399,1013 L 1392,1024 L 1391,1025 L 1383,1034 L 1382,1035 L 1372,1043 L 1371,1043 L 1359,1048 L 1358,1049 L 1346,1051 L 1344,1052 L 1332,1052 L 1330,1051 L 1318,1049 L 1316,1048 L 1305,1043 L 1304,1043 L 1294,1035 L 1292,1034 L 1284,1025 L 1283,1024 L 1277,1013 L 1276,1011 L 1273,1000 L 1272,998 L 1271,986 L 1271,984 L 1272,972 L 1273,970 L 1276,959 L 1277,957 L 1283,946 L 1284,945 L 1292,936 L 1294,935 L 1304,927 L 1305,927 L 1316,922 L 1318,921 L 1330,919 L 1332,918 L 1344,918 L 1346,919 L 1358,921 L 1359,922 L 1371,927 L 1372,927 L 1382,935 L 1383,936 L 1391,945 L 1392,946 L 1399,957 L 1399,959 L 1403,970 L 1403,972 L 1405,984 L 1405,986 z " style="fill-opacity:1.000000;fill:rgb(50,13,183);stroke:rgb(0,0,0);stroke-width:2"/></g>
<g fill-rule="evenodd"><path d="M 1605,1286 L 1603,1298 L 1603,1300 L 1599,1311 L 1599,1313 L 1592,1324 L 1591,1325 L 1583,1334 L 1582,1335 L 1572,1342 L 1571,1343 L 1559,1348 L 1558,1349 L 1546,1351 L 1544,1352 L 1532,1352 L 1530,1351 L 1518,1349 L 1516,1348 L 1505,1343 L 1504,1342 L 1494,1335 L 1492,1334 L 1484,1325 L 1483,1324 L 1477,1313 L 1476,1311 L 1473,1300 L 1472,1298 L 1471,1286 L 1471,1284 L 1472,1272 L 1473,1270 L 1476,1258 L 1477,1257 L 1483,1246 L 1484,1245 L 1492,1236 L 1494,1235 L 1504,1227 L 1505,1227 L 1516,1222 L 1518,1221 L 1530,1218 L 1532,1218 L 1544,1218 L 1546,1218 L 1558,1221 L 1559,1222 L 1571,1227 L 1572,1227 L 1582,1235 L 1583,1236 L 1591,1245 L 1592,1246 L 1599,1257 L 1599,1258 L 1603,1270 L 1603,1272 L 1605,1284 L 1605,1286 z " style="fill-opacity:1.000000;fill:rgb(49,88,163);stroke:rgb(0,0,0);stroke-width:2"/></g>
<g fill-rule="evenodd"><path d="M 1405,1386 L 1403,1398 L 1403,1400 L 1399,1411 L 1399,1413 L 1392,1424 L 1391,1425 L 1383,1434 L 1382,1435 L 1372,1442 L 1371,1443 L 1359,1448 L 1358,1449 L 1346,1451 L 1344,1452 L 1332,1452 L 1330,1451 L 1318,1449 L 1316,1448 L 1305,1443 L 1304,1442 L 1294,1435 L 1292,1434 L 1284,1425 L 1283,1424 L 1277,1413 L 1276,1411 L 1273,1400 L 1272,1398 L 1271,1386 L 1271,1384 L 1272,1372 L 1273,1370 L 1276,1358 L 1277,1357 L 1283,1346 L 1284,1345 L 1292,1336 L 1294,1335 L 1304,1327 L 1305,1327 L 1316,1322 L 1318,1321 L 1330,1318 L 1332,1318 L 1344,1318 L 1346,1318 L 1358,1321 L 1359,1322 L 1371,1327 L 1372,1327 L 1382,1335 L 1383,1336 L 1391,1345 L 1392,1346 L 1399,1357 L 1399,1358 L 1403,1370 L 1403,1372 L 1405,1384 L 1405,1386 z " style="fill-opacity:1.000000;fill:rgb(90,37,93);stroke:rgb(0,0,0);stroke-width:2"/></g>
<g fill-rule="evenodd"><path d="M 1605,1486 L 1603,1498 L 1603,1500 L 1599,1511 L 1599,1513 L 1592,1524 L 1591,1525 L 1583,1534 L 1582,1535 L 1572,1542 L 1571,1543 L 1559,1548 L 1558,1549 L 1546,1551 L 1544,1552 L 1532,1552 L 1530,1551 L 1518,1549 L 1516,1548 L 1505,1543 L 1504,1542 L 1494,1535 L 1492,1534 L 1484,1525 L 1483,1524 L 1477,1513 L 1476,1511 L 1473,1500 L 1472,1498 L 1471,1486 L 1471,1484 L 1472,1472 L 1473,1470 L 1476,1458 L 1477,1457 L 1483,1446 L 1484,1445 L 1492,1436 L 1494,1435 L 1504,1427 L 1505,1427 L 1516,1422 L 1518,1421 L 1530,1418 L 1532,1418 L 1544,1418 L 1546,1418 L 1558,1421 L 1559,1422 L 1571,1427 L 1572,1427 L 1582,1435 L 1583,1436 L 1591,1445 L 1592,1446 L 1599,1457 L 1599,1458 L 1603,1470 L 1603,1472 L 1605,1484 L 1605,1486 z " style="fill-opacity:1.000000;fill:rgb(5,23,88);stroke:rgb(0,0,0);stroke-width:2"/></g>
<g fill-rule="evenodd"><path d="M 5265,2236 L 5264,2248 L 5263,2250 L 5260,2262 L 5259,2263 L 5253,2274 L 5252,2275 L 5243,2285 L 5242,2286 L 5232,2293 L 5230,2294 L 5219,2299 L 5217,2300 L 5205,2302 L 5204,2302 L 5191,2302 L 5189,2302 L 5177,2300 L 5176,2299 L 5164,2294 L 5163,2293 L 5153,2286 L 5151,2285 L 5143,2275 L 5142,2274 L 5136,2263 L 5135,2262 L 5131,2250 L 5131,2248 L 5129,2236 L 5129,2234 L 5131,2222 L 5131,2220 L 5135,2208 L 5136,2206 L 5142,2196 L 5143,2194 L 5151,2185 L 5153,2184 L 5163,2176 L 5164,2176 L 5176,2171 L 5177,2170 L 5189,2167 L 5191,2167 L 5204,2167 L 5205,2167 L 5217,2170 L 5219,2171 L 5230,2176 L 5232,2176 L 5242,2184 L 5243,2185 L 5252,2194 L 5253,2196 L 5259,2206 L 5260,2208 L 5263,2220 L 5264,2222 L 5265,2234 L 5265,2236 z " style="fill-opacity:1.000000;fill:rgb(233,94,212);stroke:rgb(0,0,0);stroke-width:2"/></g>
<g fill-rule="evenodd"><path d="M 4785,1276 L 4784,1288 L 4784,1290 L 4780,1302 L 4779,1303 L 4773,1314 L 4772,1315 L 4763,1325 L 4762,1326 L 4752,1333 L 4751,1334 L 4739,1339 L 4738,1340 L 4725,1342 L 4724,1342 L 4711,1342 L 4709,1342 L 4697,1340 L 4696,1339 L 4684,1334 L 4683,1333 L 4673,1326 L 4671,1325 L 4663,1315 L 4662,1314 L 4656,1303 L 4655,1302 L 4651,1290 L 4651,1288 L 4650,1276 L 4650,1274 L 4651,1262 L 4651,1260 L 4655,1248 L 4656,1247 L 4662,1236 L 4663,1234 L 4671,1225 L 4673,1224 L 4683,1217 L 4684,1216 L 4696,1211 L 4697,1210 L 4709,1208 L 4711,1207 L 4724,1207 L 4725,1208 L 4738,1210 L 4739,1211 L 4751,1216 L 4752,1217 L 4762,1224 L 4763,1225 L 4772,1234 L 4773,1236 L 4779,1247 L 4780,1248 L 4784,1260 L 4784,1262 L 4785,1274 L 4785,1276 z " style="fill-opacity:1.000000;fill:rgb(171,178,205);stroke:rgb(0,0,0);stroke-width:2"/></g>
<g fill-rule="evenodd"><path d="M 966,3375 L 964,3388 L 964,3390 L 960,3401 L 960,3403 L 953,3414 L 952,3415 L 944,3425 L 943,3426 L 933,3433 L 931,3434 L 920,3439 L 918,3439 L 906,3442 L 904,3442 L 892,3442 L 890,3442 L 878,3439 L 876,3439 L 865,3434 L 863,3433 L 853,3426 L 852,3425 L 843,3415 L 843,3414 L 836,3403 L 836,3401 L 832,3390 L 831,3388 L 830,3375 L 830,3374 L 831,3361 L 832,3360 L 836,3348 L 836,3346 L 843,3335 L 843,3334 L 852,3325 L 853,3324 L 863,3316 L 865,3316 L 876,3310 L 878,3310 L 890,3307 L 892,3307 L 904,3307 L 906,3307 L 918,3310 L 920,3310 L 931,3316 L 932,3316 L 943,3324 L 944,3325 L 952,3334 L 953,3335 L 960,3346 L 960,3348 L 964,3360 L 964,3361 L 966,3374 L 966,3375 z " style="fill-opacity:1.000000;fill:rgb(198,155,180);stroke:rgb(0,0,0);stroke-width:2"/></g>
<g fill-rule="evenodd"><path d="M 2126,4095 L 2124,4108 L 2124,4109 L 2120,4121 L 2119,4123 L 2113,4134 L 2112,4135 L 2104,4144 L 2102,4146 L 2092,4153 L 2091,4154 L 2079,4159 L 2078,4159 L 2066,4162 L 2064,4162 L 2051,4162 L 2050,4162 L 2038,4159 L 2036,4159 L 2025,4154 L 2023,4153 L 2013,4146 L 2012,4144 L 2003,4135 L 2002,4134 L 1996,4123 L 1995,4121 L 1992,4109 L 1991,4108 L 1990,4095 L 1990,4094 L 1991,4081 L 1992,4080 L 1995,4068 L 1996,4066 L 2002,4055 L 2003,4054 L 2012,4045 L 2013,4044 L 2023,4036 L 2025,4035 L 2036,4030 L 2038,4030 L 2050,4027 L 2051,4027 L 2064,4027 L 2066,4027 L 2078,4030 L 2079,4030 L 2091,4035 L 2092,4036 L 2102,4044 L 2104,4045 L 2112,4054 L 2113,4055 L 2119,4066 L 2120,4068 L 2124,4080 L 2124,4081 L 2126,4094 L 2126,4095 z " style="fill-opacity:1.000000;fill:rgb(84,17,14);stroke:rgb(0,0,0);stroke-width:2"/></g>
<g fill-rule="evenodd"><path d="M 4145,2576 L 4144,2588 L 4144,2590 L 4140,2602 L 4139,2603 L 4133,2614 L 4132,2615 L 4123,2625 L 4122,2626 L 4112,2633 L 4111,2634 L 4099,2639 L 4098,2640 L 4085,2642 L 4084,2642 L 4071,2642 L 4070,2642 L 4057,2640 L 4056,2639 L 4044,2634 L 4043,2633 L 4033,2626 L 4031,2625 L 4023,2615 L 4022,2614 L 4016,2603 L 4015,2602 L 4011,2590 L 4011,2588 L 4010,2576 L 4010,2574 L 4011,2561 L 4011,2560 L 4015,2548 L 4016,2546 L 4022,2536 L 4023,2534 L 4031,2525 L 4033,2524 L 4043,2516 L 4044,2516 L 4056,2511 L 4057,2510 L 4070,2507 L 4071,2507 L 4084,2507 L 4085,2507 L 4098,2510 L 4099,2511 L 4111,2516 L 4112,2516 L 4122,2524 L 4123,2525 L 4132,2534 L 4133,2536 L 4139,2546 L 4140,2548 L 4144,2560 L 4144,2561 L 4145,2574 L 4145,2576 z " style="fill-opacity:1.000000;fill:rgb(130,116,65);stroke:rgb(0,0,0);stroke-width:2"/></g>
<g fill-rule="evenodd"><path d="M 1370,315 L 1370,195 L 1370,193 L 1371,192 L 1372,190 L 1373,189 L 1374,188 L 1376,187 L 1378,187 L 1498,187 L 1500,187 L 1501,188 L 1503,189 L 1504,190 L 1505,192 L 1505,193 L 1506,195 L 1506,315 L 1505,317 L 1505,318 L 1504,320 L 1503,321 L 1501,322 L 1500,323 L 1498,323 L 1378,323 L 1376,323 L 1374,322 L 1373,321 L 1372,320 L 1371,318 L 1370,317 L 1370,315 z " style="fill-opacity:1.000000;fill:rgb(33,61,220);stroke:rgb(0,0,0);stroke-width:2"/></g>
<g fill-rule="evenodd"><path d="M 2445,2500 L 2445,2390 L 2445,2388 L 2446,2386 L 2447,2385 L 2448,2384 L 2449,2383 L 2451,2382 L 2453,2382 L 2563,2382 L 2564,2382 L 2566,2383 L 2568,2384 L 2569,2385 L 2570,2386 L 2570,2388 L 2571,2390 L 2571,2500 L 2570,2502 L 2570,2503 L 2569,2505 L 2568,2506 L 2566,2507 L 2564,2507 L 2563,2508 L 2453,2508 L 2451,2507 L 2449,2507 L 2448,2506 L 2447,2505 L 2446,2503 L 2445,2502 L 2445,2500 z " style="fill-opacity:1.000000;fill:rgb(135,112,233);stroke:rgb(0,0,0);stroke-width:2"/></g>
<g fill-rule="evenodd"><path d="M 2570,2646 L 2569,2657 L 2569,2659 L 2565,2670 L 2565,2671 L 2559,2681 L 2558,2682 L 2550,2691 L 2549,2692 L 2540,2699 L 2538,2700 L 2528,2704 L 2526,2705 L 2515,2707 L 2513,2707 L 2502,2707 L 2500,2707 L 2489,2705 L 2487,2704 L 2477,2700 L 2476,2699 L 2466,2692 L 2465,2691 L 2457,2682 L 2456,2681 L 2451,2671 L 2450,2670 L 2446,2659 L 2446,2657 L 2445,2646 L 2445,2644 L 2446,2633 L 2446,2631 L 2450,2620 L 2451,2618 L 2456,2608 L 2457,2607 L 2465,2599 L 2466,2598 L 2476,2591 L 2477,2590 L 2487,2585 L 2489,2585 L 2500,2582 L 2502,2582 L 2513,2582 L 2515,2582 L 2526,2585 L 2528,2585 L 2538,2590 L 2540,2591 L 2549,2598 L 2550,2599 L 2558,2607 L 2559,2608 L 2565,2618 L 2565,2620 L 2569,2631 L 2569,2633 L 2570,2644 L 2570,2646 z " style="fill-opacity:1.000000;fill:rgb(62,161,65);stroke:rgb(0,0,0);stroke-width:2"/></g>
<g fill-rule="evenodd"><path d="M 2570,2846 L 2569,2857 L 2569,2859 L 2565,2870 L 2565,2871 L 2559,2881 L 2558,2882 L 2550,2891 L 2549,2892 L 2540,2899 L 2538,2900 L 2528,2904 L 2526,2905 L 2515,2907 L 2513,2907 L 2502,2907 L 2500,2907 L 2489,2905 L 2487,2904 L 2477,2900 L 2476,2899 L 2466,2892 L 2465,2891 L 2457,2882 L 2456,2881 L 2451,2871 L 2450,2870 L 2446,2859 L 2446,2857 L 2445,2846 L 2445,2844 L 2446,2832 L 2446,2831 L 2450,2820 L 2451,2818 L 2456,2808 L 2457,2807 L 2465,2799 L 2466,2797 L 2476,2791 L 2477,2790 L 2487,2785 L 2489,2785 L 2500,2782 L 2502,2782 L 2513,2782 L 2515,2782 L 2526,2785 L 2528,2785 L 2538,2790 L 2540,2791 L 2549,2797 L 2550,2799 L 2558,2807 L 2559,2808 L 2565,2818 L 2565,2820 L 2569,2831 L 2569,2832 L 2570,2844 L 2570,2846 z " style="fill-opacity:1.000000;fill:rgb(225,252,103);stroke:rgb(0,0,0);stroke-width:2"/></g>
<g fill-rule="evenodd"><path d="M 2570,3645 L 2569,3657 L 2569,3658 L 2565,3669 L 2565,3671 L 2559,3681 L 2558,3682 L 2550,3691 L 2549,3692 L 2540,3699 L 2538,3699 L 2528,3704 L 2526,3705 L 2515,3707 L 2513,3707 L 2502,3707 L 2500,3707 L 2489,3705 L 2487,3704 L 2477,3699 L 2476,3699 L 2466,3692 L 2465,3691 L 2457,3682 L 2456,3681 L 2451,3671 L 2450,3669 L 2446,3658 L 2446,3657 L 2445,3645 L 2445,3644 L 2446,3632 L 2446,3631 L 2450,3620 L 2451,3618 L 2456,3608 L 2457,3607 L 2465,3598 L 2466,3597 L 2476,3591 L 2477,3590 L 2487,3585 L 2489,3585 L 2500,3582 L 2502,3582 L 2513,3582 L 2515,3582 L 2526,3585 L 2528,3585 L 2538,3590 L 2540,3591 L 2549,3597 L 2550,3598 L 2558,3607 L 2559,3608 L 2565,3618 L 2565,3620 L 2569,3631 L 2569,3632 L 2570,3644 L 2570,3645 z " style="fill-opacity:1.000000;fill:rgb(62,1,126);stroke:rgb(0,0,0);stroke-width:2"/></g>
<g fill-rule="evenodd"><path d="M 2570,3845 L 2569,3857 L 2569,3858 L 2565,3869 L 2565,3871 L 2559,3881 L 2558,3882 L 2550,3891 L 2549,3892 L 2540,3899 L 2538,3899 L 2528,3904 L 2526,3905 L 2515,3907 L 2513,3907 L 2502,3907 L 2500,3907 L 2489,3905 L 2487,3904 L 2477,3899 L 2476,3899 L 2466,3892 L 2465,3891 L 2457,3882 L 2456,3881 L 2451,3871 L 2450,3869 L 2446,3858 L 2446,3857 L 2445,3845 L 2445,3844 L 2446,3832 L 2446,3831 L 2450,3820 L 2451,3818 L 2456,3808 L 2457,3807 L 2465,3798 L 2466,3797 L 2476,3791 L 2477,3790 L 2487,3785 L 2489,3785 L 2500,3782 L 2502,3782 L 2513,3782 L 2515,3782 L 2526,3785 L 2528,3785 L 2538,3790 L 2540,3791 L 2549,3797 L 2550,3798 L 2558,3807 L 2559,3808 L 2565,3818 L 2565,3820 L 2569,3831 L 2569,3832 L 2570,3844 L 2570,3845 z " style="fill-opacity:1.000000;fill:rgb(151,234,220);stroke:rgb(0,0,0);stroke-width:2"/></g>
<g fill-rule="evenodd"><path d="M 2570,4245 L 2569,4257 L 2569,4258 L 2565,4269 L 2565,4271 L 2559,4281 L 2558,4282 L 2550,4291 L 2549,4292 L 2540,4299 L 2538,4299 L 2528,4304 L 2526,4305 L 2515,4307 L 2513,4307 L 2502,4307 L 2500,4307 L 2489,4305 L 2487,4304 L 2477,4299 L 2476,4299 L 2466,4292 L 2465,4291 L 2457,4282 L 2456,4281 L 2451,4271 L 2450,4269 L 2446,4258 L 2446,4257 L 2445,4245 L 2445,4244 L 2446,4232 L 2446,4231 L 2450,4220 L 2451,4218 L 2456,4208 L 2457,4207 L 2465,4198 L 2466,4197 L 2476,4191 L 2477,4190 L 2487,4185 L 2489,4185 L 2500,4182 L 2502,4182 L 2513,4182 L 2515,4182 L 2526,4185 L 2528,4185 L 2538,4190 L 2540,4191 L 2549,4197 L 2550,4198 L 2558,4207 L 2559,4208 L 2565,4218 L 2565,4220 L 2569,4231 L 2569,4232 L 2570,4244 L 2570,4245 z " style="fill-opacity:1.000000;fill:rgb(107,150,143);stroke:rgb(0,0,0);stroke-width:2"/></g>
<g fill-rule="evenodd"><path d="M 3170,2646 L 3169,2657 L 3169,2659 L 3165,2670 L 3165,2671 L 3159,2681 L 3158,2682 L 3150,2691 L 3149,2692 L 3140,2699 L 3138,2700 L 3128,2704 L 3126,2705 L 3115,2707 L 3113,2707 L 3102,2707 L 3100,2707 L 3089,2705 L 3087,2704 L 3077,2700 L 3075,2699 L 3066,2692 L 3065,2691 L 3057,2682 L 3056,2681 L 3051,2671 L 3050,2670 L 3046,2659 L 3046,2657 L 3045,2646 L 3045,2644 L 3046,2633 L 3046,2631 L 3050,2620 L 3051,2618 L 3056,2608 L 3057,2607 L 3065,2599 L 3066,2598 L 3075,2591 L 3077,2590 L 3087,2585 L 3089,2585 L 3100,2582 L 3102,2582 L 3113,2582 L 3115,2582 L 3126,2585 L 3128,2585 L 3138,2590 L 3140,2591 L 3149,2598 L 3150,2599 L 3158,2607 L 3159,2608 L 3165,2618 L 3165,2620 L 3169,2631 L 3169,2633 L 3170,2644 L 3170,2646 z " style="fill-opacity:1.000000;fill:rgb(56,92,42);stroke:rgb(0,0,0);stroke-width:2"/></g>
<g fill-rule="evenodd"><path d="M 2838,916 L 3698,1776 L 4077,1776 L 4078,1776 L 4093,1778 L 4095,1778 L 4109,1783 L 4110,1783 L 4123,1791 L 4124,1792 L 4135,1802 L 4136,1803 L 4145,1815 L 4146,1816 L 4152,1830 L 4153,1831 L 4156,1846 L 4156,1847 L 4156,1862 L 4156,1864 L 4153,1878 L 4152,1880 L 4146,1893 L 4145,1895 L 4136,1907 L 4135,1908 L 4124,1918 L 4123,1919 L 4110,1926 L 4109,1927 L 4095,1932 L 4093,1932 L 4078,1934 L 4077,1934 L 3666,1934 L 3664,1934 L 3646,1931 L 3644,1931 L 3627,1924 L 3625,1922 L 3611,1911 L 3610,1911 L 2728,1029 L 2702,1048 L 2701,1049 L 2624,1083 L 2623,1083 L 2541,1100 L 2539,1101 L 2456,1101 L 2454,1100 L 2372,1083 L 2371,1083 L 2294,1049 L 2293,1048 L 2225,999 L 2224,998 L 2168,935 L 2167,934 L 2125,862 L 2125,860 L 2099,781 L 2099,779 L 2090,696 L 2090,694 L 2099,611 L 2099,609 L 2125,530 L 2125,528 L 2167,456 L 2168,455 L 2224,393 L 2225,391 L 2293,342 L 2294,341 L 2371,307 L 2372,307 L 2454,290 L 2456,289 L 2539,289 L 2541,290 L 2623,307 L 2624,307 L 2701,341 L 2702,342 L 2770,391 L 2771,393 L 2827,455 L 2828,456 L 2870,528 L 2871,530 L 2896,609 L 2897,611 L 2905,694 L 2905,696 L 2897,779 L 2896,781 L 2871,860 L 2870,862 L 2838,916 z " style="fill-opacity:1.000000;fill:rgb(236,176,59);stroke:rgb(0,0,0);stroke-width:2"/></g>
<g fill-rule="evenodd"><path d="M 3258,2766 L 3705,2319 L 3706,2318 L 3721,2307 L 3723,2306 L 3740,2299 L 3742,2299 L 3760,2296 L 3761,2296 L 4077,2296 L 4078,2296 L 4093,2298 L 4095,2298 L 4109,2303 L 4110,2303 L 4117,2307 L 4137,2307 L 4139,2307 L 4141,2308 L 4142,2309 L 4144,2310 L 4145,2311 L 4145,2313 L 4145,2315 L 4145,2335 L 4146,2336 L 4152,2350 L 4153,2351 L 4156,2366 L 4156,2367 L 4156,2382 L 4156,2384 L 4153,2398 L 4152,2400 L 4146,2413 L 4145,2415 L 4145,2435 L 4145,2437 L 4145,2438 L 4144,2440 L 4142,2441 L 4141,2442 L 4139,2442 L 4137,2443 L 4117,2443 L 4110,2446 L 4109,2447 L 4095,2452 L 4093,2452 L 4078,2453 L 4077,2454 L 3794,2454 L 3347,2900 L 3346,2901 L 3331,2912 L 3329,2913 L 3312,2920 L 3310,2921 L 3292,2923 L 3291,2923 L 3108,2923 L 3107,2923 L 3092,2922 L 3090,2922 L 3076,2917 L 3075,2916 L 3062,2909 L 3061,2908 L 3050,2898 L 3049,2897 L 3040,2885 L 3039,2883 L 3033,2870 L 3032,2868 L 3029,2854 L 3029,2852 L 3029,2837 L 3029,2836 L 3032,2821 L 3033,2820 L 3039,2806 L 3040,2805 L 3049,2793 L 3050,2791 L 3061,2782 L 3062,2781 L 3075,2773 L 3076,2773 L 3090,2768 L 3092,2768 L 3107,2766 L 3108,2766 L 3258,2766 z " style="fill-opacity:1.000000;fill:rgb(251,50,175);stroke:rgb(0,0,0);stroke-width:2"/></g>
<g fill-rule="evenodd"><path d="M 4089,3836 L 5558,3836 L 5558,3831 L 5558,3829 L 5584,3749 L 5585,3748 L 5619,3688 L 5425,3493 L 4037,3493 L 4037,3493 L 4022,3492 L 4020,3491 L 4006,3487 L 4005,3486 L 3992,3479 L 3991,3478 L 3980,3468 L 3978,3467 L 3970,3455 L 3969,3453 L 3963,3440 L 3962,3438 L 3959,3424 L 3959,3422 L 3959,3407 L 3959,3406 L 3962,3391 L 3963,3390 L 3969,3376 L 3970,3375 L 3978,3363 L 3980,3361 L 3991,3351 L 3992,3351 L 4005,3343 L 4006,3342 L 4020,3338 L 4022,3338 L 4037,3336 L 4037,3336 L 5457,3336 L 5458,3336 L 5477,3338 L 5479,3339 L 5496,3346 L 5497,3347 L 5512,3358 L 5513,3359 L 5731,3577 L 5753,3562 L 5754,3561 L 5830,3527 L 5832,3527 L 5914,3509 L 5915,3509 L 5999,3509 L 6001,3509 L 6082,3527 L 6084,3527 L 6160,3561 L 6162,3562 L 6229,3611 L 6231,3612 L 6287,3674 L 6288,3676 L 6329,3748 L 6330,3749 L 6356,3829 L 6356,3831 L 6365,3914 L 6365,3915 L 6356,3999 L 6356,4000 L 6330,4080 L 6329,4081 L 6288,4154 L 6287,4155 L 6231,4217 L 6229,4218 L 6162,4267 L 6160,4268 L 6084,4302 L 6082,4303 L 6001,4320 L 5999,4320 L 5915,4320 L 5914,4320 L 5832,4303 L 5830,4302 L 5754,4268 L 5753,4267 L 5685,4218 L 5684,4217 L 5628,4155 L 5627,4154 L 5585,4081 L 5584,4080 L 5558,4000 L 5558,3999 L 5558,3993 L 4057,3993 L 4056,3993 L 4038,3991 L 4036,3990 L 4019,3983 L 4017,3982 L 4006,3973 L 3848,3973 L 3721,4100 L 3721,4101 L 3706,4112 L 3704,4113 L 3687,4120 L 3685,4121 L 3667,4123 L 3666,4123 L 3108,4123 L 3107,4123 L 3092,4122 L 3090,4121 L 3076,4117 L 3075,4116 L 3062,4109 L 3061,4108 L 3050,4098 L 3049,4097 L 3040,4085 L 3039,4083 L 3033,4070 L 3032,4068 L 3029,4054 L 3029,4052 L 3029,4037 L 3029,4036 L 3032,4021 L 3033,4019 L 3039,4006 L 3040,4005 L 3049,3993 L 3050,3991 L 3061,3981 L 3062,3980 L 3075,3973 L 3076,3972 L 3090,3968 L 3092,3967 L 3107,3966 L 3108,3966 L 3633,3966 L 3760,3839 L 3761,3838 L 3776,3827 L 3777,3826 L 3794,3819 L 3796,3818 L 3815,3816 L 3816,3816 L 4037,3816 L 4038,3816 L 4057,3818 L 4059,3819 L 4076,3826 L 4078,3827 L 4089,3836 z " style="fill-opacity:1.000000;fill:rgb(60,84,236);stroke:rgb(0,0,0);stroke-width:2"/></g>
<g fill-rule="evenodd"><path d="M 3582,4323 L 3108,4323 L 3107,4323 L 3092,4322 L 3090,4321 L 3076,4317 L 3075,4316 L 3062,4309 L 3061,4308 L 3050,4298 L 3049,4297 L 3040,4285 L 3039,4283 L 3033,4270 L 3032,4268 L 3029,4254 L 3029,4252 L 3029,4237 L 3029,4235 L 3032,4221 L 3033,4219 L 3039,4206 L 3040,4204 L 3049,4192 L 3050,4191 L 3061,4181 L 3062,4180 L 3075,4173 L 3076,4172 L 3090,4168 L 3092,4167 L 3107,4166 L 3108,4166 L 3615,4166 L 3616,4166 L 3634,4168 L 3636,4169 L 3653,4176 L 3655,4177 L 3669,4188 L 3670,4189 L 3697,4216 L 4037,4216 L 4038,4216 L 4053,4217 L 4055,4218 L 4069,4222 L 4070,4223 L 4077,4227 L 4097,4227 L 4099,4227 L 4101,4227 L 4102,4228 L 4104,4230 L 4105,4231 L 4105,4233 L 4105,4235 L 4105,4255 L 4106,4256 L 4112,4269 L 4113,4271 L 4116,4285 L 4116,4287 L 4116,4302 L 4116,4304 L 4113,4318 L 4112,4320 L 4106,4333 L 4105,4334 L 4105,4355 L 4105,4356 L 4105,4358 L 4104,4359 L 4102,4361 L 4101,4362 L 4099,4362 L 4097,4362 L 4077,4362 L 4070,4366 L 4069,4367 L 4055,4371 L 4053,4372 L 4038,4373 L 4037,4373 L 3665,4373 L 3664,4373 L 3645,4371 L 3643,4370 L 3626,4363 L 3624,4362 L 3610,4351 L 3609,4350 L 3582,4323 z " style="fill-opacity:1.000000;fill:rgb(24,219,92);stroke:rgb(0,0,0);stroke-width:2"/></g>
<g fill-rule="evenodd"><path d="M 3361,3766 L 3568,3559 L 3568,3558 L 3583,3547 L 3585,3546 L 3602,3539 L 3604,3538 L 3622,3536 L 3623,3536 L 4037,3536 L 4038,3536 L 4053,3537 L 4055,3538 L 4069,3542 L 4070,3543 L 4077,3547 L 4097,3547 L 4099,3547 L 4101,3548 L 4102,3548 L 4104,3550 L 4105,3551 L 4105,3553 L 4105,3555 L 4105,3575 L 4106,3576 L 4112,3590 L 4113,3591 L 4116,3606 L 4116,3607 L 4116,3622 L 4116,3624 L 4113,3638 L 4112,3640 L 4106,3653 L 4105,3654 L 4105,3675 L 4105,3676 L 4105,3678 L 4104,3680 L 4102,3681 L 4101,3682 L 4099,3682 L 4097,3682 L 4077,3682 L 4070,3686 L 4069,3687 L 4055,3691 L 4053,3692 L 4038,3693 L 4037,3693 L 3656,3693 L 3449,3900 L 3448,3901 L 3434,3912 L 3432,3913 L 3415,3920 L 3413,3921 L 3394,3923 L 3393,3923 L 3108,3923 L 3107,3923 L 3092,3922 L 3090,3921 L 3076,3917 L 3075,3916 L 3062,3909 L 3061,3908 L 3050,3898 L 3049,3897 L 3040,3885 L 3039,3883 L 3033,3870 L 3032,3868 L 3029,3854 L 3029,3852 L 3029,3837 L 3029,3836 L 3032,3821 L 3033,3819 L 3039,3806 L 3040,3805 L 3049,3793 L 3050,3791 L 3061,3781 L 3062,3780 L 3075,3773 L 3076,3772 L 3090,3768 L 3092,3767 L 3107,3766 L 3108,3766 L 3361,3766 z " style="fill-opacity:1.000000;fill:rgb(2,26,254);stroke:rgb(0,0,0);stroke-width:2"/></g>
<g fill-rule="evenodd"><path d="M 3343,2366 L 3710,1999 L 3711,1998 L 3726,1987 L 3728,1986 L 3745,1979 L 3747,1979 L 3765,1976 L 3766,1976 L 4077,1976 L 4078,1976 L 4093,1978 L 4095,1978 L 4109,1983 L 4110,1983 L 4117,1987 L 4137,1987 L 4139,1987 L 4141,1988 L 4142,1989 L 4144,1990 L 4145,1991 L 4145,1993 L 4145,1995 L 4145,2015 L 4146,2016 L 4152,2030 L 4153,2031 L 4156,2046 L 4156,2047 L 4156,2062 L 4156,2064 L 4153,2078 L 4152,2080 L 4146,2093 L 4145,2095 L 4145,2115 L 4145,2117 L 4145,2118 L 4144,2120 L 4142,2121 L 4141,2122 L 4139,2123 L 4137,2123 L 4117,2123 L 4110,2126 L 4109,2127 L 4095,2132 L 4093,2132 L 4078,2134 L 4077,2134 L 3799,2134 L 3432,2500 L 3431,2501 L 3416,2512 L 3414,2513 L 3397,2521 L 3395,2521 L 3377,2523 L 3376,2524 L 3108,2524 L 3107,2523 L 3092,2522 L 3090,2522 L 3076,2517 L 3075,2516 L 3062,2509 L 3061,2508 L 3050,2498 L 3049,2497 L 3040,2485 L 3039,2483 L 3033,2470 L 3032,2468 L 3029,2454 L 3029,2452 L 3029,2437 L 3029,2436 L 3032,2421 L 3033,2420 L 3039,2406 L 3040,2405 L 3049,2393 L 3050,2392 L 3061,2382 L 3062,2381 L 3075,2373 L 3076,2373 L 3090,2368 L 3092,2368 L 3107,2366 L 3108,2366 L 3343,2366 z " style="fill-opacity:1.000000;fill:rgb(67,251,250);stroke:rgb(0,0,0);stroke-width:2"/></g>
<g fill-rule="evenodd"><path d="M 5157,1576 L 5234,1499 L 5234,1499 L 5249,1487 L 5251,1486 L 5268,1479 L 5270,1479 L 5288,1476 L 5289,1476 L 5558,1476 L 5558,1471 L 5558,1469 L 5584,1390 L 5585,1388 L 5627,1316 L 5628,1315 L 5684,1252 L 5685,1251 L 5753,1202 L 5754,1201 L 5830,1167 L 5832,1167 L 5914,1149 L 5915,1149 L 5999,1149 L 6001,1149 L 6082,1167 L 6084,1167 L 6160,1201 L 6162,1202 L 6229,1251 L 6231,1252 L 6287,1315 L 6288,1316 L 6329,1388 L 6330,1390 L 6356,1469 L 6356,1471 L 6365,1554 L 6365,1556 L 6356,1639 L 6356,1640 L 6330,1720 L 6329,1722 L 6288,1794 L 6287,1795 L 6231,1857 L 6229,1858 L 6162,1908 L 6160,1908 L 6084,1942 L 6082,1943 L 6001,1960 L 5999,1961 L 5915,1961 L 5914,1960 L 5832,1943 L 5830,1942 L 5754,1908 L 5753,1908 L 5685,1858 L 5684,1857 L 5628,1795 L 5627,1794 L 5585,1722 L 5584,1720 L 5558,1640 L 5558,1639 L 5558,1634 L 5322,1634 L 5245,1711 L 5244,1711 L 5230,1723 L 5228,1724 L 5211,1731 L 5209,1731 L 5190,1734 L 5189,1734 L 4077,1734 L 4077,1734 L 4062,1732 L 4060,1732 L 4046,1727 L 4045,1726 L 4032,1719 L 4031,1718 L 4020,1708 L 4018,1707 L 4010,1695 L 4009,1694 L 4003,1680 L 4002,1678 L 3999,1664 L 3999,1662 L 3999,1647 L 3999,1646 L 4002,1631 L 4003,1630 L 4009,1616 L 4010,1615 L 4018,1603 L 4020,1602 L 4031,1592 L 4032,1591 L 4045,1583 L 4046,1583 L 4060,1578 L 4062,1578 L 4077,1576 L 4077,1576 L 5157,1576 z " style="fill-opacity:1.000000;fill:rgb(170,58,251);stroke:rgb(0,0,0);stroke-width:2"/></g>
<g fill-rule="evenodd"><path d="M 1835,964 L 1538,964 L 1537,964 L 1522,962 L 1521,962 L 1507,957 L 1505,957 L 1492,949 L 1491,948 L 1480,938 L 1479,937 L 1470,925 L 1469,924 L 1463,910 L 1463,909 L 1460,894 L 1459,892 L 1459,878 L 1460,876 L 1463,861 L 1463,860 L 1469,846 L 1470,845 L 1479,833 L 1480,832 L 1491,822 L 1492,821 L 1505,813 L 1507,813 L 1521,808 L 1522,808 L 1537,806 L 1538,806 L 1868,806 L 1869,806 L 1887,809 L 1889,809 L 1906,816 L 1908,817 L 1923,829 L 1923,829 L 2853,1759 L 2854,1760 L 2865,1775 L 2866,1776 L 2873,1794 L 2874,1796 L 2876,1814 L 2876,1815 L 2876,3102 L 2940,3166 L 3073,3166 L 3080,3163 L 3082,3162 L 3098,3159 L 3099,3159 L 3116,3159 L 3117,3159 L 3134,3162 L 3135,3163 L 3150,3169 L 3152,3170 L 3165,3180 L 3166,3181 L 3177,3193 L 3178,3194 L 3186,3209 L 3187,3210 L 3192,3226 L 3192,3227 L 3194,3244 L 3194,3245 L 3194,3445 L 3194,3445 L 3192,3462 L 3192,3463 L 3187,3479 L 3186,3481 L 3178,3495 L 3177,3496 L 3166,3508 L 3165,3510 L 3152,3519 L 3150,3520 L 3135,3527 L 3134,3527 L 3117,3531 L 3116,3531 L 3099,3531 L 3098,3531 L 3082,3527 L 3080,3527 L 3065,3520 L 3064,3519 L 3050,3510 L 3049,3508 L 3038,3496 L 3037,3495 L 3029,3481 L 3028,3479 L 3023,3463 L 3023,3462 L 3021,3445 L 3021,3445 L 3021,3323 L 2908,3323 L 2907,3323 L 2888,3321 L 2886,3320 L 2869,3313 L 2867,3312 L 2853,3301 L 2852,3300 L 2742,3190 L 2741,3190 L 2730,3175 L 2729,3173 L 2722,3156 L 2721,3154 L 2719,3136 L 2719,3135 L 2719,1847 L 1835,964 z " style="fill-opacity:1.000000;fill:rgb(41,209,230);stroke:rgb(0,0,0);stroke-width:2"/></g>
<g fill-rule="evenodd"><path d="M 0,7 L 0,6 L 0,4 L 1,3 L 2,1 L 4,0 L 6,0 L 7,0 L 6601,0 L 6602,0 L 6604,0 L 6606,1 L 6607,3 L 6608,4 L 6608,6 L 6609,7 L 6609,4633 L 6608,4634 L 6608,4636 L 6607,4637 L 6606,4639 L 6604,4640 L 6602,4640 L 6601,4640 L 7,4640 L 6,4640 L 4,4640 L 2,4639 L 1,4637 L 0,4636 L 0,4634 L 0,4633 L 0,7M 3109,4348 L 3565,4348 L 3566,4348 L 3568,4348 L 3570,4348 L 3573,4349 L 3574,4350 L 3576,4352 L 3577,4353 L 3591,4366 L 3625,4389 L 3666,4398 L 4036,4398 L 4078,4389 L 4078,4389 L 4081,4388 L 4084,4388 L 4085,4388 L 4096,4388 L 4109,4385 L 4120,4378 L 4128,4367 L 4131,4353 L 4131,4342 L 4131,4341 L 4131,4338 L 4132,4336 L 4132,4335 L 4140,4295 L 4132,4254 L 4132,4254 L 4131,4251 L 4131,4248 L 4131,4247 L 4131,4236 L 4128,4223 L 4121,4212 L 4110,4204 L 4099,4202 L 4098,4202 L 4096,4201 L 4095,4201 L 4093,4200 L 4092,4199 L 4090,4197 L 4089,4196 L 4088,4194 L 4087,4193 L 4086,4191 L 4086,4189 L 4085,4187 L 4085,4185 L 4085,4183 L 4085,4181 L 4086,4179 L 4086,4178 L 4087,4176 L 4088,4174 L 4090,4173 L 4090,4172 L 4115,4147 L 4130,4113 L 4130,4076 L 4115,4042 L 4115,4041 L 4115,4039 L 4114,4038 L 4114,4035 L 4114,4034 L 4115,4032 L 4115,4030 L 4116,4028 L 4117,4026 L 4118,4025 L 4119,4023 L 4120,4022 L 4122,4021 L 4124,4020 L 4125,4019 L 4127,4018 L 4129,4018 L 4131,4018 L 4132,4018 L 5520,4018 L 5521,4018 L 5524,4018 L 5525,4018 L 5528,4019 L 5529,4020 L 5531,4021 L 5533,4022 L 5534,4024 L 5535,4026 L 5536,4028 L 5537,4029 L 5591,4159 L 5712,4281 L 5871,4347 L 6043,4347 L 6202,4281 L 6323,4160 L 6389,4001 L 6389,3829 L 6324,3670 L 6202,3549 L 6043,3483 L 5872,3482 L 5740,3537 L 5740,3537 L 5737,3538 L 5735,3538 L 5733,3538 L 5731,3538 L 5729,3537 L 5727,3537 L 5725,3536 L 5724,3535 L 5722,3533 L 5721,3533 L 5531,3343 L 5497,3320 L 5455,3312 L 5300,3312 L 5299,3312 L 5297,3311 L 5296,3311 L 5294,3310 L 5292,3310 L 5290,3309 L 5289,3308 L 5287,3306 L 5286,3305 L 5285,3303 L 5284,3301 L 5283,3299 L 5283,3298 L 5283,3296 L 5282,3294 L 5283,3292 L 5283,3290 L 5283,3288 L 5284,3287 L 5285,3285 L 5285,3284 L 5292,3274 L 5300,3235 L 5292,3195 L 5269,3161 L 5251,3143 L 5217,3120 L 5176,3112 L 3929,3112 L 3928,3112 L 3926,3111 L 3925,3111 L 3923,3110 L 3921,3110 L 3919,3109 L 3918,3108 L 3916,3106 L 3915,3105 L 3914,3103 L 3913,3102 L 3912,3100 L 3912,3098 L 3912,3096 L 3911,3094 L 3911,3092 L 3912,3090 L 3912,3088 L 3913,3087 L 3914,3085 L 3915,3083 L 3916,3082 L 3917,3081 L 4115,2883 L 4116,2882 L 4118,2881 L 4119,2880 L 4122,2879 L 4124,2878 L 4126,2878 L 4127,2878 L 4461,2878 L 4502,2870 L 4537,2846 L 4789,2595 L 4812,2560 L 4820,2519 L 4820,2277 L 4812,2236 L 4790,2202 L 4757,2180 L 4717,2172 L 4678,2180 L 4645,2202 L 4623,2236 L 4614,2277 L 4614,2471 L 4614,2472 L 4614,2474 L 4613,2476 L 4612,2479 L 4611,2480 L 4610,2482 L 4609,2483 L 4426,2667 L 4425,2667 L 4423,2669 L 4421,2670 L 4419,2671 L 4417,2671 L 4414,2672 L 4413,2672 L 4154,2672 L 4153,2672 L 4151,2671 L 4149,2671 L 4147,2670 L 4146,2670 L 4144,2669 L 4142,2668 L 4141,2666 L 4140,2665 L 4139,2663 L 4138,2662 L 4137,2660 L 4137,2658 L 4136,2656 L 4136,2654 L 4136,2652 L 4136,2651 L 4137,2648 L 4137,2647 L 4138,2645 L 4139,2644 L 4141,2642 L 4141,2641 L 4155,2627 L 4170,2593 L 4170,2557 L 4156,2523 L 4130,2497 L 4130,2497 L 4128,2495 L 4127,2494 L 4126,2492 L 4126,2490 L 4125,2488 L 4125,2486 L 4125,2484 L 4125,2482 L 4126,2480 L 4126,2479 L 4127,2477 L 4128,2475 L 4129,2473 L 4130,2472 L 4132,2471 L 4133,2470 L 4135,2469 L 4137,2468 L 4139,2467 L 4140,2467 L 4149,2465 L 4160,2458 L 4168,2448 L 4171,2433 L 4171,2422 L 4171,2421 L 4171,2418 L 4172,2416 L 4172,2415 L 4180,2375 L 4172,2335 L 4172,2334 L 4171,2332 L 4171,2329 L 4171,2328 L 4171,2316 L 4168,2303 L 4161,2292 L 4150,2285 L 4136,2282 L 4125,2282 L 4124,2282 L 4121,2281 L 4118,2281 L 4118,2280 L 4076,2272 L 3763,2272 L 3736,2277 L 3735,2277 L 3733,2278 L 3731,2278 L 3729,2277 L 3727,2277 L 3725,2276 L 3724,2275 L 3722,2274 L 3721,2273 L 3719,2272 L 3718,2271 L 3717,2269 L 3716,2267 L 3715,2265 L 3715,2264 L 3714,2262 L 3714,2260 L 3714,2258 L 3715,2256 L 3715,2254 L 3716,2253 L 3717,2251 L 3718,2249 L 3719,2248 L 3719,2247 L 3803,2163 L 3804,2162 L 3806,2161 L 3808,2160 L 3810,2159 L 3812,2158 L 3815,2158 L 3816,2158 L 4076,2158 L 4118,2149 L 4118,2149 L 4121,2148 L 4124,2148 L 4125,2148 L 4136,2148 L 4149,2145 L 4160,2138 L 4168,2128 L 4171,2113 L 4171,2102 L 4171,2101 L 4171,2098 L 4172,2096 L 4172,2095 L 4180,2055 L 4172,2015 L 4172,2014 L 4171,2012 L 4171,2009 L 4171,2008 L 4171,1997 L 4168,1983 L 4161,1972 L 4150,1965 L 4147,1964 L 4145,1963 L 4143,1962 L 4142,1961 L 4140,1960 L 4139,1958 L 4138,1957 L 4137,1955 L 4136,1953 L 4136,1951 L 4135,1949 L 4135,1948 L 4135,1946 L 4135,1944 L 4136,1942 L 4136,1940 L 4137,1938 L 4138,1937 L 4139,1935 L 4141,1934 L 4150,1928 L 4172,1894 L 4180,1855 L 4172,1816 L 4152,1786 L 4152,1785 L 4151,1783 L 4150,1781 L 4150,1779 L 4149,1778 L 4149,1776 L 4149,1774 L 4150,1772 L 4150,1770 L 4151,1768 L 4152,1767 L 4153,1765 L 4154,1764 L 4156,1762 L 4157,1761 L 4159,1760 L 4160,1759 L 4162,1759 L 4164,1758 L 4166,1758 L 4167,1758 L 5188,1758 L 5229,1750 L 5263,1726 L 5327,1663 L 5328,1662 L 5330,1661 L 5331,1660 L 5334,1659 L 5336,1658 L 5338,1658 L 5339,1658 L 5520,1658 L 5521,1658 L 5524,1658 L 5525,1659 L 5528,1659 L 5529,1660 L 5531,1662 L 5533,1663 L 5534,1665 L 5535,1666 L 5536,1668 L 5537,1669 L 5591,1799 L 5712,1921 L 5871,1987 L 6043,1987 L 6202,1921 L 6323,1800 L 6389,1641 L 6389,1469 L 6324,1310 L 6202,1189 L 6043,1123 L 5872,1123 L 5713,1188 L 5591,1310 L 5537,1441 L 5536,1442 L 5535,1444 L 5534,1445 L 5532,1447 L 5531,1448 L 5529,1450 L 5527,1450 L 5525,1451 L 5523,1452 L 5521,1452 L 5520,1452 L 5291,1452 L 5250,1460 L 5215,1483 L 5152,1547 L 5151,1547 L 5149,1549 L 5147,1550 L 5145,1551 L 5143,1552 L 5140,1552 L 5139,1552 L 4079,1552 L 4038,1560 L 4005,1582 L 3983,1616 L 3975,1655 L 3983,1694 L 4003,1724 L 4003,1725 L 4004,1727 L 4005,1728 L 4005,1730 L 4005,1732 L 4006,1734 L 4005,1736 L 4005,1738 L 4005,1740 L 4004,1742 L 4003,1743 L 4002,1745 L 4001,1746 L 3999,1748 L 3998,1749 L 3996,1750 L 3994,1751 L 3992,1751 L 3991,1752 L 3989,1752 L 3988,1752 L 3716,1752 L 3715,1752 L 3712,1751 L 3710,1751 L 3708,1750 L 3706,1749 L 3704,1747 L 3703,1747 L 2882,925 L 2881,925 L 2880,923 L 2879,921 L 2878,919 L 2877,917 L 2877,915 L 2877,913 L 2877,911 L 2877,909 L 2878,907 L 2878,906 L 2930,781 L 2930,609 L 2864,451 L 2743,329 L 2584,263 L 2412,263 L 2253,329 L 2132,450 L 2066,609 L 2066,781 L 2131,939 L 2253,1061 L 2411,1127 L 2583,1127 L 2720,1071 L 2721,1070 L 2723,1070 L 2725,1069 L 2727,1069 L 2729,1069 L 2732,1070 L 2733,1070 L 2735,1071 L 2737,1072 L 2739,1074 L 2740,1075 L 3591,1926 L 3626,1950 L 3667,1958 L 3677,1958 L 3679,1958 L 3681,1959 L 3682,1960 L 3684,1961 L 3686,1962 L 3687,1963 L 3688,1965 L 3689,1966 L 3690,1968 L 3691,1970 L 3692,1971 L 3692,1974 L 3692,1975 L 3692,1977 L 3692,1979 L 3691,1981 L 3691,1983 L 3690,1985 L 3689,1986 L 3687,1988 L 3687,1988 L 3339,2337 L 3338,2337 L 3336,2339 L 3334,2340 L 3332,2341 L 3330,2341 L 3327,2342 L 3326,2342 L 3109,2342 L 3068,2350 L 3035,2372 L 3013,2406 L 3005,2445 L 3013,2484 L 3035,2517 L 3066,2538 L 3066,2538 L 3068,2540 L 3069,2541 L 3070,2543 L 3071,2544 L 3072,2546 L 3073,2548 L 3073,2550 L 3073,2551 L 3073,2554 L 3073,2555 L 3073,2557 L 3072,2559 L 3071,2561 L 3071,2562 L 3069,2564 L 3068,2565 L 3066,2567 L 3065,2568 L 3063,2569 L 3062,2569 L 3058,2571 L 3034,2595 L 3020,2627 L 3020,2662 L 3034,2694 L 3058,2719 L 3062,2720 L 3063,2721 L 3065,2722 L 3067,2723 L 3068,2724 L 3069,2725 L 3071,2727 L 3071,2729 L 3072,2731 L 3073,2732 L 3073,2734 L 3073,2736 L 3073,2738 L 3073,2740 L 3073,2742 L 3072,2744 L 3071,2745 L 3070,2747 L 3069,2749 L 3068,2750 L 3066,2751 L 3066,2752 L 3035,2772 L 3013,2805 L 3005,2845 L 3013,2884 L 3035,2917 L 3054,2930 L 3054,2930 L 3056,2932 L 3057,2933 L 3059,2935 L 3060,2936 L 3060,2938 L 3061,2940 L 3061,2942 L 3062,2944 L 3062,2946 L 3061,2948 L 3061,2950 L 3060,2951 L 3060,2953 L 3059,2955 L 3057,2956 L 3056,2958 L 3054,2959 L 3054,2960 L 3035,2972 L 3013,3005 L 3005,3045 L 3013,3084 L 3033,3114 L 3033,3115 L 3034,3117 L 3035,3118 L 3035,3120 L 3036,3122 L 3036,3124 L 3036,3126 L 3035,3128 L 3035,3129 L 3034,3131 L 3033,3133 L 3032,3135 L 3031,3136 L 3029,3138 L 3028,3139 L 3026,3140 L 3025,3140 L 3023,3141 L 3021,3141 L 3019,3142 L 3018,3142 L 2958,3142 L 2957,3142 L 2954,3141 L 2952,3141 L 2950,3140 L 2948,3139 L 2946,3137 L 2945,3136 L 2906,3097 L 2905,3096 L 2904,3094 L 2903,3093 L 2902,3090 L 2901,3088 L 2901,3086 L 2901,3085 L 2901,1817 L 2892,1776 L 2869,1741 L 1942,813 L 1907,790 L 1866,782 L 1540,782 L 1499,790 L 1465,812 L 1460,819 L 1459,821 L 1457,822 L 1456,823 L 1454,824 L 1452,825 L 1450,825 L 1448,825 L 1446,826 L 1445,825 L 1443,825 L 1441,824 L 1439,824 L 1438,823 L 1436,822 L 1435,821 L 1427,813 L 1405,813 L 1405,844 L 1405,846 L 1404,848 L 1403,849 L 1402,850 L 1400,851 L 1399,852 L 1397,852 L 1279,852 L 1277,852 L 1275,851 L 1274,850 L 1273,849 L 1272,848 L 1271,846 L 1271,844 L 1271,726 L 1271,724 L 1272,723 L 1273,721 L 1274,720 L 1275,719 L 1277,718 L 1279,718 L 1310,718 L 1310,696 L 1308,694 L 1279,694 L 1278,694 L 1276,694 L 1274,693 L 1272,692 L 1270,692 L 1268,690 L 1267,689 L 1265,688 L 1264,686 L 1263,684 L 1262,683 L 1262,681 L 1261,679 L 1261,677 L 1261,676 L 1261,665 L 1261,664 L 1261,661 L 1262,659 L 1263,657 L 1264,655 L 1265,653 L 1266,652 L 1309,609 L 1333,574 L 1341,533 L 1341,362 L 1341,361 L 1341,359 L 1341,357 L 1342,355 L 1343,354 L 1344,352 L 1345,351 L 1347,349 L 1348,348 L 1350,347 L 1351,346 L 1354,345 L 1355,345 L 1357,344 L 1359,344 L 1361,345 L 1362,345 L 1380,348 L 1496,348 L 1510,346 L 1521,339 L 1528,328 L 1531,313 L 1531,197 L 1528,183 L 1521,172 L 1511,165 L 1496,162 L 1379,162 L 1366,165 L 1355,172 L 1348,183 L 1347,186 L 1346,188 L 1345,189 L 1344,191 L 1342,192 L 1341,193 L 1339,195 L 1338,196 L 1336,196 L 1334,197 L 1332,197 L 1331,197 L 1329,197 L 1327,197 L 1325,197 L 1323,196 L 1321,195 L 1320,194 L 1318,193 L 1317,192 L 1316,190 L 1315,190 L 1310,183 L 1277,160 L 1238,152 L 1199,160 L 1165,183 L 1149,207 L 1148,208 L 1147,210 L 1146,211 L 1144,212 L 1143,213 L 1141,214 L 1139,214 L 1137,215 L 1135,215 L 1133,215 L 1131,215 L 1120,212 L 1101,231 L 1104,240 L 1104,242 L 1106,254 L 1106,256 L 1104,268 L 1104,270 L 1100,282 L 1099,283 L 1093,294 L 1092,296 L 1084,305 L 1083,306 L 1072,313 L 1071,314 L 1060,319 L 1058,320 L 1046,322 L 1044,323 L 1032,323 L 1030,322 L 1018,320 L 1016,319 L 1014,318 L 995,337 L 995,338 L 1024,348 L 1061,346 L 1081,338 L 1084,327 L 1084,326 L 1085,324 L 1086,323 L 1087,321 L 1088,320 L 1090,318 L 1092,317 L 1094,316 L 1095,315 L 1098,315 L 1099,314 L 1102,314 L 1103,315 L 1106,315 L 1107,316 L 1110,317 L 1111,318 L 1112,317 L 1114,317 L 1115,317 L 1117,316 L 1119,317 L 1121,317 L 1123,317 L 1125,318 L 1126,319 L 1128,320 L 1129,321 L 1131,323 L 1132,324 L 1133,326 L 1134,328 L 1134,330 L 1135,331 L 1135,333 L 1135,334 L 1135,485 L 1135,486 L 1134,489 L 1134,491 L 1133,493 L 1132,495 L 1130,497 L 1130,498 L 1086,541 L 1063,576 L 1055,617 L 1055,1173 L 1063,1214 L 1086,1249 L 1094,1257 L 1129,1280 L 1170,1288 L 1263,1288 L 1264,1288 L 1266,1288 L 1267,1289 L 1269,1289 L 1271,1290 L 1273,1291 L 1274,1292 L 1276,1294 L 1277,1295 L 1278,1297 L 1279,1298 L 1280,1300 L 1280,1302 L 1280,1304 L 1281,1305 L 1280,1308 L 1280,1309 L 1280,1311 L 1279,1313 L 1278,1315 L 1277,1316 L 1276,1318 L 1275,1318 L 1261,1333 L 1247,1367 L 1247,1403 L 1260,1437 L 1286,1462 L 1320,1476 L 1356,1476 L 1389,1462 L 1415,1437 L 1429,1403 L 1429,1367 L 1415,1333 L 1390,1308 L 1387,1307 L 1386,1306 L 1384,1305 L 1383,1304 L 1381,1303 L 1380,1302 L 1379,1300 L 1378,1298 L 1377,1296 L 1377,1295 L 1376,1293 L 1376,1291 L 1376,1289 L 1376,1287 L 1377,1285 L 1377,1283 L 1378,1281 L 1379,1280 L 1380,1278 L 1382,1277 L 1383,1276 L 1384,1275 L 1410,1258 L 1415,1251 L 1415,1250 L 1417,1249 L 1418,1247 L 1420,1246 L 1421,1245 L 1423,1244 L 1424,1244 L 1426,1243 L 1428,1243 L 1430,1243 L 1432,1243 L 1434,1243 L 1435,1244 L 1437,1245 L 1439,1245 L 1441,1247 L 1442,1248 L 1443,1249 L 1444,1251 L 1445,1252 L 1446,1254 L 1447,1256 L 1447,1257 L 1448,1259 L 1448,1261 L 1447,1263 L 1447,1265 L 1447,1266 L 1447,1303 L 1460,1337 L 1486,1362 L 1501,1368 L 1502,1369 L 1504,1370 L 1505,1371 L 1507,1372 L 1508,1373 L 1509,1375 L 1510,1377 L 1511,1379 L 1511,1380 L 1512,1382 L 1512,1384 L 1512,1386 L 1512,1388 L 1511,1390 L 1511,1391 L 1510,1393 L 1509,1395 L 1508,1396 L 1507,1398 L 1505,1399 L 1504,1400 L 1502,1401 L 1501,1401 L 1486,1408 L 1461,1433 L 1447,1467 L 1447,1503 L 1460,1537 L 1486,1562 L 1520,1576 L 1556,1576 L 1589,1562 L 1615,1537 L 1629,1503 L 1629,1467 L 1615,1433 L 1590,1408 L 1575,1401 L 1574,1401 L 1572,1400 L 1571,1399 L 1569,1398 L 1568,1396 L 1567,1395 L 1566,1393 L 1565,1391 L 1564,1390 L 1564,1388 L 1564,1386 L 1564,1384 L 1564,1382 L 1564,1380 L 1565,1378 L 1566,1377 L 1567,1375 L 1568,1373 L 1569,1372 L 1571,1371 L 1572,1370 L 1574,1369 L 1575,1368 L 1589,1362 L 1615,1337 L 1629,1303 L 1629,1267 L 1615,1233 L 1600,1218 L 1600,1218 L 1598,1216 L 1597,1215 L 1597,1213 L 1596,1211 L 1595,1209 L 1595,1208 L 1595,1205 L 1595,1204 L 1596,1202 L 1596,1200 L 1597,1198 L 1598,1197 L 1599,1195 L 1600,1194 L 1602,1192 L 1603,1191 L 1605,1190 L 1606,1189 L 1608,1189 L 1610,1188 L 1612,1188 L 1613,1188 L 1738,1188 L 1739,1188 L 1741,1188 L 1743,1189 L 1746,1190 L 1747,1191 L 1750,1193 L 1750,1193 L 1790,1232 L 1790,1233 L 1792,1235 L 1793,1237 L 1794,1239 L 1794,1241 L 1795,1244 L 1795,1245 L 1795,3373 L 1803,3414 L 1825,3447 L 1858,3469 L 1898,3477 L 1937,3469 L 1970,3447 L 1993,3414 L 2001,3373 L 2001,1207 L 2001,1206 L 2001,1204 L 2001,1202 L 2002,1200 L 2003,1199 L 2004,1197 L 2005,1195 L 2006,1194 L 2008,1193 L 2009,1192 L 2011,1191 L 2013,1190 L 2014,1189 L 2016,1189 L 2018,1189 L 2020,1189 L 2022,1189 L 2024,1190 L 2026,1190 L 2028,1191 L 2029,1192 L 2031,1194 L 2031,1194 L 2689,1852 L 2690,1853 L 2692,1855 L 2693,1857 L 2694,1859 L 2694,1861 L 2695,1864 L 2695,1865 L 2695,3133 L 2703,3174 L 2726,3209 L 2834,3316 L 2868,3339 L 2909,3348 L 2979,3348 L 2980,3348 L 2982,3348 L 2984,3348 L 2986,3349 L 2987,3350 L 2989,3351 L 2991,3352 L 2992,3354 L 2993,3355 L 2995,3357 L 2995,3359 L 2996,3361 L 2996,3362 L 2997,3365 L 2997,3366 L 2997,3443 L 3005,3487 L 3029,3523 L 3047,3534 L 3048,3535 L 3049,3536 L 3050,3538 L 3052,3539 L 3053,3541 L 3054,3543 L 3054,3544 L 3055,3546 L 3055,3548 L 3055,3550 L 3055,3552 L 3054,3554 L 3054,3556 L 3053,3558 L 3052,3559 L 3050,3561 L 3049,3562 L 3048,3564 L 3047,3564 L 3035,3572 L 3013,3605 L 3005,3645 L 3013,3684 L 3035,3717 L 3054,3730 L 3054,3730 L 3056,3732 L 3057,3733 L 3059,3735 L 3060,3736 L 3060,3738 L 3061,3740 L 3061,3742 L 3062,3744 L 3062,3746 L 3061,3747 L 3061,3750 L 3060,3751 L 3060,3753 L 3059,3755 L 3057,3756 L 3056,3758 L 3054,3759 L 3054,3759 L 3035,3772 L 3013,3805 L 3005,3845 L 3013,3884 L 3035,3917 L 3054,3930 L 3054,3930 L 3056,3932 L 3057,3933 L 3059,3935 L 3060,3936 L 3060,3938 L 3061,3940 L 3061,3942 L 3062,3943 L 3062,3946 L 3061,3947 L 3061,3949 L 3060,3951 L 3060,3953 L 3059,3955 L 3057,3956 L 3056,3958 L 3054,3959 L 3054,3959 L 3035,3972 L 3013,4005 L 3005,4045 L 3013,4084 L 3035,4117 L 3054,4130 L 3054,4130 L 3056,4132 L 3057,4133 L 3059,4135 L 3060,4136 L 3060,4138 L 3061,4140 L 3061,4142 L 3062,4143 L 3062,4146 L 3061,4147 L 3061,4149 L 3060,4151 L 3060,4153 L 3059,4155 L 3057,4156 L 3056,4157 L 3054,4159 L 3054,4159 L 3035,4172 L 3013,4205 L 3005,4245 L 3013,4284 L 3035,4317 L 3068,4339 L 3109,4348M 1149,4071 L 1141,4052 L 1140,4052 L 1121,4071 L 1124,4080 L 1124,4081 L 1126,4094 L 1126,4095 L 1124,4108 L 1124,4109 L 1121,4118 L 1140,4138 L 1140,4137 L 1151,4108 L 1149,4071M 995,4071 L 975,4052 L 975,4052 L 965,4081 L 967,4118 L 975,4137 L 975,4138 L 995,4118 L 992,4109 L 991,4108 L 990,4095 L 990,4094 L 991,4081 L 992,4080 L 995,4071M 995,4358 L 992,4349 L 991,4348 L 990,4335 L 990,4334 L 991,4321 L 992,4320 L 995,4311 L 975,4292 L 975,4292 L 965,4321 L 967,4358 L 975,4377 L 975,4377 L 995,4358M 1140,4377 L 1151,4348 L 1149,4311 L 1141,4292 L 1140,4292 L 1121,4311 L 1124,4320 L 1124,4321 L 1126,4334 L 1126,4335 L 1124,4348 L 1124,4349 L 1121,4358 L 1140,4377 L 1140,4377M 1034,4398 L 1015,4417 L 1015,4417 L 1044,4427 L 1081,4426 L 1101,4418 L 1101,4417 L 1082,4398 L 1080,4399 L 1078,4399 L 1066,4402 L 1064,4402 L 1052,4402 L 1050,4402 L 1038,4399 L 1036,4399 L 1034,4398M 1034,4271 L 1036,4270 L 1038,4270 L 1050,4267 L 1052,4267 L 1064,4267 L 1066,4267 L 1078,4270 L 1080,4270 L 1082,4271 L 1101,4252 L 1101,4252 L 1072,4242 L 1034,4243 L 1015,4251 L 1015,4252 L 1034,4271M 1034,4158 L 1015,4177 L 1015,4177 L 1044,4187 L 1081,4186 L 1101,4178 L 1101,4177 L 1082,4158 L 1080,4159 L 1078,4159 L 1066,4162 L 1064,4162 L 1052,4162 L 1050,4162 L 1038,4159 L 1036,4159 L 1034,4158M 1034,4031 L 1036,4030 L 1038,4030 L 1050,4027 L 1052,4027 L 1064,4027 L 1066,4027 L 1078,4030 L 1080,4030 L 1082,4031 L 1101,4012 L 1101,4012 L 1072,4002 L 1034,4003 L 1015,4012 L 1015,4012 L 1034,4031M 820,3322 L 806,3356 L 806,3393 L 820,3427 L 846,3453 L 879,3467 L 916,3467 L 950,3453 L 976,3427 L 990,3393 L 990,3356 L 976,3323 L 950,3297 L 916,3283 L 880,3283 L 846,3297 L 820,3322M 2198,3489 L 2239,3498 L 2248,3498 L 2249,3498 L 2251,3498 L 2253,3499 L 2256,3500 L 2257,3501 L 2259,3502 L 2260,3503 L 2274,3516 L 2308,3539 L 2349,3548 L 2438,3548 L 2439,3548 L 2441,3548 L 2443,3548 L 2445,3549 L 2446,3550 L 2448,3551 L 2450,3552 L 2451,3553 L 2452,3554 L 2454,3556 L 2454,3558 L 2455,3560 L 2456,3561 L 2456,3563 L 2456,3565 L 2456,3567 L 2456,3569 L 2455,3571 L 2455,3573 L 2454,3574 L 2453,3576 L 2452,3578 L 2451,3578 L 2434,3595 L 2421,3627 L 2421,3662 L 2434,3694 L 2458,3718 L 2482,3728 L 2482,3728 L 2484,3729 L 2486,3730 L 2487,3732 L 2488,3733 L 2490,3735 L 2490,3736 L 2491,3738 L 2492,3740 L 2492,3742 L 2493,3744 L 2493,3746 L 2492,3747 L 2492,3749 L 2491,3751 L 2490,3753 L 2490,3754 L 2488,3756 L 2487,3757 L 2486,3759 L 2484,3760 L 2482,3761 L 2482,3761 L 2458,3771 L 2434,3795 L 2421,3827 L 2421,3862 L 2434,3894 L 2451,3911 L 2452,3912 L 2453,3913 L 2454,3915 L 2455,3917 L 2455,3918 L 2456,3920 L 2456,3922 L 2456,3924 L 2456,3926 L 2456,3928 L 2455,3930 L 2454,3932 L 2454,3933 L 2452,3935 L 2451,3936 L 2450,3937 L 2448,3938 L 2446,3940 L 2445,3940 L 2443,3941 L 2441,3941 L 2439,3942 L 2438,3942 L 2369,3942 L 2328,3950 L 2294,3973 L 2180,4086 L 2180,4087 L 2178,4088 L 2177,4089 L 2175,4090 L 2173,4091 L 2171,4091 L 2169,4091 L 2167,4091 L 2166,4091 L 2164,4091 L 2162,4090 L 2160,4090 L 2158,4089 L 2157,4088 L 2155,4087 L 2154,4085 L 2153,4084 L 2152,4082 L 2151,4080 L 2150,4078 L 2136,4042 L 2110,4017 L 2076,4002 L 2039,4002 L 2006,4016 L 1980,4042 L 1966,4076 L 1966,4113 L 1980,4147 L 2005,4173 L 2041,4187 L 2043,4188 L 2045,4189 L 2047,4190 L 2048,4191 L 2050,4192 L 2051,4193 L 2052,4195 L 2053,4197 L 2054,4199 L 2054,4200 L 2055,4202 L 2055,4204 L 2055,4206 L 2054,4208 L 2054,4210 L 2053,4212 L 2052,4213 L 2051,4215 L 2050,4217 L 2049,4217 L 2033,4234 L 2032,4235 L 2030,4236 L 2028,4237 L 2025,4238 L 2024,4239 L 2018,4240 L 1985,4262 L 1963,4295 L 1955,4335 L 1963,4374 L 1985,4407 L 2018,4429 L 2059,4438 L 2076,4438 L 2117,4429 L 2152,4406 L 2405,4153 L 2406,4152 L 2408,4151 L 2410,4149 L 2412,4148 L 2414,4148 L 2417,4148 L 2418,4148 L 2438,4148 L 2439,4148 L 2441,4148 L 2443,4148 L 2445,4149 L 2446,4150 L 2448,4151 L 2450,4152 L 2451,4153 L 2452,4154 L 2454,4156 L 2454,4158 L 2455,4160 L 2456,4161 L 2456,4163 L 2456,4165 L 2456,4167 L 2456,4169 L 2455,4171 L 2455,4172 L 2454,4174 L 2453,4176 L 2452,4177 L 2451,4178 L 2434,4195 L 2421,4227 L 2421,4262 L 2434,4294 L 2458,4318 L 2490,4332 L 2525,4332 L 2557,4318 L 2581,4294 L 2595,4262 L 2595,4227 L 2582,4195 L 2557,4171 L 2553,4169 L 2552,4169 L 2550,4168 L 2549,4167 L 2547,4165 L 2546,4164 L 2545,4162 L 2544,4161 L 2543,4159 L 2542,4157 L 2542,4155 L 2542,4153 L 2542,4151 L 2542,4149 L 2542,4147 L 2543,4146 L 2544,4144 L 2545,4142 L 2546,4141 L 2547,4139 L 2549,4138 L 2550,4138 L 2580,4117 L 2602,4084 L 2610,4045 L 2602,4005 L 2580,3972 L 2550,3952 L 2549,3951 L 2547,3950 L 2546,3948 L 2545,3947 L 2544,3945 L 2543,3943 L 2542,3942 L 2542,3940 L 2542,3938 L 2542,3936 L 2542,3934 L 2542,3932 L 2543,3930 L 2544,3928 L 2545,3927 L 2546,3925 L 2547,3924 L 2549,3923 L 2550,3922 L 2552,3921 L 2553,3920 L 2557,3918 L 2581,3894 L 2595,3862 L 2595,3827 L 2582,3795 L 2557,3771 L 2534,3761 L 2533,3761 L 2531,3760 L 2530,3759 L 2528,3757 L 2527,3756 L 2526,3754 L 2525,3753 L 2524,3751 L 2523,3749 L 2523,3747 L 2523,3746 L 2523,3744 L 2523,3742 L 2523,3740 L 2524,3738 L 2525,3736 L 2526,3735 L 2527,3733 L 2528,3732 L 2530,3730 L 2531,3729 L 2533,3728 L 2534,3728 L 2557,3719 L 2581,3694 L 2595,3662 L 2595,3627 L 2582,3595 L 2557,3571 L 2553,3569 L 2552,3569 L 2550,3568 L 2549,3567 L 2547,3565 L 2546,3564 L 2545,3562 L 2544,3561 L 2543,3559 L 2542,3557 L 2542,3555 L 2542,3553 L 2542,3551 L 2542,3550 L 2542,3547 L 2543,3546 L 2544,3544 L 2545,3542 L 2546,3541 L 2547,3540 L 2549,3538 L 2550,3538 L 2580,3517 L 2602,3484 L 2610,3445 L 2602,3405 L 2580,3372 L 2568,3364 L 2568,3364 L 2566,3362 L 2565,3361 L 2564,3359 L 2563,3358 L 2562,3356 L 2561,3354 L 2561,3352 L 2560,3350 L 2560,3348 L 2561,3347 L 2561,3344 L 2562,3343 L 2563,3341 L 2564,3339 L 2565,3338 L 2566,3336 L 2568,3335 L 2568,3334 L 2586,3323 L 2610,3287 L 2618,3245 L 2610,3202 L 2586,3167 L 2554,3145 L 2553,3145 L 2551,3143 L 2550,3142 L 2549,3140 L 2548,3138 L 2547,3136 L 2546,3134 L 2546,3131 L 2546,3129 L 2546,3127 L 2547,3126 L 2547,3124 L 2528,3104 L 2526,3105 L 2515,3107 L 2513,3107 L 2502,3107 L 2500,3107 L 2489,3105 L 2487,3104 L 2477,3100 L 2476,3099 L 2466,3092 L 2465,3091 L 2457,3082 L 2456,3081 L 2451,3071 L 2450,3070 L 2446,3059 L 2446,3057 L 2445,3046 L 2445,3044 L 2446,3032 L 2446,3031 L 2448,3025 L 2429,3006 L 2420,3032 L 2422,3070 L 2422,3071 L 2422,3073 L 2421,3075 L 2421,3077 L 2420,3079 L 2419,3081 L 2418,3082 L 2416,3084 L 2415,3085 L 2413,3087 L 2411,3087 L 2409,3088 L 2408,3089 L 2405,3089 L 2404,3089 L 2401,3089 L 2400,3089 L 2376,3084 L 2239,3084 L 2195,3093 L 2160,3117 L 2136,3152 L 2127,3195 L 2136,3237 L 2160,3273 L 2177,3284 L 2178,3285 L 2179,3286 L 2181,3288 L 2182,3289 L 2183,3291 L 2184,3293 L 2184,3294 L 2185,3297 L 2185,3298 L 2185,3300 L 2185,3302 L 2184,3304 L 2184,3306 L 2183,3308 L 2182,3309 L 2181,3311 L 2179,3312 L 2178,3314 L 2177,3314 L 2165,3322 L 2143,3355 L 2135,3395 L 2143,3434 L 2165,3467 L 2198,3489M 2454,2357 L 2441,2359 L 2430,2366 L 2423,2377 L 2420,2392 L 2420,2498 L 2422,2512 L 2429,2523 L 2440,2530 L 2454,2533 L 2460,2533 L 2461,2533 L 2463,2533 L 2465,2533 L 2467,2534 L 2468,2535 L 2470,2536 L 2471,2537 L 2473,2538 L 2474,2540 L 2475,2541 L 2476,2543 L 2477,2545 L 2478,2546 L 2478,2548 L 2478,2550 L 2478,2552 L 2478,2554 L 2477,2556 L 2477,2557 L 2476,2559 L 2475,2561 L 2474,2562 L 2473,2564 L 2471,2565 L 2470,2566 L 2468,2567 L 2467,2567 L 2458,2571 L 2434,2595 L 2421,2627 L 2421,2662 L 2434,2694 L 2458,2719 L 2482,2728 L 2482,2729 L 2484,2730 L 2486,2731 L 2487,2732 L 2488,2733 L 2490,2735 L 2490,2736 L 2491,2738 L 2492,2740 L 2492,2742 L 2493,2744 L 2493,2746 L 2492,2748 L 2492,2750 L 2491,2751 L 2490,2753 L 2490,2755 L 2488,2756 L 2487,2758 L 2486,2759 L 2484,2760 L 2482,2761 L 2482,2761 L 2458,2771 L 2434,2795 L 2421,2827 L 2421,2862 L 2434,2894 L 2458,2919 L 2480,2928 L 2481,2928 L 2483,2929 L 2484,2930 L 2486,2931 L 2487,2933 L 2488,2934 L 2489,2936 L 2490,2938 L 2491,2939 L 2491,2941 L 2491,2943 L 2491,2945 L 2491,2947 L 2491,2949 L 2490,2951 L 2489,2953 L 2488,2954 L 2487,2956 L 2486,2957 L 2484,2958 L 2483,2959 L 2481,2960 L 2480,2961 L 2468,2966 L 2468,2966 L 2488,2985 L 2489,2985 L 2500,2982 L 2502,2982 L 2513,2982 L 2515,2982 L 2526,2985 L 2528,2985 L 2547,2966 L 2534,2962 L 2533,2961 L 2532,2960 L 2530,2960 L 2528,2958 L 2527,2957 L 2526,2955 L 2525,2954 L 2524,2952 L 2523,2950 L 2523,2948 L 2522,2946 L 2522,2944 L 2523,2943 L 2523,2940 L 2523,2939 L 2524,2937 L 2525,2935 L 2526,2933 L 2528,2932 L 2529,2931 L 2531,2930 L 2533,2929 L 2533,2928 L 2557,2919 L 2581,2894 L 2595,2862 L 2595,2827 L 2582,2795 L 2557,2771 L 2534,2761 L 2533,2761 L 2531,2760 L 2530,2759 L 2528,2757 L 2527,2756 L 2526,2755 L 2525,2753 L 2524,2751 L 2523,2750 L 2523,2747 L 2523,2746 L 2523,2744 L 2523,2742 L 2523,2740 L 2524,2738 L 2525,2736 L 2526,2735 L 2527,2733 L 2528,2732 L 2530,2731 L 2531,2730 L 2533,2729 L 2534,2728 L 2557,2719 L 2581,2694 L 2595,2662 L 2595,2628 L 2582,2595 L 2557,2571 L 2548,2567 L 2547,2567 L 2546,2566 L 2544,2565 L 2543,2564 L 2541,2562 L 2540,2561 L 2539,2559 L 2538,2557 L 2538,2556 L 2537,2554 L 2537,2552 L 2537,2550 L 2537,2548 L 2538,2546 L 2538,2545 L 2539,2543 L 2540,2541 L 2541,2540 L 2542,2538 L 2544,2537 L 2545,2536 L 2547,2535 L 2548,2534 L 2550,2533 L 2552,2533 L 2554,2533 L 2555,2533 L 2561,2533 L 2574,2530 L 2585,2523 L 2593,2513 L 2596,2498 L 2596,2391 L 2593,2378 L 2586,2367 L 2575,2360 L 2561,2357 L 2454,2357M 2596,3057 L 2594,3022 L 2587,3005 L 2587,3005 L 2567,3025 L 2569,3031 L 2569,3032 L 2570,3044 L 2570,3046 L 2569,3057 L 2569,3059 L 2567,3065 L 2586,3084 L 2596,3057M 803,1778 L 873,1778 L 937,1752 L 987,1702 L 1014,1638 L 1014,1568 L 987,1503 L 938,1454 L 873,1427 L 803,1427 L 738,1453 L 689,1503 L 662,1567 L 662,1637 L 689,1702 L 738,1751 L 803,1778M 803,844 L 873,844 L 937,817 L 987,768 L 1014,703 L 1014,633 L 987,569 L 938,519 L 873,492 L 803,492 L 738,519 L 689,568 L 662,633 L 662,703 L 689,767 L 738,817 L 803,844M 1366,718 L 1397,718 L 1399,718 L 1400,719 L 1402,720 L 1403,721 L 1404,723 L 1405,724 L 1405,726 L 1405,757 L 1427,757 L 1429,755 L 1429,720 L 1424,708 L 1415,699 L 1403,694 L 1368,694 L 1366,696 L 1366,718M 955,298 L 955,298 L 975,279 L 972,270 L 971,268 L 970,256 L 970,254 L 971,242 L 972,240 L 975,231 L 955,212 L 955,212 L 945,241 L 947,278 L 955,298M 1014,164 L 995,172 L 995,173 L 1014,192 L 1016,191 L 1018,190 L 1030,188 L 1032,188 L 1044,188 L 1046,188 L 1058,190 L 1060,191 L 1062,192 L 1081,173 L 1081,173 L 1052,162 L 1014,164M 5179,2327 L 5216,2327 L 5249,2313 L 5275,2287 L 5289,2253 L 5289,2217 L 5275,2183 L 5250,2157 L 5216,2143 L 5179,2143 L 5145,2157 L 5119,2183 L 5105,2216 L 5105,2253 L 5119,2287 L 5145,2313 L 5179,2327M 4943,1127 L 5102,1062 L 5223,940 L 5289,781 L 5289,609 L 5224,451 L 5102,329 L 4944,263 L 4772,263 L 4613,329 L 4491,450 L 4425,609 L 4425,781 L 4491,939 L 4612,1061 L 4771,1127 L 4943,1127M 4736,1367 L 4769,1353 L 4795,1327 L 4809,1293 L 4809,1257 L 4795,1223 L 4770,1197 L 4736,1183 L 4699,1183 L 4665,1197 L 4639,1223 L 4625,1257 L 4625,1293 L 4639,1327 L 4665,1353 L 4699,1367 L 4736,1367 z " style="fill-opacity:1.000000;fill:rgb(5,60,124);stroke:rgb(0,0,0);stroke-width:2"/></g>
</svg>
