<?xml version="1.0" standalone="no"?>
<!DOCTYPE svg PUBLIC "-//W3C//DTD SVG 1.1//EN"
"http://www.w3.org/Graphics/SVG/1.1/DTD/svg11.dtd">
<svg width="6594" height="4625" viewBox="0 0 6594 4625" version="1.1"
xmlns="http://www.w3.org/2000/svg"
xmlns:xlink="http://www.w3.org/1999/xlink">
<g fill-rule="evenodd"><path d="M 2453,3158 L 2500,3158 L 2517,3160 L 2532,3165 L 2546,3173 L 2559,3184 L 2568,3197 L 2575,3212 L 2578,3228 L 2578,3245 L 2575,3261 L 2568,3276 L 2559,3289 L 2546,3300 L 2532,3309 L 2517,3314 L 2500,3315 L 2420,3315 L 2400,3313 L 2381,3305 L 2365,3292 L 2338,3265 L 2230,3265 L 2214,3264 L 2198,3259 L 2184,3250 L 2172,3239 L 2162,3226 L 2155,3211 L 2152,3195 L 2152,3178 L 2155,3162 L 2162,3147 L 2172,3134 L 2184,3123 L 2198,3115 L 2214,3110 L 2230,3108 L 2370,3108 L 2391,3111 L 2410,3118 L 2426,3131 L 2453,3158 z " style="fill-opacity:1.000000;fill:rgb(103,198,105);stroke:rgb(0,0,0);stroke-width:2"/></g>
<g fill-rule="evenodd"><path d="M 3242,3566 L 3651,3157 L 3665,3145 L 3683,3138 L 3701,3136 L 5170,3136 L 5188,3138 L 5205,3145 L 5220,3157 L 5240,3177 L 5249,3188 L 5256,3201 L 5260,3216 L 5261,3230 L 5258,3245 L 5253,3259 L 5245,3271 L 5234,3282 L 5222,3290 L 5208,3295 L 5193,3297 L 5179,3297 L 5164,3293 L 5151,3286 L 5141,3278 L 3730,3278 L 3321,3687 L 3306,3698 L 3289,3705 L 3271,3707 L 3100,3707 L 3085,3706 L 3071,3701 L 3058,3694 L 3047,3684 L 3039,3672 L 3033,3659 L 3030,3644 L 3030,3629 L 3033,3615 L 3039,3601 L 3047,3589 L 3058,3579 L 3071,3572 L 3085,3567 L 3100,3566 L 3242,3566 z " style="fill-opacity:1.000000;fill:rgb(115,81,255);stroke:rgb(0,0,0);stroke-width:2"/></g>
<g fill-rule="evenodd"><path d="M 3771,2966 L 4020,2717 L 4035,2705 L 4052,2698 L 4070,2696 L 4426,2696 L 4639,2483 L 4639,2267 L 4641,2252 L 4645,2238 L 4653,2225 L 4662,2214 L 4674,2205 L 4688,2199 L 4702,2196 L 4717,2196 L 4732,2199 L 4745,2205 L 4757,2214 L 4767,2225 L 4775,2238 L 4779,2252 L 4781,2267 L 4781,2513 L 4778,2531 L 4771,2548 L 4760,2563 L 4506,2817 L 4491,2828 L 4474,2835 L 4456,2838 L 4099,2838 L 3850,3087 L 3835,3098 L 3818,3105 L 3800,3108 L 3100,3108 L 3085,3106 L 3071,3101 L 3058,3094 L 3047,3084 L 3039,3072 L 3033,3059 L 3030,3044 L 3030,3029 L 3033,3015 L 3039,3001 L 3047,2989 L 3058,2979 L 3071,2972 L 3085,2967 L 3100,2966 L 3771,2966 z " style="fill-opacity:1.000000;fill:rgb(74,236,41);stroke:rgb(0,0,0);stroke-width:2"/></g>
<g fill-rule="evenodd"><path d="M 1819,1216 L 1751,1148 L 1530,1148 L 1516,1146 L 1501,1142 L 1489,1134 L 1478,1124 L 1469,1112 L 1463,1099 L 1460,1084 L 1460,1070 L 1463,1055 L 1469,1042 L 1478,1030 L 1489,1020 L 1501,1012 L 1516,1008 L 1530,1006 L 1780,1006 L 1799,1009 L 1816,1016 L 1830,1027 L 1940,1137 L 1952,1152 L 1959,1169 L 1961,1187 L 1961,3367 L 1960,3381 L 1955,3395 L 1948,3408 L 1938,3419 L 1926,3428 L 1912,3434 L 1898,3437 L 1883,3437 L 1868,3434 L 1855,3428 L 1843,3419 L 1833,3408 L 1826,3395 L 1821,3381 L 1819,3367 L 1819,1216 z " style="fill-opacity:1.000000;fill:rgb(205,186,171);stroke:rgb(0,0,0);stroke-width:2"/></g>
<g fill-rule="evenodd"><path d="M 2040,4257 L 2310,3986 L 2325,3975 L 2342,3968 L 2360,3966 L 2500,3966 L 2515,3967 L 2529,3972 L 2542,3979 L 2553,3989 L 2562,4001 L 2568,4015 L 2571,4029 L 2571,4044 L 2568,4058 L 2562,4072 L 2553,4084 L 2542,4094 L 2529,4101 L 2515,4106 L 2500,4107 L 2390,4107 L 2120,4377 L 2106,4388 L 2089,4395 L 2070,4397 L 2050,4397 L 2035,4396 L 2021,4391 L 2009,4384 L 1998,4374 L 1989,4362 L 1983,4348 L 1980,4334 L 1980,4319 L 1983,4305 L 1989,4291 L 1998,4279 L 2009,4269 L 2021,4262 L 2035,4257 L 2040,4257 z " style="fill-opacity:1.000000;fill:rgb(242,251,227);stroke:rgb(0,0,0);stroke-width:2"/></g>
<g fill-rule="evenodd"><path d="M 2261,3458 L 2230,3458 L 2215,3456 L 2201,3451 L 2189,3444 L 2178,3434 L 2169,3422 L 2163,3409 L 2160,3394 L 2160,3379 L 2163,3365 L 2169,3351 L 2178,3339 L 2189,3329 L 2201,3322 L 2215,3317 L 2230,3316 L 2290,3316 L 2309,3318 L 2326,3325 L 2340,3337 L 2370,3366 L 2500,3366 L 2515,3367 L 2529,3372 L 2542,3379 L 2553,3389 L 2562,3401 L 2568,3415 L 2571,3429 L 2571,3444 L 2568,3459 L 2562,3472 L 2553,3484 L 2542,3494 L 2529,3501 L 2515,3506 L 2500,3507 L 2340,3507 L 2322,3505 L 2305,3498 L 2290,3487 L 2261,3458 z " style="fill-opacity:1.000000;fill:rgb(70,124,194);stroke:rgb(0,0,0);stroke-width:2"/></g>
<g fill-rule="evenodd"><path d="M 1221,1106 L 1330,1106 L 1345,1108 L 1359,1112 L 1372,1120 L 1383,1130 L 1392,1142 L 1398,1155 L 1401,1170 L 1401,1184 L 1398,1199 L 1392,1212 L 1383,1224 L 1372,1234 L 1359,1242 L 1345,1246 L 1330,1248 L 1160,1248 L 1142,1245 L 1125,1238 L 1110,1227 L 1100,1217 L 1089,1202 L 1082,1185 L 1079,1167 L 1079,607 L 1082,589 L 1089,572 L 1100,557 L 1159,498 L 1159,247 L 1161,232 L 1166,218 L 1173,205 L 1183,194 L 1195,186 L 1208,180 L 1223,177 L 1238,177 L 1252,180 L 1266,186 L 1278,194 L 1288,205 L 1295,218 L 1300,232 L 1301,247 L 1301,527 L 1299,545 L 1292,562 L 1280,577 L 1221,636 L 1221,1106 z " style="fill-opacity:1.000000;fill:rgb(84,248,27);stroke:rgb(0,0,0);stroke-width:2"/></g>
<g fill-rule="evenodd"><path d="M 4090,4087 L 4089,4099 L 4085,4111 L 4078,4122 L 4070,4131 L 4060,4139 L 4048,4144 L 4036,4146 L 4024,4146 L 4011,4144 L 4000,4139 L 3990,4131 L 3981,4122 L 3975,4111 L 3971,4099 L 3970,4087 L 3971,4074 L 3975,4062 L 3981,4051 L 3990,4042 L 4000,4035 L 4011,4029 L 4024,4027 L 4036,4027 L 4048,4029 L 4060,4035 L 4070,4042 L 4078,4051 L 4085,4062 L 4089,4074 L 4090,4087 z " style="fill-opacity:1.000000;fill:rgb(232,231,141);stroke:rgb(0,0,0);stroke-width:2"/></g>
<g fill-rule="evenodd"><path d="M 5250,687 L 5241,770 L 5215,850 L 5173,922 L 5117,984 L 5050,1033 L 4973,1067 L 4892,1085 L 4808,1085 L 4726,1067 L 4650,1033 L 4582,984 L 4526,922 L 4484,850 L 4459,770 L 4450,687 L 4459,604 L 4484,524 L 4526,452 L 4582,390 L 4650,341 L 4726,307 L 4808,289 L 4892,289 L 4973,307 L 5050,341 L 5117,390 L 5173,452 L 5215,524 L 5241,604 L 5250,687 z " style="fill-opacity:1.000000;fill:rgb(118,90,46);stroke:rgb(0,0,0);stroke-width:2"/></g>
<g fill-rule="evenodd"><path d="M 974,1595 L 971,1624 L 962,1653 L 947,1679 L 927,1701 L 902,1719 L 875,1731 L 845,1737 L 815,1737 L 786,1731 L 759,1719 L 734,1701 L 714,1679 L 699,1653 L 690,1624 L 687,1595 L 690,1565 L 699,1536 L 714,1510 L 734,1488 L 759,1470 L 786,1458 L 815,1452 L 845,1452 L 875,1458 L 902,1470 L 927,1488 L 947,1510 L 962,1536 L 971,1565 L 974,1595 z " style="fill-opacity:1.000000;fill:rgb(99,51,159);stroke:rgb(0,0,0);stroke-width:2"/></g>
<g fill-rule="evenodd"><path d="M 974,660 L 971,690 L 962,718 L 947,744 L 927,767 L 902,784 L 875,797 L 845,803 L 815,803 L 786,797 L 759,784 L 734,767 L 714,744 L 699,718 L 690,690 L 687,660 L 690,630 L 699,602 L 714,576 L 734,553 L 759,536 L 786,523 L 815,517 L 845,517 L 875,523 L 902,536 L 927,553 L 947,576 L 962,602 L 971,630 L 974,660 z " style="fill-opacity:1.000000;fill:rgb(201,154,102);stroke:rgb(0,0,0);stroke-width:2"/></g>
<g fill-rule="evenodd"><path d="M 1389,977 L 1388,989 L 1384,1001 L 1378,1012 L 1370,1021 L 1360,1028 L 1349,1033 L 1337,1036 L 1324,1036 L 1312,1033 L 1301,1028 L 1291,1021 L 1283,1012 L 1276,1001 L 1273,989 L 1271,977 L 1273,965 L 1276,953 L 1283,942 L 1291,933 L 1301,926 L 1312,921 L 1324,918 L 1337,918 L 1349,921 L 1360,926 L 1370,933 L 1378,942 L 1384,953 L 1388,965 L 1389,977 z " style="fill-opacity:1.000000;fill:rgb(50,13,183);stroke:rgb(0,0,0);stroke-width:2"/></g>
<g fill-rule="evenodd"><path d="M 1589,1277 L 1588,1289 L 1584,1301 L 1578,1312 L 1570,1321 L 1560,1328 L 1549,1333 L 1536,1336 L 1524,1336 L 1512,1333 L 1501,1328 L 1491,1321 L 1482,1312 L 1476,1301 L 1472,1289 L 1471,1277 L 1472,1265 L 1476,1253 L 1482,1242 L 1491,1233 L 1501,1226 L 1512,1221 L 1524,1218 L 1536,1218 L 1549,1221 L 1560,1226 L 1570,1233 L 1578,1242 L 1584,1253 L 1588,1265 L 1589,1277 z " style="fill-opacity:1.000000;fill:rgb(49,88,163);stroke:rgb(0,0,0);stroke-width:2"/></g>
<g fill-rule="evenodd"><path d="M 1389,1377 L 1388,1389 L 1384,1401 L 1378,1412 L 1370,1421 L 1360,1428 L 1349,1433 L 1337,1436 L 1324,1436 L 1312,1433 L 1301,1428 L 1291,1421 L 1283,1412 L 1276,1401 L 1273,1389 L 1271,1377 L 1273,1365 L 1276,1353 L 1283,1342 L 1291,1333 L 1301,1326 L 1312,1321 L 1324,1318 L 1337,1318 L 1349,1321 L 1360,1326 L 1370,1333 L 1378,1342 L 1384,1353 L 1388,1365 L 1389,1377 z " style="fill-opacity:1.000000;fill:rgb(90,37,93);stroke:rgb(0,0,0);stroke-width:2"/></g>
<g fill-rule="evenodd"><path d="M 1589,1477 L 1588,1489 L 1584,1501 L 1578,1512 L 1570,1521 L 1560,1528 L 1549,1533 L 1536,1536 L 1524,1536 L 1512,1533 L 1501,1528 L 1491,1521 L 1482,1512 L 1476,1501 L 1472,1489 L 1471,1477 L 1472,1465 L 1476,1453 L 1482,1442 L 1491,1433 L 1501,1426 L 1512,1421 L 1524,1418 L 1536,1418 L 1549,1421 L 1560,1426 L 1570,1433 L 1578,1442 L 1584,1453 L 1588,1465 L 1589,1477 z " style="fill-opacity:1.000000;fill:rgb(5,23,88);stroke:rgb(0,0,0);stroke-width:2"/></g>
<g fill-rule="evenodd"><path d="M 5250,2227 L 5248,2239 L 5245,2251 L 5238,2262 L 5230,2271 L 5220,2279 L 5208,2284 L 5196,2286 L 5184,2286 L 5171,2284 L 5160,2279 L 5150,2271 L 5141,2262 L 5135,2251 L 5131,2239 L 5130,2227 L 5131,2214 L 5135,2202 L 5141,2192 L 5150,2182 L 5160,2175 L 5171,2170 L 5184,2167 L 5196,2167 L 5208,2170 L 5220,2175 L 5230,2182 L 5238,2192 L 5245,2202 L 5248,2214 L 5250,2227 z " style="fill-opacity:1.000000;fill:rgb(233,94,212);stroke:rgb(0,0,0);stroke-width:2"/></g>
<g fill-rule="evenodd"><path d="M 4770,1267 L 4769,1279 L 4765,1291 L 4758,1302 L 4750,1312 L 4740,1319 L 4728,1324 L 4716,1327 L 4704,1327 L 4691,1324 L 4680,1319 L 4670,1312 L 4661,1302 L 4655,1291 L 4651,1279 L 4650,1267 L 4651,1254 L 4655,1243 L 4661,1232 L 4670,1222 L 4680,1215 L 4691,1210 L 4704,1207 L 4716,1207 L 4728,1210 L 4740,1215 L 4750,1222 L 4758,1232 L 4765,1243 L 4769,1254 L 4770,1267 z " style="fill-opacity:1.000000;fill:rgb(171,178,205);stroke:rgb(0,0,0);stroke-width:2"/></g>
<g fill-rule="evenodd"><path d="M 950,3367 L 949,3379 L 945,3391 L 939,3402 L 931,3411 L 920,3419 L 909,3424 L 897,3426 L 884,3426 L 872,3424 L 860,3419 L 850,3411 L 842,3402 L 836,3391 L 832,3379 L 830,3367 L 832,3354 L 836,3342 L 842,3331 L 850,3322 L 860,3315 L 872,3310 L 884,3307 L 897,3307 L 909,3310 L 920,3315 L 931,3322 L 939,3331 L 945,3342 L 949,3354 L 950,3367 z " style="fill-opacity:1.000000;fill:rgb(198,155,180);stroke:rgb(0,0,0);stroke-width:2"/></g>
<g fill-rule="evenodd"><path d="M 2110,4087 L 2109,4099 L 2105,4111 L 2099,4122 L 2090,4131 L 2080,4139 L 2069,4144 L 2056,4146 L 2044,4146 L 2032,4144 L 2020,4139 L 2010,4131 L 2002,4122 L 1995,4111 L 1992,4099 L 1990,4087 L 1992,4074 L 1995,4062 L 2002,4051 L 2010,4042 L 2020,4035 L 2032,4029 L 2044,4027 L 2056,4027 L 2069,4029 L 2080,4035 L 2090,4042 L 2099,4051 L 2105,4062 L 2109,4074 L 2110,4087 z " style="fill-opacity:1.000000;fill:rgb(84,17,14);stroke:rgb(0,0,0);stroke-width:2"/></g>
<g fill-rule="evenodd"><path d="M 4130,2567 L 4129,2579 L 4125,2591 L 4118,2602 L 4110,2611 L 4100,2619 L 4088,2624 L 4076,2626 L 4064,2626 L 4051,2624 L 4040,2619 L 4030,2611 L 4021,2602 L 4015,2591 L 4011,2579 L 4010,2567 L 4011,2554 L 4015,2542 L 4021,2532 L 4030,2522 L 4040,2515 L 4051,2510 L 4064,2507 L 4076,2507 L 4088,2510 L 4100,2515 L 4110,2522 L 4118,2532 L 4125,2542 L 4129,2554 L 4130,2567 z " style="fill-opacity:1.000000;fill:rgb(130,116,65);stroke:rgb(0,0,0);stroke-width:2"/></g>
<g fill-rule="evenodd"><path d="M 1370,307 L 1370,187 L 1490,187 L 1490,307 L 1370,307 z " style="fill-opacity:1.000000;fill:rgb(33,61,220);stroke:rgb(0,0,0);stroke-width:2"/></g>
<g fill-rule="evenodd"><path d="M 2445,2492 L 2445,2382 L 2555,2382 L 2555,2492 L 2445,2492 z " style="fill-opacity:1.000000;fill:rgb(135,112,233);stroke:rgb(0,0,0);stroke-width:2"/></g>
<g fill-rule="evenodd"><path d="M 2555,2637 L 2554,2648 L 2550,2659 L 2545,2669 L 2537,2678 L 2528,2684 L 2517,2689 L 2506,2691 L 2494,2691 L 2483,2689 L 2473,2684 L 2463,2678 L 2456,2669 L 2450,2659 L 2446,2648 L 2445,2637 L 2446,2625 L 2450,2614 L 2456,2604 L 2463,2596 L 2473,2589 L 2483,2584 L 2494,2582 L 2506,2582 L 2517,2584 L 2528,2589 L 2537,2596 L 2545,2604 L 2550,2614 L 2554,2625 L 2555,2637 z " style="fill-opacity:1.000000;fill:rgb(62,161,65);stroke:rgb(0,0,0);stroke-width:2"/></g>
<g fill-rule="evenodd"><path d="M 2555,2837 L 2554,2848 L 2550,2859 L 2545,2869 L 2537,2878 L 2528,2884 L 2517,2889 L 2506,2891 L 2494,2891 L 2483,2889 L 2473,2884 L 2463,2878 L 2456,2869 L 2450,2859 L 2446,2848 L 2445,2837 L 2446,2825 L 2450,2814 L 2456,2804 L 2463,2796 L 2473,2789 L 2483,2784 L 2494,2782 L 2506,2782 L 2517,2784 L 2528,2789 L 2537,2796 L 2545,2804 L 2550,2814 L 2554,2825 L 2555,2837 z " style="fill-opacity:1.000000;fill:rgb(225,252,103);stroke:rgb(0,0,0);stroke-width:2"/></g>
<g fill-rule="evenodd"><path d="M 2555,3637 L 2554,3648 L 2550,3659 L 2545,3669 L 2537,3677 L 2528,3684 L 2517,3689 L 2506,3691 L 2494,3691 L 2483,3689 L 2473,3684 L 2463,3677 L 2456,3669 L 2450,3659 L 2446,3648 L 2445,3637 L 2446,3625 L 2450,3614 L 2456,3604 L 2463,3596 L 2473,3589 L 2483,3584 L 2494,3582 L 2506,3582 L 2517,3584 L 2528,3589 L 2537,3596 L 2545,3604 L 2550,3614 L 2554,3625 L 2555,3637 z " style="fill-opacity:1.000000;fill:rgb(62,1,126);stroke:rgb(0,0,0);stroke-width:2"/></g>
<g fill-rule="evenodd"><path d="M 2555,3837 L 2554,3848 L 2550,3859 L 2545,3869 L 2537,3877 L 2528,3884 L 2517,3889 L 2506,3891 L 2494,3891 L 2483,3889 L 2473,3884 L 2463,3877 L 2456,3869 L 2450,3859 L 2446,3848 L 2445,3837 L 2446,3825 L 2450,3814 L 2456,3804 L 2463,3796 L 2473,3789 L 2483,3784 L 2494,3782 L 2506,3782 L 2517,3784 L 2528,3789 L 2537,3796 L 2545,3804 L 2550,3814 L 2554,3825 L 2555,3837 z " style="fill-opacity:1.000000;fill:rgb(151,234,220);stroke:rgb(0,0,0);stroke-width:2"/></g>
<g fill-rule="evenodd"><path d="M 2555,4237 L 2554,4248 L 2550,4259 L 2545,4269 L 2537,4277 L 2528,4284 L 2517,4289 L 2506,4291 L 2494,4291 L 2483,4289 L 2473,4284 L 2463,4277 L 2456,4269 L 2450,4259 L 2446,4248 L 2445,4237 L 2446,4225 L 2450,4214 L 2456,4204 L 2463,4196 L 2473,4189 L 2483,4184 L 2494,4182 L 2506,4182 L 2517,4184 L 2528,4189 L 2537,4196 L 2545,4204 L 2550,4214 L 2554,4225 L 2555,4237 z " style="fill-opacity:1.000000;fill:rgb(107,150,143);stroke:rgb(0,0,0);stroke-width:2"/></g>
<g fill-rule="evenodd"><path d="M 3155,2637 L 3154,2648 L 3150,2659 L 3145,2669 L 3137,2678 L 3128,2684 L 3117,2689 L 3106,2691 L 3094,2691 L 3083,2689 L 3073,2684 L 3063,2678 L 3056,2669 L 3050,2659 L 3046,2648 L 3045,2637 L 3046,2625 L 3050,2614 L 3056,2604 L 3063,2596 L 3073,2589 L 3083,2584 L 3094,2582 L 3106,2582 L 3117,2584 L 3128,2589 L 3137,2596 L 3145,2604 L 3150,2614 L 3154,2625 L 3155,2637 z " style="fill-opacity:1.000000;fill:rgb(56,92,42);stroke:rgb(0,0,0);stroke-width:2"/></g>
<g fill-rule="evenodd"><path d="M 2821,910 L 3687,1776 L 4070,1776 L 4085,1778 L 4099,1782 L 4112,1790 L 4123,1799 L 4131,1811 L 4137,1825 L 4140,1839 L 4140,1854 L 4137,1869 L 4131,1882 L 4123,1894 L 4112,1904 L 4099,1912 L 4085,1916 L 4070,1918 L 3658,1918 L 3640,1915 L 3623,1908 L 3608,1897 L 2722,1011 L 2690,1033 L 2614,1067 L 2532,1085 L 2448,1085 L 2367,1067 L 2290,1033 L 2223,984 L 2167,922 L 2125,850 L 2099,770 L 2090,687 L 2099,604 L 2125,524 L 2167,452 L 2223,390 L 2290,341 L 2367,307 L 2448,289 L 2532,289 L 2614,307 L 2690,341 L 2758,390 L 2814,452 L 2856,524 L 2881,604 L 2890,687 L 2881,770 L 2856,850 L 2821,910 z " style="fill-opacity:1.000000;fill:rgb(236,176,59);stroke:rgb(0,0,0);stroke-width:2"/></g>
<g fill-rule="evenodd"><path d="M 4130,2329 L 4131,2331 L 4137,2345 L 4140,2359 L 4140,2374 L 4137,2389 L 4131,2402 L 4130,2404 L 4130,2427 L 4107,2427 L 4099,2432 L 4085,2436 L 4070,2438 L 3783,2438 L 3334,2887 L 3319,2898 L 3302,2905 L 3284,2908 L 3100,2908 L 3085,2906 L 3071,2901 L 3058,2894 L 3047,2884 L 3039,2872 L 3033,2859 L 3030,2844 L 3030,2829 L 3033,2815 L 3039,2801 L 3047,2789 L 3058,2779 L 3071,2772 L 3085,2767 L 3100,2766 L 3254,2766 L 3703,2317 L 3718,2305 L 3735,2298 L 3753,2296 L 4070,2296 L 4085,2297 L 4099,2302 L 4107,2307 L 4130,2307 L 4130,2329 z " style="fill-opacity:1.000000;fill:rgb(251,50,175);stroke:rgb(0,0,0);stroke-width:2"/></g>
<g fill-rule="evenodd"><path d="M 5557,3836 L 5558,3823 L 5584,3744 L 5622,3679 L 5420,3478 L 4030,3478 L 4015,3476 L 4001,3471 L 3988,3464 L 3977,3454 L 3969,3442 L 3963,3429 L 3959,3414 L 3959,3399 L 3963,3385 L 3969,3371 L 3977,3359 L 3988,3349 L 4001,3342 L 4015,3337 L 4030,3336 L 5450,3336 L 5468,3338 L 5485,3345 L 5500,3357 L 5723,3580 L 5750,3560 L 5826,3526 L 5908,3509 L 5991,3509 L 6073,3526 L 6150,3560 L 6217,3609 L 6273,3671 L 6315,3744 L 6341,3823 L 6350,3907 L 6341,3990 L 6315,4069 L 6273,4142 L 6217,4204 L 6150,4253 L 6073,4287 L 5991,4304 L 5908,4304 L 5826,4287 L 5750,4253 L 5682,4204 L 5626,4142 L 5584,4069 L 5558,3990 L 5557,3977 L 4050,3977 L 4032,3975 L 4015,3968 L 4001,3957 L 3838,3957 L 3708,4087 L 3694,4098 L 3677,4105 L 3658,4107 L 3100,4107 L 3085,4106 L 3071,4101 L 3058,4094 L 3047,4084 L 3039,4072 L 3033,4058 L 3030,4044 L 3030,4029 L 3033,4015 L 3039,4001 L 3047,3989 L 3058,3979 L 3071,3972 L 3085,3967 L 3100,3966 L 3629,3966 L 3758,3836 L 3773,3825 L 3790,3818 L 3808,3816 L 4030,3816 L 4048,3818 L 4065,3825 L 4079,3836 L 5557,3836 z " style="fill-opacity:1.000000;fill:rgb(60,84,236);stroke:rgb(0,0,0);stroke-width:2"/></g>
<g fill-rule="evenodd"><path d="M 4067,4227 L 4090,4227 L 4090,4249 L 4091,4251 L 4097,4265 L 4100,4279 L 4100,4294 L 4097,4308 L 4091,4322 L 4090,4324 L 4090,4347 L 4067,4347 L 4059,4351 L 4045,4356 L 4030,4357 L 3657,4357 L 3639,4355 L 3622,4348 L 3607,4337 L 3578,4307 L 3100,4307 L 3085,4306 L 3071,4301 L 3058,4294 L 3047,4284 L 3039,4272 L 3033,4258 L 3030,4244 L 3030,4229 L 3033,4215 L 3039,4201 L 3047,4189 L 3058,4179 L 3071,4172 L 3085,4167 L 3100,4166 L 3607,4166 L 3625,4168 L 3643,4175 L 3657,4186 L 3686,4216 L 4030,4216 L 4045,4217 L 4059,4222 L 4067,4227 z " style="fill-opacity:1.000000;fill:rgb(24,219,92);stroke:rgb(0,0,0);stroke-width:2"/></g>
<g fill-rule="evenodd"><path d="M 4067,3547 L 4090,3547 L 4090,3569 L 4091,3571 L 4097,3585 L 4100,3599 L 4100,3614 L 4097,3629 L 4091,3642 L 4090,3644 L 4090,3667 L 4067,3667 L 4059,3671 L 4045,3676 L 4030,3677 L 3645,3677 L 3436,3887 L 3421,3898 L 3404,3905 L 3386,3907 L 3100,3907 L 3085,3906 L 3071,3901 L 3058,3894 L 3047,3884 L 3039,3872 L 3033,3858 L 3030,3844 L 3030,3829 L 3033,3815 L 3039,3801 L 3047,3789 L 3058,3779 L 3071,3772 L 3085,3767 L 3100,3766 L 3357,3766 L 3566,3557 L 3580,3545 L 3597,3538 L 3616,3536 L 4030,3536 L 4045,3537 L 4059,3542 L 4067,3547 z " style="fill-opacity:1.000000;fill:rgb(2,26,254);stroke:rgb(0,0,0);stroke-width:2"/></g>
<g fill-rule="evenodd"><path d="M 4107,1987 L 4130,1987 L 4130,2010 L 4131,2011 L 4137,2025 L 4140,2039 L 4140,2054 L 4137,2069 L 4131,2082 L 4130,2084 L 4130,2107 L 4107,2107 L 4099,2112 L 4085,2116 L 4070,2118 L 3788,2118 L 3419,2487 L 3404,2498 L 3387,2505 L 3369,2508 L 3100,2508 L 3085,2506 L 3071,2502 L 3058,2494 L 3047,2484 L 3039,2472 L 3033,2459 L 3030,2444 L 3030,2429 L 3033,2415 L 3039,2401 L 3047,2389 L 3058,2379 L 3071,2372 L 3085,2367 L 3100,2366 L 3339,2366 L 3708,1997 L 3723,1985 L 3740,1978 L 3758,1976 L 4070,1976 L 4085,1978 L 4099,1982 L 4107,1987 z " style="fill-opacity:1.000000;fill:rgb(67,251,250);stroke:rgb(0,0,0);stroke-width:2"/></g>
<g fill-rule="evenodd"><path d="M 5557,1476 L 5558,1464 L 5584,1384 L 5626,1312 L 5682,1250 L 5750,1201 L 5826,1167 L 5908,1149 L 5991,1149 L 6073,1167 L 6150,1201 L 6217,1250 L 6273,1312 L 6315,1384 L 6341,1464 L 6350,1547 L 6341,1630 L 6315,1710 L 6273,1782 L 6217,1844 L 6150,1893 L 6073,1927 L 5991,1945 L 5908,1945 L 5826,1927 L 5750,1893 L 5682,1844 L 5626,1782 L 5584,1710 L 5558,1630 L 5557,1618 L 5311,1618 L 5232,1697 L 5217,1708 L 5200,1715 L 5182,1718 L 4070,1718 L 4055,1716 L 4041,1712 L 4028,1704 L 4017,1694 L 4009,1682 L 4003,1669 L 3999,1654 L 3999,1639 L 4003,1625 L 4009,1611 L 4017,1599 L 4028,1590 L 4041,1582 L 4055,1578 L 4070,1576 L 5153,1576 L 5232,1497 L 5246,1486 L 5264,1478 L 5282,1476 L 5557,1476 z " style="fill-opacity:1.000000;fill:rgb(170,58,251);stroke:rgb(0,0,0);stroke-width:2"/></g>
<g fill-rule="evenodd"><path d="M 3021,3308 L 2900,3308 L 2882,3305 L 2865,3298 L 2850,3287 L 2740,3177 L 2729,3162 L 2722,3145 L 2719,3127 L 2719,1836 L 1831,948 L 1530,948 L 1516,946 L 1501,942 L 1489,934 L 1478,924 L 1469,912 L 1463,899 L 1460,884 L 1460,870 L 1463,855 L 1469,842 L 1478,830 L 1489,820 L 1501,812 L 1516,808 L 1530,806 L 1860,806 L 1879,809 L 1896,816 L 1910,827 L 2840,1757 L 2851,1771 L 2859,1789 L 2861,1807 L 2861,3097 L 2929,3166 L 3067,3166 L 3076,3162 L 3092,3158 L 3108,3158 L 3124,3162 L 3139,3168 L 3153,3178 L 3164,3190 L 3172,3205 L 3177,3220 L 3179,3237 L 3179,3437 L 3177,3453 L 3172,3469 L 3164,3483 L 3153,3495 L 3139,3505 L 3124,3512 L 3108,3515 L 3092,3515 L 3076,3512 L 3061,3505 L 3047,3495 L 3036,3483 L 3028,3469 L 3023,3453 L 3021,3437 L 3021,3308 z " style="fill-opacity:1.000000;fill:rgb(41,209,230);stroke:rgb(0,0,0);stroke-width:2"/></g>
<g fill-rule="evenodd"><path d="M 0,0 L 6593,0 L 6593,4625 L 0,4625 L 0,0M 870,3467 L 910,3467 L 947,3451 L 975,3423 L 990,3387 L 990,3347 L 975,3310 L 947,3282 L 910,3267 L 871,3267 L 834,3282 L 806,3310 L 790,3347 L 790,3386 L 806,3423 L 834,3451 L 870,3467M 794,1778 L 867,1778 L 934,1750 L 986,1699 L 1014,1631 L 1014,1558 L 986,1491 L 935,1439 L 867,1411 L 794,1411 L 726,1439 L 675,1490 L 647,1558 L 647,1631 L 675,1698 L 726,1750 L 794,1778M 794,844 L 867,844 L 934,816 L 986,764 L 1014,697 L 1014,624 L 986,556 L 935,504 L 867,476 L 794,476 L 726,504 L 675,556 L 647,623 L 647,696 L 675,764 L 726,816 L 794,844M 5133,2312 L 5170,2327 L 5210,2327 L 5246,2312 L 5274,2284 L 5290,2247 L 5290,2207 L 5275,2170 L 5246,2142 L 5210,2127 L 5170,2127 L 5133,2142 L 5105,2170 L 5090,2207 L 5090,2247 L 5105,2283 L 5133,2312M 4937,1127 L 5099,1060 L 5223,937 L 5290,775 L 5290,600 L 5223,438 L 5099,314 L 4938,247 L 4763,247 L 4601,314 L 4477,438 L 4410,599 L 4410,774 L 4477,936 L 4600,1060 L 4762,1127 L 4937,1127M 4730,1367 L 4766,1352 L 4795,1324 L 4810,1287 L 4810,1247 L 4795,1210 L 4767,1182 L 4730,1167 L 4690,1167 L 4653,1182 L 4625,1210 L 4610,1247 L 4610,1287 L 4625,1324 L 4653,1352 L 4690,1367 L 4730,1367M 1104,4061 L 1105,4062 L 1109,4074 L 1110,4087 L 1109,4099 L 1105,4111 L 1104,4112 L 1130,4138 L 1139,4136 L 1151,4101 L 1149,4061 L 1139,4037 L 1130,4035 L 1104,4061M 996,4061 L 970,4035 L 962,4037 L 950,4072 L 952,4112 L 962,4136 L 970,4138 L 996,4112 L 996,4111 L 992,4099 L 990,4087 L 992,4074 L 996,4062 L 996,4061M 1076,4033 L 1102,4006 L 1100,3998 L 1065,3986 L 1025,3988 L 1001,3998 L 999,4006 L 1025,4033 L 1032,4029 L 1044,4027 L 1057,4027 L 1069,4029 L 1076,4033M 996,4352 L 996,4351 L 992,4339 L 990,4327 L 992,4314 L 996,4302 L 996,4301 L 970,4275 L 962,4277 L 950,4312 L 952,4352 L 962,4376 L 970,4378 L 996,4352M 1104,4352 L 1130,4378 L 1139,4376 L 1151,4341 L 1149,4301 L 1139,4277 L 1130,4275 L 1104,4301 L 1105,4302 L 1109,4314 L 1110,4327 L 1109,4339 L 1105,4351 L 1104,4352M 1025,4380 L 999,4407 L 1001,4415 L 1036,4427 L 1075,4425 L 1100,4415 L 1102,4407 L 1076,4380 L 1069,4384 L 1057,4386 L 1044,4386 L 1032,4384 L 1025,4380M 1025,4273 L 1032,4269 L 1044,4267 L 1057,4267 L 1069,4269 L 1076,4273 L 1102,4246 L 1100,4238 L 1065,4226 L 1025,4228 L 1001,4238 L 999,4246 L 1025,4273M 1025,4140 L 999,4167 L 1001,4175 L 1036,4187 L 1075,4185 L 1100,4175 L 1102,4167 L 1076,4140 L 1069,4144 L 1057,4146 L 1044,4146 L 1032,4144 L 1025,4140M 2478,2987 L 2483,2984 L 2494,2982 L 2506,2982 L 2517,2984 L 2522,2987 L 2548,2960 L 2546,2952 L 2529,2946 L 2527,2945 L 2526,2944 L 2524,2942 L 2523,2940 L 2523,2938 L 2523,2936 L 2523,2934 L 2524,2932 L 2525,2930 L 2527,2929 L 2529,2928 L 2554,2917 L 2581,2891 L 2595,2856 L 2595,2818 L 2581,2783 L 2554,2756 L 2529,2746 L 2527,2745 L 2526,2744 L 2525,2742 L 2524,2740 L 2523,2738 L 2523,2736 L 2524,2734 L 2525,2732 L 2526,2730 L 2527,2729 L 2529,2727 L 2554,2717 L 2581,2691 L 2595,2656 L 2595,2618 L 2581,2583 L 2554,2556 L 2544,2552 L 2542,2551 L 2540,2550 L 2539,2548 L 2538,2546 L 2538,2544 L 2538,2542 L 2538,2540 L 2539,2538 L 2540,2536 L 2542,2535 L 2543,2534 L 2545,2533 L 2548,2533 L 2554,2533 L 2570,2530 L 2584,2521 L 2593,2508 L 2596,2491 L 2596,2383 L 2593,2367 L 2584,2353 L 2571,2344 L 2554,2341 L 2446,2341 L 2430,2344 L 2417,2353 L 2408,2366 L 2404,2383 L 2404,2491 L 2407,2507 L 2416,2520 L 2429,2529 L 2446,2533 L 2453,2533 L 2455,2533 L 2457,2534 L 2459,2535 L 2460,2536 L 2461,2538 L 2462,2540 L 2463,2542 L 2463,2544 L 2462,2546 L 2461,2548 L 2460,2550 L 2458,2551 L 2457,2552 L 2446,2556 L 2420,2583 L 2405,2618 L 2405,2656 L 2420,2690 L 2446,2717 L 2471,2728 L 2473,2729 L 2475,2730 L 2476,2732 L 2477,2734 L 2477,2736 L 2477,2738 L 2477,2740 L 2476,2742 L 2475,2744 L 2473,2745 L 2471,2746 L 2446,2756 L 2420,2783 L 2405,2818 L 2405,2856 L 2420,2890 L 2446,2917 L 2470,2927 L 2472,2928 L 2473,2929 L 2475,2931 L 2475,2933 L 2476,2935 L 2476,2937 L 2475,2939 L 2475,2941 L 2473,2943 L 2472,2944 L 2470,2945 L 2454,2952 L 2452,2960 L 2478,2987M 2450,3015 L 2424,2988 L 2416,2990 L 2404,3023 L 2406,3063 L 2406,3065 L 2406,3067 L 2405,3069 L 2403,3071 L 2401,3072 L 2399,3073 L 2397,3073 L 2395,3073 L 2369,3068 L 2231,3068 L 2185,3077 L 2146,3103 L 2121,3141 L 2112,3187 L 2121,3232 L 2146,3270 L 2165,3283 L 2167,3284 L 2168,3286 L 2169,3288 L 2169,3290 L 2169,3292 L 2169,3295 L 2168,3296 L 2167,3298 L 2165,3300 L 2152,3308 L 2128,3344 L 2120,3387 L 2128,3429 L 2152,3465 L 2188,3489 L 2231,3497 L 2240,3497 L 2243,3498 L 2245,3499 L 2247,3500 L 2261,3514 L 2298,3539 L 2341,3547 L 2431,3547 L 2433,3548 L 2435,3548 L 2437,3549 L 2438,3551 L 2440,3553 L 2440,3555 L 2441,3557 L 2441,3559 L 2440,3561 L 2439,3563 L 2438,3565 L 2420,3583 L 2405,3618 L 2405,3655 L 2420,3690 L 2446,3717 L 2471,3727 L 2473,3728 L 2475,3730 L 2476,3732 L 2477,3733 L 2477,3736 L 2477,3738 L 2477,3740 L 2476,3742 L 2475,3743 L 2473,3745 L 2471,3746 L 2446,3756 L 2420,3783 L 2405,3818 L 2405,3855 L 2420,3890 L 2438,3909 L 2439,3910 L 2440,3912 L 2441,3914 L 2441,3916 L 2440,3919 L 2440,3920 L 2438,3922 L 2437,3924 L 2435,3925 L 2433,3925 L 2431,3926 L 2361,3926 L 2318,3934 L 2281,3959 L 2167,4073 L 2166,4074 L 2164,4075 L 2162,4075 L 2160,4076 L 2157,4075 L 2155,4074 L 2154,4073 L 2152,4072 L 2151,4070 L 2150,4067 L 2135,4030 L 2107,4002 L 2070,3987 L 2030,3987 L 1994,4002 L 1966,4030 L 1950,4067 L 1950,4106 L 1965,4143 L 1994,4171 L 2031,4187 L 2033,4187 L 2035,4189 L 2037,4190 L 2038,4192 L 2039,4194 L 2039,4196 L 2039,4198 L 2039,4200 L 2038,4202 L 2036,4204 L 2020,4220 L 2017,4222 L 2015,4223 L 2008,4224 L 1972,4248 L 1948,4284 L 1940,4327 L 1948,4369 L 1972,4405 L 2008,4429 L 2051,4437 L 2069,4437 L 2113,4429 L 2149,4404 L 2403,4150 L 2405,4149 L 2408,4148 L 2410,4147 L 2431,4147 L 2433,4148 L 2435,4148 L 2437,4149 L 2438,4151 L 2440,4153 L 2440,4155 L 2441,4157 L 2441,4159 L 2440,4161 L 2439,4163 L 2438,4164 L 2420,4183 L 2405,4218 L 2405,4255 L 2420,4290 L 2446,4317 L 2481,4331 L 2519,4332 L 2554,4317 L 2581,4290 L 2595,4255 L 2595,4218 L 2581,4183 L 2554,4156 L 2548,4154 L 2546,4153 L 2545,4151 L 2543,4149 L 2543,4147 L 2542,4145 L 2542,4143 L 2543,4141 L 2544,4139 L 2545,4137 L 2547,4136 L 2578,4115 L 2602,4079 L 2611,4037 L 2602,3994 L 2578,3958 L 2547,3937 L 2545,3936 L 2544,3934 L 2543,3932 L 2542,3930 L 2542,3928 L 2543,3926 L 2543,3924 L 2545,3922 L 2546,3921 L 2548,3919 L 2554,3917 L 2581,3890 L 2595,3856 L 2595,3818 L 2581,3783 L 2554,3756 L 2529,3746 L 2527,3745 L 2526,3743 L 2525,3742 L 2524,3740 L 2523,3738 L 2523,3736 L 2524,3733 L 2525,3731 L 2526,3730 L 2527,3728 L 2529,3727 L 2554,3717 L 2581,3690 L 2595,3656 L 2595,3618 L 2581,3583 L 2554,3556 L 2548,3554 L 2546,3553 L 2545,3551 L 2543,3550 L 2543,3548 L 2542,3545 L 2542,3543 L 2543,3541 L 2544,3539 L 2545,3538 L 2547,3536 L 2578,3515 L 2602,3479 L 2611,3437 L 2602,3394 L 2578,3358 L 2565,3350 L 2564,3348 L 2562,3346 L 2561,3345 L 2561,3342 L 2561,3340 L 2561,3338 L 2562,3336 L 2564,3334 L 2565,3333 L 2584,3320 L 2610,3282 L 2619,3237 L 2610,3191 L 2584,3153 L 2551,3131 L 2549,3129 L 2548,3127 L 2547,3125 L 2546,3122 L 2547,3120 L 2548,3113 L 2522,3087 L 2517,3089 L 2506,3091 L 2494,3091 L 2483,3089 L 2473,3084 L 2463,3078 L 2456,3069 L 2450,3059 L 2446,3048 L 2445,3037 L 2446,3025 L 2450,3015M 2550,3059 L 2577,3085 L 2585,3083 L 2596,3050 L 2594,3012 L 2585,2991 L 2577,2988 L 2550,3015 L 2554,3025 L 2555,3037 L 2554,3048 L 2550,3059M 1310,718 L 1310,685 L 1304,678 L 1271,678 L 1269,678 L 1267,677 L 1265,676 L 1263,674 L 1262,672 L 1261,670 L 1261,668 L 1261,657 L 1262,655 L 1263,652 L 1264,650 L 1308,606 L 1333,569 L 1341,526 L 1341,354 L 1341,352 L 1342,350 L 1343,348 L 1345,346 L 1347,345 L 1349,344 L 1351,344 L 1353,344 L 1371,348 L 1489,348 L 1505,345 L 1519,336 L 1528,323 L 1531,306 L 1531,188 L 1528,172 L 1520,159 L 1506,150 L 1489,146 L 1371,146 L 1356,149 L 1342,158 L 1333,171 L 1332,176 L 1331,178 L 1329,179 L 1327,180 L 1325,181 L 1323,182 L 1321,182 L 1319,181 L 1317,180 L 1316,179 L 1314,177 L 1309,169 L 1273,145 L 1230,136 L 1188,145 L 1152,169 L 1135,195 L 1133,197 L 1132,198 L 1130,199 L 1128,199 L 1126,199 L 1110,195 L 1084,221 L 1085,223 L 1089,235 L 1090,247 L 1089,260 L 1085,272 L 1079,282 L 1071,292 L 1060,299 L 1049,304 L 1037,307 L 1024,307 L 1012,304 L 1005,301 L 979,327 L 981,336 L 1016,348 L 1055,346 L 1080,336 L 1084,322 L 1085,319 L 1086,318 L 1088,316 L 1090,315 L 1092,314 L 1094,314 L 1097,315 L 1099,316 L 1102,319 L 1104,318 L 1106,317 L 1108,316 L 1110,316 L 1112,317 L 1114,318 L 1116,319 L 1117,320 L 1119,322 L 1119,324 L 1119,326 L 1119,477 L 1119,480 L 1118,482 L 1117,484 L 1073,528 L 1048,565 L 1040,608 L 1040,1166 L 1048,1209 L 1073,1246 L 1081,1255 L 1118,1279 L 1161,1288 L 1255,1288 L 1257,1288 L 1259,1289 L 1261,1290 L 1263,1291 L 1264,1293 L 1265,1295 L 1265,1297 L 1265,1299 L 1265,1301 L 1264,1303 L 1262,1305 L 1246,1321 L 1231,1357 L 1231,1397 L 1246,1433 L 1274,1461 L 1311,1476 L 1350,1476 L 1386,1461 L 1414,1433 L 1429,1397 L 1429,1357 L 1414,1321 L 1387,1293 L 1383,1291 L 1381,1290 L 1379,1289 L 1378,1287 L 1377,1285 L 1376,1283 L 1376,1281 L 1377,1279 L 1378,1277 L 1379,1275 L 1381,1274 L 1409,1255 L 1414,1247 L 1415,1246 L 1417,1244 L 1419,1243 L 1421,1243 L 1423,1243 L 1425,1243 L 1427,1244 L 1429,1245 L 1430,1247 L 1431,1248 L 1432,1250 L 1432,1253 L 1432,1255 L 1431,1257 L 1431,1297 L 1446,1333 L 1474,1361 L 1490,1368 L 1492,1369 L 1494,1370 L 1495,1372 L 1496,1374 L 1497,1376 L 1497,1378 L 1496,1380 L 1495,1382 L 1494,1384 L 1492,1385 L 1490,1386 L 1474,1393 L 1446,1421 L 1431,1457 L 1431,1497 L 1446,1533 L 1474,1561 L 1511,1576 L 1550,1576 L 1586,1561 L 1614,1533 L 1629,1497 L 1629,1457 L 1614,1421 L 1586,1393 L 1570,1386 L 1568,1385 L 1567,1384 L 1565,1382 L 1564,1380 L 1564,1378 L 1564,1376 L 1564,1374 L 1565,1372 L 1567,1370 L 1568,1369 L 1570,1368 L 1586,1361 L 1614,1333 L 1629,1297 L 1629,1257 L 1614,1221 L 1598,1205 L 1597,1203 L 1596,1201 L 1596,1199 L 1595,1197 L 1596,1195 L 1597,1193 L 1598,1191 L 1599,1190 L 1601,1189 L 1603,1188 L 1605,1188 L 1730,1188 L 1733,1188 L 1735,1189 L 1737,1191 L 1776,1230 L 1778,1232 L 1779,1234 L 1779,1237 L 1779,3366 L 1788,3409 L 1812,3445 L 1848,3469 L 1890,3477 L 1933,3469 L 1968,3445 L 1992,3409 L 2001,3366 L 2001,1199 L 2001,1197 L 2002,1195 L 2003,1193 L 2005,1191 L 2006,1190 L 2008,1189 L 2010,1189 L 2013,1189 L 2015,1189 L 2016,1190 L 2018,1192 L 2676,1850 L 2678,1852 L 2679,1854 L 2679,1857 L 2679,3126 L 2688,3169 L 2712,3206 L 2821,3314 L 2858,3339 L 2901,3348 L 2971,3348 L 2974,3348 L 2976,3349 L 2978,3350 L 2979,3351 L 2980,3353 L 2981,3355 L 2981,3358 L 2981,3436 L 2991,3482 L 3016,3520 L 3035,3533 L 3037,3534 L 3038,3536 L 3039,3538 L 3039,3540 L 3039,3542 L 3039,3544 L 3038,3546 L 3037,3548 L 3035,3550 L 3022,3558 L 2998,3594 L 2989,3637 L 2998,3679 L 3022,3715 L 3042,3728 L 3044,3730 L 3045,3731 L 3046,3733 L 3046,3736 L 3046,3738 L 3046,3740 L 3045,3742 L 3044,3744 L 3042,3745 L 3022,3758 L 2998,3794 L 2989,3837 L 2998,3879 L 3022,3915 L 3042,3928 L 3044,3930 L 3045,3931 L 3046,3933 L 3046,3935 L 3046,3938 L 3046,3940 L 3045,3942 L 3044,3943 L 3042,3945 L 3022,3958 L 2998,3994 L 2989,4037 L 2998,4079 L 3022,4115 L 3042,4128 L 3044,4130 L 3045,4131 L 3046,4133 L 3046,4135 L 3046,4138 L 3046,4140 L 3045,4142 L 3044,4143 L 3042,4145 L 3022,4158 L 2998,4194 L 2989,4237 L 2998,4279 L 3022,4315 L 3058,4339 L 3101,4347 L 3557,4347 L 3560,4348 L 3562,4349 L 3564,4350 L 3578,4364 L 3615,4389 L 3658,4397 L 4029,4397 L 4073,4389 L 4074,4388 L 4077,4387 L 4089,4387 L 4105,4385 L 4118,4376 L 4127,4362 L 4131,4346 L 4131,4334 L 4131,4331 L 4132,4329 L 4141,4287 L 4132,4244 L 4131,4242 L 4131,4239 L 4131,4227 L 4128,4212 L 4119,4198 L 4106,4189 L 4093,4186 L 4091,4186 L 4089,4185 L 4088,4183 L 4087,4182 L 4086,4180 L 4085,4177 L 4085,4175 L 4086,4173 L 4087,4171 L 4088,4170 L 4115,4143 L 4130,4107 L 4130,4067 L 4115,4031 L 4115,4029 L 4115,4027 L 4115,4025 L 4116,4023 L 4117,4021 L 4118,4019 L 4120,4018 L 4122,4018 L 4125,4017 L 5513,4017 L 5515,4018 L 5517,4019 L 5519,4020 L 5521,4022 L 5522,4024 L 5576,4155 L 5700,4279 L 5862,4346 L 6037,4347 L 6199,4280 L 6322,4156 L 6390,3994 L 6390,3819 L 6323,3658 L 6199,3534 L 6038,3467 L 5863,3467 L 5730,3521 L 5728,3522 L 5725,3522 L 5723,3522 L 5721,3521 L 5719,3519 L 5529,3329 L 5492,3304 L 5449,3296 L 5293,3296 L 5291,3296 L 5289,3295 L 5287,3294 L 5285,3292 L 5284,3291 L 5283,3289 L 5283,3286 L 5283,3284 L 5284,3282 L 5284,3280 L 5292,3269 L 5300,3227 L 5292,3184 L 5267,3148 L 5249,3129 L 5212,3104 L 5169,3096 L 3922,3096 L 3920,3096 L 3918,3095 L 3916,3094 L 3914,3092 L 3913,3091 L 3912,3089 L 3912,3087 L 3912,3084 L 3912,3082 L 3913,3080 L 3915,3079 L 4113,2881 L 4115,2879 L 4117,2878 L 4120,2878 L 4455,2878 L 4498,2869 L 4535,2844 L 4788,2592 L 4812,2555 L 4821,2512 L 4821,2268 L 4812,2224 L 4788,2189 L 4752,2165 L 4710,2156 L 4667,2165 L 4632,2189 L 4608,2224 L 4599,2268 L 4599,2463 L 4599,2465 L 4598,2468 L 4596,2470 L 4413,2653 L 4411,2655 L 4408,2656 L 4406,2656 L 4146,2656 L 4144,2656 L 4142,2655 L 4140,2654 L 4139,2652 L 4138,2651 L 4137,2649 L 4136,2647 L 4136,2644 L 4137,2642 L 4138,2640 L 4139,2639 L 4155,2623 L 4170,2587 L 4170,2547 L 4155,2510 L 4128,2484 L 4127,2482 L 4126,2480 L 4126,2478 L 4125,2476 L 4126,2474 L 4127,2472 L 4128,2470 L 4130,2469 L 4132,2468 L 4134,2467 L 4145,2465 L 4158,2456 L 4167,2443 L 4171,2426 L 4171,2414 L 4171,2411 L 4172,2410 L 4181,2367 L 4172,2324 L 4171,2322 L 4171,2320 L 4171,2308 L 4168,2292 L 4159,2278 L 4146,2269 L 4129,2266 L 4117,2266 L 4114,2265 L 4113,2265 L 4069,2256 L 3754,2256 L 3726,2262 L 3724,2262 L 3722,2261 L 3720,2261 L 3718,2260 L 3717,2258 L 3716,2256 L 3715,2254 L 3715,2252 L 3715,2250 L 3715,2248 L 3716,2246 L 3717,2245 L 3801,2161 L 3804,2159 L 3806,2158 L 3809,2158 L 4069,2158 L 4113,2149 L 4114,2148 L 4117,2148 L 4129,2148 L 4145,2145 L 4158,2136 L 4167,2123 L 4171,2106 L 4171,2094 L 4171,2091 L 4172,2090 L 4181,2047 L 4172,2004 L 4171,2002 L 4171,2000 L 4171,1988 L 4168,1972 L 4159,1958 L 4146,1949 L 4141,1948 L 4140,1947 L 4138,1946 L 4137,1944 L 4136,1942 L 4135,1940 L 4135,1938 L 4136,1936 L 4137,1934 L 4138,1932 L 4148,1925 L 4172,1889 L 4181,1847 L 4172,1805 L 4151,1773 L 4150,1771 L 4150,1769 L 4150,1767 L 4150,1765 L 4151,1763 L 4152,1761 L 4154,1760 L 4155,1759 L 4157,1758 L 4160,1758 L 5181,1758 L 5224,1749 L 5261,1725 L 5325,1661 L 5327,1659 L 5329,1658 L 5332,1658 L 5513,1658 L 5515,1658 L 5517,1659 L 5519,1660 L 5521,1662 L 5522,1664 L 5576,1796 L 5700,1920 L 5862,1987 L 6037,1987 L 6199,1920 L 6322,1796 L 6390,1635 L 6390,1460 L 6323,1298 L 6199,1174 L 6038,1107 L 5863,1107 L 5701,1174 L 5577,1297 L 5522,1430 L 5521,1432 L 5519,1434 L 5517,1435 L 5515,1436 L 5513,1436 L 5283,1436 L 5240,1445 L 5203,1469 L 5139,1533 L 5137,1535 L 5134,1536 L 5132,1536 L 4071,1536 L 4028,1545 L 3992,1569 L 3968,1605 L 3959,1647 L 3968,1689 L 3989,1720 L 3990,1722 L 3990,1724 L 3990,1727 L 3990,1729 L 3989,1731 L 3988,1733 L 3986,1734 L 3984,1735 L 3982,1736 L 3980,1736 L 3708,1736 L 3705,1736 L 3703,1735 L 3701,1733 L 2880,912 L 2878,910 L 2877,908 L 2877,906 L 2877,903 L 2878,901 L 2930,775 L 2930,600 L 2863,438 L 2740,314 L 2578,247 L 2403,247 L 2241,314 L 2117,438 L 2050,599 L 2050,774 L 2117,936 L 2241,1060 L 2402,1127 L 2577,1127 L 2716,1070 L 2718,1069 L 2720,1069 L 2722,1070 L 2725,1071 L 2726,1072 L 3579,1925 L 3616,1949 L 3659,1958 L 3669,1958 L 3671,1959 L 3673,1960 L 3674,1961 L 3675,1963 L 3676,1965 L 3677,1967 L 3677,1969 L 3676,1971 L 3675,1973 L 3674,1975 L 3326,2323 L 3323,2325 L 3321,2326 L 3318,2326 L 3101,2326 L 3058,2335 L 3022,2359 L 2998,2394 L 2989,2437 L 2998,2479 L 3022,2515 L 3054,2536 L 3055,2538 L 3057,2539 L 3058,2541 L 3058,2543 L 3058,2546 L 3058,2548 L 3057,2550 L 3055,2551 L 3054,2553 L 3052,2554 L 3046,2556 L 3020,2583 L 3005,2618 L 3005,2656 L 3019,2690 L 3046,2717 L 3052,2720 L 3054,2721 L 3055,2722 L 3057,2724 L 3058,2726 L 3058,2728 L 3058,2730 L 3058,2732 L 3057,2734 L 3055,2736 L 3054,2737 L 3022,2758 L 2998,2794 L 2989,2837 L 2998,2879 L 3022,2915 L 3042,2928 L 3044,2930 L 3045,2932 L 3046,2933 L 3046,2936 L 3046,2938 L 3046,2940 L 3045,2942 L 3044,2944 L 3042,2945 L 3022,2958 L 2998,2994 L 2989,3037 L 2998,3079 L 3019,3110 L 3020,3112 L 3020,3114 L 3020,3116 L 3020,3119 L 3019,3121 L 3018,3122 L 3016,3124 L 3015,3125 L 3013,3126 L 3010,3126 L 2950,3126 L 2948,3125 L 2945,3124 L 2943,3123 L 2904,3084 L 2902,3082 L 2901,3079 L 2901,3077 L 2901,1808 L 2892,1765 L 2868,1728 L 1939,799 L 1903,775 L 1859,766 L 1531,766 L 1488,775 L 1452,799 L 1446,807 L 1445,808 L 1443,809 L 1441,810 L 1439,810 L 1437,809 L 1435,808 L 1433,807 L 1423,797 L 1389,797 L 1389,836 L 1271,836 L 1271,718 L 1310,718M 1350,718 L 1389,718 L 1389,757 L 1423,757 L 1429,750 L 1429,710 L 1423,695 L 1412,684 L 1397,678 L 1357,678 L 1350,685 L 1350,718M 976,273 L 976,272 L 972,260 L 970,247 L 972,235 L 976,223 L 976,221 L 950,195 L 942,198 L 930,232 L 932,272 L 942,296 L 950,299 L 976,273M 1005,193 L 1012,190 L 1024,187 L 1037,187 L 1049,190 L 1056,193 L 1082,167 L 1080,159 L 1045,146 L 1005,148 L 981,158 L 979,167 L 1005,193 z " style="fill-opacity:1.000000;fill:rgb(5,60,124);stroke:rgb(0,0,0);stroke-width:2"/></g>
</svg>
