<?xml version="1.0" standalone="no"?>
<!DOCTYPE svg PUBLIC "-//W3C//DTD SVG 1.1//EN"
"http://www.w3.org/Graphics/SVG/1.1/DTD/svg11.dtd">
<svg width="6614" height="4645" viewBox="0 0 6614 4645" version="1.1"
xmlns="http://www.w3.org/2000/svg"
xmlns:xlink="http://www.w3.org/1999/xlink">
<g fill-rule="evenodd"><path d="M 1820,2576 L 2510,2576 L 2525,2577 L 2539,2582 L 2552,2589 L 2563,2599 L 2572,2611 L 2578,2625 L 2581,2639 L 2581,2654 L 2578,2669 L 2572,2682 L 2563,2694 L 2552,2704 L 2539,2711 L 2525,2716 L 2510,2718 L 1790,2718 L 1772,2715 L 1755,2708 L 1740,2697 L 1490,2447 L 1479,2432 L 1472,2415 L 1469,2397 L 1469,1487 L 1471,1472 L 1476,1458 L 1483,1445 L 1493,1434 L 1505,1426 L 1518,1420 L 1533,1416 L 1548,1416 L 1562,1420 L 1576,1426 L 1588,1434 L 1598,1445 L 1605,1458 L 1610,1472 L 1611,1487 L 1611,2367 L 1820,2576 z " style="fill-opacity:1.000000;fill:rgb(103,198,105);stroke:rgb(0,0,0);stroke-width:2"/></g>
<g fill-rule="evenodd"><path d="M 1540,2776 L 2510,2776 L 2525,2777 L 2539,2782 L 2552,2789 L 2563,2799 L 2572,2811 L 2578,2825 L 2581,2839 L 2581,2854 L 2578,2869 L 2572,2882 L 2563,2894 L 2552,2904 L 2539,2911 L 2525,2916 L 2510,2918 L 1510,2918 L 1492,2915 L 1475,2908 L 1460,2897 L 1290,2727 L 1279,2712 L 1272,2695 L 1269,2677 L 1269,1387 L 1271,1372 L 1276,1358 L 1283,1345 L 1293,1334 L 1305,1326 L 1318,1320 L 1333,1316 L 1348,1316 L 1362,1320 L 1376,1326 L 1388,1334 L 1398,1345 L 1405,1358 L 1410,1372 L 1411,1387 L 1411,2647 L 1540,2776 z " style="fill-opacity:1.000000;fill:rgb(115,81,255);stroke:rgb(0,0,0);stroke-width:2"/></g>
<g fill-rule="evenodd"><path d="M 2160,3717 L 1970,3907 L 1956,3918 L 1939,3925 L 1920,3927 L 680,3927 L 662,3925 L 645,3918 L 630,3907 L 390,3667 L 379,3652 L 372,3635 L 370,3617 L 370,1097 L 372,1079 L 379,1062 L 390,1047 L 500,937 L 515,926 L 532,919 L 550,916 L 1340,916 L 1355,918 L 1369,922 L 1382,930 L 1393,940 L 1402,952 L 1408,965 L 1411,980 L 1411,994 L 1408,1009 L 1402,1022 L 1393,1034 L 1382,1044 L 1369,1052 L 1355,1056 L 1340,1058 L 580,1058 L 511,1126 L 511,3587 L 710,3786 L 1891,3786 L 2080,3597 L 2095,3585 L 2112,3578 L 2130,3576 L 2510,3576 L 2525,3577 L 2539,3582 L 2552,3589 L 2563,3599 L 2572,3611 L 2578,3625 L 2581,3639 L 2581,3654 L 2578,3669 L 2572,3682 L 2563,3694 L 2552,3704 L 2539,3711 L 2525,3716 L 2510,3717 L 2160,3717 z " style="fill-opacity:1.000000;fill:rgb(74,236,41);stroke:rgb(0,0,0);stroke-width:2"/></g>
<g fill-rule="evenodd"><path d="M 971,3268 L 971,3377 L 970,3391 L 965,3405 L 958,3418 L 948,3429 L 936,3438 L 922,3444 L 908,3447 L 893,3447 L 878,3444 L 865,3438 L 853,3429 L 843,3418 L 836,3405 L 831,3391 L 830,3377 L 830,3237 L 832,3218 L 839,3201 L 850,3187 L 890,3147 L 905,3135 L 922,3128 L 940,3126 L 2240,3126 L 2255,3127 L 2269,3132 L 2282,3139 L 2293,3149 L 2302,3161 L 2308,3175 L 2311,3189 L 2311,3204 L 2308,3219 L 2302,3232 L 2293,3244 L 2282,3254 L 2269,3261 L 2255,3266 L 2240,3268 L 971,3268 z " style="fill-opacity:1.000000;fill:rgb(205,186,171);stroke:rgb(0,0,0);stroke-width:2"/></g>
<g fill-rule="evenodd"><path d="M 4164,2506 L 4338,2332 L 4338,1761 L 4305,1728 L 4080,1728 L 4065,1726 L 4051,1722 L 4038,1714 L 4027,1704 L 4019,1692 L 4013,1679 L 4009,1664 L 4009,1649 L 4013,1635 L 4019,1621 L 4027,1609 L 4038,1600 L 4051,1592 L 4065,1588 L 4080,1586 L 4334,1586 L 4352,1588 L 4369,1596 L 4384,1607 L 4459,1681 L 4470,1696 L 4477,1713 L 4480,1732 L 4480,2361 L 4477,2380 L 4470,2397 L 4459,2411 L 4243,2627 L 4229,2638 L 4212,2645 L 4193,2648 L 3908,2648 L 3858,2697 L 3844,2708 L 3827,2715 L 3808,2718 L 3110,2718 L 3095,2716 L 3081,2711 L 3068,2704 L 3057,2694 L 3049,2682 L 3043,2669 L 3040,2654 L 3040,2639 L 3043,2625 L 3049,2611 L 3057,2599 L 3068,2589 L 3081,2582 L 3095,2577 L 3110,2576 L 3779,2576 L 3828,2527 L 3843,2515 L 3860,2508 L 3878,2506 L 4164,2506 z " style="fill-opacity:1.000000;fill:rgb(242,251,227);stroke:rgb(0,0,0);stroke-width:2"/></g>
<g fill-rule="evenodd"><path d="M 2905,4300 L 3021,4416 L 3277,4416 L 3647,4046 L 3662,4035 L 3679,4028 L 3697,4026 L 4040,4026 L 4055,4027 L 4069,4032 L 4082,4039 L 4093,4049 L 4101,4061 L 4107,4075 L 4110,4089 L 4110,4104 L 4107,4118 L 4101,4132 L 4093,4144 L 4082,4154 L 4069,4161 L 4055,4166 L 4040,4167 L 3726,4167 L 3357,4537 L 3342,4548 L 3325,4555 L 3307,4558 L 2992,4558 L 2973,4555 L 2956,4548 L 2941,4537 L 2784,4380 L 2773,4365 L 2766,4348 L 2763,4330 L 2763,1968 L 2766,1949 L 2773,1932 L 2784,1918 L 2895,1807 L 2910,1796 L 2927,1788 L 2945,1786 L 4080,1786 L 4095,1788 L 4109,1792 L 4122,1800 L 4133,1809 L 4141,1821 L 4147,1835 L 4150,1849 L 4150,1864 L 4147,1879 L 4141,1892 L 4133,1904 L 4122,1914 L 4109,1922 L 4095,1926 L 4080,1928 L 2974,1928 L 2905,1997 L 2905,4300 z " style="fill-opacity:1.000000;fill:rgb(70,124,194);stroke:rgb(0,0,0);stroke-width:2"/></g>
<g fill-rule="evenodd"><path d="M 0,9 L 0,7 L 1,5 L 2,3 L 4,2 L 6,0 L 8,0 L 10,0 L 6603,0 L 6605,0 L 6607,0 L 6609,2 L 6611,3 L 6612,5 L 6613,7 L 6613,9 L 6613,4635 L 6613,4638 L 6612,4640 L 6611,4641 L 6608,4643 L 6606,4644 L 6603,4645 L 10,4645 L 8,4644 L 6,4644 L 4,4642 L 2,4641 L 1,4639 L 0,4637 L 0,4635 L 0,1097 L 0,9M 3306,4598 L 3349,4589 L 3386,4565 L 3740,4210 L 3742,4209 L 3744,4208 L 3747,4207 L 3933,4207 L 3935,4208 L 3937,4208 L 3939,4210 L 3941,4211 L 3942,4213 L 3943,4215 L 3943,4217 L 3943,4219 L 3939,4238 L 3939,4356 L 3942,4371 L 3951,4385 L 3964,4394 L 3981,4397 L 4099,4397 L 4115,4395 L 4128,4386 L 4137,4372 L 4141,4356 L 4141,4237 L 4138,4222 L 4129,4208 L 4116,4199 L 4111,4198 L 4110,4197 L 4108,4195 L 4107,4194 L 4106,4192 L 4105,4190 L 4105,4187 L 4106,4185 L 4107,4183 L 4108,4182 L 4118,4175 L 4142,4139 L 4151,4097 L 4142,4054 L 4118,4018 L 4091,4000 L 4090,3999 L 4088,3997 L 4087,3995 L 4087,3993 L 4087,3991 L 4087,3989 L 4088,3987 L 4090,3985 L 4091,3984 L 4096,3981 L 4125,3953 L 4140,3917 L 4140,3877 L 4125,3840 L 4097,3812 L 4060,3797 L 4020,3797 L 3983,3812 L 3955,3840 L 3940,3877 L 3940,3916 L 3955,3953 L 3971,3969 L 3972,3970 L 3973,3972 L 3973,3974 L 3973,3976 L 3973,3979 L 3972,3980 L 3971,3982 L 3970,3984 L 3968,3985 L 3966,3985 L 3964,3986 L 3698,3986 L 3655,3994 L 3618,4019 L 3264,4373 L 3261,4375 L 3259,4376 L 3256,4376 L 3042,4376 L 3039,4376 L 3037,4375 L 3035,4373 L 2948,4287 L 2946,4285 L 2945,4282 L 2945,4280 L 2945,2018 L 2945,2015 L 2946,2013 L 2948,2011 L 2988,1971 L 2990,1969 L 2992,1968 L 2995,1968 L 3973,1968 L 3975,1968 L 3977,1969 L 3979,1970 L 3981,1971 L 3982,1973 L 3983,1975 L 3983,1978 L 3983,1980 L 3979,1998 L 3979,2116 L 3982,2132 L 3991,2145 L 4004,2154 L 4021,2158 L 4139,2158 L 4155,2155 L 4168,2146 L 4177,2133 L 4181,2116 L 4181,1998 L 4178,1982 L 4169,1968 L 4156,1959 L 4151,1958 L 4150,1957 L 4148,1956 L 4147,1954 L 4146,1952 L 4145,1950 L 4145,1948 L 4146,1946 L 4147,1944 L 4148,1942 L 4150,1941 L 4158,1935 L 4182,1899 L 4191,1857 L 4182,1815 L 4161,1783 L 4160,1781 L 4160,1779 L 4160,1777 L 4160,1775 L 4161,1773 L 4162,1771 L 4164,1770 L 4165,1769 L 4167,1768 L 4170,1768 L 4284,1768 L 4287,1768 L 4289,1769 L 4291,1771 L 4295,1775 L 4297,1777 L 4298,1779 L 4298,1782 L 4298,2311 L 4298,2314 L 4297,2316 L 4295,2318 L 4198,2415 L 4196,2417 L 4194,2418 L 4192,2418 L 4190,2418 L 4188,2418 L 4186,2417 L 4184,2416 L 4183,2414 L 4182,2412 L 4181,2410 L 4181,2408 L 4181,2318 L 4178,2302 L 4169,2288 L 4156,2279 L 4139,2276 L 4021,2276 L 4005,2279 L 3992,2288 L 3982,2301 L 3979,2318 L 3979,2436 L 3982,2452 L 3983,2454 L 3983,2457 L 3982,2459 L 3982,2461 L 3980,2462 L 3979,2464 L 3977,2465 L 3975,2466 L 3973,2466 L 3879,2466 L 3836,2475 L 3799,2499 L 3765,2533 L 3763,2535 L 3761,2536 L 3758,2536 L 3179,2536 L 3177,2536 L 3175,2535 L 3173,2534 L 3172,2532 L 3171,2531 L 3170,2529 L 3169,2527 L 3170,2524 L 3170,2522 L 3171,2520 L 3172,2519 L 3191,2501 L 3205,2466 L 3205,2428 L 3191,2393 L 3164,2366 L 3129,2352 L 3091,2352 L 3056,2366 L 3030,2393 L 3015,2428 L 3015,2466 L 3029,2501 L 3056,2527 L 3062,2530 L 3064,2531 L 3065,2532 L 3067,2534 L 3068,2536 L 3068,2538 L 3068,2540 L 3068,2542 L 3067,2544 L 3065,2546 L 3064,2547 L 3032,2569 L 3008,2604 L 2999,2647 L 3008,2689 L 3032,2725 L 3064,2746 L 3065,2748 L 3067,2749 L 3068,2751 L 3068,2753 L 3068,2756 L 3068,2758 L 3067,2760 L 3065,2761 L 3064,2763 L 3062,2764 L 3056,2766 L 3030,2793 L 3015,2828 L 3015,2866 L 3029,2900 L 3056,2927 L 3081,2937 L 3083,2939 L 3084,2940 L 3086,2942 L 3087,2944 L 3087,2946 L 3087,2948 L 3087,2950 L 3086,2952 L 3084,2954 L 3083,2955 L 3081,2956 L 3056,2966 L 3030,2993 L 3015,3028 L 3015,3066 L 3029,3100 L 3056,3127 L 3081,3137 L 3083,3138 L 3084,3140 L 3086,3142 L 3087,3144 L 3087,3146 L 3087,3148 L 3087,3150 L 3086,3152 L 3084,3154 L 3083,3155 L 3081,3156 L 3056,3166 L 3030,3193 L 3015,3228 L 3015,3265 L 3029,3300 L 3056,3327 L 3081,3337 L 3083,3338 L 3084,3340 L 3086,3342 L 3087,3344 L 3087,3346 L 3087,3348 L 3087,3350 L 3086,3352 L 3084,3353 L 3083,3355 L 3081,3356 L 3056,3366 L 3030,3393 L 3015,3428 L 3015,3465 L 3029,3500 L 3056,3527 L 3081,3537 L 3083,3538 L 3084,3540 L 3086,3542 L 3087,3543 L 3087,3546 L 3087,3548 L 3087,3550 L 3086,3552 L 3084,3553 L 3083,3555 L 3081,3556 L 3056,3566 L 3030,3593 L 3015,3628 L 3015,3665 L 3029,3700 L 3056,3727 L 3081,3737 L 3083,3738 L 3084,3740 L 3086,3742 L 3087,3743 L 3087,3746 L 3087,3748 L 3087,3750 L 3086,3752 L 3084,3753 L 3083,3755 L 3081,3756 L 3056,3766 L 3030,3793 L 3015,3828 L 3015,3865 L 3029,3900 L 3056,3927 L 3081,3937 L 3083,3938 L 3084,3940 L 3086,3941 L 3087,3943 L 3087,3946 L 3087,3948 L 3087,3950 L 3086,3952 L 3084,3953 L 3083,3955 L 3081,3956 L 3056,3966 L 3030,3993 L 3015,4028 L 3015,4065 L 3029,4100 L 3056,4127 L 3081,4137 L 3083,4138 L 3084,4140 L 3086,4141 L 3087,4143 L 3087,4145 L 3087,4148 L 3087,4150 L 3086,4152 L 3084,4153 L 3083,4155 L 3081,4156 L 3056,4166 L 3030,4193 L 3015,4228 L 3015,4265 L 3029,4300 L 3056,4327 L 3091,4341 L 3129,4342 L 3164,4327 L 3191,4300 L 3205,4266 L 3205,4228 L 3191,4193 L 3164,4166 L 3139,4156 L 3137,4155 L 3136,4153 L 3134,4152 L 3134,4150 L 3133,4148 L 3133,4145 L 3134,4143 L 3134,4141 L 3136,4140 L 3137,4138 L 3139,4137 L 3164,4127 L 3191,4100 L 3205,4066 L 3205,4028 L 3191,3993 L 3164,3966 L 3139,3956 L 3137,3955 L 3136,3953 L 3134,3952 L 3134,3950 L 3133,3948 L 3133,3945 L 3134,3943 L 3134,3941 L 3136,3940 L 3137,3938 L 3139,3937 L 3164,3927 L 3191,3900 L 3205,3866 L 3205,3828 L 3191,3793 L 3164,3766 L 3139,3756 L 3137,3755 L 3136,3753 L 3134,3752 L 3134,3750 L 3133,3748 L 3133,3746 L 3134,3743 L 3134,3741 L 3136,3740 L 3137,3738 L 3139,3737 L 3164,3727 L 3191,3700 L 3205,3666 L 3205,3628 L 3191,3593 L 3164,3566 L 3139,3556 L 3137,3555 L 3136,3553 L 3134,3552 L 3134,3550 L 3133,3548 L 3133,3546 L 3134,3543 L 3134,3542 L 3136,3540 L 3137,3538 L 3139,3537 L 3164,3527 L 3191,3501 L 3205,3466 L 3205,3428 L 3191,3393 L 3164,3366 L 3139,3356 L 3137,3355 L 3136,3353 L 3134,3352 L 3134,3350 L 3133,3348 L 3133,3346 L 3134,3343 L 3134,3342 L 3136,3340 L 3137,3338 L 3139,3337 L 3164,3327 L 3191,3301 L 3205,3266 L 3205,3228 L 3191,3193 L 3164,3166 L 3139,3156 L 3137,3155 L 3136,3153 L 3134,3152 L 3134,3150 L 3133,3148 L 3133,3146 L 3134,3144 L 3134,3142 L 3136,3140 L 3137,3138 L 3139,3137 L 3164,3127 L 3191,3101 L 3205,3066 L 3205,3028 L 3191,2993 L 3164,2966 L 3139,2956 L 3137,2955 L 3136,2954 L 3134,2952 L 3134,2950 L 3133,2948 L 3133,2946 L 3134,2944 L 3134,2942 L 3136,2940 L 3137,2938 L 3139,2937 L 3164,2927 L 3191,2901 L 3205,2866 L 3205,2828 L 3191,2793 L 3172,2775 L 3171,2773 L 3170,2771 L 3170,2769 L 3169,2767 L 3170,2765 L 3171,2763 L 3172,2761 L 3173,2760 L 3175,2759 L 3177,2758 L 3179,2758 L 3807,2758 L 3851,2749 L 3887,2724 L 3921,2691 L 3923,2689 L 3926,2688 L 3928,2688 L 4004,2688 L 4006,2688 L 4008,2689 L 4010,2690 L 4011,2691 L 4012,2693 L 4013,2695 L 4013,2697 L 4013,2699 L 4013,2701 L 4012,2703 L 4011,2705 L 3995,2720 L 3980,2757 L 3980,2797 L 3995,2833 L 4023,2861 L 4060,2877 L 4100,2877 L 4136,2862 L 4165,2833 L 4180,2797 L 4180,2757 L 4165,2720 L 4149,2705 L 4148,2703 L 4147,2701 L 4146,2699 L 4146,2697 L 4147,2695 L 4148,2693 L 4149,2691 L 4150,2690 L 4152,2689 L 4154,2688 L 4156,2688 L 4192,2688 L 4236,2679 L 4272,2654 L 4486,2440 L 4511,2404 L 4520,2360 L 4520,1733 L 4511,1689 L 4486,1652 L 4413,1579 L 4376,1555 L 4333,1546 L 4081,1546 L 4038,1555 L 4002,1579 L 3978,1615 L 3969,1657 L 3978,1699 L 3999,1730 L 4000,1732 L 4000,1734 L 4000,1737 L 4000,1739 L 3999,1741 L 3998,1743 L 3996,1744 L 3994,1745 L 3992,1746 L 3990,1746 L 2946,1746 L 2903,1755 L 2866,1779 L 2756,1889 L 2732,1925 L 2723,1969 L 2723,4329 L 2732,4372 L 2756,4409 L 2913,4565 L 2949,4589 L 2993,4598 L 3306,4598M 330,3616 L 338,3659 L 363,3696 L 601,3934 L 638,3959 L 681,3967 L 1919,3967 L 1963,3959 L 1999,3934 L 2173,3760 L 2175,3759 L 2178,3758 L 2180,3757 L 2198,3757 L 2201,3758 L 2203,3758 L 2204,3759 L 2206,3761 L 2207,3763 L 2208,3765 L 2208,3767 L 2208,3769 L 2208,3771 L 2207,3773 L 2205,3775 L 1996,3984 L 1979,3996 L 1954,4033 L 1945,4078 L 1945,4096 L 1954,4140 L 1979,4178 L 2016,4202 L 2060,4211 L 2104,4202 L 2141,4178 L 2166,4140 L 2169,4127 L 2170,4124 L 2171,4122 L 2333,3960 L 2335,3959 L 2338,3958 L 2340,3957 L 2441,3957 L 2443,3958 L 2445,3958 L 2447,3959 L 2448,3961 L 2450,3963 L 2450,3965 L 2451,3967 L 2451,3969 L 2450,3971 L 2449,3973 L 2448,3975 L 2430,3993 L 2415,4028 L 2415,4065 L 2430,4100 L 2456,4127 L 2481,4137 L 2483,4138 L 2485,4140 L 2486,4141 L 2487,4143 L 2487,4145 L 2487,4148 L 2487,4150 L 2486,4152 L 2485,4153 L 2483,4155 L 2481,4156 L 2456,4166 L 2430,4193 L 2415,4228 L 2415,4265 L 2430,4300 L 2456,4327 L 2491,4341 L 2529,4342 L 2564,4327 L 2591,4300 L 2605,4266 L 2605,4228 L 2591,4193 L 2564,4166 L 2539,4156 L 2537,4155 L 2536,4153 L 2535,4152 L 2534,4150 L 2533,4148 L 2533,4145 L 2534,4143 L 2535,4141 L 2536,4140 L 2537,4138 L 2539,4137 L 2564,4127 L 2591,4100 L 2605,4066 L 2605,4028 L 2591,3993 L 2564,3966 L 2558,3964 L 2556,3963 L 2555,3961 L 2553,3959 L 2553,3958 L 2552,3955 L 2552,3953 L 2553,3951 L 2554,3949 L 2555,3948 L 2557,3946 L 2588,3925 L 2612,3889 L 2621,3847 L 2612,3804 L 2588,3768 L 2568,3755 L 2567,3754 L 2565,3752 L 2564,3750 L 2564,3748 L 2564,3746 L 2564,3743 L 2565,3741 L 2567,3740 L 2568,3738 L 2588,3725 L 2612,3689 L 2621,3647 L 2612,3604 L 2588,3568 L 2557,3547 L 2555,3546 L 2554,3544 L 2553,3542 L 2552,3540 L 2552,3538 L 2553,3536 L 2553,3534 L 2555,3532 L 2556,3531 L 2558,3530 L 2564,3527 L 2591,3501 L 2605,3466 L 2605,3428 L 2591,3393 L 2564,3366 L 2539,3356 L 2537,3355 L 2536,3353 L 2535,3352 L 2534,3350 L 2533,3348 L 2533,3346 L 2534,3343 L 2535,3342 L 2536,3340 L 2537,3338 L 2539,3337 L 2564,3327 L 2591,3301 L 2605,3266 L 2605,3228 L 2591,3193 L 2564,3166 L 2539,3156 L 2537,3155 L 2536,3153 L 2535,3152 L 2534,3150 L 2533,3148 L 2533,3146 L 2534,3144 L 2535,3142 L 2536,3140 L 2537,3138 L 2539,3137 L 2564,3127 L 2591,3101 L 2605,3066 L 2605,3028 L 2591,2993 L 2564,2966 L 2558,2964 L 2556,2963 L 2555,2961 L 2553,2960 L 2553,2958 L 2552,2956 L 2552,2953 L 2553,2951 L 2554,2949 L 2555,2948 L 2557,2946 L 2588,2925 L 2612,2889 L 2621,2847 L 2612,2804 L 2588,2768 L 2568,2755 L 2567,2754 L 2565,2752 L 2564,2750 L 2564,2748 L 2564,2746 L 2564,2744 L 2565,2742 L 2567,2740 L 2568,2738 L 2588,2725 L 2612,2689 L 2621,2647 L 2612,2604 L 2588,2569 L 2573,2558 L 2572,2557 L 2570,2555 L 2569,2553 L 2569,2551 L 2569,2549 L 2569,2547 L 2570,2545 L 2572,2543 L 2573,2542 L 2575,2541 L 2580,2540 L 2594,2531 L 2603,2518 L 2606,2501 L 2606,2393 L 2603,2377 L 2594,2363 L 2581,2354 L 2564,2351 L 2456,2351 L 2440,2354 L 2427,2363 L 2418,2376 L 2414,2393 L 2414,2501 L 2417,2517 L 2421,2522 L 2421,2524 L 2421,2527 L 2421,2529 L 2420,2531 L 2419,2532 L 2417,2534 L 2415,2535 L 2413,2536 L 2411,2536 L 1840,2536 L 1838,2536 L 1835,2535 L 1833,2533 L 1654,2354 L 1652,2352 L 1651,2349 L 1651,2347 L 1651,1488 L 1643,1445 L 1622,1413 L 1621,1411 L 1620,1409 L 1620,1407 L 1620,1405 L 1621,1403 L 1622,1401 L 1624,1400 L 1626,1399 L 1628,1398 L 1630,1398 L 1789,1398 L 1833,1389 L 1869,1365 L 1878,1356 L 1902,1319 L 1911,1276 L 1911,538 L 1910,532 L 1910,529 L 1910,523 L 1906,510 L 1902,495 L 1899,490 L 1898,488 L 1896,482 L 1887,472 L 1879,459 L 1874,456 L 1872,454 L 1868,449 L 1544,197 L 1542,195 L 1541,193 L 1540,191 L 1538,182 L 1530,169 L 1516,160 L 1499,156 L 1483,156 L 1481,156 L 1479,155 L 1470,150 L 1427,147 L 1402,156 L 1398,156 L 1381,156 L 1366,159 L 1352,168 L 1343,181 L 1340,194 L 1340,196 L 1339,198 L 1337,199 L 1335,200 L 1333,201 L 1331,202 L 1329,202 L 1327,201 L 1325,200 L 1323,199 L 1297,172 L 1260,157 L 1221,157 L 1184,172 L 1156,200 L 1150,215 L 1149,217 L 1147,218 L 1145,220 L 1144,221 L 1141,221 L 1139,221 L 1137,221 L 1135,220 L 1134,218 L 1132,217 L 1125,201 L 1097,172 L 1060,157 L 1021,157 L 984,172 L 956,200 L 940,237 L 940,277 L 956,314 L 984,342 L 1020,357 L 1060,357 L 1097,342 L 1125,314 L 1131,299 L 1132,297 L 1134,296 L 1135,295 L 1137,294 L 1139,293 L 1141,293 L 1144,294 L 1145,295 L 1147,296 L 1149,297 L 1150,299 L 1156,314 L 1184,342 L 1220,357 L 1260,357 L 1297,342 L 1323,316 L 1325,314 L 1327,313 L 1329,313 L 1331,313 L 1333,313 L 1335,314 L 1337,315 L 1339,317 L 1340,319 L 1342,332 L 1351,346 L 1364,355 L 1381,358 L 1388,358 L 1390,359 L 1392,360 L 1686,588 L 1687,590 L 1688,592 L 1689,594 L 1689,596 L 1689,1166 L 1689,1168 L 1688,1170 L 1687,1172 L 1686,1174 L 1684,1175 L 1682,1176 L 1679,1176 L 1615,1176 L 1613,1176 L 1611,1175 L 1609,1174 L 1608,1173 L 1607,1171 L 1606,1169 L 1605,1167 L 1606,1165 L 1606,1163 L 1607,1161 L 1608,1159 L 1624,1143 L 1639,1107 L 1639,1067 L 1624,1031 L 1596,1003 L 1580,996 L 1578,995 L 1577,994 L 1575,992 L 1574,990 L 1574,988 L 1574,986 L 1574,984 L 1575,982 L 1577,980 L 1578,979 L 1580,978 L 1596,971 L 1624,943 L 1639,907 L 1639,867 L 1624,831 L 1596,803 L 1560,788 L 1521,788 L 1484,803 L 1457,830 L 1456,831 L 1454,832 L 1452,833 L 1450,833 L 1448,832 L 1446,831 L 1444,830 L 1442,829 L 1441,827 L 1441,825 L 1440,823 L 1440,729 L 1437,713 L 1429,700 L 1415,690 L 1398,687 L 1282,687 L 1266,690 L 1253,699 L 1244,712 L 1240,729 L 1240,845 L 1243,861 L 1244,863 L 1245,865 L 1245,867 L 1244,869 L 1243,871 L 1242,873 L 1241,874 L 1239,875 L 1237,876 L 1235,876 L 551,876 L 508,885 L 471,909 L 363,1018 L 338,1055 L 330,1098 L 330,3616M 1160,4077 L 1145,4040 L 1117,4012 L 1080,3997 L 1041,3997 L 1004,4012 L 976,4040 L 960,4077 L 960,4116 L 976,4153 L 1004,4181 L 1040,4197 L 1080,4197 L 1117,4181 L 1145,4153 L 1160,4117 L 1160,4077M 1160,4356 L 1160,4317 L 1145,4280 L 1117,4252 L 1080,4237 L 1041,4237 L 1004,4252 L 976,4280 L 960,4317 L 960,4356 L 976,4393 L 1004,4421 L 1040,4436 L 1080,4437 L 1117,4421 L 1145,4393 L 1160,4356M 2040,4436 L 2080,4437 L 2117,4421 L 2145,4393 L 2160,4356 L 2160,4317 L 2145,4280 L 2117,4252 L 2080,4237 L 2040,4237 L 2004,4252 L 1976,4280 L 1960,4317 L 1960,4356 L 1975,4393 L 2004,4421 L 2040,4436M 804,854 L 877,854 L 944,826 L 996,774 L 1024,707 L 1024,634 L 996,566 L 945,514 L 877,486 L 804,486 L 736,514 L 685,566 L 657,633 L 657,706 L 685,774 L 736,826 L 804,854M 2412,1137 L 2587,1137 L 2749,1070 L 2873,947 L 2940,785 L 2940,610 L 2873,448 L 2750,324 L 2588,257 L 2413,257 L 2251,324 L 2127,448 L 2060,609 L 2060,784 L 2127,946 L 2251,1070 L 2412,1137M 4814,2310 L 4820,2297 L 4820,2257 L 4805,2220 L 4777,2192 L 4740,2177 L 4700,2177 L 4663,2192 L 4635,2220 L 4620,2257 L 4620,2297 L 4635,2333 L 4663,2362 L 4700,2377 L 4740,2377 L 4776,2362 L 4805,2334 L 4814,2310M 4125,3473 L 4140,3437 L 4140,3397 L 4125,3360 L 4097,3332 L 4082,3326 L 4080,3325 L 4079,3323 L 4077,3322 L 4076,3320 L 4076,3318 L 4076,3316 L 4076,3313 L 4077,3312 L 4079,3310 L 4080,3308 L 4096,3301 L 4125,3273 L 4140,3237 L 4140,3197 L 4125,3160 L 4097,3132 L 4060,3117 L 4020,3117 L 3983,3132 L 3955,3160 L 3940,3197 L 3940,3236 L 3955,3273 L 3983,3301 L 3998,3307 L 4000,3308 L 4001,3310 L 4003,3312 L 4003,3314 L 4004,3316 L 4004,3318 L 4003,3320 L 4003,3322 L 4001,3323 L 4000,3325 L 3998,3326 L 3983,3332 L 3955,3360 L 3940,3397 L 3940,3436 L 3955,3473 L 3981,3500 L 3983,3501 L 3984,3503 L 3984,3505 L 3984,3508 L 3984,3510 L 3983,3512 L 3982,3513 L 3980,3515 L 3978,3516 L 3976,3517 L 3965,3519 L 3952,3527 L 3942,3541 L 3939,3558 L 3939,3676 L 3942,3691 L 3951,3705 L 3964,3714 L 3981,3718 L 4099,3718 L 4115,3715 L 4128,3706 L 4137,3692 L 4141,3676 L 4141,3558 L 4138,3542 L 4129,3528 L 4116,3519 L 4103,3517 L 4101,3516 L 4099,3515 L 4098,3513 L 4097,3512 L 4096,3510 L 4095,3508 L 4095,3505 L 4096,3503 L 4097,3501 L 4098,3500 L 4125,3473M 6209,3544 L 6048,3477 L 5873,3477 L 5711,3543 L 5587,3667 L 5520,3829 L 5520,4004 L 5586,4165 L 5710,4289 L 5872,4356 L 6047,4357 L 6209,4290 L 6332,4166 L 6400,4004 L 6400,3829 L 6333,3668 L 6209,3544M 5300,3217 L 5285,3180 L 5256,3152 L 5220,3137 L 5180,3137 L 5143,3152 L 5115,3180 L 5100,3217 L 5100,3256 L 5115,3293 L 5143,3321 L 5180,3337 L 5220,3337 L 5256,3321 L 5284,3293 L 5300,3257 L 5300,3217M 6209,1184 L 6048,1117 L 5873,1117 L 5711,1184 L 5587,1307 L 5520,1469 L 5520,1644 L 5586,1806 L 5710,1930 L 5872,1997 L 6047,1997 L 6209,1930 L 6332,1806 L 6400,1645 L 6400,1470 L 6333,1308 L 6209,1184M 5128,994 L 5060,1043 L 4983,1077 L 4902,1095 L 4818,1095 L 4736,1077 L 4660,1043 L 4592,994 L 4565,1020 L 4604,1066 L 4765,1135 L 4940,1138 L 5103,1074 L 5115,1066 L 5155,1020 L 5128,994M 5128,401 L 5155,374 L 5115,328 L 4955,259 L 4780,256 L 4616,320 L 4605,328 L 4565,374 L 4592,401 L 4660,351 L 4736,317 L 4818,299 L 4902,299 L 4983,317 L 5060,351 L 5128,401M 5155,964 L 5183,992 L 5228,952 L 5298,792 L 5301,617 L 5237,454 L 5229,442 L 5183,402 L 5155,430 L 5183,462 L 5225,534 L 5251,614 L 5260,697 L 5251,780 L 5225,860 L 5183,932 L 5155,964M 4745,1331 L 4738,1334 L 4726,1337 L 4714,1337 L 4701,1334 L 4694,1331 L 4668,1357 L 4670,1365 L 4705,1378 L 4745,1376 L 4769,1366 L 4772,1357 L 4745,1331M 4745,1223 L 4772,1197 L 4769,1188 L 4735,1176 L 4695,1178 L 4671,1188 L 4668,1197 L 4694,1223 L 4701,1220 L 4714,1217 L 4726,1217 L 4738,1220 L 4745,1223M 4774,1303 L 4800,1329 L 4808,1326 L 4821,1292 L 4819,1252 L 4809,1228 L 4800,1225 L 4774,1251 L 4775,1253 L 4779,1264 L 4780,1277 L 4779,1289 L 4775,1301 L 4774,1303M 4666,1303 L 4665,1301 L 4661,1289 L 4660,1277 L 4661,1264 L 4665,1253 L 4666,1251 L 4640,1225 L 4631,1228 L 4619,1262 L 4621,1302 L 4631,1326 L 4640,1329 L 4666,1303M 4565,430 L 4537,402 L 4491,442 L 4421,602 L 4418,777 L 4483,941 L 4490,952 L 4537,992 L 4565,964 L 4536,932 L 4494,860 L 4469,780 L 4460,697 L 4469,614 L 4494,534 L 4536,462 L 4565,430M 5174,2291 L 5148,2317 L 5150,2325 L 5185,2338 L 5225,2336 L 5249,2326 L 5252,2317 L 5225,2291 L 5218,2294 L 5206,2296 L 5194,2296 L 5181,2294 L 5174,2291M 5174,2183 L 5181,2180 L 5194,2177 L 5206,2177 L 5218,2180 L 5225,2183 L 5252,2157 L 5249,2148 L 5215,2136 L 5175,2138 L 5150,2148 L 5148,2157 L 5174,2183M 5146,2211 L 5120,2185 L 5111,2187 L 5099,2222 L 5101,2262 L 5111,2286 L 5120,2289 L 5146,2263 L 5145,2261 L 5141,2249 L 5140,2237 L 5141,2224 L 5145,2212 L 5146,2211M 5254,2211 L 5255,2212 L 5258,2224 L 5260,2237 L 5258,2249 L 5255,2261 L 5254,2263 L 5280,2289 L 5288,2286 L 5301,2252 L 5299,2212 L 5289,2188 L 5280,2185 L 5254,2211 z " style="fill-opacity:1.000000;fill:rgb(84,248,27);stroke:rgb(0,0,0);stroke-width:2"/></g>
<g fill-rule="evenodd"><path d="M 3980,4357 L 3980,4237 L 4100,4237 L 4100,4357 L 3980,4357 z " style="fill-opacity:1.000000;fill:rgb(232,231,141);stroke:rgb(0,0,0);stroke-width:2"/></g>
<g fill-rule="evenodd"><path d="M 4100,3897 L 4099,3909 L 4095,3921 L 4088,3932 L 4080,3941 L 4070,3949 L 4058,3954 L 4046,3956 L 4034,3956 L 4021,3954 L 4010,3949 L 4000,3941 L 3991,3932 L 3985,3921 L 3981,3909 L 3980,3897 L 3981,3884 L 3985,3872 L 3991,3861 L 4000,3852 L 4010,3845 L 4021,3840 L 4034,3837 L 4046,3837 L 4058,3840 L 4070,3845 L 4080,3852 L 4088,3861 L 4095,3872 L 4099,3884 L 4100,3897 z " style="fill-opacity:1.000000;fill:rgb(118,90,46);stroke:rgb(0,0,0);stroke-width:2"/></g>
<g fill-rule="evenodd"><path d="M 3980,3677 L 3980,3557 L 4100,3557 L 4100,3677 L 3980,3677 z " style="fill-opacity:1.000000;fill:rgb(99,51,159);stroke:rgb(0,0,0);stroke-width:2"/></g>
<g fill-rule="evenodd"><path d="M 4100,3417 L 4099,3429 L 4095,3441 L 4088,3452 L 4080,3461 L 4070,3469 L 4058,3474 L 4046,3476 L 4034,3476 L 4021,3474 L 4010,3469 L 4000,3461 L 3991,3452 L 3985,3441 L 3981,3429 L 3980,3417 L 3981,3404 L 3985,3392 L 3991,3381 L 4000,3372 L 4010,3365 L 4021,3360 L 4034,3357 L 4046,3357 L 4058,3360 L 4070,3365 L 4080,3372 L 4088,3381 L 4095,3392 L 4099,3404 L 4100,3417 z " style="fill-opacity:1.000000;fill:rgb(201,154,102);stroke:rgb(0,0,0);stroke-width:2"/></g>
<g fill-rule="evenodd"><path d="M 4100,3217 L 4099,3229 L 4095,3241 L 4088,3252 L 4080,3261 L 4070,3269 L 4058,3274 L 4046,3276 L 4034,3276 L 4021,3274 L 4010,3269 L 4000,3261 L 3991,3252 L 3985,3241 L 3981,3229 L 3980,3217 L 3981,3204 L 3985,3192 L 3991,3181 L 4000,3172 L 4010,3165 L 4021,3160 L 4034,3157 L 4046,3157 L 4058,3160 L 4070,3165 L 4080,3172 L 4088,3181 L 4095,3192 L 4099,3204 L 4100,3217 z " style="fill-opacity:1.000000;fill:rgb(50,13,183);stroke:rgb(0,0,0);stroke-width:2"/></g>
<g fill-rule="evenodd"><path d="M 2900,697 L 2891,780 L 2866,860 L 2824,932 L 2768,994 L 2700,1043 L 2624,1077 L 2542,1095 L 2458,1095 L 2377,1077 L 2300,1043 L 2233,994 L 2177,932 L 2135,860 L 2109,780 L 2100,697 L 2109,614 L 2135,534 L 2177,462 L 2233,400 L 2300,351 L 2377,317 L 2458,299 L 2542,299 L 2624,317 L 2700,351 L 2768,400 L 2824,462 L 2866,534 L 2891,614 L 2900,697 z " style="fill-opacity:1.000000;fill:rgb(49,88,163);stroke:rgb(0,0,0);stroke-width:2"/></g>
<g fill-rule="evenodd"><path d="M 1120,4337 L 1119,4349 L 1115,4361 L 1109,4372 L 1101,4381 L 1090,4388 L 1079,4394 L 1067,4396 L 1054,4396 L 1042,4394 L 1030,4388 L 1020,4381 L 1012,4372 L 1006,4361 L 1002,4349 L 1000,4337 L 1002,4324 L 1006,4312 L 1012,4301 L 1020,4292 L 1030,4285 L 1042,4279 L 1054,4277 L 1067,4277 L 1079,4279 L 1090,4285 L 1101,4292 L 1109,4301 L 1115,4312 L 1119,4324 L 1120,4337 z " style="fill-opacity:1.000000;fill:rgb(90,37,93);stroke:rgb(0,0,0);stroke-width:2"/></g>
<g fill-rule="evenodd"><path d="M 2120,4337 L 2119,4349 L 2115,4361 L 2109,4372 L 2100,4381 L 2090,4388 L 2079,4394 L 2066,4396 L 2054,4396 L 2042,4394 L 2030,4388 L 2020,4381 L 2012,4372 L 2005,4361 L 2002,4349 L 2000,4337 L 2002,4324 L 2005,4312 L 2012,4301 L 2020,4292 L 2030,4285 L 2042,4279 L 2054,4277 L 2066,4277 L 2079,4279 L 2090,4285 L 2100,4292 L 2109,4301 L 2115,4312 L 2119,4324 L 2120,4337 z " style="fill-opacity:1.000000;fill:rgb(5,23,88);stroke:rgb(0,0,0);stroke-width:2"/></g>
<g fill-rule="evenodd"><path d="M 6360,1557 L 6351,1640 L 6325,1720 L 6283,1792 L 6227,1854 L 6160,1903 L 6083,1937 L 6001,1955 L 5918,1955 L 5836,1937 L 5760,1903 L 5692,1854 L 5636,1792 L 5594,1720 L 5568,1640 L 5560,1557 L 5568,1474 L 5594,1394 L 5636,1322 L 5692,1260 L 5760,1211 L 5836,1177 L 5918,1159 L 6001,1159 L 6083,1177 L 6160,1211 L 6227,1260 L 6283,1322 L 6325,1394 L 6351,1474 L 6360,1557 z " style="fill-opacity:1.000000;fill:rgb(233,94,212);stroke:rgb(0,0,0);stroke-width:2"/></g>
<g fill-rule="evenodd"><path d="M 6360,3917 L 6351,4000 L 6325,4079 L 6283,4152 L 6227,4214 L 6160,4263 L 6083,4297 L 6001,4314 L 5918,4314 L 5836,4297 L 5760,4263 L 5692,4214 L 5636,4152 L 5594,4079 L 5568,4000 L 5560,3917 L 5568,3833 L 5594,3754 L 5636,3681 L 5692,3619 L 5760,3570 L 5836,3536 L 5918,3519 L 6001,3519 L 6083,3536 L 6160,3570 L 6227,3619 L 6283,3681 L 6325,3754 L 6351,3833 L 6360,3917 z " style="fill-opacity:1.000000;fill:rgb(171,178,205);stroke:rgb(0,0,0);stroke-width:2"/></g>
<g fill-rule="evenodd"><path d="M 984,1605 L 981,1634 L 972,1663 L 957,1689 L 937,1711 L 912,1729 L 885,1741 L 855,1747 L 825,1747 L 796,1741 L 769,1729 L 744,1711 L 724,1689 L 709,1663 L 700,1634 L 697,1605 L 700,1575 L 709,1546 L 724,1520 L 744,1498 L 769,1480 L 796,1468 L 825,1462 L 855,1462 L 885,1468 L 912,1480 L 937,1498 L 957,1520 L 972,1546 L 981,1575 L 984,1605 z " style="fill-opacity:1.000000;fill:rgb(198,155,180);stroke:rgb(0,0,0);stroke-width:2"/></g>
<g fill-rule="evenodd"><path d="M 984,670 L 981,700 L 972,728 L 957,754 L 937,777 L 912,794 L 885,807 L 855,813 L 825,813 L 796,807 L 769,794 L 744,777 L 724,754 L 709,728 L 700,700 L 697,670 L 700,640 L 709,612 L 724,586 L 744,563 L 769,546 L 796,533 L 825,527 L 855,527 L 885,533 L 912,546 L 937,563 L 957,586 L 972,612 L 981,640 L 984,670 z " style="fill-opacity:1.000000;fill:rgb(84,17,14);stroke:rgb(0,0,0);stroke-width:2"/></g>
<g fill-rule="evenodd"><path d="M 1281,846 L 1281,728 L 1399,728 L 1399,846 L 1281,846 z " style="fill-opacity:1.000000;fill:rgb(130,116,65);stroke:rgb(0,0,0);stroke-width:2"/></g>
<g fill-rule="evenodd"><path d="M 1599,887 L 1598,899 L 1594,911 L 1588,922 L 1580,931 L 1570,938 L 1559,943 L 1546,946 L 1534,946 L 1522,943 L 1511,938 L 1501,931 L 1492,922 L 1486,911 L 1482,899 L 1481,887 L 1482,875 L 1486,863 L 1492,852 L 1501,843 L 1511,836 L 1522,831 L 1534,828 L 1546,828 L 1559,831 L 1570,836 L 1580,843 L 1588,852 L 1594,863 L 1598,875 L 1599,887 z " style="fill-opacity:1.000000;fill:rgb(33,61,220);stroke:rgb(0,0,0);stroke-width:2"/></g>
<g fill-rule="evenodd"><path d="M 1599,1087 L 1598,1099 L 1594,1111 L 1588,1122 L 1580,1131 L 1570,1138 L 1559,1143 L 1546,1146 L 1534,1146 L 1522,1143 L 1511,1138 L 1501,1131 L 1492,1122 L 1486,1111 L 1482,1099 L 1481,1087 L 1482,1075 L 1486,1063 L 1492,1052 L 1501,1043 L 1511,1036 L 1522,1031 L 1534,1028 L 1546,1028 L 1559,1031 L 1570,1036 L 1580,1043 L 1588,1052 L 1594,1063 L 1598,1075 L 1599,1087 z " style="fill-opacity:1.000000;fill:rgb(135,112,233);stroke:rgb(0,0,0);stroke-width:2"/></g>
<g fill-rule="evenodd"><path d="M 1399,1187 L 1398,1199 L 1394,1211 L 1388,1222 L 1380,1231 L 1370,1238 L 1359,1243 L 1347,1246 L 1334,1246 L 1322,1243 L 1311,1238 L 1301,1231 L 1293,1222 L 1286,1211 L 1283,1199 L 1281,1187 L 1283,1175 L 1286,1163 L 1293,1152 L 1301,1143 L 1311,1136 L 1322,1131 L 1334,1128 L 1347,1128 L 1359,1131 L 1370,1136 L 1380,1143 L 1388,1152 L 1394,1163 L 1398,1175 L 1399,1187 z " style="fill-opacity:1.000000;fill:rgb(62,161,65);stroke:rgb(0,0,0);stroke-width:2"/></g>
<g fill-rule="evenodd"><path d="M 5260,3237 L 5258,3249 L 5255,3261 L 5248,3272 L 5240,3281 L 5230,3289 L 5218,3294 L 5206,3296 L 5194,3296 L 5181,3294 L 5170,3289 L 5160,3281 L 5151,3272 L 5145,3261 L 5141,3249 L 5140,3237 L 5141,3224 L 5145,3212 L 5151,3201 L 5160,3192 L 5170,3185 L 5181,3180 L 5194,3177 L 5206,3177 L 5218,3180 L 5230,3185 L 5240,3192 L 5248,3201 L 5255,3212 L 5258,3224 L 5260,3237 z " style="fill-opacity:1.000000;fill:rgb(225,252,103);stroke:rgb(0,0,0);stroke-width:2"/></g>
<g fill-rule="evenodd"><path d="M 4780,2277 L 4779,2289 L 4775,2301 L 4768,2312 L 4760,2321 L 4750,2329 L 4738,2334 L 4726,2336 L 4714,2336 L 4701,2334 L 4690,2329 L 4680,2321 L 4671,2312 L 4665,2301 L 4661,2289 L 4660,2277 L 4661,2264 L 4665,2252 L 4671,2242 L 4680,2232 L 4690,2225 L 4701,2220 L 4714,2217 L 4726,2217 L 4738,2220 L 4750,2225 L 4760,2232 L 4768,2242 L 4775,2252 L 4779,2264 L 4780,2277 z " style="fill-opacity:1.000000;fill:rgb(62,1,126);stroke:rgb(0,0,0);stroke-width:2"/></g>
<g fill-rule="evenodd"><path d="M 1120,4097 L 1119,4109 L 1115,4121 L 1109,4132 L 1101,4141 L 1090,4149 L 1079,4154 L 1067,4156 L 1054,4156 L 1042,4154 L 1030,4149 L 1020,4141 L 1012,4132 L 1006,4121 L 1002,4109 L 1000,4097 L 1002,4084 L 1006,4072 L 1012,4061 L 1020,4052 L 1030,4045 L 1042,4039 L 1054,4037 L 1067,4037 L 1079,4039 L 1090,4045 L 1101,4052 L 1109,4061 L 1115,4072 L 1119,4084 L 1120,4097 z " style="fill-opacity:1.000000;fill:rgb(151,234,220);stroke:rgb(0,0,0);stroke-width:2"/></g>
<g fill-rule="evenodd"><path d="M 4020,2117 L 4020,1997 L 4140,1997 L 4140,2117 L 4020,2117 z " style="fill-opacity:1.000000;fill:rgb(107,150,143);stroke:rgb(0,0,0);stroke-width:2"/></g>
<g fill-rule="evenodd"><path d="M 4020,2437 L 4020,2317 L 4140,2317 L 4140,2437 L 4020,2437 z " style="fill-opacity:1.000000;fill:rgb(56,92,42);stroke:rgb(0,0,0);stroke-width:2"/></g>
<g fill-rule="evenodd"><path d="M 4140,2777 L 4139,2789 L 4135,2801 L 4128,2812 L 4120,2821 L 4110,2829 L 4098,2834 L 4086,2836 L 4074,2836 L 4061,2834 L 4050,2829 L 4040,2821 L 4031,2812 L 4025,2801 L 4021,2789 L 4020,2777 L 4021,2764 L 4025,2752 L 4031,2741 L 4040,2732 L 4050,2725 L 4061,2720 L 4074,2717 L 4086,2717 L 4098,2720 L 4110,2725 L 4120,2732 L 4128,2741 L 4135,2752 L 4139,2764 L 4140,2777 z " style="fill-opacity:1.000000;fill:rgb(236,176,59);stroke:rgb(0,0,0);stroke-width:2"/></g>
<g fill-rule="evenodd"><path d="M 1300,257 L 1299,270 L 1295,282 L 1289,292 L 1280,302 L 1270,309 L 1259,314 L 1247,317 L 1234,317 L 1222,314 L 1210,309 L 1200,302 L 1192,292 L 1186,282 L 1182,270 L 1180,257 L 1182,245 L 1186,233 L 1192,222 L 1200,213 L 1210,205 L 1222,200 L 1234,197 L 1247,197 L 1259,200 L 1270,205 L 1280,213 L 1289,222 L 1295,233 L 1299,245 L 1300,257 z " style="fill-opacity:1.000000;fill:rgb(251,50,175);stroke:rgb(0,0,0);stroke-width:2"/></g>
<g fill-rule="evenodd"><path d="M 1100,257 L 1099,270 L 1095,282 L 1089,292 L 1081,302 L 1070,309 L 1059,314 L 1047,317 L 1034,317 L 1022,314 L 1010,309 L 1000,302 L 992,292 L 986,282 L 982,270 L 980,257 L 982,245 L 986,233 L 992,222 L 1000,213 L 1010,205 L 1022,200 L 1034,197 L 1047,197 L 1059,200 L 1070,205 L 1081,213 L 1089,222 L 1095,233 L 1099,245 L 1100,257 z " style="fill-opacity:1.000000;fill:rgb(60,84,236);stroke:rgb(0,0,0);stroke-width:2"/></g>
<g fill-rule="evenodd"><path d="M 2455,2502 L 2455,2392 L 2565,2392 L 2565,2502 L 2455,2502 z " style="fill-opacity:1.000000;fill:rgb(24,219,92);stroke:rgb(0,0,0);stroke-width:2"/></g>
<g fill-rule="evenodd"><path d="M 2565,3047 L 2564,3058 L 2560,3069 L 2555,3079 L 2547,3088 L 2538,3094 L 2527,3099 L 2516,3101 L 2504,3101 L 2493,3099 L 2483,3094 L 2473,3088 L 2466,3079 L 2460,3069 L 2456,3058 L 2455,3047 L 2456,3035 L 2460,3024 L 2466,3014 L 2473,3006 L 2483,2999 L 2493,2994 L 2504,2992 L 2516,2992 L 2527,2994 L 2538,2999 L 2547,3006 L 2555,3014 L 2560,3024 L 2564,3035 L 2565,3047 z " style="fill-opacity:1.000000;fill:rgb(2,26,254);stroke:rgb(0,0,0);stroke-width:2"/></g>
<g fill-rule="evenodd"><path d="M 2565,3247 L 2564,3258 L 2560,3269 L 2555,3279 L 2547,3288 L 2538,3294 L 2527,3299 L 2516,3301 L 2504,3301 L 2493,3299 L 2483,3294 L 2473,3288 L 2466,3279 L 2460,3269 L 2456,3258 L 2455,3247 L 2456,3235 L 2460,3224 L 2466,3214 L 2473,3206 L 2483,3199 L 2493,3194 L 2504,3192 L 2516,3192 L 2527,3194 L 2538,3199 L 2547,3206 L 2555,3214 L 2560,3224 L 2564,3235 L 2565,3247 z " style="fill-opacity:1.000000;fill:rgb(67,251,250);stroke:rgb(0,0,0);stroke-width:2"/></g>
<g fill-rule="evenodd"><path d="M 2565,3447 L 2564,3458 L 2560,3469 L 2555,3479 L 2547,3488 L 2538,3494 L 2527,3499 L 2516,3501 L 2504,3501 L 2493,3499 L 2483,3494 L 2473,3488 L 2466,3479 L 2460,3469 L 2456,3458 L 2455,3447 L 2456,3435 L 2460,3424 L 2466,3414 L 2473,3406 L 2483,3399 L 2493,3394 L 2504,3392 L 2516,3392 L 2527,3394 L 2538,3399 L 2547,3406 L 2555,3414 L 2560,3424 L 2564,3435 L 2565,3447 z " style="fill-opacity:1.000000;fill:rgb(170,58,251);stroke:rgb(0,0,0);stroke-width:2"/></g>
<g fill-rule="evenodd"><path d="M 2565,4047 L 2564,4058 L 2560,4069 L 2555,4079 L 2547,4087 L 2538,4094 L 2527,4099 L 2516,4101 L 2504,4101 L 2493,4099 L 2483,4094 L 2473,4087 L 2466,4079 L 2460,4069 L 2456,4058 L 2455,4047 L 2456,4035 L 2460,4024 L 2466,4014 L 2473,4006 L 2483,3999 L 2493,3994 L 2504,3992 L 2516,3992 L 2527,3994 L 2538,3999 L 2547,4006 L 2555,4014 L 2560,4024 L 2564,4035 L 2565,4047 z " style="fill-opacity:1.000000;fill:rgb(41,209,230);stroke:rgb(0,0,0);stroke-width:2"/></g>
<g fill-rule="evenodd"><path d="M 2565,4247 L 2564,4258 L 2560,4269 L 2555,4279 L 2547,4287 L 2538,4294 L 2527,4299 L 2516,4301 L 2504,4301 L 2493,4299 L 2483,4294 L 2473,4287 L 2466,4279 L 2460,4269 L 2456,4258 L 2455,4247 L 2456,4235 L 2460,4224 L 2466,4214 L 2473,4206 L 2483,4199 L 2493,4194 L 2504,4192 L 2516,4192 L 2527,4194 L 2538,4199 L 2547,4206 L 2555,4214 L 2560,4224 L 2564,4235 L 2565,4247 z " style="fill-opacity:1.000000;fill:rgb(5,60,124);stroke:rgb(0,0,0);stroke-width:2"/></g>
<g fill-rule="evenodd"><path d="M 3165,4247 L 3164,4258 L 3160,4269 L 3155,4279 L 3147,4287 L 3138,4294 L 3127,4299 L 3116,4301 L 3104,4301 L 3093,4299 L 3083,4294 L 3073,4287 L 3066,4279 L 3060,4269 L 3056,4258 L 3055,4247 L 3056,4235 L 3060,4224 L 3066,4214 L 3073,4206 L 3083,4199 L 3093,4194 L 3104,4192 L 3116,4192 L 3127,4194 L 3138,4199 L 3147,4206 L 3155,4214 L 3160,4224 L 3164,4235 L 3165,4247 z " style="fill-opacity:1.000000;fill:rgb(148,117,216);stroke:rgb(0,0,0);stroke-width:2"/></g>
<g fill-rule="evenodd"><path d="M 3165,4047 L 3164,4058 L 3160,4069 L 3155,4079 L 3147,4087 L 3138,4094 L 3127,4099 L 3116,4101 L 3104,4101 L 3093,4099 L 3083,4094 L 3073,4087 L 3066,4079 L 3060,4069 L 3056,4058 L 3055,4047 L 3056,4035 L 3060,4024 L 3066,4014 L 3073,4006 L 3083,3999 L 3093,3994 L 3104,3992 L 3116,3992 L 3127,3994 L 3138,3999 L 3147,4006 L 3155,4014 L 3160,4024 L 3164,4035 L 3165,4047 z " style="fill-opacity:1.000000;fill:rgb(190,97,137);stroke:rgb(0,0,0);stroke-width:2"/></g>
<g fill-rule="evenodd"><path d="M 3165,3847 L 3164,3858 L 3160,3869 L 3155,3879 L 3147,3887 L 3138,3894 L 3127,3899 L 3116,3901 L 3104,3901 L 3093,3899 L 3083,3894 L 3073,3887 L 3066,3879 L 3060,3869 L 3056,3858 L 3055,3847 L 3056,3835 L 3060,3824 L 3066,3814 L 3073,3806 L 3083,3799 L 3093,3794 L 3104,3792 L 3116,3792 L 3127,3794 L 3138,3799 L 3147,3806 L 3155,3814 L 3160,3824 L 3164,3835 L 3165,3847 z " style="fill-opacity:1.000000;fill:rgb(249,92,187);stroke:rgb(0,0,0);stroke-width:2"/></g>
<g fill-rule="evenodd"><path d="M 3165,3647 L 3164,3658 L 3160,3669 L 3155,3679 L 3147,3687 L 3138,3694 L 3127,3699 L 3116,3701 L 3104,3701 L 3093,3699 L 3083,3694 L 3073,3687 L 3066,3679 L 3060,3669 L 3056,3658 L 3055,3647 L 3056,3635 L 3060,3624 L 3066,3614 L 3073,3606 L 3083,3599 L 3093,3594 L 3104,3592 L 3116,3592 L 3127,3594 L 3138,3599 L 3147,3606 L 3155,3614 L 3160,3624 L 3164,3635 L 3165,3647 z " style="fill-opacity:1.000000;fill:rgb(168,153,15);stroke:rgb(0,0,0);stroke-width:2"/></g>
<g fill-rule="evenodd"><path d="M 3165,3447 L 3164,3458 L 3160,3469 L 3155,3479 L 3147,3488 L 3138,3494 L 3127,3499 L 3116,3501 L 3104,3501 L 3093,3499 L 3083,3494 L 3073,3488 L 3066,3479 L 3060,3469 L 3056,3458 L 3055,3447 L 3056,3435 L 3060,3424 L 3066,3414 L 3073,3406 L 3083,3399 L 3093,3394 L 3104,3392 L 3116,3392 L 3127,3394 L 3138,3399 L 3147,3406 L 3155,3414 L 3160,3424 L 3164,3435 L 3165,3447 z " style="fill-opacity:1.000000;fill:rgb(149,177,235);stroke:rgb(0,0,0);stroke-width:2"/></g>
<g fill-rule="evenodd"><path d="M 3165,3247 L 3164,3258 L 3160,3269 L 3155,3279 L 3147,3288 L 3138,3294 L 3127,3299 L 3116,3301 L 3104,3301 L 3093,3299 L 3083,3294 L 3073,3288 L 3066,3279 L 3060,3269 L 3056,3258 L 3055,3247 L 3056,3235 L 3060,3224 L 3066,3214 L 3073,3206 L 3083,3199 L 3093,3194 L 3104,3192 L 3116,3192 L 3127,3194 L 3138,3199 L 3147,3206 L 3155,3214 L 3160,3224 L 3164,3235 L 3165,3247 z " style="fill-opacity:1.000000;fill:rgb(241,179,5);stroke:rgb(0,0,0);stroke-width:2"/></g>
<g fill-rule="evenodd"><path d="M 3165,3047 L 3164,3058 L 3160,3069 L 3155,3079 L 3147,3088 L 3138,3094 L 3127,3099 L 3116,3101 L 3104,3101 L 3093,3099 L 3083,3094 L 3073,3088 L 3066,3079 L 3060,3069 L 3056,3058 L 3055,3047 L 3056,3035 L 3060,3024 L 3066,3014 L 3073,3006 L 3083,2999 L 3093,2994 L 3104,2992 L 3116,2992 L 3127,2994 L 3138,2999 L 3147,3006 L 3155,3014 L 3160,3024 L 3164,3035 L 3165,3047 z " style="fill-opacity:1.000000;fill:rgb(239,247,0);stroke:rgb(0,0,0);stroke-width:2"/></g>
<g fill-rule="evenodd"><path d="M 3165,2847 L 3164,2858 L 3160,2869 L 3155,2879 L 3147,2888 L 3138,2894 L 3127,2899 L 3116,2901 L 3104,2901 L 3093,2899 L 3083,2894 L 3073,2888 L 3066,2879 L 3060,2869 L 3056,2858 L 3055,2847 L 3056,2835 L 3060,2824 L 3066,2814 L 3073,2806 L 3083,2799 L 3093,2794 L 3104,2792 L 3116,2792 L 3127,2794 L 3138,2799 L 3147,2806 L 3155,2814 L 3160,2824 L 3164,2835 L 3165,2847 z " style="fill-opacity:1.000000;fill:rgb(233,161,58);stroke:rgb(0,0,0);stroke-width:2"/></g>
<g fill-rule="evenodd"><path d="M 3165,2447 L 3164,2458 L 3160,2469 L 3155,2479 L 3147,2488 L 3138,2494 L 3127,2499 L 3116,2501 L 3104,2501 L 3093,2499 L 3083,2494 L 3073,2488 L 3066,2479 L 3060,2469 L 3056,2458 L 3055,2447 L 3056,2435 L 3060,2424 L 3066,2414 L 3073,2406 L 3083,2399 L 3093,2394 L 3104,2392 L 3116,2392 L 3127,2394 L 3138,2399 L 3147,2406 L 3155,2414 L 3160,2424 L 3164,2435 L 3165,2447 z " style="fill-opacity:1.000000;fill:rgb(229,202,11);stroke:rgb(0,0,0);stroke-width:2"/></g>
<g fill-rule="evenodd"><path d="M 1869,3326 L 1870,3325 L 1882,3320 L 1894,3317 L 1907,3317 L 1919,3320 L 1930,3325 L 1932,3326 L 2240,3326 L 2255,3327 L 2269,3332 L 2282,3339 L 2293,3349 L 2302,3361 L 2308,3375 L 2311,3389 L 2311,3404 L 2308,3419 L 2302,3432 L 2293,3444 L 2282,3454 L 2269,3461 L 2255,3466 L 2240,3468 L 1860,3468 L 1846,3466 L 1831,3461 L 1819,3454 L 1808,3444 L 1799,3432 L 1793,3419 L 1790,3404 L 1790,3389 L 1793,3375 L 1799,3361 L 1808,3349 L 1819,3339 L 1831,3332 L 1846,3327 L 1860,3326 L 1869,3326 z " style="fill-opacity:1.000000;fill:rgb(203,208,72);stroke:rgb(0,0,0);stroke-width:2"/></g>
<g fill-rule="evenodd"><path d="M 1380,294 L 1378,291 L 1372,277 L 1370,262 L 1370,247 L 1374,233 L 1380,219 L 1380,197 L 1403,197 L 1414,191 L 1428,187 L 1443,186 L 1457,188 L 1471,193 L 1477,197 L 1500,197 L 1500,214 L 1844,481 L 1855,492 L 1864,506 L 1869,521 L 1871,537 L 1871,1277 L 1869,1295 L 1862,1312 L 1850,1327 L 1840,1337 L 1826,1348 L 1809,1355 L 1790,1358 L 1540,1358 L 1526,1356 L 1511,1352 L 1499,1344 L 1488,1334 L 1479,1322 L 1473,1309 L 1470,1294 L 1470,1280 L 1473,1265 L 1479,1252 L 1488,1240 L 1499,1230 L 1511,1222 L 1526,1218 L 1540,1216 L 1729,1216 L 1729,572 L 1402,317 L 1380,317 L 1380,294 z " style="fill-opacity:1.000000;fill:rgb(71,100,189);stroke:rgb(0,0,0);stroke-width:2"/></g>
<g fill-rule="evenodd"><path d="M 2026,4010 L 2240,3796 L 2255,3785 L 2272,3778 L 2290,3776 L 2510,3776 L 2525,3777 L 2539,3782 L 2552,3789 L 2563,3799 L 2572,3811 L 2578,3825 L 2581,3839 L 2581,3854 L 2578,3868 L 2572,3882 L 2563,3894 L 2552,3904 L 2539,3911 L 2525,3916 L 2510,3917 L 2320,3917 L 2134,4103 L 2133,4112 L 2129,4127 L 2121,4141 L 2110,4152 L 2098,4161 L 2083,4168 L 2068,4171 L 2052,4171 L 2037,4168 L 2023,4161 L 2010,4152 L 2000,4141 L 1992,4127 L 1987,4112 L 1985,4097 L 1985,4077 L 1987,4061 L 1992,4046 L 2000,4033 L 2010,4021 L 2023,4012 L 2026,4010 z " style="fill-opacity:1.000000;fill:rgb(31,35,30);stroke:rgb(0,0,0);stroke-width:2"/></g>
</svg>
