<?xml version="1.0" standalone="no"?>
<!DOCTYPE svg PUBLIC "-//W3C//DTD SVG 1.1//EN"
"http://www.w3.org/Graphics/SVG/1.1/DTD/svg11.dtd">
<svg width="6609" height="4641" viewBox="0 0 6609 4641" version="1.1"
xmlns="http://www.w3.org/2000/svg"
xmlns:xlink="http://www.w3.org/1999/xlink">
<g fill-rule="evenodd"><path d="M 1820,2566 L 2508,2566 L 2508,2566 L 2523,2568 L 2525,2568 L 2539,2573 L 2540,2573 L 2553,2581 L 2555,2582 L 2566,2591 L 2567,2593 L 2575,2605 L 2576,2606 L 2582,2620 L 2583,2621 L 2586,2636 L 2586,2637 L 2586,2652 L 2586,2654 L 2583,2668 L 2582,2670 L 2576,2683 L 2575,2685 L 2567,2697 L 2566,2698 L 2555,2708 L 2553,2709 L 2540,2716 L 2539,2717 L 2525,2722 L 2523,2722 L 2508,2723 L 2508,2723 L 1788,2723 L 1787,2723 L 1768,2721 L 1766,2720 L 1749,2713 L 1748,2712 L 1733,2701 L 1732,2700 L 1482,2450 L 1481,2450 L 1470,2435 L 1469,2433 L 1462,2416 L 1462,2414 L 1459,2396 L 1459,2395 L 1459,1485 L 1459,1484 L 1461,1469 L 1461,1468 L 1466,1454 L 1466,1452 L 1474,1439 L 1475,1438 L 1485,1427 L 1486,1426 L 1498,1417 L 1499,1416 L 1513,1410 L 1514,1410 L 1529,1407 L 1530,1407 L 1545,1407 L 1547,1407 L 1561,1410 L 1563,1410 L 1576,1416 L 1578,1417 L 1590,1426 L 1591,1427 L 1601,1438 L 1602,1439 L 1609,1452 L 1610,1454 L 1615,1468 L 1615,1469 L 1616,1484 L 1617,1485 L 1617,2362 L 1820,2566 z " style="fill-opacity:1.000000;fill:rgb(103,198,105);stroke:rgb(0,0,0);stroke-width:2"/></g>
<g fill-rule="evenodd"><path d="M 1540,2766 L 2508,2766 L 2508,2766 L 2523,2768 L 2525,2768 L 2539,2773 L 2540,2773 L 2553,2781 L 2555,2782 L 2566,2791 L 2567,2793 L 2575,2805 L 2576,2806 L 2582,2820 L 2583,2821 L 2586,2836 L 2586,2837 L 2586,2852 L 2586,2854 L 2583,2868 L 2582,2870 L 2576,2883 L 2575,2885 L 2567,2897 L 2566,2898 L 2555,2908 L 2553,2909 L 2540,2916 L 2539,2917 L 2525,2922 L 2523,2922 L 2508,2923 L 2508,2923 L 1508,2923 L 1507,2923 L 1488,2921 L 1486,2920 L 1469,2913 L 1468,2912 L 1453,2901 L 1452,2900 L 1282,2730 L 1281,2730 L 1270,2715 L 1269,2713 L 1262,2696 L 1262,2694 L 1259,2676 L 1259,2675 L 1259,1385 L 1259,1384 L 1261,1369 L 1261,1368 L 1266,1354 L 1266,1352 L 1274,1339 L 1275,1338 L 1285,1327 L 1286,1326 L 1298,1317 L 1299,1316 L 1313,1310 L 1314,1310 L 1329,1307 L 1330,1307 L 1345,1307 L 1347,1307 L 1361,1310 L 1363,1310 L 1376,1316 L 1378,1317 L 1390,1326 L 1391,1327 L 1401,1338 L 1402,1339 L 1409,1352 L 1410,1354 L 1415,1368 L 1415,1369 L 1417,1384 L 1417,1385 L 1417,2642 L 1540,2766 z " style="fill-opacity:1.000000;fill:rgb(115,81,255);stroke:rgb(0,0,0);stroke-width:2"/></g>
<g fill-rule="evenodd"><path d="M 711,3776 L 1885,3776 L 2072,3589 L 2073,3588 L 2087,3577 L 2089,3576 L 2106,3569 L 2108,3568 L 2127,3566 L 2128,3566 L 2508,3566 L 2508,3566 L 2523,3567 L 2525,3568 L 2539,3572 L 2540,3573 L 2553,3580 L 2555,3581 L 2566,3591 L 2567,3593 L 2575,3605 L 2576,3606 L 2582,3620 L 2583,3621 L 2586,3636 L 2586,3637 L 2586,3652 L 2586,3654 L 2583,3668 L 2582,3670 L 2576,3683 L 2575,3685 L 2567,3697 L 2566,3698 L 2555,3708 L 2553,3709 L 2540,3716 L 2539,3717 L 2525,3721 L 2523,3722 L 2508,3723 L 2508,3723 L 2160,3723 L 1973,3910 L 1973,3911 L 1958,3922 L 1956,3923 L 1939,3930 L 1937,3931 L 1919,3933 L 1918,3933 L 678,3933 L 677,3933 L 659,3931 L 657,3930 L 639,3923 L 638,3922 L 623,3911 L 622,3910 L 382,3670 L 382,3670 L 370,3655 L 369,3653 L 362,3636 L 362,3634 L 359,3616 L 359,3615 L 359,1095 L 359,1094 L 362,1076 L 362,1074 L 369,1057 L 370,1055 L 382,1040 L 382,1039 L 492,929 L 493,929 L 508,917 L 509,916 L 527,909 L 529,909 L 547,906 L 548,906 L 1338,906 L 1339,906 L 1353,908 L 1355,908 L 1369,913 L 1371,913 L 1383,921 L 1385,922 L 1396,932 L 1397,933 L 1406,945 L 1406,946 L 1412,960 L 1413,961 L 1416,976 L 1416,978 L 1416,992 L 1416,994 L 1413,1009 L 1412,1010 L 1406,1024 L 1406,1025 L 1397,1037 L 1396,1038 L 1385,1048 L 1383,1049 L 1371,1057 L 1369,1057 L 1355,1062 L 1353,1062 L 1339,1064 L 1338,1064 L 581,1064 L 517,1128 L 517,3582 L 711,3776 z " style="fill-opacity:1.000000;fill:rgb(74,236,41);stroke:rgb(0,0,0);stroke-width:2"/></g>
<g fill-rule="evenodd"><path d="M 977,3273 L 977,3375 L 977,3375 L 975,3390 L 975,3392 L 970,3406 L 969,3407 L 962,3420 L 961,3422 L 951,3433 L 950,3434 L 938,3442 L 937,3443 L 923,3449 L 921,3450 L 907,3453 L 905,3453 L 890,3453 L 889,3453 L 874,3450 L 873,3449 L 859,3443 L 858,3442 L 846,3434 L 845,3433 L 835,3422 L 834,3420 L 826,3407 L 826,3406 L 821,3392 L 821,3390 L 819,3375 L 819,3375 L 819,3235 L 819,3234 L 822,3215 L 822,3213 L 829,3196 L 830,3194 L 842,3180 L 842,3179 L 882,3139 L 883,3138 L 898,3127 L 899,3126 L 917,3119 L 919,3118 L 937,3116 L 938,3116 L 2238,3116 L 2239,3116 L 2253,3118 L 2255,3118 L 2269,3122 L 2270,3123 L 2283,3131 L 2285,3132 L 2296,3141 L 2297,3143 L 2305,3155 L 2306,3156 L 2312,3170 L 2313,3171 L 2316,3186 L 2316,3187 L 2316,3202 L 2316,3204 L 2313,3218 L 2312,3220 L 2306,3233 L 2305,3235 L 2297,3247 L 2296,3248 L 2285,3258 L 2283,3259 L 2270,3266 L 2269,3267 L 2255,3271 L 2253,3272 L 2239,3273 L 2238,3273 L 977,3273 z " style="fill-opacity:1.000000;fill:rgb(205,186,171);stroke:rgb(0,0,0);stroke-width:2"/></g>
<g fill-rule="evenodd"><path d="M 3773,2566 L 3820,2519 L 3821,2518 L 3836,2507 L 3837,2506 L 3855,2499 L 3857,2499 L 3875,2496 L 3876,2496 L 4158,2496 L 4327,2327 L 4327,1762 L 4299,1734 L 4077,1734 L 4077,1734 L 4062,1732 L 4060,1732 L 4046,1727 L 4045,1726 L 4032,1719 L 4031,1718 L 4020,1708 L 4018,1707 L 4010,1695 L 4009,1694 L 4003,1680 L 4002,1678 L 3999,1664 L 3999,1662 L 3999,1647 L 3999,1646 L 4002,1631 L 4003,1630 L 4009,1616 L 4010,1615 L 4018,1603 L 4020,1602 L 4031,1592 L 4032,1591 L 4045,1583 L 4046,1583 L 4060,1578 L 4062,1578 L 4077,1576 L 4077,1576 L 4332,1576 L 4333,1576 L 4351,1579 L 4353,1579 L 4370,1586 L 4372,1587 L 4386,1599 L 4387,1599 L 4462,1674 L 4463,1675 L 4474,1689 L 4475,1691 L 4482,1708 L 4482,1710 L 4485,1729 L 4485,1730 L 4485,2359 L 4485,2360 L 4482,2379 L 4482,2381 L 4475,2398 L 4474,2400 L 4463,2414 L 4462,2415 L 4246,2630 L 4246,2631 L 4231,2642 L 4229,2643 L 4212,2650 L 4210,2651 L 4192,2653 L 4191,2653 L 3908,2653 L 3862,2700 L 3861,2701 L 3846,2712 L 3844,2713 L 3827,2720 L 3825,2721 L 3807,2723 L 3806,2723 L 3108,2723 L 3107,2723 L 3092,2722 L 3090,2722 L 3076,2717 L 3075,2716 L 3062,2709 L 3061,2708 L 3050,2698 L 3049,2697 L 3040,2685 L 3039,2683 L 3033,2670 L 3032,2668 L 3029,2654 L 3029,2652 L 3029,2637 L 3029,2636 L 3032,2621 L 3033,2620 L 3039,2606 L 3040,2605 L 3049,2593 L 3050,2591 L 3061,2582 L 3062,2581 L 3075,2573 L 3076,2573 L 3090,2568 L 3092,2568 L 3107,2566 L 3108,2566 L 3773,2566 z " style="fill-opacity:1.000000;fill:rgb(242,251,227);stroke:rgb(0,0,0);stroke-width:2"/></g>
<g fill-rule="evenodd"><path d="M 3271,4406 L 3639,4039 L 3640,4038 L 3654,4027 L 3656,4026 L 3673,4019 L 3675,4018 L 3693,4016 L 3694,4016 L 4037,4016 L 4038,4016 L 4053,4017 L 4055,4018 L 4069,4022 L 4070,4023 L 4083,4030 L 4084,4031 L 4095,4041 L 4096,4043 L 4105,4054 L 4106,4056 L 4112,4069 L 4113,4071 L 4116,4086 L 4116,4087 L 4116,4102 L 4116,4104 L 4113,4118 L 4112,4120 L 4106,4133 L 4105,4135 L 4096,4147 L 4095,4148 L 4084,4158 L 4083,4159 L 4070,4166 L 4069,4167 L 4055,4171 L 4053,4172 L 4038,4173 L 4037,4173 L 3727,4173 L 3360,4541 L 3359,4541 L 3344,4553 L 3342,4554 L 3325,4561 L 3323,4561 L 3305,4564 L 3304,4564 L 2989,4564 L 2988,4564 L 2970,4561 L 2968,4561 L 2951,4554 L 2949,4553 L 2934,4541 L 2933,4541 L 2776,4383 L 2775,4382 L 2764,4368 L 2763,4366 L 2756,4349 L 2755,4347 L 2753,4329 L 2753,4328 L 2753,1966 L 2753,1965 L 2755,1946 L 2756,1944 L 2763,1927 L 2764,1925 L 2775,1911 L 2776,1910 L 2887,1799 L 2888,1799 L 2902,1787 L 2904,1786 L 2921,1779 L 2923,1779 L 2941,1776 L 2942,1776 L 4077,1776 L 4078,1776 L 4093,1778 L 4095,1778 L 4109,1783 L 4110,1783 L 4123,1791 L 4124,1792 L 4135,1802 L 4136,1803 L 4145,1815 L 4146,1816 L 4152,1830 L 4153,1831 L 4156,1846 L 4156,1847 L 4156,1862 L 4156,1864 L 4153,1878 L 4152,1880 L 4146,1893 L 4145,1895 L 4136,1907 L 4135,1908 L 4124,1918 L 4123,1919 L 4110,1926 L 4109,1927 L 4095,1932 L 4093,1932 L 4078,1934 L 4077,1934 L 2975,1934 L 2910,1998 L 2910,4295 L 3022,4406 L 3271,4406 z " style="fill-opacity:1.000000;fill:rgb(70,124,194);stroke:rgb(0,0,0);stroke-width:2"/></g>
<g fill-rule="evenodd"><path d="M 3970,4355 L 3970,4235 L 3970,4233 L 3970,4231 L 3971,4230 L 3973,4228 L 3974,4227 L 3976,4227 L 3977,4227 L 4097,4227 L 4099,4227 L 4101,4227 L 4102,4228 L 4104,4230 L 4105,4231 L 4105,4233 L 4105,4235 L 4105,4355 L 4105,4356 L 4105,4358 L 4104,4359 L 4102,4361 L 4101,4362 L 4099,4362 L 4097,4362 L 3977,4362 L 3976,4362 L 3974,4362 L 3973,4361 L 3971,4359 L 3970,4358 L 3970,4356 L 3970,4355 z " style="fill-opacity:1.000000;fill:rgb(84,248,27);stroke:rgb(0,0,0);stroke-width:2"/></g>
<g fill-rule="evenodd"><path d="M 4105,3895 L 4104,3908 L 4104,3909 L 4100,3921 L 4099,3923 L 4093,3934 L 4092,3935 L 4083,3944 L 4082,3946 L 4072,3953 L 4071,3954 L 4059,3959 L 4058,3959 L 4045,3962 L 4044,3962 L 4031,3962 L 4030,3962 L 4017,3959 L 4016,3959 L 4004,3954 L 4003,3953 L 3993,3946 L 3991,3944 L 3983,3935 L 3982,3934 L 3976,3923 L 3975,3921 L 3971,3909 L 3971,3908 L 3970,3895 L 3970,3894 L 3971,3881 L 3971,3880 L 3975,3868 L 3976,3866 L 3982,3855 L 3983,3854 L 3991,3845 L 3993,3844 L 4003,3836 L 4004,3835 L 4016,3830 L 4017,3830 L 4030,3827 L 4031,3827 L 4044,3827 L 4045,3827 L 4058,3830 L 4059,3830 L 4071,3835 L 4072,3836 L 4082,3844 L 4083,3845 L 4092,3854 L 4093,3855 L 4099,3866 L 4100,3868 L 4104,3880 L 4104,3881 L 4105,3894 L 4105,3895 z " style="fill-opacity:1.000000;fill:rgb(232,231,141);stroke:rgb(0,0,0);stroke-width:2"/></g>
<g fill-rule="evenodd"><path d="M 3970,3675 L 3970,3555 L 3970,3553 L 3970,3551 L 3971,3550 L 3973,3548 L 3974,3548 L 3976,3547 L 3977,3547 L 4097,3547 L 4099,3547 L 4101,3548 L 4102,3548 L 4104,3550 L 4105,3551 L 4105,3553 L 4105,3555 L 4105,3675 L 4105,3676 L 4105,3678 L 4104,3680 L 4102,3681 L 4101,3682 L 4099,3682 L 4097,3682 L 3977,3682 L 3976,3682 L 3974,3682 L 3973,3681 L 3971,3680 L 3970,3678 L 3970,3676 L 3970,3675 z " style="fill-opacity:1.000000;fill:rgb(118,90,46);stroke:rgb(0,0,0);stroke-width:2"/></g>
<g fill-rule="evenodd"><path d="M 4105,3415 L 4104,3428 L 4104,3430 L 4100,3441 L 4099,3443 L 4093,3454 L 4092,3455 L 4083,3465 L 4082,3466 L 4072,3473 L 4071,3474 L 4059,3479 L 4058,3479 L 4045,3482 L 4044,3482 L 4031,3482 L 4030,3482 L 4017,3479 L 4016,3479 L 4004,3474 L 4003,3473 L 3993,3466 L 3991,3465 L 3983,3455 L 3982,3454 L 3976,3443 L 3975,3441 L 3971,3430 L 3971,3428 L 3970,3415 L 3970,3414 L 3971,3401 L 3971,3400 L 3975,3388 L 3976,3386 L 3982,3375 L 3983,3374 L 3991,3365 L 3993,3364 L 4003,3356 L 4004,3356 L 4016,3350 L 4017,3350 L 4030,3347 L 4031,3347 L 4044,3347 L 4045,3347 L 4058,3350 L 4059,3350 L 4071,3356 L 4072,3356 L 4082,3364 L 4083,3365 L 4092,3374 L 4093,3375 L 4099,3386 L 4100,3388 L 4104,3400 L 4104,3401 L 4105,3414 L 4105,3415 z " style="fill-opacity:1.000000;fill:rgb(99,51,159);stroke:rgb(0,0,0);stroke-width:2"/></g>
<g fill-rule="evenodd"><path d="M 4105,3216 L 4104,3228 L 4104,3230 L 4100,3242 L 4099,3243 L 4093,3254 L 4092,3255 L 4083,3265 L 4082,3266 L 4072,3273 L 4071,3274 L 4059,3279 L 4058,3279 L 4045,3282 L 4044,3282 L 4031,3282 L 4030,3282 L 4017,3279 L 4016,3279 L 4004,3274 L 4003,3273 L 3993,3266 L 3991,3265 L 3983,3255 L 3982,3254 L 3976,3243 L 3975,3242 L 3971,3230 L 3971,3228 L 3970,3216 L 3970,3214 L 3971,3201 L 3971,3200 L 3975,3188 L 3976,3186 L 3982,3175 L 3983,3174 L 3991,3165 L 3993,3164 L 4003,3156 L 4004,3156 L 4016,3150 L 4017,3150 L 4030,3147 L 4031,3147 L 4044,3147 L 4045,3147 L 4058,3150 L 4059,3150 L 4071,3156 L 4072,3156 L 4082,3164 L 4083,3165 L 4092,3174 L 4093,3175 L 4099,3186 L 4100,3188 L 4104,3200 L 4104,3201 L 4105,3214 L 4105,3216 z " style="fill-opacity:1.000000;fill:rgb(201,154,102);stroke:rgb(0,0,0);stroke-width:2"/></g>
<g fill-rule="evenodd"><path d="M 2905,696 L 2897,779 L 2896,781 L 2871,860 L 2870,862 L 2828,934 L 2827,935 L 2771,998 L 2770,999 L 2702,1048 L 2701,1049 L 2624,1083 L 2623,1083 L 2541,1100 L 2539,1101 L 2456,1101 L 2454,1100 L 2372,1083 L 2371,1083 L 2294,1049 L 2293,1048 L 2225,999 L 2224,998 L 2168,935 L 2167,934 L 2125,862 L 2125,860 L 2099,781 L 2099,779 L 2090,696 L 2090,694 L 2099,611 L 2099,609 L 2125,530 L 2125,528 L 2167,456 L 2168,455 L 2224,393 L 2225,391 L 2293,342 L 2294,341 L 2371,307 L 2372,307 L 2454,290 L 2456,289 L 2539,289 L 2541,290 L 2623,307 L 2624,307 L 2701,341 L 2702,342 L 2770,391 L 2771,393 L 2827,455 L 2828,456 L 2870,528 L 2871,530 L 2896,609 L 2897,611 L 2905,694 L 2905,696 z " style="fill-opacity:1.000000;fill:rgb(50,13,183);stroke:rgb(0,0,0);stroke-width:2"/></g>
<g fill-rule="evenodd"><path d="M 1126,4335 L 1124,4348 L 1124,4349 L 1120,4361 L 1119,4363 L 1113,4374 L 1112,4375 L 1104,4384 L 1103,4385 L 1092,4393 L 1091,4394 L 1080,4399 L 1078,4399 L 1066,4402 L 1064,4402 L 1052,4402 L 1050,4402 L 1038,4399 L 1036,4399 L 1025,4394 L 1023,4393 L 1013,4385 L 1012,4384 L 1003,4375 L 1003,4374 L 996,4363 L 996,4361 L 992,4349 L 991,4348 L 990,4335 L 990,4334 L 991,4321 L 992,4320 L 996,4308 L 996,4306 L 1003,4295 L 1003,4294 L 1012,4285 L 1013,4284 L 1023,4276 L 1025,4275 L 1036,4270 L 1038,4270 L 1050,4267 L 1052,4267 L 1064,4267 L 1066,4267 L 1078,4270 L 1080,4270 L 1091,4275 L 1092,4276 L 1103,4284 L 1104,4285 L 1112,4294 L 1113,4295 L 1119,4306 L 1120,4308 L 1124,4320 L 1124,4321 L 1126,4334 L 1126,4335 z " style="fill-opacity:1.000000;fill:rgb(49,88,163);stroke:rgb(0,0,0);stroke-width:2"/></g>
<g fill-rule="evenodd"><path d="M 2126,4335 L 2124,4348 L 2124,4349 L 2120,4361 L 2119,4363 L 2113,4374 L 2112,4375 L 2104,4384 L 2102,4385 L 2092,4393 L 2091,4394 L 2079,4399 L 2078,4399 L 2066,4402 L 2064,4402 L 2051,4402 L 2050,4402 L 2038,4399 L 2036,4399 L 2025,4394 L 2023,4393 L 2013,4385 L 2012,4384 L 2003,4375 L 2002,4374 L 1996,4363 L 1995,4361 L 1992,4349 L 1991,4348 L 1990,4335 L 1990,4334 L 1991,4321 L 1992,4320 L 1995,4308 L 1996,4306 L 2002,4295 L 2003,4294 L 2012,4285 L 2013,4284 L 2023,4276 L 2025,4275 L 2036,4270 L 2038,4270 L 2050,4267 L 2051,4267 L 2064,4267 L 2066,4267 L 2078,4270 L 2079,4270 L 2091,4275 L 2092,4276 L 2102,4284 L 2104,4285 L 2112,4294 L 2113,4295 L 2119,4306 L 2120,4308 L 2124,4320 L 2124,4321 L 2126,4334 L 2126,4335 z " style="fill-opacity:1.000000;fill:rgb(90,37,93);stroke:rgb(0,0,0);stroke-width:2"/></g>
<g fill-rule="evenodd"><path d="M 6365,1556 L 6356,1639 L 6356,1640 L 6330,1720 L 6329,1722 L 6288,1794 L 6287,1795 L 6231,1857 L 6229,1858 L 6162,1908 L 6160,1908 L 6084,1942 L 6082,1943 L 6001,1960 L 5999,1961 L 5915,1961 L 5914,1960 L 5832,1943 L 5830,1942 L 5754,1908 L 5753,1908 L 5685,1858 L 5684,1857 L 5628,1795 L 5627,1794 L 5585,1722 L 5584,1720 L 5558,1640 L 5558,1639 L 5549,1556 L 5549,1554 L 5558,1471 L 5558,1469 L 5584,1390 L 5585,1388 L 5627,1316 L 5628,1315 L 5684,1252 L 5685,1251 L 5753,1202 L 5754,1201 L 5830,1167 L 5832,1167 L 5914,1149 L 5915,1149 L 5999,1149 L 6001,1149 L 6082,1167 L 6084,1167 L 6160,1201 L 6162,1202 L 6229,1251 L 6231,1252 L 6287,1315 L 6288,1316 L 6329,1388 L 6330,1390 L 6356,1469 L 6356,1471 L 6365,1554 L 6365,1556 z " style="fill-opacity:1.000000;fill:rgb(5,23,88);stroke:rgb(0,0,0);stroke-width:2"/></g>
<g fill-rule="evenodd"><path d="M 6365,3915 L 6356,3999 L 6356,4000 L 6330,4080 L 6329,4081 L 6288,4154 L 6287,4155 L 6231,4217 L 6229,4218 L 6162,4267 L 6160,4268 L 6084,4302 L 6082,4303 L 6001,4320 L 5999,4320 L 5915,4320 L 5914,4320 L 5832,4303 L 5830,4302 L 5754,4268 L 5753,4267 L 5685,4218 L 5684,4217 L 5628,4155 L 5627,4154 L 5585,4081 L 5584,4080 L 5558,4000 L 5558,3999 L 5549,3915 L 5549,3914 L 5558,3831 L 5558,3829 L 5584,3749 L 5585,3748 L 5627,3676 L 5628,3674 L 5684,3612 L 5685,3611 L 5753,3562 L 5754,3561 L 5830,3527 L 5832,3527 L 5914,3509 L 5915,3509 L 5999,3509 L 6001,3509 L 6082,3527 L 6084,3527 L 6160,3561 L 6162,3562 L 6229,3611 L 6231,3612 L 6287,3674 L 6288,3676 L 6329,3748 L 6330,3749 L 6356,3829 L 6356,3831 L 6365,3914 L 6365,3915 z " style="fill-opacity:1.000000;fill:rgb(233,94,212);stroke:rgb(0,0,0);stroke-width:2"/></g>
<g fill-rule="evenodd"><path d="M 989,1603 L 986,1633 L 986,1635 L 977,1663 L 976,1665 L 961,1691 L 960,1692 L 940,1715 L 939,1716 L 914,1733 L 913,1734 L 885,1746 L 884,1747 L 855,1753 L 853,1753 L 823,1753 L 821,1753 L 792,1747 L 790,1746 L 763,1734 L 761,1733 L 737,1716 L 736,1715 L 716,1692 L 715,1691 L 700,1665 L 699,1663 L 690,1635 L 690,1633 L 686,1603 L 686,1602 L 690,1572 L 690,1570 L 699,1542 L 700,1540 L 715,1514 L 716,1513 L 736,1490 L 737,1489 L 761,1472 L 763,1471 L 790,1459 L 792,1458 L 821,1452 L 823,1452 L 853,1452 L 855,1452 L 884,1458 L 885,1459 L 913,1471 L 914,1472 L 939,1489 L 940,1490 L 960,1513 L 961,1514 L 976,1540 L 977,1542 L 986,1570 L 986,1572 L 989,1602 L 989,1603 z " style="fill-opacity:1.000000;fill:rgb(171,178,205);stroke:rgb(0,0,0);stroke-width:2"/></g>
<g fill-rule="evenodd"><path d="M 989,669 L 986,699 L 986,700 L 977,729 L 976,730 L 961,756 L 960,758 L 940,780 L 939,781 L 914,799 L 913,800 L 885,812 L 884,812 L 855,819 L 853,819 L 823,819 L 821,819 L 792,812 L 790,812 L 763,800 L 761,799 L 737,781 L 736,780 L 716,758 L 715,756 L 700,730 L 699,729 L 690,700 L 690,699 L 686,669 L 686,667 L 690,637 L 690,636 L 699,607 L 700,606 L 715,580 L 716,578 L 736,556 L 737,555 L 761,537 L 763,536 L 790,524 L 792,524 L 821,517 L 823,517 L 853,517 L 855,517 L 884,524 L 885,524 L 913,536 L 914,537 L 939,555 L 940,556 L 960,578 L 961,580 L 976,606 L 977,607 L 986,636 L 986,637 L 989,667 L 989,669 z " style="fill-opacity:1.000000;fill:rgb(198,155,180);stroke:rgb(0,0,0);stroke-width:2"/></g>
<g fill-rule="evenodd"><path d="M 1271,844 L 1271,726 L 1271,724 L 1272,723 L 1273,721 L 1274,720 L 1275,719 L 1277,718 L 1279,718 L 1397,718 L 1399,718 L 1400,719 L 1402,720 L 1403,721 L 1404,723 L 1405,724 L 1405,726 L 1405,844 L 1405,846 L 1404,848 L 1403,849 L 1402,850 L 1400,851 L 1399,852 L 1397,852 L 1279,852 L 1277,852 L 1275,851 L 1274,850 L 1273,849 L 1272,848 L 1271,846 L 1271,844 z " style="fill-opacity:1.000000;fill:rgb(84,17,14);stroke:rgb(0,0,0);stroke-width:2"/></g>
<g fill-rule="evenodd"><path d="M 1605,886 L 1603,898 L 1603,900 L 1599,911 L 1599,913 L 1592,924 L 1591,925 L 1583,934 L 1582,935 L 1572,943 L 1571,943 L 1559,948 L 1558,949 L 1546,951 L 1544,952 L 1532,952 L 1530,951 L 1518,949 L 1516,948 L 1505,943 L 1504,943 L 1494,935 L 1492,934 L 1484,925 L 1483,924 L 1477,913 L 1476,911 L 1473,900 L 1472,898 L 1471,886 L 1471,884 L 1472,872 L 1473,870 L 1476,859 L 1477,857 L 1483,846 L 1484,845 L 1492,836 L 1494,835 L 1504,827 L 1505,827 L 1516,822 L 1518,821 L 1530,819 L 1532,818 L 1544,818 L 1546,819 L 1558,821 L 1559,822 L 1571,827 L 1572,827 L 1582,835 L 1583,836 L 1591,845 L 1592,846 L 1599,857 L 1599,859 L 1603,870 L 1603,872 L 1605,884 L 1605,886 z " style="fill-opacity:1.000000;fill:rgb(130,116,65);stroke:rgb(0,0,0);stroke-width:2"/></g>
<g fill-rule="evenodd"><path d="M 1605,1086 L 1603,1098 L 1603,1100 L 1599,1111 L 1599,1113 L 1592,1124 L 1591,1125 L 1583,1134 L 1582,1135 L 1572,1143 L 1571,1143 L 1559,1148 L 1558,1149 L 1546,1151 L 1544,1152 L 1532,1152 L 1530,1151 L 1518,1149 L 1516,1148 L 1505,1143 L 1504,1143 L 1494,1135 L 1492,1134 L 1484,1125 L 1483,1124 L 1477,1113 L 1476,1111 L 1473,1100 L 1472,1098 L 1471,1086 L 1471,1084 L 1472,1072 L 1473,1070 L 1476,1059 L 1477,1057 L 1483,1046 L 1484,1045 L 1492,1036 L 1494,1035 L 1504,1027 L 1505,1027 L 1516,1022 L 1518,1021 L 1530,1019 L 1532,1018 L 1544,1018 L 1546,1019 L 1558,1021 L 1559,1022 L 1571,1027 L 1572,1027 L 1582,1035 L 1583,1036 L 1591,1045 L 1592,1046 L 1599,1057 L 1599,1059 L 1603,1070 L 1603,1072 L 1605,1084 L 1605,1086 z " style="fill-opacity:1.000000;fill:rgb(33,61,220);stroke:rgb(0,0,0);stroke-width:2"/></g>
<g fill-rule="evenodd"><path d="M 1405,1186 L 1403,1198 L 1403,1200 L 1399,1211 L 1399,1213 L 1392,1224 L 1391,1225 L 1383,1234 L 1382,1235 L 1372,1243 L 1371,1243 L 1359,1248 L 1358,1249 L 1346,1251 L 1344,1252 L 1332,1252 L 1330,1251 L 1318,1249 L 1316,1248 L 1305,1243 L 1304,1243 L 1294,1235 L 1292,1234 L 1284,1225 L 1283,1224 L 1277,1213 L 1276,1211 L 1273,1200 L 1272,1198 L 1271,1186 L 1271,1184 L 1272,1172 L 1273,1170 L 1276,1158 L 1277,1157 L 1283,1146 L 1284,1145 L 1292,1136 L 1294,1135 L 1304,1127 L 1305,1127 L 1316,1122 L 1318,1121 L 1330,1118 L 1332,1118 L 1344,1118 L 1346,1118 L 1358,1121 L 1359,1122 L 1371,1127 L 1372,1127 L 1382,1135 L 1383,1136 L 1391,1145 L 1392,1146 L 1399,1157 L 1399,1158 L 1403,1170 L 1403,1172 L 1405,1184 L 1405,1186 z " style="fill-opacity:1.000000;fill:rgb(135,112,233);stroke:rgb(0,0,0);stroke-width:2"/></g>
<g fill-rule="evenodd"><path d="M 5265,3235 L 5264,3248 L 5263,3250 L 5260,3262 L 5259,3263 L 5253,3274 L 5252,3275 L 5243,3285 L 5242,3286 L 5232,3293 L 5230,3294 L 5219,3299 L 5217,3299 L 5205,3302 L 5204,3302 L 5191,3302 L 5189,3302 L 5177,3299 L 5176,3299 L 5164,3294 L 5163,3293 L 5153,3286 L 5151,3285 L 5143,3275 L 5142,3274 L 5136,3263 L 5135,3262 L 5131,3250 L 5131,3248 L 5129,3235 L 5129,3234 L 5131,3221 L 5131,3220 L 5135,3208 L 5136,3206 L 5142,3195 L 5143,3194 L 5151,3185 L 5153,3184 L 5163,3176 L 5164,3176 L 5176,3170 L 5177,3170 L 5189,3167 L 5191,3167 L 5204,3167 L 5205,3167 L 5217,3170 L 5219,3170 L 5230,3176 L 5232,3176 L 5242,3184 L 5243,3185 L 5252,3194 L 5253,3195 L 5259,3206 L 5260,3208 L 5263,3220 L 5264,3221 L 5265,3234 L 5265,3235 z " style="fill-opacity:1.000000;fill:rgb(62,161,65);stroke:rgb(0,0,0);stroke-width:2"/></g>
<g fill-rule="evenodd"><path d="M 4785,2276 L 4784,2288 L 4784,2290 L 4780,2302 L 4779,2303 L 4773,2314 L 4772,2315 L 4763,2325 L 4762,2326 L 4752,2333 L 4751,2334 L 4739,2339 L 4738,2340 L 4725,2342 L 4724,2342 L 4711,2342 L 4709,2342 L 4697,2340 L 4696,2339 L 4684,2334 L 4683,2333 L 4673,2326 L 4671,2325 L 4663,2315 L 4662,2314 L 4656,2303 L 4655,2302 L 4651,2290 L 4651,2288 L 4650,2276 L 4650,2274 L 4651,2262 L 4651,2260 L 4655,2248 L 4656,2246 L 4662,2236 L 4663,2234 L 4671,2225 L 4673,2224 L 4683,2216 L 4684,2216 L 4696,2211 L 4697,2210 L 4709,2207 L 4711,2207 L 4724,2207 L 4725,2207 L 4738,2210 L 4739,2211 L 4751,2216 L 4752,2216 L 4762,2224 L 4763,2225 L 4772,2234 L 4773,2236 L 4779,2246 L 4780,2248 L 4784,2260 L 4784,2262 L 4785,2274 L 4785,2276 z " style="fill-opacity:1.000000;fill:rgb(225,252,103);stroke:rgb(0,0,0);stroke-width:2"/></g>
<g fill-rule="evenodd"><path d="M 1126,4095 L 1124,4108 L 1124,4109 L 1120,4121 L 1119,4123 L 1113,4134 L 1112,4135 L 1104,4144 L 1103,4146 L 1092,4153 L 1091,4154 L 1080,4159 L 1078,4159 L 1066,4162 L 1064,4162 L 1052,4162 L 1050,4162 L 1038,4159 L 1036,4159 L 1025,4154 L 1023,4153 L 1013,4146 L 1012,4144 L 1003,4135 L 1003,4134 L 996,4123 L 996,4121 L 992,4109 L 991,4108 L 990,4095 L 990,4094 L 991,4081 L 992,4080 L 996,4068 L 996,4066 L 1003,4055 L 1003,4054 L 1012,4045 L 1013,4044 L 1023,4036 L 1025,4035 L 1036,4030 L 1038,4030 L 1050,4027 L 1052,4027 L 1064,4027 L 1066,4027 L 1078,4030 L 1080,4030 L 1091,4035 L 1092,4036 L 1103,4044 L 1104,4045 L 1112,4054 L 1113,4055 L 1119,4066 L 1120,4068 L 1124,4080 L 1124,4081 L 1126,4094 L 1126,4095 z " style="fill-opacity:1.000000;fill:rgb(62,1,126);stroke:rgb(0,0,0);stroke-width:2"/></g>
<g fill-rule="evenodd"><path d="M 4010,2115 L 4010,1995 L 4010,1993 L 4010,1991 L 4011,1990 L 4013,1989 L 4014,1988 L 4016,1987 L 4017,1987 L 4137,1987 L 4139,1987 L 4141,1988 L 4142,1989 L 4144,1990 L 4145,1991 L 4145,1993 L 4145,1995 L 4145,2115 L 4145,2117 L 4145,2118 L 4144,2120 L 4142,2121 L 4141,2122 L 4139,2123 L 4137,2123 L 4017,2123 L 4016,2123 L 4014,2122 L 4013,2121 L 4011,2120 L 4010,2118 L 4010,2117 L 4010,2115 z " style="fill-opacity:1.000000;fill:rgb(151,234,220);stroke:rgb(0,0,0);stroke-width:2"/></g>
<g fill-rule="evenodd"><path d="M 4010,2435 L 4010,2315 L 4010,2313 L 4010,2311 L 4011,2310 L 4013,2309 L 4014,2308 L 4016,2307 L 4017,2307 L 4137,2307 L 4139,2307 L 4141,2308 L 4142,2309 L 4144,2310 L 4145,2311 L 4145,2313 L 4145,2315 L 4145,2435 L 4145,2437 L 4145,2438 L 4144,2440 L 4142,2441 L 4141,2442 L 4139,2442 L 4137,2443 L 4017,2443 L 4016,2442 L 4014,2442 L 4013,2441 L 4011,2440 L 4010,2438 L 4010,2437 L 4010,2435 z " style="fill-opacity:1.000000;fill:rgb(107,150,143);stroke:rgb(0,0,0);stroke-width:2"/></g>
<g fill-rule="evenodd"><path d="M 4145,2776 L 4144,2788 L 4144,2790 L 4140,2802 L 4139,2803 L 4133,2814 L 4132,2815 L 4123,2825 L 4122,2826 L 4112,2833 L 4111,2834 L 4099,2839 L 4098,2839 L 4085,2842 L 4084,2842 L 4071,2842 L 4070,2842 L 4057,2839 L 4056,2839 L 4044,2834 L 4043,2833 L 4033,2826 L 4031,2825 L 4023,2815 L 4022,2814 L 4016,2803 L 4015,2802 L 4011,2790 L 4011,2788 L 4010,2776 L 4010,2774 L 4011,2761 L 4011,2760 L 4015,2748 L 4016,2746 L 4022,2736 L 4023,2734 L 4031,2725 L 4033,2724 L 4043,2716 L 4044,2716 L 4056,2710 L 4057,2710 L 4070,2707 L 4071,2707 L 4084,2707 L 4085,2707 L 4098,2710 L 4099,2710 L 4111,2716 L 4112,2716 L 4122,2724 L 4123,2725 L 4132,2734 L 4133,2736 L 4139,2746 L 4140,2748 L 4144,2760 L 4144,2761 L 4145,2774 L 4145,2776 z " style="fill-opacity:1.000000;fill:rgb(56,92,42);stroke:rgb(0,0,0);stroke-width:2"/></g>
<g fill-rule="evenodd"><path d="M 1306,256 L 1304,268 L 1304,270 L 1300,282 L 1299,283 L 1293,294 L 1292,296 L 1284,305 L 1283,306 L 1272,313 L 1271,314 L 1260,319 L 1258,320 L 1246,322 L 1244,323 L 1232,323 L 1230,322 L 1218,320 L 1216,319 L 1205,314 L 1203,313 L 1193,306 L 1192,305 L 1183,296 L 1182,294 L 1176,283 L 1176,282 L 1172,270 L 1171,268 L 1170,256 L 1170,254 L 1171,242 L 1172,240 L 1176,228 L 1176,227 L 1182,216 L 1183,215 L 1192,205 L 1193,204 L 1203,197 L 1205,196 L 1216,191 L 1218,190 L 1230,188 L 1232,188 L 1244,188 L 1246,188 L 1258,190 L 1260,191 L 1271,196 L 1272,197 L 1283,204 L 1284,205 L 1292,215 L 1293,216 L 1299,227 L 1300,228 L 1304,240 L 1304,242 L 1306,254 L 1306,256 z " style="fill-opacity:1.000000;fill:rgb(236,176,59);stroke:rgb(0,0,0);stroke-width:2"/></g>
<g fill-rule="evenodd"><path d="M 1106,256 L 1104,268 L 1104,270 L 1100,282 L 1099,283 L 1093,294 L 1092,296 L 1084,305 L 1083,306 L 1072,313 L 1071,314 L 1060,319 L 1058,320 L 1046,322 L 1044,323 L 1032,323 L 1030,322 L 1018,320 L 1016,319 L 1005,314 L 1003,313 L 993,306 L 992,305 L 983,296 L 983,294 L 976,283 L 976,282 L 972,270 L 971,268 L 970,256 L 970,254 L 971,242 L 972,240 L 976,228 L 976,227 L 983,216 L 983,215 L 992,205 L 993,204 L 1003,197 L 1005,196 L 1016,191 L 1018,190 L 1030,188 L 1032,188 L 1044,188 L 1046,188 L 1058,190 L 1060,191 L 1071,196 L 1072,197 L 1083,204 L 1084,205 L 1092,215 L 1093,216 L 1099,227 L 1100,228 L 1104,240 L 1104,242 L 1106,254 L 1106,256 z " style="fill-opacity:1.000000;fill:rgb(251,50,175);stroke:rgb(0,0,0);stroke-width:2"/></g>
<g fill-rule="evenodd"><path d="M 2445,2500 L 2445,2390 L 2445,2388 L 2446,2386 L 2447,2385 L 2448,2384 L 2449,2383 L 2451,2382 L 2453,2382 L 2563,2382 L 2564,2382 L 2566,2383 L 2568,2384 L 2569,2385 L 2570,2386 L 2570,2388 L 2571,2390 L 2571,2500 L 2570,2502 L 2570,2503 L 2569,2505 L 2568,2506 L 2566,2507 L 2564,2507 L 2563,2508 L 2453,2508 L 2451,2507 L 2449,2507 L 2448,2506 L 2447,2505 L 2446,2503 L 2445,2502 L 2445,2500 z " style="fill-opacity:1.000000;fill:rgb(60,84,236);stroke:rgb(0,0,0);stroke-width:2"/></g>
<g fill-rule="evenodd"><path d="M 2570,3046 L 2569,3057 L 2569,3059 L 2565,3070 L 2565,3071 L 2559,3081 L 2558,3082 L 2550,3091 L 2549,3092 L 2540,3099 L 2538,3100 L 2528,3104 L 2526,3105 L 2515,3107 L 2513,3107 L 2502,3107 L 2500,3107 L 2489,3105 L 2487,3104 L 2477,3100 L 2476,3099 L 2466,3092 L 2465,3091 L 2457,3082 L 2456,3081 L 2451,3071 L 2450,3070 L 2446,3059 L 2446,3057 L 2445,3046 L 2445,3044 L 2446,3032 L 2446,3031 L 2450,3020 L 2451,3018 L 2456,3008 L 2457,3007 L 2465,2999 L 2466,2997 L 2476,2991 L 2477,2990 L 2487,2985 L 2489,2985 L 2500,2982 L 2502,2982 L 2513,2982 L 2515,2982 L 2526,2985 L 2528,2985 L 2538,2990 L 2540,2991 L 2549,2997 L 2550,2999 L 2558,3007 L 2559,3008 L 2565,3018 L 2565,3020 L 2569,3031 L 2569,3032 L 2570,3044 L 2570,3046 z " style="fill-opacity:1.000000;fill:rgb(24,219,92);stroke:rgb(0,0,0);stroke-width:2"/></g>
<g fill-rule="evenodd"><path d="M 2570,3245 L 2569,3257 L 2569,3259 L 2565,3269 L 2565,3271 L 2559,3281 L 2558,3282 L 2550,3291 L 2549,3292 L 2540,3299 L 2538,3299 L 2528,3304 L 2526,3305 L 2515,3307 L 2513,3307 L 2502,3307 L 2500,3307 L 2489,3305 L 2487,3304 L 2477,3299 L 2476,3299 L 2466,3292 L 2465,3291 L 2457,3282 L 2456,3281 L 2451,3271 L 2450,3269 L 2446,3259 L 2446,3257 L 2445,3245 L 2445,3244 L 2446,3232 L 2446,3231 L 2450,3220 L 2451,3218 L 2456,3208 L 2457,3207 L 2465,3199 L 2466,3197 L 2476,3191 L 2477,3190 L 2487,3185 L 2489,3185 L 2500,3182 L 2502,3182 L 2513,3182 L 2515,3182 L 2526,3185 L 2528,3185 L 2538,3190 L 2540,3191 L 2549,3197 L 2550,3199 L 2558,3207 L 2559,3208 L 2565,3218 L 2565,3220 L 2569,3231 L 2569,3232 L 2570,3244 L 2570,3245 z " style="fill-opacity:1.000000;fill:rgb(2,26,254);stroke:rgb(0,0,0);stroke-width:2"/></g>
<g fill-rule="evenodd"><path d="M 2570,3445 L 2569,3457 L 2569,3459 L 2565,3469 L 2565,3471 L 2559,3481 L 2558,3482 L 2550,3491 L 2549,3492 L 2540,3499 L 2538,3499 L 2528,3504 L 2526,3505 L 2515,3507 L 2513,3507 L 2502,3507 L 2500,3507 L 2489,3505 L 2487,3504 L 2477,3499 L 2476,3499 L 2466,3492 L 2465,3491 L 2457,3482 L 2456,3481 L 2451,3471 L 2450,3469 L 2446,3459 L 2446,3457 L 2445,3445 L 2445,3444 L 2446,3432 L 2446,3431 L 2450,3420 L 2451,3418 L 2456,3408 L 2457,3407 L 2465,3399 L 2466,3397 L 2476,3391 L 2477,3390 L 2487,3385 L 2489,3385 L 2500,3382 L 2502,3382 L 2513,3382 L 2515,3382 L 2526,3385 L 2528,3385 L 2538,3390 L 2540,3391 L 2549,3397 L 2550,3399 L 2558,3407 L 2559,3408 L 2565,3418 L 2565,3420 L 2569,3431 L 2569,3432 L 2570,3444 L 2570,3445 z " style="fill-opacity:1.000000;fill:rgb(67,251,250);stroke:rgb(0,0,0);stroke-width:2"/></g>
<g fill-rule="evenodd"><path d="M 2570,4045 L 2569,4057 L 2569,4058 L 2565,4069 L 2565,4071 L 2559,4081 L 2558,4082 L 2550,4091 L 2549,4092 L 2540,4099 L 2538,4099 L 2528,4104 L 2526,4105 L 2515,4107 L 2513,4107 L 2502,4107 L 2500,4107 L 2489,4105 L 2487,4104 L 2477,4099 L 2476,4099 L 2466,4092 L 2465,4091 L 2457,4082 L 2456,4081 L 2451,4071 L 2450,4069 L 2446,4058 L 2446,4057 L 2445,4045 L 2445,4044 L 2446,4032 L 2446,4031 L 2450,4020 L 2451,4018 L 2456,4008 L 2457,4007 L 2465,3998 L 2466,3997 L 2476,3991 L 2477,3990 L 2487,3985 L 2489,3985 L 2500,3982 L 2502,3982 L 2513,3982 L 2515,3982 L 2526,3985 L 2528,3985 L 2538,3990 L 2540,3991 L 2549,3997 L 2550,3998 L 2558,4007 L 2559,4008 L 2565,4018 L 2565,4020 L 2569,4031 L 2569,4032 L 2570,4044 L 2570,4045 z " style="fill-opacity:1.000000;fill:rgb(170,58,251);stroke:rgb(0,0,0);stroke-width:2"/></g>
<g fill-rule="evenodd"><path d="M 2570,4245 L 2569,4257 L 2569,4258 L 2565,4269 L 2565,4271 L 2559,4281 L 2558,4282 L 2550,4291 L 2549,4292 L 2540,4299 L 2538,4299 L 2528,4304 L 2526,4305 L 2515,4307 L 2513,4307 L 2502,4307 L 2500,4307 L 2489,4305 L 2487,4304 L 2477,4299 L 2476,4299 L 2466,4292 L 2465,4291 L 2457,4282 L 2456,4281 L 2451,4271 L 2450,4269 L 2446,4258 L 2446,4257 L 2445,4245 L 2445,4244 L 2446,4232 L 2446,4231 L 2450,4220 L 2451,4218 L 2456,4208 L 2457,4207 L 2465,4198 L 2466,4197 L 2476,4191 L 2477,4190 L 2487,4185 L 2489,4185 L 2500,4182 L 2502,4182 L 2513,4182 L 2515,4182 L 2526,4185 L 2528,4185 L 2538,4190 L 2540,4191 L 2549,4197 L 2550,4198 L 2558,4207 L 2559,4208 L 2565,4218 L 2565,4220 L 2569,4231 L 2569,4232 L 2570,4244 L 2570,4245 z " style="fill-opacity:1.000000;fill:rgb(41,209,230);stroke:rgb(0,0,0);stroke-width:2"/></g>
<g fill-rule="evenodd"><path d="M 3170,4245 L 3169,4257 L 3169,4258 L 3165,4269 L 3165,4271 L 3159,4281 L 3158,4282 L 3150,4291 L 3149,4292 L 3140,4299 L 3138,4299 L 3128,4304 L 3126,4305 L 3115,4307 L 3113,4307 L 3102,4307 L 3100,4307 L 3089,4305 L 3087,4304 L 3077,4299 L 3075,4299 L 3066,4292 L 3065,4291 L 3057,4282 L 3056,4281 L 3051,4271 L 3050,4269 L 3046,4258 L 3046,4257 L 3045,4245 L 3045,4244 L 3046,4232 L 3046,4231 L 3050,4220 L 3051,4218 L 3056,4208 L 3057,4207 L 3065,4198 L 3066,4197 L 3075,4191 L 3077,4190 L 3087,4185 L 3089,4185 L 3100,4182 L 3102,4182 L 3113,4182 L 3115,4182 L 3126,4185 L 3128,4185 L 3138,4190 L 3140,4191 L 3149,4197 L 3150,4198 L 3158,4207 L 3159,4208 L 3165,4218 L 3165,4220 L 3169,4231 L 3169,4232 L 3170,4244 L 3170,4245 z " style="fill-opacity:1.000000;fill:rgb(5,60,124);stroke:rgb(0,0,0);stroke-width:2"/></g>
<g fill-rule="evenodd"><path d="M 3170,4045 L 3169,4057 L 3169,4058 L 3165,4069 L 3165,4071 L 3159,4081 L 3158,4082 L 3150,4091 L 3149,4092 L 3140,4099 L 3138,4099 L 3128,4104 L 3126,4105 L 3115,4107 L 3113,4107 L 3102,4107 L 3100,4107 L 3089,4105 L 3087,4104 L 3077,4099 L 3075,4099 L 3066,4092 L 3065,4091 L 3057,4082 L 3056,4081 L 3051,4071 L 3050,4069 L 3046,4058 L 3046,4057 L 3045,4045 L 3045,4044 L 3046,4032 L 3046,4031 L 3050,4020 L 3051,4018 L 3056,4008 L 3057,4007 L 3065,3998 L 3066,3997 L 3075,3991 L 3077,3990 L 3087,3985 L 3089,3985 L 3100,3982 L 3102,3982 L 3113,3982 L 3115,3982 L 3126,3985 L 3128,3985 L 3138,3990 L 3140,3991 L 3149,3997 L 3150,3998 L 3158,4007 L 3159,4008 L 3165,4018 L 3165,4020 L 3169,4031 L 3169,4032 L 3170,4044 L 3170,4045 z " style="fill-opacity:1.000000;fill:rgb(148,117,216);stroke:rgb(0,0,0);stroke-width:2"/></g>
<g fill-rule="evenodd"><path d="M 3170,3845 L 3169,3857 L 3169,3858 L 3165,3869 L 3165,3871 L 3159,3881 L 3158,3882 L 3150,3891 L 3149,3892 L 3140,3899 L 3138,3899 L 3128,3904 L 3126,3905 L 3115,3907 L 3113,3907 L 3102,3907 L 3100,3907 L 3089,3905 L 3087,3904 L 3077,3899 L 3075,3899 L 3066,3892 L 3065,3891 L 3057,3882 L 3056,3881 L 3051,3871 L 3050,3869 L 3046,3858 L 3046,3857 L 3045,3845 L 3045,3844 L 3046,3832 L 3046,3831 L 3050,3820 L 3051,3818 L 3056,3808 L 3057,3807 L 3065,3798 L 3066,3797 L 3075,3791 L 3077,3790 L 3087,3785 L 3089,3785 L 3100,3782 L 3102,3782 L 3113,3782 L 3115,3782 L 3126,3785 L 3128,3785 L 3138,3790 L 3140,3791 L 3149,3797 L 3150,3798 L 3158,3807 L 3159,3808 L 3165,3818 L 3165,3820 L 3169,3831 L 3169,3832 L 3170,3844 L 3170,3845 z " style="fill-opacity:1.000000;fill:rgb(190,97,137);stroke:rgb(0,0,0);stroke-width:2"/></g>
<g fill-rule="evenodd"><path d="M 3170,3645 L 3169,3657 L 3169,3658 L 3165,3669 L 3165,3671 L 3159,3681 L 3158,3682 L 3150,3691 L 3149,3692 L 3140,3699 L 3138,3699 L 3128,3704 L 3126,3705 L 3115,3707 L 3113,3707 L 3102,3707 L 3100,3707 L 3089,3705 L 3087,3704 L 3077,3699 L 3075,3699 L 3066,3692 L 3065,3691 L 3057,3682 L 3056,3681 L 3051,3671 L 3050,3669 L 3046,3658 L 3046,3657 L 3045,3645 L 3045,3644 L 3046,3632 L 3046,3631 L 3050,3620 L 3051,3618 L 3056,3608 L 3057,3607 L 3065,3598 L 3066,3597 L 3075,3591 L 3077,3590 L 3087,3585 L 3089,3585 L 3100,3582 L 3102,3582 L 3113,3582 L 3115,3582 L 3126,3585 L 3128,3585 L 3138,3590 L 3140,3591 L 3149,3597 L 3150,3598 L 3158,3607 L 3159,3608 L 3165,3618 L 3165,3620 L 3169,3631 L 3169,3632 L 3170,3644 L 3170,3645 z " style="fill-opacity:1.000000;fill:rgb(249,92,187);stroke:rgb(0,0,0);stroke-width:2"/></g>
<g fill-rule="evenodd"><path d="M 3170,3445 L 3169,3457 L 3169,3459 L 3165,3469 L 3165,3471 L 3159,3481 L 3158,3482 L 3150,3491 L 3149,3492 L 3140,3499 L 3138,3499 L 3128,3504 L 3126,3505 L 3115,3507 L 3113,3507 L 3102,3507 L 3100,3507 L 3089,3505 L 3087,3504 L 3077,3499 L 3075,3499 L 3066,3492 L 3065,3491 L 3057,3482 L 3056,3481 L 3051,3471 L 3050,3469 L 3046,3459 L 3046,3457 L 3045,3445 L 3045,3444 L 3046,3432 L 3046,3431 L 3050,3420 L 3051,3418 L 3056,3408 L 3057,3407 L 3065,3399 L 3066,3397 L 3075,3391 L 3077,3390 L 3087,3385 L 3089,3385 L 3100,3382 L 3102,3382 L 3113,3382 L 3115,3382 L 3126,3385 L 3128,3385 L 3138,3390 L 3140,3391 L 3149,3397 L 3150,3399 L 3158,3407 L 3159,3408 L 3165,3418 L 3165,3420 L 3169,3431 L 3169,3432 L 3170,3444 L 3170,3445 z " style="fill-opacity:1.000000;fill:rgb(168,153,15);stroke:rgb(0,0,0);stroke-width:2"/></g>
<g fill-rule="evenodd"><path d="M 3170,3245 L 3169,3257 L 3169,3259 L 3165,3269 L 3165,3271 L 3159,3281 L 3158,3282 L 3150,3291 L 3149,3292 L 3140,3299 L 3138,3299 L 3128,3304 L 3126,3305 L 3115,3307 L 3113,3307 L 3102,3307 L 3100,3307 L 3089,3305 L 3087,3304 L 3077,3299 L 3075,3299 L 3066,3292 L 3065,3291 L 3057,3282 L 3056,3281 L 3051,3271 L 3050,3269 L 3046,3259 L 3046,3257 L 3045,3245 L 3045,3244 L 3046,3232 L 3046,3231 L 3050,3220 L 3051,3218 L 3056,3208 L 3057,3207 L 3065,3199 L 3066,3197 L 3075,3191 L 3077,3190 L 3087,3185 L 3089,3185 L 3100,3182 L 3102,3182 L 3113,3182 L 3115,3182 L 3126,3185 L 3128,3185 L 3138,3190 L 3140,3191 L 3149,3197 L 3150,3199 L 3158,3207 L 3159,3208 L 3165,3218 L 3165,3220 L 3169,3231 L 3169,3232 L 3170,3244 L 3170,3245 z " style="fill-opacity:1.000000;fill:rgb(149,177,235);stroke:rgb(0,0,0);stroke-width:2"/></g>
<g fill-rule="evenodd"><path d="M 3170,3046 L 3169,3057 L 3169,3059 L 3165,3070 L 3165,3071 L 3159,3081 L 3158,3082 L 3150,3091 L 3149,3092 L 3140,3099 L 3138,3100 L 3128,3104 L 3126,3105 L 3115,3107 L 3113,3107 L 3102,3107 L 3100,3107 L 3089,3105 L 3087,3104 L 3077,3100 L 3075,3099 L 3066,3092 L 3065,3091 L 3057,3082 L 3056,3081 L 3051,3071 L 3050,3070 L 3046,3059 L 3046,3057 L 3045,3046 L 3045,3044 L 3046,3032 L 3046,3031 L 3050,3020 L 3051,3018 L 3056,3008 L 3057,3007 L 3065,2999 L 3066,2997 L 3075,2991 L 3077,2990 L 3087,2985 L 3089,2985 L 3100,2982 L 3102,2982 L 3113,2982 L 3115,2982 L 3126,2985 L 3128,2985 L 3138,2990 L 3140,2991 L 3149,2997 L 3150,2999 L 3158,3007 L 3159,3008 L 3165,3018 L 3165,3020 L 3169,3031 L 3169,3032 L 3170,3044 L 3170,3046 z " style="fill-opacity:1.000000;fill:rgb(241,179,5);stroke:rgb(0,0,0);stroke-width:2"/></g>
<g fill-rule="evenodd"><path d="M 3170,2846 L 3169,2857 L 3169,2859 L 3165,2870 L 3165,2871 L 3159,2881 L 3158,2882 L 3150,2891 L 3149,2892 L 3140,2899 L 3138,2900 L 3128,2904 L 3126,2905 L 3115,2907 L 3113,2907 L 3102,2907 L 3100,2907 L 3089,2905 L 3087,2904 L 3077,2900 L 3075,2899 L 3066,2892 L 3065,2891 L 3057,2882 L 3056,2881 L 3051,2871 L 3050,2870 L 3046,2859 L 3046,2857 L 3045,2846 L 3045,2844 L 3046,2832 L 3046,2831 L 3050,2820 L 3051,2818 L 3056,2808 L 3057,2807 L 3065,2799 L 3066,2797 L 3075,2791 L 3077,2790 L 3087,2785 L 3089,2785 L 3100,2782 L 3102,2782 L 3113,2782 L 3115,2782 L 3126,2785 L 3128,2785 L 3138,2790 L 3140,2791 L 3149,2797 L 3150,2799 L 3158,2807 L 3159,2808 L 3165,2818 L 3165,2820 L 3169,2831 L 3169,2832 L 3170,2844 L 3170,2846 z " style="fill-opacity:1.000000;fill:rgb(239,247,0);stroke:rgb(0,0,0);stroke-width:2"/></g>
<g fill-rule="evenodd"><path d="M 3170,2446 L 3169,2457 L 3169,2459 L 3165,2470 L 3165,2471 L 3159,2481 L 3158,2482 L 3150,2491 L 3149,2492 L 3140,2499 L 3138,2500 L 3128,2504 L 3126,2505 L 3115,2507 L 3113,2507 L 3102,2507 L 3100,2507 L 3089,2505 L 3087,2504 L 3077,2500 L 3075,2499 L 3066,2492 L 3065,2491 L 3057,2482 L 3056,2481 L 3051,2471 L 3050,2470 L 3046,2459 L 3046,2457 L 3045,2446 L 3045,2444 L 3046,2433 L 3046,2431 L 3050,2420 L 3051,2418 L 3056,2409 L 3057,2407 L 3065,2399 L 3066,2398 L 3075,2391 L 3077,2390 L 3087,2385 L 3089,2385 L 3100,2382 L 3102,2382 L 3113,2382 L 3115,2382 L 3126,2385 L 3128,2385 L 3138,2390 L 3140,2391 L 3149,2398 L 3150,2399 L 3158,2407 L 3159,2409 L 3165,2418 L 3165,2420 L 3169,2431 L 3169,2433 L 3170,2444 L 3170,2446 z " style="fill-opacity:1.000000;fill:rgb(233,161,58);stroke:rgb(0,0,0);stroke-width:2"/></g>
<g fill-rule="evenodd"><path d="M 1932,3316 L 2238,3316 L 2239,3316 L 2253,3318 L 2255,3318 L 2269,3322 L 2270,3323 L 2283,3331 L 2285,3331 L 2296,3341 L 2297,3343 L 2305,3355 L 2306,3356 L 2312,3370 L 2313,3371 L 2316,3386 L 2316,3387 L 2316,3402 L 2316,3404 L 2313,3418 L 2312,3420 L 2306,3433 L 2305,3435 L 2297,3447 L 2296,3448 L 2285,3458 L 2283,3459 L 2270,3466 L 2269,3467 L 2255,3471 L 2253,3472 L 2239,3473 L 2238,3473 L 1858,3473 L 1857,3473 L 1842,3472 L 1841,3471 L 1826,3467 L 1825,3466 L 1812,3459 L 1811,3458 L 1800,3448 L 1799,3447 L 1790,3435 L 1789,3433 L 1783,3420 L 1783,3418 L 1780,3404 L 1779,3402 L 1779,3387 L 1780,3386 L 1783,3371 L 1783,3370 L 1789,3356 L 1790,3355 L 1799,3343 L 1800,3341 L 1811,3331 L 1812,3331 L 1825,3323 L 1826,3322 L 1841,3318 L 1842,3318 L 1857,3316 L 1858,3316 L 1864,3316 L 1865,3316 L 1876,3310 L 1878,3310 L 1890,3307 L 1891,3307 L 1904,3307 L 1906,3307 L 1918,3310 L 1919,3310 L 1931,3316 L 1932,3316 z " style="fill-opacity:1.000000;fill:rgb(229,202,11);stroke:rgb(0,0,0);stroke-width:2"/></g>
<g fill-rule="evenodd"><path d="M 1506,208 L 1846,473 L 1847,473 L 1858,485 L 1859,486 L 1868,500 L 1869,501 L 1874,516 L 1875,518 L 1876,534 L 1876,535 L 1876,1275 L 1876,1276 L 1874,1294 L 1873,1296 L 1866,1313 L 1865,1315 L 1854,1330 L 1853,1331 L 1843,1341 L 1843,1341 L 1828,1353 L 1826,1354 L 1809,1361 L 1807,1361 L 1789,1364 L 1788,1364 L 1538,1364 L 1537,1364 L 1522,1362 L 1521,1362 L 1507,1357 L 1505,1356 L 1492,1349 L 1491,1348 L 1480,1338 L 1479,1337 L 1470,1325 L 1469,1324 L 1463,1310 L 1463,1308 L 1460,1294 L 1459,1292 L 1459,1278 L 1460,1276 L 1463,1261 L 1463,1260 L 1469,1246 L 1470,1245 L 1479,1233 L 1480,1232 L 1491,1222 L 1492,1221 L 1505,1213 L 1507,1213 L 1521,1208 L 1522,1208 L 1537,1206 L 1538,1206 L 1719,1206 L 1719,574 L 1397,323 L 1378,323 L 1376,323 L 1374,322 L 1373,321 L 1372,320 L 1371,318 L 1370,317 L 1370,315 L 1370,295 L 1369,293 L 1368,291 L 1362,278 L 1362,276 L 1359,262 L 1359,260 L 1360,245 L 1360,243 L 1364,229 L 1364,228 L 1370,216 L 1370,195 L 1370,193 L 1371,192 L 1372,190 L 1373,189 L 1374,188 L 1376,187 L 1378,187 L 1399,187 L 1407,183 L 1409,182 L 1423,178 L 1425,177 L 1440,176 L 1441,176 L 1456,179 L 1457,179 L 1471,184 L 1473,185 L 1477,187 L 1498,187 L 1500,187 L 1501,188 L 1503,189 L 1504,190 L 1505,192 L 1505,193 L 1506,195 L 1506,208 z " style="fill-opacity:1.000000;fill:rgb(203,208,72);stroke:rgb(0,0,0);stroke-width:2"/></g>
<g fill-rule="evenodd"><path d="M 2139,4104 L 2139,4111 L 2138,4113 L 2134,4127 L 2133,4129 L 2125,4142 L 2124,4144 L 2114,4155 L 2112,4157 L 2100,4166 L 2098,4167 L 2084,4173 L 2082,4173 L 2067,4177 L 2066,4177 L 2050,4177 L 2048,4177 L 2033,4173 L 2031,4173 L 2017,4167 L 2016,4166 L 2003,4157 L 2002,4155 L 1991,4144 L 1990,4142 L 1983,4129 L 1982,4127 L 1977,4113 L 1977,4111 L 1975,4095 L 1975,4095 L 1975,4075 L 1975,4074 L 1977,4058 L 1977,4057 L 1982,4042 L 1983,4040 L 1990,4027 L 1991,4025 L 2002,4014 L 2003,4013 L 2016,4003 L 2017,4003 L 2019,4002 L 2232,3789 L 2233,3788 L 2247,3777 L 2249,3776 L 2266,3769 L 2268,3768 L 2287,3766 L 2288,3766 L 2508,3766 L 2508,3766 L 2523,3767 L 2525,3768 L 2539,3772 L 2540,3773 L 2553,3780 L 2555,3781 L 2566,3791 L 2567,3793 L 2575,3805 L 2576,3806 L 2582,3819 L 2583,3821 L 2586,3836 L 2586,3837 L 2586,3852 L 2586,3854 L 2583,3868 L 2582,3870 L 2576,3883 L 2575,3885 L 2567,3897 L 2566,3898 L 2555,3908 L 2553,3909 L 2540,3916 L 2539,3917 L 2525,3921 L 2523,3922 L 2508,3923 L 2508,3923 L 2320,3923 L 2139,4104 z " style="fill-opacity:1.000000;fill:rgb(71,100,189);stroke:rgb(0,0,0);stroke-width:2"/></g>
<g fill-rule="evenodd"><path d="M 0,7 L 0,6 L 0,4 L 1,3 L 2,1 L 4,0 L 6,0 L 7,0 L 6601,0 L 6602,0 L 6604,0 L 6606,1 L 6607,3 L 6608,4 L 6608,6 L 6609,7 L 6609,4633 L 6608,4634 L 6608,4636 L 6607,4637 L 6606,4639 L 6604,4640 L 6602,4640 L 6601,4640 L 7,4640 L 6,4640 L 4,4640 L 2,4639 L 1,4637 L 0,4636 L 0,4634 L 0,4633 L 0,7M 3302,4588 L 3343,4580 L 3378,4557 L 3732,4203 L 3733,4202 L 3735,4201 L 3737,4199 L 3739,4198 L 3741,4198 L 3744,4198 L 3745,4198 L 3930,4198 L 3931,4198 L 3933,4198 L 3935,4198 L 3937,4199 L 3939,4200 L 3941,4201 L 3942,4202 L 3944,4203 L 3945,4205 L 3946,4207 L 3947,4208 L 3947,4210 L 3948,4212 L 3948,4214 L 3948,4216 L 3948,4218 L 3948,4219 L 3944,4236 L 3944,4353 L 3947,4366 L 3954,4377 L 3965,4385 L 3979,4388 L 4096,4388 L 4109,4385 L 4120,4378 L 4128,4367 L 4131,4353 L 4131,4236 L 4128,4223 L 4121,4212 L 4110,4204 L 4107,4203 L 4105,4203 L 4103,4202 L 4102,4201 L 4100,4199 L 4099,4198 L 4098,4196 L 4097,4195 L 4096,4193 L 4096,4191 L 4095,4189 L 4095,4187 L 4095,4185 L 4095,4184 L 4096,4182 L 4096,4180 L 4097,4178 L 4098,4177 L 4099,4175 L 4101,4173 L 4110,4167 L 4132,4134 L 4140,4095 L 4132,4055 L 4110,4022 L 4084,4005 L 4084,4004 L 4082,4003 L 4081,4002 L 4080,4000 L 4079,3999 L 4078,3997 L 4077,3995 L 4077,3993 L 4077,3991 L 4077,3989 L 4077,3987 L 4077,3985 L 4078,3984 L 4079,3982 L 4079,3980 L 4081,3979 L 4082,3977 L 4084,3976 L 4085,3975 L 4089,3973 L 4115,3947 L 4130,3913 L 4130,3876 L 4116,3842 L 4090,3817 L 4056,3802 L 4019,3802 L 3985,3816 L 3959,3842 L 3945,3876 L 3945,3913 L 3959,3947 L 3974,3961 L 3974,3962 L 3976,3963 L 3976,3965 L 3977,3967 L 3978,3968 L 3979,3970 L 3979,3972 L 3979,3974 L 3979,3976 L 3978,3978 L 3978,3980 L 3977,3982 L 3976,3983 L 3975,3985 L 3974,3986 L 3972,3987 L 3971,3988 L 3969,3990 L 3968,3990 L 3966,3991 L 3964,3991 L 3962,3992 L 3961,3992 L 3696,3992 L 3655,4000 L 3620,4023 L 3267,4377 L 3266,4378 L 3264,4379 L 3262,4380 L 3260,4381 L 3258,4382 L 3255,4382 L 3254,4382 L 3039,4382 L 3038,4382 L 3036,4382 L 3034,4381 L 3031,4380 L 3029,4379 L 3027,4378 L 3027,4377 L 2940,4290 L 2939,4289 L 2938,4287 L 2937,4286 L 2936,4283 L 2935,4281 L 2935,4279 L 2935,4278 L 2935,2016 L 2935,2015 L 2935,2012 L 2936,2010 L 2937,2008 L 2938,2006 L 2939,2004 L 2940,2003 L 2980,1963 L 2981,1962 L 2983,1961 L 2985,1960 L 2987,1959 L 2989,1958 L 2992,1958 L 2993,1958 L 3970,1958 L 3971,1958 L 3973,1958 L 3975,1959 L 3977,1959 L 3979,1960 L 3981,1961 L 3982,1962 L 3984,1964 L 3985,1965 L 3986,1967 L 3987,1969 L 3987,1971 L 3988,1972 L 3988,1974 L 3988,1976 L 3988,1978 L 3988,1979 L 3984,1997 L 3984,2113 L 3987,2127 L 3994,2138 L 4005,2145 L 4019,2148 L 4136,2148 L 4149,2145 L 4160,2138 L 4168,2128 L 4171,2113 L 4171,1997 L 4168,1983 L 4161,1972 L 4150,1965 L 4147,1964 L 4145,1963 L 4143,1962 L 4142,1961 L 4140,1960 L 4139,1958 L 4138,1957 L 4137,1955 L 4136,1953 L 4136,1951 L 4135,1949 L 4135,1948 L 4135,1946 L 4135,1944 L 4136,1942 L 4136,1940 L 4137,1938 L 4138,1937 L 4139,1935 L 4141,1934 L 4142,1933 L 4143,1932 L 4150,1927 L 4172,1894 L 4180,1855 L 4172,1816 L 4152,1786 L 4152,1785 L 4151,1783 L 4150,1781 L 4150,1779 L 4149,1778 L 4149,1776 L 4149,1774 L 4150,1772 L 4150,1770 L 4151,1768 L 4152,1767 L 4153,1765 L 4154,1764 L 4156,1762 L 4157,1761 L 4159,1760 L 4160,1759 L 4162,1759 L 4164,1758 L 4166,1758 L 4167,1758 L 4282,1758 L 4283,1758 L 4285,1758 L 4287,1759 L 4290,1760 L 4291,1761 L 4293,1762 L 4294,1763 L 4298,1767 L 4299,1768 L 4300,1770 L 4301,1772 L 4302,1774 L 4303,1776 L 4303,1779 L 4303,1780 L 4303,2309 L 4303,2310 L 4303,2313 L 4302,2315 L 4301,2317 L 4300,2319 L 4299,2321 L 4298,2322 L 4201,2419 L 4200,2419 L 4199,2421 L 4197,2422 L 4195,2423 L 4194,2423 L 4192,2424 L 4190,2424 L 4188,2424 L 4186,2424 L 4184,2424 L 4183,2423 L 4181,2422 L 4179,2422 L 4177,2420 L 4176,2419 L 4175,2418 L 4174,2416 L 4173,2414 L 4172,2413 L 4171,2411 L 4171,2409 L 4171,2407 L 4171,2406 L 4171,2316 L 4168,2303 L 4161,2292 L 4150,2285 L 4136,2282 L 4019,2282 L 4006,2284 L 3995,2291 L 3987,2302 L 3984,2317 L 3984,2433 L 3987,2448 L 3988,2450 L 3988,2452 L 3988,2454 L 3988,2456 L 3988,2458 L 3987,2460 L 3986,2462 L 3986,2463 L 3984,2465 L 3983,2466 L 3982,2468 L 3980,2469 L 3979,2470 L 3977,2470 L 3975,2471 L 3973,2472 L 3971,2472 L 3970,2472 L 3878,2472 L 3837,2480 L 3802,2503 L 3768,2537 L 3768,2537 L 3766,2539 L 3764,2540 L 3761,2541 L 3759,2541 L 3757,2542 L 3756,2542 L 3177,2542 L 3176,2542 L 3174,2542 L 3172,2541 L 3170,2540 L 3169,2540 L 3167,2539 L 3166,2538 L 3164,2536 L 3163,2535 L 3162,2533 L 3161,2532 L 3160,2530 L 3160,2528 L 3159,2526 L 3159,2524 L 3159,2522 L 3159,2521 L 3160,2518 L 3161,2517 L 3161,2515 L 3162,2514 L 3164,2512 L 3164,2511 L 3181,2494 L 3195,2462 L 3195,2428 L 3181,2396 L 3157,2371 L 3125,2358 L 3090,2358 L 3058,2371 L 3034,2395 L 3020,2427 L 3020,2462 L 3034,2494 L 3058,2519 L 3062,2520 L 3063,2521 L 3065,2522 L 3067,2523 L 3068,2524 L 3069,2525 L 3071,2527 L 3071,2529 L 3072,2531 L 3073,2532 L 3073,2534 L 3073,2536 L 3073,2538 L 3073,2540 L 3073,2542 L 3072,2544 L 3071,2545 L 3070,2547 L 3069,2549 L 3068,2550 L 3066,2551 L 3066,2552 L 3035,2572 L 3013,2605 L 3005,2645 L 3013,2684 L 3035,2717 L 3066,2738 L 3066,2738 L 3068,2740 L 3069,2741 L 3070,2743 L 3071,2744 L 3072,2746 L 3073,2748 L 3073,2750 L 3073,2751 L 3073,2754 L 3073,2755 L 3073,2757 L 3072,2759 L 3071,2761 L 3071,2762 L 3069,2764 L 3068,2765 L 3066,2767 L 3065,2768 L 3063,2769 L 3062,2769 L 3058,2771 L 3034,2795 L 3020,2827 L 3020,2862 L 3034,2894 L 3058,2919 L 3081,2928 L 3082,2929 L 3084,2930 L 3085,2931 L 3087,2932 L 3088,2933 L 3090,2935 L 3090,2936 L 3091,2938 L 3092,2940 L 3092,2942 L 3092,2944 L 3092,2946 L 3092,2947 L 3092,2950 L 3091,2951 L 3090,2953 L 3090,2955 L 3088,2956 L 3087,2957 L 3085,2959 L 3084,2960 L 3082,2961 L 3081,2961 L 3058,2971 L 3034,2995 L 3020,3027 L 3020,3062 L 3034,3094 L 3058,3119 L 3081,3128 L 3082,3129 L 3084,3130 L 3085,3131 L 3087,3132 L 3088,3133 L 3090,3135 L 3090,3136 L 3091,3138 L 3092,3140 L 3092,3142 L 3092,3144 L 3092,3146 L 3092,3147 L 3092,3150 L 3091,3151 L 3090,3153 L 3090,3155 L 3088,3156 L 3087,3157 L 3085,3159 L 3084,3160 L 3082,3161 L 3081,3161 L 3058,3171 L 3034,3195 L 3020,3227 L 3020,3262 L 3034,3294 L 3058,3318 L 3081,3328 L 3082,3329 L 3084,3330 L 3085,3331 L 3087,3332 L 3088,3333 L 3090,3335 L 3090,3336 L 3091,3338 L 3092,3340 L 3092,3342 L 3092,3344 L 3092,3346 L 3092,3347 L 3092,3350 L 3091,3351 L 3090,3353 L 3090,3354 L 3088,3356 L 3087,3357 L 3085,3359 L 3084,3360 L 3082,3361 L 3081,3361 L 3058,3371 L 3034,3395 L 3020,3427 L 3020,3462 L 3034,3494 L 3058,3518 L 3081,3528 L 3082,3528 L 3084,3530 L 3085,3530 L 3087,3532 L 3088,3533 L 3090,3535 L 3090,3536 L 3091,3538 L 3092,3540 L 3092,3542 L 3092,3544 L 3092,3546 L 3092,3547 L 3092,3549 L 3091,3551 L 3090,3553 L 3090,3554 L 3088,3556 L 3087,3557 L 3085,3559 L 3084,3560 L 3082,3561 L 3081,3561 L 3058,3571 L 3034,3595 L 3020,3627 L 3020,3662 L 3034,3694 L 3058,3718 L 3081,3728 L 3082,3728 L 3084,3729 L 3085,3730 L 3087,3732 L 3088,3733 L 3090,3735 L 3090,3736 L 3091,3738 L 3092,3740 L 3092,3742 L 3092,3744 L 3092,3746 L 3092,3747 L 3092,3749 L 3091,3751 L 3090,3753 L 3090,3754 L 3088,3756 L 3087,3757 L 3085,3759 L 3084,3760 L 3082,3761 L 3081,3761 L 3058,3771 L 3034,3795 L 3020,3827 L 3020,3862 L 3034,3894 L 3058,3918 L 3081,3928 L 3082,3928 L 3084,3929 L 3085,3930 L 3087,3932 L 3088,3933 L 3090,3935 L 3090,3936 L 3091,3938 L 3092,3940 L 3092,3942 L 3092,3944 L 3092,3946 L 3092,3947 L 3092,3949 L 3091,3951 L 3090,3953 L 3090,3954 L 3088,3956 L 3087,3957 L 3085,3959 L 3084,3960 L 3082,3961 L 3081,3961 L 3058,3971 L 3034,3995 L 3020,4027 L 3020,4062 L 3034,4094 L 3058,4118 L 3081,4128 L 3082,4128 L 3084,4129 L 3085,4130 L 3087,4132 L 3088,4133 L 3090,4135 L 3090,4136 L 3091,4138 L 3092,4140 L 3092,4142 L 3092,4144 L 3092,4146 L 3092,4147 L 3092,4149 L 3091,4151 L 3090,4153 L 3090,4154 L 3088,4156 L 3087,4157 L 3085,4159 L 3084,4160 L 3082,4161 L 3081,4161 L 3058,4171 L 3034,4195 L 3020,4227 L 3020,4262 L 3034,4294 L 3058,4318 L 3090,4332 L 3125,4332 L 3157,4318 L 3181,4294 L 3195,4262 L 3195,4227 L 3181,4195 L 3157,4171 L 3134,4161 L 3133,4161 L 3131,4160 L 3130,4159 L 3128,4157 L 3127,4156 L 3126,4154 L 3125,4153 L 3124,4151 L 3123,4149 L 3123,4147 L 3123,4146 L 3123,4143 L 3123,4142 L 3123,4140 L 3124,4138 L 3125,4136 L 3126,4135 L 3127,4133 L 3128,4132 L 3130,4130 L 3131,4129 L 3133,4128 L 3134,4128 L 3157,4118 L 3181,4094 L 3195,4062 L 3195,4027 L 3181,3995 L 3157,3971 L 3134,3961 L 3133,3961 L 3131,3960 L 3130,3959 L 3128,3957 L 3127,3956 L 3126,3954 L 3125,3953 L 3124,3951 L 3123,3949 L 3123,3947 L 3123,3946 L 3123,3943 L 3123,3942 L 3123,3940 L 3124,3938 L 3125,3936 L 3126,3935 L 3127,3933 L 3128,3932 L 3130,3930 L 3131,3929 L 3133,3928 L 3134,3928 L 3157,3918 L 3181,3894 L 3195,3862 L 3195,3827 L 3181,3795 L 3157,3771 L 3134,3761 L 3133,3761 L 3131,3760 L 3130,3759 L 3128,3757 L 3127,3756 L 3126,3754 L 3125,3753 L 3124,3751 L 3123,3749 L 3123,3747 L 3123,3746 L 3123,3744 L 3123,3742 L 3123,3740 L 3124,3738 L 3125,3736 L 3126,3735 L 3127,3733 L 3128,3732 L 3130,3730 L 3131,3729 L 3133,3728 L 3134,3728 L 3157,3719 L 3181,3694 L 3195,3662 L 3195,3627 L 3181,3595 L 3157,3571 L 3134,3561 L 3133,3561 L 3131,3560 L 3130,3559 L 3128,3557 L 3127,3556 L 3126,3554 L 3125,3553 L 3124,3551 L 3123,3549 L 3123,3547 L 3123,3546 L 3123,3544 L 3123,3542 L 3123,3540 L 3124,3538 L 3125,3536 L 3126,3535 L 3127,3533 L 3128,3532 L 3130,3530 L 3131,3529 L 3133,3528 L 3134,3528 L 3157,3519 L 3181,3494 L 3195,3462 L 3195,3427 L 3181,3395 L 3157,3371 L 3134,3361 L 3133,3361 L 3131,3360 L 3130,3359 L 3128,3357 L 3127,3356 L 3126,3354 L 3125,3353 L 3124,3351 L 3123,3349 L 3123,3347 L 3123,3346 L 3123,3344 L 3123,3342 L 3123,3340 L 3124,3338 L 3125,3336 L 3126,3335 L 3127,3333 L 3128,3332 L 3130,3330 L 3131,3330 L 3133,3328 L 3134,3328 L 3157,3319 L 3181,3294 L 3195,3262 L 3195,3227 L 3181,3195 L 3157,3171 L 3134,3161 L 3133,3161 L 3131,3160 L 3130,3159 L 3128,3157 L 3127,3156 L 3126,3154 L 3125,3153 L 3124,3151 L 3123,3149 L 3123,3147 L 3123,3146 L 3123,3144 L 3123,3142 L 3123,3140 L 3124,3138 L 3125,3136 L 3126,3135 L 3127,3133 L 3128,3132 L 3130,3131 L 3131,3130 L 3133,3129 L 3134,3128 L 3157,3119 L 3181,3094 L 3195,3062 L 3195,3027 L 3181,2995 L 3157,2971 L 3134,2961 L 3133,2961 L 3131,2960 L 3130,2959 L 3128,2957 L 3127,2956 L 3126,2955 L 3125,2953 L 3124,2951 L 3123,2950 L 3123,2947 L 3123,2946 L 3123,2944 L 3123,2942 L 3123,2940 L 3124,2938 L 3125,2936 L 3126,2935 L 3127,2933 L 3128,2932 L 3130,2931 L 3131,2930 L 3133,2929 L 3134,2928 L 3157,2919 L 3181,2894 L 3195,2862 L 3195,2827 L 3181,2795 L 3164,2778 L 3164,2778 L 3162,2776 L 3161,2775 L 3161,2773 L 3160,2771 L 3159,2769 L 3159,2767 L 3159,2765 L 3159,2763 L 3160,2761 L 3160,2760 L 3161,2758 L 3162,2756 L 3163,2755 L 3164,2753 L 3166,2752 L 3167,2751 L 3169,2750 L 3170,2749 L 3172,2748 L 3174,2748 L 3176,2748 L 3177,2748 L 3804,2748 L 3845,2740 L 3880,2716 L 3913,2683 L 3914,2682 L 3916,2681 L 3918,2680 L 3920,2679 L 3922,2678 L 3925,2678 L 3926,2678 L 4001,2678 L 4002,2678 L 4004,2678 L 4006,2678 L 4008,2679 L 4009,2680 L 4011,2681 L 4012,2682 L 4014,2683 L 4015,2685 L 4016,2686 L 4017,2688 L 4018,2690 L 4018,2691 L 4019,2694 L 4019,2695 L 4019,2697 L 4019,2699 L 4018,2701 L 4017,2703 L 4016,2705 L 4016,2706 L 4014,2708 L 4014,2708 L 3999,2722 L 3985,2756 L 3985,2793 L 3999,2827 L 4025,2853 L 4059,2867 L 4096,2867 L 4130,2853 L 4155,2827 L 4170,2793 L 4170,2757 L 4156,2723 L 4141,2708 L 4141,2708 L 4139,2706 L 4138,2705 L 4137,2703 L 4137,2701 L 4136,2699 L 4136,2697 L 4136,2695 L 4136,2693 L 4137,2691 L 4137,2690 L 4138,2688 L 4139,2686 L 4140,2685 L 4141,2683 L 4143,2682 L 4144,2681 L 4146,2680 L 4147,2679 L 4149,2678 L 4151,2678 L 4153,2678 L 4154,2678 L 4189,2678 L 4230,2670 L 4265,2646 L 4478,2433 L 4501,2399 L 4509,2358 L 4509,1731 L 4501,1690 L 4478,1655 L 4406,1583 L 4371,1560 L 4330,1552 L 4079,1552 L 4038,1560 L 4005,1582 L 3983,1616 L 3975,1655 L 3983,1694 L 4003,1724 L 4003,1725 L 4004,1727 L 4005,1728 L 4005,1730 L 4005,1732 L 4006,1734 L 4005,1736 L 4005,1738 L 4005,1740 L 4004,1742 L 4003,1743 L 4002,1745 L 4001,1746 L 3999,1748 L 3998,1749 L 3996,1750 L 3994,1751 L 3992,1751 L 3991,1752 L 3989,1752 L 3988,1752 L 2944,1752 L 2903,1760 L 2868,1783 L 2760,1892 L 2737,1926 L 2729,1967 L 2729,4326 L 2737,4367 L 2760,4402 L 2915,4557 L 2950,4580 L 2991,4588 L 3302,4588M 335,3613 L 343,3654 L 366,3689 L 604,3926 L 639,3949 L 680,3958 L 1916,3958 L 1957,3949 L 1992,3926 L 2165,3753 L 2166,3752 L 2168,3751 L 2170,3750 L 2172,3749 L 2174,3748 L 2177,3748 L 2178,3748 L 2196,3748 L 2197,3748 L 2199,3748 L 2201,3748 L 2203,3749 L 2204,3750 L 2206,3751 L 2207,3752 L 2209,3753 L 2210,3754 L 2211,3756 L 2212,3758 L 2213,3760 L 2213,3761 L 2214,3763 L 2214,3765 L 2214,3767 L 2213,3769 L 2213,3771 L 2212,3772 L 2211,3774 L 2210,3776 L 2209,3777 L 2209,3778 L 1999,3988 L 1998,3989 L 1982,3999 L 1959,4034 L 1951,4076 L 1951,4093 L 1959,4135 L 1982,4170 L 2017,4193 L 2058,4201 L 2098,4193 L 2133,4170 L 2156,4135 L 2158,4124 L 2159,4123 L 2160,4120 L 2161,4118 L 2163,4115 L 2163,4115 L 2325,3953 L 2326,3952 L 2328,3951 L 2330,3950 L 2332,3949 L 2334,3948 L 2337,3948 L 2338,3948 L 2438,3948 L 2439,3948 L 2441,3948 L 2443,3948 L 2445,3949 L 2446,3950 L 2448,3951 L 2450,3952 L 2451,3953 L 2452,3954 L 2454,3956 L 2454,3958 L 2455,3960 L 2456,3961 L 2456,3963 L 2456,3965 L 2456,3967 L 2456,3969 L 2455,3971 L 2455,3972 L 2454,3974 L 2453,3976 L 2452,3977 L 2451,3978 L 2434,3995 L 2421,4027 L 2421,4062 L 2434,4094 L 2458,4118 L 2482,4128 L 2482,4128 L 2484,4129 L 2486,4130 L 2487,4132 L 2488,4133 L 2490,4135 L 2490,4136 L 2491,4138 L 2492,4140 L 2492,4142 L 2493,4144 L 2493,4146 L 2492,4147 L 2492,4149 L 2491,4151 L 2490,4153 L 2490,4154 L 2488,4156 L 2487,4157 L 2486,4159 L 2484,4160 L 2482,4161 L 2482,4161 L 2458,4171 L 2434,4195 L 2421,4227 L 2421,4262 L 2434,4294 L 2458,4318 L 2490,4332 L 2525,4332 L 2557,4318 L 2581,4294 L 2595,4262 L 2595,4227 L 2582,4195 L 2557,4171 L 2534,4161 L 2533,4161 L 2531,4160 L 2530,4159 L 2528,4157 L 2527,4156 L 2526,4154 L 2525,4153 L 2524,4151 L 2523,4149 L 2523,4147 L 2523,4146 L 2523,4143 L 2523,4142 L 2523,4140 L 2524,4138 L 2525,4136 L 2526,4135 L 2527,4133 L 2528,4132 L 2530,4130 L 2531,4129 L 2533,4128 L 2534,4128 L 2557,4118 L 2581,4094 L 2595,4062 L 2595,4027 L 2582,3995 L 2557,3971 L 2553,3969 L 2552,3969 L 2550,3968 L 2549,3967 L 2547,3965 L 2546,3964 L 2545,3962 L 2544,3961 L 2543,3959 L 2542,3957 L 2542,3955 L 2542,3953 L 2542,3951 L 2542,3949 L 2542,3947 L 2543,3946 L 2544,3944 L 2545,3942 L 2546,3941 L 2547,3939 L 2549,3938 L 2550,3938 L 2580,3917 L 2602,3884 L 2610,3845 L 2602,3805 L 2580,3772 L 2561,3759 L 2561,3759 L 2559,3758 L 2558,3756 L 2557,3755 L 2556,3753 L 2555,3751 L 2554,3750 L 2554,3747 L 2554,3746 L 2554,3744 L 2554,3742 L 2554,3740 L 2555,3738 L 2556,3736 L 2557,3735 L 2558,3733 L 2559,3732 L 2561,3730 L 2561,3730 L 2580,3717 L 2602,3684 L 2610,3645 L 2602,3605 L 2580,3572 L 2550,3552 L 2549,3551 L 2547,3550 L 2546,3549 L 2545,3547 L 2544,3545 L 2543,3543 L 2542,3542 L 2542,3540 L 2542,3538 L 2542,3536 L 2542,3534 L 2542,3532 L 2543,3530 L 2544,3528 L 2545,3527 L 2546,3525 L 2547,3524 L 2549,3523 L 2550,3522 L 2552,3521 L 2553,3520 L 2557,3519 L 2581,3494 L 2595,3462 L 2595,3427 L 2582,3395 L 2557,3371 L 2534,3361 L 2533,3361 L 2531,3360 L 2530,3359 L 2528,3357 L 2527,3356 L 2526,3354 L 2525,3353 L 2524,3351 L 2523,3349 L 2523,3347 L 2523,3346 L 2523,3344 L 2523,3342 L 2523,3340 L 2524,3338 L 2525,3336 L 2526,3335 L 2527,3333 L 2528,3332 L 2530,3330 L 2531,3330 L 2533,3328 L 2534,3328 L 2557,3319 L 2581,3294 L 2595,3262 L 2595,3227 L 2582,3195 L 2557,3171 L 2534,3161 L 2533,3161 L 2531,3160 L 2530,3159 L 2528,3157 L 2527,3156 L 2526,3154 L 2525,3153 L 2524,3151 L 2523,3149 L 2523,3147 L 2523,3146 L 2523,3144 L 2523,3142 L 2523,3140 L 2524,3138 L 2525,3136 L 2526,3135 L 2527,3133 L 2528,3132 L 2530,3131 L 2531,3130 L 2533,3129 L 2534,3128 L 2557,3119 L 2581,3094 L 2595,3062 L 2595,3027 L 2582,2995 L 2557,2971 L 2553,2969 L 2552,2969 L 2550,2968 L 2549,2967 L 2547,2965 L 2546,2964 L 2545,2962 L 2544,2961 L 2543,2959 L 2542,2957 L 2542,2955 L 2542,2953 L 2542,2951 L 2542,2950 L 2542,2948 L 2543,2946 L 2544,2944 L 2545,2943 L 2546,2941 L 2547,2940 L 2549,2938 L 2550,2938 L 2580,2917 L 2602,2884 L 2610,2845 L 2602,2805 L 2580,2772 L 2561,2760 L 2561,2759 L 2559,2758 L 2558,2756 L 2557,2755 L 2556,2753 L 2555,2751 L 2554,2750 L 2554,2748 L 2554,2746 L 2554,2744 L 2554,2742 L 2554,2740 L 2555,2738 L 2556,2736 L 2557,2735 L 2558,2733 L 2559,2732 L 2561,2730 L 2561,2730 L 2580,2717 L 2602,2684 L 2610,2645 L 2602,2605 L 2580,2572 L 2566,2563 L 2566,2563 L 2564,2561 L 2563,2560 L 2562,2558 L 2561,2557 L 2560,2555 L 2559,2553 L 2559,2551 L 2559,2549 L 2559,2547 L 2559,2546 L 2559,2544 L 2560,2542 L 2561,2540 L 2561,2539 L 2563,2537 L 2564,2536 L 2565,2534 L 2567,2533 L 2569,2532 L 2571,2531 L 2574,2530 L 2585,2523 L 2593,2513 L 2596,2498 L 2596,2391 L 2593,2378 L 2586,2367 L 2575,2360 L 2561,2357 L 2454,2357 L 2441,2359 L 2430,2366 L 2423,2377 L 2420,2392 L 2420,2498 L 2422,2512 L 2425,2516 L 2426,2518 L 2426,2521 L 2427,2522 L 2427,2524 L 2427,2526 L 2426,2528 L 2426,2530 L 2425,2532 L 2424,2533 L 2423,2535 L 2422,2536 L 2420,2538 L 2419,2539 L 2417,2540 L 2415,2540 L 2413,2541 L 2412,2542 L 2410,2542 L 2409,2542 L 1838,2542 L 1837,2542 L 1834,2541 L 1832,2541 L 1830,2540 L 1828,2539 L 1826,2537 L 1825,2537 L 1646,2357 L 1645,2357 L 1644,2355 L 1643,2353 L 1642,2350 L 1641,2348 L 1641,2346 L 1641,2345 L 1641,1487 L 1633,1446 L 1613,1416 L 1612,1415 L 1611,1413 L 1611,1411 L 1610,1409 L 1610,1408 L 1610,1406 L 1610,1404 L 1610,1402 L 1611,1400 L 1611,1398 L 1612,1397 L 1613,1395 L 1614,1394 L 1616,1392 L 1617,1391 L 1619,1390 L 1621,1389 L 1623,1389 L 1624,1388 L 1627,1388 L 1627,1388 L 1786,1388 L 1827,1380 L 1862,1357 L 1869,1349 L 1893,1314 L 1901,1273 L 1901,537 L 1900,531 L 1899,530 L 1899,527 L 1899,526 L 1900,522 L 1896,510 L 1895,509 L 1893,496 L 1890,492 L 1890,492 L 1889,489 L 1888,488 L 1887,484 L 1879,475 L 1878,474 L 1870,462 L 1867,460 L 1866,460 L 1864,458 L 1863,457 L 1860,453 L 1536,201 L 1536,201 L 1534,199 L 1533,197 L 1531,195 L 1531,194 L 1530,191 L 1530,190 L 1528,183 L 1521,172 L 1511,165 L 1496,162 L 1481,162 L 1480,162 L 1478,162 L 1476,161 L 1474,160 L 1473,160 L 1465,156 L 1425,153 L 1401,161 L 1400,161 L 1397,162 L 1396,162 L 1379,162 L 1366,165 L 1355,172 L 1348,182 L 1345,193 L 1345,194 L 1345,196 L 1344,198 L 1343,200 L 1342,201 L 1340,202 L 1339,204 L 1337,205 L 1336,206 L 1334,207 L 1332,207 L 1330,207 L 1328,208 L 1326,207 L 1325,207 L 1323,207 L 1321,206 L 1319,205 L 1318,204 L 1316,203 L 1315,202 L 1290,177 L 1256,163 L 1220,163 L 1186,177 L 1160,203 L 1154,216 L 1154,217 L 1153,219 L 1152,220 L 1151,222 L 1149,223 L 1148,224 L 1146,225 L 1144,226 L 1143,226 L 1141,227 L 1139,227 L 1137,227 L 1135,227 L 1133,226 L 1131,226 L 1129,225 L 1128,224 L 1126,223 L 1125,222 L 1124,220 L 1122,218 L 1116,203 L 1090,177 L 1056,163 L 1020,163 L 986,177 L 960,203 L 946,237 L 946,273 L 960,307 L 986,333 L 1019,347 L 1056,347 L 1090,333 L 1116,307 L 1121,294 L 1122,293 L 1123,292 L 1124,290 L 1125,289 L 1126,287 L 1128,286 L 1129,285 L 1131,284 L 1133,284 L 1135,283 L 1137,283 L 1139,283 L 1141,283 L 1143,284 L 1144,284 L 1146,285 L 1148,286 L 1149,287 L 1151,289 L 1152,290 L 1153,292 L 1154,294 L 1154,294 L 1160,307 L 1186,333 L 1219,347 L 1256,347 L 1290,333 L 1315,308 L 1316,307 L 1318,306 L 1319,305 L 1321,304 L 1323,304 L 1325,303 L 1326,303 L 1329,303 L 1330,303 L 1332,303 L 1334,304 L 1336,305 L 1337,306 L 1339,307 L 1340,308 L 1342,310 L 1343,311 L 1344,313 L 1345,315 L 1347,327 L 1354,338 L 1365,345 L 1380,348 L 1386,348 L 1388,349 L 1390,350 L 1392,350 L 1394,351 L 1395,352 L 1688,580 L 1689,581 L 1690,582 L 1691,584 L 1693,586 L 1693,587 L 1694,589 L 1694,591 L 1695,593 L 1695,594 L 1695,1164 L 1695,1165 L 1694,1167 L 1694,1169 L 1693,1171 L 1693,1173 L 1691,1175 L 1690,1176 L 1689,1177 L 1687,1179 L 1685,1180 L 1684,1181 L 1682,1181 L 1680,1182 L 1678,1182 L 1677,1182 L 1613,1182 L 1612,1182 L 1610,1182 L 1608,1181 L 1606,1181 L 1605,1180 L 1603,1179 L 1602,1178 L 1600,1176 L 1599,1175 L 1598,1173 L 1597,1172 L 1596,1170 L 1596,1168 L 1595,1166 L 1595,1165 L 1595,1162 L 1595,1161 L 1596,1159 L 1597,1157 L 1597,1155 L 1598,1154 L 1600,1152 L 1600,1151 L 1615,1137 L 1629,1103 L 1629,1067 L 1615,1033 L 1590,1008 L 1575,1001 L 1574,1001 L 1572,1000 L 1571,999 L 1569,998 L 1568,997 L 1567,995 L 1566,993 L 1565,991 L 1564,990 L 1564,988 L 1564,986 L 1564,984 L 1564,982 L 1564,980 L 1565,979 L 1566,977 L 1567,975 L 1568,973 L 1569,972 L 1571,971 L 1572,970 L 1574,969 L 1575,968 L 1589,962 L 1615,937 L 1629,903 L 1629,867 L 1615,833 L 1590,808 L 1556,794 L 1520,794 L 1486,808 L 1461,833 L 1460,834 L 1458,835 L 1457,836 L 1455,837 L 1453,838 L 1451,838 L 1450,838 L 1447,838 L 1446,838 L 1444,838 L 1442,837 L 1440,837 L 1439,836 L 1437,835 L 1436,834 L 1434,832 L 1433,831 L 1432,829 L 1431,827 L 1431,825 L 1430,824 L 1430,821 L 1430,821 L 1430,728 L 1427,714 L 1420,703 L 1410,696 L 1395,693 L 1280,693 L 1267,695 L 1256,702 L 1249,713 L 1246,728 L 1246,842 L 1248,856 L 1249,857 L 1249,859 L 1250,861 L 1250,862 L 1250,865 L 1250,866 L 1250,868 L 1249,870 L 1248,872 L 1247,873 L 1246,875 L 1245,876 L 1244,878 L 1242,879 L 1240,880 L 1239,881 L 1237,881 L 1235,882 L 1233,882 L 1232,882 L 550,882 L 509,890 L 474,913 L 366,1021 L 343,1056 L 335,1097 L 335,3613M 1150,4076 L 1136,4042 L 1110,4017 L 1076,4002 L 1040,4002 L 1006,4016 L 980,4042 L 966,4076 L 966,4113 L 980,4147 L 1006,4173 L 1039,4187 L 1076,4187 L 1110,4173 L 1136,4147 L 1150,4113 L 1150,4076M 1150,4353 L 1150,4316 L 1136,4282 L 1110,4256 L 1076,4242 L 1040,4242 L 1006,4256 L 980,4282 L 966,4316 L 966,4353 L 980,4387 L 1006,4413 L 1039,4427 L 1076,4427 L 1110,4413 L 1136,4387 L 1150,4353M 2039,4427 L 2076,4427 L 2110,4413 L 2136,4387 L 2150,4353 L 2150,4316 L 2136,4282 L 2110,4256 L 2076,4242 L 2039,4242 L 2006,4256 L 1980,4282 L 1966,4316 L 1966,4353 L 1980,4387 L 2005,4413 L 2039,4427M 803,844 L 873,844 L 937,817 L 987,768 L 1014,703 L 1014,633 L 987,569 L 938,519 L 873,492 L 803,492 L 738,519 L 689,568 L 662,633 L 662,703 L 689,767 L 738,817 L 803,844M 2411,1127 L 2583,1127 L 2742,1062 L 2864,940 L 2930,781 L 2930,609 L 2864,451 L 2743,329 L 2584,263 L 2412,263 L 2253,329 L 2132,450 L 2066,609 L 2066,781 L 2131,939 L 2253,1061 L 2411,1127M 5154,2317 L 5154,2317 L 5184,2328 L 5221,2326 L 5240,2318 L 5240,2317 L 5221,2298 L 5219,2299 L 5217,2300 L 5205,2302 L 5204,2302 L 5191,2302 L 5189,2302 L 5177,2300 L 5176,2299 L 5173,2298 L 5154,2317M 4639,2327 L 4665,2353 L 4699,2367 L 4736,2367 L 4769,2353 L 4795,2327 L 4804,2305 L 4804,2305 L 4809,2293 L 4809,2257 L 4795,2223 L 4770,2197 L 4736,2183 L 4699,2183 L 4665,2197 L 4639,2223 L 4625,2256 L 4625,2293 L 4639,2327M 3959,3467 L 3985,3492 L 3985,3493 L 3986,3494 L 3987,3496 L 3988,3498 L 3989,3499 L 3989,3501 L 3990,3503 L 3990,3505 L 3990,3507 L 3989,3509 L 3989,3511 L 3988,3513 L 3987,3514 L 3986,3516 L 3985,3517 L 3983,3519 L 3982,3520 L 3980,3521 L 3978,3521 L 3976,3522 L 3975,3522 L 3966,3524 L 3955,3531 L 3947,3542 L 3944,3556 L 3944,3673 L 3947,3686 L 3954,3697 L 3965,3705 L 3979,3708 L 4096,3708 L 4109,3705 L 4120,3698 L 4128,3687 L 4131,3673 L 4131,3556 L 4128,3543 L 4121,3532 L 4110,3524 L 4099,3522 L 4098,3522 L 4096,3521 L 4095,3521 L 4093,3520 L 4092,3519 L 4090,3517 L 4089,3516 L 4088,3514 L 4087,3513 L 4086,3511 L 4086,3509 L 4085,3507 L 4085,3505 L 4085,3503 L 4085,3501 L 4086,3499 L 4086,3498 L 4087,3496 L 4088,3494 L 4090,3493 L 4090,3492 L 4115,3467 L 4130,3433 L 4130,3396 L 4116,3363 L 4090,3337 L 4077,3331 L 4076,3331 L 4074,3330 L 4073,3329 L 4071,3327 L 4070,3326 L 4069,3324 L 4068,3323 L 4067,3321 L 4066,3319 L 4066,3317 L 4066,3316 L 4066,3314 L 4066,3312 L 4066,3310 L 4067,3308 L 4068,3306 L 4069,3305 L 4070,3303 L 4071,3302 L 4073,3300 L 4075,3299 L 4090,3293 L 4115,3267 L 4130,3233 L 4130,3196 L 4116,3163 L 4090,3137 L 4056,3123 L 4019,3123 L 3985,3137 L 3959,3162 L 3945,3196 L 3945,3233 L 3959,3267 L 3985,3293 L 3998,3298 L 3999,3299 L 4001,3300 L 4002,3300 L 4004,3302 L 4005,3303 L 4006,3305 L 4007,3306 L 4008,3308 L 4009,3310 L 4009,3312 L 4009,3314 L 4009,3316 L 4009,3317 L 4009,3319 L 4008,3321 L 4007,3323 L 4006,3324 L 4005,3326 L 4004,3327 L 4002,3329 L 4001,3330 L 3999,3331 L 3998,3331 L 3985,3337 L 3959,3362 L 3945,3396 L 3945,3433 L 3959,3467M 6043,3483 L 5872,3482 L 5713,3548 L 5591,3670 L 5525,3828 L 5525,4000 L 5591,4159 L 5712,4281 L 5871,4347 L 6043,4347 L 6202,4281 L 6323,4160 L 6389,4001 L 6389,3829 L 6324,3670 L 6202,3549 L 6043,3483M 5289,3216 L 5275,3183 L 5250,3157 L 5216,3143 L 5179,3143 L 5145,3157 L 5119,3182 L 5105,3216 L 5105,3253 L 5119,3287 L 5145,3313 L 5179,3327 L 5216,3327 L 5249,3313 L 5275,3287 L 5289,3253 L 5289,3216M 4936,1129 L 5097,1065 L 5107,1058 L 5141,1018 L 5125,1002 L 5062,1048 L 5061,1049 L 4984,1083 L 4983,1083 L 4901,1100 L 4899,1101 L 4816,1101 L 4814,1100 L 4732,1083 L 4731,1083 L 4654,1049 L 4653,1048 L 4590,1002 L 4573,1018 L 4607,1057 L 4764,1126 L 4936,1129M 4951,265 L 4779,262 L 4617,325 L 4608,332 L 4573,372 L 4590,388 L 4653,342 L 4654,341 L 4731,307 L 4732,307 L 4814,290 L 4816,289 L 4899,289 L 4901,290 L 4983,307 L 4984,307 L 5060,341 L 5062,342 L 5125,388 L 5141,372 L 5108,333 L 4951,265M 4741,1366 L 4760,1358 L 4760,1357 L 4741,1338 L 4739,1339 L 4738,1340 L 4725,1342 L 4724,1342 L 4711,1342 L 4709,1342 L 4697,1340 L 4696,1339 L 4693,1338 L 4674,1357 L 4674,1357 L 4704,1368 L 4741,1366M 4741,1212 L 4760,1193 L 4760,1192 L 4731,1182 L 4694,1184 L 4675,1192 L 4674,1193 L 4693,1212 L 4696,1211 L 4697,1210 L 4709,1208 L 4711,1207 L 4724,1207 L 4725,1208 L 4738,1210 L 4739,1211 L 4741,1212M 4634,1318 L 4635,1318 L 4654,1299 L 4651,1290 L 4651,1288 L 4650,1276 L 4650,1274 L 4651,1262 L 4651,1260 L 4654,1251 L 4635,1232 L 4635,1232 L 4624,1261 L 4626,1298 L 4634,1318M 4800,1318 L 4800,1318 L 4810,1289 L 4808,1252 L 4800,1232 L 4800,1232 L 4781,1251 L 4784,1260 L 4784,1262 L 4785,1274 L 4785,1276 L 4784,1288 L 4784,1290 L 4781,1299 L 4800,1318M 4427,602 L 4424,773 L 4487,935 L 4494,945 L 4534,979 L 4551,962 L 4528,935 L 4527,934 L 4485,862 L 4484,860 L 4459,781 L 4458,779 L 4450,696 L 4450,694 L 4458,611 L 4459,609 L 4484,530 L 4485,528 L 4527,456 L 4528,455 L 4551,429 L 4534,411 L 4495,444 L 4427,602M 6202,1189 L 6043,1123 L 5872,1123 L 5713,1188 L 5591,1310 L 5525,1469 L 5525,1640 L 5591,1799 L 5712,1921 L 5871,1987 L 6043,1987 L 6202,1921 L 6323,1800 L 6389,1641 L 6389,1469 L 6324,1310 L 6202,1189M 5155,2152 L 5154,2152 L 5173,2172 L 5176,2171 L 5177,2170 L 5189,2167 L 5191,2167 L 5204,2167 L 5205,2167 L 5217,2170 L 5219,2171 L 5221,2172 L 5240,2152 L 5240,2152 L 5211,2142 L 5174,2144 L 5155,2152M 5106,2258 L 5114,2278 L 5115,2278 L 5134,2259 L 5131,2250 L 5131,2248 L 5129,2236 L 5129,2234 L 5131,2222 L 5131,2220 L 5134,2211 L 5115,2192 L 5115,2192 L 5104,2221 L 5106,2258M 5261,2259 L 5280,2278 L 5280,2278 L 5290,2249 L 5288,2211 L 5280,2192 L 5280,2192 L 5261,2211 L 5263,2220 L 5264,2222 L 5265,2234 L 5265,2236 L 5264,2248 L 5263,2250 L 5261,2259M 5291,617 L 5227,455 L 5221,445 L 5181,411 L 5163,429 L 5187,455 L 5188,456 L 5230,528 L 5230,530 L 5256,609 L 5256,611 L 5265,694 L 5265,696 L 5256,779 L 5256,781 L 5230,860 L 5230,862 L 5188,934 L 5187,935 L 5163,962 L 5181,979 L 5219,946 L 5288,789 L 5291,617 z " style="fill-opacity:1.000000;fill:rgb(31,35,30);stroke:rgb(0,0,0);stroke-width:2"/></g>
</svg>
