<?xml version="1.0" standalone="no"?>
<!DOCTYPE svg PUBLIC "-//W3C//DTD SVG 1.1//EN"
"http://www.w3.org/Graphics/SVG/1.1/DTD/svg11.dtd">
<svg width="6614" height="4645" viewBox="0 0 6614 4645" version="1.1"
xmlns="http://www.w3.org/2000/svg"
xmlns:xlink="http://www.w3.org/1999/xlink">
<g fill-rule="evenodd"><path d="M 2463,3168 L 2510,3168 L 2527,3170 L 2542,3175 L 2556,3183 L 2569,3194 L 2578,3207 L 2585,3222 L 2588,3238 L 2588,3255 L 2585,3271 L 2578,3286 L 2569,3299 L 2556,3310 L 2542,3319 L 2527,3324 L 2510,3325 L 2430,3325 L 2410,3323 L 2391,3315 L 2375,3302 L 2348,3275 L 2240,3275 L 2224,3274 L 2208,3269 L 2194,3260 L 2182,3249 L 2172,3236 L 2165,3221 L 2162,3205 L 2162,3188 L 2165,3172 L 2172,3157 L 2182,3144 L 2194,3133 L 2208,3125 L 2224,3120 L 2240,3118 L 2380,3118 L 2401,3121 L 2420,3128 L 2436,3141 L 2463,3168 z " style="fill-opacity:1.000000;fill:rgb(103,198,105);stroke:rgb(0,0,0);stroke-width:2"/></g>
<g fill-rule="evenodd"><path d="M 3252,3576 L 3661,3167 L 3675,3155 L 3693,3148 L 3711,3146 L 5180,3146 L 5198,3148 L 5215,3155 L 5230,3167 L 5250,3187 L 5259,3198 L 5266,3211 L 5270,3226 L 5271,3240 L 5268,3255 L 5263,3269 L 5255,3281 L 5244,3292 L 5232,3300 L 5218,3305 L 5203,3307 L 5189,3307 L 5174,3303 L 5161,3296 L 5151,3288 L 3740,3288 L 3331,3697 L 3316,3708 L 3299,3715 L 3281,3717 L 3110,3717 L 3095,3716 L 3081,3711 L 3068,3704 L 3057,3694 L 3049,3682 L 3043,3669 L 3040,3654 L 3040,3639 L 3043,3625 L 3049,3611 L 3057,3599 L 3068,3589 L 3081,3582 L 3095,3577 L 3110,3576 L 3252,3576 z " style="fill-opacity:1.000000;fill:rgb(115,81,255);stroke:rgb(0,0,0);stroke-width:2"/></g>
<g fill-rule="evenodd"><path d="M 3781,2976 L 4030,2727 L 4045,2715 L 4062,2708 L 4080,2706 L 4436,2706 L 4649,2493 L 4649,2277 L 4651,2262 L 4655,2248 L 4663,2235 L 4672,2224 L 4684,2215 L 4698,2209 L 4712,2206 L 4727,2206 L 4742,2209 L 4755,2215 L 4767,2224 L 4777,2235 L 4785,2248 L 4789,2262 L 4791,2277 L 4791,2523 L 4788,2541 L 4781,2558 L 4770,2573 L 4516,2827 L 4501,2838 L 4484,2845 L 4466,2848 L 4109,2848 L 3860,3097 L 3845,3108 L 3828,3115 L 3810,3118 L 3110,3118 L 3095,3116 L 3081,3111 L 3068,3104 L 3057,3094 L 3049,3082 L 3043,3069 L 3040,3054 L 3040,3039 L 3043,3025 L 3049,3011 L 3057,2999 L 3068,2989 L 3081,2982 L 3095,2977 L 3110,2976 L 3781,2976 z " style="fill-opacity:1.000000;fill:rgb(74,236,41);stroke:rgb(0,0,0);stroke-width:2"/></g>
<g fill-rule="evenodd"><path d="M 1829,1226 L 1761,1158 L 1540,1158 L 1526,1156 L 1511,1152 L 1499,1144 L 1488,1134 L 1479,1122 L 1473,1109 L 1470,1094 L 1470,1080 L 1473,1065 L 1479,1052 L 1488,1040 L 1499,1030 L 1511,1022 L 1526,1018 L 1540,1016 L 1790,1016 L 1809,1019 L 1826,1026 L 1840,1037 L 1950,1147 L 1962,1162 L 1969,1179 L 1971,1197 L 1971,3377 L 1970,3391 L 1965,3405 L 1958,3418 L 1948,3429 L 1936,3438 L 1922,3444 L 1908,3447 L 1893,3447 L 1878,3444 L 1865,3438 L 1853,3429 L 1843,3418 L 1836,3405 L 1831,3391 L 1829,3377 L 1829,1226 z " style="fill-opacity:1.000000;fill:rgb(205,186,171);stroke:rgb(0,0,0);stroke-width:2"/></g>
<g fill-rule="evenodd"><path d="M 2050,4267 L 2320,3996 L 2335,3985 L 2352,3978 L 2370,3976 L 2510,3976 L 2525,3977 L 2539,3982 L 2552,3989 L 2563,3999 L 2572,4011 L 2578,4025 L 2581,4039 L 2581,4054 L 2578,4068 L 2572,4082 L 2563,4094 L 2552,4104 L 2539,4111 L 2525,4116 L 2510,4117 L 2400,4117 L 2130,4387 L 2116,4398 L 2099,4405 L 2080,4407 L 2060,4407 L 2045,4406 L 2031,4401 L 2019,4394 L 2008,4384 L 1999,4372 L 1993,4358 L 1990,4344 L 1990,4329 L 1993,4315 L 1999,4301 L 2008,4289 L 2019,4279 L 2031,4272 L 2045,4267 L 2050,4267 z " style="fill-opacity:1.000000;fill:rgb(242,251,227);stroke:rgb(0,0,0);stroke-width:2"/></g>
<g fill-rule="evenodd"><path d="M 2271,3468 L 2240,3468 L 2225,3466 L 2211,3461 L 2199,3454 L 2188,3444 L 2179,3432 L 2173,3419 L 2170,3404 L 2170,3389 L 2173,3375 L 2179,3361 L 2188,3349 L 2199,3339 L 2211,3332 L 2225,3327 L 2240,3326 L 2300,3326 L 2319,3328 L 2336,3335 L 2350,3347 L 2380,3376 L 2510,3376 L 2525,3377 L 2539,3382 L 2552,3389 L 2563,3399 L 2572,3411 L 2578,3425 L 2581,3439 L 2581,3454 L 2578,3469 L 2572,3482 L 2563,3494 L 2552,3504 L 2539,3511 L 2525,3516 L 2510,3517 L 2350,3517 L 2332,3515 L 2315,3508 L 2300,3497 L 2271,3468 z " style="fill-opacity:1.000000;fill:rgb(70,124,194);stroke:rgb(0,0,0);stroke-width:2"/></g>
<g fill-rule="evenodd"><path d="M 1231,1116 L 1340,1116 L 1355,1118 L 1369,1122 L 1382,1130 L 1393,1140 L 1402,1152 L 1408,1165 L 1411,1180 L 1411,1194 L 1408,1209 L 1402,1222 L 1393,1234 L 1382,1244 L 1369,1252 L 1355,1256 L 1340,1258 L 1170,1258 L 1152,1255 L 1135,1248 L 1120,1237 L 1110,1227 L 1099,1212 L 1092,1195 L 1089,1177 L 1089,617 L 1092,599 L 1099,582 L 1110,567 L 1169,508 L 1169,257 L 1171,242 L 1176,228 L 1183,215 L 1193,204 L 1205,196 L 1218,190 L 1233,187 L 1248,187 L 1262,190 L 1276,196 L 1288,204 L 1298,215 L 1305,228 L 1310,242 L 1311,257 L 1311,537 L 1309,555 L 1302,572 L 1290,587 L 1231,646 L 1231,1116 z " style="fill-opacity:1.000000;fill:rgb(84,248,27);stroke:rgb(0,0,0);stroke-width:2"/></g>
<g fill-rule="evenodd"><path d="M 0,9 L 0,7 L 1,5 L 2,3 L 4,2 L 6,0 L 8,0 L 10,0 L 6603,0 L 6605,0 L 6607,0 L 6609,2 L 6611,3 L 6612,5 L 6613,7 L 6613,9 L 6613,4635 L 6613,4637 L 6612,4639 L 6611,4641 L 6608,4643 L 6606,4644 L 6603,4645 L 10,4645 L 8,4644 L 6,4644 L 4,4642 L 2,4641 L 1,4639 L 0,4637 L 0,4635 L 0,1643 L 0,9M 880,3477 L 920,3477 L 957,3461 L 985,3433 L 1000,3397 L 1000,3357 L 985,3320 L 957,3292 L 920,3277 L 881,3277 L 844,3292 L 816,3320 L 800,3357 L 800,3396 L 816,3433 L 844,3461 L 880,3477M 804,1788 L 877,1788 L 944,1760 L 996,1709 L 1024,1641 L 1024,1568 L 996,1501 L 945,1449 L 877,1421 L 804,1421 L 736,1449 L 685,1500 L 657,1568 L 657,1641 L 685,1708 L 736,1760 L 804,1788M 804,854 L 877,854 L 944,826 L 996,774 L 1024,707 L 1024,634 L 996,566 L 945,514 L 877,486 L 804,486 L 736,514 L 685,566 L 657,633 L 657,706 L 685,774 L 736,826 L 804,854M 5143,2322 L 5180,2337 L 5220,2337 L 5256,2322 L 5284,2294 L 5300,2257 L 5300,2217 L 5285,2180 L 5256,2152 L 5220,2137 L 5180,2137 L 5143,2152 L 5115,2180 L 5100,2217 L 5100,2257 L 5115,2293 L 5143,2322M 4947,1137 L 5109,1070 L 5233,947 L 5300,785 L 5300,610 L 5233,448 L 5109,324 L 4948,257 L 4773,257 L 4611,324 L 4487,448 L 4420,609 L 4420,784 L 4487,946 L 4610,1070 L 4772,1137 L 4947,1137M 4740,1377 L 4776,1362 L 4805,1334 L 4820,1297 L 4820,1257 L 4805,1220 L 4777,1192 L 4740,1177 L 4700,1177 L 4663,1192 L 4635,1220 L 4620,1257 L 4620,1297 L 4635,1334 L 4663,1362 L 4700,1377 L 4740,1377M 1114,4071 L 1115,4072 L 1119,4084 L 1120,4097 L 1119,4109 L 1115,4121 L 1114,4122 L 1140,4148 L 1149,4146 L 1161,4111 L 1159,4071 L 1149,4047 L 1140,4045 L 1114,4071M 1006,4071 L 980,4045 L 972,4047 L 960,4082 L 962,4122 L 972,4146 L 980,4148 L 1006,4122 L 1006,4121 L 1002,4109 L 1000,4097 L 1002,4084 L 1006,4072 L 1006,4071M 1086,4043 L 1112,4016 L 1110,4008 L 1075,3996 L 1035,3998 L 1011,4008 L 1009,4016 L 1035,4043 L 1042,4039 L 1054,4037 L 1067,4037 L 1079,4039 L 1086,4043M 1006,4362 L 1006,4361 L 1002,4349 L 1000,4337 L 1002,4324 L 1006,4312 L 1006,4311 L 980,4285 L 972,4287 L 960,4322 L 962,4362 L 972,4386 L 980,4388 L 1006,4362M 1114,4362 L 1140,4388 L 1149,4386 L 1161,4351 L 1159,4311 L 1149,4287 L 1140,4285 L 1114,4311 L 1115,4312 L 1119,4324 L 1120,4337 L 1119,4349 L 1115,4361 L 1114,4362M 1035,4390 L 1009,4417 L 1011,4425 L 1046,4437 L 1085,4435 L 1110,4425 L 1112,4417 L 1086,4390 L 1079,4394 L 1067,4396 L 1054,4396 L 1042,4394 L 1035,4390M 1035,4283 L 1042,4279 L 1054,4277 L 1067,4277 L 1079,4279 L 1086,4283 L 1112,4256 L 1110,4248 L 1075,4236 L 1035,4238 L 1011,4248 L 1009,4256 L 1035,4283M 1035,4150 L 1009,4177 L 1011,4185 L 1046,4197 L 1085,4195 L 1110,4185 L 1112,4177 L 1086,4150 L 1079,4154 L 1067,4156 L 1054,4156 L 1042,4154 L 1035,4150M 2488,2997 L 2493,2994 L 2504,2992 L 2516,2992 L 2527,2994 L 2532,2997 L 2558,2970 L 2556,2962 L 2539,2956 L 2537,2955 L 2536,2954 L 2534,2952 L 2533,2950 L 2533,2948 L 2533,2946 L 2533,2944 L 2534,2942 L 2535,2940 L 2537,2939 L 2539,2938 L 2564,2927 L 2591,2901 L 2605,2866 L 2605,2828 L 2591,2793 L 2564,2766 L 2539,2756 L 2537,2755 L 2536,2754 L 2535,2752 L 2534,2750 L 2533,2748 L 2533,2746 L 2534,2744 L 2535,2742 L 2536,2740 L 2537,2739 L 2539,2737 L 2564,2727 L 2591,2701 L 2605,2666 L 2605,2628 L 2591,2593 L 2564,2566 L 2554,2562 L 2552,2561 L 2550,2560 L 2549,2558 L 2548,2556 L 2548,2554 L 2548,2552 L 2548,2550 L 2549,2548 L 2550,2546 L 2552,2545 L 2553,2544 L 2555,2543 L 2558,2543 L 2564,2543 L 2580,2540 L 2594,2531 L 2603,2518 L 2606,2501 L 2606,2393 L 2603,2377 L 2594,2363 L 2581,2354 L 2564,2351 L 2456,2351 L 2440,2354 L 2427,2363 L 2418,2376 L 2414,2393 L 2414,2501 L 2417,2517 L 2426,2530 L 2439,2539 L 2456,2543 L 2463,2543 L 2465,2543 L 2467,2544 L 2469,2545 L 2470,2546 L 2471,2548 L 2472,2550 L 2473,2552 L 2473,2554 L 2472,2556 L 2471,2558 L 2470,2560 L 2468,2561 L 2467,2562 L 2456,2566 L 2430,2593 L 2415,2628 L 2415,2666 L 2430,2700 L 2456,2727 L 2481,2738 L 2483,2739 L 2485,2740 L 2486,2742 L 2487,2744 L 2487,2746 L 2487,2748 L 2487,2750 L 2486,2752 L 2485,2754 L 2483,2755 L 2481,2756 L 2456,2766 L 2430,2793 L 2415,2828 L 2415,2866 L 2430,2900 L 2456,2927 L 2480,2937 L 2482,2938 L 2483,2939 L 2485,2941 L 2485,2943 L 2486,2945 L 2486,2947 L 2485,2949 L 2485,2951 L 2483,2953 L 2482,2954 L 2480,2955 L 2464,2962 L 2462,2970 L 2488,2997M 2460,3025 L 2434,2998 L 2426,3000 L 2414,3033 L 2416,3073 L 2416,3075 L 2416,3077 L 2415,3079 L 2413,3081 L 2411,3082 L 2409,3083 L 2407,3083 L 2405,3083 L 2379,3078 L 2241,3078 L 2195,3087 L 2156,3113 L 2131,3151 L 2122,3197 L 2131,3242 L 2156,3280 L 2175,3293 L 2177,3294 L 2178,3296 L 2179,3298 L 2179,3300 L 2179,3302 L 2179,3305 L 2178,3306 L 2177,3308 L 2175,3310 L 2162,3318 L 2138,3354 L 2130,3397 L 2138,3439 L 2162,3475 L 2198,3499 L 2241,3507 L 2250,3507 L 2253,3508 L 2255,3509 L 2257,3510 L 2271,3524 L 2308,3549 L 2351,3557 L 2441,3557 L 2443,3558 L 2445,3558 L 2447,3559 L 2448,3561 L 2450,3563 L 2450,3565 L 2451,3567 L 2451,3569 L 2450,3571 L 2449,3573 L 2448,3575 L 2430,3593 L 2415,3628 L 2415,3665 L 2430,3700 L 2456,3727 L 2481,3737 L 2483,3738 L 2485,3740 L 2486,3742 L 2487,3743 L 2487,3746 L 2487,3748 L 2487,3750 L 2486,3752 L 2485,3753 L 2483,3755 L 2481,3756 L 2456,3766 L 2430,3793 L 2415,3828 L 2415,3865 L 2430,3900 L 2448,3919 L 2449,3920 L 2450,3922 L 2451,3924 L 2451,3926 L 2450,3929 L 2450,3930 L 2448,3932 L 2447,3934 L 2445,3935 L 2443,3935 L 2441,3936 L 2371,3936 L 2328,3944 L 2291,3969 L 2177,4083 L 2176,4084 L 2174,4085 L 2172,4085 L 2170,4086 L 2167,4085 L 2165,4084 L 2164,4083 L 2162,4082 L 2161,4080 L 2160,4077 L 2145,4040 L 2117,4012 L 2080,3997 L 2040,3997 L 2004,4012 L 1976,4040 L 1960,4077 L 1960,4116 L 1975,4153 L 2004,4181 L 2041,4197 L 2043,4197 L 2045,4199 L 2047,4200 L 2048,4202 L 2049,4204 L 2049,4206 L 2049,4208 L 2049,4210 L 2048,4212 L 2046,4214 L 2030,4230 L 2027,4232 L 2025,4233 L 2018,4234 L 1982,4258 L 1958,4294 L 1950,4337 L 1958,4379 L 1982,4415 L 2018,4439 L 2061,4447 L 2079,4447 L 2123,4439 L 2159,4414 L 2413,4160 L 2415,4159 L 2418,4158 L 2420,4157 L 2441,4157 L 2443,4158 L 2445,4158 L 2447,4159 L 2448,4161 L 2450,4163 L 2450,4165 L 2451,4167 L 2451,4169 L 2450,4171 L 2449,4173 L 2448,4174 L 2430,4193 L 2415,4228 L 2415,4265 L 2430,4300 L 2456,4327 L 2491,4341 L 2529,4342 L 2564,4327 L 2591,4300 L 2605,4266 L 2605,4228 L 2591,4193 L 2564,4166 L 2558,4164 L 2556,4163 L 2555,4161 L 2553,4159 L 2553,4157 L 2552,4155 L 2552,4153 L 2553,4151 L 2554,4149 L 2555,4147 L 2557,4146 L 2588,4125 L 2612,4089 L 2621,4047 L 2612,4004 L 2588,3968 L 2557,3947 L 2555,3946 L 2554,3944 L 2553,3942 L 2552,3940 L 2552,3938 L 2553,3936 L 2553,3934 L 2555,3932 L 2556,3931 L 2558,3929 L 2564,3927 L 2591,3900 L 2605,3866 L 2605,3828 L 2591,3793 L 2564,3766 L 2539,3756 L 2537,3755 L 2536,3753 L 2535,3752 L 2534,3750 L 2533,3748 L 2533,3746 L 2534,3743 L 2535,3741 L 2536,3740 L 2537,3738 L 2539,3737 L 2564,3727 L 2591,3700 L 2605,3666 L 2605,3628 L 2591,3593 L 2564,3566 L 2558,3564 L 2556,3563 L 2555,3561 L 2553,3560 L 2553,3558 L 2552,3555 L 2552,3553 L 2553,3551 L 2554,3549 L 2555,3548 L 2557,3546 L 2588,3525 L 2612,3489 L 2621,3447 L 2612,3404 L 2588,3368 L 2575,3360 L 2574,3358 L 2572,3356 L 2571,3355 L 2571,3352 L 2571,3350 L 2571,3348 L 2572,3346 L 2574,3344 L 2575,3343 L 2594,3330 L 2620,3292 L 2629,3247 L 2620,3201 L 2594,3163 L 2561,3141 L 2559,3139 L 2558,3137 L 2557,3135 L 2556,3132 L 2557,3130 L 2558,3123 L 2532,3097 L 2527,3099 L 2516,3101 L 2504,3101 L 2493,3099 L 2483,3094 L 2473,3088 L 2466,3079 L 2460,3069 L 2456,3058 L 2455,3047 L 2456,3035 L 2460,3025M 2560,3069 L 2587,3095 L 2595,3093 L 2606,3060 L 2604,3022 L 2595,3001 L 2587,2998 L 2560,3025 L 2564,3035 L 2565,3047 L 2564,3058 L 2560,3069M 1320,728 L 1320,695 L 1314,688 L 1281,688 L 1279,688 L 1277,687 L 1275,686 L 1273,684 L 1272,682 L 1271,680 L 1271,678 L 1271,667 L 1272,665 L 1273,662 L 1274,660 L 1318,616 L 1343,579 L 1351,536 L 1351,364 L 1351,362 L 1352,360 L 1353,358 L 1355,356 L 1357,355 L 1359,354 L 1361,354 L 1363,354 L 1381,358 L 1499,358 L 1515,355 L 1529,346 L 1538,333 L 1541,316 L 1541,198 L 1538,182 L 1530,169 L 1516,160 L 1499,156 L 1381,156 L 1366,159 L 1352,168 L 1343,181 L 1342,186 L 1341,188 L 1339,189 L 1337,190 L 1335,191 L 1333,192 L 1331,192 L 1329,191 L 1327,190 L 1326,189 L 1324,187 L 1319,179 L 1283,155 L 1240,146 L 1198,155 L 1162,179 L 1145,205 L 1143,207 L 1142,208 L 1140,209 L 1138,209 L 1136,209 L 1120,205 L 1094,231 L 1095,233 L 1099,245 L 1100,257 L 1099,270 L 1095,282 L 1089,292 L 1081,302 L 1070,309 L 1059,314 L 1047,317 L 1034,317 L 1022,314 L 1015,311 L 989,337 L 991,346 L 1026,358 L 1065,356 L 1090,346 L 1094,332 L 1095,329 L 1096,328 L 1098,326 L 1100,325 L 1102,324 L 1104,324 L 1107,325 L 1109,326 L 1112,329 L 1114,328 L 1116,327 L 1118,326 L 1120,326 L 1122,327 L 1124,328 L 1126,329 L 1127,330 L 1129,332 L 1129,334 L 1129,336 L 1129,487 L 1129,490 L 1128,492 L 1127,494 L 1083,538 L 1058,575 L 1050,618 L 1050,1176 L 1058,1219 L 1083,1256 L 1091,1265 L 1128,1289 L 1171,1298 L 1265,1298 L 1267,1298 L 1269,1299 L 1271,1300 L 1273,1301 L 1274,1303 L 1275,1305 L 1275,1307 L 1275,1309 L 1275,1311 L 1274,1313 L 1272,1315 L 1256,1331 L 1241,1367 L 1241,1407 L 1256,1443 L 1284,1471 L 1321,1486 L 1360,1486 L 1396,1471 L 1424,1443 L 1439,1407 L 1439,1367 L 1424,1331 L 1397,1303 L 1393,1301 L 1391,1300 L 1389,1299 L 1388,1297 L 1387,1295 L 1386,1293 L 1386,1291 L 1387,1289 L 1388,1287 L 1389,1285 L 1391,1284 L 1419,1265 L 1424,1257 L 1425,1256 L 1427,1254 L 1429,1253 L 1431,1253 L 1433,1253 L 1435,1253 L 1437,1254 L 1439,1255 L 1440,1257 L 1441,1258 L 1442,1260 L 1442,1263 L 1442,1265 L 1441,1267 L 1441,1307 L 1456,1343 L 1484,1371 L 1500,1378 L 1502,1379 L 1504,1380 L 1505,1382 L 1506,1384 L 1507,1386 L 1507,1388 L 1506,1390 L 1505,1392 L 1504,1394 L 1502,1395 L 1500,1396 L 1484,1403 L 1456,1431 L 1441,1467 L 1441,1507 L 1456,1543 L 1484,1571 L 1521,1586 L 1560,1586 L 1596,1571 L 1624,1543 L 1639,1507 L 1639,1467 L 1624,1431 L 1596,1403 L 1580,1396 L 1578,1395 L 1577,1394 L 1575,1392 L 1574,1390 L 1574,1388 L 1574,1386 L 1574,1384 L 1575,1382 L 1577,1380 L 1578,1379 L 1580,1378 L 1596,1371 L 1624,1343 L 1639,1307 L 1639,1267 L 1624,1231 L 1608,1215 L 1607,1213 L 1606,1211 L 1606,1209 L 1605,1207 L 1606,1205 L 1607,1203 L 1608,1201 L 1609,1200 L 1611,1199 L 1613,1198 L 1615,1198 L 1740,1198 L 1743,1198 L 1745,1199 L 1747,1201 L 1786,1240 L 1788,1242 L 1789,1244 L 1789,1247 L 1789,3376 L 1798,3419 L 1822,3455 L 1858,3479 L 1900,3487 L 1943,3479 L 1978,3455 L 2002,3419 L 2011,3376 L 2011,1209 L 2011,1207 L 2012,1205 L 2013,1203 L 2015,1201 L 2016,1200 L 2018,1199 L 2020,1199 L 2023,1199 L 2025,1199 L 2026,1200 L 2028,1202 L 2686,1860 L 2688,1862 L 2689,1864 L 2689,1867 L 2689,3136 L 2698,3179 L 2722,3216 L 2831,3324 L 2868,3349 L 2911,3358 L 2981,3358 L 2984,3358 L 2986,3359 L 2988,3360 L 2989,3361 L 2990,3363 L 2991,3365 L 2991,3368 L 2991,3446 L 3001,3492 L 3026,3530 L 3045,3543 L 3047,3544 L 3048,3546 L 3049,3548 L 3049,3550 L 3049,3552 L 3049,3554 L 3048,3556 L 3047,3558 L 3045,3560 L 3032,3568 L 3008,3604 L 2999,3647 L 3008,3689 L 3032,3725 L 3052,3738 L 3054,3740 L 3055,3741 L 3056,3743 L 3056,3746 L 3056,3748 L 3056,3750 L 3055,3752 L 3054,3754 L 3052,3755 L 3032,3768 L 3008,3804 L 2999,3847 L 3008,3889 L 3032,3925 L 3052,3938 L 3054,3940 L 3055,3941 L 3056,3943 L 3056,3945 L 3056,3948 L 3056,3950 L 3055,3952 L 3054,3953 L 3052,3955 L 3032,3968 L 3008,4004 L 2999,4047 L 3008,4089 L 3032,4125 L 3052,4138 L 3054,4140 L 3055,4141 L 3056,4143 L 3056,4145 L 3056,4148 L 3056,4150 L 3055,4152 L 3054,4153 L 3052,4155 L 3032,4168 L 3008,4204 L 2999,4247 L 3008,4289 L 3032,4325 L 3068,4349 L 3111,4357 L 3567,4357 L 3570,4358 L 3572,4359 L 3574,4360 L 3588,4374 L 3625,4399 L 3668,4407 L 4039,4407 L 4083,4399 L 4084,4398 L 4087,4397 L 4099,4397 L 4115,4395 L 4128,4386 L 4137,4372 L 4141,4356 L 4141,4344 L 4141,4341 L 4142,4339 L 4151,4297 L 4142,4254 L 4141,4252 L 4141,4249 L 4141,4237 L 4138,4222 L 4129,4208 L 4116,4199 L 4103,4196 L 4101,4196 L 4099,4195 L 4098,4193 L 4097,4192 L 4096,4190 L 4095,4187 L 4095,4185 L 4096,4183 L 4097,4181 L 4098,4180 L 4125,4153 L 4140,4117 L 4140,4077 L 4125,4041 L 4125,4039 L 4125,4037 L 4125,4035 L 4126,4033 L 4127,4031 L 4128,4029 L 4130,4028 L 4132,4028 L 4135,4027 L 5523,4027 L 5525,4028 L 5527,4029 L 5529,4030 L 5531,4032 L 5532,4034 L 5586,4165 L 5710,4289 L 5872,4356 L 6047,4357 L 6209,4290 L 6332,4166 L 6400,4004 L 6400,3829 L 6333,3668 L 6209,3544 L 6048,3477 L 5873,3477 L 5740,3531 L 5738,3532 L 5735,3532 L 5733,3532 L 5731,3531 L 5729,3529 L 5539,3339 L 5502,3314 L 5459,3306 L 5303,3306 L 5301,3306 L 5299,3305 L 5297,3304 L 5295,3302 L 5294,3301 L 5293,3299 L 5293,3296 L 5293,3294 L 5294,3292 L 5295,3290 L 5302,3279 L 5310,3237 L 5302,3194 L 5277,3158 L 5259,3139 L 5222,3114 L 5179,3106 L 3932,3106 L 3930,3106 L 3928,3105 L 3926,3104 L 3924,3102 L 3923,3101 L 3922,3099 L 3922,3097 L 3922,3094 L 3922,3092 L 3923,3090 L 3925,3089 L 4123,2891 L 4125,2889 L 4127,2888 L 4130,2888 L 4465,2888 L 4508,2879 L 4545,2854 L 4798,2602 L 4822,2565 L 4831,2522 L 4831,2278 L 4822,2234 L 4798,2199 L 4762,2175 L 4720,2166 L 4677,2175 L 4642,2199 L 4618,2234 L 4609,2278 L 4609,2473 L 4609,2475 L 4608,2478 L 4606,2480 L 4423,2663 L 4421,2665 L 4418,2666 L 4416,2666 L 4156,2666 L 4154,2666 L 4152,2665 L 4150,2664 L 4149,2662 L 4148,2661 L 4147,2659 L 4146,2657 L 4146,2654 L 4147,2652 L 4148,2650 L 4149,2649 L 4165,2633 L 4180,2597 L 4180,2557 L 4165,2520 L 4138,2494 L 4137,2492 L 4136,2490 L 4136,2488 L 4135,2486 L 4136,2484 L 4137,2482 L 4138,2480 L 4140,2479 L 4142,2478 L 4144,2477 L 4155,2475 L 4168,2466 L 4177,2453 L 4181,2436 L 4181,2424 L 4181,2421 L 4182,2420 L 4191,2377 L 4182,2334 L 4181,2332 L 4181,2330 L 4181,2318 L 4178,2302 L 4169,2288 L 4156,2279 L 4139,2276 L 4127,2276 L 4124,2275 L 4123,2275 L 4079,2266 L 3764,2266 L 3736,2272 L 3734,2272 L 3732,2271 L 3730,2271 L 3728,2270 L 3727,2268 L 3726,2266 L 3725,2264 L 3725,2262 L 3725,2260 L 3725,2258 L 3726,2256 L 3727,2255 L 3811,2171 L 3814,2169 L 3816,2168 L 3819,2168 L 4079,2168 L 4123,2159 L 4124,2158 L 4127,2158 L 4139,2158 L 4155,2155 L 4168,2146 L 4177,2133 L 4181,2116 L 4181,2104 L 4181,2101 L 4182,2100 L 4191,2057 L 4182,2014 L 4181,2012 L 4181,2010 L 4181,1998 L 4178,1982 L 4169,1968 L 4156,1959 L 4151,1958 L 4150,1957 L 4148,1956 L 4147,1954 L 4146,1952 L 4145,1950 L 4145,1948 L 4146,1946 L 4147,1944 L 4148,1942 L 4158,1935 L 4182,1899 L 4191,1857 L 4182,1815 L 4161,1783 L 4160,1781 L 4160,1779 L 4160,1777 L 4160,1775 L 4161,1773 L 4162,1771 L 4164,1770 L 4165,1769 L 4167,1768 L 4170,1768 L 5191,1768 L 5234,1759 L 5271,1735 L 5335,1671 L 5337,1669 L 5339,1668 L 5342,1668 L 5523,1668 L 5525,1668 L 5527,1669 L 5529,1670 L 5531,1672 L 5532,1674 L 5586,1806 L 5710,1930 L 5872,1997 L 6047,1997 L 6209,1930 L 6332,1806 L 6400,1645 L 6400,1470 L 6333,1308 L 6209,1184 L 6048,1117 L 5873,1117 L 5711,1184 L 5587,1307 L 5532,1440 L 5531,1442 L 5529,1444 L 5527,1445 L 5525,1446 L 5523,1446 L 5293,1446 L 5250,1455 L 5213,1479 L 5149,1543 L 5147,1545 L 5144,1546 L 5142,1546 L 4081,1546 L 4038,1555 L 4002,1579 L 3978,1615 L 3969,1657 L 3978,1699 L 3999,1730 L 4000,1732 L 4000,1734 L 4000,1737 L 4000,1739 L 3999,1741 L 3998,1743 L 3996,1744 L 3994,1745 L 3992,1746 L 3990,1746 L 3718,1746 L 3715,1746 L 3713,1745 L 3711,1743 L 2890,922 L 2888,920 L 2887,918 L 2887,916 L 2887,913 L 2888,911 L 2940,785 L 2940,610 L 2873,448 L 2750,324 L 2588,257 L 2413,257 L 2251,324 L 2127,448 L 2060,609 L 2060,784 L 2127,946 L 2251,1070 L 2412,1137 L 2587,1137 L 2726,1080 L 2728,1079 L 2730,1079 L 2732,1080 L 2735,1081 L 2736,1082 L 3589,1935 L 3626,1959 L 3669,1968 L 3679,1968 L 3681,1969 L 3683,1970 L 3684,1971 L 3685,1973 L 3686,1975 L 3687,1977 L 3687,1979 L 3686,1981 L 3685,1983 L 3684,1985 L 3336,2333 L 3333,2335 L 3331,2336 L 3328,2336 L 3111,2336 L 3068,2345 L 3032,2369 L 3008,2404 L 2999,2447 L 3008,2489 L 3032,2525 L 3064,2546 L 3065,2548 L 3067,2549 L 3068,2551 L 3068,2553 L 3068,2556 L 3068,2558 L 3067,2560 L 3065,2561 L 3064,2563 L 3062,2564 L 3056,2566 L 3030,2593 L 3015,2628 L 3015,2666 L 3029,2700 L 3056,2727 L 3062,2730 L 3064,2731 L 3065,2732 L 3067,2734 L 3068,2736 L 3068,2738 L 3068,2740 L 3068,2742 L 3067,2744 L 3065,2746 L 3064,2747 L 3032,2768 L 3008,2804 L 2999,2847 L 3008,2889 L 3032,2925 L 3052,2938 L 3054,2940 L 3055,2942 L 3056,2943 L 3056,2946 L 3056,2948 L 3056,2950 L 3055,2952 L 3054,2954 L 3052,2955 L 3032,2968 L 3008,3004 L 2999,3047 L 3008,3089 L 3029,3120 L 3030,3122 L 3030,3124 L 3030,3126 L 3030,3129 L 3029,3131 L 3028,3132 L 3026,3134 L 3025,3135 L 3023,3136 L 3020,3136 L 2960,3136 L 2958,3135 L 2955,3134 L 2953,3133 L 2914,3094 L 2912,3092 L 2911,3089 L 2911,3087 L 2911,1818 L 2902,1775 L 2878,1738 L 1949,809 L 1913,785 L 1869,776 L 1541,776 L 1498,785 L 1462,809 L 1456,817 L 1455,818 L 1453,819 L 1451,820 L 1449,820 L 1447,819 L 1445,818 L 1443,817 L 1433,807 L 1399,807 L 1399,846 L 1281,846 L 1281,728 L 1320,728M 1360,728 L 1399,728 L 1399,767 L 1433,767 L 1439,760 L 1439,720 L 1433,705 L 1422,694 L 1407,688 L 1367,688 L 1360,695 L 1360,728M 986,283 L 986,282 L 982,270 L 980,257 L 982,245 L 986,233 L 986,231 L 960,205 L 952,208 L 940,242 L 942,282 L 952,306 L 960,309 L 986,283M 1015,203 L 1022,200 L 1034,197 L 1047,197 L 1059,200 L 1066,203 L 1092,177 L 1090,169 L 1055,156 L 1015,158 L 991,168 L 989,177 L 1015,203 z " style="fill-opacity:1.000000;fill:rgb(232,231,141);stroke:rgb(0,0,0);stroke-width:2"/></g>
<g fill-rule="evenodd"><path d="M 4100,4097 L 4099,4109 L 4095,4121 L 4088,4132 L 4080,4141 L 4070,4149 L 4058,4154 L 4046,4156 L 4034,4156 L 4021,4154 L 4010,4149 L 4000,4141 L 3991,4132 L 3985,4121 L 3981,4109 L 3980,4097 L 3981,4084 L 3985,4072 L 3991,4061 L 4000,4052 L 4010,4045 L 4021,4039 L 4034,4037 L 4046,4037 L 4058,4039 L 4070,4045 L 4080,4052 L 4088,4061 L 4095,4072 L 4099,4084 L 4100,4097 z " style="fill-opacity:1.000000;fill:rgb(118,90,46);stroke:rgb(0,0,0);stroke-width:2"/></g>
<g fill-rule="evenodd"><path d="M 5260,697 L 5251,780 L 5225,860 L 5183,932 L 5127,994 L 5060,1043 L 4983,1077 L 4902,1095 L 4818,1095 L 4736,1077 L 4660,1043 L 4592,994 L 4536,932 L 4494,860 L 4469,780 L 4460,697 L 4469,614 L 4494,534 L 4536,462 L 4592,400 L 4660,351 L 4736,317 L 4818,299 L 4902,299 L 4983,317 L 5060,351 L 5127,400 L 5183,462 L 5225,534 L 5251,614 L 5260,697 z " style="fill-opacity:1.000000;fill:rgb(99,51,159);stroke:rgb(0,0,0);stroke-width:2"/></g>
<g fill-rule="evenodd"><path d="M 984,1605 L 981,1634 L 972,1663 L 957,1689 L 937,1711 L 912,1729 L 885,1741 L 855,1747 L 825,1747 L 796,1741 L 769,1729 L 744,1711 L 724,1689 L 709,1663 L 700,1634 L 697,1605 L 700,1575 L 709,1546 L 724,1520 L 744,1498 L 769,1480 L 796,1468 L 825,1462 L 855,1462 L 885,1468 L 912,1480 L 937,1498 L 957,1520 L 972,1546 L 981,1575 L 984,1605 z " style="fill-opacity:1.000000;fill:rgb(201,154,102);stroke:rgb(0,0,0);stroke-width:2"/></g>
<g fill-rule="evenodd"><path d="M 984,670 L 981,700 L 972,728 L 957,754 L 937,777 L 912,794 L 885,807 L 855,813 L 825,813 L 796,807 L 769,794 L 744,777 L 724,754 L 709,728 L 700,700 L 697,670 L 700,640 L 709,612 L 724,586 L 744,563 L 769,546 L 796,533 L 825,527 L 855,527 L 885,533 L 912,546 L 937,563 L 957,586 L 972,612 L 981,640 L 984,670 z " style="fill-opacity:1.000000;fill:rgb(50,13,183);stroke:rgb(0,0,0);stroke-width:2"/></g>
<g fill-rule="evenodd"><path d="M 1399,987 L 1398,999 L 1394,1011 L 1388,1022 L 1380,1031 L 1370,1038 L 1359,1043 L 1347,1046 L 1334,1046 L 1322,1043 L 1311,1038 L 1301,1031 L 1293,1022 L 1286,1011 L 1283,999 L 1281,987 L 1283,975 L 1286,963 L 1293,952 L 1301,943 L 1311,936 L 1322,931 L 1334,928 L 1347,928 L 1359,931 L 1370,936 L 1380,943 L 1388,952 L 1394,963 L 1398,975 L 1399,987 z " style="fill-opacity:1.000000;fill:rgb(49,88,163);stroke:rgb(0,0,0);stroke-width:2"/></g>
<g fill-rule="evenodd"><path d="M 1599,1287 L 1598,1299 L 1594,1311 L 1588,1322 L 1580,1331 L 1570,1338 L 1559,1343 L 1546,1346 L 1534,1346 L 1522,1343 L 1511,1338 L 1501,1331 L 1492,1322 L 1486,1311 L 1482,1299 L 1481,1287 L 1482,1275 L 1486,1263 L 1492,1252 L 1501,1243 L 1511,1236 L 1522,1231 L 1534,1228 L 1546,1228 L 1559,1231 L 1570,1236 L 1580,1243 L 1588,1252 L 1594,1263 L 1598,1275 L 1599,1287 z " style="fill-opacity:1.000000;fill:rgb(90,37,93);stroke:rgb(0,0,0);stroke-width:2"/></g>
<g fill-rule="evenodd"><path d="M 1399,1387 L 1398,1399 L 1394,1411 L 1388,1422 L 1380,1431 L 1370,1438 L 1359,1443 L 1347,1446 L 1334,1446 L 1322,1443 L 1311,1438 L 1301,1431 L 1293,1422 L 1286,1411 L 1283,1399 L 1281,1387 L 1283,1375 L 1286,1363 L 1293,1352 L 1301,1343 L 1311,1336 L 1322,1331 L 1334,1328 L 1347,1328 L 1359,1331 L 1370,1336 L 1380,1343 L 1388,1352 L 1394,1363 L 1398,1375 L 1399,1387 z " style="fill-opacity:1.000000;fill:rgb(5,23,88);stroke:rgb(0,0,0);stroke-width:2"/></g>
<g fill-rule="evenodd"><path d="M 1599,1487 L 1598,1499 L 1594,1511 L 1588,1522 L 1580,1531 L 1570,1538 L 1559,1543 L 1546,1546 L 1534,1546 L 1522,1543 L 1511,1538 L 1501,1531 L 1492,1522 L 1486,1511 L 1482,1499 L 1481,1487 L 1482,1475 L 1486,1463 L 1492,1452 L 1501,1443 L 1511,1436 L 1522,1431 L 1534,1428 L 1546,1428 L 1559,1431 L 1570,1436 L 1580,1443 L 1588,1452 L 1594,1463 L 1598,1475 L 1599,1487 z " style="fill-opacity:1.000000;fill:rgb(233,94,212);stroke:rgb(0,0,0);stroke-width:2"/></g>
<g fill-rule="evenodd"><path d="M 5260,2237 L 5258,2249 L 5255,2261 L 5248,2272 L 5240,2281 L 5230,2289 L 5218,2294 L 5206,2296 L 5194,2296 L 5181,2294 L 5170,2289 L 5160,2281 L 5151,2272 L 5145,2261 L 5141,2249 L 5140,2237 L 5141,2224 L 5145,2212 L 5151,2202 L 5160,2192 L 5170,2185 L 5181,2180 L 5194,2177 L 5206,2177 L 5218,2180 L 5230,2185 L 5240,2192 L 5248,2202 L 5255,2212 L 5258,2224 L 5260,2237 z " style="fill-opacity:1.000000;fill:rgb(171,178,205);stroke:rgb(0,0,0);stroke-width:2"/></g>
<g fill-rule="evenodd"><path d="M 4780,1277 L 4779,1289 L 4775,1301 L 4768,1312 L 4760,1322 L 4750,1329 L 4738,1334 L 4726,1337 L 4714,1337 L 4701,1334 L 4690,1329 L 4680,1322 L 4671,1312 L 4665,1301 L 4661,1289 L 4660,1277 L 4661,1264 L 4665,1253 L 4671,1242 L 4680,1232 L 4690,1225 L 4701,1220 L 4714,1217 L 4726,1217 L 4738,1220 L 4750,1225 L 4760,1232 L 4768,1242 L 4775,1253 L 4779,1264 L 4780,1277 z " style="fill-opacity:1.000000;fill:rgb(198,155,180);stroke:rgb(0,0,0);stroke-width:2"/></g>
<g fill-rule="evenodd"><path d="M 960,3377 L 959,3389 L 955,3401 L 949,3412 L 941,3421 L 930,3429 L 919,3434 L 907,3436 L 894,3436 L 882,3434 L 870,3429 L 860,3421 L 852,3412 L 846,3401 L 842,3389 L 840,3377 L 842,3364 L 846,3352 L 852,3341 L 860,3332 L 870,3325 L 882,3320 L 894,3317 L 907,3317 L 919,3320 L 930,3325 L 941,3332 L 949,3341 L 955,3352 L 959,3364 L 960,3377 z " style="fill-opacity:1.000000;fill:rgb(84,17,14);stroke:rgb(0,0,0);stroke-width:2"/></g>
<g fill-rule="evenodd"><path d="M 2120,4097 L 2119,4109 L 2115,4121 L 2109,4132 L 2100,4141 L 2090,4149 L 2079,4154 L 2066,4156 L 2054,4156 L 2042,4154 L 2030,4149 L 2020,4141 L 2012,4132 L 2005,4121 L 2002,4109 L 2000,4097 L 2002,4084 L 2005,4072 L 2012,4061 L 2020,4052 L 2030,4045 L 2042,4039 L 2054,4037 L 2066,4037 L 2079,4039 L 2090,4045 L 2100,4052 L 2109,4061 L 2115,4072 L 2119,4084 L 2120,4097 z " style="fill-opacity:1.000000;fill:rgb(130,116,65);stroke:rgb(0,0,0);stroke-width:2"/></g>
<g fill-rule="evenodd"><path d="M 4140,2577 L 4139,2589 L 4135,2601 L 4128,2612 L 4120,2621 L 4110,2629 L 4098,2634 L 4086,2636 L 4074,2636 L 4061,2634 L 4050,2629 L 4040,2621 L 4031,2612 L 4025,2601 L 4021,2589 L 4020,2577 L 4021,2564 L 4025,2552 L 4031,2542 L 4040,2532 L 4050,2525 L 4061,2520 L 4074,2517 L 4086,2517 L 4098,2520 L 4110,2525 L 4120,2532 L 4128,2542 L 4135,2552 L 4139,2564 L 4140,2577 z " style="fill-opacity:1.000000;fill:rgb(33,61,220);stroke:rgb(0,0,0);stroke-width:2"/></g>
<g fill-rule="evenodd"><path d="M 1380,317 L 1380,197 L 1500,197 L 1500,317 L 1380,317 z " style="fill-opacity:1.000000;fill:rgb(135,112,233);stroke:rgb(0,0,0);stroke-width:2"/></g>
<g fill-rule="evenodd"><path d="M 2455,2502 L 2455,2392 L 2565,2392 L 2565,2502 L 2455,2502 z " style="fill-opacity:1.000000;fill:rgb(62,161,65);stroke:rgb(0,0,0);stroke-width:2"/></g>
<g fill-rule="evenodd"><path d="M 2565,2647 L 2564,2658 L 2560,2669 L 2555,2679 L 2547,2688 L 2538,2694 L 2527,2699 L 2516,2701 L 2504,2701 L 2493,2699 L 2483,2694 L 2473,2688 L 2466,2679 L 2460,2669 L 2456,2658 L 2455,2647 L 2456,2635 L 2460,2624 L 2466,2614 L 2473,2606 L 2483,2599 L 2493,2594 L 2504,2592 L 2516,2592 L 2527,2594 L 2538,2599 L 2547,2606 L 2555,2614 L 2560,2624 L 2564,2635 L 2565,2647 z " style="fill-opacity:1.000000;fill:rgb(225,252,103);stroke:rgb(0,0,0);stroke-width:2"/></g>
<g fill-rule="evenodd"><path d="M 2565,2847 L 2564,2858 L 2560,2869 L 2555,2879 L 2547,2888 L 2538,2894 L 2527,2899 L 2516,2901 L 2504,2901 L 2493,2899 L 2483,2894 L 2473,2888 L 2466,2879 L 2460,2869 L 2456,2858 L 2455,2847 L 2456,2835 L 2460,2824 L 2466,2814 L 2473,2806 L 2483,2799 L 2493,2794 L 2504,2792 L 2516,2792 L 2527,2794 L 2538,2799 L 2547,2806 L 2555,2814 L 2560,2824 L 2564,2835 L 2565,2847 z " style="fill-opacity:1.000000;fill:rgb(62,1,126);stroke:rgb(0,0,0);stroke-width:2"/></g>
<g fill-rule="evenodd"><path d="M 2565,3647 L 2564,3658 L 2560,3669 L 2555,3679 L 2547,3687 L 2538,3694 L 2527,3699 L 2516,3701 L 2504,3701 L 2493,3699 L 2483,3694 L 2473,3687 L 2466,3679 L 2460,3669 L 2456,3658 L 2455,3647 L 2456,3635 L 2460,3624 L 2466,3614 L 2473,3606 L 2483,3599 L 2493,3594 L 2504,3592 L 2516,3592 L 2527,3594 L 2538,3599 L 2547,3606 L 2555,3614 L 2560,3624 L 2564,3635 L 2565,3647 z " style="fill-opacity:1.000000;fill:rgb(151,234,220);stroke:rgb(0,0,0);stroke-width:2"/></g>
<g fill-rule="evenodd"><path d="M 2565,3847 L 2564,3858 L 2560,3869 L 2555,3879 L 2547,3887 L 2538,3894 L 2527,3899 L 2516,3901 L 2504,3901 L 2493,3899 L 2483,3894 L 2473,3887 L 2466,3879 L 2460,3869 L 2456,3858 L 2455,3847 L 2456,3835 L 2460,3824 L 2466,3814 L 2473,3806 L 2483,3799 L 2493,3794 L 2504,3792 L 2516,3792 L 2527,3794 L 2538,3799 L 2547,3806 L 2555,3814 L 2560,3824 L 2564,3835 L 2565,3847 z " style="fill-opacity:1.000000;fill:rgb(107,150,143);stroke:rgb(0,0,0);stroke-width:2"/></g>
<g fill-rule="evenodd"><path d="M 2565,4247 L 2564,4258 L 2560,4269 L 2555,4279 L 2547,4287 L 2538,4294 L 2527,4299 L 2516,4301 L 2504,4301 L 2493,4299 L 2483,4294 L 2473,4287 L 2466,4279 L 2460,4269 L 2456,4258 L 2455,4247 L 2456,4235 L 2460,4224 L 2466,4214 L 2473,4206 L 2483,4199 L 2493,4194 L 2504,4192 L 2516,4192 L 2527,4194 L 2538,4199 L 2547,4206 L 2555,4214 L 2560,4224 L 2564,4235 L 2565,4247 z " style="fill-opacity:1.000000;fill:rgb(56,92,42);stroke:rgb(0,0,0);stroke-width:2"/></g>
<g fill-rule="evenodd"><path d="M 3165,2647 L 3164,2658 L 3160,2669 L 3155,2679 L 3147,2688 L 3138,2694 L 3127,2699 L 3116,2701 L 3104,2701 L 3093,2699 L 3083,2694 L 3073,2688 L 3066,2679 L 3060,2669 L 3056,2658 L 3055,2647 L 3056,2635 L 3060,2624 L 3066,2614 L 3073,2606 L 3083,2599 L 3093,2594 L 3104,2592 L 3116,2592 L 3127,2594 L 3138,2599 L 3147,2606 L 3155,2614 L 3160,2624 L 3164,2635 L 3165,2647 z " style="fill-opacity:1.000000;fill:rgb(236,176,59);stroke:rgb(0,0,0);stroke-width:2"/></g>
<g fill-rule="evenodd"><path d="M 2831,920 L 3697,1786 L 4080,1786 L 4095,1788 L 4109,1792 L 4122,1800 L 4133,1809 L 4141,1821 L 4147,1835 L 4150,1849 L 4150,1864 L 4147,1879 L 4141,1892 L 4133,1904 L 4122,1914 L 4109,1922 L 4095,1926 L 4080,1928 L 3668,1928 L 3650,1925 L 3633,1918 L 3618,1907 L 2732,1021 L 2700,1043 L 2624,1077 L 2542,1095 L 2458,1095 L 2377,1077 L 2300,1043 L 2233,994 L 2177,932 L 2135,860 L 2109,780 L 2100,697 L 2109,614 L 2135,534 L 2177,462 L 2233,400 L 2300,351 L 2377,317 L 2458,299 L 2542,299 L 2624,317 L 2700,351 L 2768,400 L 2824,462 L 2866,534 L 2891,614 L 2900,697 L 2891,780 L 2866,860 L 2831,920 z " style="fill-opacity:1.000000;fill:rgb(251,50,175);stroke:rgb(0,0,0);stroke-width:2"/></g>
<g fill-rule="evenodd"><path d="M 4140,2339 L 4141,2341 L 4147,2355 L 4150,2369 L 4150,2384 L 4147,2399 L 4141,2412 L 4140,2414 L 4140,2437 L 4117,2437 L 4109,2442 L 4095,2446 L 4080,2448 L 3793,2448 L 3344,2897 L 3329,2908 L 3312,2915 L 3294,2918 L 3110,2918 L 3095,2916 L 3081,2911 L 3068,2904 L 3057,2894 L 3049,2882 L 3043,2869 L 3040,2854 L 3040,2839 L 3043,2825 L 3049,2811 L 3057,2799 L 3068,2789 L 3081,2782 L 3095,2777 L 3110,2776 L 3264,2776 L 3713,2327 L 3728,2315 L 3745,2308 L 3763,2306 L 4080,2306 L 4095,2307 L 4109,2312 L 4117,2317 L 4140,2317 L 4140,2339 z " style="fill-opacity:1.000000;fill:rgb(60,84,236);stroke:rgb(0,0,0);stroke-width:2"/></g>
<g fill-rule="evenodd"><path d="M 5567,3846 L 5568,3833 L 5594,3754 L 5632,3689 L 5430,3488 L 4040,3488 L 4025,3486 L 4011,3481 L 3998,3474 L 3987,3464 L 3979,3452 L 3973,3439 L 3969,3424 L 3969,3409 L 3973,3395 L 3979,3381 L 3987,3369 L 3998,3359 L 4011,3352 L 4025,3347 L 4040,3346 L 5460,3346 L 5478,3348 L 5495,3355 L 5510,3367 L 5733,3590 L 5760,3570 L 5836,3536 L 5918,3519 L 6001,3519 L 6083,3536 L 6160,3570 L 6227,3619 L 6283,3681 L 6325,3754 L 6351,3833 L 6360,3917 L 6351,4000 L 6325,4079 L 6283,4152 L 6227,4214 L 6160,4263 L 6083,4297 L 6001,4314 L 5918,4314 L 5836,4297 L 5760,4263 L 5692,4214 L 5636,4152 L 5594,4079 L 5568,4000 L 5567,3987 L 4060,3987 L 4042,3985 L 4025,3978 L 4011,3967 L 3848,3967 L 3718,4097 L 3704,4108 L 3687,4115 L 3668,4117 L 3110,4117 L 3095,4116 L 3081,4111 L 3068,4104 L 3057,4094 L 3049,4082 L 3043,4068 L 3040,4054 L 3040,4039 L 3043,4025 L 3049,4011 L 3057,3999 L 3068,3989 L 3081,3982 L 3095,3977 L 3110,3976 L 3639,3976 L 3768,3846 L 3783,3835 L 3800,3828 L 3818,3826 L 4040,3826 L 4058,3828 L 4075,3835 L 4089,3846 L 5567,3846 z " style="fill-opacity:1.000000;fill:rgb(24,219,92);stroke:rgb(0,0,0);stroke-width:2"/></g>
<g fill-rule="evenodd"><path d="M 4077,4237 L 4100,4237 L 4100,4259 L 4101,4261 L 4107,4275 L 4110,4289 L 4110,4304 L 4107,4318 L 4101,4332 L 4100,4334 L 4100,4357 L 4077,4357 L 4069,4361 L 4055,4366 L 4040,4367 L 3667,4367 L 3649,4365 L 3632,4358 L 3617,4347 L 3588,4317 L 3110,4317 L 3095,4316 L 3081,4311 L 3068,4304 L 3057,4294 L 3049,4282 L 3043,4268 L 3040,4254 L 3040,4239 L 3043,4225 L 3049,4211 L 3057,4199 L 3068,4189 L 3081,4182 L 3095,4177 L 3110,4176 L 3617,4176 L 3635,4178 L 3653,4185 L 3667,4196 L 3696,4226 L 4040,4226 L 4055,4227 L 4069,4232 L 4077,4237 z " style="fill-opacity:1.000000;fill:rgb(2,26,254);stroke:rgb(0,0,0);stroke-width:2"/></g>
<g fill-rule="evenodd"><path d="M 4077,3557 L 4100,3557 L 4100,3579 L 4101,3581 L 4107,3595 L 4110,3609 L 4110,3624 L 4107,3639 L 4101,3652 L 4100,3654 L 4100,3677 L 4077,3677 L 4069,3681 L 4055,3686 L 4040,3687 L 3655,3687 L 3446,3897 L 3431,3908 L 3414,3915 L 3396,3917 L 3110,3917 L 3095,3916 L 3081,3911 L 3068,3904 L 3057,3894 L 3049,3882 L 3043,3868 L 3040,3854 L 3040,3839 L 3043,3825 L 3049,3811 L 3057,3799 L 3068,3789 L 3081,3782 L 3095,3777 L 3110,3776 L 3367,3776 L 3576,3567 L 3590,3555 L 3607,3548 L 3626,3546 L 4040,3546 L 4055,3547 L 4069,3552 L 4077,3557 z " style="fill-opacity:1.000000;fill:rgb(67,251,250);stroke:rgb(0,0,0);stroke-width:2"/></g>
<g fill-rule="evenodd"><path d="M 4117,1997 L 4140,1997 L 4140,2020 L 4141,2021 L 4147,2035 L 4150,2049 L 4150,2064 L 4147,2079 L 4141,2092 L 4140,2094 L 4140,2117 L 4117,2117 L 4109,2122 L 4095,2126 L 4080,2128 L 3798,2128 L 3429,2497 L 3414,2508 L 3397,2515 L 3379,2518 L 3110,2518 L 3095,2516 L 3081,2512 L 3068,2504 L 3057,2494 L 3049,2482 L 3043,2469 L 3040,2454 L 3040,2439 L 3043,2425 L 3049,2411 L 3057,2399 L 3068,2389 L 3081,2382 L 3095,2377 L 3110,2376 L 3349,2376 L 3718,2007 L 3733,1995 L 3750,1988 L 3768,1986 L 4080,1986 L 4095,1988 L 4109,1992 L 4117,1997 z " style="fill-opacity:1.000000;fill:rgb(170,58,251);stroke:rgb(0,0,0);stroke-width:2"/></g>
<g fill-rule="evenodd"><path d="M 5567,1486 L 5568,1474 L 5594,1394 L 5636,1322 L 5692,1260 L 5760,1211 L 5836,1177 L 5918,1159 L 6001,1159 L 6083,1177 L 6160,1211 L 6227,1260 L 6283,1322 L 6325,1394 L 6351,1474 L 6360,1557 L 6351,1640 L 6325,1720 L 6283,1792 L 6227,1854 L 6160,1903 L 6083,1937 L 6001,1955 L 5918,1955 L 5836,1937 L 5760,1903 L 5692,1854 L 5636,1792 L 5594,1720 L 5568,1640 L 5567,1628 L 5321,1628 L 5242,1707 L 5227,1718 L 5210,1725 L 5192,1728 L 4080,1728 L 4065,1726 L 4051,1722 L 4038,1714 L 4027,1704 L 4019,1692 L 4013,1679 L 4009,1664 L 4009,1649 L 4013,1635 L 4019,1621 L 4027,1609 L 4038,1600 L 4051,1592 L 4065,1588 L 4080,1586 L 5163,1586 L 5242,1507 L 5256,1496 L 5274,1488 L 5292,1486 L 5567,1486 z " style="fill-opacity:1.000000;fill:rgb(41,209,230);stroke:rgb(0,0,0);stroke-width:2"/></g>
<g fill-rule="evenodd"><path d="M 3031,3318 L 2910,3318 L 2892,3315 L 2875,3308 L 2860,3297 L 2750,3187 L 2739,3172 L 2732,3155 L 2729,3137 L 2729,1846 L 1841,958 L 1540,958 L 1526,956 L 1511,952 L 1499,944 L 1488,934 L 1479,922 L 1473,909 L 1470,894 L 1470,880 L 1473,865 L 1479,852 L 1488,840 L 1499,830 L 1511,822 L 1526,818 L 1540,816 L 1870,816 L 1889,819 L 1906,826 L 1920,837 L 2850,1767 L 2861,1781 L 2869,1799 L 2871,1817 L 2871,3107 L 2939,3176 L 3077,3176 L 3086,3172 L 3102,3168 L 3118,3168 L 3134,3172 L 3149,3178 L 3163,3188 L 3174,3200 L 3182,3215 L 3187,3230 L 3189,3247 L 3189,3447 L 3187,3463 L 3182,3479 L 3174,3493 L 3163,3505 L 3149,3515 L 3134,3522 L 3118,3525 L 3102,3525 L 3086,3522 L 3071,3515 L 3057,3505 L 3046,3493 L 3038,3479 L 3033,3463 L 3031,3447 L 3031,3318 z " style="fill-opacity:1.000000;fill:rgb(5,60,124);stroke:rgb(0,0,0);stroke-width:2"/></g>
</svg>
