<?xml version="1.0" standalone="no"?>
<!DOCTYPE svg PUBLIC "-//W3C//DTD SVG 1.1//EN"
"http://www.w3.org/Graphics/SVG/1.1/DTD/svg11.dtd">
<svg width="6594" height="4625" viewBox="0 0 6594 4625" version="1.1"
xmlns="http://www.w3.org/2000/svg"
xmlns:xlink="http://www.w3.org/1999/xlink">
<g fill-rule="evenodd"><path d="M 1810,2566 L 2500,2566 L 2515,2567 L 2529,2572 L 2542,2579 L 2553,2589 L 2562,2601 L 2568,2615 L 2571,2629 L 2571,2644 L 2568,2659 L 2562,2672 L 2553,2684 L 2542,2694 L 2529,2701 L 2515,2706 L 2500,2708 L 1780,2708 L 1762,2705 L 1745,2698 L 1730,2687 L 1480,2437 L 1469,2422 L 1462,2405 L 1459,2387 L 1459,1477 L 1461,1462 L 1466,1448 L 1473,1435 L 1483,1424 L 1495,1416 L 1508,1410 L 1523,1406 L 1538,1406 L 1552,1410 L 1566,1416 L 1578,1424 L 1588,1435 L 1595,1448 L 1600,1462 L 1601,1477 L 1601,2357 L 1810,2566 z " style="fill-opacity:1.000000;fill:rgb(103,198,105);stroke:rgb(0,0,0);stroke-width:2"/></g>
<g fill-rule="evenodd"><path d="M 1530,2766 L 2500,2766 L 2515,2767 L 2529,2772 L 2542,2779 L 2553,2789 L 2562,2801 L 2568,2815 L 2571,2829 L 2571,2844 L 2568,2859 L 2562,2872 L 2553,2884 L 2542,2894 L 2529,2901 L 2515,2906 L 2500,2908 L 1500,2908 L 1482,2905 L 1465,2898 L 1450,2887 L 1280,2717 L 1269,2702 L 1262,2685 L 1259,2667 L 1259,1377 L 1261,1362 L 1266,1348 L 1273,1335 L 1283,1324 L 1295,1316 L 1308,1310 L 1323,1306 L 1338,1306 L 1352,1310 L 1366,1316 L 1378,1324 L 1388,1335 L 1395,1348 L 1400,1362 L 1401,1377 L 1401,2637 L 1530,2766 z " style="fill-opacity:1.000000;fill:rgb(115,81,255);stroke:rgb(0,0,0);stroke-width:2"/></g>
<g fill-rule="evenodd"><path d="M 2150,3707 L 1960,3897 L 1946,3908 L 1929,3915 L 1910,3917 L 670,3917 L 652,3915 L 635,3908 L 620,3897 L 380,3657 L 369,3642 L 362,3625 L 360,3607 L 360,1087 L 362,1069 L 369,1052 L 380,1037 L 490,927 L 505,916 L 522,909 L 540,906 L 1330,906 L 1345,908 L 1359,912 L 1372,920 L 1383,930 L 1392,942 L 1398,955 L 1401,970 L 1401,984 L 1398,999 L 1392,1012 L 1383,1024 L 1372,1034 L 1359,1042 L 1345,1046 L 1330,1048 L 570,1048 L 501,1116 L 501,3577 L 700,3776 L 1881,3776 L 2070,3587 L 2085,3575 L 2102,3568 L 2120,3566 L 2500,3566 L 2515,3567 L 2529,3572 L 2542,3579 L 2553,3589 L 2562,3601 L 2568,3615 L 2571,3629 L 2571,3644 L 2568,3659 L 2562,3672 L 2553,3684 L 2542,3694 L 2529,3701 L 2515,3706 L 2500,3707 L 2150,3707 z " style="fill-opacity:1.000000;fill:rgb(74,236,41);stroke:rgb(0,0,0);stroke-width:2"/></g>
<g fill-rule="evenodd"><path d="M 961,3258 L 961,3367 L 960,3381 L 955,3395 L 948,3408 L 938,3419 L 926,3428 L 912,3434 L 898,3437 L 883,3437 L 868,3434 L 855,3428 L 843,3419 L 833,3408 L 826,3395 L 821,3381 L 820,3367 L 820,3227 L 822,3208 L 829,3191 L 840,3177 L 880,3137 L 895,3125 L 912,3118 L 930,3116 L 2230,3116 L 2245,3117 L 2259,3122 L 2272,3129 L 2283,3139 L 2292,3151 L 2298,3165 L 2301,3179 L 2301,3194 L 2298,3209 L 2292,3222 L 2283,3234 L 2272,3244 L 2259,3251 L 2245,3256 L 2230,3258 L 961,3258 z " style="fill-opacity:1.000000;fill:rgb(205,186,171);stroke:rgb(0,0,0);stroke-width:2"/></g>
<g fill-rule="evenodd"><path d="M 4154,2496 L 4328,2322 L 4328,1751 L 4295,1718 L 4070,1718 L 4055,1716 L 4041,1712 L 4028,1704 L 4017,1694 L 4009,1682 L 4003,1669 L 3999,1654 L 3999,1639 L 4003,1625 L 4009,1611 L 4017,1599 L 4028,1590 L 4041,1582 L 4055,1578 L 4070,1576 L 4324,1576 L 4342,1578 L 4359,1586 L 4374,1597 L 4449,1671 L 4460,1686 L 4467,1703 L 4470,1722 L 4470,2351 L 4467,2370 L 4460,2387 L 4449,2401 L 4233,2617 L 4219,2628 L 4202,2635 L 4183,2638 L 3898,2638 L 3848,2687 L 3834,2698 L 3817,2705 L 3798,2708 L 3100,2708 L 3085,2706 L 3071,2701 L 3058,2694 L 3047,2684 L 3039,2672 L 3033,2659 L 3030,2644 L 3030,2629 L 3033,2615 L 3039,2601 L 3047,2589 L 3058,2579 L 3071,2572 L 3085,2567 L 3100,2566 L 3769,2566 L 3818,2517 L 3833,2505 L 3850,2498 L 3868,2496 L 4154,2496 z " style="fill-opacity:1.000000;fill:rgb(242,251,227);stroke:rgb(0,0,0);stroke-width:2"/></g>
<g fill-rule="evenodd"><path d="M 2895,4290 L 3011,4406 L 3267,4406 L 3637,4036 L 3652,4025 L 3669,4018 L 3687,4016 L 4030,4016 L 4045,4017 L 4059,4022 L 4072,4029 L 4083,4039 L 4091,4051 L 4097,4065 L 4100,4079 L 4100,4094 L 4097,4108 L 4091,4122 L 4083,4134 L 4072,4144 L 4059,4151 L 4045,4156 L 4030,4157 L 3716,4157 L 3347,4527 L 3332,4538 L 3315,4545 L 3297,4548 L 2982,4548 L 2963,4545 L 2946,4538 L 2931,4527 L 2774,4370 L 2763,4355 L 2756,4338 L 2753,4320 L 2753,1958 L 2756,1939 L 2763,1922 L 2774,1908 L 2885,1797 L 2900,1786 L 2917,1778 L 2935,1776 L 4070,1776 L 4085,1778 L 4099,1782 L 4112,1790 L 4123,1799 L 4131,1811 L 4137,1825 L 4140,1839 L 4140,1854 L 4137,1869 L 4131,1882 L 4123,1894 L 4112,1904 L 4099,1912 L 4085,1916 L 4070,1918 L 2964,1918 L 2895,1987 L 2895,4290 z " style="fill-opacity:1.000000;fill:rgb(70,124,194);stroke:rgb(0,0,0);stroke-width:2"/></g>
<g fill-rule="evenodd"><path d="M 3970,4347 L 3970,4227 L 4090,4227 L 4090,4347 L 3970,4347 z " style="fill-opacity:1.000000;fill:rgb(84,248,27);stroke:rgb(0,0,0);stroke-width:2"/></g>
<g fill-rule="evenodd"><path d="M 4090,3887 L 4089,3899 L 4085,3911 L 4078,3922 L 4070,3931 L 4060,3939 L 4048,3944 L 4036,3946 L 4024,3946 L 4011,3944 L 4000,3939 L 3990,3931 L 3981,3922 L 3975,3911 L 3971,3899 L 3970,3887 L 3971,3874 L 3975,3862 L 3981,3851 L 3990,3842 L 4000,3835 L 4011,3830 L 4024,3827 L 4036,3827 L 4048,3830 L 4060,3835 L 4070,3842 L 4078,3851 L 4085,3862 L 4089,3874 L 4090,3887 z " style="fill-opacity:1.000000;fill:rgb(232,231,141);stroke:rgb(0,0,0);stroke-width:2"/></g>
<g fill-rule="evenodd"><path d="M 3970,3667 L 3970,3547 L 4090,3547 L 4090,3667 L 3970,3667 z " style="fill-opacity:1.000000;fill:rgb(118,90,46);stroke:rgb(0,0,0);stroke-width:2"/></g>
<g fill-rule="evenodd"><path d="M 4090,3407 L 4089,3419 L 4085,3431 L 4078,3442 L 4070,3451 L 4060,3459 L 4048,3464 L 4036,3466 L 4024,3466 L 4011,3464 L 4000,3459 L 3990,3451 L 3981,3442 L 3975,3431 L 3971,3419 L 3970,3407 L 3971,3394 L 3975,3382 L 3981,3371 L 3990,3362 L 4000,3355 L 4011,3350 L 4024,3347 L 4036,3347 L 4048,3350 L 4060,3355 L 4070,3362 L 4078,3371 L 4085,3382 L 4089,3394 L 4090,3407 z " style="fill-opacity:1.000000;fill:rgb(99,51,159);stroke:rgb(0,0,0);stroke-width:2"/></g>
<g fill-rule="evenodd"><path d="M 4090,3207 L 4089,3219 L 4085,3231 L 4078,3242 L 4070,3251 L 4060,3259 L 4048,3264 L 4036,3266 L 4024,3266 L 4011,3264 L 4000,3259 L 3990,3251 L 3981,3242 L 3975,3231 L 3971,3219 L 3970,3207 L 3971,3194 L 3975,3182 L 3981,3171 L 3990,3162 L 4000,3155 L 4011,3150 L 4024,3147 L 4036,3147 L 4048,3150 L 4060,3155 L 4070,3162 L 4078,3171 L 4085,3182 L 4089,3194 L 4090,3207 z " style="fill-opacity:1.000000;fill:rgb(201,154,102);stroke:rgb(0,0,0);stroke-width:2"/></g>
<g fill-rule="evenodd"><path d="M 2890,687 L 2881,770 L 2856,850 L 2814,922 L 2758,984 L 2690,1033 L 2614,1067 L 2532,1085 L 2448,1085 L 2367,1067 L 2290,1033 L 2223,984 L 2167,922 L 2125,850 L 2099,770 L 2090,687 L 2099,604 L 2125,524 L 2167,452 L 2223,390 L 2290,341 L 2367,307 L 2448,289 L 2532,289 L 2614,307 L 2690,341 L 2758,390 L 2814,452 L 2856,524 L 2881,604 L 2890,687 z " style="fill-opacity:1.000000;fill:rgb(50,13,183);stroke:rgb(0,0,0);stroke-width:2"/></g>
<g fill-rule="evenodd"><path d="M 1110,4327 L 1109,4339 L 1105,4351 L 1099,4362 L 1091,4371 L 1080,4378 L 1069,4384 L 1057,4386 L 1044,4386 L 1032,4384 L 1020,4378 L 1010,4371 L 1002,4362 L 996,4351 L 992,4339 L 990,4327 L 992,4314 L 996,4302 L 1002,4291 L 1010,4282 L 1020,4275 L 1032,4269 L 1044,4267 L 1057,4267 L 1069,4269 L 1080,4275 L 1091,4282 L 1099,4291 L 1105,4302 L 1109,4314 L 1110,4327 z " style="fill-opacity:1.000000;fill:rgb(49,88,163);stroke:rgb(0,0,0);stroke-width:2"/></g>
<g fill-rule="evenodd"><path d="M 2110,4327 L 2109,4339 L 2105,4351 L 2099,4362 L 2090,4371 L 2080,4378 L 2069,4384 L 2056,4386 L 2044,4386 L 2032,4384 L 2020,4378 L 2010,4371 L 2002,4362 L 1995,4351 L 1992,4339 L 1990,4327 L 1992,4314 L 1995,4302 L 2002,4291 L 2010,4282 L 2020,4275 L 2032,4269 L 2044,4267 L 2056,4267 L 2069,4269 L 2080,4275 L 2090,4282 L 2099,4291 L 2105,4302 L 2109,4314 L 2110,4327 z " style="fill-opacity:1.000000;fill:rgb(90,37,93);stroke:rgb(0,0,0);stroke-width:2"/></g>
<g fill-rule="evenodd"><path d="M 6350,1547 L 6341,1630 L 6315,1710 L 6273,1782 L 6217,1844 L 6150,1893 L 6073,1927 L 5991,1945 L 5908,1945 L 5826,1927 L 5750,1893 L 5682,1844 L 5626,1782 L 5584,1710 L 5558,1630 L 5550,1547 L 5558,1464 L 5584,1384 L 5626,1312 L 5682,1250 L 5750,1201 L 5826,1167 L 5908,1149 L 5991,1149 L 6073,1167 L 6150,1201 L 6217,1250 L 6273,1312 L 6315,1384 L 6341,1464 L 6350,1547 z " style="fill-opacity:1.000000;fill:rgb(5,23,88);stroke:rgb(0,0,0);stroke-width:2"/></g>
<g fill-rule="evenodd"><path d="M 6350,3907 L 6341,3990 L 6315,4069 L 6273,4142 L 6217,4204 L 6150,4253 L 6073,4287 L 5991,4304 L 5908,4304 L 5826,4287 L 5750,4253 L 5682,4204 L 5626,4142 L 5584,4069 L 5558,3990 L 5550,3907 L 5558,3823 L 5584,3744 L 5626,3671 L 5682,3609 L 5750,3560 L 5826,3526 L 5908,3509 L 5991,3509 L 6073,3526 L 6150,3560 L 6217,3609 L 6273,3671 L 6315,3744 L 6341,3823 L 6350,3907 z " style="fill-opacity:1.000000;fill:rgb(233,94,212);stroke:rgb(0,0,0);stroke-width:2"/></g>
<g fill-rule="evenodd"><path d="M 974,1595 L 971,1624 L 962,1653 L 947,1679 L 927,1701 L 902,1719 L 875,1731 L 845,1737 L 815,1737 L 786,1731 L 759,1719 L 734,1701 L 714,1679 L 699,1653 L 690,1624 L 687,1595 L 690,1565 L 699,1536 L 714,1510 L 734,1488 L 759,1470 L 786,1458 L 815,1452 L 845,1452 L 875,1458 L 902,1470 L 927,1488 L 947,1510 L 962,1536 L 971,1565 L 974,1595 z " style="fill-opacity:1.000000;fill:rgb(171,178,205);stroke:rgb(0,0,0);stroke-width:2"/></g>
<g fill-rule="evenodd"><path d="M 974,660 L 971,690 L 962,718 L 947,744 L 927,767 L 902,784 L 875,797 L 845,803 L 815,803 L 786,797 L 759,784 L 734,767 L 714,744 L 699,718 L 690,690 L 687,660 L 690,630 L 699,602 L 714,576 L 734,553 L 759,536 L 786,523 L 815,517 L 845,517 L 875,523 L 902,536 L 927,553 L 947,576 L 962,602 L 971,630 L 974,660 z " style="fill-opacity:1.000000;fill:rgb(198,155,180);stroke:rgb(0,0,0);stroke-width:2"/></g>
<g fill-rule="evenodd"><path d="M 1271,836 L 1271,718 L 1389,718 L 1389,836 L 1271,836 z " style="fill-opacity:1.000000;fill:rgb(84,17,14);stroke:rgb(0,0,0);stroke-width:2"/></g>
<g fill-rule="evenodd"><path d="M 1589,877 L 1588,889 L 1584,901 L 1578,912 L 1570,921 L 1560,928 L 1549,933 L 1536,936 L 1524,936 L 1512,933 L 1501,928 L 1491,921 L 1482,912 L 1476,901 L 1472,889 L 1471,877 L 1472,865 L 1476,853 L 1482,842 L 1491,833 L 1501,826 L 1512,821 L 1524,818 L 1536,818 L 1549,821 L 1560,826 L 1570,833 L 1578,842 L 1584,853 L 1588,865 L 1589,877 z " style="fill-opacity:1.000000;fill:rgb(130,116,65);stroke:rgb(0,0,0);stroke-width:2"/></g>
<g fill-rule="evenodd"><path d="M 1589,1077 L 1588,1089 L 1584,1101 L 1578,1112 L 1570,1121 L 1560,1128 L 1549,1133 L 1536,1136 L 1524,1136 L 1512,1133 L 1501,1128 L 1491,1121 L 1482,1112 L 1476,1101 L 1472,1089 L 1471,1077 L 1472,1065 L 1476,1053 L 1482,1042 L 1491,1033 L 1501,1026 L 1512,1021 L 1524,1018 L 1536,1018 L 1549,1021 L 1560,1026 L 1570,1033 L 1578,1042 L 1584,1053 L 1588,1065 L 1589,1077 z " style="fill-opacity:1.000000;fill:rgb(33,61,220);stroke:rgb(0,0,0);stroke-width:2"/></g>
<g fill-rule="evenodd"><path d="M 1389,1177 L 1388,1189 L 1384,1201 L 1378,1212 L 1370,1221 L 1360,1228 L 1349,1233 L 1337,1236 L 1324,1236 L 1312,1233 L 1301,1228 L 1291,1221 L 1283,1212 L 1276,1201 L 1273,1189 L 1271,1177 L 1273,1165 L 1276,1153 L 1283,1142 L 1291,1133 L 1301,1126 L 1312,1121 L 1324,1118 L 1337,1118 L 1349,1121 L 1360,1126 L 1370,1133 L 1378,1142 L 1384,1153 L 1388,1165 L 1389,1177 z " style="fill-opacity:1.000000;fill:rgb(135,112,233);stroke:rgb(0,0,0);stroke-width:2"/></g>
<g fill-rule="evenodd"><path d="M 5250,3227 L 5248,3239 L 5245,3251 L 5238,3262 L 5230,3271 L 5220,3279 L 5208,3284 L 5196,3286 L 5184,3286 L 5171,3284 L 5160,3279 L 5150,3271 L 5141,3262 L 5135,3251 L 5131,3239 L 5130,3227 L 5131,3214 L 5135,3202 L 5141,3191 L 5150,3182 L 5160,3175 L 5171,3170 L 5184,3167 L 5196,3167 L 5208,3170 L 5220,3175 L 5230,3182 L 5238,3191 L 5245,3202 L 5248,3214 L 5250,3227 z " style="fill-opacity:1.000000;fill:rgb(62,161,65);stroke:rgb(0,0,0);stroke-width:2"/></g>
<g fill-rule="evenodd"><path d="M 4770,2267 L 4769,2279 L 4765,2291 L 4758,2302 L 4750,2311 L 4740,2319 L 4728,2324 L 4716,2326 L 4704,2326 L 4691,2324 L 4680,2319 L 4670,2311 L 4661,2302 L 4655,2291 L 4651,2279 L 4650,2267 L 4651,2254 L 4655,2242 L 4661,2232 L 4670,2222 L 4680,2215 L 4691,2210 L 4704,2207 L 4716,2207 L 4728,2210 L 4740,2215 L 4750,2222 L 4758,2232 L 4765,2242 L 4769,2254 L 4770,2267 z " style="fill-opacity:1.000000;fill:rgb(225,252,103);stroke:rgb(0,0,0);stroke-width:2"/></g>
<g fill-rule="evenodd"><path d="M 1110,4087 L 1109,4099 L 1105,4111 L 1099,4122 L 1091,4131 L 1080,4139 L 1069,4144 L 1057,4146 L 1044,4146 L 1032,4144 L 1020,4139 L 1010,4131 L 1002,4122 L 996,4111 L 992,4099 L 990,4087 L 992,4074 L 996,4062 L 1002,4051 L 1010,4042 L 1020,4035 L 1032,4029 L 1044,4027 L 1057,4027 L 1069,4029 L 1080,4035 L 1091,4042 L 1099,4051 L 1105,4062 L 1109,4074 L 1110,4087 z " style="fill-opacity:1.000000;fill:rgb(62,1,126);stroke:rgb(0,0,0);stroke-width:2"/></g>
<g fill-rule="evenodd"><path d="M 4010,2107 L 4010,1987 L 4130,1987 L 4130,2107 L 4010,2107 z " style="fill-opacity:1.000000;fill:rgb(151,234,220);stroke:rgb(0,0,0);stroke-width:2"/></g>
<g fill-rule="evenodd"><path d="M 4010,2427 L 4010,2307 L 4130,2307 L 4130,2427 L 4010,2427 z " style="fill-opacity:1.000000;fill:rgb(107,150,143);stroke:rgb(0,0,0);stroke-width:2"/></g>
<g fill-rule="evenodd"><path d="M 4130,2767 L 4129,2779 L 4125,2791 L 4118,2802 L 4110,2811 L 4100,2819 L 4088,2824 L 4076,2826 L 4064,2826 L 4051,2824 L 4040,2819 L 4030,2811 L 4021,2802 L 4015,2791 L 4011,2779 L 4010,2767 L 4011,2754 L 4015,2742 L 4021,2731 L 4030,2722 L 4040,2715 L 4051,2710 L 4064,2707 L 4076,2707 L 4088,2710 L 4100,2715 L 4110,2722 L 4118,2731 L 4125,2742 L 4129,2754 L 4130,2767 z " style="fill-opacity:1.000000;fill:rgb(56,92,42);stroke:rgb(0,0,0);stroke-width:2"/></g>
<g fill-rule="evenodd"><path d="M 1290,247 L 1289,260 L 1285,272 L 1279,282 L 1270,292 L 1260,299 L 1249,304 L 1237,307 L 1224,307 L 1212,304 L 1200,299 L 1190,292 L 1182,282 L 1176,272 L 1172,260 L 1170,247 L 1172,235 L 1176,223 L 1182,212 L 1190,203 L 1200,195 L 1212,190 L 1224,187 L 1237,187 L 1249,190 L 1260,195 L 1270,203 L 1279,212 L 1285,223 L 1289,235 L 1290,247 z " style="fill-opacity:1.000000;fill:rgb(236,176,59);stroke:rgb(0,0,0);stroke-width:2"/></g>
<g fill-rule="evenodd"><path d="M 1090,247 L 1089,260 L 1085,272 L 1079,282 L 1071,292 L 1060,299 L 1049,304 L 1037,307 L 1024,307 L 1012,304 L 1000,299 L 990,292 L 982,282 L 976,272 L 972,260 L 970,247 L 972,235 L 976,223 L 982,212 L 990,203 L 1000,195 L 1012,190 L 1024,187 L 1037,187 L 1049,190 L 1060,195 L 1071,203 L 1079,212 L 1085,223 L 1089,235 L 1090,247 z " style="fill-opacity:1.000000;fill:rgb(251,50,175);stroke:rgb(0,0,0);stroke-width:2"/></g>
<g fill-rule="evenodd"><path d="M 2445,2492 L 2445,2382 L 2555,2382 L 2555,2492 L 2445,2492 z " style="fill-opacity:1.000000;fill:rgb(60,84,236);stroke:rgb(0,0,0);stroke-width:2"/></g>
<g fill-rule="evenodd"><path d="M 2555,3037 L 2554,3048 L 2550,3059 L 2545,3069 L 2537,3078 L 2528,3084 L 2517,3089 L 2506,3091 L 2494,3091 L 2483,3089 L 2473,3084 L 2463,3078 L 2456,3069 L 2450,3059 L 2446,3048 L 2445,3037 L 2446,3025 L 2450,3014 L 2456,3004 L 2463,2996 L 2473,2989 L 2483,2984 L 2494,2982 L 2506,2982 L 2517,2984 L 2528,2989 L 2537,2996 L 2545,3004 L 2550,3014 L 2554,3025 L 2555,3037 z " style="fill-opacity:1.000000;fill:rgb(24,219,92);stroke:rgb(0,0,0);stroke-width:2"/></g>
<g fill-rule="evenodd"><path d="M 2555,3237 L 2554,3248 L 2550,3259 L 2545,3269 L 2537,3278 L 2528,3284 L 2517,3289 L 2506,3291 L 2494,3291 L 2483,3289 L 2473,3284 L 2463,3278 L 2456,3269 L 2450,3259 L 2446,3248 L 2445,3237 L 2446,3225 L 2450,3214 L 2456,3204 L 2463,3196 L 2473,3189 L 2483,3184 L 2494,3182 L 2506,3182 L 2517,3184 L 2528,3189 L 2537,3196 L 2545,3204 L 2550,3214 L 2554,3225 L 2555,3237 z " style="fill-opacity:1.000000;fill:rgb(2,26,254);stroke:rgb(0,0,0);stroke-width:2"/></g>
<g fill-rule="evenodd"><path d="M 2555,3437 L 2554,3448 L 2550,3459 L 2545,3469 L 2537,3478 L 2528,3484 L 2517,3489 L 2506,3491 L 2494,3491 L 2483,3489 L 2473,3484 L 2463,3478 L 2456,3469 L 2450,3459 L 2446,3448 L 2445,3437 L 2446,3425 L 2450,3414 L 2456,3404 L 2463,3396 L 2473,3389 L 2483,3384 L 2494,3382 L 2506,3382 L 2517,3384 L 2528,3389 L 2537,3396 L 2545,3404 L 2550,3414 L 2554,3425 L 2555,3437 z " style="fill-opacity:1.000000;fill:rgb(67,251,250);stroke:rgb(0,0,0);stroke-width:2"/></g>
<g fill-rule="evenodd"><path d="M 2555,4037 L 2554,4048 L 2550,4059 L 2545,4069 L 2537,4077 L 2528,4084 L 2517,4089 L 2506,4091 L 2494,4091 L 2483,4089 L 2473,4084 L 2463,4077 L 2456,4069 L 2450,4059 L 2446,4048 L 2445,4037 L 2446,4025 L 2450,4014 L 2456,4004 L 2463,3996 L 2473,3989 L 2483,3984 L 2494,3982 L 2506,3982 L 2517,3984 L 2528,3989 L 2537,3996 L 2545,4004 L 2550,4014 L 2554,4025 L 2555,4037 z " style="fill-opacity:1.000000;fill:rgb(170,58,251);stroke:rgb(0,0,0);stroke-width:2"/></g>
<g fill-rule="evenodd"><path d="M 2555,4237 L 2554,4248 L 2550,4259 L 2545,4269 L 2537,4277 L 2528,4284 L 2517,4289 L 2506,4291 L 2494,4291 L 2483,4289 L 2473,4284 L 2463,4277 L 2456,4269 L 2450,4259 L 2446,4248 L 2445,4237 L 2446,4225 L 2450,4214 L 2456,4204 L 2463,4196 L 2473,4189 L 2483,4184 L 2494,4182 L 2506,4182 L 2517,4184 L 2528,4189 L 2537,4196 L 2545,4204 L 2550,4214 L 2554,4225 L 2555,4237 z " style="fill-opacity:1.000000;fill:rgb(41,209,230);stroke:rgb(0,0,0);stroke-width:2"/></g>
<g fill-rule="evenodd"><path d="M 3155,4237 L 3154,4248 L 3150,4259 L 3145,4269 L 3137,4277 L 3128,4284 L 3117,4289 L 3106,4291 L 3094,4291 L 3083,4289 L 3073,4284 L 3063,4277 L 3056,4269 L 3050,4259 L 3046,4248 L 3045,4237 L 3046,4225 L 3050,4214 L 3056,4204 L 3063,4196 L 3073,4189 L 3083,4184 L 3094,4182 L 3106,4182 L 3117,4184 L 3128,4189 L 3137,4196 L 3145,4204 L 3150,4214 L 3154,4225 L 3155,4237 z " style="fill-opacity:1.000000;fill:rgb(5,60,124);stroke:rgb(0,0,0);stroke-width:2"/></g>
<g fill-rule="evenodd"><path d="M 3155,4037 L 3154,4048 L 3150,4059 L 3145,4069 L 3137,4077 L 3128,4084 L 3117,4089 L 3106,4091 L 3094,4091 L 3083,4089 L 3073,4084 L 3063,4077 L 3056,4069 L 3050,4059 L 3046,4048 L 3045,4037 L 3046,4025 L 3050,4014 L 3056,4004 L 3063,3996 L 3073,3989 L 3083,3984 L 3094,3982 L 3106,3982 L 3117,3984 L 3128,3989 L 3137,3996 L 3145,4004 L 3150,4014 L 3154,4025 L 3155,4037 z " style="fill-opacity:1.000000;fill:rgb(148,117,216);stroke:rgb(0,0,0);stroke-width:2"/></g>
<g fill-rule="evenodd"><path d="M 3155,3837 L 3154,3848 L 3150,3859 L 3145,3869 L 3137,3877 L 3128,3884 L 3117,3889 L 3106,3891 L 3094,3891 L 3083,3889 L 3073,3884 L 3063,3877 L 3056,3869 L 3050,3859 L 3046,3848 L 3045,3837 L 3046,3825 L 3050,3814 L 3056,3804 L 3063,3796 L 3073,3789 L 3083,3784 L 3094,3782 L 3106,3782 L 3117,3784 L 3128,3789 L 3137,3796 L 3145,3804 L 3150,3814 L 3154,3825 L 3155,3837 z " style="fill-opacity:1.000000;fill:rgb(190,97,137);stroke:rgb(0,0,0);stroke-width:2"/></g>
<g fill-rule="evenodd"><path d="M 3155,3637 L 3154,3648 L 3150,3659 L 3145,3669 L 3137,3677 L 3128,3684 L 3117,3689 L 3106,3691 L 3094,3691 L 3083,3689 L 3073,3684 L 3063,3677 L 3056,3669 L 3050,3659 L 3046,3648 L 3045,3637 L 3046,3625 L 3050,3614 L 3056,3604 L 3063,3596 L 3073,3589 L 3083,3584 L 3094,3582 L 3106,3582 L 3117,3584 L 3128,3589 L 3137,3596 L 3145,3604 L 3150,3614 L 3154,3625 L 3155,3637 z " style="fill-opacity:1.000000;fill:rgb(249,92,187);stroke:rgb(0,0,0);stroke-width:2"/></g>
<g fill-rule="evenodd"><path d="M 3155,3437 L 3154,3448 L 3150,3459 L 3145,3469 L 3137,3478 L 3128,3484 L 3117,3489 L 3106,3491 L 3094,3491 L 3083,3489 L 3073,3484 L 3063,3478 L 3056,3469 L 3050,3459 L 3046,3448 L 3045,3437 L 3046,3425 L 3050,3414 L 3056,3404 L 3063,3396 L 3073,3389 L 3083,3384 L 3094,3382 L 3106,3382 L 3117,3384 L 3128,3389 L 3137,3396 L 3145,3404 L 3150,3414 L 3154,3425 L 3155,3437 z " style="fill-opacity:1.000000;fill:rgb(168,153,15);stroke:rgb(0,0,0);stroke-width:2"/></g>
<g fill-rule="evenodd"><path d="M 3155,3237 L 3154,3248 L 3150,3259 L 3145,3269 L 3137,3278 L 3128,3284 L 3117,3289 L 3106,3291 L 3094,3291 L 3083,3289 L 3073,3284 L 3063,3278 L 3056,3269 L 3050,3259 L 3046,3248 L 3045,3237 L 3046,3225 L 3050,3214 L 3056,3204 L 3063,3196 L 3073,3189 L 3083,3184 L 3094,3182 L 3106,3182 L 3117,3184 L 3128,3189 L 3137,3196 L 3145,3204 L 3150,3214 L 3154,3225 L 3155,3237 z " style="fill-opacity:1.000000;fill:rgb(149,177,235);stroke:rgb(0,0,0);stroke-width:2"/></g>
<g fill-rule="evenodd"><path d="M 3155,3037 L 3154,3048 L 3150,3059 L 3145,3069 L 3137,3078 L 3128,3084 L 3117,3089 L 3106,3091 L 3094,3091 L 3083,3089 L 3073,3084 L 3063,3078 L 3056,3069 L 3050,3059 L 3046,3048 L 3045,3037 L 3046,3025 L 3050,3014 L 3056,3004 L 3063,2996 L 3073,2989 L 3083,2984 L 3094,2982 L 3106,2982 L 3117,2984 L 3128,2989 L 3137,2996 L 3145,3004 L 3150,3014 L 3154,3025 L 3155,3037 z " style="fill-opacity:1.000000;fill:rgb(241,179,5);stroke:rgb(0,0,0);stroke-width:2"/></g>
<g fill-rule="evenodd"><path d="M 3155,2837 L 3154,2848 L 3150,2859 L 3145,2869 L 3137,2878 L 3128,2884 L 3117,2889 L 3106,2891 L 3094,2891 L 3083,2889 L 3073,2884 L 3063,2878 L 3056,2869 L 3050,2859 L 3046,2848 L 3045,2837 L 3046,2825 L 3050,2814 L 3056,2804 L 3063,2796 L 3073,2789 L 3083,2784 L 3094,2782 L 3106,2782 L 3117,2784 L 3128,2789 L 3137,2796 L 3145,2804 L 3150,2814 L 3154,2825 L 3155,2837 z " style="fill-opacity:1.000000;fill:rgb(239,247,0);stroke:rgb(0,0,0);stroke-width:2"/></g>
<g fill-rule="evenodd"><path d="M 3155,2437 L 3154,2448 L 3150,2459 L 3145,2469 L 3137,2478 L 3128,2484 L 3117,2489 L 3106,2491 L 3094,2491 L 3083,2489 L 3073,2484 L 3063,2478 L 3056,2469 L 3050,2459 L 3046,2448 L 3045,2437 L 3046,2425 L 3050,2414 L 3056,2404 L 3063,2396 L 3073,2389 L 3083,2384 L 3094,2382 L 3106,2382 L 3117,2384 L 3128,2389 L 3137,2396 L 3145,2404 L 3150,2414 L 3154,2425 L 3155,2437 z " style="fill-opacity:1.000000;fill:rgb(233,161,58);stroke:rgb(0,0,0);stroke-width:2"/></g>
<g fill-rule="evenodd"><path d="M 1859,3316 L 1860,3315 L 1872,3310 L 1884,3307 L 1897,3307 L 1909,3310 L 1920,3315 L 1922,3316 L 2230,3316 L 2245,3317 L 2259,3322 L 2272,3329 L 2283,3339 L 2292,3351 L 2298,3365 L 2301,3379 L 2301,3394 L 2298,3409 L 2292,3422 L 2283,3434 L 2272,3444 L 2259,3451 L 2245,3456 L 2230,3458 L 1850,3458 L 1836,3456 L 1821,3451 L 1809,3444 L 1798,3434 L 1789,3422 L 1783,3409 L 1780,3394 L 1780,3379 L 1783,3365 L 1789,3351 L 1798,3339 L 1809,3329 L 1821,3322 L 1836,3317 L 1850,3316 L 1859,3316 z " style="fill-opacity:1.000000;fill:rgb(229,202,11);stroke:rgb(0,0,0);stroke-width:2"/></g>
<g fill-rule="evenodd"><path d="M 1370,284 L 1368,281 L 1362,267 L 1360,252 L 1360,237 L 1364,223 L 1370,209 L 1370,187 L 1393,187 L 1404,181 L 1418,177 L 1433,176 L 1447,178 L 1461,183 L 1467,187 L 1490,187 L 1490,204 L 1834,471 L 1845,482 L 1854,496 L 1859,511 L 1861,527 L 1861,1267 L 1859,1285 L 1852,1302 L 1840,1317 L 1830,1327 L 1816,1338 L 1799,1345 L 1780,1348 L 1530,1348 L 1516,1346 L 1501,1342 L 1489,1334 L 1478,1324 L 1469,1312 L 1463,1299 L 1460,1284 L 1460,1270 L 1463,1255 L 1469,1242 L 1478,1230 L 1489,1220 L 1501,1212 L 1516,1208 L 1530,1206 L 1719,1206 L 1719,562 L 1392,307 L 1370,307 L 1370,284 z " style="fill-opacity:1.000000;fill:rgb(203,208,72);stroke:rgb(0,0,0);stroke-width:2"/></g>
<g fill-rule="evenodd"><path d="M 2016,4000 L 2230,3786 L 2245,3775 L 2262,3768 L 2280,3766 L 2500,3766 L 2515,3767 L 2529,3772 L 2542,3779 L 2553,3789 L 2562,3801 L 2568,3815 L 2571,3829 L 2571,3844 L 2568,3858 L 2562,3872 L 2553,3884 L 2542,3894 L 2529,3901 L 2515,3906 L 2500,3907 L 2310,3907 L 2124,4093 L 2123,4102 L 2119,4117 L 2111,4131 L 2100,4142 L 2088,4151 L 2073,4158 L 2058,4161 L 2042,4161 L 2027,4158 L 2013,4151 L 2000,4142 L 1990,4131 L 1982,4117 L 1977,4102 L 1975,4087 L 1975,4067 L 1977,4051 L 1982,4036 L 1990,4023 L 2000,4011 L 2013,4002 L 2016,4000 z " style="fill-opacity:1.000000;fill:rgb(71,100,189);stroke:rgb(0,0,0);stroke-width:2"/></g>
<g fill-rule="evenodd"><path d="M 0,0 L 6593,0 L 6593,4625 L 0,4625 L 0,0M 3296,4588 L 3339,4579 L 3376,4555 L 3730,4200 L 3732,4199 L 3734,4198 L 3737,4197 L 3923,4197 L 3925,4198 L 3927,4198 L 3929,4200 L 3931,4201 L 3932,4203 L 3933,4205 L 3933,4207 L 3933,4209 L 3929,4228 L 3929,4346 L 3932,4361 L 3941,4375 L 3954,4384 L 3971,4387 L 4089,4387 L 4105,4385 L 4118,4376 L 4127,4362 L 4131,4346 L 4131,4227 L 4128,4212 L 4119,4198 L 4106,4189 L 4101,4188 L 4100,4187 L 4098,4185 L 4097,4184 L 4096,4182 L 4095,4180 L 4095,4177 L 4096,4175 L 4097,4173 L 4098,4172 L 4108,4165 L 4132,4129 L 4141,4087 L 4132,4044 L 4108,4008 L 4081,3990 L 4080,3989 L 4078,3987 L 4077,3985 L 4077,3983 L 4077,3981 L 4077,3979 L 4078,3977 L 4080,3975 L 4081,3974 L 4086,3971 L 4115,3943 L 4130,3907 L 4130,3867 L 4115,3830 L 4087,3802 L 4050,3787 L 4010,3787 L 3973,3802 L 3945,3830 L 3930,3867 L 3930,3906 L 3945,3943 L 3961,3959 L 3962,3960 L 3963,3962 L 3963,3964 L 3963,3966 L 3963,3969 L 3962,3970 L 3961,3972 L 3960,3974 L 3958,3975 L 3956,3975 L 3954,3976 L 3688,3976 L 3645,3984 L 3608,4009 L 3254,4363 L 3251,4365 L 3249,4366 L 3246,4366 L 3032,4366 L 3029,4366 L 3027,4365 L 3025,4363 L 2938,4277 L 2936,4275 L 2935,4272 L 2935,4270 L 2935,2008 L 2935,2005 L 2936,2003 L 2938,2001 L 2978,1961 L 2980,1959 L 2982,1958 L 2985,1958 L 3963,1958 L 3965,1958 L 3967,1959 L 3969,1960 L 3971,1961 L 3972,1963 L 3973,1965 L 3973,1968 L 3973,1970 L 3969,1988 L 3969,2106 L 3972,2122 L 3981,2135 L 3994,2144 L 4011,2148 L 4129,2148 L 4145,2145 L 4158,2136 L 4167,2123 L 4171,2106 L 4171,1988 L 4168,1972 L 4159,1958 L 4146,1949 L 4141,1948 L 4140,1947 L 4138,1946 L 4137,1944 L 4136,1942 L 4135,1940 L 4135,1938 L 4136,1936 L 4137,1934 L 4138,1932 L 4140,1931 L 4148,1925 L 4172,1889 L 4181,1847 L 4172,1805 L 4151,1773 L 4150,1771 L 4150,1769 L 4150,1767 L 4150,1765 L 4151,1763 L 4152,1761 L 4154,1760 L 4155,1759 L 4157,1758 L 4160,1758 L 4274,1758 L 4277,1758 L 4279,1759 L 4281,1761 L 4285,1765 L 4287,1767 L 4288,1769 L 4288,1772 L 4288,2301 L 4288,2304 L 4287,2306 L 4285,2308 L 4188,2405 L 4186,2407 L 4184,2408 L 4182,2408 L 4180,2408 L 4178,2408 L 4176,2407 L 4174,2406 L 4173,2404 L 4172,2402 L 4171,2400 L 4171,2398 L 4171,2308 L 4168,2292 L 4159,2278 L 4146,2269 L 4129,2266 L 4011,2266 L 3995,2269 L 3982,2278 L 3972,2291 L 3969,2308 L 3969,2426 L 3972,2442 L 3973,2444 L 3973,2447 L 3972,2449 L 3972,2451 L 3970,2452 L 3969,2454 L 3967,2455 L 3965,2456 L 3963,2456 L 3869,2456 L 3826,2465 L 3789,2489 L 3755,2523 L 3753,2525 L 3751,2526 L 3748,2526 L 3169,2526 L 3167,2526 L 3165,2525 L 3163,2524 L 3162,2522 L 3161,2521 L 3160,2519 L 3159,2517 L 3160,2514 L 3160,2512 L 3161,2510 L 3162,2509 L 3181,2491 L 3195,2456 L 3195,2418 L 3181,2383 L 3154,2356 L 3119,2342 L 3081,2342 L 3046,2356 L 3020,2383 L 3005,2418 L 3005,2456 L 3019,2491 L 3046,2517 L 3052,2520 L 3054,2521 L 3055,2522 L 3057,2524 L 3058,2526 L 3058,2528 L 3058,2530 L 3058,2532 L 3057,2534 L 3055,2536 L 3054,2537 L 3022,2559 L 2998,2594 L 2989,2637 L 2998,2679 L 3022,2715 L 3054,2736 L 3055,2738 L 3057,2739 L 3058,2741 L 3058,2743 L 3058,2746 L 3058,2748 L 3057,2750 L 3055,2751 L 3054,2753 L 3052,2754 L 3046,2756 L 3020,2783 L 3005,2818 L 3005,2856 L 3019,2890 L 3046,2917 L 3071,2927 L 3073,2929 L 3074,2930 L 3076,2932 L 3077,2934 L 3077,2936 L 3077,2938 L 3077,2940 L 3076,2942 L 3074,2944 L 3073,2945 L 3071,2946 L 3046,2956 L 3020,2983 L 3005,3018 L 3005,3056 L 3019,3090 L 3046,3117 L 3071,3127 L 3073,3128 L 3074,3130 L 3076,3132 L 3077,3134 L 3077,3136 L 3077,3138 L 3077,3140 L 3076,3142 L 3074,3144 L 3073,3145 L 3071,3146 L 3046,3156 L 3020,3183 L 3005,3218 L 3005,3255 L 3019,3290 L 3046,3317 L 3071,3327 L 3073,3328 L 3074,3330 L 3076,3332 L 3077,3334 L 3077,3336 L 3077,3338 L 3077,3340 L 3076,3342 L 3074,3343 L 3073,3345 L 3071,3346 L 3046,3356 L 3020,3383 L 3005,3418 L 3005,3455 L 3019,3490 L 3046,3517 L 3071,3527 L 3073,3528 L 3074,3530 L 3076,3532 L 3077,3533 L 3077,3536 L 3077,3538 L 3077,3540 L 3076,3542 L 3074,3543 L 3073,3545 L 3071,3546 L 3046,3556 L 3020,3583 L 3005,3618 L 3005,3655 L 3019,3690 L 3046,3717 L 3071,3727 L 3073,3728 L 3074,3730 L 3076,3732 L 3077,3733 L 3077,3736 L 3077,3738 L 3077,3740 L 3076,3742 L 3074,3743 L 3073,3745 L 3071,3746 L 3046,3756 L 3020,3783 L 3005,3818 L 3005,3855 L 3019,3890 L 3046,3917 L 3071,3927 L 3073,3928 L 3074,3930 L 3076,3931 L 3077,3933 L 3077,3936 L 3077,3938 L 3077,3940 L 3076,3942 L 3074,3943 L 3073,3945 L 3071,3946 L 3046,3956 L 3020,3983 L 3005,4018 L 3005,4055 L 3019,4090 L 3046,4117 L 3071,4127 L 3073,4128 L 3074,4130 L 3076,4131 L 3077,4133 L 3077,4135 L 3077,4138 L 3077,4140 L 3076,4142 L 3074,4143 L 3073,4145 L 3071,4146 L 3046,4156 L 3020,4183 L 3005,4218 L 3005,4255 L 3019,4290 L 3046,4317 L 3081,4331 L 3119,4332 L 3154,4317 L 3181,4290 L 3195,4255 L 3195,4218 L 3181,4183 L 3154,4156 L 3129,4146 L 3127,4145 L 3126,4143 L 3124,4142 L 3124,4140 L 3123,4138 L 3123,4135 L 3124,4133 L 3124,4131 L 3126,4130 L 3127,4128 L 3129,4127 L 3154,4117 L 3181,4090 L 3195,4056 L 3195,4018 L 3181,3983 L 3154,3956 L 3129,3946 L 3127,3945 L 3126,3943 L 3124,3942 L 3124,3940 L 3123,3938 L 3123,3935 L 3124,3933 L 3124,3931 L 3126,3930 L 3127,3928 L 3129,3927 L 3154,3917 L 3181,3890 L 3195,3856 L 3195,3818 L 3181,3783 L 3154,3756 L 3129,3746 L 3127,3745 L 3126,3743 L 3124,3742 L 3124,3740 L 3123,3738 L 3123,3736 L 3124,3733 L 3124,3731 L 3126,3730 L 3127,3728 L 3129,3727 L 3154,3717 L 3181,3690 L 3195,3656 L 3195,3618 L 3181,3583 L 3154,3556 L 3129,3546 L 3127,3545 L 3126,3543 L 3124,3542 L 3124,3540 L 3123,3538 L 3123,3536 L 3124,3533 L 3124,3532 L 3126,3530 L 3127,3528 L 3129,3527 L 3154,3517 L 3181,3491 L 3195,3456 L 3195,3418 L 3181,3383 L 3154,3356 L 3129,3346 L 3127,3345 L 3126,3343 L 3124,3342 L 3124,3340 L 3123,3338 L 3123,3336 L 3124,3333 L 3124,3332 L 3126,3330 L 3127,3328 L 3129,3327 L 3154,3317 L 3181,3291 L 3195,3256 L 3195,3218 L 3181,3183 L 3154,3156 L 3129,3146 L 3127,3145 L 3126,3143 L 3124,3142 L 3124,3140 L 3123,3138 L 3123,3136 L 3124,3134 L 3124,3132 L 3126,3130 L 3127,3128 L 3129,3127 L 3154,3117 L 3181,3091 L 3195,3056 L 3195,3018 L 3181,2983 L 3154,2956 L 3129,2946 L 3127,2945 L 3126,2944 L 3124,2942 L 3124,2940 L 3123,2938 L 3123,2936 L 3124,2934 L 3124,2932 L 3126,2930 L 3127,2928 L 3129,2927 L 3154,2917 L 3181,2891 L 3195,2856 L 3195,2818 L 3181,2783 L 3162,2765 L 3161,2763 L 3160,2761 L 3160,2759 L 3159,2757 L 3160,2755 L 3161,2753 L 3162,2751 L 3163,2750 L 3165,2749 L 3167,2748 L 3169,2748 L 3797,2748 L 3841,2739 L 3877,2714 L 3911,2681 L 3913,2679 L 3916,2678 L 3918,2678 L 3994,2678 L 3996,2678 L 3998,2679 L 4000,2680 L 4001,2681 L 4002,2683 L 4003,2685 L 4003,2687 L 4003,2689 L 4003,2691 L 4002,2693 L 4001,2695 L 3985,2710 L 3970,2747 L 3970,2787 L 3985,2823 L 4013,2851 L 4050,2867 L 4090,2867 L 4126,2852 L 4155,2823 L 4170,2787 L 4170,2747 L 4155,2710 L 4139,2695 L 4138,2693 L 4137,2691 L 4136,2689 L 4136,2687 L 4137,2685 L 4138,2683 L 4139,2681 L 4140,2680 L 4142,2679 L 4144,2678 L 4146,2678 L 4182,2678 L 4226,2669 L 4262,2644 L 4476,2430 L 4501,2394 L 4510,2350 L 4510,1723 L 4501,1679 L 4476,1642 L 4403,1569 L 4366,1545 L 4323,1536 L 4071,1536 L 4028,1545 L 3992,1569 L 3968,1605 L 3959,1647 L 3968,1689 L 3989,1720 L 3990,1722 L 3990,1724 L 3990,1727 L 3990,1729 L 3989,1731 L 3988,1733 L 3986,1734 L 3984,1735 L 3982,1736 L 3980,1736 L 2936,1736 L 2893,1745 L 2856,1769 L 2746,1879 L 2722,1915 L 2713,1959 L 2713,4319 L 2722,4362 L 2746,4399 L 2903,4555 L 2939,4579 L 2983,4588 L 3296,4588M 320,3606 L 328,3649 L 353,3686 L 591,3924 L 628,3949 L 671,3957 L 1909,3957 L 1953,3949 L 1989,3924 L 2163,3750 L 2165,3749 L 2168,3748 L 2170,3747 L 2188,3747 L 2191,3748 L 2193,3748 L 2194,3749 L 2196,3751 L 2197,3753 L 2198,3755 L 2198,3757 L 2198,3759 L 2198,3761 L 2197,3763 L 2195,3765 L 1986,3974 L 1969,3986 L 1944,4023 L 1935,4068 L 1935,4086 L 1944,4130 L 1969,4168 L 2006,4192 L 2050,4201 L 2094,4192 L 2131,4168 L 2156,4130 L 2159,4117 L 2160,4114 L 2161,4112 L 2323,3950 L 2325,3949 L 2328,3948 L 2330,3947 L 2431,3947 L 2433,3948 L 2435,3948 L 2437,3949 L 2438,3951 L 2440,3953 L 2440,3955 L 2441,3957 L 2441,3959 L 2440,3961 L 2439,3963 L 2438,3965 L 2420,3983 L 2405,4018 L 2405,4055 L 2420,4090 L 2446,4117 L 2471,4127 L 2473,4128 L 2475,4130 L 2476,4131 L 2477,4133 L 2477,4135 L 2477,4138 L 2477,4140 L 2476,4142 L 2475,4143 L 2473,4145 L 2471,4146 L 2446,4156 L 2420,4183 L 2405,4218 L 2405,4255 L 2420,4290 L 2446,4317 L 2481,4331 L 2519,4332 L 2554,4317 L 2581,4290 L 2595,4255 L 2595,4218 L 2581,4183 L 2554,4156 L 2529,4146 L 2527,4145 L 2526,4143 L 2525,4142 L 2524,4140 L 2523,4138 L 2523,4135 L 2524,4133 L 2525,4131 L 2526,4130 L 2527,4128 L 2529,4127 L 2554,4117 L 2581,4090 L 2595,4056 L 2595,4018 L 2581,3983 L 2554,3956 L 2548,3954 L 2546,3953 L 2545,3951 L 2543,3949 L 2543,3948 L 2542,3945 L 2542,3943 L 2543,3941 L 2544,3939 L 2545,3938 L 2547,3936 L 2578,3915 L 2602,3879 L 2611,3837 L 2602,3794 L 2578,3758 L 2558,3745 L 2557,3744 L 2555,3742 L 2554,3740 L 2554,3738 L 2554,3736 L 2554,3733 L 2555,3731 L 2557,3730 L 2558,3728 L 2578,3715 L 2602,3679 L 2611,3637 L 2602,3594 L 2578,3558 L 2547,3537 L 2545,3536 L 2544,3534 L 2543,3532 L 2542,3530 L 2542,3528 L 2543,3526 L 2543,3524 L 2545,3522 L 2546,3521 L 2548,3520 L 2554,3517 L 2581,3491 L 2595,3456 L 2595,3418 L 2581,3383 L 2554,3356 L 2529,3346 L 2527,3345 L 2526,3343 L 2525,3342 L 2524,3340 L 2523,3338 L 2523,3336 L 2524,3333 L 2525,3332 L 2526,3330 L 2527,3328 L 2529,3327 L 2554,3317 L 2581,3291 L 2595,3256 L 2595,3218 L 2581,3183 L 2554,3156 L 2529,3146 L 2527,3145 L 2526,3143 L 2525,3142 L 2524,3140 L 2523,3138 L 2523,3136 L 2524,3134 L 2525,3132 L 2526,3130 L 2527,3128 L 2529,3127 L 2554,3117 L 2581,3091 L 2595,3056 L 2595,3018 L 2581,2983 L 2554,2956 L 2548,2954 L 2546,2953 L 2545,2951 L 2543,2950 L 2543,2948 L 2542,2946 L 2542,2943 L 2543,2941 L 2544,2939 L 2545,2938 L 2547,2936 L 2578,2915 L 2602,2879 L 2611,2837 L 2602,2794 L 2578,2758 L 2558,2745 L 2557,2744 L 2555,2742 L 2554,2740 L 2554,2738 L 2554,2736 L 2554,2734 L 2555,2732 L 2557,2730 L 2558,2728 L 2578,2715 L 2602,2679 L 2611,2637 L 2602,2594 L 2578,2559 L 2563,2548 L 2562,2547 L 2560,2545 L 2559,2543 L 2559,2541 L 2559,2539 L 2559,2537 L 2560,2535 L 2562,2533 L 2563,2532 L 2565,2531 L 2570,2530 L 2584,2521 L 2593,2508 L 2596,2491 L 2596,2383 L 2593,2367 L 2584,2353 L 2571,2344 L 2554,2341 L 2446,2341 L 2430,2344 L 2417,2353 L 2408,2366 L 2404,2383 L 2404,2491 L 2407,2507 L 2411,2512 L 2411,2514 L 2411,2517 L 2411,2519 L 2410,2521 L 2409,2522 L 2407,2524 L 2405,2525 L 2403,2526 L 2401,2526 L 1830,2526 L 1828,2526 L 1825,2525 L 1823,2523 L 1644,2344 L 1642,2342 L 1641,2339 L 1641,2337 L 1641,1478 L 1633,1435 L 1612,1403 L 1611,1401 L 1610,1399 L 1610,1397 L 1610,1395 L 1611,1393 L 1612,1391 L 1614,1390 L 1616,1389 L 1618,1388 L 1620,1388 L 1779,1388 L 1823,1379 L 1859,1355 L 1868,1346 L 1892,1309 L 1901,1266 L 1901,528 L 1900,522 L 1900,519 L 1900,513 L 1896,500 L 1892,485 L 1889,480 L 1888,478 L 1886,472 L 1877,462 L 1869,449 L 1864,446 L 1862,444 L 1858,439 L 1534,187 L 1532,185 L 1531,183 L 1530,181 L 1528,172 L 1520,159 L 1506,150 L 1489,146 L 1473,146 L 1471,146 L 1469,145 L 1460,140 L 1417,137 L 1392,146 L 1388,146 L 1371,146 L 1356,149 L 1342,158 L 1333,171 L 1330,184 L 1330,186 L 1329,188 L 1327,189 L 1325,190 L 1323,191 L 1321,192 L 1319,192 L 1317,191 L 1315,190 L 1313,189 L 1287,162 L 1250,147 L 1211,147 L 1174,162 L 1146,190 L 1140,205 L 1139,207 L 1137,208 L 1135,210 L 1134,211 L 1131,211 L 1129,211 L 1127,211 L 1125,210 L 1124,208 L 1122,207 L 1115,191 L 1087,162 L 1050,147 L 1011,147 L 974,162 L 946,190 L 930,227 L 930,267 L 946,304 L 974,332 L 1010,347 L 1050,347 L 1087,332 L 1115,304 L 1121,289 L 1122,287 L 1124,286 L 1125,285 L 1127,284 L 1129,283 L 1131,283 L 1134,284 L 1135,285 L 1137,286 L 1139,287 L 1140,289 L 1146,304 L 1174,332 L 1210,347 L 1250,347 L 1287,332 L 1313,306 L 1315,304 L 1317,303 L 1319,303 L 1321,303 L 1323,303 L 1325,304 L 1327,305 L 1329,307 L 1330,309 L 1332,322 L 1341,336 L 1354,345 L 1371,348 L 1378,348 L 1380,349 L 1382,350 L 1676,578 L 1677,580 L 1678,582 L 1679,584 L 1679,586 L 1679,1156 L 1679,1158 L 1678,1160 L 1677,1162 L 1676,1164 L 1674,1165 L 1672,1166 L 1669,1166 L 1605,1166 L 1603,1166 L 1601,1165 L 1599,1164 L 1598,1163 L 1597,1161 L 1596,1159 L 1595,1157 L 1596,1155 L 1596,1153 L 1597,1151 L 1598,1149 L 1614,1133 L 1629,1097 L 1629,1057 L 1614,1021 L 1586,993 L 1570,986 L 1568,985 L 1567,984 L 1565,982 L 1564,980 L 1564,978 L 1564,976 L 1564,974 L 1565,972 L 1567,970 L 1568,969 L 1570,968 L 1586,961 L 1614,933 L 1629,897 L 1629,857 L 1614,821 L 1586,793 L 1550,778 L 1511,778 L 1474,793 L 1447,820 L 1446,821 L 1444,822 L 1442,823 L 1440,823 L 1438,822 L 1436,821 L 1434,820 L 1432,819 L 1431,817 L 1431,815 L 1430,813 L 1430,719 L 1427,703 L 1419,690 L 1405,680 L 1388,677 L 1272,677 L 1256,680 L 1243,689 L 1234,702 L 1230,719 L 1230,835 L 1233,851 L 1234,853 L 1235,855 L 1235,857 L 1234,859 L 1233,861 L 1232,863 L 1231,864 L 1229,865 L 1227,866 L 1225,866 L 541,866 L 498,875 L 461,899 L 353,1008 L 328,1045 L 320,1088 L 320,3606M 1150,4067 L 1135,4030 L 1107,4002 L 1070,3987 L 1031,3987 L 994,4002 L 966,4030 L 950,4067 L 950,4106 L 966,4143 L 994,4171 L 1030,4187 L 1070,4187 L 1107,4171 L 1135,4143 L 1150,4107 L 1150,4067M 1150,4346 L 1150,4307 L 1135,4270 L 1107,4242 L 1070,4227 L 1031,4227 L 994,4242 L 966,4270 L 950,4307 L 950,4346 L 966,4383 L 994,4411 L 1030,4426 L 1070,4427 L 1107,4411 L 1135,4383 L 1150,4346M 2030,4426 L 2070,4427 L 2107,4411 L 2135,4383 L 2150,4346 L 2150,4307 L 2135,4270 L 2107,4242 L 2070,4227 L 2030,4227 L 1994,4242 L 1966,4270 L 1950,4307 L 1950,4346 L 1965,4383 L 1994,4411 L 2030,4426M 794,844 L 867,844 L 934,816 L 986,764 L 1014,697 L 1014,624 L 986,556 L 935,504 L 867,476 L 794,476 L 726,504 L 675,556 L 647,623 L 647,696 L 675,764 L 726,816 L 794,844M 2402,1127 L 2577,1127 L 2739,1060 L 2863,937 L 2930,775 L 2930,600 L 2863,438 L 2740,314 L 2578,247 L 2403,247 L 2241,314 L 2117,438 L 2050,599 L 2050,774 L 2117,936 L 2241,1060 L 2402,1127M 4804,2300 L 4810,2287 L 4810,2247 L 4795,2210 L 4767,2182 L 4730,2167 L 4690,2167 L 4653,2182 L 4625,2210 L 4610,2247 L 4610,2287 L 4625,2323 L 4653,2352 L 4690,2367 L 4730,2367 L 4766,2352 L 4795,2324 L 4804,2300M 4115,3463 L 4130,3427 L 4130,3387 L 4115,3350 L 4087,3322 L 4072,3316 L 4070,3315 L 4069,3313 L 4067,3312 L 4066,3310 L 4066,3308 L 4066,3306 L 4066,3303 L 4067,3302 L 4069,3300 L 4070,3298 L 4086,3291 L 4115,3263 L 4130,3227 L 4130,3187 L 4115,3150 L 4087,3122 L 4050,3107 L 4010,3107 L 3973,3122 L 3945,3150 L 3930,3187 L 3930,3226 L 3945,3263 L 3973,3291 L 3988,3297 L 3990,3298 L 3991,3300 L 3993,3302 L 3993,3304 L 3994,3306 L 3994,3308 L 3993,3310 L 3993,3312 L 3991,3313 L 3990,3315 L 3988,3316 L 3973,3322 L 3945,3350 L 3930,3387 L 3930,3426 L 3945,3463 L 3971,3490 L 3973,3491 L 3974,3493 L 3974,3495 L 3974,3498 L 3974,3500 L 3973,3502 L 3972,3503 L 3970,3505 L 3968,3506 L 3966,3507 L 3955,3509 L 3942,3517 L 3932,3531 L 3929,3548 L 3929,3666 L 3932,3681 L 3941,3695 L 3954,3704 L 3971,3708 L 4089,3708 L 4105,3705 L 4118,3696 L 4127,3682 L 4131,3666 L 4131,3548 L 4128,3532 L 4119,3518 L 4106,3509 L 4093,3507 L 4091,3506 L 4089,3505 L 4088,3503 L 4087,3502 L 4086,3500 L 4085,3498 L 4085,3495 L 4086,3493 L 4087,3491 L 4088,3490 L 4115,3463M 6199,3534 L 6038,3467 L 5863,3467 L 5701,3533 L 5577,3657 L 5510,3819 L 5510,3994 L 5576,4155 L 5700,4279 L 5862,4346 L 6037,4347 L 6199,4280 L 6322,4156 L 6390,3994 L 6390,3819 L 6323,3658 L 6199,3534M 5290,3207 L 5275,3170 L 5246,3142 L 5210,3127 L 5170,3127 L 5133,3142 L 5105,3170 L 5090,3207 L 5090,3246 L 5105,3283 L 5133,3311 L 5170,3327 L 5210,3327 L 5246,3311 L 5274,3283 L 5290,3247 L 5290,3207M 6199,1174 L 6038,1107 L 5863,1107 L 5701,1174 L 5577,1297 L 5510,1459 L 5510,1634 L 5576,1796 L 5700,1920 L 5862,1987 L 6037,1987 L 6199,1920 L 6322,1796 L 6390,1635 L 6390,1460 L 6323,1298 L 6199,1174M 5118,984 L 5050,1033 L 4973,1067 L 4892,1085 L 4808,1085 L 4726,1067 L 4650,1033 L 4582,984 L 4555,1010 L 4594,1056 L 4755,1125 L 4930,1128 L 5093,1064 L 5105,1056 L 5145,1010 L 5118,984M 5118,391 L 5145,364 L 5105,318 L 4945,249 L 4770,246 L 4606,310 L 4595,318 L 4555,364 L 4582,391 L 4650,341 L 4726,307 L 4808,289 L 4892,289 L 4973,307 L 5050,341 L 5118,391M 5145,954 L 5173,982 L 5218,942 L 5288,782 L 5291,607 L 5227,444 L 5219,432 L 5173,392 L 5145,420 L 5173,452 L 5215,524 L 5241,604 L 5250,687 L 5241,770 L 5215,850 L 5173,922 L 5145,954M 4735,1321 L 4728,1324 L 4716,1327 L 4704,1327 L 4691,1324 L 4684,1321 L 4658,1347 L 4660,1355 L 4695,1368 L 4735,1366 L 4759,1356 L 4762,1347 L 4735,1321M 4735,1213 L 4762,1187 L 4759,1178 L 4725,1166 L 4685,1168 L 4661,1178 L 4658,1187 L 4684,1213 L 4691,1210 L 4704,1207 L 4716,1207 L 4728,1210 L 4735,1213M 4764,1293 L 4790,1319 L 4798,1316 L 4811,1282 L 4809,1242 L 4799,1218 L 4790,1215 L 4764,1241 L 4765,1243 L 4769,1254 L 4770,1267 L 4769,1279 L 4765,1291 L 4764,1293M 4656,1293 L 4655,1291 L 4651,1279 L 4650,1267 L 4651,1254 L 4655,1243 L 4656,1241 L 4630,1215 L 4621,1218 L 4609,1252 L 4611,1292 L 4621,1316 L 4630,1319 L 4656,1293M 4555,420 L 4527,392 L 4481,432 L 4411,592 L 4408,767 L 4473,931 L 4480,942 L 4527,982 L 4555,954 L 4526,922 L 4484,850 L 4459,770 L 4450,687 L 4459,604 L 4484,524 L 4526,452 L 4555,420M 5164,2281 L 5138,2307 L 5140,2315 L 5175,2328 L 5215,2326 L 5239,2316 L 5242,2307 L 5215,2281 L 5208,2284 L 5196,2286 L 5184,2286 L 5171,2284 L 5164,2281M 5164,2173 L 5171,2170 L 5184,2167 L 5196,2167 L 5208,2170 L 5215,2173 L 5242,2147 L 5239,2138 L 5205,2126 L 5165,2128 L 5140,2138 L 5138,2147 L 5164,2173M 5136,2201 L 5110,2175 L 5101,2177 L 5089,2212 L 5091,2252 L 5101,2276 L 5110,2279 L 5136,2253 L 5135,2251 L 5131,2239 L 5130,2227 L 5131,2214 L 5135,2202 L 5136,2201M 5244,2201 L 5245,2202 L 5248,2214 L 5250,2227 L 5248,2239 L 5245,2251 L 5244,2253 L 5270,2279 L 5278,2276 L 5291,2242 L 5289,2202 L 5279,2178 L 5270,2175 L 5244,2201 z " style="fill-opacity:1.000000;fill:rgb(31,35,30);stroke:rgb(0,0,0);stroke-width:2"/></g>
</svg>
