<?xml version="1.0" standalone="no"?>
<!DOCTYPE svg PUBLIC "-//W3C//DTD SVG 1.1//EN"
"http://www.w3.org/Graphics/SVG/1.1/DTD/svg11.dtd">
<svg width="6602" height="4633" viewBox="0 0 6602 4633" version="1.1"
xmlns="http://www.w3.org/2000/svg"
xmlns:xlink="http://www.w3.org/1999/xlink">
<g fill-rule="evenodd"><path d="M 0,3 L 0,3 L 0,2 L 1,1 L 1,0 L 2,0 L 3,0 L 4,0 L 6597,0 L 6598,0 L 6599,0 L 6600,0 L 6600,1 L 6601,2 L 6601,3 L 6601,3 L 6601,4629 L 6601,4629 L 6601,4630 L 6600,4631 L 6600,4632 L 6599,4632 L 6598,4632 L 6597,4633 L 4,4633 L 3,4632 L 2,4632 L 1,4632 L 1,4631 L 0,4630 L 0,4629 L 0,4629 L 0,3 z " style="fill-opacity:1.000000;fill:rgb(103,198,105);stroke:rgb(0,0,0);stroke-width:2"/></g>
</svg>
