G04 #@! TF.FileFunction,Copper,L1,Top,Signal*
%FSLAX46Y46*%
G04 Gerber Fmt 4.6, Leading zero omitted, Abs format (unit mm)*
G04 Created by KiCad (PCBNEW 4.0.7-e1-6374~58~ubuntu14.04.1) date Fri Aug 18 19:44:06 2017*
%MOMM*%
%LPD*%
G01*
G04 APERTURE LIST*
%ADD10C,0.100000*%
%ADD11R,1.524000X1.524000*%
%ADD12C,1.524000*%
%ADD13C,10.160000*%
%ADD14C,3.649980*%
%ADD15R,1.501140X1.501140*%
%ADD16C,1.501140*%
%ADD17C,1.397000*%
%ADD18R,1.397000X1.397000*%
%ADD19C,1.800000*%
%ADD20C,1.900000*%
%ADD21C,0.254000*%
G04 APERTURE END LIST*
D10*
D11*
X115316000Y-68580000D03*
D12*
X115316000Y-66040000D03*
X115316000Y-63500000D03*
D11*
X115316000Y-59944000D03*
D12*
X115316000Y-57404000D03*
X115316000Y-54864000D03*
D13*
X95758000Y-22860000D03*
X125730000Y-22860000D03*
D12*
X77470000Y-69088000D03*
X90170000Y-69088000D03*
D13*
X139700000Y-33782000D03*
X139700000Y-63754000D03*
D14*
X74676000Y-34386520D03*
X74676000Y-22517100D03*
D15*
X81026000Y-24003000D03*
D16*
X83566000Y-25273000D03*
X81026000Y-26543000D03*
X83566000Y-27813000D03*
X81026000Y-29083000D03*
X83566000Y-30353000D03*
X81026000Y-31623000D03*
X83566000Y-32893000D03*
D12*
X130048000Y-42418000D03*
X130048000Y-55118000D03*
X123952000Y-42926000D03*
X123952000Y-30226000D03*
X88138000Y-56896000D03*
X75438000Y-56896000D03*
X77470000Y-66040000D03*
X90170000Y-66040000D03*
D17*
X92456000Y-57150000D03*
X92456000Y-54610000D03*
D11*
X115824000Y-40132000D03*
D12*
X115824000Y-37592000D03*
X115824000Y-35052000D03*
D11*
X115824000Y-44196000D03*
D12*
X115824000Y-46736000D03*
X115824000Y-49276000D03*
D11*
X82296000Y-17272000D03*
D12*
X79756000Y-17272000D03*
X77216000Y-17272000D03*
D18*
X95885000Y-45085000D03*
D17*
X95885000Y-47625000D03*
X95885000Y-50165000D03*
X95885000Y-52705000D03*
X95885000Y-55245000D03*
X95885000Y-57785000D03*
X95885000Y-60325000D03*
X95885000Y-62865000D03*
X95885000Y-65405000D03*
X95885000Y-67945000D03*
X103505000Y-67945000D03*
X103505000Y-65405000D03*
X103505000Y-62865000D03*
X103505000Y-60325000D03*
X103505000Y-57785000D03*
X103505000Y-55245000D03*
X103505000Y-52705000D03*
X103505000Y-50165000D03*
X103505000Y-47625000D03*
X103505000Y-45085000D03*
D19*
X83566000Y-30353000D02*
X86741000Y-30353000D01*
X86741000Y-30353000D02*
X86868000Y-30226000D01*
X86868000Y-30226000D02*
X86868000Y-20828000D01*
X86868000Y-20828000D02*
X82296000Y-17272000D01*
D20*
X90170000Y-66040000D02*
X90170000Y-65786000D01*
D19*
X90170000Y-65786000D02*
X93091000Y-62865000D01*
X93091000Y-62865000D02*
X95885000Y-62865000D01*
X75438000Y-56896000D02*
X75438000Y-55118000D01*
X75438000Y-55118000D02*
X75946000Y-54610000D01*
X75946000Y-54610000D02*
X92456000Y-54610000D01*
X115824000Y-46736000D02*
X117264000Y-46736000D01*
X119052000Y-35052000D02*
X115824000Y-35052000D01*
X120000000Y-36000000D02*
X119052000Y-35052000D01*
X120000000Y-44000000D02*
X120000000Y-36000000D01*
X117264000Y-46736000D02*
X120000000Y-44000000D01*
X103505000Y-47625000D02*
X112375000Y-47625000D01*
X113264000Y-46736000D02*
X115824000Y-46736000D01*
X112375000Y-47625000D02*
X113264000Y-46736000D01*
X95885000Y-47625000D02*
X86741000Y-47625000D01*
X86741000Y-47625000D02*
X83566000Y-44450000D01*
X83566000Y-44450000D02*
X83566000Y-32893000D01*
X81026000Y-31623000D02*
X81026000Y-48006000D01*
X81026000Y-48006000D02*
X83185000Y-50165000D01*
X83185000Y-50165000D02*
X95885000Y-50165000D01*
X92456000Y-57150000D02*
X87630000Y-57150000D01*
X81026000Y-26543000D02*
X70993000Y-26543000D01*
X91059000Y-60325000D02*
X95885000Y-60325000D01*
X88392000Y-62992000D02*
X91059000Y-60325000D01*
X72644000Y-62992000D02*
X88392000Y-62992000D01*
X69596000Y-59944000D02*
X72644000Y-62992000D01*
X69596000Y-27940000D02*
X69596000Y-59944000D01*
X70993000Y-26543000D02*
X69596000Y-27940000D01*
X115824000Y-37592000D02*
X101408000Y-37592000D01*
X110960000Y-66040000D02*
X115316000Y-66040000D01*
X106000000Y-71000000D02*
X110960000Y-66040000D01*
X102000000Y-71000000D02*
X106000000Y-71000000D01*
X100000000Y-69000000D02*
X102000000Y-71000000D01*
X100000000Y-39000000D02*
X100000000Y-69000000D01*
X101408000Y-37592000D02*
X100000000Y-39000000D01*
D21*
G36*
X147873000Y-72873000D02*
X64127000Y-72873000D01*
X64127000Y-69364661D01*
X76072758Y-69364661D01*
X76284990Y-69878303D01*
X76677630Y-70271629D01*
X77190900Y-70484757D01*
X77746661Y-70485242D01*
X78260303Y-70273010D01*
X78653629Y-69880370D01*
X78866757Y-69367100D01*
X78866759Y-69364661D01*
X88772758Y-69364661D01*
X88984990Y-69878303D01*
X89377630Y-70271629D01*
X89890900Y-70484757D01*
X90446661Y-70485242D01*
X90960303Y-70273010D01*
X91353629Y-69880370D01*
X91566757Y-69367100D01*
X91567242Y-68811339D01*
X91355010Y-68297697D01*
X90962370Y-67904371D01*
X90449100Y-67691243D01*
X89893339Y-67690758D01*
X89379697Y-67902990D01*
X88986371Y-68295630D01*
X88773243Y-68808900D01*
X88772758Y-69364661D01*
X78866759Y-69364661D01*
X78867242Y-68811339D01*
X78655010Y-68297697D01*
X78262370Y-67904371D01*
X77749100Y-67691243D01*
X77193339Y-67690758D01*
X76679697Y-67902990D01*
X76286371Y-68295630D01*
X76073243Y-68808900D01*
X76072758Y-69364661D01*
X64127000Y-69364661D01*
X64127000Y-66316661D01*
X76072758Y-66316661D01*
X76284990Y-66830303D01*
X76677630Y-67223629D01*
X77190900Y-67436757D01*
X77746661Y-67437242D01*
X78260303Y-67225010D01*
X78653629Y-66832370D01*
X78866757Y-66319100D01*
X78867242Y-65763339D01*
X78655010Y-65249697D01*
X78262370Y-64856371D01*
X77749100Y-64643243D01*
X77193339Y-64642758D01*
X76679697Y-64854990D01*
X76286371Y-65247630D01*
X76073243Y-65760900D01*
X76072758Y-66316661D01*
X64127000Y-66316661D01*
X64127000Y-27940000D01*
X68061000Y-27940000D01*
X68061000Y-59944000D01*
X68177845Y-60531419D01*
X68510591Y-61029409D01*
X71558591Y-64077409D01*
X72056581Y-64410155D01*
X72644000Y-64527000D01*
X88392000Y-64527000D01*
X88979419Y-64410155D01*
X89477409Y-64077409D01*
X91694818Y-61860000D01*
X91925182Y-61860000D01*
X89262333Y-64522849D01*
X89049236Y-64665236D01*
X88705651Y-65179447D01*
X88585000Y-65786000D01*
X88585000Y-66040000D01*
X88705651Y-66646553D01*
X89049236Y-67160764D01*
X89563447Y-67504349D01*
X90170000Y-67625000D01*
X90776553Y-67504349D01*
X91290764Y-67160764D01*
X91634349Y-66646553D01*
X91672609Y-66454209D01*
X93726818Y-64400000D01*
X95004254Y-64400000D01*
X94755173Y-64648647D01*
X94551732Y-65138587D01*
X94551269Y-65669086D01*
X94753854Y-66159380D01*
X95128647Y-66534827D01*
X95466446Y-66675094D01*
X95130620Y-66813854D01*
X94755173Y-67188647D01*
X94551732Y-67678587D01*
X94551269Y-68209086D01*
X94753854Y-68699380D01*
X95128647Y-69074827D01*
X95618587Y-69278268D01*
X96149086Y-69278731D01*
X96639380Y-69076146D01*
X97014827Y-68701353D01*
X97218268Y-68211413D01*
X97218731Y-67680914D01*
X97016146Y-67190620D01*
X96641353Y-66815173D01*
X96303554Y-66674906D01*
X96639380Y-66536146D01*
X97014827Y-66161353D01*
X97218268Y-65671413D01*
X97218731Y-65140914D01*
X97016146Y-64650620D01*
X96641353Y-64275173D01*
X96544533Y-64234970D01*
X96970409Y-63950409D01*
X97303155Y-63452419D01*
X97420000Y-62865000D01*
X97303155Y-62277581D01*
X96970409Y-61779591D01*
X96694149Y-61595000D01*
X96970409Y-61410409D01*
X97303155Y-60912419D01*
X97420000Y-60325000D01*
X97303155Y-59737581D01*
X96970409Y-59239591D01*
X96544816Y-58955219D01*
X96639380Y-58916146D01*
X97014827Y-58541353D01*
X97218268Y-58051413D01*
X97218731Y-57520914D01*
X97016146Y-57030620D01*
X96641353Y-56655173D01*
X96303554Y-56514906D01*
X96639380Y-56376146D01*
X97014827Y-56001353D01*
X97218268Y-55511413D01*
X97218731Y-54980914D01*
X97016146Y-54490620D01*
X96641353Y-54115173D01*
X96303554Y-53974906D01*
X96639380Y-53836146D01*
X97014827Y-53461353D01*
X97218268Y-52971413D01*
X97218731Y-52440914D01*
X97016146Y-51950620D01*
X96641353Y-51575173D01*
X96544533Y-51534970D01*
X96970409Y-51250409D01*
X97303155Y-50752419D01*
X97420000Y-50165000D01*
X97303155Y-49577581D01*
X96970409Y-49079591D01*
X96694149Y-48895000D01*
X96970409Y-48710409D01*
X97303155Y-48212419D01*
X97420000Y-47625000D01*
X97303155Y-47037581D01*
X96970409Y-46539591D01*
X96758516Y-46398008D01*
X96818817Y-46386662D01*
X97034941Y-46247590D01*
X97179931Y-46035390D01*
X97230940Y-45783500D01*
X97230940Y-44386500D01*
X97186662Y-44151183D01*
X97047590Y-43935059D01*
X96835390Y-43790069D01*
X96583500Y-43739060D01*
X95186500Y-43739060D01*
X94951183Y-43783338D01*
X94735059Y-43922410D01*
X94590069Y-44134610D01*
X94539060Y-44386500D01*
X94539060Y-45783500D01*
X94583338Y-46018817D01*
X94629143Y-46090000D01*
X87376818Y-46090000D01*
X85101000Y-43814182D01*
X85101000Y-39000000D01*
X98465000Y-39000000D01*
X98465000Y-69000000D01*
X98581845Y-69587419D01*
X98914591Y-70085409D01*
X100914591Y-72085409D01*
X101412581Y-72418155D01*
X102000000Y-72535000D01*
X106000000Y-72535000D01*
X106587419Y-72418155D01*
X107085409Y-72085409D01*
X111595818Y-67575000D01*
X113955769Y-67575000D01*
X113906560Y-67818000D01*
X113906560Y-69342000D01*
X113950838Y-69577317D01*
X114089910Y-69793441D01*
X114302110Y-69938431D01*
X114554000Y-69989440D01*
X116078000Y-69989440D01*
X116313317Y-69945162D01*
X116529441Y-69806090D01*
X116674431Y-69593890D01*
X116725440Y-69342000D01*
X116725440Y-67818000D01*
X116681162Y-67582683D01*
X116542090Y-67366559D01*
X116329890Y-67221569D01*
X116274333Y-67210318D01*
X116401409Y-67125409D01*
X116734155Y-66627419D01*
X116851000Y-66040000D01*
X116734155Y-65452581D01*
X116401409Y-64954591D01*
X116298450Y-64885796D01*
X133984011Y-64885796D01*
X134852234Y-66987058D01*
X136458486Y-68596116D01*
X138558229Y-69468005D01*
X140831796Y-69469989D01*
X142933058Y-68601766D01*
X144542116Y-66995514D01*
X145414005Y-64895771D01*
X145415989Y-62622204D01*
X144547766Y-60520942D01*
X142941514Y-58911884D01*
X140841771Y-58039995D01*
X138568204Y-58038011D01*
X136466942Y-58906234D01*
X134857884Y-60512486D01*
X133985995Y-62612229D01*
X133984011Y-64885796D01*
X116298450Y-64885796D01*
X116039353Y-64712673D01*
X116106303Y-64685010D01*
X116499629Y-64292370D01*
X116712757Y-63779100D01*
X116713242Y-63223339D01*
X116501010Y-62709697D01*
X116108370Y-62316371D01*
X115595100Y-62103243D01*
X115039339Y-62102758D01*
X114525697Y-62314990D01*
X114132371Y-62707630D01*
X113919243Y-63220900D01*
X113918758Y-63776661D01*
X114130990Y-64290303D01*
X114345313Y-64505000D01*
X110960000Y-64505000D01*
X110372581Y-64621845D01*
X109874591Y-64954591D01*
X105364182Y-69465000D01*
X102635818Y-69465000D01*
X101535000Y-68364182D01*
X101535000Y-39635818D01*
X102043818Y-39127000D01*
X114463769Y-39127000D01*
X114414560Y-39370000D01*
X114414560Y-40894000D01*
X114458838Y-41129317D01*
X114597910Y-41345441D01*
X114810110Y-41490431D01*
X115062000Y-41541440D01*
X116586000Y-41541440D01*
X116821317Y-41497162D01*
X117037441Y-41358090D01*
X117182431Y-41145890D01*
X117233440Y-40894000D01*
X117233440Y-39370000D01*
X117189162Y-39134683D01*
X117050090Y-38918559D01*
X116837890Y-38773569D01*
X116782333Y-38762318D01*
X116909409Y-38677409D01*
X117242155Y-38179419D01*
X117359000Y-37592000D01*
X117242155Y-37004581D01*
X116963137Y-36587000D01*
X118416182Y-36587000D01*
X118465000Y-36635818D01*
X118465000Y-43364182D01*
X117233440Y-44595742D01*
X117233440Y-43434000D01*
X117189162Y-43198683D01*
X117050090Y-42982559D01*
X116837890Y-42837569D01*
X116586000Y-42786560D01*
X115062000Y-42786560D01*
X114826683Y-42830838D01*
X114610559Y-42969910D01*
X114465569Y-43182110D01*
X114414560Y-43434000D01*
X114414560Y-44958000D01*
X114458838Y-45193317D01*
X114463782Y-45201000D01*
X113264000Y-45201000D01*
X112676581Y-45317845D01*
X112178591Y-45650591D01*
X111739182Y-46090000D01*
X104385746Y-46090000D01*
X104634827Y-45841353D01*
X104838268Y-45351413D01*
X104838731Y-44820914D01*
X104636146Y-44330620D01*
X104261353Y-43955173D01*
X103771413Y-43751732D01*
X103240914Y-43751269D01*
X102750620Y-43953854D01*
X102375173Y-44328647D01*
X102171732Y-44818587D01*
X102171269Y-45349086D01*
X102373854Y-45839380D01*
X102748647Y-46214827D01*
X102845467Y-46255030D01*
X102419591Y-46539591D01*
X102086845Y-47037581D01*
X101970000Y-47625000D01*
X102086845Y-48212419D01*
X102419591Y-48710409D01*
X102845184Y-48994781D01*
X102750620Y-49033854D01*
X102375173Y-49408647D01*
X102171732Y-49898587D01*
X102171269Y-50429086D01*
X102373854Y-50919380D01*
X102748647Y-51294827D01*
X103086446Y-51435094D01*
X102750620Y-51573854D01*
X102375173Y-51948647D01*
X102171732Y-52438587D01*
X102171269Y-52969086D01*
X102373854Y-53459380D01*
X102748647Y-53834827D01*
X103086446Y-53975094D01*
X102750620Y-54113854D01*
X102375173Y-54488647D01*
X102171732Y-54978587D01*
X102171269Y-55509086D01*
X102373854Y-55999380D01*
X102748647Y-56374827D01*
X103086446Y-56515094D01*
X102750620Y-56653854D01*
X102375173Y-57028647D01*
X102171732Y-57518587D01*
X102171269Y-58049086D01*
X102373854Y-58539380D01*
X102748647Y-58914827D01*
X103086446Y-59055094D01*
X102750620Y-59193854D01*
X102375173Y-59568647D01*
X102171732Y-60058587D01*
X102171269Y-60589086D01*
X102373854Y-61079380D01*
X102748647Y-61454827D01*
X103086446Y-61595094D01*
X102750620Y-61733854D01*
X102375173Y-62108647D01*
X102171732Y-62598587D01*
X102171269Y-63129086D01*
X102373854Y-63619380D01*
X102748647Y-63994827D01*
X103086446Y-64135094D01*
X102750620Y-64273854D01*
X102375173Y-64648647D01*
X102171732Y-65138587D01*
X102171269Y-65669086D01*
X102373854Y-66159380D01*
X102748647Y-66534827D01*
X103086446Y-66675094D01*
X102750620Y-66813854D01*
X102375173Y-67188647D01*
X102171732Y-67678587D01*
X102171269Y-68209086D01*
X102373854Y-68699380D01*
X102748647Y-69074827D01*
X103238587Y-69278268D01*
X103769086Y-69278731D01*
X104259380Y-69076146D01*
X104634827Y-68701353D01*
X104838268Y-68211413D01*
X104838731Y-67680914D01*
X104636146Y-67190620D01*
X104261353Y-66815173D01*
X103923554Y-66674906D01*
X104259380Y-66536146D01*
X104634827Y-66161353D01*
X104838268Y-65671413D01*
X104838731Y-65140914D01*
X104636146Y-64650620D01*
X104261353Y-64275173D01*
X103923554Y-64134906D01*
X104259380Y-63996146D01*
X104634827Y-63621353D01*
X104838268Y-63131413D01*
X104838731Y-62600914D01*
X104636146Y-62110620D01*
X104261353Y-61735173D01*
X103923554Y-61594906D01*
X104259380Y-61456146D01*
X104634827Y-61081353D01*
X104838268Y-60591413D01*
X104838731Y-60060914D01*
X104636146Y-59570620D01*
X104261353Y-59195173D01*
X104229630Y-59182000D01*
X113906560Y-59182000D01*
X113906560Y-60706000D01*
X113950838Y-60941317D01*
X114089910Y-61157441D01*
X114302110Y-61302431D01*
X114554000Y-61353440D01*
X116078000Y-61353440D01*
X116313317Y-61309162D01*
X116529441Y-61170090D01*
X116674431Y-60957890D01*
X116725440Y-60706000D01*
X116725440Y-59182000D01*
X116681162Y-58946683D01*
X116542090Y-58730559D01*
X116329890Y-58585569D01*
X116146876Y-58548508D01*
X116499629Y-58196370D01*
X116712757Y-57683100D01*
X116713242Y-57127339D01*
X116501010Y-56613697D01*
X116108370Y-56220371D01*
X115900488Y-56134051D01*
X116106303Y-56049010D01*
X116499629Y-55656370D01*
X116608299Y-55394661D01*
X128650758Y-55394661D01*
X128862990Y-55908303D01*
X129255630Y-56301629D01*
X129768900Y-56514757D01*
X130324661Y-56515242D01*
X130838303Y-56303010D01*
X131231629Y-55910370D01*
X131444757Y-55397100D01*
X131445242Y-54841339D01*
X131233010Y-54327697D01*
X130840370Y-53934371D01*
X130327100Y-53721243D01*
X129771339Y-53720758D01*
X129257697Y-53932990D01*
X128864371Y-54325630D01*
X128651243Y-54838900D01*
X128650758Y-55394661D01*
X116608299Y-55394661D01*
X116712757Y-55143100D01*
X116713242Y-54587339D01*
X116501010Y-54073697D01*
X116108370Y-53680371D01*
X115595100Y-53467243D01*
X115039339Y-53466758D01*
X114525697Y-53678990D01*
X114132371Y-54071630D01*
X113919243Y-54584900D01*
X113918758Y-55140661D01*
X114130990Y-55654303D01*
X114523630Y-56047629D01*
X114731512Y-56133949D01*
X114525697Y-56218990D01*
X114132371Y-56611630D01*
X113919243Y-57124900D01*
X113918758Y-57680661D01*
X114130990Y-58194303D01*
X114483833Y-58547763D01*
X114318683Y-58578838D01*
X114102559Y-58717910D01*
X113957569Y-58930110D01*
X113906560Y-59182000D01*
X104229630Y-59182000D01*
X103923554Y-59054906D01*
X104259380Y-58916146D01*
X104634827Y-58541353D01*
X104838268Y-58051413D01*
X104838731Y-57520914D01*
X104636146Y-57030620D01*
X104261353Y-56655173D01*
X103923554Y-56514906D01*
X104259380Y-56376146D01*
X104634827Y-56001353D01*
X104838268Y-55511413D01*
X104838731Y-54980914D01*
X104636146Y-54490620D01*
X104261353Y-54115173D01*
X103923554Y-53974906D01*
X104259380Y-53836146D01*
X104634827Y-53461353D01*
X104838268Y-52971413D01*
X104838731Y-52440914D01*
X104636146Y-51950620D01*
X104261353Y-51575173D01*
X103923554Y-51434906D01*
X104259380Y-51296146D01*
X104634827Y-50921353D01*
X104838268Y-50431413D01*
X104838731Y-49900914D01*
X104636146Y-49410620D01*
X104385963Y-49160000D01*
X112375000Y-49160000D01*
X112962419Y-49043155D01*
X113460409Y-48710409D01*
X113899818Y-48271000D01*
X114853372Y-48271000D01*
X114640371Y-48483630D01*
X114427243Y-48996900D01*
X114426758Y-49552661D01*
X114638990Y-50066303D01*
X115031630Y-50459629D01*
X115544900Y-50672757D01*
X116100661Y-50673242D01*
X116614303Y-50461010D01*
X117007629Y-50068370D01*
X117220757Y-49555100D01*
X117221242Y-48999339D01*
X117009010Y-48485697D01*
X116794687Y-48271000D01*
X117264000Y-48271000D01*
X117851419Y-48154155D01*
X118349409Y-47821409D01*
X121085409Y-45085409D01*
X121418155Y-44587419D01*
X121535000Y-44000000D01*
X121535000Y-43202661D01*
X122554758Y-43202661D01*
X122766990Y-43716303D01*
X123159630Y-44109629D01*
X123672900Y-44322757D01*
X124228661Y-44323242D01*
X124742303Y-44111010D01*
X125135629Y-43718370D01*
X125268569Y-43398213D01*
X129247392Y-43398213D01*
X129316857Y-43640397D01*
X129840302Y-43827144D01*
X130395368Y-43799362D01*
X130779143Y-43640397D01*
X130848608Y-43398213D01*
X130048000Y-42597605D01*
X129247392Y-43398213D01*
X125268569Y-43398213D01*
X125348757Y-43205100D01*
X125349242Y-42649339D01*
X125167837Y-42210302D01*
X128638856Y-42210302D01*
X128666638Y-42765368D01*
X128825603Y-43149143D01*
X129067787Y-43218608D01*
X129868395Y-42418000D01*
X130227605Y-42418000D01*
X131028213Y-43218608D01*
X131270397Y-43149143D01*
X131457144Y-42625698D01*
X131429362Y-42070632D01*
X131270397Y-41686857D01*
X131028213Y-41617392D01*
X130227605Y-42418000D01*
X129868395Y-42418000D01*
X129067787Y-41617392D01*
X128825603Y-41686857D01*
X128638856Y-42210302D01*
X125167837Y-42210302D01*
X125137010Y-42135697D01*
X124744370Y-41742371D01*
X124231100Y-41529243D01*
X123675339Y-41528758D01*
X123161697Y-41740990D01*
X122768371Y-42133630D01*
X122555243Y-42646900D01*
X122554758Y-43202661D01*
X121535000Y-43202661D01*
X121535000Y-41437787D01*
X129247392Y-41437787D01*
X130048000Y-42238395D01*
X130848608Y-41437787D01*
X130779143Y-41195603D01*
X130255698Y-41008856D01*
X129700632Y-41036638D01*
X129316857Y-41195603D01*
X129247392Y-41437787D01*
X121535000Y-41437787D01*
X121535000Y-36000000D01*
X121418155Y-35412581D01*
X121085409Y-34914591D01*
X121084614Y-34913796D01*
X133984011Y-34913796D01*
X134852234Y-37015058D01*
X136458486Y-38624116D01*
X138558229Y-39496005D01*
X140831796Y-39497989D01*
X142933058Y-38629766D01*
X144542116Y-37023514D01*
X145414005Y-34923771D01*
X145415989Y-32650204D01*
X144547766Y-30548942D01*
X142941514Y-28939884D01*
X140841771Y-28067995D01*
X138568204Y-28066011D01*
X136466942Y-28934234D01*
X134857884Y-30540486D01*
X133985995Y-32640229D01*
X133984011Y-34913796D01*
X121084614Y-34913796D01*
X120137409Y-33966591D01*
X119639419Y-33633845D01*
X119052000Y-33517000D01*
X115824000Y-33517000D01*
X115236581Y-33633845D01*
X114738591Y-33966591D01*
X114405845Y-34464581D01*
X114289000Y-35052000D01*
X114405845Y-35639419D01*
X114684863Y-36057000D01*
X101408000Y-36057000D01*
X100820581Y-36173845D01*
X100322591Y-36506591D01*
X98914591Y-37914591D01*
X98581845Y-38412581D01*
X98465000Y-39000000D01*
X85101000Y-39000000D01*
X85101000Y-32893000D01*
X84984155Y-32305581D01*
X84705137Y-31888000D01*
X86741000Y-31888000D01*
X87328419Y-31771155D01*
X87826409Y-31438409D01*
X87953409Y-31311409D01*
X88023698Y-31206213D01*
X123151392Y-31206213D01*
X123220857Y-31448397D01*
X123744302Y-31635144D01*
X124299368Y-31607362D01*
X124683143Y-31448397D01*
X124752608Y-31206213D01*
X123952000Y-30405605D01*
X123151392Y-31206213D01*
X88023698Y-31206213D01*
X88286155Y-30813419D01*
X88403000Y-30226000D01*
X88403000Y-30018302D01*
X122542856Y-30018302D01*
X122570638Y-30573368D01*
X122729603Y-30957143D01*
X122971787Y-31026608D01*
X123772395Y-30226000D01*
X124131605Y-30226000D01*
X124932213Y-31026608D01*
X125174397Y-30957143D01*
X125361144Y-30433698D01*
X125333362Y-29878632D01*
X125174397Y-29494857D01*
X124932213Y-29425392D01*
X124131605Y-30226000D01*
X123772395Y-30226000D01*
X122971787Y-29425392D01*
X122729603Y-29494857D01*
X122542856Y-30018302D01*
X88403000Y-30018302D01*
X88403000Y-29245787D01*
X123151392Y-29245787D01*
X123952000Y-30046395D01*
X124752608Y-29245787D01*
X124683143Y-29003603D01*
X124159698Y-28816856D01*
X123604632Y-28844638D01*
X123220857Y-29003603D01*
X123151392Y-29245787D01*
X88403000Y-29245787D01*
X88403000Y-23991796D01*
X90042011Y-23991796D01*
X90910234Y-26093058D01*
X92516486Y-27702116D01*
X94616229Y-28574005D01*
X96889796Y-28575989D01*
X98991058Y-27707766D01*
X99743307Y-26956828D01*
X121812777Y-26956828D01*
X122408556Y-27647641D01*
X124493537Y-28554265D01*
X126766758Y-28593989D01*
X128882142Y-27760765D01*
X129051444Y-27647641D01*
X129647223Y-26956828D01*
X125730000Y-23039605D01*
X121812777Y-26956828D01*
X99743307Y-26956828D01*
X100600116Y-26101514D01*
X101472005Y-24001771D01*
X101472096Y-23896758D01*
X119996011Y-23896758D01*
X120829235Y-26012142D01*
X120942359Y-26181444D01*
X121633172Y-26777223D01*
X125550395Y-22860000D01*
X125909605Y-22860000D01*
X129826828Y-26777223D01*
X130517641Y-26181444D01*
X131424265Y-24096463D01*
X131463989Y-21823242D01*
X130630765Y-19707858D01*
X130517641Y-19538556D01*
X129826828Y-18942777D01*
X125909605Y-22860000D01*
X125550395Y-22860000D01*
X121633172Y-18942777D01*
X120942359Y-19538556D01*
X120035735Y-21623537D01*
X119996011Y-23896758D01*
X101472096Y-23896758D01*
X101473989Y-21728204D01*
X100605766Y-19626942D01*
X99743503Y-18763172D01*
X121812777Y-18763172D01*
X125730000Y-22680395D01*
X129647223Y-18763172D01*
X129051444Y-18072359D01*
X126966463Y-17165735D01*
X124693242Y-17126011D01*
X122577858Y-17959235D01*
X122408556Y-18072359D01*
X121812777Y-18763172D01*
X99743503Y-18763172D01*
X98999514Y-18017884D01*
X96899771Y-17145995D01*
X94626204Y-17144011D01*
X92524942Y-18012234D01*
X90915884Y-19618486D01*
X90043995Y-21718229D01*
X90042011Y-23991796D01*
X88403000Y-23991796D01*
X88403000Y-20828000D01*
X88384224Y-20733605D01*
X88391147Y-20637607D01*
X88326292Y-20442361D01*
X88286155Y-20240581D01*
X88232683Y-20160555D01*
X88202343Y-20069216D01*
X88067709Y-19913653D01*
X87953409Y-19742591D01*
X87873384Y-19689120D01*
X87810399Y-19616344D01*
X83686395Y-16408785D01*
X83661162Y-16274683D01*
X83522090Y-16058559D01*
X83309890Y-15913569D01*
X83058000Y-15862560D01*
X82843862Y-15862560D01*
X82702982Y-15791936D01*
X82105607Y-15748853D01*
X81763295Y-15862560D01*
X81534000Y-15862560D01*
X81298683Y-15906838D01*
X81082559Y-16045910D01*
X80937569Y-16258110D01*
X80900508Y-16441124D01*
X80548370Y-16088371D01*
X80035100Y-15875243D01*
X79479339Y-15874758D01*
X78965697Y-16086990D01*
X78572371Y-16479630D01*
X78486051Y-16687512D01*
X78401010Y-16481697D01*
X78008370Y-16088371D01*
X77495100Y-15875243D01*
X76939339Y-15874758D01*
X76425697Y-16086990D01*
X76032371Y-16479630D01*
X75819243Y-16992900D01*
X75818758Y-17548661D01*
X76030990Y-18062303D01*
X76423630Y-18455629D01*
X76936900Y-18668757D01*
X77492661Y-18669242D01*
X78006303Y-18457010D01*
X78399629Y-18064370D01*
X78485949Y-17856488D01*
X78570990Y-18062303D01*
X78963630Y-18455629D01*
X79476900Y-18668757D01*
X80032661Y-18669242D01*
X80546303Y-18457010D01*
X80899763Y-18104167D01*
X80930838Y-18269317D01*
X81069910Y-18485441D01*
X81282110Y-18630431D01*
X81534000Y-18681440D01*
X81607895Y-18681440D01*
X85333000Y-21578744D01*
X85333000Y-28818000D01*
X84520448Y-28818000D01*
X84739944Y-28598887D01*
X84951329Y-28089816D01*
X84951810Y-27538602D01*
X84741314Y-27029163D01*
X84351887Y-26639056D01*
X84120619Y-26543025D01*
X84349837Y-26448314D01*
X84739944Y-26058887D01*
X84951329Y-25549816D01*
X84951810Y-24998602D01*
X84741314Y-24489163D01*
X84351887Y-24099056D01*
X83842816Y-23887671D01*
X83291602Y-23887190D01*
X82782163Y-24097686D01*
X82424010Y-24455215D01*
X82424010Y-23252430D01*
X82379732Y-23017113D01*
X82240660Y-22800989D01*
X82028460Y-22655999D01*
X81776570Y-22604990D01*
X80275430Y-22604990D01*
X80040113Y-22649268D01*
X79823989Y-22788340D01*
X79678999Y-23000540D01*
X79627990Y-23252430D01*
X79627990Y-24753570D01*
X79672268Y-24988887D01*
X79684567Y-25008000D01*
X70993000Y-25008000D01*
X70405581Y-25124845D01*
X69907591Y-25457591D01*
X68510591Y-26854591D01*
X68177845Y-27352581D01*
X68061000Y-27940000D01*
X64127000Y-27940000D01*
X64127000Y-23004275D01*
X72215584Y-23004275D01*
X72589306Y-23908752D01*
X73280708Y-24601362D01*
X74184531Y-24976662D01*
X75163175Y-24977516D01*
X76067652Y-24603794D01*
X76760262Y-23912392D01*
X77135562Y-23008569D01*
X77136416Y-22029925D01*
X76762694Y-21125448D01*
X76071292Y-20432838D01*
X75167469Y-20057538D01*
X74188825Y-20056684D01*
X73284348Y-20430406D01*
X72591738Y-21121808D01*
X72216438Y-22025631D01*
X72215584Y-23004275D01*
X64127000Y-23004275D01*
X64127000Y-14127000D01*
X147873000Y-14127000D01*
X147873000Y-72873000D01*
X147873000Y-72873000D01*
G37*
X147873000Y-72873000D02*
X64127000Y-72873000D01*
X64127000Y-69364661D01*
X76072758Y-69364661D01*
X76284990Y-69878303D01*
X76677630Y-70271629D01*
X77190900Y-70484757D01*
X77746661Y-70485242D01*
X78260303Y-70273010D01*
X78653629Y-69880370D01*
X78866757Y-69367100D01*
X78866759Y-69364661D01*
X88772758Y-69364661D01*
X88984990Y-69878303D01*
X89377630Y-70271629D01*
X89890900Y-70484757D01*
X90446661Y-70485242D01*
X90960303Y-70273010D01*
X91353629Y-69880370D01*
X91566757Y-69367100D01*
X91567242Y-68811339D01*
X91355010Y-68297697D01*
X90962370Y-67904371D01*
X90449100Y-67691243D01*
X89893339Y-67690758D01*
X89379697Y-67902990D01*
X88986371Y-68295630D01*
X88773243Y-68808900D01*
X88772758Y-69364661D01*
X78866759Y-69364661D01*
X78867242Y-68811339D01*
X78655010Y-68297697D01*
X78262370Y-67904371D01*
X77749100Y-67691243D01*
X77193339Y-67690758D01*
X76679697Y-67902990D01*
X76286371Y-68295630D01*
X76073243Y-68808900D01*
X76072758Y-69364661D01*
X64127000Y-69364661D01*
X64127000Y-66316661D01*
X76072758Y-66316661D01*
X76284990Y-66830303D01*
X76677630Y-67223629D01*
X77190900Y-67436757D01*
X77746661Y-67437242D01*
X78260303Y-67225010D01*
X78653629Y-66832370D01*
X78866757Y-66319100D01*
X78867242Y-65763339D01*
X78655010Y-65249697D01*
X78262370Y-64856371D01*
X77749100Y-64643243D01*
X77193339Y-64642758D01*
X76679697Y-64854990D01*
X76286371Y-65247630D01*
X76073243Y-65760900D01*
X76072758Y-66316661D01*
X64127000Y-66316661D01*
X64127000Y-27940000D01*
X68061000Y-27940000D01*
X68061000Y-59944000D01*
X68177845Y-60531419D01*
X68510591Y-61029409D01*
X71558591Y-64077409D01*
X72056581Y-64410155D01*
X72644000Y-64527000D01*
X88392000Y-64527000D01*
X88979419Y-64410155D01*
X89477409Y-64077409D01*
X91694818Y-61860000D01*
X91925182Y-61860000D01*
X89262333Y-64522849D01*
X89049236Y-64665236D01*
X88705651Y-65179447D01*
X88585000Y-65786000D01*
X88585000Y-66040000D01*
X88705651Y-66646553D01*
X89049236Y-67160764D01*
X89563447Y-67504349D01*
X90170000Y-67625000D01*
X90776553Y-67504349D01*
X91290764Y-67160764D01*
X91634349Y-66646553D01*
X91672609Y-66454209D01*
X93726818Y-64400000D01*
X95004254Y-64400000D01*
X94755173Y-64648647D01*
X94551732Y-65138587D01*
X94551269Y-65669086D01*
X94753854Y-66159380D01*
X95128647Y-66534827D01*
X95466446Y-66675094D01*
X95130620Y-66813854D01*
X94755173Y-67188647D01*
X94551732Y-67678587D01*
X94551269Y-68209086D01*
X94753854Y-68699380D01*
X95128647Y-69074827D01*
X95618587Y-69278268D01*
X96149086Y-69278731D01*
X96639380Y-69076146D01*
X97014827Y-68701353D01*
X97218268Y-68211413D01*
X97218731Y-67680914D01*
X97016146Y-67190620D01*
X96641353Y-66815173D01*
X96303554Y-66674906D01*
X96639380Y-66536146D01*
X97014827Y-66161353D01*
X97218268Y-65671413D01*
X97218731Y-65140914D01*
X97016146Y-64650620D01*
X96641353Y-64275173D01*
X96544533Y-64234970D01*
X96970409Y-63950409D01*
X97303155Y-63452419D01*
X97420000Y-62865000D01*
X97303155Y-62277581D01*
X96970409Y-61779591D01*
X96694149Y-61595000D01*
X96970409Y-61410409D01*
X97303155Y-60912419D01*
X97420000Y-60325000D01*
X97303155Y-59737581D01*
X96970409Y-59239591D01*
X96544816Y-58955219D01*
X96639380Y-58916146D01*
X97014827Y-58541353D01*
X97218268Y-58051413D01*
X97218731Y-57520914D01*
X97016146Y-57030620D01*
X96641353Y-56655173D01*
X96303554Y-56514906D01*
X96639380Y-56376146D01*
X97014827Y-56001353D01*
X97218268Y-55511413D01*
X97218731Y-54980914D01*
X97016146Y-54490620D01*
X96641353Y-54115173D01*
X96303554Y-53974906D01*
X96639380Y-53836146D01*
X97014827Y-53461353D01*
X97218268Y-52971413D01*
X97218731Y-52440914D01*
X97016146Y-51950620D01*
X96641353Y-51575173D01*
X96544533Y-51534970D01*
X96970409Y-51250409D01*
X97303155Y-50752419D01*
X97420000Y-50165000D01*
X97303155Y-49577581D01*
X96970409Y-49079591D01*
X96694149Y-48895000D01*
X96970409Y-48710409D01*
X97303155Y-48212419D01*
X97420000Y-47625000D01*
X97303155Y-47037581D01*
X96970409Y-46539591D01*
X96758516Y-46398008D01*
X96818817Y-46386662D01*
X97034941Y-46247590D01*
X97179931Y-46035390D01*
X97230940Y-45783500D01*
X97230940Y-44386500D01*
X97186662Y-44151183D01*
X97047590Y-43935059D01*
X96835390Y-43790069D01*
X96583500Y-43739060D01*
X95186500Y-43739060D01*
X94951183Y-43783338D01*
X94735059Y-43922410D01*
X94590069Y-44134610D01*
X94539060Y-44386500D01*
X94539060Y-45783500D01*
X94583338Y-46018817D01*
X94629143Y-46090000D01*
X87376818Y-46090000D01*
X85101000Y-43814182D01*
X85101000Y-39000000D01*
X98465000Y-39000000D01*
X98465000Y-69000000D01*
X98581845Y-69587419D01*
X98914591Y-70085409D01*
X100914591Y-72085409D01*
X101412581Y-72418155D01*
X102000000Y-72535000D01*
X106000000Y-72535000D01*
X106587419Y-72418155D01*
X107085409Y-72085409D01*
X111595818Y-67575000D01*
X113955769Y-67575000D01*
X113906560Y-67818000D01*
X113906560Y-69342000D01*
X113950838Y-69577317D01*
X114089910Y-69793441D01*
X114302110Y-69938431D01*
X114554000Y-69989440D01*
X116078000Y-69989440D01*
X116313317Y-69945162D01*
X116529441Y-69806090D01*
X116674431Y-69593890D01*
X116725440Y-69342000D01*
X116725440Y-67818000D01*
X116681162Y-67582683D01*
X116542090Y-67366559D01*
X116329890Y-67221569D01*
X116274333Y-67210318D01*
X116401409Y-67125409D01*
X116734155Y-66627419D01*
X116851000Y-66040000D01*
X116734155Y-65452581D01*
X116401409Y-64954591D01*
X116298450Y-64885796D01*
X133984011Y-64885796D01*
X134852234Y-66987058D01*
X136458486Y-68596116D01*
X138558229Y-69468005D01*
X140831796Y-69469989D01*
X142933058Y-68601766D01*
X144542116Y-66995514D01*
X145414005Y-64895771D01*
X145415989Y-62622204D01*
X144547766Y-60520942D01*
X142941514Y-58911884D01*
X140841771Y-58039995D01*
X138568204Y-58038011D01*
X136466942Y-58906234D01*
X134857884Y-60512486D01*
X133985995Y-62612229D01*
X133984011Y-64885796D01*
X116298450Y-64885796D01*
X116039353Y-64712673D01*
X116106303Y-64685010D01*
X116499629Y-64292370D01*
X116712757Y-63779100D01*
X116713242Y-63223339D01*
X116501010Y-62709697D01*
X116108370Y-62316371D01*
X115595100Y-62103243D01*
X115039339Y-62102758D01*
X114525697Y-62314990D01*
X114132371Y-62707630D01*
X113919243Y-63220900D01*
X113918758Y-63776661D01*
X114130990Y-64290303D01*
X114345313Y-64505000D01*
X110960000Y-64505000D01*
X110372581Y-64621845D01*
X109874591Y-64954591D01*
X105364182Y-69465000D01*
X102635818Y-69465000D01*
X101535000Y-68364182D01*
X101535000Y-39635818D01*
X102043818Y-39127000D01*
X114463769Y-39127000D01*
X114414560Y-39370000D01*
X114414560Y-40894000D01*
X114458838Y-41129317D01*
X114597910Y-41345441D01*
X114810110Y-41490431D01*
X115062000Y-41541440D01*
X116586000Y-41541440D01*
X116821317Y-41497162D01*
X117037441Y-41358090D01*
X117182431Y-41145890D01*
X117233440Y-40894000D01*
X117233440Y-39370000D01*
X117189162Y-39134683D01*
X117050090Y-38918559D01*
X116837890Y-38773569D01*
X116782333Y-38762318D01*
X116909409Y-38677409D01*
X117242155Y-38179419D01*
X117359000Y-37592000D01*
X117242155Y-37004581D01*
X116963137Y-36587000D01*
X118416182Y-36587000D01*
X118465000Y-36635818D01*
X118465000Y-43364182D01*
X117233440Y-44595742D01*
X117233440Y-43434000D01*
X117189162Y-43198683D01*
X117050090Y-42982559D01*
X116837890Y-42837569D01*
X116586000Y-42786560D01*
X115062000Y-42786560D01*
X114826683Y-42830838D01*
X114610559Y-42969910D01*
X114465569Y-43182110D01*
X114414560Y-43434000D01*
X114414560Y-44958000D01*
X114458838Y-45193317D01*
X114463782Y-45201000D01*
X113264000Y-45201000D01*
X112676581Y-45317845D01*
X112178591Y-45650591D01*
X111739182Y-46090000D01*
X104385746Y-46090000D01*
X104634827Y-45841353D01*
X104838268Y-45351413D01*
X104838731Y-44820914D01*
X104636146Y-44330620D01*
X104261353Y-43955173D01*
X103771413Y-43751732D01*
X103240914Y-43751269D01*
X102750620Y-43953854D01*
X102375173Y-44328647D01*
X102171732Y-44818587D01*
X102171269Y-45349086D01*
X102373854Y-45839380D01*
X102748647Y-46214827D01*
X102845467Y-46255030D01*
X102419591Y-46539591D01*
X102086845Y-47037581D01*
X101970000Y-47625000D01*
X102086845Y-48212419D01*
X102419591Y-48710409D01*
X102845184Y-48994781D01*
X102750620Y-49033854D01*
X102375173Y-49408647D01*
X102171732Y-49898587D01*
X102171269Y-50429086D01*
X102373854Y-50919380D01*
X102748647Y-51294827D01*
X103086446Y-51435094D01*
X102750620Y-51573854D01*
X102375173Y-51948647D01*
X102171732Y-52438587D01*
X102171269Y-52969086D01*
X102373854Y-53459380D01*
X102748647Y-53834827D01*
X103086446Y-53975094D01*
X102750620Y-54113854D01*
X102375173Y-54488647D01*
X102171732Y-54978587D01*
X102171269Y-55509086D01*
X102373854Y-55999380D01*
X102748647Y-56374827D01*
X103086446Y-56515094D01*
X102750620Y-56653854D01*
X102375173Y-57028647D01*
X102171732Y-57518587D01*
X102171269Y-58049086D01*
X102373854Y-58539380D01*
X102748647Y-58914827D01*
X103086446Y-59055094D01*
X102750620Y-59193854D01*
X102375173Y-59568647D01*
X102171732Y-60058587D01*
X102171269Y-60589086D01*
X102373854Y-61079380D01*
X102748647Y-61454827D01*
X103086446Y-61595094D01*
X102750620Y-61733854D01*
X102375173Y-62108647D01*
X102171732Y-62598587D01*
X102171269Y-63129086D01*
X102373854Y-63619380D01*
X102748647Y-63994827D01*
X103086446Y-64135094D01*
X102750620Y-64273854D01*
X102375173Y-64648647D01*
X102171732Y-65138587D01*
X102171269Y-65669086D01*
X102373854Y-66159380D01*
X102748647Y-66534827D01*
X103086446Y-66675094D01*
X102750620Y-66813854D01*
X102375173Y-67188647D01*
X102171732Y-67678587D01*
X102171269Y-68209086D01*
X102373854Y-68699380D01*
X102748647Y-69074827D01*
X103238587Y-69278268D01*
X103769086Y-69278731D01*
X104259380Y-69076146D01*
X104634827Y-68701353D01*
X104838268Y-68211413D01*
X104838731Y-67680914D01*
X104636146Y-67190620D01*
X104261353Y-66815173D01*
X103923554Y-66674906D01*
X104259380Y-66536146D01*
X104634827Y-66161353D01*
X104838268Y-65671413D01*
X104838731Y-65140914D01*
X104636146Y-64650620D01*
X104261353Y-64275173D01*
X103923554Y-64134906D01*
X104259380Y-63996146D01*
X104634827Y-63621353D01*
X104838268Y-63131413D01*
X104838731Y-62600914D01*
X104636146Y-62110620D01*
X104261353Y-61735173D01*
X103923554Y-61594906D01*
X104259380Y-61456146D01*
X104634827Y-61081353D01*
X104838268Y-60591413D01*
X104838731Y-60060914D01*
X104636146Y-59570620D01*
X104261353Y-59195173D01*
X104229630Y-59182000D01*
X113906560Y-59182000D01*
X113906560Y-60706000D01*
X113950838Y-60941317D01*
X114089910Y-61157441D01*
X114302110Y-61302431D01*
X114554000Y-61353440D01*
X116078000Y-61353440D01*
X116313317Y-61309162D01*
X116529441Y-61170090D01*
X116674431Y-60957890D01*
X116725440Y-60706000D01*
X116725440Y-59182000D01*
X116681162Y-58946683D01*
X116542090Y-58730559D01*
X116329890Y-58585569D01*
X116146876Y-58548508D01*
X116499629Y-58196370D01*
X116712757Y-57683100D01*
X116713242Y-57127339D01*
X116501010Y-56613697D01*
X116108370Y-56220371D01*
X115900488Y-56134051D01*
X116106303Y-56049010D01*
X116499629Y-55656370D01*
X116608299Y-55394661D01*
X128650758Y-55394661D01*
X128862990Y-55908303D01*
X129255630Y-56301629D01*
X129768900Y-56514757D01*
X130324661Y-56515242D01*
X130838303Y-56303010D01*
X131231629Y-55910370D01*
X131444757Y-55397100D01*
X131445242Y-54841339D01*
X131233010Y-54327697D01*
X130840370Y-53934371D01*
X130327100Y-53721243D01*
X129771339Y-53720758D01*
X129257697Y-53932990D01*
X128864371Y-54325630D01*
X128651243Y-54838900D01*
X128650758Y-55394661D01*
X116608299Y-55394661D01*
X116712757Y-55143100D01*
X116713242Y-54587339D01*
X116501010Y-54073697D01*
X116108370Y-53680371D01*
X115595100Y-53467243D01*
X115039339Y-53466758D01*
X114525697Y-53678990D01*
X114132371Y-54071630D01*
X113919243Y-54584900D01*
X113918758Y-55140661D01*
X114130990Y-55654303D01*
X114523630Y-56047629D01*
X114731512Y-56133949D01*
X114525697Y-56218990D01*
X114132371Y-56611630D01*
X113919243Y-57124900D01*
X113918758Y-57680661D01*
X114130990Y-58194303D01*
X114483833Y-58547763D01*
X114318683Y-58578838D01*
X114102559Y-58717910D01*
X113957569Y-58930110D01*
X113906560Y-59182000D01*
X104229630Y-59182000D01*
X103923554Y-59054906D01*
X104259380Y-58916146D01*
X104634827Y-58541353D01*
X104838268Y-58051413D01*
X104838731Y-57520914D01*
X104636146Y-57030620D01*
X104261353Y-56655173D01*
X103923554Y-56514906D01*
X104259380Y-56376146D01*
X104634827Y-56001353D01*
X104838268Y-55511413D01*
X104838731Y-54980914D01*
X104636146Y-54490620D01*
X104261353Y-54115173D01*
X103923554Y-53974906D01*
X104259380Y-53836146D01*
X104634827Y-53461353D01*
X104838268Y-52971413D01*
X104838731Y-52440914D01*
X104636146Y-51950620D01*
X104261353Y-51575173D01*
X103923554Y-51434906D01*
X104259380Y-51296146D01*
X104634827Y-50921353D01*
X104838268Y-50431413D01*
X104838731Y-49900914D01*
X104636146Y-49410620D01*
X104385963Y-49160000D01*
X112375000Y-49160000D01*
X112962419Y-49043155D01*
X113460409Y-48710409D01*
X113899818Y-48271000D01*
X114853372Y-48271000D01*
X114640371Y-48483630D01*
X114427243Y-48996900D01*
X114426758Y-49552661D01*
X114638990Y-50066303D01*
X115031630Y-50459629D01*
X115544900Y-50672757D01*
X116100661Y-50673242D01*
X116614303Y-50461010D01*
X117007629Y-50068370D01*
X117220757Y-49555100D01*
X117221242Y-48999339D01*
X117009010Y-48485697D01*
X116794687Y-48271000D01*
X117264000Y-48271000D01*
X117851419Y-48154155D01*
X118349409Y-47821409D01*
X121085409Y-45085409D01*
X121418155Y-44587419D01*
X121535000Y-44000000D01*
X121535000Y-43202661D01*
X122554758Y-43202661D01*
X122766990Y-43716303D01*
X123159630Y-44109629D01*
X123672900Y-44322757D01*
X124228661Y-44323242D01*
X124742303Y-44111010D01*
X125135629Y-43718370D01*
X125268569Y-43398213D01*
X129247392Y-43398213D01*
X129316857Y-43640397D01*
X129840302Y-43827144D01*
X130395368Y-43799362D01*
X130779143Y-43640397D01*
X130848608Y-43398213D01*
X130048000Y-42597605D01*
X129247392Y-43398213D01*
X125268569Y-43398213D01*
X125348757Y-43205100D01*
X125349242Y-42649339D01*
X125167837Y-42210302D01*
X128638856Y-42210302D01*
X128666638Y-42765368D01*
X128825603Y-43149143D01*
X129067787Y-43218608D01*
X129868395Y-42418000D01*
X130227605Y-42418000D01*
X131028213Y-43218608D01*
X131270397Y-43149143D01*
X131457144Y-42625698D01*
X131429362Y-42070632D01*
X131270397Y-41686857D01*
X131028213Y-41617392D01*
X130227605Y-42418000D01*
X129868395Y-42418000D01*
X129067787Y-41617392D01*
X128825603Y-41686857D01*
X128638856Y-42210302D01*
X125167837Y-42210302D01*
X125137010Y-42135697D01*
X124744370Y-41742371D01*
X124231100Y-41529243D01*
X123675339Y-41528758D01*
X123161697Y-41740990D01*
X122768371Y-42133630D01*
X122555243Y-42646900D01*
X122554758Y-43202661D01*
X121535000Y-43202661D01*
X121535000Y-41437787D01*
X129247392Y-41437787D01*
X130048000Y-42238395D01*
X130848608Y-41437787D01*
X130779143Y-41195603D01*
X130255698Y-41008856D01*
X129700632Y-41036638D01*
X129316857Y-41195603D01*
X129247392Y-41437787D01*
X121535000Y-41437787D01*
X121535000Y-36000000D01*
X121418155Y-35412581D01*
X121085409Y-34914591D01*
X121084614Y-34913796D01*
X133984011Y-34913796D01*
X134852234Y-37015058D01*
X136458486Y-38624116D01*
X138558229Y-39496005D01*
X140831796Y-39497989D01*
X142933058Y-38629766D01*
X144542116Y-37023514D01*
X145414005Y-34923771D01*
X145415989Y-32650204D01*
X144547766Y-30548942D01*
X142941514Y-28939884D01*
X140841771Y-28067995D01*
X138568204Y-28066011D01*
X136466942Y-28934234D01*
X134857884Y-30540486D01*
X133985995Y-32640229D01*
X133984011Y-34913796D01*
X121084614Y-34913796D01*
X120137409Y-33966591D01*
X119639419Y-33633845D01*
X119052000Y-33517000D01*
X115824000Y-33517000D01*
X115236581Y-33633845D01*
X114738591Y-33966591D01*
X114405845Y-34464581D01*
X114289000Y-35052000D01*
X114405845Y-35639419D01*
X114684863Y-36057000D01*
X101408000Y-36057000D01*
X100820581Y-36173845D01*
X100322591Y-36506591D01*
X98914591Y-37914591D01*
X98581845Y-38412581D01*
X98465000Y-39000000D01*
X85101000Y-39000000D01*
X85101000Y-32893000D01*
X84984155Y-32305581D01*
X84705137Y-31888000D01*
X86741000Y-31888000D01*
X87328419Y-31771155D01*
X87826409Y-31438409D01*
X87953409Y-31311409D01*
X88023698Y-31206213D01*
X123151392Y-31206213D01*
X123220857Y-31448397D01*
X123744302Y-31635144D01*
X124299368Y-31607362D01*
X124683143Y-31448397D01*
X124752608Y-31206213D01*
X123952000Y-30405605D01*
X123151392Y-31206213D01*
X88023698Y-31206213D01*
X88286155Y-30813419D01*
X88403000Y-30226000D01*
X88403000Y-30018302D01*
X122542856Y-30018302D01*
X122570638Y-30573368D01*
X122729603Y-30957143D01*
X122971787Y-31026608D01*
X123772395Y-30226000D01*
X124131605Y-30226000D01*
X124932213Y-31026608D01*
X125174397Y-30957143D01*
X125361144Y-30433698D01*
X125333362Y-29878632D01*
X125174397Y-29494857D01*
X124932213Y-29425392D01*
X124131605Y-30226000D01*
X123772395Y-30226000D01*
X122971787Y-29425392D01*
X122729603Y-29494857D01*
X122542856Y-30018302D01*
X88403000Y-30018302D01*
X88403000Y-29245787D01*
X123151392Y-29245787D01*
X123952000Y-30046395D01*
X124752608Y-29245787D01*
X124683143Y-29003603D01*
X124159698Y-28816856D01*
X123604632Y-28844638D01*
X123220857Y-29003603D01*
X123151392Y-29245787D01*
X88403000Y-29245787D01*
X88403000Y-23991796D01*
X90042011Y-23991796D01*
X90910234Y-26093058D01*
X92516486Y-27702116D01*
X94616229Y-28574005D01*
X96889796Y-28575989D01*
X98991058Y-27707766D01*
X99743307Y-26956828D01*
X121812777Y-26956828D01*
X122408556Y-27647641D01*
X124493537Y-28554265D01*
X126766758Y-28593989D01*
X128882142Y-27760765D01*
X129051444Y-27647641D01*
X129647223Y-26956828D01*
X125730000Y-23039605D01*
X121812777Y-26956828D01*
X99743307Y-26956828D01*
X100600116Y-26101514D01*
X101472005Y-24001771D01*
X101472096Y-23896758D01*
X119996011Y-23896758D01*
X120829235Y-26012142D01*
X120942359Y-26181444D01*
X121633172Y-26777223D01*
X125550395Y-22860000D01*
X125909605Y-22860000D01*
X129826828Y-26777223D01*
X130517641Y-26181444D01*
X131424265Y-24096463D01*
X131463989Y-21823242D01*
X130630765Y-19707858D01*
X130517641Y-19538556D01*
X129826828Y-18942777D01*
X125909605Y-22860000D01*
X125550395Y-22860000D01*
X121633172Y-18942777D01*
X120942359Y-19538556D01*
X120035735Y-21623537D01*
X119996011Y-23896758D01*
X101472096Y-23896758D01*
X101473989Y-21728204D01*
X100605766Y-19626942D01*
X99743503Y-18763172D01*
X121812777Y-18763172D01*
X125730000Y-22680395D01*
X129647223Y-18763172D01*
X129051444Y-18072359D01*
X126966463Y-17165735D01*
X124693242Y-17126011D01*
X122577858Y-17959235D01*
X122408556Y-18072359D01*
X121812777Y-18763172D01*
X99743503Y-18763172D01*
X98999514Y-18017884D01*
X96899771Y-17145995D01*
X94626204Y-17144011D01*
X92524942Y-18012234D01*
X90915884Y-19618486D01*
X90043995Y-21718229D01*
X90042011Y-23991796D01*
X88403000Y-23991796D01*
X88403000Y-20828000D01*
X88384224Y-20733605D01*
X88391147Y-20637607D01*
X88326292Y-20442361D01*
X88286155Y-20240581D01*
X88232683Y-20160555D01*
X88202343Y-20069216D01*
X88067709Y-19913653D01*
X87953409Y-19742591D01*
X87873384Y-19689120D01*
X87810399Y-19616344D01*
X83686395Y-16408785D01*
X83661162Y-16274683D01*
X83522090Y-16058559D01*
X83309890Y-15913569D01*
X83058000Y-15862560D01*
X82843862Y-15862560D01*
X82702982Y-15791936D01*
X82105607Y-15748853D01*
X81763295Y-15862560D01*
X81534000Y-15862560D01*
X81298683Y-15906838D01*
X81082559Y-16045910D01*
X80937569Y-16258110D01*
X80900508Y-16441124D01*
X80548370Y-16088371D01*
X80035100Y-15875243D01*
X79479339Y-15874758D01*
X78965697Y-16086990D01*
X78572371Y-16479630D01*
X78486051Y-16687512D01*
X78401010Y-16481697D01*
X78008370Y-16088371D01*
X77495100Y-15875243D01*
X76939339Y-15874758D01*
X76425697Y-16086990D01*
X76032371Y-16479630D01*
X75819243Y-16992900D01*
X75818758Y-17548661D01*
X76030990Y-18062303D01*
X76423630Y-18455629D01*
X76936900Y-18668757D01*
X77492661Y-18669242D01*
X78006303Y-18457010D01*
X78399629Y-18064370D01*
X78485949Y-17856488D01*
X78570990Y-18062303D01*
X78963630Y-18455629D01*
X79476900Y-18668757D01*
X80032661Y-18669242D01*
X80546303Y-18457010D01*
X80899763Y-18104167D01*
X80930838Y-18269317D01*
X81069910Y-18485441D01*
X81282110Y-18630431D01*
X81534000Y-18681440D01*
X81607895Y-18681440D01*
X85333000Y-21578744D01*
X85333000Y-28818000D01*
X84520448Y-28818000D01*
X84739944Y-28598887D01*
X84951329Y-28089816D01*
X84951810Y-27538602D01*
X84741314Y-27029163D01*
X84351887Y-26639056D01*
X84120619Y-26543025D01*
X84349837Y-26448314D01*
X84739944Y-26058887D01*
X84951329Y-25549816D01*
X84951810Y-24998602D01*
X84741314Y-24489163D01*
X84351887Y-24099056D01*
X83842816Y-23887671D01*
X83291602Y-23887190D01*
X82782163Y-24097686D01*
X82424010Y-24455215D01*
X82424010Y-23252430D01*
X82379732Y-23017113D01*
X82240660Y-22800989D01*
X82028460Y-22655999D01*
X81776570Y-22604990D01*
X80275430Y-22604990D01*
X80040113Y-22649268D01*
X79823989Y-22788340D01*
X79678999Y-23000540D01*
X79627990Y-23252430D01*
X79627990Y-24753570D01*
X79672268Y-24988887D01*
X79684567Y-25008000D01*
X70993000Y-25008000D01*
X70405581Y-25124845D01*
X69907591Y-25457591D01*
X68510591Y-26854591D01*
X68177845Y-27352581D01*
X68061000Y-27940000D01*
X64127000Y-27940000D01*
X64127000Y-23004275D01*
X72215584Y-23004275D01*
X72589306Y-23908752D01*
X73280708Y-24601362D01*
X74184531Y-24976662D01*
X75163175Y-24977516D01*
X76067652Y-24603794D01*
X76760262Y-23912392D01*
X77135562Y-23008569D01*
X77136416Y-22029925D01*
X76762694Y-21125448D01*
X76071292Y-20432838D01*
X75167469Y-20057538D01*
X74188825Y-20056684D01*
X73284348Y-20430406D01*
X72591738Y-21121808D01*
X72216438Y-22025631D01*
X72215584Y-23004275D01*
X64127000Y-23004275D01*
X64127000Y-14127000D01*
X147873000Y-14127000D01*
X147873000Y-72873000D01*
M02*
