M48
METRIC,TZ
T1C0.813
T2C0.899
T3C1.016
T4C3.251
T5C6.096
%
G90
G05
T1
X75438Y-56896
X77470Y-66040
X77470Y-69088
X88138Y-56896
X90170Y-66040
X90170Y-69088
X92456Y-54610
X92456Y-57150
X95885Y-45085
X95885Y-47625
X95885Y-50165
X95885Y-52705
X95885Y-55245
X95885Y-57785
X95885Y-60325
X95885Y-62865
X95885Y-65405
X95885Y-67945
X103505Y-45085
X103505Y-47625
X103505Y-50165
X103505Y-52705
X103505Y-55245
X103505Y-57785
X103505Y-60325
X103505Y-62865
X103505Y-65405
X103505Y-67945
X123952Y-30226
X123952Y-42926
X130048Y-42418
X130048Y-55118
T2
X81026Y-24003
X81026Y-26543
X81026Y-29083
X81026Y-31623
X83566Y-25273
X83566Y-27813
X83566Y-30353
X83566Y-32893
T3
X77216Y-17272
X79756Y-17272
X82296Y-17272
X115316Y-54864
X115316Y-57404
X115316Y-59944
X115316Y-63500
X115316Y-66040
X115316Y-68580
X115824Y-35052
X115824Y-37592
X115824Y-40132
X115824Y-44196
X115824Y-46736
X115824Y-49276
T4
X74676Y-22517
X74676Y-34387
T5
X95758Y-22860
X125730Y-22860
X139700Y-33782
X139700Y-63754
T0
M30
