M48
;DRILL file {Pcbnew (2013-jul-07)-stable} date Tue 25 Jul 2017 02:22:46 PM PDT
;FORMAT={2:4/ absolute / inch / suppress leading zeros}
FMAT,2
INCH,TZ
T1C0.032
T2C0.040
T3C0.041
%
G90
G05
M72
T1
X62250Y-56750
X62250Y-57750
X62250Y-58750
X66250Y-56750
X66250Y-57750
X66250Y-58750
X69750Y-55250
X69750Y-56750
X69750Y-57750
X69750Y-59250
X69750Y-60250
X69750Y-61750
X73750Y-55500
X73750Y-56500
X73750Y-58000
X73750Y-59000
X73750Y-60500
X73750Y-61500
X75500Y-55250
X75500Y-58000
X75500Y-60500
X79500Y-55250
X79500Y-58000
X79500Y-60500
T2
X60250Y-56750
X60250Y-57750
X60250Y-58750
X60250Y-59750
X60250Y-62500
X60250Y-63500
X60250Y-64500
X81250Y-54500
X81250Y-55500
X81250Y-56500
X81250Y-58250
X81250Y-59250
X81250Y-60250
X81250Y-61500
X81250Y-62500
X81250Y-63500
X96750Y-54000
X96750Y-55000
X96750Y-59250
X96750Y-60250
X96750Y-64500
X96750Y-65500
T3
X86750Y-58250
X86750Y-61200
X92000Y-53000
X92000Y-55950
X92000Y-63500
X92000Y-66450
T0
M30
