<?xml version="1.0" standalone="no"?>
 <!DOCTYPE svg PUBLIC "-//W3C//DTD SVG 1.1//EN" 
 "http://www.w3.org/Graphics/SVG/1.1/DTD/svg11.dtd"> 
<svg xmlns="http://www.w3.org/2000/svg" version="1.1" 
    width="41.9989cm" height="29.7002cm" viewBox="0 0 165350 116930 ">
<title>SVG Picture created as 3ChanMosfetBoard--brd.svg date 2017/07/21 11:09:28 </title>
  <desc>Picture generated by PCBNEW </desc>
<g style="fill:#000000; fill-opacity:1;stroke:#000000; stroke-opacity:1;
stroke-linecap:round; stroke-linejoin:round; "
 transform="translate(0 0) scale(1 1)">
</g>
<g style="fill:#000000; fill-opacity:0.0; 
stroke:#000000; stroke-width:39.3701; stroke-opacity:1; 
stroke-linecap:round; stroke-linejoin:round;">
<path d="M4000 4000
L161350 4000
L161350 112930
L4000 112930
L4000 4000
" />
<path d="M4700 4700
L160650 4700
L160650 112230
L4700 112230
L4700 4700
" />
<path d="M26470 4000
L26470 4700
" />
<path d="M15382 4552
L15097 4552
" />
<path d="M15240 4552
L15240 4052
L15192 4123
L15144 4171
L15097 4195
" />
<path d="M26470 112930
L26470 112230
" />
<path d="M15382 112782
L15097 112782
" />
<path d="M15240 112782
L15240 112282
L15192 112353
L15144 112401
L15097 112425
" />
<path d="M48940 4000
L48940 4700
" />
<path d="M37567 4100
L37590 4076
L37638 4052
L37757 4052
L37805 4076
L37829 4100
L37852 4147
L37852 4195
L37829 4266
L37543 4552
L37852 4552
" />
<path d="M48940 112930
L48940 112230
" />
<path d="M37567 112330
L37590 112306
L37638 112282
L37757 112282
L37805 112306
L37829 112330
L37852 112377
L37852 112425
L37829 112496
L37543 112782
L37852 112782
" />
<path d="M71410 4000
L71410 4700
" />
<path d="M60013 4052
L60322 4052
L60156 4242
L60227 4242
L60275 4266
L60299 4290
L60322 4338
L60322 4457
L60299 4504
L60275 4528
L60227 4552
L60084 4552
L60037 4528
L60013 4504
" />
<path d="M71410 112930
L71410 112230
" />
<path d="M60013 112282
L60322 112282
L60156 112472
L60227 112472
L60275 112496
L60299 112520
L60322 112568
L60322 112687
L60299 112734
L60275 112758
L60227 112782
L60084 112782
L60037 112758
L60013 112734
" />
<path d="M93880 4000
L93880 4700
" />
<path d="M82745 4219
L82745 4552
" />
<path d="M82626 4028
L82507 4385
L82816 4385
" />
<path d="M93880 112930
L93880 112230
" />
<path d="M82745 112449
L82745 112782
" />
<path d="M82626 112258
L82507 112615
L82816 112615
" />
<path d="M116350 4000
L116350 4700
" />
<path d="M105239 4052
L105000 4052
L104977 4290
L105000 4266
L105048 4242
L105167 4242
L105215 4266
L105239 4290
L105262 4338
L105262 4457
L105239 4504
L105215 4528
L105167 4552
L105048 4552
L105000 4528
L104977 4504
" />
<path d="M116350 112930
L116350 112230
" />
<path d="M105239 112282
L105000 112282
L104977 112520
L105000 112496
L105048 112472
L105167 112472
L105215 112496
L105239 112520
L105262 112568
L105262 112687
L105239 112734
L105215 112758
L105167 112782
L105048 112782
L105000 112758
L104977 112734
" />
<path d="M138820 4000
L138820 4700
" />
<path d="M127685 4052
L127590 4052
L127542 4076
L127518 4100
L127470 4171
L127447 4266
L127447 4457
L127470 4504
L127494 4528
L127542 4552
L127637 4552
L127685 4528
L127709 4504
L127732 4457
L127732 4338
L127709 4290
L127685 4266
L127637 4242
L127542 4242
L127494 4266
L127470 4290
L127447 4338
" />
<path d="M138820 112930
L138820 112230
" />
<path d="M127685 112282
L127590 112282
L127542 112306
L127518 112330
L127470 112401
L127447 112496
L127447 112687
L127470 112734
L127494 112758
L127542 112782
L127637 112782
L127685 112758
L127709 112734
L127732 112687
L127732 112568
L127709 112520
L127685 112496
L127637 112472
L127542 112472
L127494 112496
L127470 112520
L127447 112568
" />
<path d="M149893 4052
L150226 4052
L150012 4552
" />
<path d="M149893 112282
L150226 112282
L150012 112782
" />
<path d="M4000 25780
L4700 25780
" />
<path d="M4230 14949
L4469 14949
" />
<path d="M4183 15092
L4350 14592
L4516 15092
" />
<path d="M161350 25780
L160650 25780
" />
<path d="M160880 14949
L161119 14949
" />
<path d="M160833 15092
L161000 14592
L161166 15092
" />
<path d="M4000 47560
L4700 47560
" />
<path d="M4385 36610
L4457 36634
L4480 36658
L4504 36705
L4504 36777
L4480 36824
L4457 36848
L4409 36872
L4219 36872
L4219 36372
L4385 36372
L4433 36396
L4457 36420
L4480 36467
L4480 36515
L4457 36562
L4433 36586
L4385 36610
L4219 36610
" />
<path d="M161350 47560
L160650 47560
" />
<path d="M161035 36610
L161107 36634
L161130 36658
L161154 36705
L161154 36777
L161130 36824
L161107 36848
L161059 36872
L160869 36872
L160869 36372
L161035 36372
L161083 36396
L161107 36420
L161130 36467
L161130 36515
L161107 36562
L161083 36586
L161035 36610
L160869 36610
" />
<path d="M4000 69340
L4700 69340
" />
<path d="M4504 58604
L4480 58628
L4409 58652
L4361 58652
L4290 58628
L4242 58580
L4219 58533
L4195 58438
L4195 58366
L4219 58271
L4242 58223
L4290 58176
L4361 58152
L4409 58152
L4480 58176
L4504 58200
" />
<path d="M161350 69340
L160650 69340
" />
<path d="M161154 58604
L161130 58628
L161059 58652
L161011 58652
L160940 58628
L160892 58580
L160869 58533
L160845 58438
L160845 58366
L160869 58271
L160892 58223
L160940 58176
L161011 58152
L161059 58152
L161130 58176
L161154 58200
" />
<path d="M4000 91120
L4700 91120
" />
<path d="M4219 80432
L4219 79932
L4338 79932
L4409 79956
L4457 80003
L4480 80051
L4504 80146
L4504 80218
L4480 80313
L4457 80360
L4409 80408
L4338 80432
L4219 80432
" />
<path d="M161350 91120
L160650 91120
" />
<path d="M160869 80432
L160869 79932
L160988 79932
L161059 79956
L161107 80003
L161130 80051
L161154 80146
L161154 80218
L161130 80313
L161107 80360
L161059 80408
L160988 80432
L160869 80432
" />
<path d="M4242 101950
L4409 101950
" />
<path d="M4480 102212
L4242 102212
L4242 101712
L4480 101712
" />
<path d="M160892 101950
L161059 101950
" />
<path d="M161130 102212
L160892 102212
L160892 101712
L161130 101712
" />
<path d="M127800 110672
L127875 110072
L128017 110072
L128100 110101
L128150 110158
L128171 110215
L128185 110330
L128175 110415
L128132 110530
L128096 110587
L128032 110644
L127942 110672
L127800 110672
" />
<path d="M128657 110672
L128696 110358
L128675 110301
L128621 110272
L128507 110272
L128446 110301
" />
<path d="M128660 110644
L128600 110672
L128457 110672
L128403 110644
L128382 110587
L128389 110530
L128425 110472
L128485 110444
L128628 110444
L128689 110415
" />
<path d="M128907 110272
L129135 110272
" />
<path d="M129017 110072
L128953 110587
L128975 110644
L129028 110672
L129085 110672
" />
<path d="M129517 110644
L129457 110672
L129342 110672
L129289 110644
L129267 110587
L129296 110358
L129332 110301
L129392 110272
L129507 110272
L129560 110301
L129582 110358
L129575 110415
L129282 110472
" />
<path d="M129807 110615
L129832 110644
L129800 110672
L129775 110644
L129807 110615
L129800 110672
" />
<path d="M129846 110301
L129871 110330
L129839 110358
L129814 110330
L129846 110301
L129839 110358
" />
<path d="M130582 110130
L130614 110101
L130675 110072
L130817 110072
L130871 110101
L130896 110130
L130917 110187
L130910 110244
L130871 110330
L130485 110672
L130857 110672
" />
<path d="M131428 110672
L131085 110672
" />
<path d="M131257 110672
L131332 110072
L131264 110158
L131200 110215
L131139 110244
" />
<path d="M132192 110272
L132128 110787
L132092 110844
L132032 110872
L132003 110872
" />
<path d="M132217 110072
L132185 110101
L132210 110130
L132242 110101
L132217 110072
L132210 110130
" />
<path d="M132735 110272
L132685 110672
" />
<path d="M132478 110272
L132439 110587
L132460 110644
L132514 110672
L132600 110672
L132660 110644
L132692 110615
" />
<path d="M133057 110672
L133003 110644
L132982 110587
L133046 110072
" />
<path d="M133782 110130
L133814 110101
L133875 110072
L134017 110072
L134071 110101
L134096 110130
L134117 110187
L134110 110244
L134071 110330
L133685 110672
L134057 110672
" />
<path d="M134503 110072
L134560 110072
L134614 110101
L134639 110130
L134660 110187
L134675 110301
L134657 110444
L134614 110558
L134578 110615
L134546 110644
L134485 110672
L134428 110672
L134375 110644
L134350 110615
L134328 110558
L134314 110444
L134332 110301
L134375 110187
L134410 110130
L134442 110101
L134503 110072
" />
<path d="M135200 110672
L134857 110672
" />
<path d="M135028 110672
L135103 110072
L135035 110158
L134971 110215
L134910 110244
" />
<path d="M135475 110072
L135875 110072
L135542 110672
" />
<path d="M119392 111872
L119392 111272
" />
<path d="M119735 111872
L119478 111530
" />
<path d="M119735 111272
L119392 111615
" />
<path d="M119992 111872
L119992 111472
" />
<path d="M119992 111272
L119964 111301
L119992 111330
L120021 111301
L119992 111272
L119992 111330
" />
<path d="M120621 111815
L120592 111844
L120507 111872
L120450 111872
L120364 111844
L120307 111787
L120278 111730
L120250 111615
L120250 111530
L120278 111415
L120307 111358
L120364 111301
L120450 111272
L120507 111272
L120592 111301
L120621 111330
" />
<path d="M121135 111872
L121135 111558
L121107 111501
L121050 111472
L120935 111472
L120878 111501
" />
<path d="M121135 111844
L121078 111872
L120935 111872
L120878 111844
L120850 111787
L120850 111730
L120878 111672
L120935 111644
L121078 111644
L121135 111615
" />
<path d="M121678 111872
L121678 111272
" />
<path d="M121678 111844
L121621 111872
L121507 111872
L121450 111844
L121421 111815
L121392 111758
L121392 111587
L121421 111530
L121450 111501
L121507 111472
L121621 111472
L121678 111501
" />
<path d="M122421 111558
L122621 111558
" />
<path d="M122707 111872
L122421 111872
L122421 111272
L122707 111272
" />
<path d="M122964 111815
L122992 111844
L122964 111872
L122935 111844
L122964 111815
L122964 111872
" />
<path d="M123249 111872
L123249 111272
L123392 111272
L123478 111301
L123535 111358
L123564 111415
L123592 111530
L123592 111615
L123564 111730
L123535 111787
L123478 111844
L123392 111872
L123249 111872
" />
<path d="M123849 111815
L123878 111844
L123849 111872
L123821 111844
L123849 111815
L123849 111872
" />
<path d="M124107 111701
L124392 111701
" />
<path d="M124049 111872
L124249 111272
L124449 111872
" />
<path d="M124649 111815
L124678 111844
L124649 111872
L124621 111844
L124649 111815
L124649 111872
" />
<path d="M152942 110672
L152778 110387
" />
<path d="M152600 110672
L152675 110072
L152903 110072
L152957 110101
L152982 110130
L153003 110187
L152992 110272
L152957 110330
L152925 110358
L152864 110387
L152635 110387
" />
<path d="M153432 110644
L153371 110672
L153257 110672
L153203 110644
L153182 110587
L153210 110358
L153246 110301
L153307 110272
L153421 110272
L153475 110301
L153496 110358
L153489 110415
L153196 110472
" />
<path d="M153707 110272
L153800 110672
L153992 110272
" />
<path d="M154178 110615
L154203 110644
L154171 110672
L154146 110644
L154178 110615
L154171 110672
" />
<path d="M154217 110301
L154242 110330
L154210 110358
L154185 110330
L154217 110301
L154210 110358
" />
<path d="M119364 110644
L119450 110672
L119592 110672
L119650 110644
L119678 110615
L119707 110558
L119707 110501
L119678 110444
L119650 110415
L119592 110387
L119478 110358
L119421 110330
L119392 110301
L119364 110244
L119364 110187
L119392 110130
L119421 110101
L119478 110072
L119621 110072
L119707 110101
" />
<path d="M119964 110672
L119964 110272
" />
<path d="M119964 110072
L119935 110101
L119964 110130
L119992 110101
L119964 110072
L119964 110130
" />
<path d="M120192 110272
L120507 110272
L120192 110672
L120507 110672
" />
<path d="M120964 110644
L120907 110672
L120792 110672
L120735 110644
L120707 110587
L120707 110358
L120735 110301
L120792 110272
L120907 110272
L120964 110301
L120992 110358
L120992 110415
L120707 110472
" />
<path d="M121250 110615
L121278 110644
L121250 110672
L121221 110644
L121250 110615
L121250 110672
" />
<path d="M121250 110301
L121278 110330
L121250 110358
L121221 110330
L121250 110301
L121250 110358
" />
<path d="M121964 110501
L122250 110501
" />
<path d="M121907 110672
L122107 110072
L122307 110672
" />
<path d="M122450 110072
L122821 110072
L122621 110301
L122707 110301
L122764 110330
L122792 110358
L122821 110415
L122821 110558
L122792 110615
L122764 110644
L122707 110672
L122535 110672
L122478 110644
L122450 110615
" />
<path d="M152592 111872
L152592 111272
" />
<path d="M153135 111872
L153135 111272
" />
<path d="M153135 111844
L153078 111872
L152964 111872
L152907 111844
L152878 111815
L152850 111758
L152850 111587
L152878 111530
L152907 111501
L152964 111472
L153078 111472
L153135 111501
" />
<path d="M153421 111815
L153450 111844
L153421 111872
L153392 111844
L153421 111815
L153421 111872
" />
<path d="M153421 111501
L153450 111530
L153421 111558
L153392 111530
L153421 111501
L153421 111558
" />
<path d="M154478 111872
L154135 111872
" />
<path d="M154307 111872
L154307 111272
L154249 111358
L154192 111415
L154135 111444
" />
<path d="M155164 111244
L154650 112015
" />
<path d="M155678 111872
L155335 111872
" />
<path d="M155507 111872
L155507 111272
L155449 111358
L155392 111415
L155335 111444
" />
<path d="M119389 108872
L119732 108872
" />
<path d="M119485 109472
L119560 108872
" />
<path d="M119857 109472
L119907 109072
" />
<path d="M119932 108872
L119900 108901
L119925 108930
L119957 108901
L119932 108872
L119925 108930
" />
<path d="M120107 109072
L120335 109072
" />
<path d="M120217 108872
L120153 109387
L120175 109444
L120228 109472
L120285 109472
" />
<path d="M120571 109472
L120517 109444
L120496 109387
L120560 108872
" />
<path d="M121032 109444
L120971 109472
L120857 109472
L120803 109444
L120782 109387
L120810 109158
L120846 109101
L120907 109072
L121021 109072
L121075 109101
L121096 109158
L121089 109215
L120796 109272
" />
<path d="M121321 109415
L121346 109444
L121314 109472
L121289 109444
L121321 109415
L121314 109472
" />
<path d="M121360 109101
L121385 109130
L121353 109158
L121328 109130
L121360 109101
L121353 109158
" />
<path d="M119592 106758
L119392 106758
" />
<path d="M119392 107072
L119392 106472
L119678 106472
" />
<path d="M119907 107072
L119907 106672
" />
<path d="M119907 106472
L119878 106501
L119907 106530
L119935 106501
L119907 106472
L119907 106530
" />
<path d="M120278 107072
L120221 107044
L120192 106987
L120192 106472
" />
<path d="M120735 107044
L120678 107072
L120564 107072
L120507 107044
L120478 106987
L120478 106758
L120507 106701
L120564 106672
L120678 106672
L120735 106701
L120764 106758
L120764 106815
L120478 106872
" />
<path d="M121021 107015
L121050 107044
L121021 107072
L120992 107044
L121021 107015
L121021 107072
" />
<path d="M121021 106701
L121050 106730
L121021 106758
L120992 106730
L121021 106701
L121021 106758
" />
<path d="M121707 106472
L122078 106472
L121878 106701
L121964 106701
L122021 106730
L122050 106758
L122078 106815
L122078 106958
L122050 107015
L122021 107044
L121964 107072
L121792 107072
L121735 107044
L121707 107015
" />
<path d="M122678 107015
L122650 107044
L122564 107072
L122507 107072
L122421 107044
L122364 106987
L122335 106930
L122307 106815
L122307 106730
L122335 106615
L122364 106558
L122421 106501
L122507 106472
L122564 106472
L122650 106501
L122678 106530
" />
<path d="M122935 107072
L122935 106472
" />
<path d="M123192 107072
L123192 106758
L123164 106701
L123107 106672
L123021 106672
L122964 106701
L122935 106730
" />
<path d="M123735 107072
L123735 106758
L123707 106701
L123650 106672
L123535 106672
L123478 106701
" />
<path d="M123735 107044
L123678 107072
L123535 107072
L123478 107044
L123450 106987
L123450 106930
L123478 106872
L123535 106844
L123678 106844
L123735 106815
" />
<path d="M124021 106672
L124021 107072
" />
<path d="M124021 106730
L124050 106701
L124107 106672
L124192 106672
L124250 106701
L124278 106758
L124278 107072
" />
<path d="M124564 107072
L124564 106472
L124764 106901
L124964 106472
L124964 107072
" />
<path d="M125335 107072
L125278 107044
L125250 107015
L125221 106958
L125221 106787
L125250 106730
L125278 106701
L125335 106672
L125421 106672
L125478 106701
L125507 106730
L125535 106787
L125535 106958
L125507 107015
L125478 107044
L125421 107072
L125335 107072
" />
<path d="M125764 107044
L125821 107072
L125935 107072
L125992 107044
L126021 106987
L126021 106958
L125992 106901
L125935 106872
L125850 106872
L125792 106844
L125764 106787
L125764 106758
L125792 106701
L125850 106672
L125935 106672
L125992 106701
" />
<path d="M126192 106672
L126421 106672
" />
<path d="M126278 107072
L126278 106558
L126307 106501
L126364 106472
L126421 106472
" />
<path d="M126850 107044
L126792 107072
L126678 107072
L126621 107044
L126592 106987
L126592 106758
L126621 106701
L126678 106672
L126792 106672
L126850 106701
L126878 106758
L126878 106815
L126592 106872
" />
<path d="M127050 106672
L127278 106672
" />
<path d="M127135 106472
L127135 106987
L127164 107044
L127221 107072
L127278 107072
" />
<path d="M127678 106758
L127764 106787
L127792 106815
L127821 106872
L127821 106958
L127792 107015
L127764 107044
L127707 107072
L127478 107072
L127478 106472
L127678 106472
L127735 106501
L127764 106530
L127792 106587
L127792 106644
L127764 106701
L127735 106730
L127678 106758
L127478 106758
" />
<path d="M128164 107072
L128107 107044
L128078 107015
L128050 106958
L128050 106787
L128078 106730
L128107 106701
L128164 106672
L128250 106672
L128307 106701
L128335 106730
L128364 106787
L128364 106958
L128335 107015
L128307 107044
L128250 107072
L128164 107072
" />
<path d="M128878 107072
L128878 106758
L128850 106701
L128792 106672
L128678 106672
L128621 106701
" />
<path d="M128878 107044
L128821 107072
L128678 107072
L128621 107044
L128592 106987
L128592 106930
L128621 106872
L128678 106844
L128821 106844
L128878 106815
" />
<path d="M129164 107072
L129164 106672
" />
<path d="M129164 106787
L129192 106730
L129221 106701
L129278 106672
L129335 106672
" />
<path d="M129792 107072
L129792 106472
" />
<path d="M129792 107044
L129735 107072
L129621 107072
L129564 107044
L129535 107015
L129507 106958
L129507 106787
L129535 106730
L129564 106701
L129621 106672
L129735 106672
L129792 106701
" />
<path d="M130078 107015
L130107 107044
L130078 107072
L130050 107044
L130078 107015
L130078 107072
" />
<path d="M130364 107072
L130364 106472
" />
<path d="M130421 106844
L130592 107072
" />
<path d="M130592 106672
L130364 106901
" />
<path d="M130849 107072
L130849 106672
" />
<path d="M130849 106472
L130821 106501
L130849 106530
L130878 106501
L130849 106472
L130849 106530
" />
<path d="M131392 107044
L131335 107072
L131221 107072
L131164 107044
L131135 107015
L131107 106958
L131107 106787
L131135 106730
L131164 106701
L131221 106672
L131335 106672
L131392 106701
" />
<path d="M131907 107072
L131907 106758
L131878 106701
L131821 106672
L131707 106672
L131649 106701
" />
<path d="M131907 107044
L131849 107072
L131707 107072
L131649 107044
L131621 106987
L131621 106930
L131649 106872
L131707 106844
L131849 106844
L131907 106815
" />
<path d="M132449 107072
L132449 106472
" />
<path d="M132449 107044
L132392 107072
L132278 107072
L132221 107044
L132192 107015
L132164 106958
L132164 106787
L132192 106730
L132221 106701
L132278 106672
L132392 106672
L132449 106701
" />
<path d="M132592 107130
L133049 107130
" />
<path d="M133192 106672
L133192 107272
" />
<path d="M133192 106701
L133249 106672
L133364 106672
L133421 106701
L133449 106730
L133478 106787
L133478 106958
L133449 107015
L133421 107044
L133364 107072
L133249 107072
L133192 107044
" />
<path d="M133992 107044
L133935 107072
L133821 107072
L133764 107044
L133735 107015
L133707 106958
L133707 106787
L133735 106730
L133764 106701
L133821 106672
L133935 106672
L133992 106701
" />
<path d="M134249 107072
L134249 106472
" />
<path d="M134249 106701
L134307 106672
L134421 106672
L134478 106701
L134507 106730
L134535 106787
L134535 106958
L134507 107015
L134478 107044
L134421 107072
L134307 107072
L134249 107044
" />
<path d="M119364 108244
L119450 108272
L119592 108272
L119650 108244
L119678 108215
L119707 108158
L119707 108101
L119678 108044
L119650 108015
L119592 107987
L119478 107958
L119421 107930
L119392 107901
L119364 107844
L119364 107787
L119392 107730
L119421 107701
L119478 107672
L119621 107672
L119707 107701
" />
<path d="M119964 108272
L119964 107672
" />
<path d="M120221 108272
L120221 107958
L120192 107901
L120135 107872
L120050 107872
L119992 107901
L119964 107930
" />
<path d="M120735 108244
L120678 108272
L120564 108272
L120507 108244
L120478 108187
L120478 107958
L120507 107901
L120564 107872
L120678 107872
L120735 107901
L120764 107958
L120764 108015
L120478 108072
" />
<path d="M121250 108244
L121192 108272
L121078 108272
L121021 108244
L120992 108187
L120992 107958
L121021 107901
L121078 107872
L121192 107872
L121250 107901
L121278 107958
L121278 108015
L120992 108072
" />
<path d="M121450 107872
L121678 107872
" />
<path d="M121535 107672
L121535 108187
L121564 108244
L121621 108272
L121678 108272
" />
<path d="M121878 108215
L121907 108244
L121878 108272
L121850 108244
L121878 108215
L121878 108272
" />
<path d="M121878 107901
L121907 107930
L121878 107958
L121850 107930
L121878 107901
L121878 107958
" />
<path d="M118650 106230
L118650 112230
" />
<path d="M118650 106230
L160650 106230
" />
<path d="M118650 106230
L160650 106230
" />
<path d="M118650 108630
L160650 108630
" />
<path d="M151850 109830
L151850 112230
" />
<path d="M118650 111030
L160650 111030
" />
<path d="M118650 109830
L160650 109830
" />
<path d="M125250 109830
L125250 111030
" />
</g>
<g style="fill:#00A0A0; fill-opacity:0.0; 
stroke:#00A0A0; stroke-width:118.11; stroke-opacity:1; 
stroke-linecap:round; stroke-linejoin:round;">
<path d="M70877 50148
L70511 50148
L70708 50373
L70624 50373
L70568 50401
L70539 50429
L70511 50485
L70511 50626
L70539 50682
L70568 50710
L70624 50739
L70793 50739
L70849 50710
L70877 50682
" />
<path d="M69471 50682
L69499 50710
L69583 50739
L69640 50739
L69724 50710
L69780 50654
L69808 50598
L69836 50485
L69836 50401
L69808 50289
L69780 50232
L69724 50176
L69640 50148
L69583 50148
L69499 50176
L69471 50204
" />
<path d="M69218 50739
L69218 50148
" />
<path d="M68965 50739
L68965 50429
L68993 50373
L69049 50345
L69133 50345
L69190 50373
L69218 50401
" />
<path d="M68430 50739
L68430 50429
L68458 50373
L68515 50345
L68627 50345
L68683 50373
" />
<path d="M68430 50710
L68487 50739
L68627 50739
L68683 50710
L68712 50654
L68712 50598
L68683 50542
L68627 50514
L68487 50514
L68430 50485
" />
<path d="M68149 50345
L68149 50739
" />
<path d="M68149 50401
L68121 50373
L68065 50345
L67980 50345
L67924 50373
L67896 50429
L67896 50739
" />
<path d="M67615 50345
L67615 50739
" />
<path d="M67615 50401
L67587 50373
L67530 50345
L67446 50345
L67390 50373
L67362 50429
L67362 50739
" />
<path d="M66856 50710
L66912 50739
L67024 50739
L67080 50710
L67109 50654
L67109 50429
L67080 50373
L67024 50345
L66912 50345
L66856 50373
L66827 50429
L66827 50485
L67109 50542
" />
<path d="M66490 50739
L66546 50710
L66574 50654
L66574 50148
" />
<path d="M65534 50739
L65815 50739
L65815 50148
" />
<path d="M65337 50429
L65140 50429
" />
<path d="M65056 50739
L65337 50739
L65337 50148
L65056 50148
" />
<path d="M64803 50739
L64803 50148
L64662 50148
L64578 50176
L64521 50232
L64493 50289
L64465 50401
L64465 50485
L64493 50598
L64521 50654
L64578 50710
L64662 50739
L64803 50739
" />
<path d="M63762 50739
L63762 50148
L63622 50148
L63537 50176
L63481 50232
L63453 50289
L63425 50401
L63425 50485
L63453 50598
L63481 50654
L63537 50710
L63622 50739
L63762 50739
" />
<path d="M63172 50739
L63172 50345
" />
<path d="M63172 50457
L63143 50401
L63115 50373
L63059 50345
L63003 50345
" />
<path d="M62806 50739
L62806 50345
" />
<path d="M62806 50148
L62834 50176
L62806 50204
L62778 50176
L62806 50148
L62806 50204
" />
<path d="M62581 50345
L62440 50739
L62300 50345
" />
<path d="M61850 50710
L61906 50739
L62019 50739
L62075 50710
L62103 50654
L62103 50429
L62075 50373
L62019 50345
L61906 50345
L61850 50373
L61822 50429
L61822 50485
L62103 50542
" />
<path d="M61569 50739
L61569 50345
" />
<path d="M61569 50457
L61541 50401
L61512 50373
L61456 50345
L61400 50345
" />
<path d="M60809 50345
L60669 50739
L60528 50345
" />
<path d="M59994 50739
L60331 50739
" />
<path d="M60163 50739
L60163 50148
L60219 50232
L60275 50289
L60331 50317
" />
<path d="M59741 50682
L59713 50710
L59741 50739
L59769 50710
L59741 50682
L59741 50739
" />
<path d="M59347 50148
L59291 50148
L59235 50176
L59206 50204
L59178 50260
L59150 50373
L59150 50514
L59178 50626
L59206 50682
L59235 50710
L59291 50739
L59347 50739
L59403 50710
L59431 50682
L59460 50626
L59488 50514
L59488 50373
L59460 50260
L59431 50204
L59403 50176
L59347 50148
" />
<path d="M70807 51149
L70778 51121
L70722 51093
L70582 51093
L70525 51121
L70497 51149
L70469 51205
L70469 51262
L70497 51346
L70835 51683
L70469 51683
" />
<path d="M69907 51683
L70244 51683
" />
<path d="M70075 51683
L70075 51093
L70132 51177
L70188 51233
L70244 51262
" />
<path d="M69654 51458
L69204 51458
" />
<path d="M68810 51093
L68754 51093
L68697 51121
L68669 51149
L68641 51205
L68613 51318
L68613 51458
L68641 51571
L68669 51627
L68697 51655
L68754 51683
L68810 51683
L68866 51655
L68894 51627
L68922 51571
L68951 51458
L68951 51318
L68922 51205
L68894 51149
L68866 51121
L68810 51093
" />
<path d="M68416 51093
L68023 51093
L68276 51683
" />
<path d="M67798 51458
L67348 51458
" />
<path d="M67095 51149
L67066 51121
L67010 51093
L66870 51093
L66813 51121
L66785 51149
L66757 51205
L66757 51262
L66785 51346
L67123 51683
L66757 51683
" />
<path d="M66392 51093
L66335 51093
L66279 51121
L66251 51149
L66223 51205
L66195 51318
L66195 51458
L66223 51571
L66251 51627
L66279 51655
L66335 51683
L66392 51683
L66448 51655
L66476 51627
L66504 51571
L66532 51458
L66532 51318
L66504 51205
L66476 51149
L66448 51121
L66392 51093
" />
<path d="M65632 51683
L65970 51683
" />
<path d="M65801 51683
L65801 51093
L65857 51177
L65913 51233
L65970 51262
" />
<path d="M65435 51093
L65042 51093
L65295 51683
" />
<path d="M64367 51683
L64367 51093
" />
<path d="M64367 51318
L64311 51290
L64198 51290
L64142 51318
L64114 51346
L64086 51402
L64086 51571
L64114 51627
L64142 51655
L64198 51683
L64311 51683
L64367 51655
" />
<path d="M63889 51290
L63748 51683
" />
<path d="M63607 51290
L63748 51683
L63804 51824
L63832 51852
L63889 51880
" />
<path d="M62595 51627
L62623 51655
L62708 51683
L62764 51683
L62848 51655
L62904 51599
L62933 51543
L62961 51430
L62961 51346
L62933 51233
L62904 51177
L62848 51121
L62764 51093
L62708 51093
L62623 51121
L62595 51149
" />
<path d="M62342 51683
L62342 51093
L62117 51093
L62061 51121
L62033 51149
L62005 51205
L62005 51290
L62033 51346
L62061 51374
L62117 51402
L62342 51402
" />
<path d="M61639 51402
L61639 51683
" />
<path d="M61836 51093
L61639 51402
L61442 51093
" />
<path d="M60992 51683
L60992 51374
L61020 51318
L61077 51290
L61189 51290
L61245 51318
" />
<path d="M60992 51655
L61048 51683
L61189 51683
L61245 51655
L61273 51599
L61273 51543
L61245 51487
L61189 51458
L61048 51458
L60992 51430
" />
<path d="M60711 51683
L60711 51290
" />
<path d="M60711 51402
L60683 51346
L60655 51318
L60598 51290
L60542 51290
" />
<path d="M60092 51290
L60092 51768
L60120 51824
L60149 51852
L60205 51880
L60289 51880
L60345 51852
" />
<path d="M60092 51655
L60149 51683
L60261 51683
L60317 51655
L60345 51627
L60374 51571
L60374 51402
L60345 51346
L60317 51318
L60261 51290
L60149 51290
L60092 51318
" />
<path d="M59586 51655
L59642 51683
L59755 51683
L59811 51655
L59839 51599
L59839 51374
L59811 51318
L59755 51290
L59642 51290
L59586 51318
L59558 51374
L59558 51430
L59839 51487
" />
<path d="M59305 51683
L59305 51290
" />
<path d="M59305 51402
L59277 51346
L59249 51318
L59192 51290
L59136 51290
" />
</g>
<g style="fill:#A000A0; fill-opacity:0.0; 
stroke:#A000A0; stroke-width:118.11; stroke-opacity:1; 
stroke-linecap:round; stroke-linejoin:round;">
<path d="M75859 67457
L75522 67457
" />
<path d="M75690 67457
L75690 66866
L75634 66951
L75578 67007
L75522 67035
" />
<path d="M76225 66866
L76281 66866
L76337 66895
L76365 66923
L76393 66979
L76422 67091
L76422 67232
L76393 67345
L76365 67401
L76337 67429
L76281 67457
L76225 67457
L76169 67429
L76140 67401
L76112 67345
L76084 67232
L76084 67091
L76112 66979
L76140 66923
L76169 66895
L76225 66866
" />
<path d="M76787 66866
L76843 66866
L76900 66895
L76928 66923
L76956 66979
L76984 67091
L76984 67232
L76956 67345
L76928 67401
L76900 67429
L76843 67457
L76787 67457
L76731 67429
L76703 67401
L76675 67345
L76647 67232
L76647 67091
L76675 66979
L76703 66923
L76731 66895
L76787 66866
" />
<path d="M77237 67401
L77265 67429
L77237 67457
L77209 67429
L77237 67401
L77237 67457
" />
<path d="M77462 66866
L77828 66866
L77631 67091
L77715 67091
L77771 67120
L77800 67148
L77828 67204
L77828 67345
L77800 67401
L77771 67429
L77715 67457
L77546 67457
L77490 67429
L77462 67401
" />
<path d="M78025 66866
L78390 66866
L78193 67091
L78278 67091
L78334 67120
L78362 67148
L78390 67204
L78390 67345
L78362 67401
L78334 67429
L78278 67457
L78109 67457
L78053 67429
L78025 67401
" />
<path d="M78756 66866
L78812 66866
L78868 66895
L78896 66923
L78924 66979
L78953 67091
L78953 67232
L78924 67345
L78896 67401
L78868 67429
L78812 67457
L78756 67457
L78699 67429
L78671 67401
L78643 67345
L78615 67232
L78615 67091
L78643 66979
L78671 66923
L78699 66895
L78756 66866
" />
<path d="M79656 67457
L79656 67063
" />
<path d="M79656 67120
L79684 67091
L79740 67063
L79824 67063
L79881 67091
L79909 67148
L79909 67457
" />
<path d="M79909 67148
L79937 67091
L79993 67063
L80077 67063
L80134 67091
L80162 67148
L80162 67457
" />
<path d="M80443 67457
L80443 67063
" />
<path d="M80443 67120
L80471 67091
L80527 67063
L80612 67063
L80668 67091
L80696 67148
L80696 67457
" />
<path d="M80696 67148
L80724 67091
L80780 67063
L80865 67063
L80921 67091
L80949 67148
L80949 67457
" />
<path d="M98000 67750
L58500 67750
" />
<path d="M98000 68500
L98000 66687
" />
<path d="M58500 68500
L58500 66687
" />
<path d="M58500 67750
L58943 67519
" />
<path d="M58500 67750
L58943 67980
" />
<path d="M98000 67750
L97556 67519
" />
<path d="M98000 67750
L97556 67980
" />
<path d="M67126 61165
L67520 61165
" />
<path d="M66901 61305
L67323 61446
L67323 61080
" />
<path d="M67183 60771
L67154 60827
L67126 60856
L67070 60884
L67042 60884
L66986 60856
L66958 60827
L66929 60771
L66929 60659
L66958 60602
L66986 60574
L67042 60546
L67070 60546
L67126 60574
L67154 60602
L67183 60659
L67183 60771
L67211 60827
L67239 60856
L67295 60884
L67408 60884
L67464 60856
L67492 60827
L67520 60771
L67520 60659
L67492 60602
L67464 60574
L67408 60546
L67295 60546
L67239 60574
L67211 60602
L67183 60659
" />
<path d="M67464 60293
L67492 60265
L67520 60293
L67492 60321
L67464 60293
L67520 60293
" />
<path d="M66986 60040
L66958 60012
L66929 59956
L66929 59815
L66958 59759
L66986 59731
L67042 59703
L67098 59703
L67183 59731
L67520 60068
L67520 59703
" />
<path d="M66929 59196
L66929 59309
L66958 59365
L66986 59393
L67070 59449
L67183 59478
L67408 59478
L67464 59449
L67492 59421
L67520 59365
L67520 59253
L67492 59196
L67464 59168
L67408 59140
L67267 59140
L67211 59168
L67183 59196
L67154 59253
L67154 59365
L67183 59421
L67211 59449
L67267 59478
" />
<path d="M66929 58775
L66929 58718
L66958 58662
L66986 58634
L67042 58606
L67154 58578
L67295 58578
L67408 58606
L67464 58634
L67492 58662
L67520 58718
L67520 58775
L67492 58831
L67464 58859
L67408 58887
L67295 58915
L67154 58915
L67042 58887
L66986 58859
L66958 58831
L66929 58775
" />
<path d="M67520 57875
L67126 57875
" />
<path d="M67183 57875
L67154 57847
L67126 57790
L67126 57706
L67154 57650
L67211 57622
L67520 57622
" />
<path d="M67211 57622
L67154 57593
L67126 57537
L67126 57453
L67154 57397
L67211 57368
L67520 57368
" />
<path d="M67520 57087
L67126 57087
" />
<path d="M67183 57087
L67154 57059
L67126 57003
L67126 56919
L67154 56862
L67211 56834
L67520 56834
" />
<path d="M67211 56834
L67154 56806
L67126 56750
L67126 56665
L67154 56609
L67211 56581
L67520 56581
" />
<path d="M66750 68500
L66750 49500
" />
<path d="M58500 68500
L67812 68500
" />
<path d="M58500 49500
L67812 49500
" />
<path d="M66750 49500
L66980 49943
" />
<path d="M66750 49500
L66519 49943
" />
<path d="M66750 68500
L66980 68056
" />
<path d="M66750 68500
L66519 68056
" />
</g>
<g style="fill:#FFFF00; fill-opacity:0.0; 
stroke:#FFFF00; stroke-width:39.3701; stroke-opacity:1; 
stroke-linecap:round; stroke-linejoin:round;">
<circle cx="58500" cy="68500" r="0.655906" /> 
<path d="M58499 68500
L58500 68500
" />
<path d="M58500 68499
L58500 68500
" />
</g>
<g style="fill:#00A0A0; fill-opacity:0.0; 
stroke:#00A0A0; stroke-width:80; stroke-opacity:1; 
stroke-linecap:round; stroke-linejoin:round;">
<path d="M64166 56972
L64000 56710
" />
<path d="M63880 56972
L63880 56422
L64071 56422
L64119 56448
L64142 56475
L64166 56527
L64166 56605
L64142 56658
L64119 56684
L64071 56710
L63880 56710
" />
<path d="M64642 56972
L64357 56972
" />
<path d="M64500 56972
L64500 56422
L64452 56501
L64404 56553
L64357 56579
" />
<path d="M64166 57972
L64000 57710
" />
<path d="M63880 57972
L63880 57422
L64071 57422
L64119 57448
L64142 57475
L64166 57527
L64166 57605
L64142 57658
L64119 57684
L64071 57710
L63880 57710
" />
<path d="M64357 57475
L64380 57448
L64428 57422
L64547 57422
L64595 57448
L64619 57475
L64642 57527
L64642 57579
L64619 57658
L64333 57972
L64642 57972
" />
<path d="M64166 58972
L64000 58710
" />
<path d="M63880 58972
L63880 58422
L64071 58422
L64119 58448
L64142 58475
L64166 58527
L64166 58605
L64142 58658
L64119 58684
L64071 58710
L63880 58710
" />
<path d="M64333 58422
L64642 58422
L64476 58632
L64547 58632
L64595 58658
L64619 58684
L64642 58736
L64642 58867
L64619 58920
L64595 58946
L64547 58972
L64404 58972
L64357 58946
L64333 58920
" />
<path d="M77416 55472
L77250 55210
" />
<path d="M77130 55472
L77130 54922
L77321 54922
L77369 54948
L77392 54975
L77416 55027
L77416 55105
L77392 55158
L77369 55184
L77321 55210
L77130 55210
" />
<path d="M77845 55105
L77845 55472
" />
<path d="M77726 54896
L77607 55289
L77916 55289
" />
<path d="M77416 58222
L77250 57960
" />
<path d="M77130 58222
L77130 57672
L77321 57672
L77369 57698
L77392 57725
L77416 57777
L77416 57855
L77392 57908
L77369 57934
L77321 57960
L77130 57960
" />
<path d="M77869 57672
L77630 57672
L77607 57934
L77630 57908
L77678 57882
L77797 57882
L77845 57908
L77869 57934
L77892 57986
L77892 58117
L77869 58170
L77845 58196
L77797 58222
L77678 58222
L77630 58196
L77607 58170
" />
<path d="M77416 60722
L77250 60460
" />
<path d="M77130 60722
L77130 60172
L77321 60172
L77369 60198
L77392 60225
L77416 60277
L77416 60355
L77392 60408
L77369 60434
L77321 60460
L77130 60460
" />
<path d="M77845 60172
L77750 60172
L77702 60198
L77678 60225
L77630 60303
L77607 60408
L77607 60617
L77630 60670
L77654 60696
L77702 60722
L77797 60722
L77845 60696
L77869 60670
L77892 60617
L77892 60486
L77869 60434
L77845 60408
L77797 60382
L77702 60382
L77654 60408
L77630 60434
L77607 60486
" />
<path d="M59411 58545
L59011 58545
L59011 58392
L59030 58354
L59050 58335
L59088 58316
L59145 58316
L59183 58335
L59202 58354
L59221 58392
L59221 58545
" />
<path d="M59411 57935
L59411 58164
" />
<path d="M59411 58049
L59011 58049
L59069 58088
L59107 58126
L59126 58164
" />
</g>
<g style="fill:#00A0A0; fill-opacity:0.0; 
stroke:#00A0A0; stroke-width:60; stroke-opacity:1; 
stroke-linecap:round; stroke-linejoin:round;">
<path d="M70216 60077
L70216 59677
L70350 59963
L70483 59677
L70483 60077
" />
<path d="M70750 59677
L70826 59677
L70864 59696
L70902 59735
L70921 59811
L70921 59944
L70902 60020
L70864 60058
L70826 60077
L70750 60077
L70711 60058
L70673 60020
L70654 59944
L70654 59811
L70673 59735
L70711 59696
L70750 59677
" />
<path d="M71321 60039
L71302 60058
L71245 60077
L71207 60077
L71150 60058
L71111 60020
L71092 59982
L71073 59906
L71073 59849
L71092 59773
L71111 59735
L71150 59696
L71207 59677
L71245 59677
L71302 59696
L71321 59716
" />
<path d="M71454 59677
L71702 59677
L71569 59830
L71626 59830
L71664 59849
L71683 59868
L71702 59906
L71702 60001
L71683 60039
L71664 60058
L71626 60077
L71511 60077
L71473 60058
L71454 60039
" />
<path d="M71950 59677
L71988 59677
L72026 59696
L72045 59716
L72064 59754
L72083 59830
L72083 59925
L72064 60001
L72045 60039
L72026 60058
L71988 60077
L71950 60077
L71911 60058
L71892 60039
L71873 60001
L71854 59925
L71854 59830
L71873 59754
L71892 59716
L71911 59696
L71950 59677
" />
<path d="M72464 60077
L72235 60077
" />
<path d="M72350 60077
L72350 59677
L72311 59735
L72273 59773
L72235 59792
" />
<path d="M72711 59677
L72750 59677
L72788 59696
L72807 59716
L72826 59754
L72845 59830
L72845 59925
L72826 60001
L72807 60039
L72788 60058
L72750 60077
L72711 60077
L72673 60058
L72654 60039
L72635 60001
L72616 59925
L72616 59830
L72635 59754
L72654 59716
L72673 59696
L72711 59677
" />
<path d="M73016 60077
L73016 59677
L73150 59963
L73283 59677
L73283 60077
" />
</g>
<g style="fill:#00A0A0; fill-opacity:0.0; 
stroke:#00A0A0; stroke-width:50; stroke-opacity:1; 
stroke-linecap:round; stroke-linejoin:round;">
<path d="M71054 59150
L71245 59150
" />
<path d="M71016 59270
L71150 58850
L71283 59270
" />
<path d="M71445 58070
L71445 57650
" />
<path d="M71673 58070
L71502 57830
" />
<path d="M71673 57650
L71445 57890
" />
</g>
<g style="fill:#00A0A0; fill-opacity:0.0; 
stroke:#00A0A0; stroke-width:60; stroke-opacity:1; 
stroke-linecap:round; stroke-linejoin:round;">
<path d="M70216 62577
L70216 62177
L70350 62463
L70483 62177
L70483 62577
" />
<path d="M70750 62177
L70826 62177
L70864 62196
L70902 62235
L70921 62311
L70921 62444
L70902 62520
L70864 62558
L70826 62577
L70750 62577
L70711 62558
L70673 62520
L70654 62444
L70654 62311
L70673 62235
L70711 62196
L70750 62177
" />
<path d="M71321 62539
L71302 62558
L71245 62577
L71207 62577
L71150 62558
L71111 62520
L71092 62482
L71073 62406
L71073 62349
L71092 62273
L71111 62235
L71150 62196
L71207 62177
L71245 62177
L71302 62196
L71321 62216
" />
<path d="M71454 62177
L71702 62177
L71569 62330
L71626 62330
L71664 62349
L71683 62368
L71702 62406
L71702 62501
L71683 62539
L71664 62558
L71626 62577
L71511 62577
L71473 62558
L71454 62539
" />
<path d="M71950 62177
L71988 62177
L72026 62196
L72045 62216
L72064 62254
L72083 62330
L72083 62425
L72064 62501
L72045 62539
L72026 62558
L71988 62577
L71950 62577
L71911 62558
L71892 62539
L71873 62501
L71854 62425
L71854 62330
L71873 62254
L71892 62216
L71911 62196
L71950 62177
" />
<path d="M72464 62577
L72235 62577
" />
<path d="M72350 62577
L72350 62177
L72311 62235
L72273 62273
L72235 62292
" />
<path d="M72711 62177
L72750 62177
L72788 62196
L72807 62216
L72826 62254
L72845 62330
L72845 62425
L72826 62501
L72807 62539
L72788 62558
L72750 62577
L72711 62577
L72673 62558
L72654 62539
L72635 62501
L72616 62425
L72616 62330
L72635 62254
L72654 62216
L72673 62196
L72711 62177
" />
<path d="M73016 62577
L73016 62177
L73150 62463
L73283 62177
L73283 62577
" />
</g>
<g style="fill:#00A0A0; fill-opacity:0.0; 
stroke:#00A0A0; stroke-width:50; stroke-opacity:1; 
stroke-linecap:round; stroke-linejoin:round;">
<path d="M71904 61800
L72095 61800
" />
<path d="M71866 61920
L72000 61500
L72133 61920
" />
<path d="M71445 60570
L71445 60150
" />
<path d="M71673 60570
L71502 60330
" />
<path d="M71673 60150
L71445 60390
" />
</g>
<g style="fill:#00A0A0; fill-opacity:0.0; 
stroke:#00A0A0; stroke-width:60; stroke-opacity:1; 
stroke-linecap:round; stroke-linejoin:round;">
<path d="M70216 57577
L70216 57177
L70350 57463
L70483 57177
L70483 57577
" />
<path d="M70750 57177
L70826 57177
L70864 57196
L70902 57235
L70921 57311
L70921 57444
L70902 57520
L70864 57558
L70826 57577
L70750 57577
L70711 57558
L70673 57520
L70654 57444
L70654 57311
L70673 57235
L70711 57196
L70750 57177
" />
<path d="M71321 57539
L71302 57558
L71245 57577
L71207 57577
L71150 57558
L71111 57520
L71092 57482
L71073 57406
L71073 57349
L71092 57273
L71111 57235
L71150 57196
L71207 57177
L71245 57177
L71302 57196
L71321 57216
" />
<path d="M71454 57177
L71702 57177
L71569 57330
L71626 57330
L71664 57349
L71683 57368
L71702 57406
L71702 57501
L71683 57539
L71664 57558
L71626 57577
L71511 57577
L71473 57558
L71454 57539
" />
<path d="M71950 57177
L71988 57177
L72026 57196
L72045 57216
L72064 57254
L72083 57330
L72083 57425
L72064 57501
L72045 57539
L72026 57558
L71988 57577
L71950 57577
L71911 57558
L71892 57539
L71873 57501
L71854 57425
L71854 57330
L71873 57254
L71892 57216
L71911 57196
L71950 57177
" />
<path d="M72464 57577
L72235 57577
" />
<path d="M72350 57577
L72350 57177
L72311 57235
L72273 57273
L72235 57292
" />
<path d="M72711 57177
L72750 57177
L72788 57196
L72807 57216
L72826 57254
L72845 57330
L72845 57425
L72826 57501
L72807 57539
L72788 57558
L72750 57577
L72711 57577
L72673 57558
L72654 57539
L72635 57501
L72616 57425
L72616 57330
L72635 57254
L72654 57216
L72673 57196
L72711 57177
" />
<path d="M73016 57577
L73016 57177
L73150 57463
L73283 57177
L73283 57577
" />
</g>
<g style="fill:#00A0A0; fill-opacity:0.0; 
stroke:#00A0A0; stroke-width:50; stroke-opacity:1; 
stroke-linecap:round; stroke-linejoin:round;">
<path d="M71054 56650
L71245 56650
" />
<path d="M71016 56770
L71150 56350
L71283 56770
" />
<path d="M71445 55570
L71445 55150
" />
<path d="M71673 55570
L71502 55330
" />
<path d="M71673 55150
L71445 55390
" />
</g>
<g style="fill:#00A0A0; fill-opacity:0.0; 
stroke:#00A0A0; stroke-width:60; stroke-opacity:1; 
stroke-linecap:round; stroke-linejoin:round;">
<path d="M96121 54721
L95821 54721
L95821 54607
L95835 54578
L95850 54564
L95878 54550
L95921 54550
L95950 54564
L95964 54578
L95978 54607
L95978 54721
" />
<path d="M95921 54292
L96121 54292
" />
<path d="M95807 54364
L96021 54435
L96021 54250
" />
<path d="M96121 59971
L95821 59971
L95821 59857
L95835 59828
L95850 59814
L95878 59800
L95921 59800
L95950 59814
L95964 59828
L95978 59857
L95978 59971
" />
<path d="M95850 59685
L95835 59671
L95821 59642
L95821 59571
L95835 59542
L95850 59528
L95878 59514
L95907 59514
L95950 59528
L96121 59700
L96121 59514
" />
<path d="M96121 65221
L95821 65221
L95821 65107
L95835 65078
L95850 65064
L95878 65050
L95921 65050
L95950 65064
L95964 65078
L95978 65107
L95978 65221
" />
<path d="M95821 64950
L95821 64764
L95935 64864
L95935 64821
L95950 64792
L95964 64778
L95992 64764
L96064 64764
L96092 64778
L96107 64792
L96121 64821
L96121 64907
L96107 64935
L96092 64950
" />
<path d="M59561 63695
L59161 63695
" />
<path d="M59561 63466
L59333 63638
" />
<path d="M59161 63466
L59390 63695
" />
<path d="M59561 63085
L59561 63314
" />
<path d="M59561 63199
L59161 63199
L59219 63238
L59257 63276
L59276 63314
" />
</g>
<g style="fill:#00A0A0; fill-opacity:0.0; 
stroke:#00A0A0; stroke-width:19.685; stroke-opacity:1; 
stroke-linecap:round; stroke-linejoin:round;">
<path d="M87009 54707
L87040 54738
L87071 54830
L87071 54892
L87040 54984
L86979 55045
L86917 55076
L86794 55107
L86702 55107
L86579 55076
L86517 55045
L86456 54984
L86425 54892
L86425 54830
L86456 54738
L86487 54707
" />
<path d="M87071 54092
L87071 54461
" />
<path d="M87071 54277
L86425 54277
L86517 54338
L86579 54400
L86610 54461
" />
<path d="M96933 55557
L96933 55342
" />
<path d="M97271 55250
L97271 55557
L96625 55557
L96625 55250
" />
<path d="M97209 54604
L97240 54635
L97271 54727
L97271 54789
L97240 54881
L97179 54942
L97117 54973
L96994 55004
L96902 55004
L96779 54973
L96717 54942
L96656 54881
L96625 54789
L96625 54727
L96656 54635
L96687 54604
" />
<path d="M97086 54358
L97086 54051
" />
<path d="M97271 54420
L96625 54205
L97271 53989
" />
<path d="M81759 59957
L81790 59988
L81821 60080
L81821 60142
L81790 60234
L81729 60295
L81667 60326
L81544 60357
L81452 60357
L81329 60326
L81267 60295
L81206 60234
L81175 60142
L81175 60080
L81206 59988
L81237 59957
" />
<path d="M81237 59711
L81206 59680
L81175 59619
L81175 59465
L81206 59404
L81237 59373
L81298 59342
L81360 59342
L81452 59373
L81821 59742
L81821 59342
" />
<path d="M91683 60807
L91683 60592
" />
<path d="M92021 60500
L92021 60807
L91375 60807
L91375 60500
" />
<path d="M91959 59854
L91990 59885
L92021 59977
L92021 60039
L91990 60131
L91929 60192
L91867 60223
L91744 60254
L91652 60254
L91529 60223
L91467 60192
L91406 60131
L91375 60039
L91375 59977
L91406 59885
L91437 59854
" />
<path d="M91836 59608
L91836 59301
" />
<path d="M92021 59670
L91375 59455
L92021 59239
" />
<path d="M87009 65207
L87040 65238
L87071 65330
L87071 65392
L87040 65484
L86979 65545
L86917 65576
L86794 65607
L86702 65607
L86579 65576
L86517 65545
L86456 65484
L86425 65392
L86425 65330
L86456 65238
L86487 65207
" />
<path d="M86425 64992
L86425 64592
L86671 64807
L86671 64715
L86702 64654
L86733 64623
L86794 64592
L86948 64592
L87009 64623
L87040 64654
L87071 64715
L87071 64900
L87040 64961
L87009 64992
" />
<path d="M96933 66057
L96933 65842
" />
<path d="M97271 65750
L97271 66057
L96625 66057
L96625 65750
" />
<path d="M97209 65104
L97240 65135
L97271 65227
L97271 65289
L97240 65381
L97179 65442
L97117 65473
L96994 65504
L96902 65504
L96779 65473
L96717 65442
L96656 65381
L96625 65289
L96625 65227
L96656 65135
L96687 65104
" />
<path d="M97086 64858
L97086 64551
" />
<path d="M97271 64920
L96625 64705
L97271 64489
" />
</g>
<g style="fill:#00A0A0; fill-opacity:0.0; 
stroke:#00A0A0; stroke-width:60; stroke-opacity:1; 
stroke-linecap:round; stroke-linejoin:round;">
<path d="M80600 55438
L80580 55476
L80542 55514
L80485 55571
L80466 55609
L80466 55647
" />
<path d="M80561 55628
L80542 55666
L80504 55704
L80428 55723
L80295 55723
L80219 55704
L80180 55666
L80161 55628
L80161 55552
L80180 55514
L80219 55476
L80295 55457
L80428 55457
L80504 55476
L80542 55514
L80561 55552
L80561 55628
" />
<path d="M80561 55076
L80561 55304
" />
<path d="M80561 55190
L80161 55190
L80219 55228
L80257 55266
L80276 55304
" />
<path d="M80600 59188
L80580 59226
L80542 59264
L80485 59321
L80466 59359
L80466 59397
" />
<path d="M80561 59378
L80542 59416
L80504 59454
L80428 59473
L80295 59473
L80219 59454
L80180 59416
L80161 59378
L80161 59302
L80180 59264
L80219 59226
L80295 59207
L80428 59207
L80504 59226
L80542 59264
L80561 59302
L80561 59378
" />
<path d="M80200 59054
L80180 59035
L80161 58997
L80161 58902
L80180 58864
L80200 58845
L80238 58826
L80276 58826
L80333 58845
L80561 59073
L80561 58826
" />
<path d="M80600 62438
L80580 62476
L80542 62514
L80485 62571
L80466 62609
L80466 62647
" />
<path d="M80561 62628
L80542 62666
L80504 62704
L80428 62723
L80295 62723
L80219 62704
L80180 62666
L80161 62628
L80161 62552
L80180 62514
L80219 62476
L80295 62457
L80428 62457
L80504 62476
L80542 62514
L80561 62552
L80561 62628
" />
<path d="M80161 62323
L80161 62076
L80314 62209
L80314 62152
L80333 62114
L80352 62095
L80390 62076
L80485 62076
L80523 62095
L80542 62114
L80561 62152
L80561 62266
L80542 62304
L80523 62323
" />
</g>
<g style="fill:#00A0A0; fill-opacity:0.0; 
stroke:#00A0A0; stroke-width:120; stroke-opacity:1; 
stroke-linecap:round; stroke-linejoin:round;">
<path d="M62250 56750
L62650 56750
" />
<path d="M62650 56750
L62650 56350
" />
<path d="M62650 56350
L65850 56350
" />
<path d="M65850 56350
L65850 57150
" />
<path d="M65850 57150
L62650 57150
" />
<path d="M62650 57150
L62650 56750
" />
<path d="M62650 56550
L62850 56350
" />
<path d="M66250 56750
L65850 56750
" />
<path d="M62250 57750
L62650 57750
" />
<path d="M62650 57750
L62650 57350
" />
<path d="M62650 57350
L65850 57350
" />
<path d="M65850 57350
L65850 58150
" />
<path d="M65850 58150
L62650 58150
" />
<path d="M62650 58150
L62650 57750
" />
<path d="M62650 57550
L62850 57350
" />
<path d="M66250 57750
L65850 57750
" />
<path d="M62250 58750
L62650 58750
" />
<path d="M62650 58750
L62650 58350
" />
<path d="M62650 58350
L65850 58350
" />
<path d="M65850 58350
L65850 59150
" />
<path d="M65850 59150
L62650 59150
" />
<path d="M62650 59150
L62650 58750
" />
<path d="M62650 58550
L62850 58350
" />
<path d="M66250 58750
L65850 58750
" />
<path d="M75500 55250
L75900 55250
" />
<path d="M75900 55250
L75900 54850
" />
<path d="M75900 54850
L79100 54850
" />
<path d="M79100 54850
L79100 55650
" />
<path d="M79100 55650
L75900 55650
" />
<path d="M75900 55650
L75900 55250
" />
<path d="M75900 55050
L76100 54850
" />
<path d="M79500 55250
L79100 55250
" />
<path d="M75500 58000
L75900 58000
" />
<path d="M75900 58000
L75900 57600
" />
<path d="M75900 57600
L79100 57600
" />
<path d="M79100 57600
L79100 58400
" />
<path d="M79100 58400
L75900 58400
" />
<path d="M75900 58400
L75900 58000
" />
<path d="M75900 57800
L76100 57600
" />
<path d="M79500 58000
L79100 58000
" />
<path d="M75500 60500
L75900 60500
" />
<path d="M75900 60500
L75900 60100
" />
<path d="M75900 60100
L79100 60100
" />
<path d="M79100 60100
L79100 60900
" />
<path d="M79100 60900
L75900 60900
" />
<path d="M75900 60900
L75900 60500
" />
<path d="M75900 60300
L76100 60100
" />
<path d="M79500 60500
L79100 60500
" />
</g>
<g style="fill:#00A0A0; fill-opacity:0.0; 
stroke:#00A0A0; stroke-width:100; stroke-opacity:1; 
stroke-linecap:round; stroke-linejoin:round;">
<path d="M60750 56250
L60750 60250
" />
<path d="M59750 56250
L59750 60250
" />
<path d="M59750 60250
L60750 60250
" />
<path d="M60750 56250
L59750 56250
" />
</g>
<g style="fill:#00A0A0; fill-opacity:0.0; 
stroke:#00A0A0; stroke-width:120; stroke-opacity:1; 
stroke-linecap:round; stroke-linejoin:round;">
<circle cx="71050" cy="57800" r="141.421" /> 
<path d="M72750 59000
L73750 59000
" />
<path d="M72750 58000
L73750 58000
" />
<path d="M69750 59250
L70750 59250
" />
<path d="M69750 57750
L70750 57750
" />
<path d="M70750 57500
L72750 57500
" />
<path d="M72750 57500
L72750 59500
" />
<path d="M72750 59500
L70750 59500
" />
<path d="M70750 59500
L70750 57500
" />
<circle cx="71050" cy="60300" r="141.421" /> 
<path d="M72750 61500
L73750 61500
" />
<path d="M72750 60500
L73750 60500
" />
<path d="M69750 61750
L70750 61750
" />
<path d="M69750 60250
L70750 60250
" />
<path d="M70750 60000
L72750 60000
" />
<path d="M72750 60000
L72750 62000
" />
<path d="M72750 62000
L70750 62000
" />
<path d="M70750 62000
L70750 60000
" />
<circle cx="71050" cy="55300" r="141.421" /> 
<path d="M72750 56500
L73750 56500
" />
<path d="M72750 55500
L73750 55500
" />
<path d="M69750 56750
L70750 56750
" />
<path d="M69750 55250
L70750 55250
" />
<path d="M70750 55000
L72750 55000
" />
<path d="M72750 55000
L72750 57000
" />
<path d="M72750 57000
L70750 57000
" />
<path d="M70750 57000
L70750 55000
" />
</g>
<g style="fill:#00A0A0; fill-opacity:0.0; 
stroke:#00A0A0; stroke-width:60; stroke-opacity:1; 
stroke-linecap:round; stroke-linejoin:round;">
<path d="M97250 55500
L96250 55500
" />
<path d="M96250 55500
L96250 53500
" />
<path d="M96250 53500
L97250 53500
" />
<path d="M97250 53500
L97250 55500
" />
<path d="M97250 60750
L96250 60750
" />
<path d="M96250 60750
L96250 58750
" />
<path d="M96250 58750
L97250 58750
" />
<path d="M97250 58750
L97250 60750
" />
<path d="M97250 66000
L96250 66000
" />
<path d="M96250 66000
L96250 64000
" />
<path d="M96250 64000
L97250 64000
" />
<path d="M97250 64000
L97250 66000
" />
<path d="M60750 65000
L59750 65000
" />
<path d="M59750 65000
L59750 62000
" />
<path d="M59750 62000
L60750 62000
" />
<path d="M60750 62000
L60750 65000
" />
<path d="M59750 64000
L60750 64000
" />
<path d="M92000 58720
L92000 58220
" />
<path d="M91750 58470
L92250 58470
" />
<path d="M92000 58120 A3645 3645 0.0 0 0 92000 50830 " />
<path d="M92000 50830 A3645 3645 0.0 0 0 92000 58120 " />
<path d="M86750 63970
L86750 63470
" />
<path d="M86500 63720
L87000 63720
" />
<path d="M86750 63370 A3645 3645 0.0 0 0 86750 56080 " />
<path d="M86750 56080 A3645 3645 0.0 0 0 86750 63370 " />
<path d="M92000 69220
L92000 68720
" />
<path d="M91750 68970
L92250 68970
" />
<path d="M92000 68620 A3645 3645 0.0 0 0 92000 61330 " />
<path d="M92000 61330 A3645 3645 0.0 0 0 92000 68620 " />
<path d="M81750 57000
L80750 57000
" />
<path d="M80750 57000
L80750 54000
" />
<path d="M80750 54000
L81750 54000
" />
<path d="M81750 54000
L81750 57000
" />
<path d="M80750 56000
L81750 56000
" />
<path d="M81750 60750
L80750 60750
" />
<path d="M80750 60750
L80750 57750
" />
<path d="M80750 57750
L81750 57750
" />
<path d="M81750 57750
L81750 60750
" />
<path d="M80750 59750
L81750 59750
" />
<path d="M81750 64000
L80750 64000
" />
<path d="M80750 64000
L80750 61000
" />
<path d="M80750 61000
L81750 61000
" />
<path d="M81750 61000
L81750 64000
" />
<path d="M80750 63000
L81750 63000
" />
</g>
<g style="fill:#808000; fill-opacity:0.0; 
stroke:#808000; stroke-width:39.3701; stroke-opacity:1; 
stroke-linecap:round; stroke-linejoin:round;">
</g>
<g style="fill:#808000; fill-opacity:1.0; 
stroke:#808000; stroke-width:39.3701; stroke-opacity:1; 
stroke-linecap:round; stroke-linejoin:round;">
<circle cx="62250" cy="56750" r="280.315" /> 
<circle cx="66250" cy="56750" r="280.315" /> 
<circle cx="62250" cy="57750" r="280.315" /> 
<circle cx="66250" cy="57750" r="280.315" /> 
<circle cx="62250" cy="58750" r="280.315" /> 
<circle cx="66250" cy="58750" r="280.315" /> 
<circle cx="75500" cy="55250" r="280.315" /> 
<circle cx="79500" cy="55250" r="280.315" /> 
<circle cx="75500" cy="58000" r="280.315" /> 
<circle cx="79500" cy="58000" r="280.315" /> 
<circle cx="75500" cy="60500" r="280.315" /> 
<circle cx="79500" cy="60500" r="280.315" /> 
<polyline style="fill-rule:evenodd;"
points="60530,60030
59969,60030
59969,59469
60530,59469
60530,60030
" /> 
<circle cx="60250" cy="58750" r="280.315" /> 
<circle cx="60250" cy="57750" r="280.315" /> 
<circle cx="60250" cy="56750" r="280.315" /> 
<polyline style="fill-rule:evenodd;"
points="69319,59540
69319,58959
70180,58959
70180,59540
69319,59540
" /> 
</g>
<g style="fill:#808000; fill-opacity:1.0; 
stroke:#808000; stroke-width:620; stroke-opacity:1; 
stroke-linecap:round; stroke-linejoin:round;">
<path d="M69610 57750
L69890 57750
" />
<path d="M73610 58000
L73890 58000
" />
<path d="M73610 59000
L73890 59000
" />
</g>
<g style="fill:#808000; fill-opacity:1.0; 
stroke:#808000; stroke-width:39.3701; stroke-opacity:1; 
stroke-linecap:round; stroke-linejoin:round;">
<polyline style="fill-rule:evenodd;"
points="69319,62040
69319,61459
70180,61459
70180,62040
69319,62040
" /> 
</g>
<g style="fill:#808000; fill-opacity:1.0; 
stroke:#808000; stroke-width:620; stroke-opacity:1; 
stroke-linecap:round; stroke-linejoin:round;">
<path d="M69610 60250
L69890 60250
" />
<path d="M73610 60500
L73890 60500
" />
<path d="M73610 61500
L73890 61500
" />
</g>
<g style="fill:#808000; fill-opacity:1.0; 
stroke:#808000; stroke-width:39.3701; stroke-opacity:1; 
stroke-linecap:round; stroke-linejoin:round;">
<polyline style="fill-rule:evenodd;"
points="69319,57040
69319,56459
70180,56459
70180,57040
69319,57040
" /> 
</g>
<g style="fill:#808000; fill-opacity:1.0; 
stroke:#808000; stroke-width:620; stroke-opacity:1; 
stroke-linecap:round; stroke-linejoin:round;">
<path d="M69610 55250
L69890 55250
" />
<path d="M73610 55500
L73890 55500
" />
<path d="M73610 56500
L73890 56500
" />
</g>
<g style="fill:#808000; fill-opacity:1.0; 
stroke:#808000; stroke-width:39.3701; stroke-opacity:1; 
stroke-linecap:round; stroke-linejoin:round;">
<polyline style="fill-rule:evenodd;"
points="97030,55280
96469,55280
96469,54719
97030,54719
97030,55280
" /> 
<circle cx="96750" cy="54000" r="280.315" /> 
<polyline style="fill-rule:evenodd;"
points="97030,60530
96469,60530
96469,59969
97030,59969
97030,60530
" /> 
<circle cx="96750" cy="59250" r="280.315" /> 
<polyline style="fill-rule:evenodd;"
points="97030,65780
96469,65780
96469,65219
97030,65219
97030,65780
" /> 
<circle cx="96750" cy="64500" r="280.315" /> 
<polyline style="fill-rule:evenodd;"
points="60530,64780
59969,64780
59969,64219
60530,64219
60530,64780
" /> 
<circle cx="60250" cy="63500" r="280.315" /> 
<circle cx="60250" cy="62500" r="280.315" /> 
<polyline style="fill-rule:evenodd;"
points="92287,56237
91712,56237
91712,55662
92287,55662
92287,56237
" /> 
<circle cx="92000" cy="53000" r="287.815" /> 
<polyline style="fill-rule:evenodd;"
points="87037,61487
86462,61487
86462,60912
87037,60912
87037,61487
" /> 
<circle cx="86750" cy="58250" r="287.815" /> 
<polyline style="fill-rule:evenodd;"
points="92287,66737
91712,66737
91712,66162
92287,66162
92287,66737
" /> 
<circle cx="92000" cy="63500" r="287.815" /> 
<polyline style="fill-rule:evenodd;"
points="81530,56780
80969,56780
80969,56219
81530,56219
81530,56780
" /> 
<circle cx="81250" cy="55500" r="280.315" /> 
<circle cx="81250" cy="54500" r="280.315" /> 
<polyline style="fill-rule:evenodd;"
points="81530,60530
80969,60530
80969,59969
81530,59969
81530,60530
" /> 
<circle cx="81250" cy="59250" r="280.315" /> 
<circle cx="81250" cy="58250" r="280.315" /> 
<polyline style="fill-rule:evenodd;"
points="81530,63780
80969,63780
80969,63219
81530,63219
81530,63780
" /> 
<circle cx="81250" cy="62500" r="280.315" /> 
<circle cx="81250" cy="61500" r="280.315" /> 
</g>
<g style="fill:#00A000; fill-opacity:1.0; 
stroke:#00A000; stroke-width:100; stroke-opacity:1; 
stroke-linecap:round; stroke-linejoin:round;">
<path d="M66250 58750
L66250 61750
" />
<path d="M66250 61750
L69750 61750
" />
</g>
<g style="fill:#A00000; fill-opacity:1.0; 
stroke:#A00000; stroke-width:100; stroke-opacity:1; 
stroke-linecap:round; stroke-linejoin:round;">
<path d="M73750 58000
L75500 58000
" />
<path d="M73750 60500
L75500 60500
" />
</g>
<g style="fill:#00A000; fill-opacity:1.0; 
stroke:#00A000; stroke-width:100; stroke-opacity:1; 
stroke-linecap:round; stroke-linejoin:round;">
<path d="M60250 57750
L62250 57750
" />
<path d="M60250 56750
L62250 56750
" />
<path d="M66250 57750
L67750 57750
" />
<path d="M67750 59250
L69750 59250
" />
<path d="M67750 57750
L67750 59250
" />
</g>
<g style="fill:#A00000; fill-opacity:1.0; 
stroke:#A00000; stroke-width:100; stroke-opacity:1; 
stroke-linecap:round; stroke-linejoin:round;">
<path d="M86750 61200
L82250 61200
" />
<path d="M82250 61200
L82250 61250
" />
<path d="M81250 60250
L82250 60250
" />
<path d="M82250 60250
L82250 61250
" />
<path d="M82250 63500
L81250 63500
" />
<path d="M82250 61250
L82250 63500
" />
<path d="M79500 58000
L80250 58000
" />
<path d="M80250 60500
L79500 60500
" />
<path d="M80250 58000
L80250 60500
" />
<path d="M79500 63500
L80500 63500
" />
<path d="M60250 63500
L79500 63500
" />
<path d="M80500 63500
L81250 63500
" />
</g>
<g style="fill:#00A000; fill-opacity:1.0; 
stroke:#00A000; stroke-width:100; stroke-opacity:1; 
stroke-linecap:round; stroke-linejoin:round;">
<path d="M81250 60250
L79750 60250
" />
<path d="M79750 60250
L79500 60500
" />
<path d="M96750 60250
L87700 60250
" />
<path d="M87700 60250
L86750 61200
" />
</g>
<g style="fill:#A00000; fill-opacity:1.0; 
stroke:#A00000; stroke-width:100; stroke-opacity:1; 
stroke-linecap:round; stroke-linejoin:round;">
<path d="M96750 60250
L94750 60250
" />
<path d="M95000 65500
L96750 65500
" />
<path d="M94500 65000
L95000 65500
" />
<path d="M94500 60500
L94500 65000
" />
<path d="M94750 60250
L94500 60500
" />
</g>
<g style="fill:#00A000; fill-opacity:1.0; 
stroke:#00A000; stroke-width:100; stroke-opacity:1; 
stroke-linecap:round; stroke-linejoin:round;">
<path d="M96750 65500
L92950 65500
" />
<path d="M92950 65500
L92000 66450
" />
</g>
<g style="fill:#A00000; fill-opacity:1.0; 
stroke:#A00000; stroke-width:100; stroke-opacity:1; 
stroke-linecap:round; stroke-linejoin:round;">
<path d="M79500 53500
L59250 53500
" />
<path d="M59250 64500
L60250 64500
" />
<path d="M59250 53500
L59250 64500
" />
</g>
<g style="fill:#00A000; fill-opacity:1.0; 
stroke:#00A000; stroke-width:100; stroke-opacity:1; 
stroke-linecap:round; stroke-linejoin:round;">
<path d="M81250 56500
L91450 56500
" />
<path d="M91450 56500
L92000 55950
" />
<path d="M96750 55000
L92950 55000
" />
<path d="M92950 55000
L92000 55950
" />
</g>
<g style="fill:#A00000; fill-opacity:1.0; 
stroke:#A00000; stroke-width:100; stroke-opacity:1; 
stroke-linecap:round; stroke-linejoin:round;">
<path d="M79500 55250
L79500 53500
" />
<path d="M89050 53000
L92000 55950
" />
<path d="M80000 53000
L89050 53000
" />
<path d="M79500 53500
L80000 53000
" />
</g>
<g style="fill:#00A000; fill-opacity:1.0; 
stroke:#00A000; stroke-width:100; stroke-opacity:1; 
stroke-linecap:round; stroke-linejoin:round;">
<path d="M66250 56750
L69750 56750
" />
<path d="M92000 53000
L85750 53000
" />
<path d="M83250 55500
L81250 55500
" />
<path d="M85750 53000
L83250 55500
" />
<path d="M96750 54000
L93000 54000
" />
<path d="M93000 54000
L92000 53000
" />
</g>
<g style="fill:#A00000; fill-opacity:1.0; 
stroke:#A00000; stroke-width:100; stroke-opacity:1; 
stroke-linecap:round; stroke-linejoin:round;">
<path d="M68250 57750
L68250 55250
" />
<path d="M68250 55250
L69750 55250
" />
<path d="M68250 59750
L68250 57750
" />
<path d="M68250 57750
L69750 57750
" />
<path d="M60250 59750
L68250 59750
" />
<path d="M68250 60250
L69750 60250
" />
<path d="M68250 59750
L68250 60250
" />
</g>
<g style="fill:#00A000; fill-opacity:1.0; 
stroke:#00A000; stroke-width:100; stroke-opacity:1; 
stroke-linecap:round; stroke-linejoin:round;">
<path d="M86750 58250
L85750 58250
" />
<path d="M84750 59250
L81250 59250
" />
<path d="M85750 58250
L84750 59250
" />
<path d="M96750 59250
L87750 59250
" />
<path d="M87750 59250
L86750 58250
" />
<path d="M92000 63500
L85250 63500
" />
<path d="M84250 62500
L81250 62500
" />
<path d="M85250 63500
L84250 62500
" />
<path d="M96750 64500
L93000 64500
" />
<path d="M93000 64500
L92000 63500
" />
</g>
<g style="fill:#A00000; fill-opacity:1.0; 
stroke:#A00000; stroke-width:100; stroke-opacity:1; 
stroke-linecap:round; stroke-linejoin:round;">
<path d="M60250 62500
L71250 62500
" />
<path d="M71250 62500
L72250 61500
" />
</g>
<g style="fill:#00A000; fill-opacity:1.0; 
stroke:#00A000; stroke-width:100; stroke-opacity:1; 
stroke-linecap:round; stroke-linejoin:round;">
<path d="M80250 56750
L74750 56750
" />
<path d="M81250 54500
L80500 54500
" />
<path d="M81250 57750
L81250 58250
" />
<path d="M80250 56750
L81250 57750
" />
<path d="M80250 54750
L80250 56750
" />
<path d="M80500 54500
L80250 54750
" />
<path d="M74750 59000
L74750 56750
" />
<path d="M74750 56750
L74750 56500
" />
<path d="M74750 56500
L73750 56500
" />
<path d="M74750 61500
L74750 59000
" />
<path d="M74750 59000
L73750 59000
" />
<path d="M81250 61500
L74750 61500
" />
<path d="M74750 61500
L73750 61500
" />
</g>
<g style="fill:#A00000; fill-opacity:1.0; 
stroke:#A00000; stroke-width:100; stroke-opacity:1; 
stroke-linecap:round; stroke-linejoin:round;">
<path d="M73000 59000
L73000 57250
" />
<path d="M73000 57250
L73750 56500
" />
<path d="M72250 61500
L72250 59750
" />
<path d="M73000 59000
L73750 59000
" />
<path d="M72250 59750
L73000 59000
" />
<path d="M72250 61500
L73750 61500
" />
</g>
<g style="fill:#00A000; fill-opacity:1.0; 
stroke:#00A000; stroke-width:100; stroke-opacity:1; 
stroke-linecap:round; stroke-linejoin:round;">
<path d="M73750 55500
L75250 55500
" />
<path d="M75250 55500
L75500 55250
" />
<path d="M60250 58750
L62250 58750
" />
</g>
<g style="fill:#FFFFFF; fill-opacity:1.0; 
stroke:#FFFFFF; stroke-width:39.3701; stroke-opacity:1; 
stroke-linecap:round; stroke-linejoin:round;">
<circle cx="62250" cy="56750" r="140.315" /> 
<circle cx="66250" cy="56750" r="140.315" /> 
<circle cx="62250" cy="57750" r="140.315" /> 
<circle cx="66250" cy="57750" r="140.315" /> 
<circle cx="62250" cy="58750" r="140.315" /> 
<circle cx="66250" cy="58750" r="140.315" /> 
<circle cx="75500" cy="55250" r="140.315" /> 
<circle cx="79500" cy="55250" r="140.315" /> 
<circle cx="75500" cy="58000" r="140.315" /> 
<circle cx="79500" cy="58000" r="140.315" /> 
<circle cx="75500" cy="60500" r="140.315" /> 
<circle cx="79500" cy="60500" r="140.315" /> 
<circle cx="60250" cy="59750" r="180.315" /> 
<circle cx="60250" cy="58750" r="180.315" /> 
<circle cx="60250" cy="57750" r="180.315" /> 
<circle cx="60250" cy="56750" r="180.315" /> 
<circle cx="69750" cy="59250" r="140.315" /> 
<circle cx="69750" cy="57750" r="140.315" /> 
<circle cx="73750" cy="58000" r="140.315" /> 
<circle cx="73750" cy="59000" r="140.315" /> 
<circle cx="69750" cy="61750" r="140.315" /> 
<circle cx="69750" cy="60250" r="140.315" /> 
<circle cx="73750" cy="60500" r="140.315" /> 
<circle cx="73750" cy="61500" r="140.315" /> 
<circle cx="69750" cy="56750" r="140.315" /> 
<circle cx="69750" cy="55250" r="140.315" /> 
<circle cx="73750" cy="55500" r="140.315" /> 
<circle cx="73750" cy="56500" r="140.315" /> 
<circle cx="96750" cy="55000" r="180.315" /> 
<circle cx="96750" cy="54000" r="180.315" /> 
<circle cx="96750" cy="60250" r="180.315" /> 
<circle cx="96750" cy="59250" r="180.315" /> 
<circle cx="96750" cy="65500" r="180.315" /> 
<circle cx="96750" cy="64500" r="180.315" /> 
<circle cx="60250" cy="64500" r="180.315" /> 
<circle cx="60250" cy="63500" r="180.315" /> 
<circle cx="60250" cy="62500" r="180.315" /> 
<circle cx="92000" cy="55950" r="185.315" /> 
<circle cx="92000" cy="53000" r="185.315" /> 
<circle cx="86750" cy="61200" r="185.315" /> 
<circle cx="86750" cy="58250" r="185.315" /> 
<circle cx="92000" cy="66450" r="185.315" /> 
<circle cx="92000" cy="63500" r="185.315" /> 
<circle cx="81250" cy="56500" r="180.315" /> 
<circle cx="81250" cy="55500" r="180.315" /> 
<circle cx="81250" cy="54500" r="180.315" /> 
<circle cx="81250" cy="60250" r="180.315" /> 
<circle cx="81250" cy="59250" r="180.315" /> 
<circle cx="81250" cy="58250" r="180.315" /> 
<circle cx="81250" cy="63500" r="180.315" /> 
<circle cx="81250" cy="62500" r="180.315" /> 
<circle cx="81250" cy="61500" r="180.315" /> 
</g> 
</svg>
