M48
;DRILL file {Pcbnew (2013-jul-07)-stable} date Tue 01 Aug 2017 10:56:08 AM PDT
;FORMAT={3:3/ absolute / metric / suppress leading zeros}
FMAT,2
METRIC,TZ
T1C0.813
T2C1.016
T3C1.041
%
G90
G05
M71
T1
X158115Y-144145
X158115Y-146685
X158115Y-149225
X168275Y-144145
X168275Y-146685
X168275Y-149225
X177165Y-140335
X177165Y-144145
X177165Y-146685
X177165Y-150495
X177165Y-153035
X177165Y-156845
X187325Y-140970
X187325Y-143510
X187325Y-147320
X187325Y-149860
X187325Y-153670
X187325Y-156210
X191770Y-140335
X191770Y-147320
X191770Y-153670
X201930Y-140335
X201930Y-147320
X201930Y-153670
T2
X153035Y-144145
X153035Y-146685
X153035Y-149225
X153035Y-151765
X153035Y-158750
X153035Y-161290
X153035Y-163830
X206375Y-138430
X206375Y-140970
X206375Y-143510
X206375Y-147955
X206375Y-150495
X206375Y-153035
X206375Y-156210
X206375Y-158750
X206375Y-161290
X245745Y-137160
X245745Y-139700
X245745Y-150495
X245745Y-153035
X245745Y-163830
X245745Y-166370
T3
X220345Y-147955
X220345Y-155448
X233680Y-134620
X233680Y-142113
X233680Y-161290
X233680Y-168783
T0
M30
