<?xml version="1.0" standalone="no"?>
<!DOCTYPE svg PUBLIC "-//W3C//DTD SVG 1.1//EN"
"http://www.w3.org/Graphics/SVG/1.1/DTD/svg11.dtd">
<svg width="7915.87" height="3820.01" viewBox="0 0 7915.87 3820.01" version="1.1"
xmlns="http://www.w3.org/2000/svg"
xmlns:xlink="http://www.w3.org/1999/xlink">
<circle cx="447" cy="3441" r="32" style=""/>
<circle cx="447" cy="3047" r="32" style=""/>
<circle cx="447" cy="2654" r="32" style=""/>
<circle cx="457" cy="2348" r="32" style=""/>
<circle cx="457" cy="1954" r="32" style=""/>
<circle cx="457" cy="1561" r="32" style=""/>
<circle cx="803" cy="1564" r="32" style=""/>
<circle cx="842" cy="1958" r="32" style=""/>
<circle cx="803" cy="1171" r="32" style=""/>
<circle cx="457" cy="1167" r="32" style=""/>
<circle cx="1603" cy="1171" r="32" style=""/>
<circle cx="1905" cy="1169" r="32" style=""/>
<circle cx="1905" cy="1369" r="32" style=""/>
<circle cx="1905" cy="1602" r="32" style=""/>
<circle cx="1905" cy="1802" r="32" style=""/>
<circle cx="1905" cy="2035" r="32" style=""/>
<circle cx="1905" cy="2235" r="32" style=""/>
<circle cx="1642" cy="1958" r="32" style=""/>
<circle cx="1603" cy="1564" r="32" style=""/>
<circle cx="2705" cy="1602" r="32" style=""/>
<circle cx="2705" cy="1802" r="32" style=""/>
<circle cx="2705" cy="2035" r="32" style=""/>
<circle cx="2705" cy="2235" r="32" style=""/>
<circle cx="3507" cy="2207" r="32" style=""/>
<circle cx="3507" cy="1707" r="32" style=""/>
<circle cx="3519" cy="974" r="32" style=""/>
<circle cx="4319" cy="974" r="32" style=""/>
<circle cx="4627" cy="895" r="32" style=""/>
<circle cx="4627" cy="1289" r="32" style=""/>
<circle cx="4627" cy="1564" r="32" style=""/>
<circle cx="4307" cy="1707" r="32" style=""/>
<circle cx="4627" cy="1958" r="32" style=""/>
<circle cx="4627" cy="2351" r="32" style=""/>
<circle cx="4627" cy="2627" r="32" style=""/>
<circle cx="4627" cy="3021" r="32" style=""/>
<circle cx="4627" cy="3414" r="32" style=""/>
<circle cx="4307" cy="2207" r="32" style=""/>
<circle cx="5730" cy="2272" r="32" style=""/>
<circle cx="5730" cy="1682" r="32" style=""/>
<circle cx="6674" cy="1091" r="32" style=""/>
<circle cx="6674" cy="501" r="32" style=""/>
<circle cx="7757" cy="811" r="32" style=""/>
<circle cx="7757" cy="1204" r="32" style=""/>
<circle cx="7757" cy="1861" r="32" style=""/>
<circle cx="7757" cy="2254" r="32" style=""/>
<circle cx="7757" cy="2910" r="32" style=""/>
<circle cx="7757" cy="3304" r="32" style=""/>
<circle cx="6793" cy="3335" r="32" style=""/>
<circle cx="6793" cy="2745" r="32" style=""/>
<circle cx="4627" cy="501" r="32" style=""/>
<circle cx="2705" cy="1169" r="32" style=""/>
<circle cx="2705" cy="1369" r="32" style=""/>
</svg>
