<?xml version="1.0" standalone="no"?>
<!DOCTYPE svg PUBLIC "-//W3C//DTD SVG 1.1//EN"
"http://www.w3.org/Graphics/SVG/1.1/DTD/svg11.dtd">
<svg width="7915" height="3815" viewBox="0 0 7915 3815" version="1.1"
xmlns="http://www.w3.org/2000/svg"
xmlns:xlink="http://www.w3.org/1999/xlink">
<g fill-rule="evenodd"><path d="M 719,2040 L 358,2040 L 357,2040 L 341,2039 L 339,2038 L 323,2033 L 322,2033 L 307,2024 L 306,2023 L 294,2012 L 293,2011 L 283,1998 L 282,1996 L 276,1981 L 275,1980 L 272,1964 L 272,1962 L 272,1946 L 272,1944 L 275,1928 L 276,1926 L 282,1911 L 283,1910 L 293,1897 L 294,1895 L 306,1884 L 307,1883 L 322,1875 L 323,1874 L 339,1869 L 341,1869 L 357,1867 L 358,1867 L 739,1867 L 740,1867 L 760,1870 L 762,1871 L 781,1878 L 783,1879 L 799,1892 L 800,1893 L 804,1896 L 804,1897 L 814,1910 L 815,1911 L 823,1926 L 823,1927 L 828,1943 L 828,1945 L 829,1961 L 829,1963 L 826,1979 L 826,1981 L 820,1996 L 819,1997 L 810,2011 L 809,2012 L 797,2024 L 796,2025 L 782,2034 L 781,2035 L 765,2041 L 764,2041 L 748,2044 L 746,2044 L 730,2043 L 728,2043 L 719,2040 z " style="fill-opacity:1.000000;fill:rgb(103,198,105);stroke:rgb(0,0,0);stroke-width:2"/></g>
<g fill-rule="evenodd"><path d="M 680,1253 L 358,1253 L 357,1253 L 341,1251 L 339,1251 L 323,1246 L 322,1245 L 307,1237 L 306,1236 L 294,1225 L 293,1224 L 283,1211 L 282,1209 L 276,1194 L 275,1193 L 272,1176 L 272,1175 L 272,1158 L 272,1157 L 275,1141 L 276,1139 L 282,1124 L 283,1123 L 293,1109 L 294,1108 L 306,1097 L 307,1096 L 322,1088 L 323,1087 L 339,1082 L 341,1082 L 357,1080 L 358,1080 L 699,1080 L 700,1080 L 721,1083 L 723,1083 L 742,1091 L 744,1092 L 760,1105 L 761,1105 L 764,1109 L 765,1110 L 775,1122 L 776,1124 L 783,1138 L 784,1140 L 788,1156 L 789,1157 L 789,1174 L 789,1176 L 787,1192 L 786,1193 L 780,1209 L 780,1210 L 771,1224 L 770,1225 L 758,1237 L 757,1238 L 743,1247 L 741,1248 L 726,1254 L 724,1254 L 708,1257 L 707,1257 L 690,1256 L 689,1255 L 680,1253 z " style="fill-opacity:1.000000;fill:rgb(115,81,255);stroke:rgb(0,0,0);stroke-width:2"/></g>
<g fill-rule="evenodd"><path d="M 680,1647 L 358,1647 L 357,1647 L 341,1645 L 339,1645 L 323,1640 L 322,1639 L 307,1631 L 306,1630 L 294,1619 L 293,1618 L 283,1604 L 282,1603 L 276,1588 L 275,1586 L 272,1570 L 272,1568 L 272,1552 L 272,1550 L 275,1534 L 276,1533 L 282,1518 L 283,1516 L 293,1503 L 294,1502 L 306,1491 L 307,1490 L 322,1481 L 323,1481 L 339,1476 L 341,1475 L 357,1474 L 358,1474 L 699,1474 L 700,1474 L 721,1476 L 723,1477 L 742,1485 L 744,1486 L 760,1498 L 761,1499 L 764,1503 L 765,1503 L 775,1516 L 776,1517 L 783,1532 L 784,1534 L 788,1549 L 789,1551 L 789,1567 L 789,1569 L 787,1585 L 786,1587 L 780,1602 L 780,1604 L 771,1618 L 770,1619 L 758,1631 L 757,1632 L 743,1641 L 741,1641 L 726,1647 L 724,1648 L 708,1650 L 707,1650 L 690,1649 L 689,1649 L 680,1647 z " style="fill-opacity:1.000000;fill:rgb(74,236,41);stroke:rgb(0,0,0);stroke-width:2"/></g>
<g fill-rule="evenodd"><path d="M 5844,1774 L 7656,1774 L 7657,1774 L 7673,1775 L 7675,1776 L 7691,1781 L 7692,1781 L 7706,1790 L 7708,1791 L 7720,1802 L 7721,1803 L 7731,1816 L 7732,1818 L 7738,1833 L 7739,1834 L 7742,1850 L 7742,1852 L 7742,1868 L 7742,1870 L 7739,1886 L 7738,1888 L 7732,1903 L 7731,1904 L 7721,1917 L 7720,1919 L 7708,1930 L 7706,1931 L 7692,1939 L 7691,1940 L 7675,1945 L 7673,1945 L 7657,1947 L 7656,1947 L 5808,1947 L 5807,1947 L 5786,1944 L 5784,1943 L 5765,1936 L 5764,1935 L 5747,1922 L 5747,1921 L 5630,1804 L 5415,2019 L 5414,2019 L 5398,2032 L 5396,2033 L 5377,2041 L 5375,2041 L 5355,2044 L 5354,2044 L 4527,2044 L 4527,2044 L 4510,2042 L 4509,2042 L 4493,2037 L 4491,2036 L 4477,2028 L 4476,2027 L 4464,2016 L 4462,2015 L 4453,2001 L 4452,2000 L 4445,1985 L 4445,1983 L 4441,1967 L 4441,1966 L 4441,1949 L 4441,1948 L 4445,1931 L 4445,1930 L 4452,1915 L 4453,1913 L 4462,1900 L 4464,1899 L 4476,1888 L 4477,1887 L 4491,1879 L 4493,1878 L 4509,1873 L 4510,1873 L 4527,1871 L 4527,1871 L 5318,1871 L 5568,1621 L 5569,1620 L 5583,1609 L 5584,1608 L 5600,1600 L 5602,1600 L 5619,1596 L 5621,1596 L 5638,1596 L 5640,1596 L 5657,1600 L 5659,1600 L 5675,1608 L 5676,1609 L 5690,1620 L 5691,1621 L 5844,1774 z " style="fill-opacity:1.000000;fill:rgb(205,186,171);stroke:rgb(0,0,0);stroke-width:2"/></g>
<g fill-rule="evenodd"><path d="M 4839,2831 L 4589,3081 L 4588,3082 L 4575,3092 L 4574,3093 L 4559,3101 L 4558,3101 L 4542,3106 L 4540,3106 L 4524,3107 L 4522,3107 L 4506,3104 L 4504,3104 L 4489,3098 L 4487,3097 L 4474,3088 L 4472,3087 L 4461,3075 L 4460,3074 L 4451,3060 L 4450,3059 L 4444,3043 L 4444,3042 L 4441,3026 L 4441,3024 L 4442,3007 L 4442,3006 L 4446,2990 L 4447,2988 L 4454,2974 L 4455,2972 L 4466,2960 L 4466,2959 L 4742,2683 L 4742,2683 L 4759,2670 L 4761,2669 L 4780,2661 L 4781,2661 L 4802,2658 L 4803,2658 L 6692,2658 L 6693,2658 L 6714,2661 L 6716,2661 L 6735,2669 L 6736,2670 L 6753,2683 L 6754,2683 L 6893,2823 L 7656,2823 L 7657,2823 L 7673,2825 L 7675,2825 L 7691,2831 L 7692,2831 L 7706,2839 L 7708,2840 L 7720,2851 L 7721,2853 L 7731,2866 L 7732,2867 L 7738,2882 L 7739,2884 L 7742,2900 L 7742,2902 L 7742,2918 L 7742,2920 L 7739,2936 L 7738,2937 L 7732,2953 L 7731,2954 L 7721,2967 L 7720,2968 L 7708,2979 L 7706,2980 L 7692,2989 L 7691,2989 L 7675,2994 L 7673,2995 L 7657,2997 L 7656,2997 L 6858,2997 L 6857,2996 L 6836,2994 L 6834,2993 L 6815,2985 L 6813,2984 L 6797,2972 L 6796,2971 L 6656,2831 L 4839,2831 z " style="fill-opacity:1.000000;fill:rgb(242,251,227);stroke:rgb(0,0,0);stroke-width:2"/></g>
<g fill-rule="evenodd"><path d="M 6145,808 L 6513,440 L 6514,439 L 6530,427 L 6532,426 L 6551,418 L 6553,417 L 6573,414 L 6574,414 L 7347,414 L 7348,414 L 7368,417 L 7370,418 L 7389,426 L 7391,427 L 7407,439 L 7408,440 L 7718,749 L 7718,750 L 7728,763 L 7729,764 L 7737,779 L 7737,780 L 7742,796 L 7742,798 L 7743,814 L 7743,816 L 7740,832 L 7740,834 L 7734,849 L 7733,850 L 7724,864 L 7723,865 L 7711,877 L 7710,878 L 7696,887 L 7695,888 L 7679,894 L 7678,894 L 7662,897 L 7660,897 L 7644,896 L 7642,896 L 7626,891 L 7624,891 L 7610,883 L 7608,883 L 7596,872 L 7595,872 L 7311,588 L 6610,588 L 6242,956 L 6241,957 L 6225,969 L 6223,970 L 6204,978 L 6202,978 L 6182,981 L 6181,981 L 4527,981 L 4527,981 L 4510,979 L 4509,979 L 4493,974 L 4491,973 L 4477,965 L 4476,964 L 4464,953 L 4462,952 L 4453,939 L 4452,937 L 4445,922 L 4445,921 L 4441,904 L 4441,903 L 4441,886 L 4441,885 L 4445,869 L 4445,867 L 4452,852 L 4453,851 L 4462,837 L 4464,836 L 4476,825 L 4477,824 L 4491,816 L 4493,815 L 4509,810 L 4510,810 L 4527,808 L 4527,808 L 6145,808 z " style="fill-opacity:1.000000;fill:rgb(70,124,194);stroke:rgb(0,0,0);stroke-width:2"/></g>
<g fill-rule="evenodd"><path d="M 0,815 L 0,17 L 0,16 L 0,14 L 1,13 L 1,10 L 2,9 L 3,7 L 4,6 L 6,4 L 7,3 L 9,2 L 11,1 L 13,0 L 15,0 L 17,0 L 18,0 L 7896,0 L 7897,0 L 7899,0 L 7901,0 L 7903,1 L 7905,2 L 7907,3 L 7908,4 L 7910,6 L 7911,7 L 7912,9 L 7913,10 L 7913,13 L 7914,14 L 7914,16 L 7914,17 L 7914,3797 L 7914,3798 L 7914,3801 L 7913,3803 L 7912,3805 L 7911,3807 L 7909,3809 L 7907,3811 L 7905,3812 L 7903,3813 L 7901,3814 L 7899,3814 L 7897,3814 L 7896,3815 L 18,3815 L 17,3814 L 15,3814 L 13,3814 L 11,3813 L 9,3812 L 7,3811 L 6,3810 L 4,3808 L 3,3807 L 2,3805 L 1,3804 L 1,3801 L 0,3800 L 0,3798 L 0,3797 L 0,3292 L 0,3292 L 0,3290 L 1,3288 L 1,3286 L 2,3284 L 3,3282 L 4,3281 L 5,3280 L 7,3278 L 8,3277 L 10,3276 L 12,3276 L 14,3275 L 16,3275 L 17,3275 L 19,3275 L 21,3275 L 23,3275 L 25,3276 L 27,3277 L 28,3278 L 30,3279 L 30,3280 L 252,3501 L 253,3502 L 254,3505 L 256,3507 L 257,3510 L 257,3511 L 257,3512 L 264,3523 L 275,3531 L 290,3533 L 291,3534 L 295,3535 L 296,3536 L 305,3542 L 348,3551 L 390,3542 L 399,3536 L 401,3535 L 405,3534 L 406,3533 L 419,3531 L 431,3524 L 438,3513 L 441,3499 L 441,3497 L 443,3494 L 443,3492 L 450,3483 L 458,3440 L 450,3398 L 443,3389 L 443,3387 L 441,3384 L 441,3382 L 438,3369 L 431,3358 L 420,3350 L 418,3350 L 417,3349 L 414,3348 L 412,3347 L 410,3346 L 409,3345 L 224,3160 L 223,3159 L 222,3157 L 221,3155 L 220,3153 L 219,3151 L 219,3148 L 219,3147 L 219,3108 L 219,3107 L 219,3105 L 219,3103 L 220,3101 L 221,3099 L 222,3098 L 223,3096 L 224,3095 L 225,3094 L 227,3092 L 229,3092 L 230,3091 L 232,3090 L 234,3090 L 236,3090 L 238,3090 L 240,3090 L 242,3090 L 243,3091 L 245,3092 L 247,3093 L 248,3094 L 249,3095 L 251,3097 L 251,3098 L 271,3126 L 635,3491 L 672,3516 L 716,3525 L 4526,3525 L 4568,3516 L 4570,3516 L 4595,3516 L 4608,3513 L 4619,3506 L 4626,3495 L 4629,3481 L 4629,3476 L 4629,3475 L 4630,3472 L 4630,3470 L 4631,3468 L 4632,3466 L 4634,3464 L 4635,3463 L 4647,3451 L 4648,3450 L 4650,3448 L 4652,3447 L 4654,3446 L 4656,3446 L 4659,3445 L 4660,3445 L 6691,3445 L 6735,3437 L 6741,3432 L 6742,3432 L 6745,3430 L 6748,3430 L 6752,3429 L 6766,3427 L 6781,3417 L 6782,3416 L 6784,3415 L 6786,3415 L 6789,3414 L 6789,3414 L 7655,3414 L 7699,3406 L 7708,3399 L 7709,3399 L 7713,3397 L 7715,3397 L 7728,3394 L 7739,3387 L 7746,3376 L 7749,3362 L 7750,3360 L 7751,3357 L 7752,3355 L 7758,3346 L 7767,3304 L 7758,3261 L 7752,3252 L 7751,3250 L 7750,3247 L 7749,3245 L 7747,3232 L 7740,3221 L 7729,3213 L 7714,3210 L 7713,3210 L 7709,3209 L 7708,3208 L 7699,3201 L 7655,3193 L 6725,3193 L 6681,3201 L 6652,3221 L 6651,3221 L 6649,3222 L 6646,3223 L 6643,3224 L 6642,3224 L 4608,3224 L 4564,3232 L 4527,3257 L 4487,3298 L 4486,3298 L 4484,3300 L 4482,3301 L 4480,3302 L 4478,3303 L 4475,3303 L 4474,3303 L 768,3303 L 767,3303 L 764,3303 L 762,3302 L 760,3301 L 758,3300 L 756,3298 L 755,3298 L 427,2970 L 390,2945 L 348,2936 L 305,2945 L 270,2969 L 251,2996 L 251,2997 L 249,2998 L 248,2999 L 247,3001 L 245,3002 L 243,3003 L 242,3003 L 240,3004 L 238,3004 L 236,3004 L 234,3004 L 232,3003 L 230,3003 L 229,3002 L 227,3001 L 225,3000 L 224,2999 L 223,2997 L 222,2996 L 221,2994 L 220,2993 L 219,2991 L 219,2989 L 219,2987 L 219,2986 L 219,1991 L 219,1991 L 219,1989 L 219,1987 L 220,1985 L 221,1983 L 222,1982 L 223,1980 L 224,1979 L 225,1978 L 227,1976 L 228,1976 L 230,1975 L 232,1974 L 234,1974 L 236,1974 L 238,1974 L 239,1974 L 241,1974 L 243,1975 L 245,1976 L 246,1977 L 248,1978 L 249,1979 L 251,1980 L 251,1982 L 253,1984 L 253,1986 L 256,1996 L 280,2032 L 315,2056 L 359,2065 L 724,2065 L 726,2065 L 742,2068 L 785,2059 L 820,2036 L 844,2000 L 853,1957 L 844,1915 L 819,1878 L 818,1877 L 781,1852 L 737,1843 L 359,1843 L 315,1852 L 280,1876 L 256,1912 L 253,1922 L 253,1924 L 251,1926 L 251,1927 L 249,1929 L 248,1930 L 246,1931 L 245,1932 L 243,1933 L 241,1933 L 239,1934 L 238,1934 L 236,1934 L 234,1934 L 232,1933 L 230,1933 L 228,1932 L 227,1931 L 225,1930 L 224,1929 L 223,1927 L 222,1926 L 221,1924 L 220,1923 L 219,1921 L 219,1919 L 219,1917 L 219,1916 L 219,1598 L 219,1597 L 219,1595 L 219,1593 L 220,1591 L 221,1590 L 222,1588 L 223,1587 L 224,1585 L 225,1584 L 227,1583 L 228,1582 L 230,1581 L 232,1581 L 234,1580 L 236,1580 L 238,1580 L 239,1580 L 241,1581 L 243,1581 L 245,1582 L 246,1583 L 248,1584 L 249,1585 L 251,1587 L 251,1588 L 253,1590 L 253,1592 L 254,1594 L 254,1594 L 256,1602 L 280,1638 L 315,1662 L 359,1671 L 685,1671 L 687,1671 L 703,1674 L 745,1666 L 781,1642 L 805,1606 L 813,1564 L 805,1521 L 780,1484 L 779,1483 L 742,1458 L 698,1449 L 359,1449 L 315,1458 L 280,1482 L 256,1518 L 253,1528 L 253,1530 L 251,1532 L 251,1534 L 249,1535 L 248,1536 L 246,1538 L 245,1538 L 243,1539 L 241,1540 L 239,1540 L 238,1540 L 236,1540 L 234,1540 L 232,1540 L 230,1539 L 228,1539 L 227,1538 L 225,1536 L 224,1535 L 223,1534 L 222,1532 L 221,1531 L 220,1529 L 219,1527 L 219,1526 L 219,1523 L 219,1523 L 219,1204 L 219,1203 L 219,1201 L 219,1200 L 220,1198 L 221,1196 L 222,1194 L 223,1193 L 224,1191 L 225,1190 L 227,1189 L 228,1188 L 230,1187 L 232,1187 L 234,1187 L 236,1186 L 238,1186 L 239,1187 L 241,1187 L 243,1188 L 245,1188 L 246,1189 L 248,1191 L 249,1192 L 251,1193 L 251,1195 L 253,1196 L 253,1198 L 254,1200 L 254,1201 L 256,1209 L 280,1245 L 315,1269 L 359,1277 L 685,1277 L 687,1278 L 703,1281 L 745,1272 L 781,1248 L 805,1212 L 813,1170 L 805,1128 L 780,1091 L 779,1089 L 742,1065 L 698,1056 L 359,1056 L 315,1065 L 280,1088 L 256,1124 L 254,1132 L 254,1133 L 253,1135 L 253,1137 L 251,1139 L 251,1140 L 249,1142 L 248,1143 L 246,1144 L 245,1145 L 243,1146 L 241,1146 L 239,1147 L 238,1147 L 236,1147 L 234,1147 L 232,1146 L 230,1146 L 228,1145 L 227,1144 L 225,1143 L 224,1142 L 223,1140 L 222,1139 L 221,1137 L 220,1136 L 219,1134 L 219,1132 L 219,1130 L 219,1129 L 219,961 L 219,959 L 219,957 L 220,955 L 221,952 L 222,951 L 223,949 L 224,948 L 348,823 L 349,823 L 351,821 L 353,820 L 355,819 L 357,818 L 360,818 L 361,818 L 4090,818 L 4091,818 L 4093,818 L 4095,819 L 4097,820 L 4099,820 L 4100,821 L 4102,823 L 4103,824 L 4105,826 L 4106,827 L 4106,829 L 4107,831 L 4108,833 L 4108,835 L 4108,836 L 4108,978 L 4117,1022 L 4142,1059 L 4420,1338 L 4421,1339 L 4422,1341 L 4423,1342 L 4424,1345 L 4425,1347 L 4425,1349 L 4425,1350 L 4425,1355 L 4428,1369 L 4435,1380 L 4446,1387 L 4460,1390 L 4485,1390 L 4486,1391 L 4529,1399 L 6375,1399 L 6419,1390 L 6456,1365 L 6615,1207 L 6616,1206 L 6618,1205 L 6620,1204 L 6622,1203 L 6624,1202 L 6626,1202 L 6628,1202 L 7490,1202 L 7491,1202 L 7493,1202 L 7495,1203 L 7498,1204 L 7500,1205 L 7502,1206 L 7502,1207 L 7561,1265 L 7561,1266 L 7563,1268 L 7564,1270 L 7565,1273 L 7565,1274 L 7566,1276 L 7573,1287 L 7584,1294 L 7598,1297 L 7600,1298 L 7603,1299 L 7605,1300 L 7614,1306 L 7656,1314 L 7699,1306 L 7708,1300 L 7709,1299 L 7713,1298 L 7715,1297 L 7728,1295 L 7739,1287 L 7746,1277 L 7749,1262 L 7750,1261 L 7751,1257 L 7752,1256 L 7758,1246 L 7767,1204 L 7758,1162 L 7752,1152 L 7751,1151 L 7750,1147 L 7749,1146 L 7747,1132 L 7740,1121 L 7729,1114 L 7727,1113 L 7726,1113 L 7723,1112 L 7721,1111 L 7718,1109 L 7718,1108 L 7623,1014 L 7585,989 L 7541,980 L 6576,980 L 6532,989 L 6525,993 L 6524,994 L 6522,995 L 6519,996 L 6515,996 L 6501,999 L 6490,1006 L 6483,1017 L 6481,1023 L 6481,1024 L 6480,1027 L 6479,1029 L 6477,1031 L 6476,1032 L 6336,1172 L 6335,1173 L 6333,1174 L 6332,1175 L 6329,1176 L 6327,1177 L 6325,1177 L 6324,1177 L 4581,1177 L 4580,1177 L 4577,1177 L 4575,1176 L 4573,1175 L 4571,1174 L 4569,1173 L 4568,1172 L 4335,939 L 4334,938 L 4333,936 L 4332,934 L 4331,932 L 4330,930 L 4330,927 L 4330,926 L 4330,721 L 4321,677 L 4296,639 L 4287,630 L 4249,605 L 4205,596 L 309,596 L 265,605 L 228,630 L 30,828 L 30,828 L 28,830 L 27,831 L 25,832 L 23,832 L 21,833 L 19,833 L 17,833 L 16,833 L 14,832 L 12,832 L 10,831 L 8,830 L 7,829 L 5,828 L 4,826 L 3,825 L 2,823 L 1,822 L 1,820 L 0,818 L 0,816 L 0,815M 451,2406 L 451,2289 L 448,2276 L 441,2265 L 430,2257 L 416,2254 L 299,2254 L 286,2257 L 275,2264 L 268,2275 L 265,2289 L 265,2406 L 267,2419 L 274,2430 L 285,2438 L 300,2441 L 416,2441 L 429,2438 L 441,2431 L 448,2420 L 451,2406M 439,2630 L 431,2610 L 430,2610 L 411,2629 L 414,2638 L 414,2640 L 416,2652 L 416,2654 L 414,2666 L 414,2668 L 411,2677 L 430,2696 L 430,2696 L 441,2667 L 439,2630M 284,2629 L 265,2610 L 265,2610 L 255,2639 L 257,2677 L 265,2696 L 265,2696 L 284,2677 L 282,2668 L 281,2666 L 280,2654 L 280,2652 L 281,2640 L 282,2638 L 284,2629M 305,2736 L 334,2746 L 371,2744 L 390,2736 L 391,2736 L 372,2716 L 369,2717 L 368,2718 L 356,2721 L 354,2721 L 341,2721 L 340,2721 L 328,2718 L 326,2717 L 324,2716 L 305,2736 L 305,2736M 372,2590 L 391,2571 L 391,2571 L 361,2560 L 324,2562 L 305,2570 L 305,2571 L 324,2590 L 326,2589 L 328,2588 L 340,2586 L 341,2586 L 354,2586 L 356,2586 L 368,2588 L 369,2589 L 372,2590M 3233,1924 L 2669,1924 L 2668,1924 L 2666,1923 L 2664,1923 L 2662,1922 L 2661,1922 L 2659,1920 L 2657,1919 L 2656,1918 L 2655,1917 L 2654,1915 L 2653,1913 L 2652,1911 L 2652,1909 L 2651,1907 L 2651,1906 L 2651,1903 L 2652,1902 L 2652,1900 L 2653,1898 L 2654,1896 L 2655,1895 L 2657,1893 L 2658,1892 L 2660,1891 L 2661,1890 L 2663,1889 L 2664,1889 L 2677,1885 L 2705,1862 L 2722,1831 L 2721,1829 L 2697,1829 L 2696,1832 L 2695,1833 L 2689,1844 L 2688,1845 L 2679,1854 L 2678,1855 L 2667,1862 L 2666,1863 L 2655,1868 L 2653,1868 L 2641,1871 L 2639,1871 L 2577,1871 L 2576,1871 L 2564,1870 L 2562,1870 L 2550,1866 L 2549,1865 L 2538,1859 L 2536,1858 L 2527,1850 L 2526,1849 L 2518,1839 L 2517,1838 L 2513,1829 L 2488,1829 L 2488,1831 L 2505,1862 L 2533,1885 L 2572,1896 L 2573,1897 L 2575,1897 L 2576,1898 L 2578,1900 L 2579,1901 L 2581,1902 L 2582,1904 L 2583,1906 L 2583,1907 L 2584,1909 L 2584,1911 L 2585,1913 L 2584,1915 L 2584,1917 L 2584,1919 L 2583,1921 L 2582,1923 L 2581,1924 L 2580,1926 L 2578,1927 L 2577,1928 L 2575,1929 L 2573,1930 L 2571,1931 L 2570,1931 L 2563,1932 L 2543,1946 L 2542,1946 L 2539,1947 L 2508,1968 L 2488,1999 L 2480,2035 L 2488,2070 L 2508,2101 L 2536,2120 L 2537,2120 L 2538,2122 L 2540,2123 L 2541,2125 L 2542,2126 L 2543,2128 L 2543,2130 L 2544,2132 L 2544,2134 L 2544,2136 L 2544,2138 L 2543,2140 L 2542,2142 L 2541,2144 L 2540,2145 L 2539,2147 L 2537,2149 L 2534,2150 L 2505,2174 L 2488,2205 L 2488,2207 L 2513,2207 L 2514,2204 L 2515,2203 L 2521,2192 L 2522,2191 L 2531,2182 L 2532,2181 L 2542,2174 L 2544,2173 L 2555,2168 L 2557,2168 L 2569,2165 L 2571,2165 L 2633,2165 L 2634,2165 L 2646,2166 L 2648,2166 L 2660,2170 L 2661,2171 L 2672,2177 L 2673,2178 L 2683,2186 L 2684,2187 L 2692,2197 L 2693,2198 L 2697,2207 L 2721,2207 L 2722,2205 L 2704,2172 L 2704,2171 L 2703,2169 L 2702,2167 L 2702,2165 L 2702,2163 L 2702,2161 L 2702,2159 L 2703,2157 L 2704,2155 L 2705,2153 L 2706,2152 L 2708,2150 L 2709,2149 L 2711,2148 L 2713,2147 L 2715,2146 L 2716,2146 L 2719,2145 L 2720,2145 L 3181,2145 L 3182,2145 L 3185,2146 L 3187,2146 L 3189,2147 L 3191,2148 L 3193,2150 L 3194,2151 L 3327,2284 L 3365,2309 L 3407,2317 L 3449,2309 L 3485,2285 L 3509,2249 L 3518,2207 L 3509,2165 L 3484,2127 L 3314,1957 L 3277,1932 L 3233,1924M 2722,2264 L 2721,2262 L 2697,2262 L 2696,2265 L 2695,2266 L 2689,2277 L 2688,2278 L 2679,2287 L 2678,2288 L 2667,2295 L 2666,2296 L 2655,2301 L 2653,2301 L 2641,2304 L 2639,2304 L 2633,2304 L 2633,2329 L 2640,2329 L 2677,2318 L 2705,2295 L 2722,2264M 2488,2264 L 2505,2295 L 2533,2318 L 2569,2329 L 2577,2329 L 2577,2304 L 2577,2304 L 2576,2304 L 2564,2303 L 2562,2303 L 2550,2299 L 2549,2298 L 2538,2292 L 2536,2291 L 2527,2283 L 2526,2282 L 2518,2272 L 2517,2271 L 2513,2262 L 2488,2262 L 2488,2264M 3529,973 L 3521,931 L 3497,895 L 3461,871 L 3419,863 L 3377,871 L 3339,896 L 3183,1052 L 3182,1053 L 3180,1055 L 3178,1056 L 3176,1057 L 3174,1057 L 3171,1058 L 3170,1058 L 2607,1058 L 2563,1066 L 2543,1080 L 2542,1080 L 2539,1081 L 2508,1102 L 2488,1133 L 2480,1169 L 2488,1204 L 2508,1235 L 2536,1254 L 2537,1254 L 2538,1256 L 2540,1257 L 2541,1259 L 2542,1260 L 2543,1262 L 2543,1264 L 2544,1266 L 2544,1268 L 2544,1270 L 2544,1272 L 2543,1274 L 2542,1276 L 2541,1278 L 2540,1279 L 2539,1281 L 2537,1283 L 2534,1284 L 2505,1308 L 2488,1339 L 2488,1341 L 2513,1341 L 2514,1338 L 2515,1337 L 2521,1326 L 2522,1325 L 2531,1316 L 2532,1315 L 2542,1308 L 2544,1307 L 2555,1302 L 2557,1302 L 2569,1299 L 2571,1299 L 2633,1299 L 2634,1299 L 2646,1300 L 2648,1300 L 2660,1304 L 2661,1305 L 2672,1311 L 2673,1312 L 2683,1320 L 2684,1321 L 2692,1331 L 2693,1332 L 2697,1341 L 2721,1341 L 2722,1339 L 2704,1306 L 2704,1305 L 2703,1303 L 2702,1301 L 2702,1299 L 2702,1297 L 2702,1295 L 2702,1293 L 2703,1291 L 2704,1289 L 2705,1287 L 2706,1286 L 2708,1284 L 2709,1283 L 2711,1282 L 2713,1281 L 2715,1280 L 2716,1280 L 2719,1279 L 2720,1279 L 3222,1279 L 3266,1271 L 3303,1246 L 3496,1053 L 3521,1016 L 3529,973M 3300,1491 L 2669,1491 L 2668,1491 L 2666,1490 L 2664,1490 L 2662,1489 L 2661,1489 L 2659,1487 L 2657,1486 L 2656,1485 L 2655,1484 L 2654,1482 L 2653,1480 L 2652,1478 L 2652,1476 L 2651,1474 L 2651,1473 L 2651,1470 L 2652,1469 L 2652,1467 L 2653,1465 L 2654,1463 L 2655,1462 L 2657,1460 L 2658,1459 L 2660,1458 L 2661,1457 L 2663,1456 L 2664,1456 L 2677,1452 L 2705,1429 L 2722,1398 L 2721,1396 L 2697,1396 L 2696,1399 L 2695,1400 L 2689,1411 L 2688,1412 L 2679,1421 L 2678,1422 L 2667,1429 L 2666,1430 L 2655,1435 L 2653,1435 L 2641,1438 L 2639,1438 L 2577,1438 L 2576,1438 L 2564,1437 L 2562,1437 L 2550,1433 L 2549,1432 L 2538,1426 L 2536,1425 L 2527,1417 L 2526,1416 L 2518,1406 L 2517,1405 L 2513,1396 L 2488,1396 L 2488,1398 L 2505,1429 L 2533,1452 L 2572,1463 L 2573,1464 L 2575,1464 L 2576,1465 L 2578,1467 L 2579,1468 L 2581,1469 L 2582,1471 L 2583,1473 L 2583,1474 L 2584,1476 L 2584,1478 L 2585,1480 L 2584,1482 L 2584,1484 L 2584,1486 L 2583,1488 L 2582,1490 L 2581,1491 L 2580,1493 L 2578,1494 L 2577,1495 L 2575,1496 L 2573,1497 L 2571,1498 L 2570,1498 L 2563,1499 L 2543,1513 L 2542,1513 L 2539,1514 L 2508,1535 L 2488,1566 L 2480,1602 L 2488,1637 L 2508,1668 L 2536,1687 L 2537,1687 L 2538,1689 L 2540,1690 L 2541,1692 L 2542,1693 L 2543,1695 L 2543,1697 L 2544,1699 L 2544,1701 L 2544,1703 L 2544,1705 L 2543,1707 L 2542,1709 L 2541,1711 L 2540,1712 L 2539,1714 L 2537,1716 L 2534,1717 L 2505,1741 L 2488,1772 L 2488,1774 L 2513,1774 L 2514,1771 L 2515,1770 L 2521,1759 L 2522,1758 L 2531,1749 L 2532,1748 L 2542,1741 L 2544,1740 L 2555,1735 L 2557,1735 L 2569,1732 L 2571,1732 L 2633,1732 L 2634,1732 L 2646,1733 L 2648,1733 L 2660,1737 L 2661,1738 L 2672,1744 L 2673,1745 L 2683,1753 L 2684,1754 L 2692,1764 L 2693,1765 L 2697,1774 L 2721,1774 L 2722,1772 L 2704,1739 L 2704,1738 L 2703,1736 L 2702,1734 L 2702,1732 L 2702,1730 L 2702,1728 L 2702,1726 L 2703,1724 L 2704,1722 L 2705,1720 L 2706,1719 L 2708,1717 L 2709,1716 L 2711,1715 L 2713,1714 L 2715,1713 L 2716,1713 L 2719,1712 L 2720,1712 L 3248,1712 L 3249,1712 L 3252,1713 L 3254,1713 L 3256,1714 L 3258,1715 L 3260,1717 L 3261,1718 L 3327,1784 L 3365,1809 L 3407,1818 L 3449,1809 L 3485,1785 L 3509,1749 L 3518,1707 L 3509,1665 L 3484,1627 L 3381,1524 L 3344,1499 L 3300,1491M 4425,1915 L 4417,1957 L 4425,2000 L 4449,2036 L 4485,2059 L 4529,2068 L 5352,2068 L 5396,2059 L 5434,2035 L 5617,1851 L 5618,1851 L 5619,1849 L 5621,1848 L 5623,1847 L 5624,1847 L 5627,1846 L 5628,1846 L 5631,1846 L 5632,1846 L 5635,1847 L 5636,1847 L 5638,1848 L 5640,1849 L 5641,1851 L 5642,1851 L 5728,1937 L 5766,1962 L 5810,1971 L 7655,1971 L 7699,1962 L 7734,1938 L 7758,1902 L 7767,1860 L 7758,1818 L 7734,1782 L 7699,1758 L 7655,1749 L 5861,1749 L 5860,1749 L 5858,1749 L 5856,1748 L 5853,1747 L 5851,1746 L 5849,1745 L 5848,1744 L 5709,1605 L 5672,1580 L 5630,1571 L 5587,1580 L 5550,1605 L 5313,1841 L 5313,1842 L 5310,1844 L 5309,1845 L 5306,1846 L 5304,1846 L 5302,1846 L 5301,1847 L 4529,1847 L 4485,1855 L 4449,1879 L 4425,1915M 4096,2205 L 4105,2249 L 4130,2287 L 4271,2428 L 4309,2453 L 4353,2462 L 5548,2462 L 5593,2453 L 5630,2428 L 5670,2388 L 5671,2387 L 5673,2386 L 5675,2385 L 5677,2384 L 5679,2383 L 5682,2383 L 5683,2383 L 7637,2383 L 7681,2374 L 7721,2347 L 7723,2346 L 7725,2345 L 7727,2345 L 7728,2344 L 7739,2337 L 7746,2327 L 7749,2312 L 7750,2310 L 7751,2307 L 7752,2306 L 7758,2296 L 7767,2254 L 7758,2211 L 7752,2202 L 7751,2201 L 7750,2197 L 7749,2195 L 7747,2182 L 7740,2171 L 7729,2164 L 7714,2161 L 7713,2160 L 7709,2159 L 7708,2158 L 7699,2152 L 7656,2143 L 7614,2152 L 7605,2158 L 7604,2158 L 7601,2160 L 7599,2160 L 7596,2161 L 7595,2161 L 5631,2161 L 5587,2170 L 5581,2174 L 5579,2175 L 5577,2176 L 5574,2177 L 5570,2177 L 5556,2180 L 5545,2187 L 5538,2198 L 5537,2204 L 5536,2205 L 5535,2208 L 5534,2210 L 5532,2212 L 5532,2213 L 5510,2235 L 5509,2236 L 5507,2237 L 5505,2238 L 5503,2239 L 5501,2240 L 5498,2240 L 5497,2240 L 4404,2240 L 4403,2240 L 4401,2240 L 4399,2239 L 4396,2238 L 4395,2237 L 4392,2236 L 4392,2235 L 4323,2166 L 4322,2165 L 4321,2163 L 4320,2162 L 4319,2159 L 4318,2157 L 4318,2155 L 4318,2154 L 4318,1709 L 4309,1665 L 4285,1629 L 4249,1605 L 4207,1597 L 4165,1605 L 4129,1629 L 4105,1665 L 4096,1709 L 4096,2205M 4805,2634 L 4761,2643 L 4723,2667 L 4450,2941 L 4425,2978 L 4417,3020 L 4425,3062 L 4449,3098 L 4485,3122 L 4527,3131 L 4570,3122 L 4607,3097 L 4844,2861 L 4844,2860 L 4846,2858 L 4848,2857 L 4851,2856 L 4853,2856 L 4855,2856 L 4856,2855 L 6639,2855 L 6640,2856 L 6643,2856 L 6645,2856 L 6647,2857 L 6649,2858 L 6651,2860 L 6652,2861 L 6778,2987 L 6815,3012 L 6859,3021 L 7655,3021 L 7699,3012 L 7734,2988 L 7758,2952 L 7767,2910 L 7758,2868 L 7734,2832 L 7699,2808 L 7655,2799 L 6911,2799 L 6910,2799 L 6907,2799 L 6905,2798 L 6903,2797 L 6901,2796 L 6899,2795 L 6898,2794 L 6772,2668 L 6735,2643 L 6691,2634 L 4805,2634M 4439,2577 L 4438,2578 L 4426,2611 L 4427,2651 L 4437,2675 L 4439,2676 L 4457,2657 L 4457,2657 L 4452,2643 L 4452,2642 L 4451,2627 L 4451,2626 L 4452,2611 L 4452,2610 L 4457,2596 L 4457,2596 L 4439,2577M 4629,2642 L 4627,2602 L 4618,2578 L 4616,2577 L 4598,2596 L 4598,2596 L 4602,2610 L 4603,2611 L 4604,2626 L 4604,2627 L 4603,2642 L 4602,2643 L 4598,2657 L 4598,2657 L 4616,2676 L 4617,2675 L 4629,2642M 4576,2717 L 4576,2715 L 4558,2697 L 4552,2699 L 4550,2700 L 4536,2703 L 4535,2703 L 4520,2703 L 4519,2703 L 4504,2700 L 4503,2699 L 4497,2697 L 4478,2715 L 4479,2716 L 4512,2728 L 4552,2727 L 4576,2717M 4576,2538 L 4576,2537 L 4543,2525 L 4503,2527 L 4479,2536 L 4478,2538 L 4497,2557 L 4503,2554 L 4504,2553 L 4519,2550 L 4520,2550 L 4535,2550 L 4536,2550 L 4550,2553 L 4552,2554 L 4558,2557 L 4576,2538M 4529,1005 L 6179,1005 L 6223,997 L 6260,972 L 6615,617 L 6616,616 L 6618,615 L 6620,614 L 6622,613 L 6624,612 L 6626,612 L 6628,612 L 7294,612 L 7295,612 L 7297,612 L 7299,613 L 7302,614 L 7303,615 L 7305,616 L 7306,617 L 7577,887 L 7614,912 L 7656,921 L 7699,912 L 7734,888 L 7758,853 L 7767,810 L 7758,768 L 7733,731 L 7427,424 L 7389,399 L 7345,390 L 6576,390 L 6532,399 L 6495,424 L 6140,779 L 6139,779 L 6137,781 L 6135,782 L 6133,783 L 6131,783 L 6128,784 L 6127,784 L 4529,784 L 4485,793 L 4449,816 L 4425,852 L 4417,895 L 4425,937 L 4449,973 L 4485,997 L 4529,1005M 4439,1515 L 4438,1515 L 4426,1548 L 4427,1589 L 4437,1612 L 4439,1613 L 4457,1595 L 4457,1594 L 4452,1581 L 4452,1579 L 4451,1565 L 4451,1563 L 4452,1549 L 4452,1547 L 4457,1533 L 4457,1533 L 4439,1515M 4512,1666 L 4552,1664 L 4576,1654 L 4576,1652 L 4558,1634 L 4552,1636 L 4550,1637 L 4536,1640 L 4535,1640 L 4520,1640 L 4519,1640 L 4504,1637 L 4503,1636 L 4497,1634 L 4478,1652 L 4479,1654 L 4512,1666M 4629,1579 L 4627,1539 L 4618,1515 L 4616,1515 L 4598,1533 L 4598,1533 L 4602,1547 L 4603,1549 L 4604,1563 L 4604,1565 L 4603,1579 L 4602,1581 L 4598,1594 L 4598,1595 L 4616,1613 L 4617,1612 L 4629,1579M 4576,1475 L 4576,1474 L 4543,1462 L 4503,1464 L 4479,1474 L 4478,1475 L 4497,1494 L 4503,1491 L 4504,1491 L 4519,1488 L 4520,1487 L 4535,1487 L 4536,1488 L 4550,1491 L 4552,1491 L 4558,1494 L 4576,1475M 4627,476 L 4618,452 L 4616,452 L 4598,470 L 4598,471 L 4602,484 L 4603,486 L 4604,500 L 4604,502 L 4603,516 L 4602,518 L 4598,531 L 4598,532 L 4616,550 L 4617,550 L 4629,517 L 4627,476M 4426,485 L 4427,526 L 4437,549 L 4439,550 L 4457,532 L 4457,531 L 4452,518 L 4452,516 L 4451,502 L 4451,500 L 4452,486 L 4452,484 L 4457,471 L 4457,470 L 4439,452 L 4438,452 L 4426,485M 4479,591 L 4512,603 L 4552,601 L 4576,591 L 4576,589 L 4558,571 L 4552,574 L 4550,574 L 4536,577 L 4535,577 L 4520,577 L 4519,577 L 4504,574 L 4503,574 L 4497,571 L 4478,589 L 4479,591M 4576,412 L 4576,411 L 4543,399 L 4503,401 L 4479,411 L 4478,412 L 4497,431 L 4503,428 L 4504,428 L 4519,425 L 4520,425 L 4535,425 L 4536,425 L 4550,428 L 4552,428 L 4558,431 L 4576,412 z " style="fill-opacity:1.000000;fill:rgb(84,248,27);stroke:rgb(0,0,0);stroke-width:2"/></g>
<g fill-rule="evenodd"><path d="M 290,2407 L 290,2287 L 290,2286 L 291,2284 L 292,2283 L 293,2281 L 294,2280 L 296,2280 L 298,2280 L 418,2280 L 419,2280 L 421,2280 L 423,2281 L 424,2283 L 425,2284 L 425,2286 L 426,2287 L 426,2407 L 425,2409 L 425,2411 L 424,2412 L 423,2414 L 421,2415 L 419,2415 L 418,2415 L 298,2415 L 296,2415 L 294,2415 L 293,2414 L 292,2412 L 291,2411 L 290,2409 L 290,2407 z " style="fill-opacity:1.000000;fill:rgb(232,231,141);stroke:rgb(0,0,0);stroke-width:2"/></g>
<g fill-rule="evenodd"><path d="M 344,794 L 194,943 L 194,3165 L 402,3373 L 408,3373 L 409,3373 L 411,3373 L 413,3374 L 414,3376 L 415,3377 L 415,3379 L 416,3380 L 416,3387 L 420,3393 L 421,3394 L 428,3409 L 429,3410 L 433,3426 L 433,3428 L 434,3444 L 434,3446 L 432,3462 L 431,3464 L 425,3479 L 424,3480 L 416,3494 L 416,3500 L 415,3502 L 415,3504 L 414,3505 L 413,3507 L 411,3507 L 409,3508 L 408,3508 L 401,3508 L 388,3517 L 386,3518 L 371,3524 L 369,3524 L 353,3527 L 351,3527 L 335,3526 L 333,3526 L 317,3521 L 316,3521 L 301,3513 L 300,3513 L 295,3508 L 288,3508 L 286,3508 L 284,3507 L 283,3507 L 282,3505 L 281,3504 L 280,3502 L 280,3500 L 280,3495 L 47,3262 L 46,3261 L 33,3245 L 32,3243 L 24,3224 L 24,3222 L 21,3201 L 21,3200 L 21,907 L 21,906 L 24,886 L 24,884 L 32,865 L 33,863 L 46,847 L 47,846 L 246,646 L 247,645 L 264,633 L 265,632 L 284,624 L 286,623 L 307,621 L 308,621 L 4207,621 L 4208,621 L 4228,623 L 4230,624 L 4249,632 L 4251,633 L 4267,645 L 4268,646 L 4280,658 L 4281,659 L 4293,675 L 4294,677 L 4302,696 L 4303,698 L 4305,718 L 4305,719 L 4305,944 L 4563,1202 L 6341,1202 L 6505,1038 L 6505,1029 L 6505,1028 L 6506,1026 L 6507,1024 L 6508,1023 L 6509,1022 L 6511,1022 L 6513,1021 L 6523,1021 L 6530,1016 L 6532,1015 L 6551,1008 L 6553,1007 L 6573,1004 L 6574,1004 L 7543,1004 L 7544,1004 L 7565,1007 L 7567,1008 L 7586,1015 L 7587,1016 L 7604,1029 L 7604,1030 L 7711,1136 L 7716,1136 L 7718,1136 L 7720,1137 L 7721,1138 L 7722,1139 L 7723,1141 L 7724,1142 L 7724,1144 L 7724,1151 L 7728,1156 L 7729,1158 L 7737,1172 L 7737,1174 L 7742,1190 L 7742,1191 L 7743,1208 L 7743,1209 L 7740,1226 L 7740,1227 L 7734,1243 L 7733,1244 L 7724,1258 L 7724,1264 L 7724,1266 L 7723,1267 L 7722,1269 L 7721,1270 L 7720,1271 L 7718,1272 L 7716,1272 L 7710,1272 L 7696,1281 L 7695,1281 L 7679,1287 L 7678,1288 L 7662,1290 L 7660,1290 L 7644,1290 L 7642,1289 L 7626,1285 L 7624,1284 L 7610,1277 L 7608,1276 L 7603,1272 L 7596,1272 L 7595,1272 L 7593,1271 L 7591,1270 L 7590,1269 L 7589,1267 L 7589,1266 L 7588,1264 L 7588,1259 L 7507,1177 L 6610,1177 L 6438,1349 L 6437,1350 L 6421,1363 L 6419,1364 L 6400,1372 L 6398,1372 L 6378,1375 L 6377,1375 L 4527,1375 L 4526,1375 L 4506,1372 L 4504,1372 L 4488,1365 L 4458,1365 L 4457,1365 L 4455,1364 L 4454,1363 L 4452,1362 L 4451,1361 L 4451,1359 L 4451,1357 L 4451,1334 L 4158,1041 L 4157,1040 L 4144,1024 L 4143,1022 L 4135,1003 L 4135,1001 L 4132,981 L 4132,980 L 4132,794 L 344,794 z " style="fill-opacity:1.000000;fill:rgb(118,90,46);stroke:rgb(0,0,0);stroke-width:2"/></g>
<g fill-rule="evenodd"><path d="M 3199,2121 L 2605,2121 L 2604,2121 L 2588,2119 L 2586,2119 L 2570,2114 L 2569,2113 L 2555,2105 L 2553,2104 L 2544,2096 L 2538,2092 L 2536,2091 L 2527,2083 L 2526,2082 L 2518,2072 L 2517,2071 L 2512,2060 L 2511,2058 L 2508,2046 L 2508,2044 L 2507,2032 L 2507,2030 L 2509,2018 L 2510,2016 L 2514,2004 L 2515,2003 L 2521,1992 L 2522,1991 L 2531,1982 L 2532,1981 L 2542,1974 L 2544,1973 L 2545,1973 L 2553,1965 L 2555,1964 L 2569,1956 L 2570,1955 L 2586,1950 L 2588,1950 L 2604,1948 L 2605,1948 L 3235,1948 L 3236,1948 L 3256,1951 L 3258,1951 L 3277,1959 L 3279,1960 L 3295,1973 L 3296,1973 L 3468,2146 L 3469,2146 L 3479,2159 L 3480,2160 L 3488,2175 L 3488,2177 L 3492,2193 L 3493,2194 L 3494,2211 L 3493,2212 L 3491,2229 L 3490,2230 L 3485,2245 L 3484,2247 L 3475,2261 L 3474,2262 L 3462,2274 L 3461,2275 L 3447,2284 L 3446,2284 L 3430,2290 L 3429,2291 L 3412,2293 L 3411,2293 L 3394,2293 L 3393,2292 L 3377,2288 L 3375,2287 L 3361,2280 L 3359,2279 L 3346,2269 L 3346,2268 L 3199,2121 z " style="fill-opacity:1.000000;fill:rgb(99,51,159);stroke:rgb(0,0,0);stroke-width:2"/></g>
<g fill-rule="evenodd"><path d="M 3188,1082 L 3358,912 L 3358,912 L 3371,901 L 3372,900 L 3387,893 L 3389,892 L 3405,888 L 3406,888 L 3423,887 L 3424,887 L 3441,890 L 3442,890 L 3457,896 L 3459,897 L 3473,906 L 3474,907 L 3486,918 L 3487,919 L 3496,933 L 3496,935 L 3502,950 L 3503,952 L 3505,968 L 3505,970 L 3505,986 L 3504,988 L 3500,1004 L 3499,1005 L 3492,1020 L 3491,1021 L 3481,1034 L 3480,1035 L 3285,1230 L 3284,1230 L 3268,1243 L 3266,1244 L 3247,1252 L 3245,1252 L 3225,1255 L 3224,1255 L 2605,1255 L 2604,1255 L 2588,1253 L 2586,1253 L 2570,1248 L 2569,1247 L 2555,1239 L 2553,1238 L 2544,1230 L 2538,1226 L 2536,1225 L 2527,1217 L 2526,1216 L 2518,1206 L 2517,1205 L 2512,1194 L 2511,1192 L 2508,1180 L 2508,1178 L 2507,1166 L 2507,1164 L 2509,1152 L 2510,1150 L 2514,1139 L 2515,1137 L 2521,1126 L 2522,1125 L 2531,1116 L 2532,1115 L 2542,1108 L 2544,1107 L 2545,1107 L 2553,1099 L 2555,1098 L 2569,1090 L 2570,1089 L 2586,1084 L 2588,1084 L 2604,1082 L 2605,1082 L 3188,1082 z " style="fill-opacity:1.000000;fill:rgb(201,154,102);stroke:rgb(0,0,0);stroke-width:2"/></g>
<g fill-rule="evenodd"><path d="M 3266,1688 L 2605,1688 L 2604,1688 L 2588,1686 L 2586,1686 L 2570,1681 L 2569,1680 L 2555,1672 L 2553,1671 L 2544,1663 L 2538,1659 L 2536,1658 L 2527,1650 L 2526,1649 L 2518,1639 L 2517,1638 L 2512,1627 L 2511,1625 L 2508,1613 L 2508,1611 L 2507,1599 L 2507,1597 L 2509,1585 L 2510,1583 L 2514,1572 L 2515,1570 L 2521,1559 L 2522,1558 L 2531,1549 L 2532,1548 L 2542,1541 L 2544,1540 L 2545,1540 L 2553,1532 L 2555,1531 L 2569,1523 L 2570,1522 L 2586,1517 L 2588,1517 L 2604,1515 L 2605,1515 L 3302,1515 L 3303,1515 L 3323,1518 L 3325,1518 L 3344,1526 L 3346,1527 L 3362,1540 L 3363,1540 L 3468,1646 L 3469,1646 L 3479,1659 L 3480,1661 L 3488,1675 L 3488,1677 L 3492,1693 L 3493,1694 L 3494,1711 L 3493,1712 L 3491,1729 L 3490,1730 L 3485,1746 L 3484,1747 L 3475,1761 L 3474,1762 L 3462,1774 L 3461,1775 L 3447,1784 L 3446,1785 L 3430,1790 L 3429,1791 L 3412,1793 L 3411,1794 L 3394,1793 L 3393,1792 L 3377,1788 L 3375,1788 L 3361,1780 L 3359,1779 L 3346,1769 L 3346,1768 L 3266,1688 z " style="fill-opacity:1.000000;fill:rgb(50,13,183);stroke:rgb(0,0,0);stroke-width:2"/></g>
<g fill-rule="evenodd"><path d="M 751,3327 L 4491,3327 L 4545,3273 L 4546,3273 L 4562,3260 L 4564,3259 L 4583,3251 L 4585,3251 L 4606,3248 L 4607,3248 L 6656,3248 L 6662,3242 L 6663,3242 L 6679,3229 L 6681,3228 L 6700,3220 L 6702,3220 L 6722,3217 L 6723,3217 L 7656,3217 L 7657,3217 L 7673,3219 L 7675,3219 L 7691,3224 L 7692,3225 L 7706,3233 L 7708,3234 L 7710,3236 L 7716,3236 L 7718,3236 L 7720,3236 L 7721,3237 L 7722,3239 L 7723,3240 L 7724,3242 L 7724,3244 L 7724,3250 L 7731,3260 L 7732,3261 L 7738,3276 L 7739,3278 L 7742,3294 L 7742,3295 L 7742,3312 L 7742,3313 L 7739,3330 L 7738,3331 L 7732,3346 L 7731,3348 L 7724,3357 L 7724,3364 L 7724,3365 L 7723,3367 L 7722,3368 L 7721,3370 L 7720,3371 L 7718,3371 L 7716,3371 L 7710,3371 L 7708,3373 L 7706,3374 L 7692,3382 L 7691,3383 L 7675,3388 L 7673,3388 L 7657,3390 L 7656,3390 L 6762,3390 L 6762,3396 L 6761,3398 L 6761,3399 L 6760,3401 L 6759,3402 L 6757,3403 L 6756,3404 L 6754,3404 L 6743,3404 L 6736,3409 L 6735,3410 L 6716,3418 L 6714,3418 L 6693,3421 L 6692,3421 L 4643,3421 L 4604,3459 L 4604,3483 L 4604,3484 L 4603,3486 L 4602,3488 L 4601,3489 L 4600,3490 L 4598,3490 L 4596,3491 L 4567,3491 L 4551,3497 L 4549,3498 L 4528,3500 L 4527,3500 L 715,3500 L 714,3500 L 693,3498 L 691,3497 L 672,3489 L 671,3488 L 654,3476 L 653,3475 L 286,3108 L 286,3107 L 276,3095 L 275,3093 L 267,3079 L 267,3077 L 262,3061 L 262,3060 L 261,3043 L 261,3041 L 264,3025 L 264,3024 L 270,3008 L 271,3007 L 280,2993 L 281,2992 L 293,2980 L 294,2979 L 308,2970 L 309,2969 L 325,2963 L 326,2963 L 342,2960 L 344,2960 L 360,2961 L 362,2961 L 378,2966 L 379,2966 L 394,2974 L 396,2975 L 408,2985 L 409,2986 L 751,3327 z " style="fill-opacity:1.000000;fill:rgb(49,88,163);stroke:rgb(0,0,0);stroke-width:2"/></g>
<g fill-rule="evenodd"><path d="M 5665,2358 L 5611,2412 L 5611,2413 L 5594,2425 L 5593,2426 L 5574,2434 L 5572,2435 L 5551,2438 L 5550,2438 L 4351,2438 L 4350,2438 L 4330,2435 L 4328,2434 L 4309,2426 L 4307,2425 L 4291,2413 L 4290,2412 L 4146,2268 L 4145,2267 L 4133,2251 L 4131,2249 L 4124,2230 L 4123,2228 L 4120,2208 L 4120,2207 L 4120,1707 L 4120,1706 L 4122,1690 L 4122,1688 L 4128,1673 L 4128,1671 L 4136,1657 L 4137,1655 L 4148,1643 L 4150,1642 L 4163,1632 L 4164,1632 L 4179,1625 L 4181,1624 L 4197,1621 L 4199,1621 L 4215,1621 L 4217,1621 L 4233,1624 L 4234,1625 L 4250,1632 L 4251,1632 L 4264,1642 L 4265,1643 L 4276,1655 L 4277,1657 L 4286,1671 L 4286,1673 L 4291,1688 L 4292,1690 L 4294,1706 L 4294,1707 L 4294,2171 L 4387,2264 L 5514,2264 L 5560,2219 L 5560,2210 L 5560,2208 L 5561,2207 L 5562,2205 L 5563,2204 L 5565,2203 L 5566,2203 L 5568,2202 L 5579,2202 L 5585,2197 L 5587,2196 L 5606,2188 L 5608,2188 L 5628,2185 L 5630,2185 L 7604,2185 L 7608,2182 L 7610,2181 L 7624,2173 L 7626,2173 L 7642,2168 L 7644,2168 L 7660,2167 L 7662,2167 L 7678,2170 L 7679,2170 L 7695,2176 L 7696,2177 L 7710,2186 L 7716,2186 L 7718,2186 L 7720,2187 L 7721,2188 L 7722,2189 L 7723,2190 L 7724,2192 L 7724,2194 L 7724,2200 L 7733,2214 L 7734,2215 L 7740,2231 L 7740,2232 L 7743,2248 L 7743,2250 L 7742,2267 L 7742,2268 L 7737,2284 L 7737,2286 L 7729,2300 L 7728,2302 L 7724,2307 L 7724,2314 L 7724,2316 L 7723,2317 L 7722,2319 L 7721,2320 L 7720,2321 L 7718,2321 L 7716,2322 L 7711,2322 L 7700,2333 L 7699,2334 L 7682,2346 L 7681,2347 L 7662,2355 L 7660,2356 L 7639,2358 L 7638,2358 L 5665,2358 z " style="fill-opacity:1.000000;fill:rgb(90,37,93);stroke:rgb(0,0,0);stroke-width:2"/></g>
</svg>
