<?xml version="1.0" standalone="no"?>
<!DOCTYPE svg PUBLIC "-//W3C//DTD SVG 1.1//EN"
"http://www.w3.org/Graphics/SVG/1.1/DTD/svg11.dtd">
<svg width="7915" height="3819" viewBox="0 0 7915 3819" version="1.1"
xmlns="http://www.w3.org/2000/svg"
xmlns:xlink="http://www.w3.org/1999/xlink">
<g fill-rule="evenodd"><path d="M 1671,1171 L 1669,1183 L 1669,1185 L 1665,1197 L 1664,1198 L 1658,1209 L 1657,1211 L 1649,1220 L 1648,1221 L 1637,1228 L 1636,1229 L 1625,1234 L 1623,1235 L 1611,1237 L 1609,1238 L 1597,1238 L 1595,1237 L 1583,1235 L 1581,1234 L 1570,1229 L 1568,1228 L 1558,1221 L 1557,1220 L 1548,1211 L 1547,1209 L 1541,1198 L 1541,1197 L 1537,1185 L 1536,1183 L 1535,1171 L 1535,1169 L 1536,1157 L 1537,1155 L 1541,1143 L 1541,1142 L 1547,1131 L 1548,1130 L 1557,1120 L 1558,1119 L 1568,1112 L 1570,1111 L 1581,1106 L 1583,1105 L 1595,1103 L 1597,1103 L 1609,1103 L 1611,1103 L 1623,1105 L 1625,1106 L 1636,1111 L 1637,1112 L 1648,1119 L 1649,1120 L 1657,1130 L 1658,1131 L 1664,1142 L 1665,1143 L 1669,1155 L 1669,1157 L 1671,1169 L 1671,1171 z " style="fill-opacity:1.000000;fill:rgb(103,198,105);stroke:rgb(0,0,0);stroke-width:2"/></g>
<g fill-rule="evenodd"><path d="M 871,1171 L 869,1183 L 869,1185 L 865,1197 L 865,1198 L 858,1209 L 857,1211 L 849,1220 L 848,1221 L 838,1228 L 836,1229 L 825,1234 L 823,1235 L 811,1237 L 809,1238 L 797,1238 L 795,1237 L 783,1235 L 781,1234 L 770,1229 L 768,1228 L 758,1221 L 757,1220 L 749,1211 L 748,1209 L 741,1198 L 741,1197 L 737,1185 L 736,1183 L 735,1171 L 735,1169 L 736,1157 L 737,1155 L 741,1143 L 741,1142 L 748,1131 L 749,1130 L 757,1120 L 758,1119 L 768,1112 L 770,1111 L 781,1106 L 783,1105 L 795,1103 L 797,1103 L 809,1103 L 811,1103 L 823,1105 L 825,1106 L 836,1111 L 838,1112 L 848,1119 L 849,1120 L 857,1130 L 858,1131 L 865,1142 L 865,1143 L 869,1155 L 869,1157 L 871,1169 L 871,1171 z " style="fill-opacity:1.000000;fill:rgb(115,81,255);stroke:rgb(0,0,0);stroke-width:2"/></g>
<g fill-rule="evenodd"><path d="M 1671,1565 L 1669,1577 L 1669,1579 L 1665,1591 L 1664,1592 L 1658,1603 L 1657,1604 L 1649,1614 L 1648,1615 L 1637,1622 L 1636,1623 L 1625,1628 L 1623,1628 L 1611,1631 L 1609,1631 L 1597,1631 L 1595,1631 L 1583,1628 L 1581,1628 L 1570,1623 L 1568,1622 L 1558,1615 L 1557,1614 L 1548,1604 L 1547,1603 L 1541,1592 L 1541,1591 L 1537,1579 L 1536,1577 L 1535,1565 L 1535,1563 L 1536,1550 L 1537,1549 L 1541,1537 L 1541,1535 L 1547,1525 L 1548,1523 L 1557,1514 L 1558,1513 L 1568,1505 L 1570,1505 L 1581,1499 L 1583,1499 L 1595,1496 L 1597,1496 L 1609,1496 L 1611,1496 L 1623,1499 L 1625,1499 L 1636,1505 L 1637,1505 L 1648,1513 L 1649,1514 L 1657,1523 L 1658,1525 L 1664,1535 L 1665,1537 L 1669,1549 L 1669,1550 L 1671,1563 L 1671,1565 z " style="fill-opacity:1.000000;fill:rgb(74,236,41);stroke:rgb(0,0,0);stroke-width:2"/></g>
<g fill-rule="evenodd"><path d="M 871,1565 L 869,1577 L 869,1579 L 865,1591 L 865,1592 L 858,1603 L 857,1604 L 849,1614 L 848,1615 L 838,1622 L 836,1623 L 825,1628 L 823,1628 L 811,1631 L 809,1631 L 797,1631 L 795,1631 L 783,1628 L 781,1628 L 770,1623 L 768,1622 L 758,1615 L 757,1614 L 749,1604 L 748,1603 L 741,1592 L 741,1591 L 737,1579 L 736,1577 L 735,1565 L 735,1563 L 736,1550 L 737,1549 L 741,1537 L 741,1535 L 748,1525 L 749,1523 L 757,1514 L 758,1513 L 768,1505 L 770,1505 L 781,1499 L 783,1499 L 795,1496 L 797,1496 L 809,1496 L 811,1496 L 823,1499 L 825,1499 L 836,1505 L 838,1505 L 848,1513 L 849,1514 L 857,1523 L 858,1525 L 865,1535 L 865,1537 L 869,1549 L 869,1550 L 871,1563 L 871,1565 z " style="fill-opacity:1.000000;fill:rgb(205,186,171);stroke:rgb(0,0,0);stroke-width:2"/></g>
<g fill-rule="evenodd"><path d="M 1710,1958 L 1709,1971 L 1708,1972 L 1704,1984 L 1704,1986 L 1698,1997 L 1697,1998 L 1688,2007 L 1687,2008 L 1677,2016 L 1675,2016 L 1664,2022 L 1662,2022 L 1650,2025 L 1648,2025 L 1636,2025 L 1634,2025 L 1622,2022 L 1620,2022 L 1609,2016 L 1608,2016 L 1597,2008 L 1596,2007 L 1588,1998 L 1587,1997 L 1581,1986 L 1580,1984 L 1576,1972 L 1576,1971 L 1574,1958 L 1574,1957 L 1576,1944 L 1576,1942 L 1580,1930 L 1581,1929 L 1587,1918 L 1588,1917 L 1596,1907 L 1597,1906 L 1608,1899 L 1609,1898 L 1620,1893 L 1622,1893 L 1634,1890 L 1636,1890 L 1648,1890 L 1650,1890 L 1662,1893 L 1664,1893 L 1675,1898 L 1677,1899 L 1687,1906 L 1688,1907 L 1697,1917 L 1698,1918 L 1704,1929 L 1704,1930 L 1708,1942 L 1709,1944 L 1710,1957 L 1710,1958 z " style="fill-opacity:1.000000;fill:rgb(242,251,227);stroke:rgb(0,0,0);stroke-width:2"/></g>
<g fill-rule="evenodd"><path d="M 910,1958 L 909,1971 L 909,1972 L 905,1984 L 904,1986 L 898,1997 L 897,1998 L 888,2007 L 887,2008 L 877,2016 L 876,2016 L 864,2022 L 863,2022 L 850,2025 L 849,2025 L 836,2025 L 834,2025 L 822,2022 L 821,2022 L 809,2016 L 808,2016 L 798,2008 L 796,2007 L 788,1998 L 787,1997 L 781,1986 L 780,1984 L 776,1972 L 776,1971 L 775,1958 L 775,1957 L 776,1944 L 776,1942 L 780,1930 L 781,1929 L 787,1918 L 788,1917 L 796,1907 L 798,1906 L 808,1899 L 809,1898 L 821,1893 L 822,1893 L 834,1890 L 836,1890 L 849,1890 L 850,1890 L 863,1893 L 864,1893 L 876,1898 L 877,1899 L 887,1906 L 888,1907 L 897,1917 L 898,1918 L 904,1929 L 905,1930 L 909,1942 L 909,1944 L 910,1957 L 910,1958 z " style="fill-opacity:1.000000;fill:rgb(70,124,194);stroke:rgb(0,0,0);stroke-width:2"/></g>
<g fill-rule="evenodd"><path d="M 3587,974 L 3585,987 L 3585,988 L 3581,1000 L 3581,1002 L 3574,1012 L 3573,1014 L 3565,1023 L 3564,1024 L 3554,1032 L 3552,1032 L 3541,1038 L 3539,1038 L 3527,1041 L 3525,1041 L 3513,1041 L 3511,1041 L 3499,1038 L 3497,1038 L 3486,1032 L 3484,1032 L 3474,1024 L 3473,1023 L 3465,1014 L 3464,1012 L 3457,1002 L 3457,1000 L 3453,988 L 3452,987 L 3451,974 L 3451,972 L 3452,960 L 3453,958 L 3457,946 L 3457,945 L 3464,934 L 3465,933 L 3473,923 L 3474,922 L 3484,915 L 3486,914 L 3497,909 L 3499,909 L 3511,906 L 3513,906 L 3525,906 L 3527,906 L 3539,909 L 3541,909 L 3552,914 L 3554,915 L 3564,922 L 3565,923 L 3573,933 L 3574,934 L 3581,945 L 3581,946 L 3585,958 L 3585,960 L 3587,972 L 3587,974 z " style="fill-opacity:1.000000;fill:rgb(84,248,27);stroke:rgb(0,0,0);stroke-width:2"/></g>
<g fill-rule="evenodd"><path d="M 4387,974 L 4385,987 L 4385,988 L 4381,1000 L 4380,1002 L 4374,1012 L 4373,1014 L 4365,1023 L 4363,1024 L 4353,1032 L 4352,1032 L 4340,1038 L 4339,1038 L 4327,1041 L 4325,1041 L 4312,1041 L 4311,1041 L 4299,1038 L 4297,1038 L 4286,1032 L 4284,1032 L 4274,1024 L 4273,1023 L 4264,1014 L 4263,1012 L 4257,1002 L 4256,1000 L 4253,988 L 4252,987 L 4251,974 L 4251,972 L 4252,960 L 4253,958 L 4256,946 L 4257,945 L 4263,934 L 4264,933 L 4273,923 L 4274,922 L 4284,915 L 4286,914 L 4297,909 L 4299,909 L 4311,906 L 4312,906 L 4325,906 L 4327,906 L 4339,909 L 4340,909 L 4352,914 L 4353,915 L 4363,922 L 4365,923 L 4373,933 L 4374,934 L 4380,945 L 4381,946 L 4385,958 L 4385,960 L 4387,972 L 4387,974 z " style="fill-opacity:1.000000;fill:rgb(232,231,141);stroke:rgb(0,0,0);stroke-width:2"/></g>
<g fill-rule="evenodd"><path d="M 3575,1708 L 3574,1720 L 3573,1722 L 3569,1734 L 3569,1735 L 3562,1746 L 3561,1748 L 3553,1757 L 3552,1758 L 3542,1765 L 3540,1766 L 3529,1771 L 3527,1772 L 3515,1774 L 3513,1775 L 3501,1775 L 3499,1774 L 3487,1772 L 3485,1771 L 3474,1766 L 3472,1765 L 3462,1758 L 3461,1757 L 3453,1748 L 3452,1746 L 3445,1735 L 3445,1734 L 3441,1722 L 3441,1720 L 3439,1708 L 3439,1706 L 3441,1694 L 3441,1692 L 3445,1680 L 3445,1679 L 3452,1668 L 3453,1666 L 3461,1657 L 3462,1656 L 3472,1649 L 3474,1648 L 3485,1643 L 3487,1642 L 3499,1640 L 3501,1639 L 3513,1639 L 3515,1640 L 3527,1642 L 3529,1643 L 3540,1648 L 3542,1649 L 3552,1656 L 3553,1657 L 3561,1666 L 3562,1668 L 3569,1679 L 3569,1680 L 3573,1692 L 3574,1694 L 3575,1706 L 3575,1708 z " style="fill-opacity:1.000000;fill:rgb(118,90,46);stroke:rgb(0,0,0);stroke-width:2"/></g>
<g fill-rule="evenodd"><path d="M 4375,1708 L 4373,1720 L 4373,1722 L 4369,1734 L 4369,1735 L 4362,1746 L 4361,1748 L 4353,1757 L 4352,1758 L 4342,1765 L 4340,1766 L 4329,1771 L 4327,1772 L 4315,1774 L 4313,1775 L 4301,1775 L 4299,1774 L 4287,1772 L 4285,1771 L 4274,1766 L 4272,1765 L 4262,1758 L 4261,1757 L 4253,1748 L 4252,1746 L 4245,1735 L 4245,1734 L 4241,1722 L 4240,1720 L 4239,1708 L 4239,1706 L 4240,1694 L 4241,1692 L 4245,1680 L 4245,1679 L 4252,1668 L 4253,1666 L 4261,1657 L 4262,1656 L 4272,1649 L 4274,1648 L 4285,1643 L 4287,1642 L 4299,1640 L 4301,1639 L 4313,1639 L 4315,1640 L 4327,1642 L 4329,1643 L 4340,1648 L 4342,1649 L 4352,1656 L 4353,1657 L 4361,1666 L 4362,1668 L 4369,1679 L 4369,1680 L 4373,1692 L 4373,1694 L 4375,1706 L 4375,1708 z " style="fill-opacity:1.000000;fill:rgb(99,51,159);stroke:rgb(0,0,0);stroke-width:2"/></g>
<g fill-rule="evenodd"><path d="M 3575,2208 L 3574,2220 L 3573,2222 L 3569,2234 L 3569,2235 L 3562,2246 L 3561,2247 L 3553,2257 L 3552,2258 L 3542,2265 L 3540,2266 L 3529,2271 L 3527,2272 L 3515,2274 L 3513,2274 L 3501,2274 L 3499,2274 L 3487,2272 L 3485,2271 L 3474,2266 L 3472,2265 L 3462,2258 L 3461,2257 L 3453,2247 L 3452,2246 L 3445,2235 L 3445,2234 L 3441,2222 L 3441,2220 L 3439,2208 L 3439,2206 L 3441,2194 L 3441,2192 L 3445,2180 L 3445,2179 L 3452,2168 L 3453,2166 L 3461,2157 L 3462,2156 L 3472,2149 L 3474,2148 L 3485,2143 L 3487,2142 L 3499,2140 L 3501,2139 L 3513,2139 L 3515,2140 L 3527,2142 L 3529,2143 L 3540,2148 L 3542,2149 L 3552,2156 L 3553,2157 L 3561,2166 L 3562,2168 L 3569,2179 L 3569,2180 L 3573,2192 L 3574,2194 L 3575,2206 L 3575,2208 z " style="fill-opacity:1.000000;fill:rgb(201,154,102);stroke:rgb(0,0,0);stroke-width:2"/></g>
<g fill-rule="evenodd"><path d="M 4375,2208 L 4373,2220 L 4373,2222 L 4369,2234 L 4369,2235 L 4362,2246 L 4361,2247 L 4353,2257 L 4352,2258 L 4342,2265 L 4340,2266 L 4329,2271 L 4327,2272 L 4315,2274 L 4313,2274 L 4301,2274 L 4299,2274 L 4287,2272 L 4285,2271 L 4274,2266 L 4272,2265 L 4262,2258 L 4261,2257 L 4253,2247 L 4252,2246 L 4245,2235 L 4245,2234 L 4241,2222 L 4240,2220 L 4239,2208 L 4239,2206 L 4240,2194 L 4241,2192 L 4245,2180 L 4245,2179 L 4252,2168 L 4253,2166 L 4261,2157 L 4262,2156 L 4272,2149 L 4274,2148 L 4285,2143 L 4287,2142 L 4299,2140 L 4301,2139 L 4313,2139 L 4315,2140 L 4327,2142 L 4329,2143 L 4340,2148 L 4342,2149 L 4352,2156 L 4353,2157 L 4361,2166 L 4362,2168 L 4369,2179 L 4369,2180 L 4373,2192 L 4373,2194 L 4375,2206 L 4375,2208 z " style="fill-opacity:1.000000;fill:rgb(50,13,183);stroke:rgb(0,0,0);stroke-width:2"/></g>
<g fill-rule="evenodd"><path d="M 6605,1152 L 6605,1029 L 6605,1028 L 6606,1026 L 6606,1024 L 6608,1023 L 6609,1022 L 6611,1022 L 6613,1021 L 6736,1021 L 6737,1022 L 6739,1022 L 6740,1023 L 6742,1024 L 6743,1026 L 6743,1028 L 6743,1029 L 6743,1152 L 6743,1154 L 6743,1156 L 6742,1157 L 6740,1158 L 6739,1159 L 6737,1160 L 6736,1160 L 6613,1160 L 6611,1160 L 6609,1159 L 6608,1158 L 6606,1157 L 6606,1156 L 6605,1154 L 6605,1152 z " style="fill-opacity:1.000000;fill:rgb(49,88,163);stroke:rgb(0,0,0);stroke-width:2"/></g>
<g fill-rule="evenodd"><path d="M 6743,502 L 6742,515 L 6742,516 L 6738,528 L 6737,530 L 6731,541 L 6730,542 L 6721,552 L 6720,553 L 6709,561 L 6708,561 L 6696,567 L 6695,567 L 6682,570 L 6681,570 L 6668,570 L 6666,570 L 6653,567 L 6652,567 L 6640,561 L 6639,561 L 6628,553 L 6627,552 L 6619,542 L 6618,541 L 6611,530 L 6610,528 L 6606,516 L 6606,515 L 6605,502 L 6605,500 L 6606,487 L 6606,486 L 6610,474 L 6611,472 L 6618,461 L 6619,460 L 6627,450 L 6628,449 L 6639,441 L 6640,441 L 6652,435 L 6653,435 L 6666,432 L 6668,432 L 6681,432 L 6682,432 L 6695,435 L 6696,435 L 6708,441 L 6709,441 L 6720,449 L 6721,450 L 6730,460 L 6731,461 L 6737,472 L 6738,474 L 6742,486 L 6742,487 L 6743,500 L 6743,502 z " style="fill-opacity:1.000000;fill:rgb(90,37,93);stroke:rgb(0,0,0);stroke-width:2"/></g>
<g fill-rule="evenodd"><path d="M 5660,2333 L 5660,2210 L 5660,2208 L 5661,2207 L 5662,2205 L 5663,2204 L 5665,2203 L 5666,2203 L 5668,2202 L 5791,2202 L 5793,2203 L 5794,2203 L 5796,2204 L 5797,2205 L 5798,2207 L 5799,2208 L 5799,2210 L 5799,2333 L 5799,2335 L 5798,2337 L 5797,2338 L 5796,2339 L 5794,2340 L 5793,2341 L 5791,2341 L 5668,2341 L 5666,2341 L 5665,2340 L 5663,2339 L 5662,2338 L 5661,2337 L 5660,2335 L 5660,2333 z " style="fill-opacity:1.000000;fill:rgb(5,23,88);stroke:rgb(0,0,0);stroke-width:2"/></g>
<g fill-rule="evenodd"><path d="M 5799,1683 L 5797,1695 L 5797,1697 L 5793,1709 L 5792,1711 L 5786,1722 L 5785,1723 L 5776,1733 L 5775,1734 L 5765,1741 L 5763,1742 L 5752,1747 L 5750,1748 L 5737,1751 L 5736,1751 L 5723,1751 L 5721,1751 L 5709,1748 L 5707,1747 L 5695,1742 L 5694,1741 L 5684,1734 L 5682,1733 L 5674,1723 L 5673,1722 L 5666,1711 L 5666,1709 L 5662,1697 L 5661,1695 L 5660,1683 L 5660,1681 L 5661,1668 L 5662,1667 L 5666,1654 L 5666,1653 L 5673,1642 L 5674,1640 L 5682,1631 L 5684,1630 L 5694,1622 L 5695,1621 L 5707,1616 L 5709,1616 L 5721,1613 L 5723,1613 L 5736,1613 L 5737,1613 L 5750,1616 L 5752,1616 L 5763,1621 L 5765,1622 L 5775,1630 L 5776,1631 L 5785,1640 L 5786,1642 L 5792,1653 L 5793,1654 L 5797,1667 L 5797,1668 L 5799,1681 L 5799,1683 z " style="fill-opacity:1.000000;fill:rgb(233,94,212);stroke:rgb(0,0,0);stroke-width:2"/></g>
<g fill-rule="evenodd"><path d="M 6723,3396 L 6723,3273 L 6723,3271 L 6724,3270 L 6725,3268 L 6726,3267 L 6727,3266 L 6729,3265 L 6731,3265 L 6854,3265 L 6855,3265 L 6857,3266 L 6859,3267 L 6860,3268 L 6861,3270 L 6861,3271 L 6862,3273 L 6862,3396 L 6861,3398 L 6861,3399 L 6860,3401 L 6859,3402 L 6857,3403 L 6855,3404 L 6854,3404 L 6731,3404 L 6729,3404 L 6727,3403 L 6726,3402 L 6725,3401 L 6724,3399 L 6723,3398 L 6723,3396 z " style="fill-opacity:1.000000;fill:rgb(171,178,205);stroke:rgb(0,0,0);stroke-width:2"/></g>
<g fill-rule="evenodd"><path d="M 6862,2745 L 6860,2758 L 6860,2760 L 6856,2772 L 6855,2773 L 6849,2785 L 6848,2786 L 6839,2796 L 6838,2797 L 6828,2804 L 6826,2805 L 6814,2810 L 6813,2811 L 6800,2813 L 6799,2814 L 6786,2814 L 6784,2813 L 6772,2811 L 6770,2810 L 6758,2805 L 6757,2804 L 6746,2797 L 6745,2796 L 6737,2786 L 6736,2785 L 6729,2773 L 6729,2772 L 6725,2760 L 6724,2758 L 6723,2745 L 6723,2744 L 6724,2731 L 6725,2729 L 6729,2717 L 6729,2716 L 6736,2704 L 6737,2703 L 6745,2694 L 6746,2692 L 6757,2685 L 6758,2684 L 6770,2679 L 6772,2678 L 6784,2676 L 6786,2676 L 6799,2676 L 6800,2676 L 6813,2678 L 6814,2679 L 6826,2684 L 6828,2685 L 6838,2692 L 6839,2694 L 6848,2703 L 6849,2704 L 6855,2716 L 6856,2717 L 6860,2729 L 6860,2731 L 6862,2744 L 6862,2745 z " style="fill-opacity:1.000000;fill:rgb(198,155,180);stroke:rgb(0,0,0);stroke-width:2"/></g>
<g fill-rule="evenodd"><path d="M 7688,3363 L 7688,3243 L 7688,3242 L 7689,3240 L 7690,3239 L 7691,3237 L 7693,3236 L 7694,3236 L 7696,3236 L 7816,3236 L 7818,3236 L 7820,3236 L 7821,3237 L 7822,3239 L 7823,3240 L 7824,3242 L 7824,3243 L 7824,3363 L 7824,3365 L 7823,3367 L 7822,3368 L 7821,3370 L 7820,3371 L 7818,3371 L 7816,3371 L 7696,3371 L 7694,3371 L 7693,3371 L 7691,3370 L 7690,3368 L 7689,3367 L 7688,3365 L 7688,3363 z " style="fill-opacity:1.000000;fill:rgb(84,17,14);stroke:rgb(0,0,0);stroke-width:2"/></g>
<g fill-rule="evenodd"><path d="M 7824,2911 L 7823,2923 L 7822,2925 L 7818,2937 L 7818,2938 L 7811,2949 L 7811,2950 L 7802,2960 L 7801,2961 L 7791,2968 L 7789,2969 L 7778,2974 L 7776,2975 L 7764,2977 L 7762,2977 L 7750,2977 L 7748,2977 L 7736,2975 L 7734,2974 L 7723,2969 L 7722,2968 L 7711,2961 L 7710,2960 L 7702,2950 L 7701,2949 L 7695,2938 L 7694,2937 L 7690,2925 L 7690,2923 L 7688,2911 L 7688,2909 L 7690,2897 L 7690,2895 L 7694,2883 L 7695,2882 L 7701,2871 L 7702,2869 L 7710,2860 L 7711,2859 L 7722,2852 L 7723,2851 L 7734,2846 L 7736,2845 L 7748,2843 L 7750,2842 L 7762,2842 L 7764,2843 L 7776,2845 L 7778,2846 L 7789,2851 L 7791,2852 L 7801,2859 L 7802,2860 L 7811,2869 L 7811,2871 L 7818,2882 L 7818,2883 L 7822,2895 L 7823,2897 L 7824,2909 L 7824,2911 z " style="fill-opacity:1.000000;fill:rgb(130,116,65);stroke:rgb(0,0,0);stroke-width:2"/></g>
<g fill-rule="evenodd"><path d="M 7688,1264 L 7688,1144 L 7688,1142 L 7689,1141 L 7690,1139 L 7691,1138 L 7693,1137 L 7694,1136 L 7696,1136 L 7816,1136 L 7818,1136 L 7820,1137 L 7821,1138 L 7822,1139 L 7823,1141 L 7824,1142 L 7824,1144 L 7824,1264 L 7824,1266 L 7823,1267 L 7822,1269 L 7821,1270 L 7820,1271 L 7818,1272 L 7816,1272 L 7696,1272 L 7694,1272 L 7693,1271 L 7691,1270 L 7690,1269 L 7689,1267 L 7688,1266 L 7688,1264 z " style="fill-opacity:1.000000;fill:rgb(33,61,220);stroke:rgb(0,0,0);stroke-width:2"/></g>
<g fill-rule="evenodd"><path d="M 7824,811 L 7823,824 L 7822,825 L 7818,837 L 7818,839 L 7811,850 L 7811,851 L 7802,860 L 7801,861 L 7791,869 L 7789,869 L 7778,875 L 7776,875 L 7764,878 L 7762,878 L 7750,878 L 7748,878 L 7736,875 L 7734,875 L 7723,869 L 7722,869 L 7711,861 L 7710,860 L 7702,851 L 7701,850 L 7695,839 L 7694,837 L 7690,825 L 7690,824 L 7688,811 L 7688,810 L 7690,797 L 7690,795 L 7694,784 L 7695,782 L 7701,771 L 7702,770 L 7710,760 L 7711,759 L 7722,752 L 7723,751 L 7734,746 L 7736,746 L 7748,743 L 7750,743 L 7762,743 L 7764,743 L 7776,746 L 7778,746 L 7789,751 L 7791,752 L 7801,759 L 7802,760 L 7811,770 L 7811,771 L 7818,782 L 7818,784 L 7822,795 L 7823,797 L 7824,810 L 7824,811 z " style="fill-opacity:1.000000;fill:rgb(135,112,233);stroke:rgb(0,0,0);stroke-width:2"/></g>
<g fill-rule="evenodd"><path d="M 7688,2314 L 7688,2194 L 7688,2192 L 7689,2190 L 7690,2189 L 7691,2188 L 7693,2187 L 7694,2186 L 7696,2186 L 7816,2186 L 7818,2186 L 7820,2187 L 7821,2188 L 7822,2189 L 7823,2190 L 7824,2192 L 7824,2194 L 7824,2314 L 7824,2315 L 7823,2317 L 7822,2319 L 7821,2320 L 7820,2321 L 7818,2321 L 7816,2322 L 7696,2322 L 7694,2321 L 7693,2321 L 7691,2320 L 7690,2319 L 7689,2317 L 7688,2315 L 7688,2314 z " style="fill-opacity:1.000000;fill:rgb(62,161,65);stroke:rgb(0,0,0);stroke-width:2"/></g>
<g fill-rule="evenodd"><path d="M 7824,1861 L 7823,1873 L 7822,1875 L 7818,1887 L 7818,1888 L 7811,1899 L 7811,1901 L 7802,1910 L 7801,1911 L 7791,1918 L 7789,1919 L 7778,1924 L 7776,1925 L 7764,1927 L 7762,1928 L 7750,1928 L 7748,1927 L 7736,1925 L 7734,1924 L 7723,1919 L 7722,1918 L 7711,1911 L 7710,1910 L 7702,1901 L 7701,1899 L 7695,1888 L 7694,1887 L 7690,1875 L 7690,1873 L 7688,1861 L 7688,1859 L 7690,1847 L 7690,1845 L 7694,1833 L 7695,1832 L 7701,1821 L 7702,1820 L 7710,1810 L 7711,1809 L 7722,1802 L 7723,1801 L 7734,1796 L 7736,1795 L 7748,1793 L 7750,1793 L 7762,1793 L 7764,1793 L 7776,1795 L 7778,1796 L 7789,1801 L 7791,1802 L 7801,1809 L 7802,1810 L 7811,1820 L 7811,1821 L 7818,1832 L 7818,1833 L 7822,1845 L 7823,1847 L 7824,1859 L 7824,1861 z " style="fill-opacity:1.000000;fill:rgb(225,252,103);stroke:rgb(0,0,0);stroke-width:2"/></g>
<g fill-rule="evenodd"><path d="M 526,1955 L 524,1967 L 524,1969 L 520,1981 L 519,1982 L 513,1993 L 512,1994 L 504,2004 L 503,2005 L 492,2012 L 491,2013 L 480,2018 L 478,2019 L 466,2021 L 464,2021 L 452,2021 L 450,2021 L 438,2019 L 436,2018 L 425,2013 L 423,2012 L 413,2005 L 412,2004 L 403,1994 L 402,1993 L 396,1982 L 395,1981 L 392,1969 L 391,1967 L 390,1955 L 390,1953 L 391,1940 L 392,1939 L 395,1927 L 396,1925 L 402,1915 L 403,1913 L 412,1904 L 413,1903 L 423,1895 L 425,1895 L 436,1890 L 438,1889 L 450,1886 L 452,1886 L 464,1886 L 466,1886 L 478,1889 L 480,1890 L 491,1895 L 492,1895 L 503,1903 L 504,1904 L 512,1913 L 513,1915 L 519,1925 L 520,1927 L 524,1939 L 524,1940 L 526,1953 L 526,1955 z " style="fill-opacity:1.000000;fill:rgb(62,1,126);stroke:rgb(0,0,0);stroke-width:2"/></g>
<g fill-rule="evenodd"><path d="M 526,1561 L 524,1573 L 524,1575 L 520,1587 L 519,1589 L 513,1599 L 512,1601 L 504,1610 L 503,1611 L 492,1618 L 491,1619 L 480,1624 L 478,1625 L 466,1628 L 464,1628 L 452,1628 L 450,1628 L 438,1625 L 436,1624 L 425,1619 L 423,1618 L 413,1611 L 412,1610 L 403,1601 L 402,1599 L 396,1589 L 395,1587 L 392,1575 L 391,1573 L 390,1561 L 390,1559 L 391,1547 L 392,1545 L 395,1533 L 396,1532 L 402,1521 L 403,1520 L 412,1510 L 413,1509 L 423,1502 L 425,1501 L 436,1496 L 438,1495 L 450,1493 L 452,1493 L 464,1493 L 466,1493 L 478,1495 L 480,1496 L 491,1501 L 492,1502 L 503,1509 L 504,1510 L 512,1520 L 513,1521 L 519,1532 L 520,1533 L 524,1545 L 524,1547 L 526,1559 L 526,1561 z " style="fill-opacity:1.000000;fill:rgb(151,234,220);stroke:rgb(0,0,0);stroke-width:2"/></g>
<g fill-rule="evenodd"><path d="M 526,1167 L 524,1180 L 524,1181 L 520,1193 L 519,1195 L 513,1206 L 512,1207 L 504,1216 L 503,1218 L 492,1225 L 491,1226 L 480,1231 L 478,1231 L 466,1234 L 464,1234 L 452,1234 L 450,1234 L 438,1231 L 436,1231 L 425,1226 L 423,1225 L 413,1218 L 412,1216 L 403,1207 L 402,1206 L 396,1195 L 395,1193 L 392,1181 L 391,1180 L 390,1167 L 390,1166 L 391,1153 L 392,1152 L 395,1140 L 396,1138 L 402,1127 L 403,1126 L 412,1117 L 413,1116 L 423,1108 L 425,1107 L 436,1102 L 438,1102 L 450,1099 L 452,1099 L 464,1099 L 466,1099 L 478,1102 L 480,1102 L 491,1107 L 492,1108 L 503,1116 L 504,1117 L 512,1126 L 513,1127 L 519,1138 L 520,1140 L 524,1152 L 524,1153 L 526,1166 L 526,1167 z " style="fill-opacity:1.000000;fill:rgb(107,150,143);stroke:rgb(0,0,0);stroke-width:2"/></g>
<g fill-rule="evenodd"><path d="M 380,3500 L 380,3380 L 380,3379 L 381,3377 L 382,3375 L 383,3374 L 384,3373 L 386,3373 L 388,3372 L 508,3372 L 510,3373 L 511,3373 L 513,3374 L 514,3375 L 515,3377 L 515,3379 L 516,3380 L 516,3500 L 515,3502 L 515,3504 L 514,3505 L 513,3506 L 511,3507 L 510,3508 L 508,3508 L 388,3508 L 386,3508 L 384,3507 L 383,3506 L 382,3505 L 381,3504 L 380,3502 L 380,3500 z " style="fill-opacity:1.000000;fill:rgb(56,92,42);stroke:rgb(0,0,0);stroke-width:2"/></g>
<g fill-rule="evenodd"><path d="M 516,3048 L 514,3060 L 514,3062 L 510,3074 L 509,3075 L 503,3086 L 502,3087 L 494,3097 L 493,3098 L 482,3105 L 481,3106 L 470,3111 L 468,3111 L 456,3114 L 454,3114 L 442,3114 L 440,3114 L 428,3111 L 426,3111 L 415,3106 L 413,3105 L 403,3098 L 402,3097 L 393,3087 L 392,3086 L 386,3075 L 386,3074 L 382,3062 L 381,3060 L 380,3048 L 380,3046 L 381,3033 L 382,3032 L 386,3020 L 386,3018 L 392,3007 L 393,3006 L 402,2997 L 403,2996 L 413,2988 L 415,2988 L 426,2982 L 428,2982 L 440,2979 L 442,2979 L 454,2979 L 456,2979 L 468,2982 L 470,2982 L 481,2988 L 482,2988 L 493,2996 L 494,2997 L 502,3006 L 503,3007 L 509,3018 L 510,3020 L 514,3032 L 514,3033 L 516,3046 L 516,3048 z " style="fill-opacity:1.000000;fill:rgb(236,176,59);stroke:rgb(0,0,0);stroke-width:2"/></g>
<g fill-rule="evenodd"><path d="M 516,2654 L 514,2666 L 514,2668 L 510,2680 L 509,2681 L 503,2692 L 502,2694 L 494,2703 L 493,2704 L 482,2711 L 481,2712 L 470,2717 L 468,2718 L 456,2720 L 454,2721 L 442,2721 L 440,2720 L 428,2718 L 426,2717 L 415,2712 L 413,2711 L 403,2704 L 402,2703 L 393,2694 L 392,2692 L 386,2681 L 386,2680 L 382,2668 L 381,2666 L 380,2654 L 380,2652 L 381,2640 L 382,2638 L 386,2626 L 386,2625 L 392,2614 L 393,2613 L 402,2603 L 403,2602 L 413,2595 L 415,2594 L 426,2589 L 428,2588 L 440,2586 L 442,2586 L 454,2586 L 456,2586 L 468,2588 L 470,2589 L 481,2594 L 482,2595 L 493,2602 L 494,2603 L 502,2613 L 503,2614 L 509,2625 L 510,2626 L 514,2638 L 514,2640 L 516,2652 L 516,2654 z " style="fill-opacity:1.000000;fill:rgb(251,50,175);stroke:rgb(0,0,0);stroke-width:2"/></g>
<g fill-rule="evenodd"><path d="M 4551,1357 L 4551,1219 L 4551,1218 L 4551,1216 L 4552,1214 L 4554,1213 L 4555,1212 L 4557,1212 L 4558,1211 L 4696,1211 L 4698,1212 L 4700,1212 L 4701,1213 L 4702,1214 L 4703,1216 L 4704,1218 L 4704,1219 L 4704,1357 L 4704,1359 L 4703,1360 L 4702,1362 L 4701,1363 L 4700,1364 L 4698,1365 L 4696,1365 L 4558,1365 L 4557,1365 L 4555,1364 L 4554,1363 L 4552,1362 L 4551,1360 L 4551,1359 L 4551,1357 z " style="fill-opacity:1.000000;fill:rgb(60,84,236);stroke:rgb(0,0,0);stroke-width:2"/></g>
<g fill-rule="evenodd"><path d="M 4704,895 L 4703,910 L 4702,911 L 4698,925 L 4697,927 L 4690,939 L 4689,940 L 4679,951 L 4678,952 L 4666,961 L 4665,961 L 4652,967 L 4650,968 L 4636,971 L 4635,971 L 4620,971 L 4618,971 L 4604,968 L 4603,967 L 4590,961 L 4588,961 L 4577,952 L 4575,951 L 4566,940 L 4565,939 L 4558,927 L 4557,925 L 4552,911 L 4552,910 L 4551,895 L 4551,894 L 4552,879 L 4552,878 L 4557,864 L 4558,863 L 4565,850 L 4566,849 L 4575,838 L 4577,837 L 4588,829 L 4590,828 L 4603,822 L 4604,821 L 4618,818 L 4620,818 L 4635,818 L 4636,818 L 4650,821 L 4652,822 L 4665,828 L 4666,829 L 4678,837 L 4679,838 L 4689,849 L 4690,850 L 4697,863 L 4698,864 L 4702,878 L 4703,879 L 4704,894 L 4704,895 z " style="fill-opacity:1.000000;fill:rgb(24,219,92);stroke:rgb(0,0,0);stroke-width:2"/></g>
<g fill-rule="evenodd"><path d="M 4704,502 L 4703,516 L 4702,518 L 4698,531 L 4697,533 L 4690,545 L 4689,547 L 4679,557 L 4678,559 L 4666,567 L 4665,568 L 4652,574 L 4650,574 L 4636,577 L 4635,577 L 4620,577 L 4618,577 L 4604,574 L 4603,574 L 4590,568 L 4588,567 L 4577,559 L 4575,557 L 4566,547 L 4565,545 L 4558,533 L 4557,531 L 4552,518 L 4552,516 L 4551,502 L 4551,500 L 4552,486 L 4552,484 L 4557,471 L 4558,469 L 4565,457 L 4566,455 L 4575,445 L 4577,443 L 4588,435 L 4590,434 L 4603,428 L 4604,428 L 4618,425 L 4620,425 L 4635,425 L 4636,425 L 4650,428 L 4652,428 L 4665,434 L 4666,435 L 4678,443 L 4679,445 L 4689,455 L 4690,457 L 4697,469 L 4698,471 L 4702,484 L 4703,486 L 4704,500 L 4704,502 z " style="fill-opacity:1.000000;fill:rgb(2,26,254);stroke:rgb(0,0,0);stroke-width:2"/></g>
<g fill-rule="evenodd"><path d="M 4551,2420 L 4551,2282 L 4551,2280 L 4551,2279 L 4552,2277 L 4554,2276 L 4555,2275 L 4557,2274 L 4558,2274 L 4696,2274 L 4698,2274 L 4700,2275 L 4701,2276 L 4702,2277 L 4703,2279 L 4704,2280 L 4704,2282 L 4704,2420 L 4704,2422 L 4703,2423 L 4702,2425 L 4701,2426 L 4700,2427 L 4698,2427 L 4696,2428 L 4558,2428 L 4557,2427 L 4555,2427 L 4554,2426 L 4552,2425 L 4551,2423 L 4551,2422 L 4551,2420 z " style="fill-opacity:1.000000;fill:rgb(67,251,250);stroke:rgb(0,0,0);stroke-width:2"/></g>
<g fill-rule="evenodd"><path d="M 4704,1958 L 4703,1972 L 4702,1974 L 4698,1988 L 4697,1989 L 4690,2002 L 4689,2003 L 4679,2014 L 4678,2015 L 4666,2023 L 4665,2024 L 4652,2030 L 4650,2031 L 4636,2034 L 4635,2034 L 4620,2034 L 4618,2034 L 4604,2031 L 4603,2030 L 4590,2024 L 4588,2023 L 4577,2015 L 4575,2014 L 4566,2003 L 4565,2002 L 4558,1989 L 4557,1988 L 4552,1974 L 4552,1972 L 4551,1958 L 4551,1957 L 4552,1942 L 4552,1941 L 4557,1927 L 4558,1925 L 4565,1913 L 4566,1912 L 4575,1901 L 4577,1900 L 4588,1891 L 4590,1890 L 4603,1885 L 4604,1884 L 4618,1881 L 4620,1881 L 4635,1881 L 4636,1881 L 4650,1884 L 4652,1885 L 4665,1890 L 4666,1891 L 4678,1900 L 4679,1901 L 4689,1912 L 4690,1913 L 4697,1925 L 4698,1927 L 4702,1941 L 4703,1942 L 4704,1957 L 4704,1958 z " style="fill-opacity:1.000000;fill:rgb(170,58,251);stroke:rgb(0,0,0);stroke-width:2"/></g>
<g fill-rule="evenodd"><path d="M 4704,1565 L 4703,1579 L 4702,1580 L 4698,1594 L 4697,1596 L 4690,1608 L 4689,1609 L 4679,1620 L 4678,1621 L 4666,1630 L 4665,1631 L 4652,1636 L 4650,1637 L 4636,1640 L 4635,1640 L 4620,1640 L 4618,1640 L 4604,1637 L 4603,1636 L 4590,1631 L 4588,1630 L 4577,1621 L 4575,1620 L 4566,1609 L 4565,1608 L 4558,1596 L 4557,1594 L 4552,1580 L 4552,1579 L 4551,1565 L 4551,1563 L 4552,1549 L 4552,1547 L 4557,1533 L 4558,1532 L 4565,1519 L 4566,1518 L 4575,1507 L 4577,1506 L 4588,1498 L 4590,1497 L 4603,1491 L 4604,1491 L 4618,1488 L 4620,1487 L 4635,1487 L 4636,1488 L 4650,1491 L 4652,1491 L 4665,1497 L 4666,1498 L 4678,1506 L 4679,1507 L 4689,1518 L 4690,1519 L 4697,1532 L 4698,1533 L 4702,1547 L 4703,1549 L 4704,1563 L 4704,1565 z " style="fill-opacity:1.000000;fill:rgb(41,209,230);stroke:rgb(0,0,0);stroke-width:2"/></g>
<g fill-rule="evenodd"><path d="M 4551,3483 L 4551,3345 L 4551,3343 L 4551,3341 L 4552,3340 L 4554,3339 L 4555,3338 L 4557,3337 L 4558,3337 L 4696,3337 L 4698,3337 L 4700,3338 L 4701,3339 L 4702,3340 L 4703,3341 L 4704,3343 L 4704,3345 L 4704,3483 L 4704,3484 L 4703,3486 L 4702,3487 L 4701,3489 L 4700,3490 L 4698,3490 L 4696,3490 L 4558,3490 L 4557,3490 L 4555,3490 L 4554,3489 L 4552,3487 L 4551,3486 L 4551,3484 L 4551,3483 z " style="fill-opacity:1.000000;fill:rgb(5,60,124);stroke:rgb(0,0,0);stroke-width:2"/></g>
<g fill-rule="evenodd"><path d="M 4704,3021 L 4703,3035 L 4702,3037 L 4698,3051 L 4697,3052 L 4690,3065 L 4689,3066 L 4679,3077 L 4678,3078 L 4666,3086 L 4665,3087 L 4652,3093 L 4650,3093 L 4636,3096 L 4635,3096 L 4620,3096 L 4618,3096 L 4604,3093 L 4603,3093 L 4590,3087 L 4588,3086 L 4577,3078 L 4575,3077 L 4566,3066 L 4565,3065 L 4558,3052 L 4557,3051 L 4552,3037 L 4552,3035 L 4551,3021 L 4551,3019 L 4552,3005 L 4552,3003 L 4557,2990 L 4558,2988 L 4565,2976 L 4566,2974 L 4575,2964 L 4577,2963 L 4588,2954 L 4590,2953 L 4603,2947 L 4604,2947 L 4618,2944 L 4620,2944 L 4635,2944 L 4636,2944 L 4650,2947 L 4652,2947 L 4665,2953 L 4666,2954 L 4678,2963 L 4679,2964 L 4689,2974 L 4690,2976 L 4697,2988 L 4698,2990 L 4702,3003 L 4703,3005 L 4704,3019 L 4704,3021 z " style="fill-opacity:1.000000;fill:rgb(148,117,216);stroke:rgb(0,0,0);stroke-width:2"/></g>
<g fill-rule="evenodd"><path d="M 4704,2627 L 4703,2642 L 4702,2643 L 4698,2657 L 4697,2658 L 4690,2671 L 4689,2672 L 4679,2683 L 4678,2684 L 4666,2692 L 4665,2693 L 4652,2699 L 4650,2700 L 4636,2703 L 4635,2703 L 4620,2703 L 4618,2703 L 4604,2700 L 4603,2699 L 4590,2693 L 4588,2692 L 4577,2684 L 4575,2683 L 4566,2672 L 4565,2671 L 4558,2658 L 4557,2657 L 4552,2643 L 4552,2642 L 4551,2627 L 4551,2626 L 4552,2611 L 4552,2610 L 4557,2596 L 4558,2595 L 4565,2582 L 4566,2581 L 4575,2570 L 4577,2569 L 4588,2560 L 4590,2560 L 4603,2554 L 4604,2553 L 4618,2550 L 4620,2550 L 4635,2550 L 4636,2550 L 4650,2553 L 4652,2554 L 4665,2560 L 4666,2560 L 4678,2569 L 4679,2570 L 4689,2581 L 4690,2582 L 4697,2595 L 4698,2596 L 4702,2610 L 4703,2611 L 4704,2626 L 4704,2627 z " style="fill-opacity:1.000000;fill:rgb(190,97,137);stroke:rgb(0,0,0);stroke-width:2"/></g>
<g fill-rule="evenodd"><path d="M 1876,2104 L 1864,2103 L 1862,2103 L 1850,2099 L 1849,2098 L 1838,2092 L 1837,2091 L 1827,2083 L 1826,2082 L 1818,2072 L 1817,2071 L 1812,2059 L 1811,2058 L 1808,2046 L 1808,2044 L 1807,2032 L 1807,2030 L 1809,2018 L 1810,2016 L 1814,2004 L 1815,2003 L 1821,1992 L 1822,1991 L 1831,1982 L 1832,1981 L 1843,1974 L 1844,1973 L 1855,1968 L 1857,1968 L 1869,1965 L 1871,1965 L 1933,1965 L 1934,1965 L 1946,1966 L 1948,1966 L 1960,1970 L 1961,1971 L 1972,1977 L 1974,1978 L 1983,1986 L 1984,1987 L 1992,1997 L 1993,1998 L 1998,2009 L 1999,2011 L 2002,2023 L 2002,2025 L 2003,2037 L 2003,2039 L 2001,2051 L 2000,2053 L 1996,2065 L 1995,2066 L 1989,2077 L 1988,2078 L 1979,2087 L 1978,2088 L 1968,2095 L 1966,2096 L 1955,2101 L 1953,2101 L 1941,2104 L 1939,2104 L 1877,2104 L 1876,2104 z " style="fill-opacity:1.000000;fill:rgb(249,92,187);stroke:rgb(0,0,0);stroke-width:2"/></g>
<g fill-rule="evenodd"><path d="M 2676,2104 L 2664,2103 L 2662,2103 L 2650,2099 L 2649,2098 L 2638,2092 L 2636,2091 L 2627,2083 L 2626,2082 L 2618,2072 L 2617,2071 L 2612,2059 L 2611,2058 L 2608,2046 L 2608,2044 L 2607,2032 L 2607,2030 L 2609,2018 L 2610,2016 L 2614,2004 L 2615,2003 L 2621,1992 L 2622,1991 L 2631,1982 L 2632,1981 L 2642,1974 L 2644,1973 L 2655,1968 L 2657,1968 L 2669,1965 L 2671,1965 L 2733,1965 L 2734,1965 L 2746,1966 L 2748,1966 L 2760,1970 L 2761,1971 L 2772,1977 L 2773,1978 L 2783,1986 L 2784,1987 L 2792,1997 L 2793,1998 L 2798,2009 L 2799,2011 L 2802,2023 L 2802,2025 L 2803,2037 L 2803,2039 L 2801,2051 L 2800,2053 L 2796,2065 L 2795,2066 L 2789,2077 L 2788,2078 L 2779,2087 L 2778,2088 L 2767,2095 L 2766,2096 L 2755,2101 L 2753,2101 L 2741,2104 L 2739,2104 L 2677,2104 L 2676,2104 z " style="fill-opacity:1.000000;fill:rgb(168,153,15);stroke:rgb(0,0,0);stroke-width:2"/></g>
<g fill-rule="evenodd"><path d="M 2676,2304 L 2664,2303 L 2662,2303 L 2650,2299 L 2649,2298 L 2638,2292 L 2636,2291 L 2627,2283 L 2626,2282 L 2618,2272 L 2617,2271 L 2612,2259 L 2611,2258 L 2608,2246 L 2608,2244 L 2607,2232 L 2607,2230 L 2609,2218 L 2610,2216 L 2614,2204 L 2615,2203 L 2621,2192 L 2622,2191 L 2631,2182 L 2632,2181 L 2642,2174 L 2644,2173 L 2655,2168 L 2657,2168 L 2669,2165 L 2671,2165 L 2733,2165 L 2734,2165 L 2746,2166 L 2748,2166 L 2760,2170 L 2761,2171 L 2772,2177 L 2773,2178 L 2783,2186 L 2784,2187 L 2792,2197 L 2793,2198 L 2798,2209 L 2799,2211 L 2802,2223 L 2802,2225 L 2803,2237 L 2803,2239 L 2801,2251 L 2800,2253 L 2796,2264 L 2795,2266 L 2789,2277 L 2788,2278 L 2779,2287 L 2778,2288 L 2767,2295 L 2766,2296 L 2755,2301 L 2753,2301 L 2741,2304 L 2739,2304 L 2677,2304 L 2676,2304 z " style="fill-opacity:1.000000;fill:rgb(149,177,235);stroke:rgb(0,0,0);stroke-width:2"/></g>
<g fill-rule="evenodd"><path d="M 1876,1671 L 1864,1670 L 1862,1670 L 1850,1666 L 1849,1665 L 1838,1659 L 1837,1658 L 1827,1650 L 1826,1649 L 1818,1639 L 1817,1638 L 1812,1626 L 1811,1625 L 1808,1613 L 1808,1611 L 1807,1599 L 1807,1597 L 1809,1585 L 1810,1583 L 1814,1571 L 1815,1570 L 1821,1559 L 1822,1558 L 1831,1549 L 1832,1548 L 1843,1541 L 1844,1540 L 1855,1535 L 1857,1535 L 1869,1532 L 1871,1532 L 1933,1532 L 1934,1532 L 1946,1533 L 1948,1533 L 1960,1537 L 1961,1538 L 1972,1544 L 1974,1545 L 1983,1553 L 1984,1554 L 1992,1564 L 1993,1565 L 1998,1577 L 1999,1578 L 2002,1590 L 2002,1592 L 2003,1604 L 2003,1606 L 2001,1618 L 2000,1620 L 1996,1632 L 1995,1633 L 1989,1644 L 1988,1645 L 1979,1654 L 1978,1655 L 1968,1662 L 1966,1663 L 1955,1668 L 1953,1668 L 1941,1671 L 1939,1671 L 1877,1671 L 1876,1671 z " style="fill-opacity:1.000000;fill:rgb(241,179,5);stroke:rgb(0,0,0);stroke-width:2"/></g>
<g fill-rule="evenodd"><path d="M 2676,1671 L 2664,1670 L 2662,1670 L 2650,1666 L 2649,1665 L 2638,1659 L 2636,1658 L 2627,1650 L 2626,1649 L 2618,1639 L 2617,1638 L 2612,1626 L 2611,1625 L 2608,1613 L 2608,1611 L 2607,1599 L 2607,1597 L 2609,1585 L 2610,1583 L 2614,1571 L 2615,1570 L 2621,1559 L 2622,1558 L 2631,1549 L 2632,1548 L 2642,1541 L 2644,1540 L 2655,1535 L 2657,1535 L 2669,1532 L 2671,1532 L 2733,1532 L 2734,1532 L 2746,1533 L 2748,1533 L 2760,1537 L 2761,1538 L 2772,1544 L 2773,1545 L 2783,1553 L 2784,1554 L 2792,1564 L 2793,1565 L 2798,1577 L 2799,1578 L 2802,1590 L 2802,1592 L 2803,1604 L 2803,1606 L 2801,1618 L 2800,1620 L 2796,1632 L 2795,1633 L 2789,1644 L 2788,1645 L 2779,1654 L 2778,1655 L 2767,1662 L 2766,1663 L 2755,1668 L 2753,1668 L 2741,1671 L 2739,1671 L 2677,1671 L 2676,1671 z " style="fill-opacity:1.000000;fill:rgb(239,247,0);stroke:rgb(0,0,0);stroke-width:2"/></g>
<g fill-rule="evenodd"><path d="M 2676,1871 L 2664,1870 L 2662,1870 L 2650,1866 L 2649,1865 L 2638,1859 L 2636,1858 L 2627,1850 L 2626,1849 L 2618,1839 L 2617,1838 L 2612,1826 L 2611,1825 L 2608,1813 L 2608,1811 L 2607,1799 L 2607,1797 L 2609,1785 L 2610,1783 L 2614,1771 L 2615,1770 L 2621,1759 L 2622,1758 L 2631,1749 L 2632,1748 L 2642,1741 L 2644,1740 L 2655,1735 L 2657,1735 L 2669,1732 L 2671,1732 L 2733,1732 L 2734,1732 L 2746,1733 L 2748,1733 L 2760,1737 L 2761,1738 L 2772,1744 L 2773,1745 L 2783,1753 L 2784,1754 L 2792,1764 L 2793,1765 L 2798,1776 L 2799,1778 L 2802,1790 L 2802,1792 L 2803,1804 L 2803,1806 L 2801,1818 L 2800,1820 L 2796,1831 L 2795,1833 L 2789,1844 L 2788,1845 L 2779,1854 L 2778,1855 L 2767,1862 L 2766,1863 L 2755,1868 L 2753,1868 L 2741,1871 L 2739,1871 L 2677,1871 L 2676,1871 z " style="fill-opacity:1.000000;fill:rgb(233,161,58);stroke:rgb(0,0,0);stroke-width:2"/></g>
<g fill-rule="evenodd"><path d="M 1876,1238 L 1864,1237 L 1862,1237 L 1850,1233 L 1849,1232 L 1838,1226 L 1837,1225 L 1827,1217 L 1826,1216 L 1818,1206 L 1817,1205 L 1812,1194 L 1811,1192 L 1808,1180 L 1808,1178 L 1807,1166 L 1807,1164 L 1809,1152 L 1810,1150 L 1814,1138 L 1815,1137 L 1821,1126 L 1822,1125 L 1831,1116 L 1832,1115 L 1843,1108 L 1844,1107 L 1855,1102 L 1857,1102 L 1869,1099 L 1871,1099 L 1933,1099 L 1934,1099 L 1946,1100 L 1948,1100 L 1960,1104 L 1961,1105 L 1972,1111 L 1974,1112 L 1983,1120 L 1984,1121 L 1992,1131 L 1993,1132 L 1998,1144 L 1999,1145 L 2002,1157 L 2002,1159 L 2003,1171 L 2003,1173 L 2001,1185 L 2000,1187 L 1996,1199 L 1995,1200 L 1989,1211 L 1988,1212 L 1979,1221 L 1978,1222 L 1968,1229 L 1966,1230 L 1955,1235 L 1953,1235 L 1941,1238 L 1939,1238 L 1877,1238 L 1876,1238 z " style="fill-opacity:1.000000;fill:rgb(229,202,11);stroke:rgb(0,0,0);stroke-width:2"/></g>
<g fill-rule="evenodd"><path d="M 2676,1238 L 2664,1237 L 2662,1237 L 2650,1233 L 2649,1232 L 2638,1226 L 2636,1225 L 2627,1217 L 2626,1216 L 2618,1206 L 2617,1205 L 2612,1194 L 2611,1192 L 2608,1180 L 2608,1178 L 2607,1166 L 2607,1164 L 2609,1152 L 2610,1150 L 2614,1138 L 2615,1137 L 2621,1126 L 2622,1125 L 2631,1116 L 2632,1115 L 2642,1108 L 2644,1107 L 2655,1102 L 2657,1102 L 2669,1099 L 2671,1099 L 2733,1099 L 2734,1099 L 2746,1100 L 2748,1100 L 2760,1104 L 2761,1105 L 2772,1111 L 2773,1112 L 2783,1120 L 2784,1121 L 2792,1131 L 2793,1132 L 2798,1144 L 2799,1145 L 2802,1157 L 2802,1159 L 2803,1171 L 2803,1173 L 2801,1185 L 2800,1187 L 2796,1199 L 2795,1200 L 2789,1211 L 2788,1212 L 2779,1221 L 2778,1222 L 2767,1229 L 2766,1230 L 2755,1235 L 2753,1235 L 2741,1238 L 2739,1238 L 2677,1238 L 2676,1238 z " style="fill-opacity:1.000000;fill:rgb(203,208,72);stroke:rgb(0,0,0);stroke-width:2"/></g>
<g fill-rule="evenodd"><path d="M 2676,1438 L 2664,1437 L 2662,1437 L 2650,1433 L 2649,1432 L 2638,1426 L 2636,1425 L 2627,1417 L 2626,1416 L 2618,1406 L 2617,1405 L 2612,1393 L 2611,1392 L 2608,1380 L 2608,1378 L 2607,1366 L 2607,1364 L 2609,1352 L 2610,1350 L 2614,1338 L 2615,1337 L 2621,1326 L 2622,1325 L 2631,1316 L 2632,1315 L 2642,1308 L 2644,1307 L 2655,1302 L 2657,1302 L 2669,1299 L 2671,1299 L 2733,1299 L 2734,1299 L 2746,1300 L 2748,1300 L 2760,1304 L 2761,1305 L 2772,1311 L 2773,1312 L 2783,1320 L 2784,1321 L 2792,1331 L 2793,1332 L 2798,1343 L 2799,1345 L 2802,1357 L 2802,1359 L 2803,1371 L 2803,1373 L 2801,1385 L 2800,1387 L 2796,1399 L 2795,1400 L 2789,1411 L 2788,1412 L 2779,1421 L 2778,1422 L 2767,1429 L 2766,1430 L 2755,1435 L 2753,1435 L 2741,1438 L 2739,1438 L 2677,1438 L 2676,1438 z " style="fill-opacity:1.000000;fill:rgb(71,100,189);stroke:rgb(0,0,0);stroke-width:2"/></g>
<g fill-rule="evenodd"><path d="M 18,0 L 7896,0 L 7897,0 L 7899,0 L 7901,0 L 7903,1 L 7905,2 L 7907,3 L 7908,4 L 7909,6 L 7911,7 L 7912,9 L 7913,10 L 7913,13 L 7914,14 L 7914,16 L 7914,17 L 7914,3797 L 7914,3798 L 7913,3800 L 7913,3802 L 7912,3804 L 7911,3806 L 7909,3809 L 7908,3810 L 7908,3810 L 7907,3811 L 7905,3812 L 7905,3812 L 7903,3813 L 7902,3813 L 7901,3814 L 7900,3814 L 7897,3814 L 7896,3814 L 18,3814 L 17,3814 L 15,3814 L 13,3814 L 11,3813 L 9,3812 L 7,3811 L 6,3810 L 4,3808 L 3,3807 L 2,3805 L 1,3803 L 1,3801 L 0,3800 L 0,3797 L 0,3797 L 0,17 L 0,16 L 0,14 L 1,13 L 1,10 L 2,9 L 3,7 L 4,6 L 6,4 L 7,3 L 9,2 L 11,1 L 13,0 L 15,0 L 17,0 L 18,0M 1734,1939 L 1720,1905 L 1694,1879 L 1661,1865 L 1624,1865 L 1590,1879 L 1564,1905 L 1550,1939 L 1550,1976 L 1564,2009 L 1590,2035 L 1624,2049 L 1660,2049 L 1694,2035 L 1720,2010 L 1734,1976 L 1734,1939M 934,1939 L 920,1905 L 895,1879 L 861,1865 L 824,1865 L 790,1879 L 764,1905 L 750,1939 L 750,1976 L 764,2009 L 790,2035 L 824,2049 L 861,2049 L 894,2035 L 920,2010 L 934,1976 L 934,1939M 550,1936 L 536,1902 L 510,1876 L 476,1862 L 440,1862 L 406,1876 L 380,1902 L 366,1935 L 366,1972 L 380,2006 L 406,2032 L 439,2046 L 476,2046 L 510,2032 L 536,2006 L 550,1972 L 550,1936M 1933,2304 L 1933,2327 L 1935,2329 L 2001,2329 L 2013,2324 L 2022,2315 L 2027,2303 L 2027,2264 L 2025,2262 L 2003,2262 L 2003,2296 L 2003,2298 L 2002,2300 L 2001,2301 L 2000,2303 L 1998,2304 L 1997,2304 L 1995,2304 L 1933,2304M 1972,1948 L 1934,1940 L 1876,1940 L 1838,1948 L 1808,1968 L 1788,1999 L 1781,2034 L 1788,2070 L 1808,2101 L 1818,2108 L 1819,2108 L 1821,2109 L 1822,2111 L 1823,2112 L 1824,2114 L 1825,2116 L 1825,2117 L 1826,2119 L 1826,2121 L 1826,2123 L 1826,2125 L 1826,2127 L 1825,2128 L 1824,2130 L 1824,2132 L 1822,2134 L 1821,2135 L 1820,2136 L 1818,2137 L 1816,2138 L 1815,2139 L 1813,2140 L 1811,2140 L 1809,2140 L 1797,2145 L 1788,2154 L 1783,2166 L 1783,2205 L 1785,2207 L 1807,2207 L 1807,2172 L 1807,2171 L 1808,2169 L 1809,2168 L 1810,2166 L 1812,2165 L 1813,2165 L 1815,2165 L 1995,2165 L 1997,2165 L 1998,2165 L 2000,2166 L 2001,2168 L 2002,2169 L 2003,2171 L 2003,2172 L 2003,2207 L 2025,2207 L 2027,2205 L 2027,2166 L 2022,2154 L 2013,2145 L 2001,2140 L 1999,2140 L 1997,2140 L 1995,2139 L 1994,2138 L 1992,2137 L 1991,2136 L 1989,2135 L 1988,2134 L 1987,2132 L 1986,2130 L 1985,2128 L 1985,2127 L 1984,2125 L 1984,2123 L 1984,2121 L 1984,2119 L 1985,2117 L 1985,2116 L 1986,2114 L 1987,2112 L 1988,2111 L 1990,2109 L 1991,2108 L 1992,2108 L 2002,2101 L 2022,2070 L 2030,2034 L 2022,1999 L 2002,1968 L 1972,1948M 389,3347 L 376,3350 L 365,3357 L 358,3368 L 355,3382 L 355,3499 L 357,3512 L 364,3523 L 375,3530 L 390,3533 L 506,3533 L 520,3531 L 531,3524 L 538,3513 L 541,3498 L 541,3382 L 538,3369 L 531,3357 L 521,3350 L 506,3347 L 389,3347M 466,3139 L 500,3125 L 526,3099 L 540,3065 L 540,3028 L 526,2995 L 500,2969 L 466,2955 L 430,2955 L 396,2969 L 370,2994 L 356,3028 L 356,3065 L 370,3099 L 396,3125 L 429,3139 L 466,3139M 366,2414 L 371,2426 L 380,2435 L 391,2440 L 428,2440 L 430,2437 L 430,2415 L 398,2415 L 396,2415 L 394,2414 L 393,2414 L 392,2412 L 391,2411 L 390,2409 L 390,2407 L 390,2375 L 368,2375 L 366,2377 L 366,2414M 550,2414 L 550,2377 L 548,2375 L 526,2375 L 526,2407 L 525,2409 L 525,2411 L 524,2412 L 523,2414 L 521,2414 L 520,2415 L 518,2415 L 486,2415 L 486,2437 L 488,2440 L 524,2440 L 536,2435 L 545,2426 L 550,2414M 466,2745 L 500,2731 L 526,2705 L 540,2671 L 540,2635 L 526,2601 L 500,2575 L 466,2561 L 430,2561 L 396,2575 L 370,2601 L 356,2635 L 356,2671 L 370,2705 L 396,2731 L 429,2745 L 466,2745M 488,2255 L 486,2257 L 486,2280 L 518,2280 L 520,2280 L 521,2280 L 523,2281 L 524,2283 L 525,2284 L 525,2286 L 526,2287 L 526,2320 L 548,2320 L 550,2317 L 550,2281 L 545,2269 L 536,2260 L 524,2255 L 488,2255M 430,2280 L 430,2257 L 428,2255 L 391,2255 L 380,2260 L 371,2269 L 366,2281 L 366,2318 L 368,2320 L 390,2320 L 390,2287 L 390,2286 L 391,2284 L 392,2283 L 393,2281 L 394,2280 L 396,2280 L 398,2280 L 430,2280M 1783,2264 L 1783,2303 L 1788,2315 L 1797,2324 L 1809,2329 L 1875,2329 L 1877,2327 L 1877,2304 L 1815,2304 L 1813,2304 L 1812,2304 L 1810,2303 L 1809,2301 L 1808,2300 L 1807,2298 L 1807,2296 L 1807,2262 L 1785,2262 L 1783,2264M 2802,2168 L 2774,2149 L 2773,2149 L 2771,2147 L 2770,2146 L 2769,2144 L 2768,2143 L 2767,2141 L 2767,2139 L 2766,2137 L 2766,2136 L 2766,2133 L 2766,2132 L 2767,2130 L 2767,2128 L 2768,2126 L 2769,2124 L 2770,2123 L 2771,2122 L 2773,2120 L 2774,2120 L 2802,2101 L 2822,2070 L 2829,2034 L 2822,1999 L 2802,1968 L 2772,1948 L 2734,1940 L 2676,1940 L 2638,1948 L 2608,1968 L 2588,1999 L 2580,2034 L 2588,2070 L 2608,2101 L 2636,2120 L 2637,2120 L 2638,2122 L 2640,2123 L 2641,2124 L 2642,2126 L 2643,2128 L 2643,2130 L 2644,2132 L 2644,2133 L 2644,2136 L 2644,2137 L 2643,2139 L 2643,2141 L 2642,2143 L 2641,2144 L 2640,2146 L 2638,2147 L 2637,2149 L 2636,2149 L 2608,2168 L 2588,2199 L 2580,2234 L 2588,2270 L 2608,2301 L 2638,2321 L 2676,2329 L 2734,2329 L 2772,2321 L 2802,2301 L 2822,2270 L 2829,2234 L 2822,2199 L 2802,2168M 3455,2285 L 3489,2299 L 3525,2299 L 3559,2285 L 3585,2259 L 3599,2225 L 3599,2189 L 3585,2155 L 3559,2129 L 3525,2115 L 3489,2115 L 3455,2129 L 3429,2155 L 3415,2188 L 3415,2225 L 3429,2259 L 3455,2285M 1933,1871 L 1933,1894 L 1935,1896 L 2001,1896 L 2013,1891 L 2022,1882 L 2027,1870 L 2027,1831 L 2025,1829 L 2003,1829 L 2003,1863 L 2003,1865 L 2002,1867 L 2001,1868 L 2000,1870 L 1998,1871 L 1997,1871 L 1995,1871 L 1933,1871M 1972,1515 L 1934,1507 L 1876,1507 L 1838,1515 L 1808,1535 L 1788,1566 L 1781,1602 L 1788,1637 L 1808,1668 L 1818,1675 L 1819,1675 L 1821,1676 L 1822,1678 L 1823,1679 L 1824,1681 L 1825,1683 L 1825,1684 L 1826,1686 L 1826,1688 L 1826,1690 L 1826,1692 L 1826,1694 L 1825,1695 L 1824,1697 L 1824,1699 L 1822,1701 L 1821,1702 L 1820,1703 L 1818,1704 L 1816,1705 L 1815,1706 L 1813,1707 L 1811,1707 L 1809,1707 L 1797,1712 L 1788,1721 L 1783,1733 L 1783,1772 L 1785,1774 L 1807,1774 L 1807,1739 L 1807,1738 L 1808,1736 L 1809,1735 L 1810,1733 L 1812,1732 L 1813,1732 L 1815,1732 L 1995,1732 L 1997,1732 L 1998,1732 L 2000,1733 L 2001,1735 L 2002,1736 L 2003,1738 L 2003,1739 L 2003,1774 L 2025,1774 L 2027,1772 L 2027,1733 L 2022,1721 L 2013,1712 L 2001,1707 L 1999,1707 L 1997,1707 L 1995,1706 L 1994,1705 L 1992,1704 L 1991,1703 L 1989,1702 L 1988,1701 L 1987,1699 L 1986,1697 L 1985,1695 L 1985,1694 L 1984,1692 L 1984,1690 L 1984,1688 L 1984,1686 L 1985,1684 L 1985,1683 L 1986,1681 L 1987,1679 L 1988,1678 L 1990,1676 L 1991,1675 L 1992,1675 L 2002,1668 L 2022,1637 L 2030,1602 L 2022,1566 L 2002,1535 L 1972,1515M 1933,1438 L 1933,1461 L 1935,1463 L 2001,1463 L 2013,1458 L 2022,1449 L 2027,1437 L 2027,1398 L 2025,1396 L 2003,1396 L 2003,1430 L 2003,1432 L 2002,1434 L 2001,1435 L 2000,1437 L 1998,1438 L 1997,1438 L 1995,1438 L 1933,1438M 1972,1082 L 1934,1074 L 1876,1074 L 1838,1082 L 1808,1102 L 1788,1133 L 1781,1169 L 1788,1204 L 1808,1235 L 1818,1242 L 1819,1242 L 1821,1244 L 1822,1245 L 1823,1246 L 1824,1248 L 1825,1250 L 1825,1251 L 1826,1253 L 1826,1255 L 1826,1257 L 1826,1259 L 1826,1261 L 1825,1262 L 1824,1264 L 1824,1266 L 1822,1268 L 1821,1269 L 1820,1270 L 1818,1271 L 1816,1272 L 1815,1273 L 1813,1274 L 1811,1274 L 1809,1274 L 1797,1279 L 1788,1288 L 1783,1300 L 1783,1339 L 1785,1341 L 1807,1341 L 1807,1306 L 1807,1305 L 1808,1303 L 1809,1302 L 1810,1300 L 1812,1299 L 1813,1299 L 1815,1299 L 1995,1299 L 1997,1299 L 1998,1299 L 2000,1300 L 2001,1302 L 2002,1303 L 2003,1305 L 2003,1306 L 2003,1341 L 2025,1341 L 2027,1339 L 2027,1300 L 2022,1288 L 2013,1279 L 2001,1274 L 1999,1274 L 1997,1274 L 1995,1273 L 1994,1272 L 1992,1271 L 1991,1270 L 1989,1269 L 1988,1268 L 1987,1266 L 1986,1264 L 1985,1262 L 1985,1261 L 1984,1259 L 1984,1257 L 1984,1255 L 1984,1253 L 1985,1251 L 1985,1250 L 1986,1248 L 1987,1246 L 1988,1245 L 1990,1244 L 1991,1242 L 1992,1242 L 2002,1235 L 2022,1204 L 2030,1169 L 2022,1133 L 2002,1102 L 1972,1082M 476,1652 L 510,1638 L 536,1612 L 550,1579 L 550,1542 L 536,1508 L 510,1482 L 476,1468 L 440,1468 L 406,1482 L 380,1508 L 366,1542 L 366,1578 L 380,1612 L 406,1638 L 439,1652 L 476,1652M 725,1511 L 711,1545 L 711,1582 L 725,1616 L 751,1642 L 785,1656 L 821,1656 L 855,1642 L 881,1616 L 895,1582 L 895,1545 L 881,1512 L 855,1486 L 821,1472 L 785,1472 L 751,1486 L 725,1511M 476,1259 L 510,1245 L 536,1219 L 550,1185 L 550,1148 L 536,1114 L 510,1089 L 476,1074 L 440,1074 L 406,1088 L 380,1114 L 366,1148 L 366,1185 L 380,1219 L 406,1245 L 439,1259 L 476,1259M 881,1222 L 895,1189 L 895,1152 L 881,1118 L 855,1092 L 821,1078 L 785,1078 L 751,1092 L 725,1118 L 711,1152 L 711,1188 L 725,1222 L 751,1248 L 785,1262 L 821,1262 L 855,1248 L 881,1222M 1783,1437 L 1788,1449 L 1797,1458 L 1809,1463 L 1875,1463 L 1877,1461 L 1877,1438 L 1815,1438 L 1813,1438 L 1812,1438 L 1810,1437 L 1809,1435 L 1808,1434 L 1807,1432 L 1807,1430 L 1807,1396 L 1785,1396 L 1783,1398 L 1783,1437M 1809,1896 L 1875,1896 L 1877,1894 L 1877,1871 L 1815,1871 L 1813,1871 L 1812,1871 L 1810,1870 L 1809,1868 L 1808,1867 L 1807,1865 L 1807,1863 L 1807,1829 L 1785,1829 L 1783,1831 L 1783,1870 L 1788,1882 L 1797,1891 L 1809,1896M 1695,1582 L 1695,1545 L 1681,1512 L 1655,1486 L 1621,1472 L 1585,1472 L 1551,1486 L 1525,1511 L 1511,1545 L 1511,1582 L 1525,1616 L 1551,1642 L 1584,1656 L 1621,1656 L 1655,1642 L 1681,1616 L 1695,1582M 1681,1222 L 1695,1188 L 1695,1152 L 1681,1118 L 1655,1092 L 1621,1078 L 1585,1078 L 1551,1092 L 1525,1118 L 1511,1152 L 1511,1188 L 1525,1222 L 1551,1248 L 1584,1262 L 1621,1262 L 1655,1248 L 1681,1222M 3611,955 L 3597,921 L 3571,895 L 3537,881 L 3501,881 L 3467,895 L 3441,921 L 3427,955 L 3427,992 L 3441,1025 L 3467,1051 L 3501,1065 L 3537,1065 L 3571,1051 L 3597,1026 L 3611,992 L 3611,955M 2802,1435 L 2822,1404 L 2829,1368 L 2822,1333 L 2802,1302 L 2774,1283 L 2773,1283 L 2771,1281 L 2770,1280 L 2769,1278 L 2768,1277 L 2767,1275 L 2767,1273 L 2766,1271 L 2766,1270 L 2766,1267 L 2766,1266 L 2767,1264 L 2767,1262 L 2768,1260 L 2769,1259 L 2770,1257 L 2771,1256 L 2773,1254 L 2774,1254 L 2802,1235 L 2822,1204 L 2829,1169 L 2822,1133 L 2802,1102 L 2772,1082 L 2734,1074 L 2676,1074 L 2638,1082 L 2608,1102 L 2588,1133 L 2580,1169 L 2588,1204 L 2608,1235 L 2636,1254 L 2637,1254 L 2638,1256 L 2640,1257 L 2641,1259 L 2642,1260 L 2643,1262 L 2643,1264 L 2644,1266 L 2644,1267 L 2644,1270 L 2644,1271 L 2643,1273 L 2643,1275 L 2642,1277 L 2641,1278 L 2640,1280 L 2638,1281 L 2637,1283 L 2636,1283 L 2608,1302 L 2588,1333 L 2580,1368 L 2588,1404 L 2608,1435 L 2638,1455 L 2676,1463 L 2734,1463 L 2772,1455 L 2802,1435M 2802,1668 L 2822,1637 L 2829,1602 L 2822,1566 L 2802,1535 L 2772,1515 L 2734,1507 L 2676,1507 L 2638,1515 L 2608,1535 L 2588,1566 L 2580,1602 L 2588,1637 L 2608,1668 L 2636,1687 L 2637,1687 L 2638,1689 L 2640,1690 L 2641,1691 L 2642,1693 L 2643,1695 L 2643,1697 L 2644,1699 L 2644,1700 L 2644,1703 L 2644,1704 L 2643,1706 L 2643,1708 L 2642,1710 L 2641,1711 L 2640,1713 L 2638,1714 L 2637,1716 L 2636,1716 L 2608,1735 L 2588,1766 L 2580,1801 L 2588,1837 L 2608,1868 L 2638,1888 L 2676,1896 L 2734,1896 L 2772,1888 L 2802,1868 L 2822,1837 L 2829,1801 L 2822,1766 L 2802,1735 L 2774,1716 L 2773,1716 L 2771,1714 L 2770,1713 L 2769,1711 L 2768,1710 L 2767,1708 L 2767,1706 L 2766,1704 L 2766,1703 L 2766,1700 L 2766,1699 L 2767,1697 L 2767,1695 L 2768,1693 L 2769,1691 L 2770,1690 L 2771,1689 L 2773,1687 L 2774,1687 L 2802,1668M 3455,1785 L 3489,1799 L 3525,1799 L 3559,1785 L 3585,1759 L 3599,1725 L 3599,1689 L 3585,1655 L 3559,1629 L 3525,1615 L 3489,1615 L 3455,1629 L 3429,1655 L 3415,1689 L 3415,1725 L 3429,1759 L 3455,1785M 4728,1937 L 4713,1900 L 4685,1872 L 4647,1856 L 4607,1856 L 4570,1872 L 4542,1900 L 4526,1937 L 4526,1977 L 4542,2014 L 4570,2043 L 4607,2058 L 4647,2058 L 4684,2043 L 4713,2015 L 4728,1977 L 4728,1937M 7834,1912 L 7848,1878 L 7848,1842 L 7834,1808 L 7808,1782 L 7775,1768 L 7738,1768 L 7704,1782 L 7678,1808 L 7664,1842 L 7664,1878 L 7678,1912 L 7704,1938 L 7738,1952 L 7774,1952 L 7808,1938 L 7834,1912M 4525,3347 L 4525,3481 L 4528,3494 L 4535,3505 L 4546,3513 L 4560,3516 L 4695,3516 L 4708,3513 L 4719,3506 L 4726,3495 L 4729,3481 L 4729,3346 L 4727,3333 L 4720,3322 L 4709,3315 L 4694,3312 L 4560,3312 L 4547,3314 L 4536,3321 L 4528,3332 L 4525,3347M 4684,3106 L 4713,3077 L 4728,3040 L 4728,3000 L 4713,2963 L 4685,2935 L 4647,2919 L 4607,2919 L 4570,2934 L 4542,2963 L 4526,3000 L 4526,3040 L 4542,3077 L 4570,3106 L 4607,3121 L 4647,3121 L 4684,3106M 4729,2418 L 4729,2284 L 4727,2270 L 4720,2259 L 4709,2252 L 4694,2249 L 4560,2249 L 4547,2251 L 4536,2259 L 4528,2269 L 4525,2284 L 4525,2418 L 4528,2432 L 4535,2443 L 4546,2450 L 4560,2453 L 4695,2453 L 4708,2450 L 4719,2443 L 4726,2433 L 4729,2418M 4728,2647 L 4728,2606 L 4713,2569 L 4685,2541 L 4647,2525 L 4607,2525 L 4570,2541 L 4542,2569 L 4526,2606 L 4526,2646 L 4542,2684 L 4570,2712 L 4607,2727 L 4647,2727 L 4684,2712 L 4713,2684 L 4728,2647M 4385,2155 L 4359,2129 L 4325,2115 L 4289,2115 L 4255,2129 L 4229,2155 L 4215,2188 L 4215,2225 L 4229,2259 L 4255,2285 L 4289,2299 L 4325,2299 L 4359,2285 L 4385,2259 L 4399,2225 L 4399,2189 L 4385,2155M 5670,2366 L 5789,2366 L 5803,2364 L 5814,2357 L 5821,2346 L 5824,2331 L 5824,2212 L 5821,2198 L 5814,2187 L 5804,2180 L 5789,2177 L 5670,2177 L 5656,2180 L 5645,2187 L 5638,2197 L 5635,2212 L 5635,2331 L 5637,2345 L 5644,2356 L 5655,2363 L 5670,2366M 7848,2892 L 7834,2858 L 7808,2832 L 7775,2818 L 7738,2818 L 7704,2832 L 7678,2858 L 7664,2891 L 7664,2928 L 7678,2962 L 7704,2988 L 7738,3002 L 7774,3002 L 7808,2988 L 7834,2962 L 7848,2928 L 7848,2892M 6887,3394 L 6887,3275 L 6884,3261 L 6877,3250 L 6866,3243 L 6852,3240 L 6732,3240 L 6719,3242 L 6708,3249 L 6701,3260 L 6698,3275 L 6698,3394 L 6700,3408 L 6707,3419 L 6718,3426 L 6732,3429 L 6852,3429 L 6865,3426 L 6876,3419 L 6884,3409 L 6887,3394M 7849,3362 L 7849,3245 L 7847,3232 L 7840,3221 L 7829,3213 L 7814,3210 L 7698,3210 L 7684,3213 L 7673,3220 L 7666,3231 L 7663,3245 L 7663,3362 L 7666,3375 L 7673,3386 L 7683,3394 L 7698,3397 L 7814,3397 L 7828,3394 L 7839,3387 L 7846,3376 L 7849,3362M 6886,2763 L 6886,2726 L 6872,2692 L 6845,2665 L 6811,2651 L 6774,2651 L 6739,2665 L 6713,2691 L 6699,2726 L 6699,2763 L 6713,2798 L 6739,2824 L 6773,2838 L 6811,2838 L 6845,2824 L 6871,2798 L 6886,2763M 7666,2181 L 7663,2196 L 7663,2312 L 7666,2325 L 7673,2337 L 7683,2344 L 7698,2347 L 7814,2347 L 7828,2344 L 7839,2337 L 7846,2326 L 7849,2312 L 7849,2195 L 7847,2182 L 7840,2171 L 7829,2164 L 7814,2161 L 7698,2161 L 7684,2163 L 7673,2170 L 7666,2181M 4542,952 L 4570,980 L 4607,996 L 4647,996 L 4684,980 L 4713,952 L 4728,915 L 4728,875 L 4713,837 L 4685,809 L 4647,794 L 4607,794 L 4570,809 L 4542,837 L 4526,874 L 4526,915 L 4542,952M 4411,955 L 4397,921 L 4371,895 L 4337,881 L 4300,881 L 4267,895 L 4241,921 L 4227,955 L 4227,992 L 4241,1025 L 4266,1051 L 4300,1065 L 4337,1065 L 4371,1051 L 4397,1026 L 4411,992 L 4411,955M 4399,1689 L 4385,1655 L 4359,1629 L 4325,1615 L 4289,1615 L 4255,1629 L 4229,1655 L 4215,1689 L 4215,1725 L 4229,1759 L 4255,1785 L 4289,1799 L 4325,1799 L 4359,1785 L 4385,1759 L 4399,1725 L 4399,1689M 4647,1665 L 4684,1649 L 4713,1621 L 4728,1584 L 4728,1544 L 4713,1507 L 4685,1478 L 4647,1463 L 4607,1463 L 4570,1478 L 4542,1506 L 4526,1544 L 4526,1584 L 4542,1621 L 4570,1649 L 4607,1665 L 4647,1665M 4720,1196 L 4709,1189 L 4694,1186 L 4560,1186 L 4547,1189 L 4536,1196 L 4528,1207 L 4525,1221 L 4525,1355 L 4528,1369 L 4535,1380 L 4546,1387 L 4560,1390 L 4695,1390 L 4708,1388 L 4719,1381 L 4726,1370 L 4729,1355 L 4729,1221 L 4727,1208 L 4720,1196M 5823,1700 L 5823,1663 L 5809,1629 L 5783,1602 L 5748,1588 L 5711,1588 L 5676,1602 L 5650,1629 L 5636,1663 L 5636,1700 L 5650,1735 L 5676,1761 L 5711,1775 L 5748,1775 L 5782,1761 L 5809,1735 L 5823,1700M 4728,481 L 4713,444 L 4685,415 L 4647,400 L 4607,400 L 4570,415 L 4542,444 L 4526,481 L 4526,521 L 4542,558 L 4570,587 L 4607,602 L 4647,602 L 4684,587 L 4713,558 L 4728,521 L 4728,481M 6614,1185 L 6734,1185 L 6747,1183 L 6758,1176 L 6766,1165 L 6769,1151 L 6769,1031 L 6766,1018 L 6759,1007 L 6748,999 L 6734,996 L 6614,996 L 6601,999 L 6590,1006 L 6582,1017 L 6580,1031 L 6580,1151 L 6582,1164 L 6589,1175 L 6600,1182 L 6614,1185M 7849,1262 L 7849,1146 L 7847,1132 L 7840,1121 L 7829,1114 L 7814,1111 L 7698,1111 L 7684,1113 L 7673,1120 L 7666,1131 L 7663,1146 L 7663,1262 L 7666,1276 L 7673,1287 L 7683,1294 L 7698,1297 L 7814,1297 L 7828,1295 L 7839,1287 L 7846,1277 L 7849,1262M 6768,482 L 6754,448 L 6727,422 L 6693,407 L 6656,407 L 6621,422 L 6595,448 L 6581,482 L 6580,519 L 6595,554 L 6621,580 L 6655,595 L 6693,595 L 6727,580 L 6753,554 L 6768,520 L 6768,482M 7775,718 L 7738,718 L 7704,732 L 7678,758 L 7664,792 L 7664,829 L 7678,862 L 7704,888 L 7738,902 L 7774,902 L 7808,888 L 7834,863 L 7848,829 L 7848,792 L 7834,758 L 7808,732 L 7775,718 z " style="fill-opacity:1.000000;fill:rgb(31,35,30);stroke:rgb(0,0,0);stroke-width:2"/></g>
</svg>
