<?xml version="1.0" standalone="no"?>
<!DOCTYPE svg PUBLIC "-//W3C//DTD SVG 1.1//EN"
"http://www.w3.org/Graphics/SVG/1.1/DTD/svg11.dtd">
<svg width="7915" height="3815" viewBox="0 0 7915 3815" version="1.1"
xmlns="http://www.w3.org/2000/svg"
xmlns:xlink="http://www.w3.org/1999/xlink">
<g fill-rule="evenodd"><path d="M 0,17 L 0,16 L 0,14 L 1,13 L 1,10 L 2,9 L 3,7 L 4,6 L 6,4 L 7,3 L 9,2 L 11,1 L 13,0 L 15,0 L 17,0 L 18,0 L 7896,0 L 7897,0 L 7899,0 L 7901,0 L 7903,1 L 7905,2 L 7907,3 L 7908,4 L 7910,6 L 7911,7 L 7912,9 L 7913,10 L 7913,13 L 7914,14 L 7914,16 L 7914,17 L 7914,3797 L 7914,3797 L 7914,3800 L 7913,3802 L 7912,3804 L 7911,3806 L 7910,3808 L 7909,3809 L 7907,3811 L 7906,3812 L 7903,3813 L 7901,3814 L 7897,3814 L 7896,3815 L 18,3815 L 17,3814 L 15,3814 L 13,3814 L 11,3813 L 9,3812 L 7,3811 L 6,3810 L 4,3808 L 3,3807 L 2,3805 L 1,3804 L 1,3801 L 0,3800 L 0,3798 L 0,3797 L 0,1824 L 0,17M 1634,1939 L 1620,1905 L 1594,1879 L 1561,1865 L 1524,1865 L 1490,1879 L 1464,1905 L 1450,1939 L 1450,1976 L 1464,2009 L 1490,2035 L 1524,2049 L 1560,2050 L 1594,2036 L 1620,2010 L 1634,1976 L 1634,1939M 834,1939 L 820,1905 L 795,1879 L 761,1865 L 724,1865 L 690,1879 L 664,1905 L 650,1939 L 650,1976 L 664,2009 L 690,2035 L 724,2049 L 761,2050 L 794,2036 L 820,2010 L 834,1976 L 834,1939M 450,1936 L 436,1902 L 410,1876 L 376,1862 L 339,1862 L 306,1876 L 280,1902 L 266,1935 L 266,1972 L 280,2006 L 305,2032 L 339,2046 L 376,2046 L 410,2032 L 436,2006 L 450,1972 L 450,1936M 255,3382 L 255,3499 L 257,3512 L 264,3523 L 275,3531 L 290,3533 L 406,3533 L 419,3531 L 431,3524 L 438,3513 L 441,3499 L 441,3382 L 438,3369 L 431,3358 L 420,3350 L 406,3347 L 289,3347 L 276,3350 L 265,3357 L 258,3368 L 255,3382M 270,3099 L 295,3125 L 329,3139 L 366,3139 L 400,3125 L 426,3099 L 440,3065 L 440,3029 L 426,2995 L 400,2969 L 366,2955 L 329,2955 L 296,2969 L 270,2995 L 256,3028 L 256,3065 L 270,3099M 266,2414 L 270,2426 L 280,2435 L 291,2440 L 328,2440 L 330,2438 L 330,2415 L 298,2415 L 296,2415 L 294,2415 L 293,2414 L 292,2412 L 291,2411 L 290,2409 L 290,2407 L 290,2375 L 268,2375 L 266,2377 L 266,2414M 450,2414 L 450,2377 L 448,2375 L 426,2375 L 426,2407 L 425,2409 L 425,2411 L 424,2412 L 423,2414 L 421,2415 L 419,2415 L 418,2415 L 386,2415 L 386,2438 L 388,2440 L 424,2440 L 436,2435 L 445,2426 L 450,2414M 440,2635 L 426,2601 L 400,2575 L 366,2561 L 329,2561 L 296,2575 L 270,2601 L 256,2635 L 256,2671 L 270,2705 L 295,2731 L 329,2745 L 366,2745 L 400,2731 L 426,2705 L 440,2672 L 440,2635M 330,2280 L 330,2257 L 328,2255 L 291,2255 L 280,2260 L 270,2269 L 266,2281 L 266,2318 L 268,2320 L 290,2320 L 290,2287 L 290,2286 L 291,2284 L 292,2283 L 293,2281 L 294,2280 L 296,2280 L 298,2280 L 330,2280M 445,2269 L 436,2260 L 424,2255 L 388,2255 L 386,2257 L 386,2280 L 418,2280 L 419,2280 L 421,2280 L 423,2281 L 424,2283 L 425,2284 L 425,2286 L 426,2287 L 426,2320 L 448,2320 L 450,2318 L 450,2281 L 445,2269M 1913,2145 L 1901,2140 L 1899,2140 L 1897,2140 L 1895,2139 L 1894,2138 L 1892,2137 L 1891,2136 L 1889,2135 L 1888,2134 L 1887,2132 L 1886,2130 L 1885,2128 L 1885,2127 L 1884,2125 L 1884,2123 L 1884,2121 L 1884,2119 L 1885,2117 L 1885,2116 L 1886,2114 L 1887,2112 L 1888,2111 L 1890,2110 L 1891,2108 L 1892,2108 L 1902,2101 L 1922,2070 L 1930,2035 L 1922,1999 L 1902,1968 L 1872,1948 L 1834,1940 L 1776,1940 L 1738,1948 L 1708,1968 L 1688,1999 L 1681,2035 L 1688,2070 L 1708,2101 L 1718,2108 L 1719,2108 L 1721,2110 L 1722,2111 L 1723,2112 L 1724,2114 L 1725,2116 L 1725,2117 L 1726,2119 L 1726,2121 L 1726,2123 L 1726,2125 L 1726,2127 L 1725,2128 L 1724,2130 L 1723,2132 L 1722,2134 L 1721,2135 L 1720,2136 L 1718,2137 L 1716,2138 L 1715,2139 L 1713,2140 L 1711,2140 L 1709,2140 L 1697,2145 L 1688,2154 L 1683,2166 L 1683,2205 L 1685,2207 L 1707,2207 L 1707,2173 L 1707,2171 L 1708,2169 L 1709,2168 L 1710,2166 L 1712,2165 L 1713,2165 L 1715,2165 L 1895,2165 L 1897,2165 L 1898,2165 L 1900,2166 L 1901,2168 L 1902,2169 L 1903,2171 L 1903,2173 L 1903,2207 L 1925,2207 L 1927,2205 L 1927,2166 L 1922,2154 L 1913,2145M 1709,2329 L 1775,2329 L 1777,2327 L 1777,2304 L 1715,2304 L 1713,2304 L 1712,2304 L 1710,2303 L 1709,2301 L 1708,2300 L 1707,2298 L 1707,2296 L 1707,2262 L 1685,2262 L 1683,2264 L 1683,2303 L 1688,2315 L 1697,2324 L 1709,2329M 1927,2264 L 1925,2262 L 1903,2262 L 1903,2296 L 1903,2298 L 1902,2300 L 1901,2301 L 1900,2303 L 1898,2304 L 1897,2304 L 1895,2304 L 1833,2304 L 1833,2327 L 1835,2329 L 1901,2329 L 1913,2324 L 1922,2315 L 1927,2303 L 1927,2264M 2480,2234 L 2488,2270 L 2508,2301 L 2538,2321 L 2576,2329 L 2634,2329 L 2672,2321 L 2702,2301 L 2722,2270 L 2729,2234 L 2722,2199 L 2702,2168 L 2674,2149 L 2673,2149 L 2671,2147 L 2670,2146 L 2669,2144 L 2668,2143 L 2667,2141 L 2667,2139 L 2666,2137 L 2666,2136 L 2666,2133 L 2666,2132 L 2667,2130 L 2667,2128 L 2668,2126 L 2669,2125 L 2670,2123 L 2671,2122 L 2673,2120 L 2674,2120 L 2702,2101 L 2722,2070 L 2729,2035 L 2722,1999 L 2702,1968 L 2672,1948 L 2634,1940 L 2576,1940 L 2538,1948 L 2508,1968 L 2488,1999 L 2480,2035 L 2488,2070 L 2508,2101 L 2536,2120 L 2537,2120 L 2538,2122 L 2540,2123 L 2541,2125 L 2542,2126 L 2543,2128 L 2543,2130 L 2544,2132 L 2544,2133 L 2544,2136 L 2544,2137 L 2543,2139 L 2543,2141 L 2542,2143 L 2541,2144 L 2540,2146 L 2538,2147 L 2537,2149 L 2536,2149 L 2508,2168 L 2488,2199 L 2480,2234M 3459,2285 L 3485,2259 L 3499,2225 L 3499,2189 L 3485,2155 L 3459,2129 L 3426,2115 L 3389,2115 L 3355,2129 L 3329,2155 L 3315,2189 L 3315,2225 L 3329,2259 L 3355,2285 L 3389,2299 L 3425,2299 L 3459,2285M 450,1579 L 450,1542 L 436,1508 L 410,1482 L 376,1468 L 339,1468 L 306,1482 L 280,1508 L 266,1542 L 266,1578 L 280,1612 L 305,1638 L 339,1652 L 376,1652 L 410,1638 L 436,1612 L 450,1579M 721,1656 L 755,1642 L 781,1616 L 795,1582 L 795,1546 L 781,1512 L 755,1486 L 721,1472 L 685,1472 L 651,1486 L 625,1512 L 611,1545 L 611,1582 L 625,1616 L 651,1642 L 685,1656 L 721,1656M 280,1219 L 305,1245 L 339,1259 L 376,1259 L 410,1245 L 436,1219 L 450,1185 L 450,1185 L 450,1185 L 450,1148 L 436,1114 L 410,1089 L 376,1074 L 339,1074 L 306,1088 L 280,1114 L 266,1148 L 266,1185 L 280,1219M 781,1222 L 795,1189 L 795,1152 L 781,1118 L 755,1092 L 721,1078 L 685,1078 L 651,1092 L 625,1118 L 611,1152 L 611,1188 L 625,1222 L 651,1248 L 685,1262 L 721,1262 L 755,1248 L 781,1222M 1683,1437 L 1688,1449 L 1697,1458 L 1709,1463 L 1775,1463 L 1777,1461 L 1777,1438 L 1715,1438 L 1713,1438 L 1712,1438 L 1710,1437 L 1709,1435 L 1708,1434 L 1707,1432 L 1707,1431 L 1707,1396 L 1685,1396 L 1683,1398 L 1683,1437M 1927,1437 L 1927,1398 L 1925,1396 L 1903,1396 L 1903,1431 L 1903,1432 L 1902,1434 L 1901,1435 L 1900,1437 L 1898,1438 L 1897,1438 L 1895,1438 L 1833,1438 L 1833,1461 L 1835,1463 L 1901,1463 L 1913,1458 L 1922,1449 L 1927,1437M 1484,1656 L 1521,1656 L 1555,1642 L 1581,1616 L 1595,1582 L 1595,1546 L 1581,1512 L 1555,1486 L 1521,1472 L 1485,1472 L 1451,1486 L 1425,1512 L 1411,1545 L 1411,1582 L 1425,1616 L 1451,1642 L 1484,1656M 1902,1668 L 1922,1637 L 1930,1602 L 1922,1566 L 1902,1535 L 1872,1515 L 1834,1507 L 1776,1507 L 1738,1515 L 1708,1535 L 1688,1566 L 1681,1602 L 1688,1637 L 1708,1668 L 1718,1675 L 1719,1675 L 1721,1677 L 1722,1678 L 1723,1679 L 1724,1681 L 1725,1683 L 1725,1684 L 1726,1686 L 1726,1688 L 1726,1690 L 1726,1692 L 1726,1694 L 1725,1695 L 1724,1697 L 1723,1699 L 1722,1701 L 1721,1702 L 1720,1703 L 1718,1704 L 1716,1705 L 1715,1706 L 1713,1707 L 1711,1707 L 1709,1707 L 1697,1712 L 1688,1721 L 1683,1733 L 1683,1772 L 1685,1774 L 1707,1774 L 1707,1740 L 1707,1738 L 1708,1736 L 1709,1735 L 1710,1733 L 1712,1732 L 1713,1732 L 1715,1732 L 1895,1732 L 1897,1732 L 1898,1732 L 1900,1733 L 1901,1735 L 1902,1736 L 1903,1738 L 1903,1740 L 1903,1774 L 1925,1774 L 1927,1772 L 1927,1733 L 1922,1721 L 1913,1712 L 1901,1707 L 1899,1707 L 1897,1707 L 1895,1706 L 1894,1705 L 1892,1704 L 1891,1703 L 1889,1702 L 1888,1701 L 1887,1699 L 1886,1697 L 1885,1695 L 1885,1694 L 1884,1692 L 1884,1690 L 1884,1688 L 1884,1686 L 1885,1684 L 1885,1683 L 1886,1681 L 1887,1679 L 1888,1678 L 1890,1677 L 1891,1675 L 1892,1675 L 1902,1668M 1709,1896 L 1775,1896 L 1777,1894 L 1777,1871 L 1715,1871 L 1713,1871 L 1712,1871 L 1710,1870 L 1709,1868 L 1708,1867 L 1707,1865 L 1707,1863 L 1707,1829 L 1685,1829 L 1683,1831 L 1683,1870 L 1688,1882 L 1697,1891 L 1709,1896M 1833,1871 L 1833,1894 L 1835,1896 L 1901,1896 L 1913,1891 L 1922,1882 L 1927,1870 L 1927,1831 L 1925,1829 L 1903,1829 L 1903,1863 L 1903,1865 L 1902,1867 L 1901,1868 L 1900,1870 L 1898,1871 L 1897,1871 L 1895,1871 L 1833,1871M 1484,1262 L 1521,1262 L 1555,1248 L 1581,1222 L 1595,1189 L 1595,1152 L 1581,1118 L 1555,1092 L 1521,1078 L 1485,1078 L 1451,1092 L 1425,1118 L 1411,1152 L 1411,1188 L 1425,1222 L 1451,1248 L 1484,1262M 1922,1204 L 1930,1169 L 1922,1133 L 1902,1102 L 1872,1082 L 1834,1074 L 1776,1074 L 1738,1082 L 1708,1102 L 1688,1133 L 1681,1169 L 1688,1204 L 1708,1235 L 1718,1242 L 1719,1242 L 1721,1244 L 1722,1245 L 1723,1246 L 1724,1248 L 1725,1250 L 1725,1251 L 1726,1253 L 1726,1255 L 1726,1257 L 1726,1259 L 1726,1261 L 1725,1263 L 1724,1264 L 1723,1266 L 1722,1268 L 1721,1269 L 1720,1270 L 1718,1271 L 1716,1272 L 1715,1273 L 1713,1274 L 1711,1274 L 1709,1274 L 1697,1279 L 1688,1288 L 1683,1300 L 1683,1339 L 1685,1341 L 1707,1341 L 1707,1307 L 1707,1305 L 1708,1303 L 1709,1302 L 1710,1300 L 1712,1299 L 1713,1299 L 1715,1299 L 1895,1299 L 1897,1299 L 1898,1299 L 1900,1300 L 1901,1302 L 1902,1303 L 1903,1305 L 1903,1307 L 1903,1341 L 1925,1341 L 1927,1339 L 1927,1300 L 1922,1288 L 1913,1279 L 1901,1274 L 1899,1274 L 1897,1274 L 1895,1273 L 1894,1272 L 1892,1271 L 1891,1270 L 1889,1269 L 1888,1268 L 1887,1266 L 1886,1264 L 1885,1263 L 1885,1261 L 1884,1259 L 1884,1257 L 1884,1255 L 1884,1253 L 1885,1251 L 1885,1250 L 1886,1248 L 1887,1246 L 1888,1245 L 1890,1244 L 1891,1242 L 1892,1242 L 1902,1235 L 1922,1204M 3511,955 L 3497,921 L 3471,895 L 3437,881 L 3401,881 L 3367,895 L 3341,921 L 3327,955 L 3327,992 L 3341,1025 L 3367,1051 L 3401,1065 L 3437,1065 L 3471,1051 L 3497,1026 L 3511,992 L 3511,955M 2702,1435 L 2722,1404 L 2729,1369 L 2722,1333 L 2702,1302 L 2674,1283 L 2673,1283 L 2671,1281 L 2670,1280 L 2669,1279 L 2668,1277 L 2667,1275 L 2667,1273 L 2666,1271 L 2666,1270 L 2666,1267 L 2666,1266 L 2667,1264 L 2667,1262 L 2668,1260 L 2669,1259 L 2670,1257 L 2671,1256 L 2673,1254 L 2674,1254 L 2702,1235 L 2722,1204 L 2729,1169 L 2722,1133 L 2702,1102 L 2672,1082 L 2634,1074 L 2576,1074 L 2538,1082 L 2508,1102 L 2488,1133 L 2480,1169 L 2488,1204 L 2508,1235 L 2536,1254 L 2537,1254 L 2538,1256 L 2540,1257 L 2541,1259 L 2542,1260 L 2543,1262 L 2543,1264 L 2544,1266 L 2544,1267 L 2544,1270 L 2544,1271 L 2543,1273 L 2543,1275 L 2542,1277 L 2541,1279 L 2540,1280 L 2538,1281 L 2537,1283 L 2536,1283 L 2508,1302 L 2488,1333 L 2480,1369 L 2488,1404 L 2508,1435 L 2538,1455 L 2576,1463 L 2634,1463 L 2672,1455 L 2702,1435M 2480,1602 L 2488,1637 L 2508,1668 L 2536,1687 L 2537,1687 L 2538,1689 L 2540,1690 L 2541,1692 L 2542,1693 L 2543,1695 L 2543,1697 L 2544,1699 L 2544,1700 L 2544,1703 L 2544,1704 L 2543,1706 L 2543,1708 L 2542,1710 L 2541,1712 L 2540,1713 L 2538,1714 L 2537,1716 L 2536,1716 L 2508,1735 L 2488,1766 L 2480,1802 L 2488,1837 L 2508,1868 L 2538,1888 L 2576,1896 L 2634,1896 L 2672,1888 L 2702,1868 L 2722,1837 L 2729,1802 L 2722,1766 L 2702,1735 L 2674,1716 L 2673,1716 L 2671,1714 L 2670,1713 L 2669,1712 L 2668,1710 L 2667,1708 L 2667,1706 L 2666,1704 L 2666,1703 L 2666,1700 L 2666,1699 L 2667,1697 L 2667,1695 L 2668,1693 L 2669,1692 L 2670,1690 L 2671,1689 L 2673,1687 L 2674,1687 L 2702,1668 L 2722,1637 L 2729,1602 L 2722,1566 L 2702,1535 L 2672,1515 L 2634,1507 L 2576,1507 L 2538,1515 L 2508,1535 L 2488,1566 L 2480,1602M 3459,1785 L 3485,1759 L 3499,1725 L 3499,1689 L 3485,1655 L 3459,1629 L 3426,1615 L 3389,1615 L 3355,1629 L 3329,1655 L 3315,1689 L 3315,1725 L 3329,1759 L 3355,1785 L 3389,1799 L 3425,1799 L 3459,1785M 4628,1937 L 4613,1900 L 4585,1872 L 4548,1856 L 4507,1856 L 4470,1872 L 4442,1900 L 4426,1937 L 4426,1977 L 4442,2015 L 4470,2043 L 4507,2058 L 4547,2058 L 4584,2043 L 4613,2015 L 4628,1978 L 4628,1937M 7734,1912 L 7748,1879 L 7748,1842 L 7734,1808 L 7709,1782 L 7675,1768 L 7638,1768 L 7604,1782 L 7578,1808 L 7564,1842 L 7564,1878 L 7578,1912 L 7604,1938 L 7638,1952 L 7675,1952 L 7708,1938 L 7734,1912M 4425,3347 L 4425,3481 L 4428,3494 L 4435,3505 L 4446,3513 L 4460,3516 L 4595,3516 L 4608,3513 L 4619,3506 L 4626,3495 L 4629,3481 L 4629,3347 L 4627,3333 L 4620,3322 L 4609,3315 L 4594,3312 L 4460,3312 L 4447,3314 L 4436,3321 L 4428,3332 L 4425,3347M 4442,3077 L 4470,3106 L 4507,3121 L 4547,3121 L 4584,3106 L 4613,3077 L 4628,3040 L 4628,3000 L 4613,2963 L 4585,2935 L 4548,2919 L 4507,2919 L 4470,2934 L 4442,2963 L 4426,3000 L 4426,3040 L 4442,3077M 4629,2418 L 4629,2284 L 4627,2270 L 4620,2259 L 4609,2252 L 4594,2249 L 4460,2249 L 4447,2252 L 4436,2259 L 4428,2269 L 4425,2284 L 4425,2418 L 4428,2432 L 4435,2443 L 4446,2450 L 4460,2453 L 4595,2453 L 4608,2450 L 4619,2443 L 4626,2433 L 4629,2418M 4442,2684 L 4470,2712 L 4507,2728 L 4547,2728 L 4584,2712 L 4613,2684 L 4628,2647 L 4628,2607 L 4613,2569 L 4585,2541 L 4548,2526 L 4507,2526 L 4470,2541 L 4442,2569 L 4426,2606 L 4426,2647 L 4442,2684M 4285,2155 L 4259,2129 L 4225,2115 L 4189,2115 L 4155,2129 L 4129,2155 L 4115,2189 L 4115,2225 L 4129,2259 L 4155,2285 L 4189,2299 L 4225,2299 L 4259,2285 L 4285,2259 L 4299,2225 L 4299,2189 L 4285,2155M 5570,2366 L 5689,2366 L 5703,2364 L 5714,2357 L 5721,2346 L 5724,2331 L 5724,2212 L 5722,2198 L 5714,2187 L 5704,2180 L 5689,2177 L 5570,2177 L 5556,2180 L 5545,2187 L 5538,2198 L 5535,2212 L 5535,2332 L 5537,2345 L 5545,2356 L 5555,2363 L 5570,2366M 7748,2892 L 7734,2858 L 7709,2832 L 7675,2818 L 7638,2818 L 7604,2832 L 7578,2858 L 7564,2892 L 7564,2928 L 7578,2962 L 7604,2988 L 7638,3002 L 7675,3002 L 7708,2988 L 7734,2962 L 7748,2928 L 7748,2892M 6787,3394 L 6787,3275 L 6784,3261 L 6777,3250 L 6767,3243 L 6752,3240 L 6632,3240 L 6619,3242 L 6608,3250 L 6601,3260 L 6598,3275 L 6598,3394 L 6600,3408 L 6607,3419 L 6618,3426 L 6633,3429 L 6752,3429 L 6766,3427 L 6777,3419 L 6784,3409 L 6787,3394M 7749,3362 L 7749,3245 L 7747,3232 L 7740,3221 L 7729,3213 L 7714,3210 L 7598,3210 L 7584,3213 L 7573,3220 L 7566,3231 L 7563,3245 L 7563,3362 L 7566,3375 L 7573,3386 L 7584,3394 L 7598,3397 L 7715,3397 L 7728,3394 L 7739,3387 L 7746,3376 L 7749,3362M 6674,2838 L 6711,2838 L 6745,2824 L 6772,2798 L 6786,2763 L 6786,2726 L 6772,2692 L 6745,2665 L 6711,2651 L 6674,2651 L 6639,2665 L 6613,2692 L 6599,2726 L 6599,2763 L 6613,2798 L 6639,2824 L 6674,2838M 7598,2161 L 7584,2163 L 7573,2170 L 7566,2181 L 7563,2196 L 7563,2312 L 7566,2326 L 7573,2337 L 7584,2344 L 7598,2347 L 7715,2347 L 7728,2344 L 7739,2337 L 7746,2327 L 7749,2312 L 7749,2195 L 7747,2182 L 7740,2171 L 7729,2164 L 7714,2161 L 7598,2161M 4442,952 L 4470,980 L 4507,996 L 4547,996 L 4584,980 L 4613,952 L 4628,915 L 4628,875 L 4613,837 L 4585,809 L 4548,794 L 4507,794 L 4470,809 L 4442,837 L 4426,874 L 4426,915 L 4442,952M 4311,955 L 4297,921 L 4271,895 L 4237,881 L 4201,881 L 4167,895 L 4141,921 L 4127,955 L 4127,992 L 4141,1025 L 4167,1051 L 4200,1065 L 4237,1065 L 4271,1051 L 4297,1026 L 4311,992 L 4311,955M 4442,1621 L 4470,1649 L 4507,1665 L 4547,1665 L 4584,1649 L 4613,1621 L 4628,1584 L 4628,1544 L 4613,1507 L 4585,1478 L 4548,1463 L 4507,1463 L 4470,1478 L 4442,1506 L 4426,1544 L 4426,1584 L 4442,1621M 4299,1689 L 4285,1655 L 4259,1629 L 4225,1615 L 4189,1615 L 4155,1629 L 4129,1655 L 4115,1689 L 4115,1725 L 4129,1759 L 4155,1785 L 4189,1799 L 4225,1799 L 4259,1785 L 4285,1759 L 4299,1725 L 4299,1689M 4446,1387 L 4460,1390 L 4595,1390 L 4608,1388 L 4619,1381 L 4626,1370 L 4629,1355 L 4629,1221 L 4627,1208 L 4620,1197 L 4609,1189 L 4594,1186 L 4460,1186 L 4447,1189 L 4436,1196 L 4428,1207 L 4425,1221 L 4425,1355 L 4428,1369 L 4435,1380 L 4446,1387M 5723,1701 L 5723,1663 L 5709,1629 L 5683,1603 L 5648,1588 L 5611,1588 L 5577,1602 L 5550,1629 L 5536,1663 L 5536,1700 L 5550,1735 L 5576,1761 L 5611,1775 L 5648,1775 L 5682,1761 L 5709,1735 L 5723,1701M 4628,481 L 4613,444 L 4585,415 L 4548,400 L 4507,400 L 4470,415 L 4442,444 L 4426,481 L 4426,521 L 4442,558 L 4470,587 L 4507,602 L 4547,602 L 4584,587 L 4613,558 L 4628,521 L 4628,481M 6515,1185 L 6634,1185 L 6647,1183 L 6659,1176 L 6666,1165 L 6669,1151 L 6669,1031 L 6666,1018 L 6659,1007 L 6648,999 L 6634,996 L 6514,996 L 6501,999 L 6490,1006 L 6483,1017 L 6480,1031 L 6480,1151 L 6482,1164 L 6489,1175 L 6500,1183 L 6515,1185M 7749,1262 L 7749,1146 L 7747,1132 L 7740,1121 L 7729,1114 L 7714,1111 L 7598,1111 L 7584,1113 L 7573,1121 L 7566,1131 L 7563,1146 L 7563,1262 L 7566,1276 L 7573,1287 L 7584,1294 L 7598,1297 L 7715,1297 L 7728,1295 L 7739,1287 L 7746,1277 L 7749,1262M 6668,482 L 6654,448 L 6627,422 L 6593,407 L 6556,407 L 6521,422 L 6495,448 L 6481,482 L 6481,520 L 6495,554 L 6521,580 L 6556,595 L 6593,595 L 6627,580 L 6654,554 L 6668,520 L 6668,482M 7675,718 L 7638,718 L 7604,732 L 7578,758 L 7564,792 L 7564,829 L 7578,862 L 7604,888 L 7638,902 L 7675,902 L 7708,888 L 7734,863 L 7748,829 L 7748,792 L 7734,758 L 7709,732 L 7675,718 z " style="fill-opacity:1.000000;fill:rgb(103,198,105);stroke:rgb(0,0,0);stroke-width:2"/></g>
<g fill-rule="evenodd"><path d="M 1571,1171 L 1569,1183 L 1569,1185 L 1565,1197 L 1564,1198 L 1558,1209 L 1557,1211 L 1549,1220 L 1548,1221 L 1537,1228 L 1536,1229 L 1524,1234 L 1523,1235 L 1511,1237 L 1509,1238 L 1496,1238 L 1495,1237 L 1483,1235 L 1481,1234 L 1470,1229 L 1468,1228 L 1458,1221 L 1457,1220 L 1448,1211 L 1447,1209 L 1441,1198 L 1440,1197 L 1437,1185 L 1436,1183 L 1435,1171 L 1435,1169 L 1436,1157 L 1437,1155 L 1440,1143 L 1441,1142 L 1447,1131 L 1448,1130 L 1457,1120 L 1458,1119 L 1468,1112 L 1470,1111 L 1481,1106 L 1483,1105 L 1495,1103 L 1496,1103 L 1509,1103 L 1511,1103 L 1523,1105 L 1524,1106 L 1536,1111 L 1537,1112 L 1548,1119 L 1549,1120 L 1557,1130 L 1558,1131 L 1564,1142 L 1565,1143 L 1569,1155 L 1569,1157 L 1571,1169 L 1571,1171 z " style="fill-opacity:1.000000;fill:rgb(115,81,255);stroke:rgb(0,0,0);stroke-width:2"/></g>
<g fill-rule="evenodd"><path d="M 771,1171 L 769,1183 L 769,1185 L 765,1197 L 765,1198 L 758,1209 L 757,1211 L 749,1220 L 748,1221 L 738,1228 L 736,1229 L 725,1234 L 723,1235 L 711,1237 L 709,1238 L 697,1238 L 695,1237 L 683,1235 L 681,1234 L 670,1229 L 668,1228 L 658,1221 L 657,1220 L 649,1211 L 648,1209 L 641,1198 L 641,1197 L 637,1185 L 636,1183 L 635,1171 L 635,1169 L 636,1157 L 637,1155 L 641,1143 L 641,1142 L 648,1131 L 649,1130 L 657,1120 L 658,1119 L 668,1112 L 670,1111 L 681,1106 L 683,1105 L 695,1103 L 697,1103 L 709,1103 L 711,1103 L 723,1105 L 725,1106 L 736,1111 L 738,1112 L 748,1119 L 749,1120 L 757,1130 L 758,1131 L 765,1142 L 765,1143 L 769,1155 L 769,1157 L 771,1169 L 771,1171 z " style="fill-opacity:1.000000;fill:rgb(74,236,41);stroke:rgb(0,0,0);stroke-width:2"/></g>
<g fill-rule="evenodd"><path d="M 1571,1565 L 1569,1577 L 1569,1579 L 1565,1591 L 1564,1592 L 1558,1603 L 1557,1604 L 1549,1614 L 1548,1615 L 1537,1622 L 1536,1623 L 1524,1628 L 1523,1629 L 1511,1631 L 1509,1631 L 1496,1631 L 1495,1631 L 1483,1629 L 1481,1628 L 1470,1623 L 1468,1622 L 1458,1615 L 1457,1614 L 1448,1604 L 1447,1603 L 1441,1592 L 1440,1591 L 1437,1579 L 1436,1577 L 1435,1565 L 1435,1563 L 1436,1550 L 1437,1549 L 1440,1537 L 1441,1535 L 1447,1525 L 1448,1523 L 1457,1514 L 1458,1513 L 1468,1505 L 1470,1505 L 1481,1500 L 1483,1499 L 1495,1496 L 1496,1496 L 1509,1496 L 1511,1496 L 1523,1499 L 1524,1500 L 1536,1505 L 1537,1505 L 1548,1513 L 1549,1514 L 1557,1523 L 1558,1525 L 1564,1535 L 1565,1537 L 1569,1549 L 1569,1550 L 1571,1563 L 1571,1565 z " style="fill-opacity:1.000000;fill:rgb(205,186,171);stroke:rgb(0,0,0);stroke-width:2"/></g>
<g fill-rule="evenodd"><path d="M 771,1565 L 769,1577 L 769,1579 L 765,1591 L 765,1592 L 758,1603 L 757,1604 L 749,1614 L 748,1615 L 738,1622 L 736,1623 L 725,1628 L 723,1629 L 711,1631 L 709,1631 L 697,1631 L 695,1631 L 683,1629 L 681,1628 L 670,1623 L 668,1622 L 658,1615 L 657,1614 L 649,1604 L 648,1603 L 641,1592 L 641,1591 L 637,1579 L 636,1577 L 635,1565 L 635,1563 L 636,1550 L 637,1549 L 641,1537 L 641,1535 L 648,1525 L 649,1523 L 657,1514 L 658,1513 L 668,1505 L 670,1505 L 681,1500 L 683,1499 L 695,1496 L 697,1496 L 709,1496 L 711,1496 L 723,1499 L 725,1500 L 736,1505 L 738,1505 L 748,1513 L 749,1514 L 757,1523 L 758,1525 L 765,1535 L 765,1537 L 769,1549 L 769,1550 L 771,1563 L 771,1565 z " style="fill-opacity:1.000000;fill:rgb(242,251,227);stroke:rgb(0,0,0);stroke-width:2"/></g>
<g fill-rule="evenodd"><path d="M 1610,1958 L 1609,1971 L 1608,1972 L 1604,1984 L 1604,1986 L 1597,1997 L 1596,1998 L 1588,2007 L 1587,2008 L 1577,2016 L 1575,2017 L 1564,2022 L 1562,2022 L 1550,2025 L 1548,2025 L 1536,2025 L 1534,2025 L 1522,2022 L 1520,2022 L 1509,2017 L 1507,2016 L 1497,2008 L 1496,2007 L 1488,1998 L 1487,1997 L 1480,1986 L 1480,1984 L 1476,1972 L 1476,1971 L 1474,1958 L 1474,1957 L 1476,1944 L 1476,1942 L 1480,1931 L 1480,1929 L 1487,1918 L 1488,1917 L 1496,1908 L 1497,1906 L 1507,1899 L 1509,1898 L 1520,1893 L 1522,1893 L 1534,1890 L 1536,1890 L 1548,1890 L 1550,1890 L 1562,1893 L 1564,1893 L 1575,1898 L 1577,1899 L 1587,1906 L 1588,1908 L 1596,1917 L 1597,1918 L 1604,1929 L 1604,1931 L 1608,1942 L 1609,1944 L 1610,1957 L 1610,1958 z " style="fill-opacity:1.000000;fill:rgb(70,124,194);stroke:rgb(0,0,0);stroke-width:2"/></g>
<g fill-rule="evenodd"><path d="M 810,1958 L 809,1971 L 808,1972 L 805,1984 L 804,1986 L 798,1997 L 797,1998 L 788,2007 L 787,2008 L 777,2016 L 775,2017 L 764,2022 L 762,2022 L 750,2025 L 749,2025 L 736,2025 L 734,2025 L 722,2022 L 721,2022 L 709,2017 L 708,2016 L 698,2008 L 696,2007 L 688,1998 L 687,1997 L 681,1986 L 680,1984 L 676,1972 L 676,1971 L 674,1958 L 674,1957 L 676,1944 L 676,1942 L 680,1931 L 681,1929 L 687,1918 L 688,1917 L 696,1908 L 698,1906 L 708,1899 L 709,1898 L 721,1893 L 722,1893 L 734,1890 L 736,1890 L 749,1890 L 750,1890 L 762,1893 L 764,1893 L 775,1898 L 777,1899 L 787,1906 L 788,1908 L 797,1917 L 798,1918 L 804,1929 L 805,1931 L 808,1942 L 809,1944 L 810,1957 L 810,1958 z " style="fill-opacity:1.000000;fill:rgb(84,248,27);stroke:rgb(0,0,0);stroke-width:2"/></g>
<g fill-rule="evenodd"><path d="M 3487,974 L 3485,987 L 3485,988 L 3481,1000 L 3481,1002 L 3474,1013 L 3473,1014 L 3465,1023 L 3464,1024 L 3454,1032 L 3452,1032 L 3441,1038 L 3439,1038 L 3427,1041 L 3425,1041 L 3413,1041 L 3411,1041 L 3399,1038 L 3397,1038 L 3386,1032 L 3384,1032 L 3374,1024 L 3373,1023 L 3365,1014 L 3364,1013 L 3357,1002 L 3357,1000 L 3353,988 L 3352,987 L 3351,974 L 3351,972 L 3352,960 L 3353,958 L 3357,946 L 3357,945 L 3364,934 L 3365,933 L 3373,923 L 3374,922 L 3384,915 L 3386,914 L 3397,909 L 3399,909 L 3411,906 L 3413,906 L 3425,906 L 3427,906 L 3439,909 L 3441,909 L 3452,914 L 3454,915 L 3464,922 L 3465,923 L 3473,933 L 3474,934 L 3481,945 L 3481,946 L 3485,958 L 3485,960 L 3487,972 L 3487,974 z " style="fill-opacity:1.000000;fill:rgb(232,231,141);stroke:rgb(0,0,0);stroke-width:2"/></g>
<g fill-rule="evenodd"><path d="M 4287,974 L 4285,987 L 4285,988 L 4281,1000 L 4280,1002 L 4274,1013 L 4273,1014 L 4265,1023 L 4264,1024 L 4253,1032 L 4252,1032 L 4240,1038 L 4239,1038 L 4227,1041 L 4225,1041 L 4212,1041 L 4211,1041 L 4199,1038 L 4197,1038 L 4186,1032 L 4184,1032 L 4174,1024 L 4173,1023 L 4164,1014 L 4163,1013 L 4157,1002 L 4156,1000 L 4153,988 L 4152,987 L 4151,974 L 4151,972 L 4152,960 L 4153,958 L 4156,946 L 4157,945 L 4163,934 L 4164,933 L 4173,923 L 4174,922 L 4184,915 L 4186,914 L 4197,909 L 4199,909 L 4211,906 L 4212,906 L 4225,906 L 4227,906 L 4239,909 L 4240,909 L 4252,914 L 4253,915 L 4264,922 L 4265,923 L 4273,933 L 4274,934 L 4280,945 L 4281,946 L 4285,958 L 4285,960 L 4287,972 L 4287,974 z " style="fill-opacity:1.000000;fill:rgb(118,90,46);stroke:rgb(0,0,0);stroke-width:2"/></g>
<g fill-rule="evenodd"><path d="M 3475,1708 L 3474,1720 L 3473,1722 L 3469,1734 L 3469,1735 L 3462,1746 L 3461,1748 L 3453,1757 L 3452,1758 L 3442,1765 L 3440,1766 L 3429,1771 L 3427,1772 L 3415,1774 L 3413,1775 L 3401,1775 L 3399,1774 L 3387,1772 L 3385,1771 L 3374,1766 L 3372,1765 L 3362,1758 L 3361,1757 L 3353,1748 L 3352,1746 L 3345,1735 L 3345,1734 L 3341,1722 L 3341,1720 L 3339,1708 L 3339,1706 L 3341,1694 L 3341,1692 L 3345,1680 L 3345,1679 L 3352,1668 L 3353,1667 L 3361,1657 L 3362,1656 L 3372,1649 L 3374,1648 L 3385,1643 L 3387,1642 L 3399,1640 L 3401,1640 L 3413,1640 L 3415,1640 L 3427,1642 L 3429,1643 L 3440,1648 L 3442,1649 L 3452,1656 L 3453,1657 L 3461,1667 L 3462,1668 L 3469,1679 L 3469,1680 L 3473,1692 L 3474,1694 L 3475,1706 L 3475,1708 z " style="fill-opacity:1.000000;fill:rgb(99,51,159);stroke:rgb(0,0,0);stroke-width:2"/></g>
<g fill-rule="evenodd"><path d="M 4275,1708 L 4273,1720 L 4273,1722 L 4269,1734 L 4269,1735 L 4262,1746 L 4261,1748 L 4253,1757 L 4252,1758 L 4242,1765 L 4240,1766 L 4229,1771 L 4227,1772 L 4215,1774 L 4213,1775 L 4201,1775 L 4199,1774 L 4187,1772 L 4185,1771 L 4174,1766 L 4172,1765 L 4162,1758 L 4161,1757 L 4153,1748 L 4152,1746 L 4145,1735 L 4145,1734 L 4141,1722 L 4140,1720 L 4139,1708 L 4139,1706 L 4140,1694 L 4141,1692 L 4145,1680 L 4145,1679 L 4152,1668 L 4153,1667 L 4161,1657 L 4162,1656 L 4172,1649 L 4174,1648 L 4185,1643 L 4187,1642 L 4199,1640 L 4201,1640 L 4213,1640 L 4215,1640 L 4227,1642 L 4229,1643 L 4240,1648 L 4242,1649 L 4252,1656 L 4253,1657 L 4261,1667 L 4262,1668 L 4269,1679 L 4269,1680 L 4273,1692 L 4273,1694 L 4275,1706 L 4275,1708 z " style="fill-opacity:1.000000;fill:rgb(201,154,102);stroke:rgb(0,0,0);stroke-width:2"/></g>
<g fill-rule="evenodd"><path d="M 3475,2208 L 3474,2220 L 3473,2222 L 3469,2234 L 3469,2235 L 3462,2246 L 3461,2247 L 3453,2257 L 3452,2258 L 3442,2265 L 3440,2266 L 3429,2271 L 3427,2272 L 3415,2274 L 3413,2274 L 3401,2274 L 3399,2274 L 3387,2272 L 3385,2271 L 3374,2266 L 3372,2265 L 3362,2258 L 3361,2257 L 3353,2247 L 3352,2246 L 3345,2235 L 3345,2234 L 3341,2222 L 3341,2220 L 3339,2208 L 3339,2206 L 3341,2194 L 3341,2192 L 3345,2180 L 3345,2179 L 3352,2168 L 3353,2166 L 3361,2157 L 3362,2156 L 3372,2149 L 3374,2148 L 3385,2143 L 3387,2142 L 3399,2140 L 3401,2139 L 3413,2139 L 3415,2140 L 3427,2142 L 3429,2143 L 3440,2148 L 3442,2149 L 3452,2156 L 3453,2157 L 3461,2166 L 3462,2168 L 3469,2179 L 3469,2180 L 3473,2192 L 3474,2194 L 3475,2206 L 3475,2208 z " style="fill-opacity:1.000000;fill:rgb(50,13,183);stroke:rgb(0,0,0);stroke-width:2"/></g>
<g fill-rule="evenodd"><path d="M 4275,2208 L 4273,2220 L 4273,2222 L 4269,2234 L 4269,2235 L 4262,2246 L 4261,2247 L 4253,2257 L 4252,2258 L 4242,2265 L 4240,2266 L 4229,2271 L 4227,2272 L 4215,2274 L 4213,2274 L 4201,2274 L 4199,2274 L 4187,2272 L 4185,2271 L 4174,2266 L 4172,2265 L 4162,2258 L 4161,2257 L 4153,2247 L 4152,2246 L 4145,2235 L 4145,2234 L 4141,2222 L 4140,2220 L 4139,2208 L 4139,2206 L 4140,2194 L 4141,2192 L 4145,2180 L 4145,2179 L 4152,2168 L 4153,2166 L 4161,2157 L 4162,2156 L 4172,2149 L 4174,2148 L 4185,2143 L 4187,2142 L 4199,2140 L 4201,2139 L 4213,2139 L 4215,2140 L 4227,2142 L 4229,2143 L 4240,2148 L 4242,2149 L 4252,2156 L 4253,2157 L 4261,2166 L 4262,2168 L 4269,2179 L 4269,2180 L 4273,2192 L 4273,2194 L 4275,2206 L 4275,2208 z " style="fill-opacity:1.000000;fill:rgb(49,88,163);stroke:rgb(0,0,0);stroke-width:2"/></g>
<g fill-rule="evenodd"><path d="M 6505,1152 L 6505,1029 L 6505,1028 L 6506,1026 L 6507,1024 L 6508,1023 L 6509,1022 L 6511,1022 L 6513,1021 L 6636,1021 L 6637,1022 L 6639,1022 L 6641,1023 L 6642,1024 L 6643,1026 L 6643,1028 L 6644,1029 L 6644,1152 L 6643,1154 L 6643,1156 L 6642,1157 L 6641,1159 L 6639,1159 L 6637,1160 L 6636,1160 L 6513,1160 L 6511,1160 L 6509,1159 L 6508,1159 L 6507,1157 L 6506,1156 L 6505,1154 L 6505,1152 z " style="fill-opacity:1.000000;fill:rgb(90,37,93);stroke:rgb(0,0,0);stroke-width:2"/></g>
<g fill-rule="evenodd"><path d="M 6644,502 L 6642,515 L 6642,516 L 6638,528 L 6637,530 L 6631,541 L 6630,542 L 6621,552 L 6620,553 L 6610,561 L 6608,561 L 6596,567 L 6595,567 L 6582,570 L 6581,570 L 6568,570 L 6566,570 L 6554,567 L 6552,567 L 6540,561 L 6539,561 L 6528,553 L 6527,552 L 6519,542 L 6518,541 L 6511,530 L 6511,528 L 6507,516 L 6506,515 L 6505,502 L 6505,500 L 6506,487 L 6507,486 L 6511,474 L 6511,472 L 6518,461 L 6519,460 L 6527,450 L 6528,449 L 6539,441 L 6540,441 L 6552,435 L 6554,435 L 6566,432 L 6568,432 L 6581,432 L 6582,432 L 6595,435 L 6596,435 L 6608,441 L 6610,441 L 6620,449 L 6621,450 L 6630,460 L 6631,461 L 6637,472 L 6638,474 L 6642,486 L 6642,487 L 6644,500 L 6644,502 z " style="fill-opacity:1.000000;fill:rgb(5,23,88);stroke:rgb(0,0,0);stroke-width:2"/></g>
<g fill-rule="evenodd"><path d="M 5560,2333 L 5560,2210 L 5560,2208 L 5561,2207 L 5562,2205 L 5563,2204 L 5565,2203 L 5566,2203 L 5568,2202 L 5691,2202 L 5693,2203 L 5694,2203 L 5696,2204 L 5697,2205 L 5698,2207 L 5699,2208 L 5699,2210 L 5699,2333 L 5699,2335 L 5698,2337 L 5697,2338 L 5696,2339 L 5694,2340 L 5693,2341 L 5691,2341 L 5568,2341 L 5566,2341 L 5565,2340 L 5563,2339 L 5562,2338 L 5561,2337 L 5560,2335 L 5560,2333 z " style="fill-opacity:1.000000;fill:rgb(233,94,212);stroke:rgb(0,0,0);stroke-width:2"/></g>
<g fill-rule="evenodd"><path d="M 5699,1683 L 5697,1695 L 5697,1697 L 5693,1709 L 5692,1711 L 5686,1722 L 5685,1723 L 5676,1733 L 5675,1734 L 5665,1741 L 5663,1742 L 5652,1748 L 5650,1748 L 5638,1751 L 5636,1751 L 5623,1751 L 5621,1751 L 5609,1748 L 5607,1748 L 5596,1742 L 5594,1741 L 5584,1734 L 5583,1733 L 5574,1723 L 5573,1722 L 5567,1711 L 5566,1709 L 5562,1697 L 5562,1695 L 5560,1683 L 5560,1681 L 5562,1668 L 5562,1667 L 5566,1654 L 5567,1653 L 5573,1642 L 5574,1640 L 5583,1631 L 5584,1630 L 5594,1622 L 5596,1621 L 5607,1616 L 5609,1616 L 5621,1613 L 5623,1613 L 5636,1613 L 5638,1613 L 5650,1616 L 5652,1616 L 5663,1621 L 5665,1622 L 5675,1630 L 5676,1631 L 5685,1640 L 5686,1642 L 5692,1653 L 5693,1654 L 5697,1667 L 5697,1668 L 5699,1681 L 5699,1683 z " style="fill-opacity:1.000000;fill:rgb(171,178,205);stroke:rgb(0,0,0);stroke-width:2"/></g>
<g fill-rule="evenodd"><path d="M 6623,3396 L 6623,3273 L 6623,3271 L 6624,3270 L 6625,3268 L 6626,3267 L 6627,3266 L 6629,3265 L 6631,3265 L 6754,3265 L 6756,3265 L 6757,3266 L 6759,3267 L 6760,3268 L 6761,3270 L 6761,3271 L 6762,3273 L 6762,3396 L 6761,3398 L 6761,3399 L 6760,3401 L 6759,3402 L 6757,3403 L 6756,3404 L 6754,3404 L 6631,3404 L 6629,3404 L 6627,3403 L 6626,3402 L 6625,3401 L 6624,3399 L 6623,3398 L 6623,3396 z " style="fill-opacity:1.000000;fill:rgb(198,155,180);stroke:rgb(0,0,0);stroke-width:2"/></g>
<g fill-rule="evenodd"><path d="M 6762,2745 L 6760,2758 L 6760,2760 L 6756,2772 L 6755,2774 L 6749,2785 L 6748,2786 L 6739,2796 L 6738,2797 L 6728,2804 L 6726,2805 L 6714,2810 L 6713,2811 L 6700,2813 L 6699,2814 L 6686,2814 L 6684,2813 L 6672,2811 L 6670,2810 L 6658,2805 L 6657,2804 L 6647,2797 L 6645,2796 L 6637,2786 L 6636,2785 L 6629,2774 L 6629,2772 L 6625,2760 L 6624,2758 L 6623,2745 L 6623,2744 L 6624,2731 L 6625,2729 L 6629,2717 L 6629,2716 L 6636,2705 L 6637,2703 L 6645,2694 L 6647,2693 L 6657,2685 L 6658,2684 L 6670,2679 L 6672,2678 L 6684,2676 L 6686,2676 L 6699,2676 L 6700,2676 L 6713,2678 L 6714,2679 L 6726,2684 L 6728,2685 L 6738,2693 L 6739,2694 L 6748,2703 L 6749,2705 L 6755,2716 L 6756,2717 L 6760,2729 L 6760,2731 L 6762,2744 L 6762,2745 z " style="fill-opacity:1.000000;fill:rgb(84,17,14);stroke:rgb(0,0,0);stroke-width:2"/></g>
<g fill-rule="evenodd"><path d="M 7588,3364 L 7588,3244 L 7589,3242 L 7589,3240 L 7590,3239 L 7591,3237 L 7593,3236 L 7595,3236 L 7596,3236 L 7716,3236 L 7718,3236 L 7720,3236 L 7721,3237 L 7722,3239 L 7723,3240 L 7724,3242 L 7724,3244 L 7724,3364 L 7724,3365 L 7723,3367 L 7722,3368 L 7721,3370 L 7720,3371 L 7718,3371 L 7716,3371 L 7596,3371 L 7595,3371 L 7593,3371 L 7591,3370 L 7590,3368 L 7589,3367 L 7589,3365 L 7588,3364 z " style="fill-opacity:1.000000;fill:rgb(130,116,65);stroke:rgb(0,0,0);stroke-width:2"/></g>
<g fill-rule="evenodd"><path d="M 7724,2911 L 7723,2923 L 7722,2925 L 7719,2937 L 7718,2938 L 7712,2949 L 7711,2950 L 7702,2960 L 7701,2961 L 7691,2968 L 7689,2969 L 7678,2974 L 7676,2975 L 7664,2977 L 7663,2977 L 7650,2977 L 7648,2977 L 7636,2975 L 7635,2974 L 7623,2969 L 7622,2968 L 7612,2961 L 7610,2960 L 7602,2950 L 7601,2949 L 7595,2938 L 7594,2937 L 7590,2925 L 7590,2923 L 7588,2911 L 7588,2909 L 7590,2897 L 7590,2895 L 7594,2883 L 7595,2882 L 7601,2871 L 7602,2869 L 7610,2860 L 7612,2859 L 7622,2852 L 7623,2851 L 7635,2846 L 7636,2845 L 7648,2843 L 7650,2842 L 7663,2842 L 7664,2843 L 7676,2845 L 7678,2846 L 7689,2851 L 7691,2852 L 7701,2859 L 7702,2860 L 7711,2869 L 7712,2871 L 7718,2882 L 7719,2883 L 7722,2895 L 7723,2897 L 7724,2909 L 7724,2911 z " style="fill-opacity:1.000000;fill:rgb(33,61,220);stroke:rgb(0,0,0);stroke-width:2"/></g>
<g fill-rule="evenodd"><path d="M 7588,1264 L 7588,1144 L 7589,1142 L 7589,1141 L 7590,1139 L 7591,1138 L 7593,1137 L 7595,1136 L 7596,1136 L 7716,1136 L 7718,1136 L 7720,1137 L 7721,1138 L 7722,1139 L 7723,1141 L 7724,1142 L 7724,1144 L 7724,1264 L 7724,1266 L 7723,1267 L 7722,1269 L 7721,1270 L 7720,1271 L 7718,1272 L 7716,1272 L 7596,1272 L 7595,1272 L 7593,1271 L 7591,1270 L 7590,1269 L 7589,1267 L 7589,1266 L 7588,1264 z " style="fill-opacity:1.000000;fill:rgb(135,112,233);stroke:rgb(0,0,0);stroke-width:2"/></g>
<g fill-rule="evenodd"><path d="M 7724,811 L 7723,824 L 7722,825 L 7719,837 L 7718,839 L 7712,850 L 7711,851 L 7702,860 L 7701,861 L 7691,869 L 7689,870 L 7678,875 L 7676,875 L 7664,878 L 7663,878 L 7650,878 L 7648,878 L 7636,875 L 7635,875 L 7623,870 L 7622,869 L 7612,861 L 7610,860 L 7602,851 L 7601,850 L 7595,839 L 7594,837 L 7590,825 L 7590,824 L 7588,811 L 7588,810 L 7590,797 L 7590,795 L 7594,784 L 7595,782 L 7601,771 L 7602,770 L 7610,761 L 7612,759 L 7622,752 L 7623,751 L 7635,746 L 7636,746 L 7648,743 L 7650,743 L 7663,743 L 7664,743 L 7676,746 L 7678,746 L 7689,751 L 7691,752 L 7701,759 L 7702,761 L 7711,770 L 7712,771 L 7718,782 L 7719,784 L 7722,795 L 7723,797 L 7724,810 L 7724,811 z " style="fill-opacity:1.000000;fill:rgb(62,161,65);stroke:rgb(0,0,0);stroke-width:2"/></g>
<g fill-rule="evenodd"><path d="M 7588,2314 L 7588,2194 L 7589,2192 L 7589,2190 L 7590,2189 L 7591,2188 L 7593,2187 L 7595,2186 L 7596,2186 L 7716,2186 L 7718,2186 L 7720,2187 L 7721,2188 L 7722,2189 L 7723,2190 L 7724,2192 L 7724,2194 L 7724,2314 L 7724,2316 L 7723,2317 L 7722,2319 L 7721,2320 L 7720,2321 L 7718,2321 L 7716,2322 L 7596,2322 L 7595,2321 L 7593,2321 L 7591,2320 L 7590,2319 L 7589,2317 L 7589,2316 L 7588,2314 z " style="fill-opacity:1.000000;fill:rgb(225,252,103);stroke:rgb(0,0,0);stroke-width:2"/></g>
<g fill-rule="evenodd"><path d="M 7724,1861 L 7723,1873 L 7722,1875 L 7719,1887 L 7718,1888 L 7712,1899 L 7711,1901 L 7702,1910 L 7701,1911 L 7691,1918 L 7689,1919 L 7678,1924 L 7676,1925 L 7664,1928 L 7663,1928 L 7650,1928 L 7648,1928 L 7636,1925 L 7635,1924 L 7623,1919 L 7622,1918 L 7612,1911 L 7610,1910 L 7602,1901 L 7601,1899 L 7595,1888 L 7594,1887 L 7590,1875 L 7590,1873 L 7588,1861 L 7588,1859 L 7590,1847 L 7590,1845 L 7594,1833 L 7595,1832 L 7601,1821 L 7602,1820 L 7610,1810 L 7612,1809 L 7622,1802 L 7623,1801 L 7635,1796 L 7636,1795 L 7648,1793 L 7650,1793 L 7663,1793 L 7664,1793 L 7676,1795 L 7678,1796 L 7689,1801 L 7691,1802 L 7701,1809 L 7702,1810 L 7711,1820 L 7712,1821 L 7718,1832 L 7719,1833 L 7722,1845 L 7723,1847 L 7724,1859 L 7724,1861 z " style="fill-opacity:1.000000;fill:rgb(62,1,126);stroke:rgb(0,0,0);stroke-width:2"/></g>
<g fill-rule="evenodd"><path d="M 426,1955 L 424,1967 L 424,1969 L 420,1981 L 419,1982 L 413,1993 L 412,1994 L 404,2004 L 402,2005 L 392,2012 L 391,2013 L 379,2018 L 378,2019 L 366,2021 L 364,2021 L 351,2021 L 350,2021 L 338,2019 L 336,2018 L 325,2013 L 323,2012 L 313,2005 L 312,2004 L 303,1994 L 302,1993 L 296,1982 L 295,1981 L 292,1969 L 291,1967 L 290,1955 L 290,1953 L 291,1941 L 292,1939 L 295,1927 L 296,1926 L 302,1915 L 303,1913 L 312,1904 L 313,1903 L 323,1896 L 325,1895 L 336,1890 L 338,1889 L 350,1886 L 351,1886 L 364,1886 L 366,1886 L 378,1889 L 379,1890 L 391,1895 L 392,1896 L 402,1903 L 404,1904 L 412,1913 L 413,1915 L 419,1926 L 420,1927 L 424,1939 L 424,1941 L 426,1953 L 426,1955 z " style="fill-opacity:1.000000;fill:rgb(151,234,220);stroke:rgb(0,0,0);stroke-width:2"/></g>
<g fill-rule="evenodd"><path d="M 426,1561 L 424,1574 L 424,1575 L 420,1587 L 419,1589 L 413,1599 L 412,1601 L 404,1610 L 402,1611 L 392,1619 L 391,1619 L 379,1624 L 378,1625 L 366,1628 L 364,1628 L 351,1628 L 350,1628 L 338,1625 L 336,1624 L 325,1619 L 323,1619 L 313,1611 L 312,1610 L 303,1601 L 302,1599 L 296,1589 L 295,1587 L 292,1575 L 291,1574 L 290,1561 L 290,1559 L 291,1547 L 292,1545 L 295,1533 L 296,1532 L 302,1521 L 303,1520 L 312,1510 L 313,1509 L 323,1502 L 325,1501 L 336,1496 L 338,1495 L 350,1493 L 351,1493 L 364,1493 L 366,1493 L 378,1495 L 379,1496 L 391,1501 L 392,1502 L 402,1509 L 404,1510 L 412,1520 L 413,1521 L 419,1532 L 420,1533 L 424,1545 L 424,1547 L 426,1559 L 426,1561 z " style="fill-opacity:1.000000;fill:rgb(107,150,143);stroke:rgb(0,0,0);stroke-width:2"/></g>
<g fill-rule="evenodd"><path d="M 426,1167 L 424,1180 L 424,1181 L 420,1193 L 419,1195 L 413,1206 L 412,1207 L 404,1216 L 402,1218 L 392,1225 L 391,1226 L 379,1231 L 378,1231 L 366,1234 L 364,1234 L 351,1234 L 350,1234 L 338,1231 L 336,1231 L 325,1226 L 323,1225 L 313,1218 L 312,1216 L 303,1207 L 302,1206 L 296,1195 L 295,1193 L 292,1181 L 291,1180 L 290,1167 L 290,1166 L 291,1153 L 292,1152 L 295,1140 L 296,1138 L 302,1127 L 303,1126 L 312,1117 L 313,1116 L 323,1108 L 325,1107 L 336,1102 L 338,1102 L 350,1099 L 351,1099 L 364,1099 L 366,1099 L 378,1102 L 379,1102 L 391,1107 L 392,1108 L 402,1116 L 404,1117 L 412,1126 L 413,1127 L 419,1138 L 420,1140 L 424,1152 L 424,1153 L 426,1166 L 426,1167 z " style="fill-opacity:1.000000;fill:rgb(56,92,42);stroke:rgb(0,0,0);stroke-width:2"/></g>
<g fill-rule="evenodd"><path d="M 280,3500 L 280,3380 L 280,3379 L 281,3377 L 282,3376 L 283,3374 L 284,3373 L 286,3373 L 288,3373 L 408,3373 L 409,3373 L 411,3373 L 413,3374 L 414,3376 L 415,3377 L 415,3379 L 416,3380 L 416,3500 L 415,3502 L 415,3504 L 414,3505 L 413,3507 L 411,3507 L 409,3508 L 408,3508 L 288,3508 L 286,3508 L 284,3507 L 283,3507 L 282,3505 L 281,3504 L 280,3502 L 280,3500 z " style="fill-opacity:1.000000;fill:rgb(236,176,59);stroke:rgb(0,0,0);stroke-width:2"/></g>
<g fill-rule="evenodd"><path d="M 416,3048 L 414,3060 L 414,3062 L 410,3074 L 409,3075 L 403,3086 L 402,3087 L 394,3097 L 392,3098 L 382,3105 L 381,3106 L 369,3111 L 368,3112 L 356,3114 L 354,3114 L 341,3114 L 340,3114 L 328,3112 L 326,3111 L 315,3106 L 313,3105 L 303,3098 L 302,3097 L 293,3087 L 292,3086 L 286,3075 L 285,3074 L 282,3062 L 281,3060 L 280,3048 L 280,3046 L 281,3033 L 282,3032 L 285,3020 L 286,3018 L 292,3008 L 293,3006 L 302,2997 L 303,2996 L 313,2988 L 315,2988 L 326,2983 L 328,2982 L 340,2979 L 341,2979 L 354,2979 L 356,2979 L 368,2982 L 369,2983 L 381,2988 L 382,2988 L 392,2996 L 394,2997 L 402,3006 L 403,3008 L 409,3018 L 410,3020 L 414,3032 L 414,3033 L 416,3046 L 416,3048 z " style="fill-opacity:1.000000;fill:rgb(251,50,175);stroke:rgb(0,0,0);stroke-width:2"/></g>
<g fill-rule="evenodd"><path d="M 416,2654 L 414,2666 L 414,2668 L 410,2680 L 409,2681 L 403,2692 L 402,2694 L 394,2703 L 392,2704 L 382,2711 L 381,2712 L 369,2717 L 368,2718 L 356,2721 L 354,2721 L 341,2721 L 340,2721 L 328,2718 L 326,2717 L 315,2712 L 313,2711 L 303,2704 L 302,2703 L 293,2694 L 292,2692 L 286,2681 L 285,2680 L 282,2668 L 281,2666 L 280,2654 L 280,2652 L 281,2640 L 282,2638 L 285,2626 L 286,2625 L 292,2614 L 293,2613 L 302,2603 L 303,2602 L 313,2595 L 315,2594 L 326,2589 L 328,2588 L 340,2586 L 341,2586 L 354,2586 L 356,2586 L 368,2588 L 369,2589 L 381,2594 L 382,2595 L 392,2602 L 394,2603 L 402,2613 L 403,2614 L 409,2625 L 410,2626 L 414,2638 L 414,2640 L 416,2652 L 416,2654 z " style="fill-opacity:1.000000;fill:rgb(60,84,236);stroke:rgb(0,0,0);stroke-width:2"/></g>
<g fill-rule="evenodd"><path d="M 4451,1357 L 4451,1219 L 4451,1218 L 4451,1216 L 4452,1214 L 4454,1213 L 4455,1212 L 4457,1212 L 4458,1211 L 4596,1211 L 4598,1212 L 4600,1212 L 4601,1213 L 4602,1214 L 4603,1216 L 4604,1218 L 4604,1219 L 4604,1357 L 4604,1359 L 4603,1361 L 4602,1362 L 4601,1363 L 4600,1364 L 4598,1365 L 4596,1365 L 4458,1365 L 4457,1365 L 4455,1364 L 4454,1363 L 4452,1362 L 4451,1361 L 4451,1359 L 4451,1357 z " style="fill-opacity:1.000000;fill:rgb(24,219,92);stroke:rgb(0,0,0);stroke-width:2"/></g>
<g fill-rule="evenodd"><path d="M 4604,895 L 4603,910 L 4602,911 L 4598,925 L 4597,927 L 4590,939 L 4589,940 L 4579,951 L 4578,952 L 4566,961 L 4565,961 L 4552,967 L 4550,968 L 4536,971 L 4535,971 L 4520,971 L 4519,971 L 4504,968 L 4503,967 L 4490,961 L 4488,961 L 4477,952 L 4475,951 L 4466,940 L 4465,939 L 4458,927 L 4457,925 L 4452,911 L 4452,910 L 4451,895 L 4451,894 L 4452,879 L 4452,878 L 4457,864 L 4458,863 L 4465,850 L 4466,849 L 4475,838 L 4477,837 L 4488,829 L 4490,828 L 4503,822 L 4504,821 L 4519,818 L 4520,818 L 4535,818 L 4536,818 L 4550,821 L 4552,822 L 4565,828 L 4566,829 L 4578,837 L 4579,838 L 4589,849 L 4590,850 L 4597,863 L 4598,864 L 4602,878 L 4603,879 L 4604,894 L 4604,895 z " style="fill-opacity:1.000000;fill:rgb(2,26,254);stroke:rgb(0,0,0);stroke-width:2"/></g>
<g fill-rule="evenodd"><path d="M 4604,502 L 4603,516 L 4602,518 L 4598,531 L 4597,533 L 4590,545 L 4589,547 L 4579,557 L 4578,559 L 4566,567 L 4565,568 L 4552,574 L 4550,574 L 4536,577 L 4535,577 L 4520,577 L 4519,577 L 4504,574 L 4503,574 L 4490,568 L 4488,567 L 4477,559 L 4475,557 L 4466,547 L 4465,545 L 4458,533 L 4457,531 L 4452,518 L 4452,516 L 4451,502 L 4451,500 L 4452,486 L 4452,484 L 4457,471 L 4458,469 L 4465,457 L 4466,455 L 4475,445 L 4477,443 L 4488,435 L 4490,434 L 4503,428 L 4504,428 L 4519,425 L 4520,425 L 4535,425 L 4536,425 L 4550,428 L 4552,428 L 4565,434 L 4566,435 L 4578,443 L 4579,445 L 4589,455 L 4590,457 L 4597,469 L 4598,471 L 4602,484 L 4603,486 L 4604,500 L 4604,502 z " style="fill-opacity:1.000000;fill:rgb(67,251,250);stroke:rgb(0,0,0);stroke-width:2"/></g>
<g fill-rule="evenodd"><path d="M 4451,2420 L 4451,2282 L 4451,2280 L 4451,2279 L 4452,2277 L 4454,2276 L 4455,2275 L 4457,2274 L 4458,2274 L 4596,2274 L 4598,2274 L 4600,2275 L 4601,2276 L 4602,2277 L 4603,2279 L 4604,2280 L 4604,2282 L 4604,2420 L 4604,2422 L 4603,2423 L 4602,2425 L 4601,2426 L 4600,2427 L 4598,2428 L 4596,2428 L 4458,2428 L 4457,2428 L 4455,2427 L 4454,2426 L 4452,2425 L 4451,2423 L 4451,2422 L 4451,2420 z " style="fill-opacity:1.000000;fill:rgb(170,58,251);stroke:rgb(0,0,0);stroke-width:2"/></g>
<g fill-rule="evenodd"><path d="M 4604,1958 L 4603,1973 L 4602,1974 L 4598,1988 L 4597,1989 L 4590,2002 L 4589,2003 L 4579,2014 L 4578,2015 L 4566,2023 L 4565,2024 L 4552,2030 L 4550,2031 L 4536,2034 L 4535,2034 L 4520,2034 L 4519,2034 L 4504,2031 L 4503,2030 L 4490,2024 L 4488,2023 L 4477,2015 L 4475,2014 L 4466,2003 L 4465,2002 L 4458,1989 L 4457,1988 L 4452,1974 L 4452,1973 L 4451,1958 L 4451,1957 L 4452,1942 L 4452,1941 L 4457,1927 L 4458,1925 L 4465,1913 L 4466,1912 L 4475,1901 L 4477,1900 L 4488,1891 L 4490,1891 L 4503,1885 L 4504,1884 L 4519,1881 L 4520,1881 L 4535,1881 L 4536,1881 L 4550,1884 L 4552,1885 L 4565,1891 L 4566,1891 L 4578,1900 L 4579,1901 L 4589,1912 L 4590,1913 L 4597,1925 L 4598,1927 L 4602,1941 L 4603,1942 L 4604,1957 L 4604,1958 z " style="fill-opacity:1.000000;fill:rgb(41,209,230);stroke:rgb(0,0,0);stroke-width:2"/></g>
<g fill-rule="evenodd"><path d="M 4604,1565 L 4603,1579 L 4602,1581 L 4598,1594 L 4597,1596 L 4590,1608 L 4589,1610 L 4579,1620 L 4578,1621 L 4566,1630 L 4565,1631 L 4552,1636 L 4550,1637 L 4536,1640 L 4535,1640 L 4520,1640 L 4519,1640 L 4504,1637 L 4503,1636 L 4490,1631 L 4488,1630 L 4477,1621 L 4475,1620 L 4466,1610 L 4465,1608 L 4458,1596 L 4457,1594 L 4452,1581 L 4452,1579 L 4451,1565 L 4451,1563 L 4452,1549 L 4452,1547 L 4457,1533 L 4458,1532 L 4465,1519 L 4466,1518 L 4475,1507 L 4477,1506 L 4488,1498 L 4490,1497 L 4503,1491 L 4504,1491 L 4519,1488 L 4520,1487 L 4535,1487 L 4536,1488 L 4550,1491 L 4552,1491 L 4565,1497 L 4566,1498 L 4578,1506 L 4579,1507 L 4589,1518 L 4590,1519 L 4597,1532 L 4598,1533 L 4602,1547 L 4603,1549 L 4604,1563 L 4604,1565 z " style="fill-opacity:1.000000;fill:rgb(5,60,124);stroke:rgb(0,0,0);stroke-width:2"/></g>
<g fill-rule="evenodd"><path d="M 4451,3483 L 4451,3345 L 4451,3343 L 4451,3341 L 4452,3340 L 4454,3339 L 4455,3338 L 4457,3337 L 4458,3337 L 4596,3337 L 4598,3337 L 4600,3338 L 4601,3339 L 4602,3340 L 4603,3341 L 4604,3343 L 4604,3345 L 4604,3483 L 4604,3484 L 4603,3486 L 4602,3488 L 4601,3489 L 4600,3490 L 4598,3490 L 4596,3491 L 4458,3491 L 4457,3490 L 4455,3490 L 4454,3489 L 4452,3488 L 4451,3486 L 4451,3484 L 4451,3483 z " style="fill-opacity:1.000000;fill:rgb(148,117,216);stroke:rgb(0,0,0);stroke-width:2"/></g>
<g fill-rule="evenodd"><path d="M 4604,3021 L 4603,3035 L 4602,3037 L 4598,3051 L 4597,3052 L 4590,3065 L 4589,3066 L 4579,3077 L 4578,3078 L 4566,3086 L 4565,3087 L 4552,3093 L 4550,3093 L 4536,3096 L 4535,3097 L 4520,3097 L 4519,3096 L 4504,3093 L 4503,3093 L 4490,3087 L 4488,3086 L 4477,3078 L 4475,3077 L 4466,3066 L 4465,3065 L 4458,3052 L 4457,3051 L 4452,3037 L 4452,3035 L 4451,3021 L 4451,3019 L 4452,3005 L 4452,3003 L 4457,2990 L 4458,2988 L 4465,2976 L 4466,2974 L 4475,2964 L 4477,2963 L 4488,2954 L 4490,2953 L 4503,2947 L 4504,2947 L 4519,2944 L 4520,2944 L 4535,2944 L 4536,2944 L 4550,2947 L 4552,2947 L 4565,2953 L 4566,2954 L 4578,2963 L 4579,2964 L 4589,2974 L 4590,2976 L 4597,2988 L 4598,2990 L 4602,3003 L 4603,3005 L 4604,3019 L 4604,3021 z " style="fill-opacity:1.000000;fill:rgb(190,97,137);stroke:rgb(0,0,0);stroke-width:2"/></g>
<g fill-rule="evenodd"><path d="M 4604,2627 L 4603,2642 L 4602,2643 L 4598,2657 L 4597,2658 L 4590,2671 L 4589,2672 L 4579,2683 L 4578,2684 L 4566,2693 L 4565,2693 L 4552,2699 L 4550,2700 L 4536,2703 L 4535,2703 L 4520,2703 L 4519,2703 L 4504,2700 L 4503,2699 L 4490,2693 L 4488,2693 L 4477,2684 L 4475,2683 L 4466,2672 L 4465,2671 L 4458,2658 L 4457,2657 L 4452,2643 L 4452,2642 L 4451,2627 L 4451,2626 L 4452,2611 L 4452,2610 L 4457,2596 L 4458,2595 L 4465,2582 L 4466,2581 L 4475,2570 L 4477,2569 L 4488,2561 L 4490,2560 L 4503,2554 L 4504,2553 L 4519,2550 L 4520,2550 L 4535,2550 L 4536,2550 L 4550,2553 L 4552,2554 L 4565,2560 L 4566,2561 L 4578,2569 L 4579,2570 L 4589,2581 L 4590,2582 L 4597,2595 L 4598,2596 L 4602,2610 L 4603,2611 L 4604,2626 L 4604,2627 z " style="fill-opacity:1.000000;fill:rgb(249,92,187);stroke:rgb(0,0,0);stroke-width:2"/></g>
<g fill-rule="evenodd"><path d="M 1776,2104 L 1764,2103 L 1762,2103 L 1750,2099 L 1749,2098 L 1738,2092 L 1737,2091 L 1727,2083 L 1726,2082 L 1718,2072 L 1717,2071 L 1712,2060 L 1711,2058 L 1708,2046 L 1708,2044 L 1707,2032 L 1707,2030 L 1709,2018 L 1710,2016 L 1714,2004 L 1715,2003 L 1721,1992 L 1722,1991 L 1731,1982 L 1732,1981 L 1742,1974 L 1744,1973 L 1755,1968 L 1757,1968 L 1769,1965 L 1771,1965 L 1833,1965 L 1834,1965 L 1846,1966 L 1848,1966 L 1860,1970 L 1861,1971 L 1872,1977 L 1874,1978 L 1883,1986 L 1884,1987 L 1892,1997 L 1893,1998 L 1898,2010 L 1899,2011 L 1902,2023 L 1902,2025 L 1903,2037 L 1903,2039 L 1901,2051 L 1900,2053 L 1896,2065 L 1895,2066 L 1889,2077 L 1888,2078 L 1879,2087 L 1878,2088 L 1868,2095 L 1866,2096 L 1855,2101 L 1853,2101 L 1841,2104 L 1839,2104 L 1777,2104 L 1776,2104 z " style="fill-opacity:1.000000;fill:rgb(168,153,15);stroke:rgb(0,0,0);stroke-width:2"/></g>
<g fill-rule="evenodd"><path d="M 2576,2104 L 2564,2103 L 2562,2103 L 2550,2099 L 2549,2098 L 2538,2092 L 2536,2091 L 2527,2083 L 2526,2082 L 2518,2072 L 2517,2071 L 2512,2060 L 2511,2058 L 2508,2046 L 2508,2044 L 2507,2032 L 2507,2030 L 2509,2018 L 2510,2016 L 2514,2004 L 2515,2003 L 2521,1992 L 2522,1991 L 2531,1982 L 2532,1981 L 2542,1974 L 2544,1973 L 2555,1968 L 2557,1968 L 2569,1965 L 2571,1965 L 2633,1965 L 2634,1965 L 2646,1966 L 2648,1966 L 2660,1970 L 2661,1971 L 2672,1977 L 2673,1978 L 2683,1986 L 2684,1987 L 2692,1997 L 2693,1998 L 2698,2010 L 2699,2011 L 2702,2023 L 2702,2025 L 2703,2037 L 2703,2039 L 2701,2051 L 2700,2053 L 2696,2065 L 2695,2066 L 2689,2077 L 2688,2078 L 2679,2087 L 2678,2088 L 2667,2095 L 2666,2096 L 2655,2101 L 2653,2101 L 2641,2104 L 2639,2104 L 2577,2104 L 2576,2104 z " style="fill-opacity:1.000000;fill:rgb(149,177,235);stroke:rgb(0,0,0);stroke-width:2"/></g>
<g fill-rule="evenodd"><path d="M 2576,2304 L 2564,2303 L 2562,2303 L 2550,2299 L 2549,2298 L 2538,2292 L 2536,2291 L 2527,2283 L 2526,2282 L 2518,2272 L 2517,2271 L 2512,2259 L 2511,2258 L 2508,2246 L 2508,2244 L 2507,2232 L 2507,2230 L 2509,2218 L 2510,2216 L 2514,2204 L 2515,2203 L 2521,2192 L 2522,2191 L 2531,2182 L 2532,2181 L 2542,2174 L 2544,2173 L 2555,2168 L 2557,2168 L 2569,2165 L 2571,2165 L 2633,2165 L 2634,2165 L 2646,2166 L 2648,2166 L 2660,2170 L 2661,2171 L 2672,2177 L 2673,2178 L 2683,2186 L 2684,2187 L 2692,2197 L 2693,2198 L 2698,2209 L 2699,2211 L 2702,2223 L 2702,2225 L 2703,2237 L 2703,2239 L 2701,2251 L 2700,2253 L 2696,2265 L 2695,2266 L 2689,2277 L 2688,2278 L 2679,2287 L 2678,2288 L 2667,2295 L 2666,2296 L 2655,2301 L 2653,2301 L 2641,2304 L 2639,2304 L 2577,2304 L 2576,2304 z " style="fill-opacity:1.000000;fill:rgb(241,179,5);stroke:rgb(0,0,0);stroke-width:2"/></g>
<g fill-rule="evenodd"><path d="M 1776,1671 L 1764,1670 L 1762,1670 L 1750,1666 L 1749,1665 L 1738,1659 L 1737,1658 L 1727,1650 L 1726,1649 L 1718,1639 L 1717,1638 L 1712,1627 L 1711,1625 L 1708,1613 L 1708,1611 L 1707,1599 L 1707,1597 L 1709,1585 L 1710,1583 L 1714,1572 L 1715,1570 L 1721,1559 L 1722,1558 L 1731,1549 L 1732,1548 L 1742,1541 L 1744,1540 L 1755,1535 L 1757,1535 L 1769,1532 L 1771,1532 L 1833,1532 L 1834,1532 L 1846,1533 L 1848,1533 L 1860,1537 L 1861,1538 L 1872,1544 L 1874,1545 L 1883,1553 L 1884,1554 L 1892,1564 L 1893,1565 L 1898,1577 L 1899,1578 L 1902,1590 L 1902,1592 L 1903,1604 L 1903,1606 L 1901,1618 L 1900,1620 L 1896,1632 L 1895,1633 L 1889,1644 L 1888,1645 L 1879,1654 L 1878,1655 L 1868,1662 L 1866,1663 L 1855,1668 L 1853,1668 L 1841,1671 L 1839,1671 L 1777,1671 L 1776,1671 z " style="fill-opacity:1.000000;fill:rgb(239,247,0);stroke:rgb(0,0,0);stroke-width:2"/></g>
<g fill-rule="evenodd"><path d="M 2576,1671 L 2564,1670 L 2562,1670 L 2550,1666 L 2549,1665 L 2538,1659 L 2536,1658 L 2527,1650 L 2526,1649 L 2518,1639 L 2517,1638 L 2512,1627 L 2511,1625 L 2508,1613 L 2508,1611 L 2507,1599 L 2507,1597 L 2509,1585 L 2510,1583 L 2514,1572 L 2515,1570 L 2521,1559 L 2522,1558 L 2531,1549 L 2532,1548 L 2542,1541 L 2544,1540 L 2555,1535 L 2557,1535 L 2569,1532 L 2571,1532 L 2633,1532 L 2634,1532 L 2646,1533 L 2648,1533 L 2660,1537 L 2661,1538 L 2672,1544 L 2673,1545 L 2683,1553 L 2684,1554 L 2692,1564 L 2693,1565 L 2698,1577 L 2699,1578 L 2702,1590 L 2702,1592 L 2703,1604 L 2703,1606 L 2701,1618 L 2700,1620 L 2696,1632 L 2695,1633 L 2689,1644 L 2688,1645 L 2679,1654 L 2678,1655 L 2667,1662 L 2666,1663 L 2655,1668 L 2653,1668 L 2641,1671 L 2639,1671 L 2577,1671 L 2576,1671 z " style="fill-opacity:1.000000;fill:rgb(233,161,58);stroke:rgb(0,0,0);stroke-width:2"/></g>
<g fill-rule="evenodd"><path d="M 2576,1871 L 2564,1870 L 2562,1870 L 2550,1866 L 2549,1865 L 2538,1859 L 2536,1858 L 2527,1850 L 2526,1849 L 2518,1839 L 2517,1838 L 2512,1827 L 2511,1825 L 2508,1813 L 2508,1811 L 2507,1799 L 2507,1797 L 2509,1785 L 2510,1783 L 2514,1771 L 2515,1770 L 2521,1759 L 2522,1758 L 2531,1749 L 2532,1748 L 2542,1741 L 2544,1740 L 2555,1735 L 2557,1735 L 2569,1732 L 2571,1732 L 2633,1732 L 2634,1732 L 2646,1733 L 2648,1733 L 2660,1737 L 2661,1738 L 2672,1744 L 2673,1745 L 2683,1753 L 2684,1754 L 2692,1764 L 2693,1765 L 2698,1777 L 2699,1778 L 2702,1790 L 2702,1792 L 2703,1804 L 2703,1806 L 2701,1818 L 2700,1820 L 2696,1832 L 2695,1833 L 2689,1844 L 2688,1845 L 2679,1854 L 2678,1855 L 2667,1862 L 2666,1863 L 2655,1868 L 2653,1868 L 2641,1871 L 2639,1871 L 2577,1871 L 2576,1871 z " style="fill-opacity:1.000000;fill:rgb(229,202,11);stroke:rgb(0,0,0);stroke-width:2"/></g>
<g fill-rule="evenodd"><path d="M 1776,1238 L 1764,1237 L 1762,1237 L 1750,1233 L 1749,1232 L 1738,1226 L 1737,1225 L 1727,1217 L 1726,1216 L 1718,1206 L 1717,1205 L 1712,1194 L 1711,1192 L 1708,1180 L 1708,1178 L 1707,1166 L 1707,1164 L 1709,1152 L 1710,1150 L 1714,1139 L 1715,1137 L 1721,1126 L 1722,1125 L 1731,1116 L 1732,1115 L 1742,1108 L 1744,1107 L 1755,1102 L 1757,1102 L 1769,1099 L 1771,1099 L 1833,1099 L 1834,1099 L 1846,1100 L 1848,1100 L 1860,1104 L 1861,1105 L 1872,1111 L 1874,1112 L 1883,1120 L 1884,1121 L 1892,1131 L 1893,1132 L 1898,1144 L 1899,1145 L 1902,1157 L 1902,1159 L 1903,1171 L 1903,1173 L 1901,1185 L 1900,1187 L 1896,1199 L 1895,1200 L 1889,1211 L 1888,1212 L 1879,1221 L 1878,1222 L 1868,1229 L 1866,1230 L 1855,1235 L 1853,1235 L 1841,1238 L 1839,1238 L 1777,1238 L 1776,1238 z " style="fill-opacity:1.000000;fill:rgb(203,208,72);stroke:rgb(0,0,0);stroke-width:2"/></g>
<g fill-rule="evenodd"><path d="M 2576,1238 L 2564,1237 L 2562,1237 L 2550,1233 L 2549,1232 L 2538,1226 L 2536,1225 L 2527,1217 L 2526,1216 L 2518,1206 L 2517,1205 L 2512,1194 L 2511,1192 L 2508,1180 L 2508,1178 L 2507,1166 L 2507,1164 L 2509,1152 L 2510,1150 L 2514,1139 L 2515,1137 L 2521,1126 L 2522,1125 L 2531,1116 L 2532,1115 L 2542,1108 L 2544,1107 L 2555,1102 L 2557,1102 L 2569,1099 L 2571,1099 L 2633,1099 L 2634,1099 L 2646,1100 L 2648,1100 L 2660,1104 L 2661,1105 L 2672,1111 L 2673,1112 L 2683,1120 L 2684,1121 L 2692,1131 L 2693,1132 L 2698,1144 L 2699,1145 L 2702,1157 L 2702,1159 L 2703,1171 L 2703,1173 L 2701,1185 L 2700,1187 L 2696,1199 L 2695,1200 L 2689,1211 L 2688,1212 L 2679,1221 L 2678,1222 L 2667,1229 L 2666,1230 L 2655,1235 L 2653,1235 L 2641,1238 L 2639,1238 L 2577,1238 L 2576,1238 z " style="fill-opacity:1.000000;fill:rgb(71,100,189);stroke:rgb(0,0,0);stroke-width:2"/></g>
<g fill-rule="evenodd"><path d="M 2576,1438 L 2564,1437 L 2562,1437 L 2550,1433 L 2549,1432 L 2538,1426 L 2536,1425 L 2527,1417 L 2526,1416 L 2518,1406 L 2517,1405 L 2512,1394 L 2511,1392 L 2508,1380 L 2508,1378 L 2507,1366 L 2507,1364 L 2509,1352 L 2510,1350 L 2514,1338 L 2515,1337 L 2521,1326 L 2522,1325 L 2531,1316 L 2532,1315 L 2542,1308 L 2544,1307 L 2555,1302 L 2557,1302 L 2569,1299 L 2571,1299 L 2633,1299 L 2634,1299 L 2646,1300 L 2648,1300 L 2660,1304 L 2661,1305 L 2672,1311 L 2673,1312 L 2683,1320 L 2684,1321 L 2692,1331 L 2693,1332 L 2698,1344 L 2699,1345 L 2702,1357 L 2702,1359 L 2703,1371 L 2703,1373 L 2701,1385 L 2700,1387 L 2696,1399 L 2695,1400 L 2689,1411 L 2688,1412 L 2679,1421 L 2678,1422 L 2667,1429 L 2666,1430 L 2655,1435 L 2653,1435 L 2641,1438 L 2639,1438 L 2577,1438 L 2576,1438 z " style="fill-opacity:1.000000;fill:rgb(31,35,30);stroke:rgb(0,0,0);stroke-width:2"/></g>
</svg>
