<?xml version="1.0" standalone="no"?>
<!DOCTYPE svg PUBLIC "-//W3C//DTD SVG 1.1//EN"
"http://www.w3.org/Graphics/SVG/1.1/DTD/svg11.dtd">
<svg width="7900" height="3804" viewBox="0 0 7900 3804" version="1.1"
xmlns="http://www.w3.org/2000/svg"
xmlns:xlink="http://www.w3.org/1999/xlink">
<g fill-rule="evenodd"><path d="M 0,3789 L 0,10 L 0,7 L 1,5 L 2,3 L 3,2 L 5,0 L 7,0 L 10,0 L 7889,0 L 7892,0 L 7894,0 L 7896,2 L 7897,3 L 7898,5 L 7899,7 L 7899,10 L 7899,3789 L 7899,3792 L 7898,3794 L 7896,3797 L 7893,3799 L 7891,3799 L 7889,3799 L 104,3799 L 104,3801 L 103,3802 L 102,3803 L 100,3804 L 98,3803 L 97,3803 L 96,3801 L 95,3799 L 10,3799 L 7,3799 L 5,3798 L 3,3797 L 2,3796 L 1,3794 L 0,3792 L 0,3789 z " style="fill-opacity:1.000000;fill:rgb(103,198,105);stroke:rgb(0,0,0);stroke-width:2"/></g>
</svg>
