<?xml version="1.0" standalone="no"?>
<!DOCTYPE svg PUBLIC "-//W3C//DTD SVG 1.1//EN"
"http://www.w3.org/Graphics/SVG/1.1/DTD/svg11.dtd">
<svg width="7915" height="3819" viewBox="0 0 7915 3819" version="1.1"
xmlns="http://www.w3.org/2000/svg"
xmlns:xlink="http://www.w3.org/1999/xlink">
<g fill-rule="evenodd"><path d="M 819,2040 L 458,2040 L 457,2040 L 441,2039 L 439,2038 L 423,2033 L 422,2033 L 408,2024 L 406,2023 L 394,2012 L 393,2011 L 383,1998 L 382,1996 L 376,1981 L 375,1980 L 372,1964 L 372,1962 L 372,1946 L 372,1944 L 375,1928 L 376,1926 L 382,1911 L 383,1910 L 393,1896 L 394,1895 L 406,1884 L 408,1883 L 422,1875 L 423,1874 L 439,1869 L 441,1869 L 457,1867 L 458,1867 L 839,1867 L 840,1867 L 860,1870 L 862,1870 L 881,1878 L 883,1879 L 899,1892 L 900,1893 L 904,1896 L 904,1897 L 914,1909 L 915,1911 L 923,1926 L 923,1927 L 928,1943 L 928,1945 L 929,1961 L 929,1963 L 926,1979 L 926,1981 L 920,1996 L 919,1997 L 910,2011 L 909,2012 L 897,2024 L 896,2025 L 882,2034 L 881,2035 L 866,2041 L 864,2041 L 848,2044 L 846,2044 L 830,2043 L 828,2043 L 819,2040 z " style="fill-opacity:1.000000;fill:rgb(103,198,105);stroke:rgb(0,0,0);stroke-width:2"/></g>
<g fill-rule="evenodd"><path d="M 780,1253 L 458,1253 L 457,1253 L 441,1251 L 439,1251 L 423,1246 L 422,1245 L 408,1237 L 406,1236 L 394,1225 L 393,1224 L 383,1211 L 382,1209 L 376,1194 L 375,1193 L 372,1176 L 372,1175 L 372,1158 L 372,1157 L 375,1141 L 376,1139 L 382,1124 L 383,1123 L 393,1109 L 394,1108 L 406,1097 L 408,1096 L 422,1088 L 423,1087 L 439,1082 L 441,1082 L 457,1080 L 458,1080 L 799,1080 L 800,1080 L 821,1083 L 823,1083 L 842,1091 L 844,1092 L 860,1105 L 861,1105 L 864,1109 L 865,1109 L 875,1122 L 876,1124 L 883,1138 L 884,1140 L 888,1156 L 889,1157 L 889,1174 L 889,1175 L 887,1192 L 886,1193 L 880,1209 L 880,1210 L 871,1224 L 870,1225 L 858,1237 L 857,1238 L 843,1247 L 842,1248 L 826,1253 L 825,1254 L 808,1256 L 807,1257 L 790,1256 L 789,1255 L 780,1253 z " style="fill-opacity:1.000000;fill:rgb(115,81,255);stroke:rgb(0,0,0);stroke-width:2"/></g>
<g fill-rule="evenodd"><path d="M 780,1647 L 458,1647 L 457,1647 L 441,1645 L 439,1645 L 423,1640 L 422,1639 L 408,1631 L 406,1630 L 394,1619 L 393,1617 L 383,1604 L 382,1603 L 376,1588 L 375,1586 L 372,1570 L 372,1568 L 372,1552 L 372,1550 L 375,1534 L 376,1533 L 382,1518 L 383,1516 L 393,1503 L 394,1502 L 406,1491 L 408,1490 L 422,1481 L 423,1481 L 439,1476 L 441,1475 L 457,1474 L 458,1474 L 799,1474 L 800,1474 L 821,1476 L 823,1477 L 842,1485 L 844,1486 L 860,1498 L 861,1499 L 864,1502 L 865,1503 L 875,1516 L 876,1517 L 883,1532 L 884,1533 L 888,1549 L 889,1551 L 889,1567 L 889,1569 L 887,1585 L 886,1587 L 880,1602 L 880,1604 L 871,1618 L 870,1619 L 858,1630 L 857,1632 L 843,1640 L 842,1641 L 826,1647 L 825,1648 L 808,1650 L 807,1650 L 790,1649 L 789,1649 L 780,1647 z " style="fill-opacity:1.000000;fill:rgb(74,236,41);stroke:rgb(0,0,0);stroke-width:2"/></g>
<g fill-rule="evenodd"><path d="M 5944,1774 L 7756,1774 L 7757,1774 L 7773,1775 L 7775,1776 L 7791,1781 L 7792,1781 L 7806,1790 L 7808,1791 L 7820,1802 L 7821,1803 L 7831,1816 L 7832,1818 L 7838,1833 L 7839,1834 L 7842,1850 L 7842,1852 L 7842,1868 L 7842,1870 L 7839,1886 L 7838,1888 L 7832,1903 L 7831,1904 L 7821,1917 L 7820,1919 L 7808,1930 L 7806,1931 L 7792,1939 L 7791,1940 L 7775,1945 L 7773,1945 L 7757,1947 L 7756,1947 L 5908,1947 L 5907,1947 L 5886,1944 L 5884,1943 L 5865,1936 L 5864,1935 L 5847,1922 L 5847,1921 L 5729,1804 L 5515,2019 L 5514,2019 L 5498,2032 L 5496,2033 L 5477,2041 L 5475,2041 L 5455,2044 L 5454,2044 L 4627,2044 L 4626,2044 L 4610,2042 L 4609,2042 L 4593,2037 L 4591,2036 L 4577,2028 L 4576,2027 L 4564,2016 L 4562,2015 L 4553,2001 L 4552,2000 L 4545,1985 L 4545,1983 L 4541,1967 L 4541,1966 L 4541,1949 L 4541,1947 L 4545,1931 L 4545,1930 L 4552,1915 L 4553,1913 L 4562,1900 L 4564,1899 L 4576,1888 L 4577,1887 L 4591,1879 L 4593,1878 L 4609,1873 L 4610,1872 L 4626,1871 L 4627,1871 L 5418,1871 L 5668,1621 L 5669,1620 L 5683,1609 L 5684,1608 L 5700,1600 L 5702,1600 L 5719,1596 L 5721,1596 L 5738,1596 L 5740,1596 L 5757,1600 L 5759,1600 L 5775,1608 L 5776,1609 L 5790,1620 L 5791,1621 L 5944,1774 z " style="fill-opacity:1.000000;fill:rgb(205,186,171);stroke:rgb(0,0,0);stroke-width:2"/></g>
<g fill-rule="evenodd"><path d="M 4939,2831 L 4689,3081 L 4688,3082 L 4675,3092 L 4674,3093 L 4659,3101 L 4658,3101 L 4642,3105 L 4640,3106 L 4624,3107 L 4622,3106 L 4606,3104 L 4604,3103 L 4589,3098 L 4587,3097 L 4573,3088 L 4572,3087 L 4561,3075 L 4560,3074 L 4551,3060 L 4550,3059 L 4544,3043 L 4544,3042 L 4541,3025 L 4541,3024 L 4542,3007 L 4542,3006 L 4546,2990 L 4547,2988 L 4554,2974 L 4555,2972 L 4566,2959 L 4566,2959 L 4842,2683 L 4842,2683 L 4859,2670 L 4860,2669 L 4879,2661 L 4881,2661 L 4902,2658 L 4903,2658 L 6792,2658 L 6793,2658 L 6814,2661 L 6816,2661 L 6835,2669 L 6836,2670 L 6853,2683 L 6853,2683 L 6993,2823 L 7756,2823 L 7757,2823 L 7773,2825 L 7775,2825 L 7791,2830 L 7792,2831 L 7806,2839 L 7808,2840 L 7820,2851 L 7821,2853 L 7831,2866 L 7832,2867 L 7838,2882 L 7839,2884 L 7842,2900 L 7842,2902 L 7842,2918 L 7842,2920 L 7839,2936 L 7838,2937 L 7832,2952 L 7831,2954 L 7821,2967 L 7820,2968 L 7808,2979 L 7806,2980 L 7792,2989 L 7791,2989 L 7775,2994 L 7773,2995 L 7757,2996 L 7756,2996 L 6958,2996 L 6956,2996 L 6936,2994 L 6934,2993 L 6915,2985 L 6913,2984 L 6897,2972 L 6896,2971 L 6756,2831 L 4939,2831 z " style="fill-opacity:1.000000;fill:rgb(242,251,227);stroke:rgb(0,0,0);stroke-width:2"/></g>
<g fill-rule="evenodd"><path d="M 6245,808 L 6613,440 L 6614,439 L 6630,427 L 6632,426 L 6651,418 L 6653,417 L 6673,414 L 6674,414 L 7447,414 L 7448,414 L 7468,417 L 7470,418 L 7489,426 L 7491,427 L 7507,439 L 7508,440 L 7817,749 L 7818,750 L 7828,763 L 7829,764 L 7837,779 L 7837,780 L 7842,796 L 7842,798 L 7843,814 L 7843,816 L 7840,832 L 7840,834 L 7834,849 L 7833,850 L 7824,864 L 7823,865 L 7811,877 L 7810,878 L 7796,887 L 7795,888 L 7779,894 L 7778,894 L 7761,897 L 7760,897 L 7743,896 L 7742,896 L 7726,891 L 7724,891 L 7710,883 L 7708,882 L 7696,872 L 7695,872 L 7411,588 L 6710,588 L 6342,956 L 6341,956 L 6325,969 L 6323,970 L 6304,978 L 6302,978 L 6282,981 L 6280,981 L 4627,981 L 4626,981 L 4610,979 L 4609,979 L 4593,974 L 4591,973 L 4577,965 L 4576,964 L 4564,953 L 4562,952 L 4553,939 L 4552,937 L 4545,922 L 4545,921 L 4541,904 L 4541,903 L 4541,886 L 4541,885 L 4545,869 L 4545,867 L 4552,852 L 4553,851 L 4562,837 L 4564,836 L 4576,825 L 4577,824 L 4591,816 L 4593,815 L 4609,810 L 4610,810 L 4626,808 L 4627,808 L 6245,808 z " style="fill-opacity:1.000000;fill:rgb(70,124,194);stroke:rgb(0,0,0);stroke-width:2"/></g>
<g fill-rule="evenodd"><path d="M 390,2407 L 390,2287 L 390,2286 L 391,2284 L 392,2283 L 393,2281 L 394,2280 L 396,2280 L 398,2280 L 518,2280 L 520,2280 L 521,2280 L 523,2281 L 524,2283 L 525,2284 L 525,2286 L 526,2287 L 526,2407 L 525,2409 L 525,2411 L 524,2412 L 523,2414 L 521,2414 L 520,2415 L 518,2415 L 398,2415 L 396,2415 L 394,2414 L 393,2414 L 392,2412 L 391,2411 L 390,2409 L 390,2407 z " style="fill-opacity:1.000000;fill:rgb(84,248,27);stroke:rgb(0,0,0);stroke-width:2"/></g>
<g fill-rule="evenodd"><path d="M 444,794 L 294,943 L 294,3164 L 502,3372 L 508,3372 L 510,3373 L 511,3373 L 513,3374 L 514,3375 L 515,3377 L 515,3379 L 516,3380 L 516,3387 L 520,3392 L 521,3394 L 528,3409 L 529,3410 L 533,3426 L 533,3428 L 534,3444 L 534,3446 L 532,3462 L 531,3463 L 525,3479 L 525,3480 L 516,3494 L 516,3500 L 515,3502 L 515,3504 L 514,3505 L 513,3506 L 511,3507 L 510,3508 L 508,3508 L 501,3508 L 488,3517 L 486,3518 L 471,3524 L 469,3524 L 453,3527 L 451,3527 L 435,3526 L 433,3526 L 418,3521 L 416,3521 L 401,3513 L 400,3512 L 395,3508 L 388,3508 L 386,3508 L 384,3507 L 383,3506 L 382,3505 L 381,3504 L 380,3502 L 380,3500 L 380,3495 L 147,3262 L 146,3261 L 133,3245 L 132,3243 L 125,3224 L 124,3222 L 121,3201 L 121,3200 L 121,907 L 121,906 L 124,886 L 125,884 L 132,865 L 133,863 L 146,847 L 147,846 L 347,646 L 347,645 L 364,633 L 365,632 L 384,624 L 386,623 L 407,621 L 408,621 L 4307,621 L 4308,621 L 4328,623 L 4330,624 L 4349,632 L 4351,633 L 4367,645 L 4368,646 L 4380,658 L 4381,659 L 4393,675 L 4394,677 L 4402,696 L 4403,698 L 4405,718 L 4405,719 L 4405,944 L 4663,1202 L 6441,1202 L 6605,1038 L 6605,1029 L 6605,1028 L 6606,1026 L 6606,1024 L 6608,1023 L 6609,1022 L 6611,1022 L 6613,1021 L 6623,1021 L 6630,1016 L 6632,1015 L 6651,1008 L 6653,1007 L 6673,1004 L 6674,1004 L 7643,1004 L 7644,1004 L 7664,1007 L 7666,1008 L 7685,1015 L 7687,1016 L 7703,1029 L 7704,1030 L 7811,1136 L 7816,1136 L 7818,1136 L 7820,1137 L 7821,1138 L 7822,1139 L 7823,1141 L 7824,1142 L 7824,1144 L 7824,1151 L 7828,1156 L 7829,1158 L 7837,1172 L 7837,1174 L 7842,1190 L 7842,1191 L 7843,1208 L 7843,1209 L 7840,1226 L 7840,1227 L 7834,1243 L 7833,1244 L 7824,1258 L 7824,1264 L 7824,1266 L 7823,1267 L 7822,1269 L 7821,1270 L 7820,1271 L 7818,1272 L 7816,1272 L 7810,1272 L 7796,1281 L 7795,1281 L 7779,1287 L 7778,1288 L 7761,1290 L 7760,1290 L 7743,1290 L 7742,1289 L 7726,1285 L 7724,1284 L 7710,1277 L 7708,1276 L 7703,1272 L 7696,1272 L 7694,1272 L 7693,1271 L 7691,1270 L 7690,1269 L 7689,1267 L 7688,1266 L 7688,1264 L 7688,1259 L 7607,1177 L 6710,1177 L 6538,1349 L 6537,1350 L 6521,1363 L 6519,1364 L 6500,1371 L 6498,1372 L 6478,1375 L 6477,1375 L 4627,1375 L 4626,1375 L 4606,1372 L 4604,1371 L 4588,1365 L 4558,1365 L 4557,1365 L 4555,1364 L 4554,1363 L 4552,1362 L 4551,1360 L 4551,1359 L 4551,1357 L 4551,1334 L 4257,1041 L 4257,1040 L 4244,1024 L 4243,1022 L 4235,1003 L 4235,1001 L 4232,981 L 4232,980 L 4232,794 L 444,794 z " style="fill-opacity:1.000000;fill:rgb(232,231,141);stroke:rgb(0,0,0);stroke-width:2"/></g>
<g fill-rule="evenodd"><path d="M 3299,2121 L 2705,2121 L 2704,2121 L 2688,2119 L 2686,2119 L 2670,2114 L 2669,2113 L 2655,2105 L 2653,2104 L 2644,2096 L 2638,2092 L 2636,2091 L 2627,2083 L 2626,2082 L 2618,2072 L 2617,2071 L 2612,2059 L 2611,2058 L 2608,2046 L 2608,2044 L 2607,2032 L 2607,2030 L 2609,2018 L 2610,2016 L 2614,2004 L 2615,2003 L 2621,1992 L 2622,1991 L 2631,1982 L 2632,1981 L 2642,1974 L 2644,1973 L 2645,1973 L 2653,1965 L 2655,1964 L 2669,1956 L 2670,1955 L 2686,1950 L 2688,1950 L 2704,1948 L 2705,1948 L 3335,1948 L 3336,1948 L 3356,1951 L 3358,1951 L 3377,1959 L 3379,1960 L 3395,1973 L 3396,1973 L 3568,2146 L 3569,2146 L 3579,2159 L 3580,2160 L 3588,2175 L 3588,2177 L 3592,2193 L 3593,2194 L 3594,2211 L 3593,2212 L 3591,2228 L 3590,2230 L 3585,2245 L 3584,2247 L 3575,2261 L 3574,2262 L 3562,2274 L 3561,2275 L 3547,2284 L 3546,2284 L 3530,2290 L 3529,2291 L 3512,2293 L 3511,2293 L 3494,2292 L 3493,2292 L 3477,2288 L 3475,2287 L 3461,2280 L 3459,2279 L 3446,2269 L 3446,2268 L 3299,2121 z " style="fill-opacity:1.000000;fill:rgb(118,90,46);stroke:rgb(0,0,0);stroke-width:2"/></g>
<g fill-rule="evenodd"><path d="M 3288,1082 L 3458,912 L 3458,912 L 3471,901 L 3472,900 L 3487,893 L 3489,892 L 3505,888 L 3506,888 L 3523,887 L 3524,887 L 3541,889 L 3542,890 L 3557,896 L 3559,897 L 3573,906 L 3574,907 L 3586,918 L 3587,919 L 3596,933 L 3596,935 L 3602,950 L 3603,952 L 3605,968 L 3605,970 L 3605,986 L 3604,988 L 3600,1004 L 3599,1005 L 3592,1020 L 3591,1021 L 3581,1034 L 3580,1035 L 3385,1230 L 3384,1230 L 3368,1243 L 3366,1244 L 3347,1252 L 3345,1252 L 3325,1255 L 3324,1255 L 2705,1255 L 2704,1255 L 2688,1253 L 2686,1253 L 2670,1248 L 2669,1247 L 2655,1239 L 2653,1238 L 2644,1230 L 2638,1226 L 2636,1225 L 2627,1217 L 2626,1216 L 2618,1206 L 2617,1205 L 2612,1194 L 2611,1192 L 2608,1180 L 2608,1178 L 2607,1166 L 2607,1164 L 2609,1152 L 2610,1150 L 2614,1138 L 2615,1137 L 2621,1126 L 2622,1125 L 2631,1116 L 2632,1115 L 2642,1108 L 2644,1107 L 2645,1107 L 2653,1099 L 2655,1098 L 2669,1090 L 2670,1089 L 2686,1084 L 2688,1084 L 2704,1082 L 2705,1082 L 3288,1082 z " style="fill-opacity:1.000000;fill:rgb(99,51,159);stroke:rgb(0,0,0);stroke-width:2"/></g>
<g fill-rule="evenodd"><path d="M 3366,1688 L 2705,1688 L 2704,1688 L 2688,1686 L 2686,1686 L 2670,1681 L 2669,1680 L 2655,1672 L 2653,1671 L 2644,1663 L 2638,1659 L 2636,1658 L 2627,1650 L 2626,1649 L 2618,1639 L 2617,1638 L 2612,1626 L 2611,1625 L 2608,1613 L 2608,1611 L 2607,1599 L 2607,1597 L 2609,1585 L 2610,1583 L 2614,1571 L 2615,1570 L 2621,1559 L 2622,1558 L 2631,1549 L 2632,1548 L 2642,1541 L 2644,1540 L 2645,1540 L 2653,1532 L 2655,1531 L 2669,1523 L 2670,1522 L 2686,1517 L 2688,1517 L 2704,1515 L 2705,1515 L 3402,1515 L 3403,1515 L 3423,1518 L 3425,1518 L 3444,1526 L 3446,1527 L 3462,1540 L 3463,1540 L 3568,1646 L 3569,1646 L 3579,1659 L 3580,1661 L 3588,1675 L 3588,1677 L 3592,1693 L 3593,1694 L 3594,1711 L 3593,1712 L 3591,1729 L 3590,1730 L 3585,1746 L 3584,1747 L 3575,1761 L 3574,1762 L 3562,1774 L 3561,1775 L 3547,1784 L 3546,1784 L 3530,1790 L 3529,1791 L 3512,1793 L 3511,1793 L 3494,1793 L 3493,1792 L 3477,1788 L 3475,1787 L 3461,1780 L 3459,1779 L 3446,1769 L 3446,1768 L 3366,1688 z " style="fill-opacity:1.000000;fill:rgb(201,154,102);stroke:rgb(0,0,0);stroke-width:2"/></g>
<g fill-rule="evenodd"><path d="M 851,3327 L 4591,3327 L 4645,3273 L 4646,3273 L 4662,3260 L 4664,3259 L 4683,3251 L 4685,3251 L 4706,3248 L 4707,3248 L 6756,3248 L 6762,3242 L 6763,3242 L 6779,3229 L 6781,3228 L 6800,3220 L 6802,3220 L 6822,3217 L 6823,3217 L 7756,3217 L 7757,3217 L 7773,3219 L 7775,3219 L 7791,3224 L 7792,3225 L 7806,3233 L 7808,3234 L 7810,3236 L 7816,3236 L 7818,3236 L 7820,3236 L 7821,3237 L 7822,3239 L 7823,3240 L 7824,3242 L 7824,3243 L 7824,3250 L 7831,3259 L 7832,3261 L 7838,3276 L 7839,3278 L 7842,3294 L 7842,3295 L 7842,3312 L 7842,3313 L 7839,3329 L 7838,3331 L 7832,3346 L 7831,3347 L 7824,3357 L 7824,3363 L 7824,3365 L 7823,3367 L 7822,3368 L 7821,3370 L 7820,3371 L 7818,3371 L 7816,3371 L 7810,3371 L 7808,3373 L 7806,3374 L 7792,3382 L 7791,3383 L 7775,3388 L 7773,3388 L 7757,3390 L 7756,3390 L 6862,3390 L 6862,3396 L 6861,3398 L 6861,3399 L 6860,3401 L 6859,3402 L 6857,3403 L 6855,3404 L 6854,3404 L 6843,3404 L 6836,3409 L 6835,3410 L 6816,3418 L 6814,3418 L 6793,3421 L 6792,3421 L 4742,3421 L 4704,3459 L 4704,3483 L 4704,3484 L 4703,3486 L 4702,3487 L 4701,3489 L 4700,3490 L 4698,3490 L 4696,3490 L 4667,3490 L 4651,3497 L 4649,3498 L 4628,3500 L 4627,3500 L 815,3500 L 814,3500 L 793,3498 L 791,3497 L 772,3489 L 771,3488 L 754,3476 L 754,3475 L 387,3108 L 386,3107 L 376,3095 L 375,3093 L 367,3078 L 367,3077 L 362,3061 L 362,3059 L 361,3043 L 361,3041 L 364,3025 L 364,3023 L 370,3008 L 371,3007 L 380,2993 L 381,2992 L 393,2980 L 394,2979 L 408,2970 L 409,2969 L 425,2963 L 426,2963 L 442,2960 L 444,2960 L 461,2961 L 462,2961 L 478,2966 L 480,2966 L 494,2974 L 496,2975 L 508,2985 L 509,2985 L 851,3327 z " style="fill-opacity:1.000000;fill:rgb(50,13,183);stroke:rgb(0,0,0);stroke-width:2"/></g>
<g fill-rule="evenodd"><path d="M 5765,2358 L 5711,2412 L 5711,2413 L 5694,2425 L 5693,2426 L 5674,2434 L 5672,2435 L 5651,2437 L 5650,2438 L 4451,2438 L 4450,2437 L 4430,2435 L 4428,2434 L 4409,2426 L 4407,2425 L 4391,2413 L 4390,2412 L 4246,2268 L 4245,2267 L 4232,2251 L 4231,2249 L 4224,2230 L 4223,2228 L 4220,2208 L 4220,2207 L 4220,1707 L 4220,1706 L 4222,1690 L 4222,1688 L 4228,1673 L 4228,1671 L 4236,1657 L 4237,1655 L 4248,1643 L 4250,1642 L 4263,1632 L 4264,1632 L 4279,1625 L 4281,1624 L 4297,1621 L 4299,1621 L 4315,1621 L 4317,1621 L 4333,1624 L 4334,1625 L 4349,1632 L 4351,1632 L 4364,1642 L 4365,1643 L 4376,1655 L 4377,1657 L 4386,1671 L 4386,1673 L 4391,1688 L 4392,1690 L 4393,1706 L 4394,1707 L 4394,2171 L 4487,2264 L 5614,2264 L 5660,2219 L 5660,2210 L 5660,2208 L 5661,2207 L 5662,2205 L 5663,2204 L 5665,2203 L 5666,2203 L 5668,2202 L 5679,2202 L 5685,2197 L 5687,2196 L 5706,2188 L 5708,2188 L 5728,2185 L 5729,2185 L 7704,2185 L 7708,2182 L 7710,2181 L 7724,2173 L 7726,2173 L 7742,2168 L 7743,2168 L 7760,2167 L 7762,2167 L 7778,2170 L 7779,2170 L 7795,2176 L 7796,2177 L 7810,2186 L 7816,2186 L 7818,2186 L 7820,2187 L 7821,2188 L 7822,2189 L 7823,2190 L 7824,2192 L 7824,2194 L 7824,2200 L 7833,2214 L 7834,2215 L 7840,2231 L 7840,2232 L 7843,2248 L 7843,2250 L 7842,2266 L 7841,2268 L 7837,2284 L 7837,2286 L 7829,2300 L 7828,2302 L 7824,2307 L 7824,2314 L 7824,2315 L 7823,2317 L 7822,2319 L 7821,2320 L 7820,2321 L 7818,2321 L 7816,2322 L 7811,2322 L 7799,2333 L 7799,2334 L 7782,2346 L 7781,2347 L 7762,2355 L 7760,2356 L 7739,2358 L 7738,2358 L 5765,2358 z " style="fill-opacity:1.000000;fill:rgb(49,88,163);stroke:rgb(0,0,0);stroke-width:2"/></g>
<g fill-rule="evenodd"><path d="M 18,0 L 7896,0 L 7897,0 L 7899,0 L 7901,0 L 7903,1 L 7905,2 L 7907,3 L 7908,4 L 7909,6 L 7911,7 L 7912,9 L 7913,10 L 7913,13 L 7914,14 L 7914,16 L 7914,17 L 7914,3797 L 7914,3798 L 7913,3801 L 7913,3803 L 7911,3806 L 7911,3807 L 7910,3808 L 7909,3809 L 7908,3810 L 7907,3811 L 7905,3812 L 7905,3812 L 7903,3813 L 7902,3813 L 7901,3814 L 7900,3814 L 7897,3814 L 7896,3814 L 18,3814 L 17,3814 L 15,3814 L 13,3814 L 11,3813 L 9,3812 L 7,3811 L 6,3810 L 4,3808 L 3,3807 L 2,3805 L 1,3803 L 1,3801 L 0,3800 L 0,3797 L 0,3797 L 0,17 L 0,16 L 0,14 L 1,13 L 1,10 L 2,9 L 3,7 L 4,6 L 6,4 L 7,3 L 9,2 L 11,1 L 13,0 L 15,0 L 17,0 L 18,0M 817,3525 L 4626,3525 L 4668,3516 L 4670,3516 L 4694,3516 L 4708,3513 L 4719,3506 L 4726,3495 L 4729,3481 L 4729,3476 L 4729,3475 L 4730,3472 L 4730,3470 L 4731,3468 L 4732,3466 L 4734,3464 L 4735,3463 L 4747,3450 L 4748,3450 L 4750,3448 L 4752,3447 L 4754,3446 L 4756,3446 L 4759,3445 L 4760,3445 L 6790,3445 L 6834,3437 L 6841,3432 L 6842,3431 L 6845,3430 L 6847,3429 L 6852,3429 L 6865,3426 L 6880,3417 L 6882,3416 L 6884,3415 L 6886,3415 L 6888,3414 L 6889,3414 L 7754,3414 L 7798,3406 L 7808,3399 L 7809,3399 L 7813,3397 L 7814,3397 L 7828,3394 L 7839,3387 L 7846,3376 L 7849,3362 L 7850,3360 L 7851,3357 L 7852,3355 L 7858,3346 L 7867,3303 L 7858,3261 L 7852,3252 L 7851,3250 L 7850,3247 L 7849,3245 L 7847,3232 L 7840,3221 L 7829,3213 L 7814,3210 L 7813,3210 L 7809,3208 L 7808,3208 L 7798,3201 L 7754,3193 L 6825,3193 L 6781,3201 L 6752,3221 L 6751,3221 L 6748,3222 L 6746,3223 L 6743,3223 L 6742,3224 L 4708,3224 L 4664,3232 L 4627,3257 L 4587,3298 L 4586,3298 L 4584,3300 L 4582,3301 L 4580,3302 L 4578,3302 L 4575,3303 L 4574,3303 L 868,3303 L 867,3303 L 864,3302 L 863,3302 L 860,3301 L 858,3300 L 856,3298 L 855,3298 L 527,2970 L 490,2945 L 448,2936 L 406,2945 L 370,2969 L 351,2996 L 351,2997 L 350,2998 L 348,2999 L 347,3001 L 345,3002 L 343,3002 L 342,3003 L 340,3004 L 338,3004 L 336,3004 L 334,3004 L 332,3003 L 331,3003 L 329,3002 L 327,3001 L 325,3000 L 324,2999 L 323,2997 L 322,2996 L 321,2994 L 320,2993 L 319,2991 L 319,2989 L 319,2987 L 319,2986 L 319,1991 L 319,1991 L 319,1988 L 319,1987 L 320,1985 L 321,1983 L 322,1982 L 323,1980 L 324,1979 L 325,1978 L 327,1976 L 328,1975 L 330,1975 L 332,1974 L 334,1974 L 336,1974 L 338,1974 L 339,1974 L 341,1974 L 343,1975 L 345,1976 L 346,1976 L 348,1978 L 349,1979 L 351,1980 L 352,1982 L 353,1984 L 353,1986 L 356,1996 L 380,2032 L 415,2056 L 460,2065 L 825,2065 L 826,2065 L 842,2068 L 885,2059 L 920,2035 L 944,2000 L 953,1957 L 944,1915 L 919,1878 L 918,1877 L 881,1852 L 837,1843 L 460,1843 L 416,1852 L 380,1876 L 356,1912 L 353,1922 L 353,1924 L 352,1926 L 351,1927 L 349,1929 L 348,1930 L 346,1931 L 345,1932 L 343,1933 L 341,1933 L 339,1934 L 338,1934 L 336,1934 L 334,1934 L 332,1933 L 330,1933 L 328,1932 L 327,1931 L 325,1930 L 324,1929 L 323,1927 L 322,1926 L 321,1924 L 320,1923 L 319,1921 L 319,1919 L 319,1917 L 319,1916 L 319,1598 L 319,1597 L 319,1595 L 319,1593 L 320,1591 L 321,1590 L 322,1588 L 323,1587 L 324,1585 L 325,1584 L 327,1583 L 328,1582 L 330,1581 L 332,1581 L 334,1580 L 336,1580 L 338,1580 L 339,1580 L 341,1581 L 343,1581 L 345,1582 L 346,1583 L 348,1584 L 349,1585 L 351,1587 L 352,1588 L 353,1590 L 353,1591 L 354,1593 L 354,1594 L 356,1602 L 380,1638 L 415,1662 L 460,1671 L 785,1671 L 787,1671 L 803,1674 L 845,1666 L 881,1642 L 905,1606 L 913,1564 L 905,1521 L 880,1484 L 879,1483 L 842,1458 L 798,1449 L 460,1449 L 416,1458 L 380,1482 L 356,1518 L 353,1528 L 353,1530 L 352,1532 L 351,1534 L 349,1535 L 348,1536 L 346,1538 L 345,1538 L 343,1539 L 341,1540 L 339,1540 L 338,1540 L 336,1540 L 334,1540 L 332,1540 L 330,1539 L 328,1538 L 327,1538 L 325,1536 L 324,1535 L 323,1534 L 322,1532 L 321,1531 L 320,1529 L 319,1527 L 319,1525 L 319,1523 L 319,1523 L 319,1204 L 319,1203 L 319,1201 L 319,1200 L 320,1198 L 321,1196 L 322,1194 L 323,1193 L 324,1191 L 325,1190 L 327,1189 L 328,1188 L 330,1187 L 332,1187 L 334,1186 L 336,1186 L 338,1186 L 339,1187 L 341,1187 L 343,1188 L 345,1188 L 346,1189 L 348,1190 L 349,1192 L 351,1193 L 352,1195 L 353,1196 L 353,1198 L 354,1200 L 354,1201 L 356,1209 L 380,1245 L 415,1269 L 460,1277 L 785,1277 L 787,1278 L 803,1281 L 845,1272 L 881,1248 L 905,1212 L 913,1170 L 905,1128 L 880,1090 L 879,1089 L 842,1064 L 798,1056 L 460,1056 L 416,1064 L 380,1088 L 356,1124 L 354,1132 L 354,1133 L 353,1135 L 353,1137 L 352,1139 L 351,1140 L 349,1142 L 348,1143 L 346,1144 L 345,1145 L 343,1146 L 341,1146 L 339,1147 L 338,1147 L 336,1147 L 334,1147 L 332,1146 L 330,1146 L 328,1145 L 327,1144 L 325,1143 L 324,1142 L 323,1140 L 322,1139 L 321,1137 L 320,1135 L 319,1133 L 319,1132 L 319,1130 L 319,1129 L 319,960 L 319,959 L 319,957 L 320,955 L 321,952 L 322,951 L 323,949 L 324,948 L 448,823 L 449,823 L 451,821 L 453,820 L 456,819 L 457,818 L 460,818 L 461,818 L 4190,818 L 4191,818 L 4193,818 L 4195,819 L 4197,819 L 4199,820 L 4200,821 L 4202,823 L 4203,824 L 4205,826 L 4206,827 L 4206,829 L 4207,831 L 4208,833 L 4208,835 L 4208,836 L 4208,978 L 4217,1022 L 4242,1059 L 4520,1338 L 4521,1338 L 4522,1341 L 4523,1342 L 4524,1345 L 4525,1347 L 4525,1349 L 4525,1350 L 4525,1355 L 4528,1369 L 4535,1380 L 4546,1387 L 4560,1390 L 4585,1390 L 4586,1391 L 4629,1399 L 6475,1399 L 6519,1390 L 6556,1365 L 6715,1207 L 6716,1206 L 6718,1205 L 6719,1204 L 6722,1203 L 6724,1202 L 6726,1202 L 6727,1202 L 7590,1202 L 7591,1202 L 7593,1202 L 7595,1203 L 7598,1204 L 7599,1205 L 7602,1206 L 7602,1207 L 7660,1265 L 7661,1266 L 7663,1268 L 7664,1270 L 7665,1273 L 7665,1274 L 7666,1276 L 7673,1287 L 7683,1294 L 7698,1297 L 7699,1297 L 7703,1299 L 7704,1300 L 7714,1306 L 7756,1314 L 7798,1306 L 7808,1300 L 7809,1299 L 7813,1297 L 7814,1297 L 7828,1295 L 7839,1287 L 7846,1277 L 7849,1262 L 7850,1261 L 7851,1257 L 7852,1256 L 7858,1246 L 7867,1204 L 7858,1162 L 7852,1152 L 7851,1151 L 7850,1147 L 7849,1146 L 7847,1132 L 7840,1121 L 7829,1114 L 7826,1113 L 7825,1113 L 7823,1112 L 7821,1111 L 7818,1109 L 7817,1108 L 7723,1014 L 7685,989 L 7641,980 L 6676,980 L 6632,989 L 6625,993 L 6624,994 L 6621,995 L 6619,996 L 6615,996 L 6601,999 L 6590,1006 L 6582,1017 L 6581,1023 L 6581,1024 L 6580,1027 L 6579,1029 L 6577,1031 L 6576,1032 L 6436,1172 L 6435,1173 L 6433,1174 L 6431,1175 L 6429,1176 L 6427,1177 L 6424,1177 L 6423,1177 L 4681,1177 L 4680,1177 L 4677,1177 L 4675,1176 L 4673,1175 L 4671,1174 L 4669,1173 L 4668,1172 L 4435,939 L 4434,938 L 4433,936 L 4432,934 L 4431,932 L 4430,930 L 4430,927 L 4430,926 L 4430,721 L 4421,677 L 4396,639 L 4387,630 L 4349,605 L 4305,596 L 410,596 L 366,605 L 328,630 L 131,828 L 106,865 L 97,909 L 97,3199 L 106,3243 L 131,3280 L 352,3501 L 353,3502 L 355,3505 L 356,3507 L 357,3510 L 357,3511 L 357,3512 L 364,3523 L 375,3530 L 390,3533 L 391,3534 L 395,3535 L 396,3536 L 406,3542 L 448,3551 L 490,3542 L 499,3536 L 501,3535 L 505,3534 L 506,3533 L 520,3531 L 531,3524 L 538,3513 L 541,3498 L 541,3497 L 543,3493 L 544,3492 L 550,3483 L 558,3440 L 550,3398 L 544,3389 L 543,3387 L 541,3383 L 541,3382 L 538,3369 L 531,3357 L 521,3350 L 518,3350 L 517,3349 L 514,3348 L 512,3347 L 510,3346 L 509,3345 L 324,3160 L 323,3159 L 322,3157 L 321,3155 L 320,3153 L 319,3151 L 319,3148 L 319,3147 L 319,3107 L 319,3107 L 319,3104 L 319,3103 L 320,3101 L 321,3099 L 322,3097 L 323,3096 L 324,3095 L 325,3093 L 327,3092 L 329,3091 L 331,3091 L 332,3090 L 334,3090 L 336,3090 L 338,3090 L 340,3090 L 342,3090 L 343,3091 L 345,3092 L 347,3093 L 348,3094 L 350,3095 L 351,3097 L 351,3098 L 371,3126 L 735,3491 L 773,3516 L 817,3525M 551,2406 L 551,2289 L 548,2276 L 541,2265 L 531,2257 L 516,2254 L 399,2254 L 386,2257 L 375,2264 L 368,2275 L 365,2289 L 365,2406 L 367,2419 L 374,2430 L 385,2438 L 400,2440 L 516,2440 L 530,2438 L 541,2431 L 548,2420 L 551,2406M 491,2571 L 491,2571 L 461,2560 L 424,2562 L 405,2570 L 405,2571 L 424,2590 L 426,2589 L 428,2588 L 440,2586 L 442,2586 L 454,2586 L 456,2586 L 468,2588 L 470,2589 L 472,2590 L 491,2571M 491,2736 L 491,2735 L 472,2716 L 470,2717 L 468,2718 L 456,2720 L 454,2721 L 442,2721 L 440,2720 L 428,2718 L 426,2717 L 424,2716 L 405,2735 L 405,2736 L 434,2746 L 471,2744 L 491,2736M 385,2629 L 365,2610 L 365,2610 L 355,2639 L 357,2676 L 365,2696 L 365,2696 L 385,2677 L 382,2668 L 381,2666 L 380,2654 L 380,2652 L 381,2640 L 382,2638 L 385,2629M 539,2630 L 531,2610 L 530,2610 L 511,2629 L 514,2638 L 514,2640 L 516,2652 L 516,2654 L 514,2666 L 514,2668 L 511,2677 L 530,2696 L 530,2696 L 541,2667 L 539,2630M 3333,1924 L 2769,1924 L 2768,1924 L 2766,1923 L 2764,1923 L 2762,1922 L 2761,1922 L 2759,1920 L 2757,1919 L 2756,1918 L 2755,1916 L 2754,1915 L 2753,1913 L 2752,1911 L 2752,1909 L 2751,1907 L 2751,1905 L 2751,1903 L 2752,1902 L 2752,1900 L 2753,1898 L 2754,1896 L 2755,1895 L 2757,1893 L 2758,1892 L 2760,1891 L 2761,1890 L 2763,1889 L 2764,1889 L 2777,1885 L 2805,1862 L 2822,1831 L 2821,1829 L 2797,1829 L 2796,1831 L 2795,1833 L 2789,1844 L 2788,1845 L 2779,1854 L 2778,1855 L 2767,1862 L 2766,1863 L 2755,1868 L 2753,1868 L 2741,1871 L 2739,1871 L 2677,1871 L 2676,1871 L 2664,1870 L 2662,1870 L 2650,1866 L 2649,1865 L 2638,1859 L 2636,1858 L 2627,1850 L 2626,1849 L 2618,1839 L 2617,1838 L 2613,1829 L 2588,1829 L 2588,1831 L 2605,1862 L 2633,1885 L 2672,1896 L 2673,1897 L 2675,1897 L 2676,1898 L 2678,1899 L 2679,1901 L 2681,1902 L 2682,1904 L 2683,1906 L 2683,1907 L 2684,1909 L 2684,1911 L 2685,1913 L 2684,1915 L 2684,1917 L 2684,1919 L 2683,1921 L 2682,1922 L 2681,1924 L 2680,1926 L 2678,1927 L 2677,1928 L 2675,1929 L 2673,1930 L 2671,1931 L 2670,1931 L 2663,1932 L 2643,1946 L 2642,1946 L 2639,1947 L 2608,1968 L 2588,1999 L 2580,2034 L 2588,2070 L 2608,2101 L 2636,2120 L 2637,2120 L 2638,2122 L 2640,2123 L 2641,2125 L 2642,2126 L 2643,2128 L 2643,2130 L 2644,2132 L 2644,2134 L 2644,2136 L 2644,2138 L 2643,2140 L 2642,2142 L 2641,2144 L 2640,2145 L 2639,2147 L 2637,2149 L 2634,2150 L 2605,2174 L 2588,2205 L 2588,2207 L 2613,2207 L 2614,2204 L 2615,2203 L 2621,2192 L 2622,2191 L 2631,2182 L 2632,2181 L 2642,2174 L 2644,2173 L 2655,2168 L 2657,2168 L 2669,2165 L 2671,2165 L 2733,2165 L 2734,2165 L 2746,2166 L 2748,2166 L 2760,2170 L 2761,2171 L 2772,2177 L 2773,2178 L 2783,2186 L 2784,2187 L 2792,2197 L 2793,2198 L 2797,2207 L 2821,2207 L 2822,2205 L 2804,2172 L 2804,2171 L 2803,2169 L 2802,2167 L 2802,2165 L 2802,2163 L 2802,2161 L 2802,2159 L 2803,2157 L 2804,2155 L 2805,2153 L 2806,2152 L 2808,2150 L 2809,2149 L 2811,2148 L 2813,2147 L 2815,2146 L 2816,2146 L 2819,2145 L 2820,2145 L 3281,2145 L 3282,2145 L 3285,2146 L 3287,2146 L 3289,2147 L 3291,2148 L 3293,2150 L 3294,2151 L 3427,2284 L 3465,2309 L 3507,2317 L 3549,2309 L 3585,2285 L 3609,2249 L 3618,2207 L 3609,2165 L 3584,2127 L 3414,1957 L 3377,1932 L 3333,1924M 2588,2264 L 2605,2295 L 2633,2318 L 2669,2329 L 2677,2329 L 2677,2304 L 2677,2304 L 2676,2304 L 2664,2303 L 2662,2303 L 2650,2299 L 2649,2298 L 2638,2292 L 2636,2291 L 2627,2283 L 2626,2282 L 2618,2272 L 2617,2271 L 2613,2262 L 2588,2262 L 2588,2264M 2822,2264 L 2821,2262 L 2797,2262 L 2796,2264 L 2795,2266 L 2789,2277 L 2788,2278 L 2779,2287 L 2778,2288 L 2767,2295 L 2766,2296 L 2755,2301 L 2753,2301 L 2741,2304 L 2739,2304 L 2733,2304 L 2733,2329 L 2740,2329 L 2777,2318 L 2805,2295 L 2822,2264M 3629,973 L 3621,931 L 3597,895 L 3561,871 L 3519,863 L 3477,871 L 3439,896 L 3283,1052 L 3282,1053 L 3280,1055 L 3278,1056 L 3276,1057 L 3274,1057 L 3271,1058 L 3270,1058 L 2707,1058 L 2663,1066 L 2643,1080 L 2642,1080 L 2639,1081 L 2608,1102 L 2588,1133 L 2580,1169 L 2588,1204 L 2608,1235 L 2636,1254 L 2637,1254 L 2638,1256 L 2640,1257 L 2641,1259 L 2642,1260 L 2643,1262 L 2643,1264 L 2644,1266 L 2644,1268 L 2644,1270 L 2644,1272 L 2643,1274 L 2642,1276 L 2641,1278 L 2640,1279 L 2639,1281 L 2637,1283 L 2634,1284 L 2605,1308 L 2588,1339 L 2588,1341 L 2613,1341 L 2614,1338 L 2615,1337 L 2621,1326 L 2622,1325 L 2631,1316 L 2632,1315 L 2642,1308 L 2644,1307 L 2655,1302 L 2657,1302 L 2669,1299 L 2671,1299 L 2733,1299 L 2734,1299 L 2746,1300 L 2748,1300 L 2760,1304 L 2761,1305 L 2772,1311 L 2773,1312 L 2783,1320 L 2784,1321 L 2792,1331 L 2793,1332 L 2797,1341 L 2821,1341 L 2822,1339 L 2804,1306 L 2804,1305 L 2803,1303 L 2802,1301 L 2802,1299 L 2802,1297 L 2802,1295 L 2802,1293 L 2803,1291 L 2804,1289 L 2805,1287 L 2806,1286 L 2808,1284 L 2809,1283 L 2811,1282 L 2813,1281 L 2815,1280 L 2816,1280 L 2819,1279 L 2820,1279 L 3322,1279 L 3366,1271 L 3403,1246 L 3596,1053 L 3621,1016 L 3629,973M 3400,1491 L 2769,1491 L 2768,1491 L 2766,1490 L 2764,1490 L 2762,1489 L 2761,1489 L 2759,1487 L 2757,1486 L 2756,1485 L 2755,1484 L 2754,1482 L 2753,1480 L 2752,1478 L 2752,1476 L 2751,1474 L 2751,1473 L 2751,1470 L 2752,1469 L 2752,1467 L 2753,1465 L 2754,1463 L 2755,1462 L 2757,1460 L 2758,1459 L 2760,1458 L 2761,1457 L 2763,1456 L 2764,1456 L 2777,1452 L 2805,1429 L 2822,1398 L 2821,1396 L 2797,1396 L 2796,1399 L 2795,1400 L 2789,1411 L 2788,1412 L 2779,1421 L 2778,1422 L 2767,1429 L 2766,1430 L 2755,1435 L 2753,1435 L 2741,1438 L 2739,1438 L 2677,1438 L 2676,1438 L 2664,1437 L 2662,1437 L 2650,1433 L 2649,1432 L 2638,1426 L 2636,1425 L 2627,1417 L 2626,1416 L 2618,1406 L 2617,1405 L 2613,1396 L 2588,1396 L 2588,1398 L 2605,1429 L 2633,1452 L 2672,1463 L 2673,1464 L 2675,1464 L 2676,1465 L 2678,1467 L 2679,1468 L 2681,1469 L 2682,1471 L 2683,1473 L 2683,1474 L 2684,1476 L 2684,1478 L 2685,1480 L 2684,1482 L 2684,1484 L 2684,1486 L 2683,1488 L 2682,1490 L 2681,1491 L 2680,1493 L 2678,1494 L 2677,1495 L 2675,1496 L 2673,1497 L 2671,1498 L 2670,1498 L 2663,1499 L 2643,1513 L 2642,1513 L 2639,1514 L 2608,1535 L 2588,1566 L 2580,1602 L 2588,1637 L 2608,1668 L 2636,1687 L 2637,1687 L 2638,1689 L 2640,1690 L 2641,1692 L 2642,1693 L 2643,1695 L 2643,1697 L 2644,1699 L 2644,1701 L 2644,1703 L 2644,1705 L 2643,1707 L 2642,1709 L 2641,1711 L 2640,1712 L 2639,1714 L 2637,1716 L 2634,1717 L 2605,1741 L 2588,1772 L 2588,1774 L 2613,1774 L 2614,1771 L 2615,1770 L 2621,1759 L 2622,1758 L 2631,1749 L 2632,1748 L 2642,1741 L 2644,1740 L 2655,1735 L 2657,1735 L 2669,1732 L 2671,1732 L 2733,1732 L 2734,1732 L 2746,1733 L 2748,1733 L 2760,1737 L 2761,1738 L 2772,1744 L 2773,1745 L 2783,1753 L 2784,1754 L 2792,1764 L 2793,1765 L 2797,1774 L 2821,1774 L 2822,1772 L 2804,1739 L 2804,1738 L 2803,1736 L 2802,1734 L 2802,1732 L 2802,1730 L 2802,1728 L 2802,1726 L 2803,1724 L 2804,1722 L 2805,1720 L 2806,1719 L 2808,1717 L 2809,1716 L 2811,1715 L 2813,1714 L 2815,1713 L 2816,1713 L 2819,1712 L 2820,1712 L 3348,1712 L 3349,1712 L 3352,1713 L 3354,1713 L 3356,1714 L 3358,1715 L 3360,1717 L 3361,1718 L 3427,1784 L 3465,1809 L 3507,1817 L 3549,1809 L 3585,1785 L 3609,1749 L 3618,1707 L 3609,1665 L 3584,1627 L 3481,1524 L 3444,1499 L 3400,1491M 4525,1915 L 4517,1957 L 4525,2000 L 4549,2035 L 4585,2059 L 4629,2068 L 5452,2068 L 5496,2059 L 5534,2034 L 5717,1851 L 5717,1851 L 5719,1849 L 5721,1848 L 5723,1847 L 5724,1847 L 5727,1846 L 5728,1846 L 5731,1846 L 5732,1846 L 5734,1847 L 5736,1847 L 5738,1848 L 5740,1849 L 5741,1851 L 5742,1851 L 5828,1937 L 5865,1962 L 5910,1971 L 7754,1971 L 7798,1962 L 7834,1938 L 7858,1902 L 7867,1860 L 7858,1818 L 7834,1782 L 7798,1758 L 7754,1749 L 5961,1749 L 5960,1749 L 5957,1749 L 5955,1748 L 5953,1747 L 5951,1746 L 5949,1745 L 5948,1744 L 5809,1605 L 5772,1580 L 5729,1571 L 5687,1580 L 5650,1605 L 5413,1841 L 5412,1842 L 5410,1844 L 5409,1845 L 5406,1846 L 5404,1846 L 5402,1846 L 5401,1846 L 4629,1846 L 4585,1855 L 4549,1879 L 4525,1915M 4196,2205 L 4205,2249 L 4230,2287 L 4371,2428 L 4409,2453 L 4453,2462 L 5648,2462 L 5692,2453 L 5730,2428 L 5770,2388 L 5771,2387 L 5773,2385 L 5775,2384 L 5777,2383 L 5779,2383 L 5782,2383 L 5783,2383 L 7736,2383 L 7780,2374 L 7821,2347 L 7823,2346 L 7825,2345 L 7826,2345 L 7828,2344 L 7839,2337 L 7846,2326 L 7849,2312 L 7850,2310 L 7851,2307 L 7852,2305 L 7858,2296 L 7867,2254 L 7858,2211 L 7852,2202 L 7851,2201 L 7850,2197 L 7849,2195 L 7847,2182 L 7840,2171 L 7829,2164 L 7814,2161 L 7813,2160 L 7809,2159 L 7808,2158 L 7798,2152 L 7756,2143 L 7714,2152 L 7705,2158 L 7704,2158 L 7701,2160 L 7699,2160 L 7696,2161 L 7695,2161 L 5731,2161 L 5687,2170 L 5680,2174 L 5679,2175 L 5677,2176 L 5674,2177 L 5670,2177 L 5656,2180 L 5645,2187 L 5638,2197 L 5637,2204 L 5636,2205 L 5635,2207 L 5634,2209 L 5632,2212 L 5632,2213 L 5609,2235 L 5609,2236 L 5607,2237 L 5605,2238 L 5602,2239 L 5600,2240 L 5598,2240 L 5597,2240 L 4504,2240 L 4503,2240 L 4501,2240 L 4499,2239 L 4496,2238 L 4495,2237 L 4492,2236 L 4492,2235 L 4423,2166 L 4422,2165 L 4421,2163 L 4420,2162 L 4419,2159 L 4418,2157 L 4418,2155 L 4418,2154 L 4418,1709 L 4409,1665 L 4385,1629 L 4349,1605 L 4307,1596 L 4265,1605 L 4229,1629 L 4205,1665 L 4196,1709 L 4196,2205M 4905,2634 L 4861,2642 L 4823,2667 L 4550,2940 L 4525,2978 L 4517,3020 L 4525,3062 L 4549,3098 L 4585,3122 L 4627,3131 L 4670,3122 L 4707,3097 L 4944,2861 L 4944,2860 L 4946,2858 L 4948,2857 L 4951,2856 L 4953,2856 L 4955,2855 L 4956,2855 L 6739,2855 L 6740,2855 L 6742,2856 L 6744,2856 L 6747,2857 L 6749,2858 L 6751,2860 L 6752,2861 L 6878,2987 L 6915,3012 L 6959,3021 L 7754,3021 L 7798,3012 L 7834,2988 L 7858,2952 L 7867,2910 L 7858,2868 L 7834,2832 L 7798,2808 L 7754,2799 L 7011,2799 L 7010,2799 L 7007,2799 L 7005,2798 L 7003,2797 L 7001,2796 L 6999,2794 L 6998,2794 L 6872,2667 L 6834,2642 L 6790,2634 L 4905,2634M 4527,2651 L 4537,2675 L 4539,2676 L 4557,2657 L 4557,2657 L 4552,2643 L 4552,2642 L 4551,2627 L 4551,2626 L 4552,2611 L 4552,2610 L 4557,2596 L 4557,2596 L 4539,2577 L 4538,2578 L 4526,2611 L 4527,2651M 4729,2642 L 4727,2602 L 4718,2578 L 4716,2577 L 4698,2596 L 4698,2596 L 4702,2610 L 4703,2611 L 4704,2626 L 4704,2627 L 4703,2642 L 4702,2643 L 4698,2657 L 4698,2657 L 4716,2676 L 4717,2675 L 4729,2642M 4578,2715 L 4579,2716 L 4612,2728 L 4652,2726 L 4676,2717 L 4676,2715 L 4658,2696 L 4652,2699 L 4650,2700 L 4636,2703 L 4635,2703 L 4620,2703 L 4618,2703 L 4604,2700 L 4603,2699 L 4597,2696 L 4578,2715M 4579,2536 L 4578,2538 L 4597,2556 L 4603,2554 L 4604,2553 L 4618,2550 L 4620,2550 L 4635,2550 L 4636,2550 L 4650,2553 L 4652,2554 L 4658,2556 L 4676,2538 L 4676,2537 L 4643,2525 L 4602,2526 L 4579,2536M 4629,1005 L 6279,1005 L 6323,997 L 6360,972 L 6715,617 L 6716,616 L 6718,615 L 6719,614 L 6722,613 L 6724,612 L 6726,612 L 6727,612 L 7393,612 L 7394,612 L 7397,612 L 7399,613 L 7401,614 L 7403,615 L 7405,616 L 7406,617 L 7677,887 L 7714,912 L 7756,921 L 7798,912 L 7834,888 L 7858,853 L 7867,810 L 7858,768 L 7833,731 L 7526,424 L 7489,399 L 7445,390 L 6676,390 L 6632,399 L 6594,424 L 6240,778 L 6239,779 L 6237,781 L 6235,782 L 6233,783 L 6231,783 L 6228,784 L 6227,784 L 4629,784 L 4585,792 L 4549,816 L 4525,852 L 4517,895 L 4525,937 L 4549,973 L 4585,997 L 4629,1005M 4612,1665 L 4652,1664 L 4676,1654 L 4676,1652 L 4658,1634 L 4652,1636 L 4650,1637 L 4636,1640 L 4635,1640 L 4620,1640 L 4618,1640 L 4604,1637 L 4603,1636 L 4597,1634 L 4578,1652 L 4579,1653 L 4612,1665M 4698,1595 L 4716,1613 L 4717,1612 L 4729,1579 L 4727,1539 L 4718,1515 L 4716,1515 L 4698,1533 L 4698,1533 L 4702,1547 L 4703,1549 L 4704,1563 L 4704,1565 L 4703,1579 L 4702,1580 L 4698,1594 L 4698,1595M 4526,1548 L 4527,1589 L 4537,1612 L 4539,1613 L 4557,1595 L 4557,1594 L 4552,1580 L 4552,1579 L 4551,1565 L 4551,1563 L 4552,1549 L 4552,1547 L 4557,1533 L 4557,1533 L 4539,1515 L 4538,1515 L 4526,1548M 4579,1473 L 4578,1475 L 4597,1494 L 4603,1491 L 4604,1491 L 4618,1488 L 4620,1487 L 4635,1487 L 4636,1488 L 4650,1491 L 4652,1491 L 4658,1494 L 4676,1475 L 4676,1474 L 4643,1462 L 4602,1464 L 4579,1473M 4727,476 L 4718,452 L 4716,452 L 4698,470 L 4698,471 L 4702,484 L 4703,486 L 4704,500 L 4704,502 L 4703,516 L 4702,518 L 4698,531 L 4698,532 L 4716,550 L 4717,550 L 4729,517 L 4727,476M 4526,485 L 4527,526 L 4537,549 L 4539,550 L 4557,532 L 4557,531 L 4552,518 L 4552,516 L 4551,502 L 4551,500 L 4552,486 L 4552,484 L 4557,471 L 4557,470 L 4539,452 L 4538,452 L 4526,485M 4579,591 L 4612,603 L 4652,601 L 4676,591 L 4676,589 L 4658,571 L 4652,574 L 4650,574 L 4636,577 L 4635,577 L 4620,577 L 4618,577 L 4604,574 L 4603,574 L 4597,571 L 4578,589 L 4579,591M 4579,411 L 4578,412 L 4597,431 L 4603,428 L 4604,428 L 4618,425 L 4620,425 L 4635,425 L 4636,425 L 4650,428 L 4652,428 L 4658,431 L 4676,412 L 4676,411 L 4643,399 L 4602,401 L 4579,411 z " style="fill-opacity:1.000000;fill:rgb(90,37,93);stroke:rgb(0,0,0);stroke-width:2"/></g>
</svg>
