<?xml version="1.0" standalone="no"?>
<!DOCTYPE svg PUBLIC "-//W3C//DTD SVG 1.1//EN"
"http://www.w3.org/Graphics/SVG/1.1/DTD/svg11.dtd">
<svg width="7900" height="3800" viewBox="0 0 7900 3800" version="1.1"
xmlns="http://www.w3.org/2000/svg"
xmlns:xlink="http://www.w3.org/1999/xlink">
<g fill-rule="evenodd"><path d="M 812,2025 L 450,2025 L 433,2023 L 417,2018 L 403,2010 L 391,1999 L 381,1986 L 375,1971 L 371,1955 L 371,1938 L 375,1922 L 381,1907 L 391,1894 L 403,1883 L 417,1874 L 433,1869 L 450,1868 L 831,1868 L 851,1870 L 870,1878 L 886,1891 L 890,1894 L 900,1907 L 908,1922 L 912,1938 L 913,1954 L 910,1970 L 904,1986 L 895,1999 L 884,2011 L 870,2020 L 855,2026 L 838,2029 L 822,2028 L 812,2025 z " style="fill-opacity:1.000000;fill:rgb(103,198,105);stroke:rgb(0,0,0);stroke-width:2"/></g>
<g fill-rule="evenodd"><path d="M 773,1238 L 450,1238 L 433,1236 L 417,1231 L 403,1223 L 391,1212 L 381,1198 L 375,1183 L 371,1167 L 371,1151 L 375,1135 L 381,1120 L 391,1106 L 403,1095 L 417,1087 L 433,1082 L 450,1080 L 791,1080 L 812,1083 L 831,1091 L 847,1103 L 850,1107 L 861,1120 L 868,1134 L 873,1150 L 873,1167 L 871,1183 L 865,1198 L 856,1212 L 844,1224 L 831,1233 L 815,1239 L 799,1241 L 782,1240 L 773,1238 z " style="fill-opacity:1.000000;fill:rgb(115,81,255);stroke:rgb(0,0,0);stroke-width:2"/></g>
<g fill-rule="evenodd"><path d="M 773,1631 L 450,1631 L 433,1630 L 417,1625 L 403,1616 L 391,1605 L 381,1592 L 375,1577 L 371,1561 L 371,1544 L 375,1528 L 381,1513 L 391,1500 L 403,1489 L 417,1481 L 433,1476 L 450,1474 L 791,1474 L 812,1477 L 831,1484 L 847,1497 L 850,1501 L 861,1513 L 868,1528 L 873,1544 L 873,1560 L 871,1577 L 865,1592 L 856,1606 L 844,1617 L 831,1626 L 815,1632 L 799,1635 L 782,1634 L 773,1631 z " style="fill-opacity:1.000000;fill:rgb(74,236,41);stroke:rgb(0,0,0);stroke-width:2"/></g>
<g fill-rule="evenodd"><path d="M 5722,1786 L 5502,2006 L 5486,2018 L 5467,2026 L 5447,2029 L 4620,2029 L 4604,2027 L 4588,2022 L 4574,2014 L 4561,2003 L 4552,1989 L 4545,1974 L 4542,1958 L 4542,1942 L 4545,1926 L 4552,1911 L 4561,1897 L 4574,1886 L 4588,1878 L 4604,1873 L 4620,1871 L 5414,1871 L 5667,1619 L 5680,1608 L 5696,1600 L 5714,1596 L 5731,1596 L 5748,1600 L 5764,1608 L 5778,1619 L 5933,1774 L 7750,1774 L 7766,1776 L 7782,1781 L 7796,1789 L 7808,1800 L 7818,1813 L 7824,1828 L 7828,1844 L 7828,1861 L 7824,1877 L 7818,1892 L 7808,1905 L 7796,1916 L 7782,1925 L 7766,1930 L 7750,1931 L 5901,1931 L 5880,1929 L 5861,1921 L 5845,1908 L 5722,1786 z " style="fill-opacity:1.000000;fill:rgb(205,186,171);stroke:rgb(0,0,0);stroke-width:2"/></g>
<g fill-rule="evenodd"><path d="M 4928,2816 L 4676,3069 L 4663,3079 L 4648,3086 L 4632,3091 L 4616,3092 L 4600,3089 L 4584,3083 L 4570,3074 L 4559,3062 L 4550,3049 L 4544,3033 L 4541,3017 L 4542,3001 L 4546,2985 L 4554,2970 L 4564,2957 L 4840,2682 L 4856,2669 L 4875,2661 L 4896,2659 L 6785,2659 L 6806,2661 L 6825,2669 L 6841,2682 L 6983,2824 L 7750,2824 L 7766,2826 L 7782,2831 L 7796,2839 L 7808,2850 L 7818,2863 L 7824,2878 L 7828,2894 L 7828,2911 L 7824,2927 L 7818,2942 L 7808,2955 L 7796,2966 L 7782,2975 L 7766,2980 L 7750,2981 L 6951,2981 L 6930,2979 L 6911,2971 L 6895,2958 L 6753,2816 L 4928,2816 z " style="fill-opacity:1.000000;fill:rgb(242,251,227);stroke:rgb(0,0,0);stroke-width:2"/></g>
<g fill-rule="evenodd"><path d="M 6241,808 L 6612,438 L 6628,425 L 6647,417 L 6667,414 L 7440,414 L 7460,417 L 7479,425 L 7496,438 L 7805,747 L 7816,760 L 7823,774 L 7827,790 L 7828,807 L 7826,823 L 7820,838 L 7811,852 L 7799,864 L 7785,873 L 7770,879 L 7754,881 L 7737,880 L 7721,876 L 7707,869 L 7694,858 L 7407,572 L 6700,572 L 6329,943 L 6313,955 L 6294,963 L 6274,966 L 4620,966 L 4604,964 L 4588,959 L 4574,951 L 4561,940 L 4552,926 L 4545,911 L 4542,895 L 4542,879 L 4545,863 L 4552,848 L 4561,834 L 4574,823 L 4588,815 L 4604,810 L 4620,808 L 6241,808 z " style="fill-opacity:1.000000;fill:rgb(70,124,194);stroke:rgb(0,0,0);stroke-width:2"/></g>
<g fill-rule="evenodd"><path d="M 0,10 L 0,7 L 0,5 L 2,3 L 3,2 L 5,0 L 7,0 L 10,0 L 7890,0 L 7892,0 L 7894,0 L 7896,2 L 7897,3 L 7899,5 L 7899,7 L 7900,10 L 7900,3790 L 7899,3793 L 7898,3795 L 7895,3798 L 7893,3799 L 7890,3800 L 10,3800 L 7,3799 L 5,3799 L 3,3797 L 2,3796 L 0,3794 L 0,3792 L 0,3790 L 0,900 L 0,10M 808,3525 L 4619,3525 L 4663,3517 L 4688,3516 L 4704,3514 L 4717,3505 L 4726,3491 L 4730,3474 L 4730,3469 L 4730,3466 L 4731,3464 L 4733,3462 L 4746,3449 L 4748,3447 L 4750,3446 L 4753,3446 L 6784,3446 L 6831,3437 L 6839,3431 L 6841,3430 L 6846,3430 L 6862,3427 L 6878,3416 L 6880,3415 L 6883,3415 L 7749,3415 L 7795,3406 L 7806,3399 L 7809,3397 L 7824,3394 L 7838,3386 L 7847,3372 L 7850,3356 L 7852,3352 L 7859,3342 L 7868,3296 L 7859,3251 L 7852,3240 L 7850,3237 L 7848,3222 L 7839,3208 L 7825,3199 L 7809,3196 L 7806,3194 L 7795,3187 L 7749,3178 L 6817,3178 L 6771,3187 L 6741,3207 L 6738,3208 L 6735,3209 L 4700,3209 L 4654,3218 L 4615,3244 L 4574,3285 L 4572,3287 L 4569,3288 L 4567,3288 L 860,3288 L 857,3288 L 855,3287 L 853,3285 L 524,2956 L 485,2930 L 440,2921 L 394,2930 L 356,2956 L 337,2984 L 335,2986 L 334,2987 L 332,2988 L 330,2989 L 327,2989 L 325,2988 L 323,2987 L 322,2986 L 320,2985 L 319,2983 L 318,2981 L 318,2979 L 318,1984 L 318,1982 L 319,1980 L 320,1978 L 322,1976 L 323,1975 L 325,1974 L 327,1974 L 329,1974 L 331,1974 L 333,1975 L 335,1977 L 336,1978 L 337,1980 L 340,1992 L 366,2030 L 404,2056 L 450,2065 L 816,2065 L 834,2068 L 880,2059 L 918,2034 L 944,1995 L 953,1950 L 944,1905 L 917,1865 L 915,1863 L 876,1837 L 830,1828 L 450,1828 L 404,1837 L 366,1863 L 340,1901 L 337,1913 L 336,1915 L 335,1916 L 333,1917 L 331,1918 L 329,1919 L 327,1919 L 325,1918 L 323,1917 L 322,1916 L 320,1915 L 319,1913 L 318,1911 L 318,1909 L 318,1590 L 318,1588 L 319,1586 L 320,1584 L 322,1583 L 323,1582 L 325,1581 L 327,1580 L 329,1580 L 331,1581 L 333,1582 L 335,1583 L 336,1584 L 337,1586 L 338,1588 L 340,1598 L 366,1636 L 404,1662 L 450,1671 L 777,1671 L 795,1675 L 840,1666 L 879,1640 L 904,1602 L 913,1556 L 904,1511 L 878,1472 L 876,1469 L 837,1443 L 790,1434 L 450,1434 L 404,1443 L 366,1469 L 340,1507 L 337,1519 L 336,1521 L 335,1522 L 333,1524 L 331,1525 L 329,1525 L 327,1525 L 325,1525 L 323,1524 L 322,1522 L 320,1521 L 319,1519 L 318,1517 L 318,1515 L 318,1197 L 318,1194 L 319,1192 L 320,1191 L 322,1189 L 323,1188 L 325,1187 L 327,1187 L 329,1187 L 331,1187 L 333,1188 L 335,1189 L 336,1191 L 337,1193 L 338,1195 L 340,1204 L 366,1243 L 404,1268 L 450,1278 L 777,1278 L 795,1281 L 840,1272 L 879,1246 L 904,1208 L 913,1162 L 904,1117 L 878,1078 L 876,1076 L 837,1049 L 790,1040 L 450,1040 L 404,1049 L 366,1075 L 340,1114 L 338,1123 L 337,1125 L 336,1127 L 335,1129 L 333,1130 L 331,1131 L 329,1131 L 327,1131 L 325,1131 L 323,1130 L 322,1129 L 320,1127 L 319,1125 L 318,1123 L 318,1121 L 318,953 L 319,950 L 320,948 L 321,946 L 446,821 L 448,820 L 450,819 L 453,818 L 4183,818 L 4185,818 L 4187,819 L 4189,820 L 4190,822 L 4192,824 L 4192,826 L 4193,828 L 4193,971 L 4202,1017 L 4228,1057 L 4507,1336 L 4509,1338 L 4510,1340 L 4510,1343 L 4510,1349 L 4513,1364 L 4522,1378 L 4535,1387 L 4552,1390 L 4577,1391 L 4621,1399 L 6469,1399 L 6515,1390 L 6554,1364 L 6713,1205 L 6716,1203 L 6718,1202 L 6721,1202 L 7583,1202 L 7586,1202 L 7588,1203 L 7590,1205 L 7648,1263 L 7650,1265 L 7651,1268 L 7651,1271 L 7660,1285 L 7674,1294 L 7690,1297 L 7693,1299 L 7704,1306 L 7749,1315 L 7795,1306 L 7806,1299 L 7809,1297 L 7824,1294 L 7838,1286 L 7847,1272 L 7850,1256 L 7852,1252 L 7859,1242 L 7868,1196 L 7859,1151 L 7852,1140 L 7850,1137 L 7848,1122 L 7839,1108 L 7825,1099 L 7821,1098 L 7819,1097 L 7816,1095 L 7721,1000 L 7682,974 L 7635,964 L 6668,964 L 6622,974 L 6614,979 L 6611,980 L 6607,981 L 6591,984 L 6577,992 L 6568,1006 L 6567,1014 L 6566,1016 L 6564,1019 L 6424,1159 L 6421,1161 L 6419,1162 L 6416,1162 L 4673,1162 L 4671,1162 L 4668,1161 L 4666,1159 L 4433,926 L 4431,924 L 4430,921 L 4430,919 L 4430,712 L 4421,666 L 4395,627 L 4384,616 L 4345,590 L 4299,581 L 400,581 L 354,590 L 315,616 L 116,815 L 90,854 L 81,900 L 81,3192 L 90,3239 L 116,3278 L 338,3500 L 340,3502 L 341,3505 L 341,3508 L 350,3522 L 364,3531 L 380,3534 L 383,3536 L 394,3543 L 439,3552 L 485,3543 L 496,3536 L 499,3534 L 514,3531 L 528,3522 L 537,3509 L 540,3493 L 542,3489 L 549,3479 L 558,3433 L 549,3388 L 542,3377 L 540,3373 L 538,3358 L 529,3345 L 515,3336 L 511,3335 L 509,3334 L 506,3332 L 321,3147 L 320,3145 L 319,3142 L 318,3140 L 318,3100 L 318,3098 L 319,3096 L 320,3094 L 322,3093 L 323,3092 L 325,3091 L 327,3090 L 330,3090 L 332,3091 L 334,3092 L 335,3093 L 337,3095 L 356,3124 L 722,3490 L 761,3516 L 808,3525M 349,2399 L 351,2415 L 360,2428 L 374,2438 L 391,2441 L 509,2441 L 524,2438 L 538,2429 L 547,2416 L 550,2399 L 550,2281 L 548,2265 L 539,2252 L 525,2242 L 509,2239 L 390,2239 L 375,2242 L 361,2251 L 352,2264 L 349,2281 L 349,2399M 7859,1898 L 7868,1853 L 7859,1807 L 7833,1769 L 7795,1743 L 7749,1734 L 5954,1734 L 5951,1734 L 5949,1733 L 5947,1731 L 5807,1591 L 5768,1565 L 5722,1556 L 5677,1565 L 5638,1591 L 5400,1828 L 5398,1830 L 5396,1831 L 5393,1831 L 4621,1831 L 4575,1840 L 4536,1866 L 4510,1905 L 4501,1950 L 4510,1995 L 4536,2034 L 4575,2059 L 4621,2069 L 5446,2069 L 5492,2059 L 5531,2033 L 5715,1849 L 5717,1848 L 5719,1847 L 5721,1846 L 5723,1846 L 5726,1847 L 5728,1848 L 5729,1849 L 5816,1936 L 5855,1962 L 5902,1971 L 7749,1971 L 7795,1962 L 7833,1936 L 7859,1898M 4181,2199 L 4190,2245 L 4216,2284 L 4359,2427 L 4398,2453 L 4445,2462 L 5642,2462 L 5688,2453 L 5728,2427 L 5769,2386 L 5771,2384 L 5773,2383 L 5776,2383 L 7731,2383 L 7777,2374 L 7818,2346 L 7821,2345 L 7824,2344 L 7838,2336 L 7847,2322 L 7850,2306 L 7852,2302 L 7859,2292 L 7868,2246 L 7859,2201 L 7852,2190 L 7850,2187 L 7848,2172 L 7839,2158 L 7825,2149 L 7809,2146 L 7806,2144 L 7795,2137 L 7750,2128 L 7704,2137 L 7694,2144 L 7691,2145 L 7688,2146 L 5723,2146 L 5677,2155 L 5669,2160 L 5666,2161 L 5662,2162 L 5646,2165 L 5632,2174 L 5623,2187 L 5622,2195 L 5621,2197 L 5619,2200 L 5597,2222 L 5595,2224 L 5592,2225 L 5590,2225 L 4497,2225 L 4494,2225 L 4492,2224 L 4490,2222 L 4421,2153 L 4420,2151 L 4419,2149 L 4418,2146 L 4418,1700 L 4409,1654 L 4383,1616 L 4345,1590 L 4300,1581 L 4254,1590 L 4216,1616 L 4190,1654 L 4181,1700 L 4181,2199M 4897,2619 L 4850,2628 L 4811,2654 L 4537,2928 L 4510,2968 L 4501,3013 L 4510,3058 L 4536,3097 L 4575,3122 L 4620,3131 L 4665,3122 L 4705,3096 L 4942,2859 L 4944,2857 L 4946,2856 L 4949,2856 L 6732,2856 L 6735,2856 L 6737,2857 L 6739,2859 L 6866,2986 L 6905,3012 L 6952,3021 L 7749,3021 L 7795,3012 L 7833,2986 L 7859,2948 L 7868,2903 L 7859,2857 L 7833,2819 L 7795,2793 L 7749,2784 L 7004,2784 L 7001,2784 L 6999,2783 L 6997,2781 L 6870,2654 L 6831,2628 L 6784,2619 L 4897,2619M 4621,1006 L 6273,1006 L 6319,996 L 6358,970 L 6713,615 L 6716,613 L 6718,612 L 6721,612 L 7387,612 L 7389,612 L 7392,613 L 7394,615 L 7665,886 L 7704,912 L 7749,921 L 7795,912 L 7833,886 L 7859,848 L 7868,803 L 7859,757 L 7833,718 L 7525,410 L 7485,384 L 7439,374 L 6668,374 L 6622,384 L 6583,410 L 6227,765 L 6225,767 L 6223,768 L 6220,768 L 4621,768 L 4575,777 L 4536,803 L 4510,842 L 4501,887 L 4510,932 L 4536,971 L 4575,996 L 4621,1006M 494,2672 L 520,2698 L 528,2695 L 540,2661 L 538,2621 L 528,2597 L 520,2594 L 494,2620 L 494,2621 L 498,2633 L 500,2646 L 498,2658 L 494,2670 L 494,2672M 385,2620 L 359,2594 L 351,2596 L 339,2631 L 341,2671 L 351,2695 L 359,2698 L 385,2672 L 385,2670 L 381,2658 L 380,2646 L 381,2633 L 385,2621 L 385,2620M 414,2592 L 421,2589 L 433,2586 L 446,2586 L 458,2589 L 465,2592 L 491,2566 L 489,2557 L 454,2545 L 414,2547 L 390,2557 L 388,2566 L 414,2592M 465,2700 L 458,2703 L 446,2705 L 433,2705 L 421,2703 L 414,2700 L 388,2726 L 390,2734 L 425,2747 L 465,2745 L 489,2735 L 491,2726 L 465,2700M 2784,2207 L 2818,2207 L 2823,2198 L 2823,2197 L 2803,2161 L 2802,2158 L 2802,2156 L 2802,2154 L 2803,2152 L 2804,2150 L 2806,2148 L 2807,2147 L 2810,2146 L 2812,2146 L 3274,2146 L 3276,2146 L 3279,2147 L 3281,2149 L 3415,2283 L 3454,2309 L 3499,2318 L 3545,2309 L 3583,2283 L 3609,2245 L 3618,2200 L 3609,2154 L 3583,2115 L 3412,1944 L 3372,1918 L 3326,1908 L 2761,1908 L 2759,1908 L 2757,1907 L 2755,1906 L 2754,1905 L 2752,1903 L 2752,1901 L 2751,1899 L 2751,1896 L 2752,1894 L 2753,1892 L 2755,1891 L 2756,1890 L 2758,1889 L 2773,1885 L 2804,1860 L 2823,1824 L 2823,1823 L 2818,1814 L 2784,1814 L 2781,1821 L 2774,1832 L 2766,1841 L 2755,1848 L 2744,1853 L 2731,1856 L 2669,1856 L 2657,1855 L 2645,1851 L 2634,1845 L 2624,1837 L 2617,1827 L 2611,1816 L 2611,1814 L 2576,1814 L 2571,1823 L 2571,1824 L 2591,1860 L 2622,1885 L 2662,1896 L 2664,1897 L 2666,1898 L 2667,1900 L 2668,1902 L 2669,1904 L 2669,1906 L 2669,1909 L 2668,1911 L 2667,1912 L 2665,1914 L 2663,1915 L 2661,1916 L 2652,1918 L 2631,1932 L 2628,1933 L 2594,1955 L 2572,1988 L 2565,2027 L 2572,2066 L 2594,2099 L 2624,2119 L 2626,2120 L 2627,2122 L 2628,2124 L 2628,2126 L 2628,2129 L 2628,2131 L 2627,2133 L 2625,2134 L 2622,2136 L 2591,2161 L 2571,2197 L 2571,2198 L 2576,2207 L 2611,2207 L 2613,2200 L 2620,2189 L 2629,2180 L 2639,2173 L 2651,2168 L 2663,2165 L 2725,2165 L 2738,2166 L 2750,2170 L 2761,2176 L 2770,2184 L 2778,2194 L 2783,2206 L 2784,2207M 2784,2247 L 2781,2254 L 2774,2265 L 2766,2274 L 2755,2281 L 2744,2286 L 2731,2289 L 2717,2289 L 2717,2329 L 2734,2329 L 2773,2318 L 2804,2293 L 2823,2257 L 2823,2256 L 2818,2247 L 2784,2247M 2611,2247 L 2576,2247 L 2571,2256 L 2571,2257 L 2591,2293 L 2622,2318 L 2661,2329 L 2677,2329 L 2677,2289 L 2669,2289 L 2657,2288 L 2645,2284 L 2634,2278 L 2624,2270 L 2617,2260 L 2611,2249 L 2611,2247M 2611,1774 L 2613,1767 L 2620,1756 L 2629,1747 L 2639,1740 L 2651,1735 L 2663,1732 L 2725,1732 L 2738,1733 L 2750,1737 L 2761,1743 L 2770,1751 L 2778,1761 L 2783,1772 L 2784,1774 L 2818,1774 L 2823,1765 L 2823,1764 L 2803,1728 L 2802,1725 L 2802,1723 L 2802,1721 L 2803,1719 L 2804,1717 L 2806,1715 L 2807,1714 L 2810,1713 L 2812,1713 L 3341,1713 L 3343,1713 L 3346,1714 L 3348,1716 L 3415,1783 L 3454,1809 L 3499,1818 L 3545,1809 L 3583,1783 L 3609,1745 L 3618,1700 L 3609,1654 L 3583,1615 L 3479,1511 L 3439,1484 L 3393,1475 L 2761,1475 L 2759,1475 L 2757,1474 L 2755,1473 L 2754,1472 L 2752,1470 L 2752,1468 L 2751,1466 L 2751,1463 L 2752,1461 L 2753,1459 L 2755,1458 L 2756,1456 L 2758,1456 L 2773,1452 L 2804,1427 L 2823,1391 L 2823,1390 L 2818,1381 L 2784,1381 L 2781,1388 L 2774,1399 L 2766,1408 L 2755,1415 L 2744,1420 L 2731,1423 L 2669,1423 L 2657,1422 L 2645,1418 L 2634,1412 L 2624,1404 L 2617,1394 L 2611,1382 L 2611,1381 L 2576,1381 L 2571,1390 L 2571,1391 L 2591,1427 L 2622,1452 L 2662,1463 L 2664,1464 L 2666,1465 L 2667,1467 L 2668,1469 L 2669,1471 L 2669,1473 L 2669,1475 L 2668,1478 L 2667,1479 L 2665,1481 L 2663,1482 L 2661,1483 L 2652,1484 L 2631,1498 L 2628,1500 L 2594,1522 L 2572,1555 L 2565,1594 L 2572,1633 L 2594,1666 L 2624,1686 L 2626,1687 L 2627,1689 L 2628,1691 L 2628,1693 L 2628,1695 L 2628,1698 L 2627,1700 L 2625,1701 L 2622,1703 L 2591,1728 L 2571,1764 L 2571,1765 L 2576,1774 L 2611,1774M 2611,1341 L 2613,1334 L 2620,1323 L 2629,1314 L 2639,1307 L 2651,1302 L 2663,1299 L 2725,1299 L 2738,1300 L 2750,1304 L 2761,1310 L 2770,1318 L 2778,1328 L 2783,1339 L 2784,1341 L 2818,1341 L 2823,1332 L 2823,1331 L 2803,1294 L 2802,1292 L 2802,1290 L 2802,1288 L 2803,1286 L 2804,1284 L 2806,1282 L 2807,1281 L 2810,1280 L 2812,1280 L 3315,1280 L 3361,1270 L 3401,1244 L 3595,1050 L 3621,1011 L 3630,966 L 3621,920 L 3595,882 L 3557,856 L 3511,847 L 3466,856 L 3427,882 L 3270,1039 L 3268,1041 L 3265,1042 L 3263,1042 L 2698,1042 L 2652,1051 L 2631,1065 L 2628,1067 L 2594,1089 L 2572,1122 L 2565,1161 L 2572,1200 L 2594,1233 L 2624,1253 L 2626,1254 L 2627,1256 L 2628,1258 L 2628,1260 L 2628,1262 L 2628,1265 L 2627,1267 L 2625,1268 L 2622,1270 L 2591,1295 L 2571,1331 L 2571,1332 L 2576,1341 L 2611,1341M 4559,2587 L 4534,2561 L 4524,2564 L 4510,2602 L 4512,2646 L 4524,2674 L 4534,2677 L 4559,2651 L 4557,2647 L 4553,2634 L 4551,2619 L 4553,2605 L 4557,2591 L 4559,2587M 4680,2587 L 4683,2591 L 4687,2605 L 4689,2619 L 4687,2634 L 4683,2647 L 4680,2651 L 4706,2677 L 4716,2674 L 4730,2636 L 4728,2593 L 4716,2564 L 4706,2561 L 4680,2587M 4652,2680 L 4641,2685 L 4627,2688 L 4613,2688 L 4599,2685 L 4588,2680 L 4562,2706 L 4565,2715 L 4603,2729 L 4647,2727 L 4675,2715 L 4678,2706 L 4652,2680M 4588,2559 L 4599,2554 L 4613,2551 L 4627,2551 L 4641,2554 L 4652,2559 L 4678,2533 L 4675,2523 L 4637,2509 L 4593,2511 L 4565,2523 L 4562,2533 L 4588,2559M 4680,1588 L 4706,1614 L 4716,1611 L 4730,1573 L 4728,1530 L 4716,1501 L 4706,1498 L 4680,1524 L 4683,1528 L 4687,1542 L 4689,1556 L 4687,1571 L 4683,1584 L 4680,1588M 4559,1524 L 4534,1498 L 4524,1501 L 4510,1539 L 4512,1583 L 4524,1611 L 4534,1614 L 4559,1588 L 4557,1584 L 4553,1571 L 4551,1556 L 4553,1542 L 4557,1528 L 4559,1524M 4652,1617 L 4641,1622 L 4627,1625 L 4613,1625 L 4599,1622 L 4588,1617 L 4562,1643 L 4565,1652 L 4603,1666 L 4647,1664 L 4675,1652 L 4678,1643 L 4652,1617M 4588,1496 L 4599,1491 L 4613,1488 L 4627,1488 L 4641,1491 L 4652,1496 L 4678,1470 L 4675,1460 L 4637,1446 L 4593,1448 L 4565,1460 L 4562,1470 L 4588,1496M 4559,461 L 4534,435 L 4524,438 L 4510,476 L 4512,520 L 4524,548 L 4534,551 L 4559,525 L 4557,521 L 4553,508 L 4551,493 L 4553,479 L 4557,465 L 4559,461M 4680,461 L 4683,465 L 4687,479 L 4689,493 L 4687,508 L 4683,521 L 4680,525 L 4706,551 L 4716,548 L 4730,510 L 4728,467 L 4716,438 L 4706,435 L 4680,461M 4652,554 L 4641,559 L 4627,562 L 4613,562 L 4599,559 L 4588,554 L 4562,580 L 4565,589 L 4603,603 L 4647,601 L 4675,589 L 4678,580 L 4652,554M 4652,433 L 4678,407 L 4675,397 L 4637,383 L 4593,385 L 4565,397 L 4562,407 L 4588,433 L 4599,428 L 4613,425 L 4627,425 L 4641,428 L 4652,433 z " style="fill-opacity:1.000000;fill:rgb(84,248,27);stroke:rgb(0,0,0);stroke-width:2"/></g>
<g fill-rule="evenodd"><path d="M 390,2400 L 390,2280 L 510,2280 L 510,2400 L 390,2400 z " style="fill-opacity:1.000000;fill:rgb(232,231,141);stroke:rgb(0,0,0);stroke-width:2"/></g>
<g fill-rule="evenodd"><path d="M 491,3373 L 500,3373 L 500,3383 L 506,3390 L 513,3405 L 517,3421 L 518,3437 L 516,3454 L 510,3469 L 501,3483 L 500,3484 L 500,3493 L 490,3493 L 489,3494 L 475,3503 L 460,3509 L 444,3512 L 427,3511 L 411,3507 L 397,3499 L 389,3493 L 380,3493 L 380,3485 L 144,3249 L 131,3233 L 123,3214 L 121,3193 L 121,900 L 123,879 L 131,860 L 144,844 L 344,644 L 360,631 L 379,623 L 400,621 L 4300,621 L 4320,623 L 4339,631 L 4355,644 L 4367,656 L 4380,672 L 4387,691 L 4390,711 L 4390,939 L 4653,1202 L 6437,1202 L 6606,1033 L 6606,1022 L 6619,1022 L 6628,1015 L 6647,1007 L 6667,1004 L 7636,1004 L 7657,1007 L 7676,1015 L 7692,1028 L 7801,1136 L 7810,1136 L 7810,1146 L 7816,1153 L 7823,1168 L 7827,1184 L 7828,1200 L 7826,1217 L 7820,1232 L 7811,1246 L 7810,1247 L 7810,1256 L 7800,1256 L 7799,1258 L 7785,1267 L 7770,1272 L 7754,1275 L 7737,1274 L 7721,1270 L 7707,1262 L 7699,1256 L 7690,1256 L 7690,1248 L 7604,1162 L 6700,1162 L 6525,1336 L 6509,1349 L 6490,1357 L 6470,1359 L 4620,1359 L 4600,1357 L 4582,1349 L 4551,1349 L 4551,1323 L 4256,1028 L 4243,1011 L 4235,992 L 4233,972 L 4233,778 L 432,778 L 278,932 L 278,3161 L 491,3373 z " style="fill-opacity:1.000000;fill:rgb(118,90,46);stroke:rgb(0,0,0);stroke-width:2"/></g>
<g fill-rule="evenodd"><path d="M 2641,2082 L 2634,2078 L 2624,2070 L 2617,2060 L 2611,2049 L 2608,2036 L 2607,2024 L 2609,2012 L 2613,2000 L 2620,1989 L 2629,1980 L 2639,1973 L 2641,1972 L 2651,1963 L 2665,1955 L 2681,1950 L 2697,1948 L 3327,1948 L 3347,1951 L 3366,1959 L 3383,1971 L 3555,2144 L 3566,2157 L 3573,2171 L 3577,2187 L 3578,2204 L 3576,2220 L 3570,2235 L 3561,2249 L 3549,2261 L 3535,2270 L 3520,2276 L 3504,2278 L 3487,2277 L 3471,2273 L 3457,2266 L 3444,2255 L 3294,2106 L 2697,2106 L 2681,2104 L 2665,2099 L 2651,2091 L 2641,2082 z " style="fill-opacity:1.000000;fill:rgb(99,51,159);stroke:rgb(0,0,0);stroke-width:2"/></g>
<g fill-rule="evenodd"><path d="M 2641,1216 L 2634,1212 L 2624,1204 L 2617,1194 L 2611,1182 L 2608,1170 L 2607,1158 L 2609,1145 L 2613,1134 L 2620,1123 L 2629,1114 L 2639,1107 L 2641,1106 L 2651,1097 L 2665,1089 L 2681,1084 L 2697,1082 L 3283,1082 L 3456,910 L 3468,900 L 3483,892 L 3499,888 L 3515,887 L 3532,890 L 3547,895 L 3561,904 L 3573,916 L 3581,930 L 3587,945 L 3590,962 L 3589,978 L 3585,994 L 3577,1009 L 3567,1021 L 3372,1217 L 3355,1229 L 3336,1237 L 3316,1240 L 2697,1240 L 2681,1238 L 2665,1233 L 2651,1225 L 2641,1216 z " style="fill-opacity:1.000000;fill:rgb(201,154,102);stroke:rgb(0,0,0);stroke-width:2"/></g>
<g fill-rule="evenodd"><path d="M 2641,1649 L 2634,1645 L 2624,1637 L 2617,1627 L 2611,1616 L 2608,1603 L 2607,1591 L 2609,1578 L 2613,1567 L 2620,1556 L 2629,1547 L 2639,1540 L 2641,1539 L 2651,1530 L 2665,1522 L 2681,1517 L 2697,1515 L 3394,1515 L 3414,1518 L 3433,1526 L 3450,1538 L 3555,1644 L 3566,1657 L 3573,1671 L 3577,1687 L 3578,1704 L 3576,1720 L 3570,1735 L 3561,1749 L 3549,1761 L 3535,1770 L 3520,1776 L 3504,1778 L 3487,1777 L 3471,1773 L 3457,1766 L 3444,1755 L 3361,1673 L 2697,1673 L 2681,1671 L 2665,1666 L 2651,1658 L 2641,1649 z " style="fill-opacity:1.000000;fill:rgb(50,13,183);stroke:rgb(0,0,0);stroke-width:2"/></g>
<g fill-rule="evenodd"><path d="M 4689,3449 L 4689,3475 L 4658,3475 L 4640,3483 L 4620,3485 L 807,3485 L 786,3483 L 767,3475 L 751,3462 L 384,3095 L 373,3082 L 366,3068 L 362,3052 L 361,3035 L 363,3019 L 369,3004 L 378,2990 L 390,2978 L 404,2969 L 419,2963 L 435,2961 L 452,2962 L 468,2966 L 482,2973 L 495,2984 L 839,3328 L 4587,3328 L 4644,3272 L 4660,3259 L 4679,3251 L 4699,3249 L 6753,3249 L 6761,3241 L 6777,3228 L 6796,3220 L 6816,3218 L 7750,3218 L 7766,3219 L 7782,3224 L 7796,3233 L 7800,3236 L 7810,3236 L 7810,3246 L 7818,3257 L 7824,3272 L 7828,3288 L 7828,3305 L 7824,3321 L 7818,3336 L 7810,3347 L 7810,3356 L 7800,3356 L 7796,3360 L 7782,3368 L 7766,3373 L 7750,3375 L 6849,3375 L 6847,3377 L 6847,3389 L 6833,3389 L 6825,3395 L 6806,3403 L 6785,3406 L 4732,3406 L 4689,3449 z " style="fill-opacity:1.000000;fill:rgb(49,88,163);stroke:rgb(0,0,0);stroke-width:2"/></g>
<g fill-rule="evenodd"><path d="M 5661,2214 L 5661,2203 L 5674,2203 L 5683,2196 L 5702,2188 L 5722,2186 L 7700,2186 L 7707,2180 L 7721,2173 L 7737,2169 L 7754,2168 L 7770,2170 L 7785,2176 L 7799,2185 L 7800,2186 L 7810,2186 L 7810,2196 L 7811,2197 L 7820,2211 L 7826,2226 L 7828,2242 L 7827,2259 L 7823,2275 L 7816,2289 L 7810,2297 L 7810,2306 L 7801,2306 L 7787,2320 L 7771,2332 L 7752,2340 L 7732,2343 L 5755,2343 L 5699,2399 L 5682,2412 L 5663,2420 L 5643,2422 L 4444,2422 L 4423,2420 L 4404,2412 L 4388,2399 L 4244,2255 L 4231,2239 L 4223,2220 L 4221,2200 L 4221,1700 L 4222,1683 L 4228,1667 L 4236,1653 L 4247,1641 L 4260,1631 L 4275,1625 L 4291,1621 L 4308,1621 L 4324,1625 L 4339,1631 L 4352,1641 L 4363,1653 L 4371,1667 L 4377,1683 L 4378,1700 L 4378,2167 L 4476,2265 L 5610,2265 L 5661,2214 z " style="fill-opacity:1.000000;fill:rgb(90,37,93);stroke:rgb(0,0,0);stroke-width:2"/></g>
</svg>
