<?xml version="1.0" standalone="no"?>
<!DOCTYPE svg PUBLIC "-//W3C//DTD SVG 1.1//EN"
"http://www.w3.org/Graphics/SVG/1.1/DTD/svg11.dtd">
<svg width="7900" height="3800" viewBox="0 0 7900 3800" version="1.1"
xmlns="http://www.w3.org/2000/svg"
xmlns:xlink="http://www.w3.org/1999/xlink">
<g fill-rule="evenodd"><path d="M 0,10 L 0,7 L 0,5 L 2,3 L 3,2 L 5,0 L 7,0 L 10,0 L 7890,0 L 7892,0 L 7894,0 L 7896,2 L 7897,3 L 7899,5 L 7899,7 L 7900,10 L 7900,3790 L 7899,3792 L 7898,3795 L 7897,3796 L 7895,3798 L 7893,3799 L 7890,3800 L 10,3800 L 7,3799 L 5,3799 L 3,3797 L 2,3796 L 0,3794 L 0,3792 L 0,3790 L 0,1816 L 0,10M 2667,1896 L 2727,1896 L 2767,1888 L 2800,1866 L 2822,1833 L 2830,1794 L 2822,1755 L 2800,1722 L 2770,1702 L 2769,1701 L 2767,1699 L 2766,1697 L 2766,1695 L 2766,1693 L 2766,1691 L 2767,1689 L 2769,1687 L 2770,1686 L 2800,1666 L 2822,1633 L 2830,1594 L 2822,1555 L 2800,1522 L 2767,1500 L 2727,1492 L 2667,1492 L 2627,1500 L 2594,1522 L 2572,1555 L 2565,1594 L 2572,1633 L 2594,1666 L 2624,1686 L 2626,1687 L 2627,1689 L 2628,1691 L 2628,1693 L 2628,1695 L 2628,1697 L 2627,1699 L 2626,1701 L 2624,1702 L 2594,1722 L 2572,1755 L 2565,1794 L 2572,1833 L 2594,1866 L 2627,1888 L 2667,1896M 1734,1930 L 1719,1893 L 1691,1865 L 1654,1850 L 1614,1850 L 1578,1865 L 1549,1893 L 1534,1930 L 1534,1970 L 1549,2006 L 1577,2035 L 1614,2050 L 1654,2050 L 1691,2035 L 1719,2007 L 1734,1970 L 1734,1930M 934,1930 L 919,1893 L 891,1865 L 854,1850 L 814,1850 L 778,1865 L 749,1893 L 734,1930 L 734,1970 L 749,2006 L 777,2035 L 814,2050 L 854,2050 L 891,2035 L 919,2007 L 934,1970 L 934,1930M 550,1927 L 534,1890 L 506,1862 L 469,1846 L 430,1846 L 393,1862 L 365,1890 L 350,1926 L 349,1966 L 365,2003 L 393,2031 L 430,2046 L 469,2046 L 506,2031 L 534,2003 L 549,1966 L 550,1927M 499,3332 L 380,3332 L 365,3335 L 351,3344 L 342,3357 L 339,3374 L 339,3492 L 341,3508 L 350,3522 L 364,3531 L 381,3534 L 499,3534 L 514,3531 L 528,3522 L 537,3509 L 540,3492 L 540,3374 L 538,3358 L 529,3345 L 515,3336 L 499,3332M 459,3140 L 496,3124 L 524,3096 L 539,3059 L 540,3020 L 524,2983 L 496,2955 L 459,2940 L 420,2939 L 383,2955 L 355,2983 L 340,3020 L 339,3059 L 355,3096 L 383,3124 L 420,3139 L 459,3140M 459,2746 L 496,2731 L 524,2703 L 539,2666 L 540,2626 L 524,2589 L 496,2561 L 459,2546 L 420,2546 L 383,2561 L 355,2589 L 340,2626 L 339,2666 L 355,2702 L 383,2731 L 420,2746 L 459,2746M 2594,2155 L 2572,2188 L 2565,2227 L 2572,2266 L 2594,2299 L 2627,2321 L 2667,2329 L 2727,2329 L 2767,2321 L 2800,2299 L 2822,2266 L 2830,2227 L 2822,2188 L 2800,2155 L 2770,2135 L 2769,2134 L 2767,2132 L 2766,2130 L 2766,2128 L 2766,2126 L 2766,2124 L 2767,2122 L 2769,2120 L 2770,2119 L 2800,2099 L 2822,2066 L 2830,2027 L 2822,1988 L 2800,1955 L 2767,1933 L 2727,1925 L 2667,1925 L 2627,1933 L 2594,1955 L 2572,1988 L 2565,2027 L 2572,2066 L 2594,2099 L 2624,2119 L 2626,2120 L 2627,2122 L 2628,2124 L 2628,2126 L 2628,2128 L 2628,2130 L 2627,2132 L 2626,2134 L 2624,2135 L 2594,2155M 3443,2284 L 3480,2299 L 3519,2300 L 3556,2284 L 3584,2256 L 3599,2219 L 3600,2180 L 3584,2143 L 3556,2115 L 3519,2100 L 3480,2099 L 3443,2115 L 3415,2143 L 3400,2180 L 3399,2219 L 3415,2256 L 3443,2284M 469,1653 L 506,1637 L 534,1609 L 549,1573 L 550,1533 L 534,1496 L 506,1468 L 469,1453 L 430,1453 L 393,1468 L 365,1496 L 350,1533 L 349,1572 L 365,1609 L 393,1637 L 430,1653 L 469,1653M 775,1656 L 815,1656 L 851,1641 L 880,1613 L 895,1576 L 895,1536 L 880,1500 L 851,1471 L 815,1456 L 775,1456 L 738,1471 L 710,1499 L 695,1536 L 695,1576 L 710,1613 L 738,1641 L 775,1656M 469,1259 L 506,1244 L 534,1216 L 549,1179 L 550,1139 L 534,1102 L 506,1074 L 469,1059 L 430,1059 L 393,1074 L 365,1102 L 350,1139 L 349,1179 L 365,1216 L 393,1244 L 430,1259 L 469,1259M 710,1219 L 738,1247 L 775,1262 L 815,1263 L 851,1247 L 880,1219 L 895,1182 L 895,1143 L 880,1106 L 851,1078 L 815,1063 L 775,1062 L 738,1078 L 710,1106 L 695,1143 L 695,1182 L 710,1219M 1575,1656 L 1615,1656 L 1651,1641 L 1680,1613 L 1695,1576 L 1695,1536 L 1680,1500 L 1651,1471 L 1615,1456 L 1575,1456 L 1538,1471 L 1510,1499 L 1495,1536 L 1495,1576 L 1510,1613 L 1538,1641 L 1575,1656M 1510,1219 L 1538,1247 L 1575,1262 L 1615,1263 L 1651,1247 L 1680,1219 L 1695,1182 L 1695,1143 L 1680,1106 L 1651,1078 L 1615,1063 L 1575,1062 L 1538,1078 L 1510,1106 L 1495,1143 L 1495,1182 L 1510,1219M 3611,986 L 3611,946 L 3596,909 L 3568,881 L 3531,866 L 3492,866 L 3455,881 L 3427,909 L 3411,946 L 3411,985 L 3426,1022 L 3455,1050 L 3491,1066 L 3531,1066 L 3568,1050 L 3596,1022 L 3611,986M 2594,1433 L 2627,1455 L 2667,1463 L 2727,1463 L 2767,1455 L 2800,1433 L 2822,1400 L 2830,1361 L 2822,1322 L 2800,1289 L 2770,1269 L 2769,1268 L 2767,1266 L 2766,1264 L 2766,1262 L 2766,1260 L 2766,1258 L 2767,1256 L 2769,1254 L 2770,1253 L 2800,1233 L 2822,1200 L 2830,1161 L 2822,1122 L 2800,1089 L 2767,1067 L 2727,1059 L 2667,1059 L 2627,1067 L 2594,1089 L 2572,1122 L 2565,1161 L 2572,1200 L 2594,1233 L 2624,1253 L 2626,1254 L 2627,1256 L 2628,1258 L 2628,1260 L 2628,1262 L 2628,1264 L 2627,1266 L 2626,1268 L 2624,1269 L 2594,1289 L 2572,1322 L 2565,1361 L 2572,1400 L 2594,1433M 3443,1784 L 3480,1799 L 3519,1800 L 3556,1784 L 3584,1756 L 3599,1719 L 3600,1680 L 3584,1643 L 3556,1615 L 3519,1600 L 3480,1599 L 3443,1615 L 3415,1643 L 3400,1680 L 3399,1719 L 3415,1756 L 3443,1784M 4729,1928 L 4712,1888 L 4682,1858 L 4642,1841 L 4598,1841 L 4558,1858 L 4528,1888 L 4511,1928 L 4511,1971 L 4528,2011 L 4558,2042 L 4598,2059 L 4642,2059 L 4682,2042 L 4712,2012 L 4729,1972 L 4729,1928M 7665,1909 L 7693,1937 L 7730,1953 L 7769,1953 L 7806,1937 L 7834,1909 L 7849,1873 L 7850,1833 L 7834,1796 L 7806,1768 L 7769,1753 L 7730,1753 L 7693,1768 L 7665,1796 L 7650,1833 L 7649,1872 L 7665,1909M 4727,3323 L 4718,3309 L 4705,3300 L 4688,3297 L 4552,3297 L 4536,3300 L 4523,3308 L 4514,3322 L 4510,3339 L 4510,3475 L 4513,3490 L 4522,3504 L 4535,3513 L 4552,3516 L 4688,3516 L 4704,3514 L 4717,3505 L 4726,3491 L 4730,3474 L 4730,3339 L 4727,3323M 4558,3105 L 4598,3122 L 4642,3122 L 4682,3105 L 4712,3075 L 4729,3035 L 4729,2991 L 4712,2951 L 4682,2921 L 4642,2904 L 4598,2904 L 4558,2921 L 4528,2951 L 4511,2991 L 4511,3034 L 4528,3074 L 4558,3105M 4510,2412 L 4513,2427 L 4522,2441 L 4535,2450 L 4552,2453 L 4688,2453 L 4704,2451 L 4717,2442 L 4726,2428 L 4730,2411 L 4730,2276 L 4727,2260 L 4718,2246 L 4705,2237 L 4688,2234 L 4552,2234 L 4536,2237 L 4523,2245 L 4514,2259 L 4510,2276 L 4510,2412M 4729,2641 L 4729,2598 L 4712,2558 L 4682,2527 L 4642,2510 L 4598,2510 L 4558,2527 L 4528,2557 L 4511,2597 L 4511,2641 L 4528,2681 L 4558,2711 L 4598,2728 L 4642,2728 L 4682,2712 L 4712,2681 L 4729,2641M 4384,2143 L 4356,2115 L 4319,2100 L 4280,2099 L 4243,2115 L 4215,2143 L 4200,2180 L 4199,2219 L 4215,2256 L 4243,2284 L 4280,2299 L 4319,2300 L 4356,2284 L 4384,2256 L 4399,2219 L 4400,2180 L 4384,2143M 5662,2367 L 5783,2367 L 5799,2364 L 5812,2355 L 5821,2342 L 5825,2325 L 5825,2204 L 5822,2188 L 5813,2174 L 5800,2165 L 5783,2162 L 5662,2162 L 5646,2165 L 5632,2174 L 5623,2187 L 5620,2204 L 5620,2325 L 5623,2341 L 5632,2354 L 5645,2363 L 5662,2367M 7850,2883 L 7834,2846 L 7806,2818 L 7769,2803 L 7730,2803 L 7693,2818 L 7665,2846 L 7650,2883 L 7649,2922 L 7665,2959 L 7693,2987 L 7730,3003 L 7769,3003 L 7806,2987 L 7834,2959 L 7849,2923 L 7850,2883M 6683,3388 L 6686,3404 L 6695,3417 L 6708,3426 L 6725,3430 L 6846,3430 L 6862,3427 L 6875,3418 L 6884,3405 L 6888,3388 L 6888,3267 L 6885,3251 L 6876,3237 L 6863,3228 L 6846,3225 L 6725,3225 L 6709,3228 L 6695,3237 L 6686,3250 L 6683,3267 L 6683,3388M 7649,3355 L 7651,3371 L 7660,3385 L 7674,3394 L 7691,3397 L 7809,3397 L 7824,3394 L 7838,3386 L 7847,3372 L 7850,3355 L 7850,3237 L 7848,3222 L 7839,3208 L 7825,3199 L 7809,3195 L 7690,3195 L 7675,3198 L 7661,3207 L 7652,3220 L 7649,3237 L 7649,3355M 6887,2758 L 6887,2717 L 6871,2680 L 6843,2651 L 6806,2636 L 6765,2636 L 6728,2651 L 6699,2680 L 6684,2717 L 6684,2757 L 6699,2795 L 6728,2823 L 6765,2839 L 6805,2839 L 6843,2823 L 6871,2795 L 6887,2758M 7809,2145 L 7690,2145 L 7675,2148 L 7661,2157 L 7652,2170 L 7649,2187 L 7649,2305 L 7651,2321 L 7660,2335 L 7674,2344 L 7691,2347 L 7809,2347 L 7824,2344 L 7838,2336 L 7847,2322 L 7850,2305 L 7850,2187 L 7848,2172 L 7839,2158 L 7825,2149 L 7809,2145M 4528,949 L 4558,979 L 4598,996 L 4642,996 L 4682,979 L 4712,949 L 4729,909 L 4729,865 L 4712,825 L 4682,795 L 4642,778 L 4598,778 L 4558,795 L 4528,825 L 4511,865 L 4511,908 L 4528,949M 4411,986 L 4411,946 L 4396,909 L 4368,881 L 4331,866 L 4292,866 L 4255,881 L 4227,909 L 4211,946 L 4211,985 L 4226,1022 L 4255,1050 L 4291,1066 L 4331,1066 L 4368,1050 L 4396,1022 L 4411,986M 4400,1680 L 4384,1643 L 4356,1615 L 4319,1600 L 4280,1599 L 4243,1615 L 4215,1643 L 4200,1680 L 4199,1719 L 4215,1756 L 4243,1784 L 4280,1799 L 4319,1800 L 4356,1784 L 4384,1756 L 4399,1719 L 4400,1680M 4598,1665 L 4642,1665 L 4682,1649 L 4712,1618 L 4729,1578 L 4729,1535 L 4712,1495 L 4682,1464 L 4642,1447 L 4598,1447 L 4558,1464 L 4528,1494 L 4511,1534 L 4511,1578 L 4528,1618 L 4558,1648 L 4598,1665M 4727,1197 L 4718,1183 L 4705,1174 L 4688,1171 L 4552,1171 L 4536,1174 L 4523,1182 L 4514,1196 L 4510,1213 L 4510,1349 L 4513,1364 L 4522,1378 L 4535,1387 L 4552,1390 L 4688,1390 L 4704,1388 L 4717,1379 L 4726,1365 L 4730,1348 L 4730,1213 L 4727,1197M 5824,1695 L 5824,1654 L 5808,1617 L 5780,1588 L 5743,1573 L 5702,1573 L 5665,1588 L 5636,1617 L 5621,1654 L 5621,1694 L 5636,1732 L 5665,1760 L 5702,1776 L 5742,1776 L 5780,1760 L 5808,1732 L 5824,1695M 4729,515 L 4729,472 L 4712,432 L 4682,401 L 4642,384 L 4598,384 L 4558,401 L 4528,431 L 4511,471 L 4511,515 L 4528,555 L 4558,585 L 4598,602 L 4642,602 L 4682,586 L 4712,555 L 4729,515M 6590,1182 L 6607,1186 L 6728,1186 L 6743,1183 L 6757,1174 L 6766,1161 L 6770,1144 L 6770,1023 L 6767,1007 L 6758,993 L 6745,984 L 6728,981 L 6607,981 L 6591,984 L 6577,992 L 6568,1006 L 6565,1023 L 6565,1144 L 6568,1159 L 6576,1173 L 6590,1182M 7649,1255 L 7651,1271 L 7660,1285 L 7674,1294 L 7691,1297 L 7809,1297 L 7824,1294 L 7838,1286 L 7847,1272 L 7850,1255 L 7850,1137 L 7848,1122 L 7839,1108 L 7825,1099 L 7809,1095 L 7690,1095 L 7675,1098 L 7661,1107 L 7652,1120 L 7649,1137 L 7649,1255M 6769,473 L 6753,436 L 6725,407 L 6687,392 L 6647,392 L 6610,407 L 6581,436 L 6566,473 L 6566,513 L 6581,551 L 6610,579 L 6647,595 L 6687,595 L 6725,579 L 6753,551 L 6769,513 L 6769,473M 7806,718 L 7769,703 L 7730,703 L 7693,718 L 7665,746 L 7650,783 L 7649,822 L 7665,859 L 7693,887 L 7730,903 L 7769,903 L 7806,887 L 7834,859 L 7849,823 L 7850,783 L 7834,746 L 7806,718M 1987,2247 L 1987,2289 L 1917,2289 L 1917,2322 L 1924,2329 L 1995,2329 L 2010,2323 L 2021,2312 L 2027,2297 L 2027,2254 L 2020,2247 L 1987,2247M 1987,2207 L 2020,2207 L 2027,2200 L 2027,2157 L 2021,2142 L 2010,2131 L 1995,2125 L 1992,2125 L 1990,2124 L 1988,2123 L 1986,2122 L 1985,2120 L 1984,2118 L 1984,2116 L 1984,2114 L 1984,2112 L 1985,2110 L 1987,2108 L 1988,2107 L 2000,2099 L 2022,2066 L 2030,2027 L 2022,1988 L 2000,1955 L 1967,1933 L 1927,1925 L 1867,1925 L 1827,1933 L 1794,1955 L 1772,1988 L 1765,2027 L 1772,2066 L 1794,2099 L 1806,2107 L 1808,2108 L 1809,2110 L 1810,2112 L 1810,2114 L 1810,2116 L 1810,2118 L 1809,2120 L 1808,2122 L 1806,2123 L 1805,2124 L 1802,2125 L 1799,2125 L 1784,2131 L 1773,2142 L 1767,2157 L 1767,2200 L 1774,2207 L 1807,2207 L 1807,2165 L 1987,2165 L 1987,2207M 430,2400 L 390,2400 L 390,2360 L 356,2360 L 350,2367 L 350,2408 L 356,2423 L 367,2434 L 382,2440 L 423,2440 L 430,2433 L 430,2400M 470,2400 L 470,2433 L 476,2440 L 517,2440 L 532,2434 L 543,2423 L 550,2408 L 550,2367 L 543,2360 L 510,2360 L 510,2400 L 470,2400M 510,2320 L 543,2320 L 550,2313 L 550,2272 L 543,2257 L 532,2246 L 517,2240 L 476,2240 L 470,2247 L 470,2280 L 510,2280 L 510,2320M 390,2320 L 390,2280 L 430,2280 L 430,2247 L 423,2240 L 382,2240 L 367,2246 L 356,2257 L 350,2272 L 350,2313 L 356,2320 L 390,2320M 1807,2247 L 1774,2247 L 1767,2254 L 1767,2297 L 1773,2312 L 1784,2323 L 1799,2329 L 1870,2329 L 1877,2322 L 1877,2289 L 1807,2289 L 1807,2247M 1987,1814 L 1987,1856 L 1917,1856 L 1917,1889 L 1924,1896 L 1995,1896 L 2010,1890 L 2021,1879 L 2027,1864 L 2027,1821 L 2020,1814 L 1987,1814M 1987,1774 L 2020,1774 L 2027,1767 L 2027,1724 L 2021,1709 L 2010,1698 L 1995,1692 L 1992,1692 L 1990,1691 L 1988,1690 L 1986,1689 L 1985,1687 L 1984,1685 L 1984,1683 L 1984,1681 L 1984,1679 L 1985,1677 L 1987,1675 L 1988,1674 L 2000,1666 L 2022,1633 L 2030,1594 L 2022,1555 L 2000,1522 L 1967,1500 L 1927,1492 L 1867,1492 L 1827,1500 L 1794,1522 L 1772,1555 L 1765,1594 L 1772,1633 L 1794,1666 L 1806,1674 L 1808,1675 L 1809,1677 L 1810,1679 L 1810,1681 L 1810,1683 L 1810,1685 L 1809,1687 L 1808,1689 L 1806,1690 L 1805,1691 L 1802,1692 L 1799,1692 L 1784,1698 L 1773,1709 L 1767,1724 L 1767,1767 L 1774,1774 L 1807,1774 L 1807,1732 L 1987,1732 L 1987,1774M 1987,1381 L 1987,1423 L 1917,1423 L 1917,1456 L 1924,1463 L 1995,1463 L 2010,1457 L 2021,1446 L 2027,1431 L 2027,1388 L 2020,1381 L 1987,1381M 1987,1341 L 2020,1341 L 2027,1334 L 2027,1291 L 2021,1276 L 2010,1265 L 1995,1259 L 1992,1259 L 1990,1258 L 1988,1257 L 1986,1256 L 1985,1254 L 1984,1252 L 1984,1250 L 1984,1248 L 1984,1246 L 1985,1244 L 1987,1242 L 1988,1241 L 2000,1233 L 2022,1200 L 2030,1161 L 2022,1122 L 2000,1089 L 1967,1067 L 1927,1059 L 1867,1059 L 1827,1067 L 1794,1089 L 1772,1122 L 1765,1161 L 1772,1200 L 1794,1233 L 1806,1241 L 1808,1242 L 1809,1244 L 1810,1246 L 1810,1248 L 1810,1250 L 1810,1252 L 1809,1254 L 1808,1256 L 1806,1257 L 1805,1258 L 1802,1259 L 1799,1259 L 1784,1265 L 1773,1276 L 1767,1291 L 1767,1334 L 1774,1341 L 1807,1341 L 1807,1299 L 1987,1299 L 1987,1341M 1877,1423 L 1807,1423 L 1807,1381 L 1774,1381 L 1767,1388 L 1767,1431 L 1773,1446 L 1784,1457 L 1799,1463 L 1870,1463 L 1877,1456 L 1877,1423M 1877,1856 L 1807,1856 L 1807,1814 L 1774,1814 L 1767,1821 L 1767,1864 L 1773,1879 L 1784,1890 L 1799,1896 L 1870,1896 L 1877,1889 L 1877,1856 z " style="fill-opacity:1.000000;fill:rgb(103,198,105);stroke:rgb(0,0,0);stroke-width:2"/></g>
<g fill-rule="evenodd"><path d="M 1655,1162 L 1653,1175 L 1650,1187 L 1643,1198 L 1635,1207 L 1625,1214 L 1613,1220 L 1601,1222 L 1589,1222 L 1576,1220 L 1565,1214 L 1555,1207 L 1546,1198 L 1540,1187 L 1536,1175 L 1535,1162 L 1536,1150 L 1540,1138 L 1546,1127 L 1555,1118 L 1565,1111 L 1576,1105 L 1589,1103 L 1601,1103 L 1613,1105 L 1625,1111 L 1635,1118 L 1643,1127 L 1650,1138 L 1653,1150 L 1655,1162 z " style="fill-opacity:1.000000;fill:rgb(115,81,255);stroke:rgb(0,0,0);stroke-width:2"/></g>
<g fill-rule="evenodd"><path d="M 855,1162 L 853,1175 L 850,1187 L 843,1198 L 835,1207 L 825,1214 L 813,1220 L 801,1222 L 789,1222 L 776,1220 L 765,1214 L 755,1207 L 746,1198 L 740,1187 L 736,1175 L 735,1162 L 736,1150 L 740,1138 L 746,1127 L 755,1118 L 765,1111 L 776,1105 L 789,1103 L 801,1103 L 813,1105 L 825,1111 L 835,1118 L 843,1127 L 850,1138 L 853,1150 L 855,1162 z " style="fill-opacity:1.000000;fill:rgb(74,236,41);stroke:rgb(0,0,0);stroke-width:2"/></g>
<g fill-rule="evenodd"><path d="M 1655,1556 L 1653,1569 L 1650,1581 L 1643,1591 L 1635,1601 L 1625,1608 L 1613,1613 L 1601,1616 L 1589,1616 L 1576,1613 L 1565,1608 L 1555,1601 L 1546,1591 L 1540,1581 L 1536,1569 L 1535,1556 L 1536,1544 L 1540,1532 L 1546,1521 L 1555,1512 L 1565,1504 L 1576,1499 L 1589,1497 L 1601,1497 L 1613,1499 L 1625,1504 L 1635,1512 L 1643,1521 L 1650,1532 L 1653,1544 L 1655,1556 z " style="fill-opacity:1.000000;fill:rgb(205,186,171);stroke:rgb(0,0,0);stroke-width:2"/></g>
<g fill-rule="evenodd"><path d="M 855,1556 L 853,1569 L 850,1581 L 843,1591 L 835,1601 L 825,1608 L 813,1613 L 801,1616 L 789,1616 L 776,1613 L 765,1608 L 755,1601 L 746,1591 L 740,1581 L 736,1569 L 735,1556 L 736,1544 L 740,1532 L 746,1521 L 755,1512 L 765,1504 L 776,1499 L 789,1497 L 801,1497 L 813,1499 L 825,1504 L 835,1512 L 843,1521 L 850,1532 L 853,1544 L 855,1556 z " style="fill-opacity:1.000000;fill:rgb(242,251,227);stroke:rgb(0,0,0);stroke-width:2"/></g>
<g fill-rule="evenodd"><path d="M 1694,1950 L 1693,1962 L 1689,1974 L 1683,1985 L 1674,1994 L 1664,2002 L 1653,2007 L 1640,2010 L 1628,2010 L 1616,2007 L 1604,2002 L 1594,1994 L 1586,1985 L 1579,1974 L 1575,1962 L 1574,1950 L 1575,1937 L 1579,1925 L 1586,1915 L 1594,1905 L 1604,1898 L 1616,1893 L 1628,1890 L 1640,1890 L 1653,1893 L 1664,1898 L 1674,1905 L 1683,1915 L 1689,1925 L 1693,1937 L 1694,1950 z " style="fill-opacity:1.000000;fill:rgb(70,124,194);stroke:rgb(0,0,0);stroke-width:2"/></g>
<g fill-rule="evenodd"><path d="M 894,1950 L 893,1962 L 889,1974 L 883,1985 L 874,1994 L 864,2002 L 853,2007 L 840,2010 L 828,2010 L 816,2007 L 804,2002 L 794,1994 L 786,1985 L 779,1974 L 775,1962 L 774,1950 L 775,1937 L 779,1925 L 786,1915 L 794,1905 L 804,1898 L 816,1893 L 828,1890 L 840,1890 L 853,1893 L 864,1898 L 874,1905 L 883,1915 L 889,1925 L 893,1937 L 894,1950 z " style="fill-opacity:1.000000;fill:rgb(84,248,27);stroke:rgb(0,0,0);stroke-width:2"/></g>
<g fill-rule="evenodd"><path d="M 3571,966 L 3570,978 L 3566,990 L 3560,1001 L 3551,1010 L 3541,1018 L 3530,1023 L 3518,1025 L 3505,1025 L 3493,1023 L 3481,1018 L 3471,1010 L 3463,1001 L 3456,990 L 3453,978 L 3451,966 L 3453,953 L 3456,941 L 3463,930 L 3471,921 L 3481,914 L 3493,909 L 3505,906 L 3518,906 L 3530,909 L 3541,914 L 3551,921 L 3560,930 L 3566,941 L 3570,953 L 3571,966 z " style="fill-opacity:1.000000;fill:rgb(232,231,141);stroke:rgb(0,0,0);stroke-width:2"/></g>
<g fill-rule="evenodd"><path d="M 4371,966 L 4370,978 L 4366,990 L 4360,1001 L 4351,1010 L 4341,1018 L 4330,1023 L 4318,1025 L 4305,1025 L 4293,1023 L 4281,1018 L 4271,1010 L 4263,1001 L 4256,990 L 4253,978 L 4251,966 L 4253,953 L 4256,941 L 4263,930 L 4271,921 L 4281,914 L 4293,909 L 4305,906 L 4318,906 L 4330,909 L 4341,914 L 4351,921 L 4360,930 L 4366,941 L 4370,953 L 4371,966 z " style="fill-opacity:1.000000;fill:rgb(118,90,46);stroke:rgb(0,0,0);stroke-width:2"/></g>
<g fill-rule="evenodd"><path d="M 3560,1700 L 3558,1712 L 3554,1724 L 3548,1735 L 3540,1744 L 3530,1751 L 3518,1757 L 3506,1759 L 3493,1759 L 3481,1757 L 3470,1751 L 3459,1744 L 3451,1735 L 3445,1724 L 3441,1712 L 3440,1700 L 3441,1687 L 3445,1675 L 3451,1664 L 3459,1655 L 3470,1648 L 3481,1642 L 3493,1640 L 3506,1640 L 3518,1642 L 3529,1648 L 3540,1655 L 3548,1664 L 3554,1675 L 3558,1687 L 3560,1700 z " style="fill-opacity:1.000000;fill:rgb(99,51,159);stroke:rgb(0,0,0);stroke-width:2"/></g>
<g fill-rule="evenodd"><path d="M 4360,1700 L 4358,1712 L 4354,1724 L 4348,1735 L 4340,1744 L 4330,1751 L 4318,1757 L 4306,1759 L 4293,1759 L 4281,1757 L 4270,1751 L 4259,1744 L 4251,1735 L 4245,1724 L 4241,1712 L 4240,1700 L 4241,1687 L 4245,1675 L 4251,1664 L 4259,1655 L 4270,1648 L 4281,1642 L 4293,1640 L 4306,1640 L 4318,1642 L 4329,1648 L 4340,1655 L 4348,1664 L 4354,1675 L 4358,1687 L 4360,1700 z " style="fill-opacity:1.000000;fill:rgb(201,154,102);stroke:rgb(0,0,0);stroke-width:2"/></g>
<g fill-rule="evenodd"><path d="M 3560,2200 L 3558,2212 L 3554,2224 L 3548,2235 L 3540,2244 L 3530,2251 L 3518,2257 L 3506,2259 L 3493,2259 L 3481,2257 L 3470,2251 L 3459,2244 L 3451,2235 L 3445,2224 L 3441,2212 L 3440,2200 L 3441,2187 L 3445,2175 L 3451,2164 L 3459,2155 L 3470,2148 L 3481,2142 L 3493,2140 L 3506,2140 L 3518,2142 L 3529,2148 L 3540,2155 L 3548,2164 L 3554,2175 L 3558,2187 L 3560,2200 z " style="fill-opacity:1.000000;fill:rgb(50,13,183);stroke:rgb(0,0,0);stroke-width:2"/></g>
<g fill-rule="evenodd"><path d="M 4360,2200 L 4358,2212 L 4354,2224 L 4348,2235 L 4340,2244 L 4330,2251 L 4318,2257 L 4306,2259 L 4293,2259 L 4281,2257 L 4270,2251 L 4259,2244 L 4251,2235 L 4245,2224 L 4241,2212 L 4240,2200 L 4241,2187 L 4245,2175 L 4251,2164 L 4259,2155 L 4270,2148 L 4281,2142 L 4293,2140 L 4306,2140 L 4318,2142 L 4329,2148 L 4340,2155 L 4348,2164 L 4354,2175 L 4358,2187 L 4360,2200 z " style="fill-opacity:1.000000;fill:rgb(49,88,163);stroke:rgb(0,0,0);stroke-width:2"/></g>
<g fill-rule="evenodd"><path d="M 6606,1145 L 6606,1022 L 6729,1022 L 6729,1145 L 6606,1145 z " style="fill-opacity:1.000000;fill:rgb(90,37,93);stroke:rgb(0,0,0);stroke-width:2"/></g>
<g fill-rule="evenodd"><path d="M 6729,493 L 6727,506 L 6723,518 L 6717,529 L 6708,539 L 6698,546 L 6686,552 L 6674,554 L 6661,554 L 6648,552 L 6636,546 L 6626,539 L 6617,529 L 6611,518 L 6607,506 L 6606,493 L 6607,480 L 6611,468 L 6617,457 L 6626,447 L 6636,440 L 6648,435 L 6661,432 L 6674,432 L 6686,435 L 6698,440 L 6708,447 L 6717,457 L 6723,468 L 6727,480 L 6729,493 z " style="fill-opacity:1.000000;fill:rgb(5,23,88);stroke:rgb(0,0,0);stroke-width:2"/></g>
<g fill-rule="evenodd"><path d="M 5661,2326 L 5661,2203 L 5784,2203 L 5784,2326 L 5661,2326 z " style="fill-opacity:1.000000;fill:rgb(233,94,212);stroke:rgb(0,0,0);stroke-width:2"/></g>
<g fill-rule="evenodd"><path d="M 5784,1674 L 5782,1687 L 5779,1699 L 5772,1710 L 5763,1720 L 5753,1728 L 5741,1733 L 5729,1735 L 5716,1735 L 5703,1733 L 5692,1728 L 5681,1720 L 5673,1710 L 5666,1699 L 5662,1687 L 5661,1674 L 5662,1662 L 5666,1649 L 5673,1638 L 5681,1629 L 5692,1621 L 5703,1616 L 5716,1613 L 5729,1613 L 5741,1616 L 5753,1621 L 5763,1629 L 5772,1638 L 5779,1649 L 5782,1662 L 5784,1674 z " style="fill-opacity:1.000000;fill:rgb(171,178,205);stroke:rgb(0,0,0);stroke-width:2"/></g>
<g fill-rule="evenodd"><path d="M 6724,3389 L 6724,3266 L 6847,3266 L 6847,3389 L 6724,3389 z " style="fill-opacity:1.000000;fill:rgb(198,155,180);stroke:rgb(0,0,0);stroke-width:2"/></g>
<g fill-rule="evenodd"><path d="M 6847,2737 L 6845,2750 L 6842,2762 L 6835,2773 L 6826,2783 L 6816,2791 L 6804,2796 L 6792,2798 L 6779,2798 L 6766,2796 L 6755,2791 L 6744,2783 L 6736,2773 L 6729,2762 L 6725,2750 L 6724,2737 L 6725,2725 L 6729,2712 L 6736,2701 L 6744,2692 L 6755,2684 L 6766,2679 L 6779,2676 L 6792,2676 L 6804,2679 L 6816,2684 L 6826,2692 L 6835,2701 L 6842,2712 L 6845,2725 L 6847,2737 z " style="fill-opacity:1.000000;fill:rgb(84,17,14);stroke:rgb(0,0,0);stroke-width:2"/></g>
<g fill-rule="evenodd"><path d="M 7690,3356 L 7690,3236 L 7810,3236 L 7810,3356 L 7690,3356 z " style="fill-opacity:1.000000;fill:rgb(130,116,65);stroke:rgb(0,0,0);stroke-width:2"/></g>
<g fill-rule="evenodd"><path d="M 7810,2903 L 7808,2915 L 7804,2927 L 7798,2938 L 7790,2947 L 7780,2955 L 7768,2960 L 7756,2962 L 7743,2962 L 7731,2960 L 7720,2955 L 7709,2947 L 7701,2938 L 7695,2927 L 7691,2915 L 7690,2903 L 7691,2890 L 7695,2878 L 7701,2867 L 7709,2858 L 7720,2851 L 7731,2846 L 7743,2843 L 7756,2843 L 7768,2846 L 7779,2851 L 7790,2858 L 7798,2867 L 7804,2878 L 7808,2890 L 7810,2903 z " style="fill-opacity:1.000000;fill:rgb(33,61,220);stroke:rgb(0,0,0);stroke-width:2"/></g>
<g fill-rule="evenodd"><path d="M 7690,1256 L 7690,1136 L 7810,1136 L 7810,1256 L 7690,1256 z " style="fill-opacity:1.000000;fill:rgb(135,112,233);stroke:rgb(0,0,0);stroke-width:2"/></g>
<g fill-rule="evenodd"><path d="M 7810,803 L 7808,815 L 7804,827 L 7798,838 L 7790,847 L 7780,855 L 7768,860 L 7756,862 L 7743,862 L 7731,860 L 7720,855 L 7709,847 L 7701,838 L 7695,827 L 7691,815 L 7690,803 L 7691,790 L 7695,778 L 7701,767 L 7709,758 L 7720,751 L 7731,746 L 7743,743 L 7756,743 L 7768,746 L 7779,751 L 7790,758 L 7798,767 L 7804,778 L 7808,790 L 7810,803 z " style="fill-opacity:1.000000;fill:rgb(62,161,65);stroke:rgb(0,0,0);stroke-width:2"/></g>
<g fill-rule="evenodd"><path d="M 7690,2306 L 7690,2186 L 7810,2186 L 7810,2306 L 7690,2306 z " style="fill-opacity:1.000000;fill:rgb(225,252,103);stroke:rgb(0,0,0);stroke-width:2"/></g>
<g fill-rule="evenodd"><path d="M 7810,1853 L 7808,1865 L 7804,1877 L 7798,1888 L 7790,1897 L 7780,1905 L 7768,1910 L 7756,1912 L 7743,1912 L 7731,1910 L 7720,1905 L 7709,1897 L 7701,1888 L 7695,1877 L 7691,1865 L 7690,1853 L 7691,1840 L 7695,1828 L 7701,1817 L 7709,1808 L 7720,1801 L 7731,1796 L 7743,1793 L 7756,1793 L 7768,1796 L 7779,1801 L 7790,1808 L 7798,1817 L 7804,1828 L 7808,1840 L 7810,1853 z " style="fill-opacity:1.000000;fill:rgb(62,1,126);stroke:rgb(0,0,0);stroke-width:2"/></g>
<g fill-rule="evenodd"><path d="M 510,1946 L 508,1959 L 504,1971 L 498,1982 L 490,1991 L 480,1998 L 468,2003 L 456,2006 L 443,2006 L 431,2003 L 420,1998 L 409,1991 L 401,1982 L 395,1971 L 391,1959 L 390,1946 L 391,1934 L 395,1922 L 401,1911 L 409,1902 L 420,1894 L 431,1889 L 443,1887 L 456,1887 L 468,1889 L 479,1894 L 490,1902 L 498,1911 L 504,1922 L 508,1934 L 510,1946 z " style="fill-opacity:1.000000;fill:rgb(151,234,220);stroke:rgb(0,0,0);stroke-width:2"/></g>
<g fill-rule="evenodd"><path d="M 510,1553 L 508,1565 L 504,1577 L 498,1588 L 490,1597 L 480,1605 L 468,1610 L 456,1612 L 443,1612 L 431,1610 L 420,1605 L 409,1597 L 401,1588 L 395,1577 L 391,1565 L 390,1553 L 391,1540 L 395,1528 L 401,1517 L 409,1508 L 420,1501 L 431,1496 L 443,1493 L 456,1493 L 468,1496 L 479,1501 L 490,1508 L 498,1517 L 504,1528 L 508,1540 L 510,1553 z " style="fill-opacity:1.000000;fill:rgb(107,150,143);stroke:rgb(0,0,0);stroke-width:2"/></g>
<g fill-rule="evenodd"><path d="M 510,1159 L 508,1171 L 504,1183 L 498,1194 L 490,1204 L 480,1211 L 468,1216 L 456,1219 L 443,1219 L 431,1216 L 420,1211 L 409,1204 L 401,1194 L 395,1183 L 391,1171 L 390,1159 L 391,1146 L 395,1135 L 401,1124 L 409,1114 L 420,1107 L 431,1102 L 443,1099 L 456,1099 L 468,1102 L 479,1107 L 490,1114 L 498,1124 L 504,1135 L 508,1146 L 510,1159 z " style="fill-opacity:1.000000;fill:rgb(56,92,42);stroke:rgb(0,0,0);stroke-width:2"/></g>
<g fill-rule="evenodd"><path d="M 380,3493 L 380,3373 L 500,3373 L 500,3493 L 380,3493 z " style="fill-opacity:1.000000;fill:rgb(236,176,59);stroke:rgb(0,0,0);stroke-width:2"/></g>
<g fill-rule="evenodd"><path d="M 500,3040 L 498,3052 L 494,3064 L 488,3075 L 480,3084 L 470,3091 L 458,3097 L 446,3099 L 433,3099 L 421,3097 L 410,3091 L 399,3084 L 391,3075 L 385,3064 L 381,3052 L 380,3040 L 381,3027 L 385,3015 L 391,3004 L 399,2995 L 410,2988 L 421,2982 L 433,2980 L 446,2980 L 458,2982 L 469,2988 L 480,2995 L 488,3004 L 494,3015 L 498,3027 L 500,3040 z " style="fill-opacity:1.000000;fill:rgb(251,50,175);stroke:rgb(0,0,0);stroke-width:2"/></g>
<g fill-rule="evenodd"><path d="M 500,2646 L 498,2658 L 494,2670 L 488,2681 L 480,2690 L 470,2698 L 458,2703 L 446,2705 L 433,2705 L 421,2703 L 410,2698 L 399,2690 L 391,2681 L 385,2670 L 381,2658 L 380,2646 L 381,2633 L 385,2621 L 391,2611 L 399,2601 L 410,2594 L 421,2589 L 433,2586 L 446,2586 L 458,2589 L 469,2594 L 480,2601 L 488,2611 L 494,2621 L 498,2633 L 500,2646 z " style="fill-opacity:1.000000;fill:rgb(60,84,236);stroke:rgb(0,0,0);stroke-width:2"/></g>
<g fill-rule="evenodd"><path d="M 4551,1349 L 4551,1212 L 4689,1212 L 4689,1349 L 4551,1349 z " style="fill-opacity:1.000000;fill:rgb(24,219,92);stroke:rgb(0,0,0);stroke-width:2"/></g>
<g fill-rule="evenodd"><path d="M 4689,887 L 4687,901 L 4683,915 L 4676,927 L 4666,938 L 4654,947 L 4641,952 L 4627,955 L 4613,955 L 4599,952 L 4586,947 L 4574,938 L 4564,927 L 4557,915 L 4553,901 L 4551,887 L 4553,873 L 4557,859 L 4564,846 L 4574,836 L 4586,827 L 4599,821 L 4613,818 L 4627,818 L 4641,821 L 4654,827 L 4666,836 L 4676,846 L 4683,859 L 4687,873 L 4689,887 z " style="fill-opacity:1.000000;fill:rgb(2,26,254);stroke:rgb(0,0,0);stroke-width:2"/></g>
<g fill-rule="evenodd"><path d="M 4689,493 L 4687,508 L 4683,521 L 4676,534 L 4666,544 L 4654,553 L 4641,559 L 4627,562 L 4613,562 L 4599,559 L 4586,553 L 4574,544 L 4564,534 L 4557,521 L 4553,508 L 4551,493 L 4553,479 L 4557,465 L 4564,453 L 4574,442 L 4586,434 L 4599,428 L 4613,425 L 4627,425 L 4641,428 L 4654,434 L 4666,442 L 4676,453 L 4683,465 L 4687,479 L 4689,493 z " style="fill-opacity:1.000000;fill:rgb(67,251,250);stroke:rgb(0,0,0);stroke-width:2"/></g>
<g fill-rule="evenodd"><path d="M 4551,2412 L 4551,2275 L 4689,2275 L 4689,2412 L 4551,2412 z " style="fill-opacity:1.000000;fill:rgb(170,58,251);stroke:rgb(0,0,0);stroke-width:2"/></g>
<g fill-rule="evenodd"><path d="M 4689,1950 L 4687,1964 L 4683,1978 L 4676,1990 L 4666,2001 L 4654,2010 L 4641,2015 L 4627,2018 L 4613,2018 L 4599,2015 L 4586,2010 L 4574,2001 L 4564,1990 L 4557,1978 L 4553,1964 L 4551,1950 L 4553,1936 L 4557,1922 L 4564,1909 L 4574,1899 L 4586,1890 L 4599,1884 L 4613,1881 L 4627,1881 L 4641,1884 L 4654,1890 L 4666,1899 L 4676,1909 L 4683,1922 L 4687,1936 L 4689,1950 z " style="fill-opacity:1.000000;fill:rgb(41,209,230);stroke:rgb(0,0,0);stroke-width:2"/></g>
<g fill-rule="evenodd"><path d="M 4689,1556 L 4687,1571 L 4683,1584 L 4676,1597 L 4666,1607 L 4654,1616 L 4641,1622 L 4627,1625 L 4613,1625 L 4599,1622 L 4586,1616 L 4574,1607 L 4564,1597 L 4557,1584 L 4553,1571 L 4551,1556 L 4553,1542 L 4557,1528 L 4564,1516 L 4574,1505 L 4586,1497 L 4599,1491 L 4613,1488 L 4627,1488 L 4641,1491 L 4654,1497 L 4666,1505 L 4676,1516 L 4683,1528 L 4687,1542 L 4689,1556 z " style="fill-opacity:1.000000;fill:rgb(5,60,124);stroke:rgb(0,0,0);stroke-width:2"/></g>
<g fill-rule="evenodd"><path d="M 4551,3475 L 4551,3338 L 4689,3338 L 4689,3475 L 4551,3475 z " style="fill-opacity:1.000000;fill:rgb(148,117,216);stroke:rgb(0,0,0);stroke-width:2"/></g>
<g fill-rule="evenodd"><path d="M 4689,3013 L 4687,3027 L 4683,3041 L 4676,3053 L 4666,3064 L 4654,3073 L 4641,3078 L 4627,3081 L 4613,3081 L 4599,3078 L 4586,3073 L 4574,3064 L 4564,3053 L 4557,3041 L 4553,3027 L 4551,3013 L 4553,2999 L 4557,2985 L 4564,2972 L 4574,2962 L 4586,2953 L 4599,2947 L 4613,2944 L 4627,2944 L 4641,2947 L 4654,2953 L 4666,2962 L 4676,2972 L 4683,2985 L 4687,2999 L 4689,3013 z " style="fill-opacity:1.000000;fill:rgb(190,97,137);stroke:rgb(0,0,0);stroke-width:2"/></g>
<g fill-rule="evenodd"><path d="M 4689,2619 L 4687,2634 L 4683,2647 L 4676,2660 L 4666,2670 L 4654,2679 L 4641,2685 L 4627,2688 L 4613,2688 L 4599,2685 L 4586,2679 L 4574,2670 L 4564,2660 L 4557,2647 L 4553,2634 L 4551,2619 L 4553,2605 L 4557,2591 L 4564,2579 L 4574,2568 L 4586,2560 L 4599,2554 L 4613,2551 L 4627,2551 L 4641,2554 L 4654,2560 L 4666,2568 L 4676,2579 L 4683,2591 L 4687,2605 L 4689,2619 z " style="fill-opacity:1.000000;fill:rgb(249,92,187);stroke:rgb(0,0,0);stroke-width:2"/></g>
<g fill-rule="evenodd"><path d="M 1869,2089 L 1857,2088 L 1845,2084 L 1834,2078 L 1824,2070 L 1817,2060 L 1811,2049 L 1808,2036 L 1807,2024 L 1809,2012 L 1813,2000 L 1820,1989 L 1829,1980 L 1839,1973 L 1851,1968 L 1863,1965 L 1925,1965 L 1938,1966 L 1950,1970 L 1961,1976 L 1970,1984 L 1978,1994 L 1983,2006 L 1986,2018 L 1987,2030 L 1985,2043 L 1981,2054 L 1974,2065 L 1966,2074 L 1955,2081 L 1944,2086 L 1931,2089 L 1869,2089 z " style="fill-opacity:1.000000;fill:rgb(168,153,15);stroke:rgb(0,0,0);stroke-width:2"/></g>
<g fill-rule="evenodd"><path d="M 2669,2089 L 2657,2088 L 2645,2084 L 2634,2078 L 2624,2070 L 2617,2060 L 2611,2049 L 2608,2036 L 2607,2024 L 2609,2012 L 2613,2000 L 2620,1989 L 2629,1980 L 2639,1973 L 2651,1968 L 2663,1965 L 2725,1965 L 2738,1966 L 2750,1970 L 2761,1976 L 2770,1984 L 2778,1994 L 2783,2006 L 2786,2018 L 2787,2030 L 2785,2043 L 2781,2054 L 2774,2065 L 2766,2074 L 2755,2081 L 2744,2086 L 2731,2089 L 2669,2089 z " style="fill-opacity:1.000000;fill:rgb(149,177,235);stroke:rgb(0,0,0);stroke-width:2"/></g>
<g fill-rule="evenodd"><path d="M 2669,2289 L 2657,2288 L 2645,2284 L 2634,2278 L 2624,2270 L 2617,2260 L 2611,2249 L 2608,2236 L 2607,2224 L 2609,2212 L 2613,2200 L 2620,2189 L 2629,2180 L 2639,2173 L 2651,2168 L 2663,2165 L 2725,2165 L 2738,2166 L 2750,2170 L 2761,2176 L 2770,2184 L 2778,2194 L 2783,2206 L 2786,2218 L 2787,2230 L 2785,2243 L 2781,2254 L 2774,2265 L 2766,2274 L 2755,2281 L 2744,2286 L 2731,2289 L 2669,2289 z " style="fill-opacity:1.000000;fill:rgb(241,179,5);stroke:rgb(0,0,0);stroke-width:2"/></g>
<g fill-rule="evenodd"><path d="M 1869,1656 L 1857,1655 L 1845,1651 L 1834,1645 L 1824,1637 L 1817,1627 L 1811,1616 L 1808,1603 L 1807,1591 L 1809,1578 L 1813,1567 L 1820,1556 L 1829,1547 L 1839,1540 L 1851,1535 L 1863,1532 L 1925,1532 L 1938,1533 L 1950,1537 L 1961,1543 L 1970,1551 L 1978,1561 L 1983,1572 L 1986,1585 L 1987,1597 L 1985,1610 L 1981,1621 L 1974,1632 L 1966,1641 L 1955,1648 L 1944,1653 L 1931,1656 L 1869,1656 z " style="fill-opacity:1.000000;fill:rgb(239,247,0);stroke:rgb(0,0,0);stroke-width:2"/></g>
<g fill-rule="evenodd"><path d="M 2669,1656 L 2657,1655 L 2645,1651 L 2634,1645 L 2624,1637 L 2617,1627 L 2611,1616 L 2608,1603 L 2607,1591 L 2609,1578 L 2613,1567 L 2620,1556 L 2629,1547 L 2639,1540 L 2651,1535 L 2663,1532 L 2725,1532 L 2738,1533 L 2750,1537 L 2761,1543 L 2770,1551 L 2778,1561 L 2783,1572 L 2786,1585 L 2787,1597 L 2785,1610 L 2781,1621 L 2774,1632 L 2766,1641 L 2755,1648 L 2744,1653 L 2731,1656 L 2669,1656 z " style="fill-opacity:1.000000;fill:rgb(233,161,58);stroke:rgb(0,0,0);stroke-width:2"/></g>
<g fill-rule="evenodd"><path d="M 2669,1856 L 2657,1855 L 2645,1851 L 2634,1845 L 2624,1837 L 2617,1827 L 2611,1816 L 2608,1803 L 2607,1791 L 2609,1778 L 2613,1767 L 2620,1756 L 2629,1747 L 2639,1740 L 2651,1735 L 2663,1732 L 2725,1732 L 2738,1733 L 2750,1737 L 2761,1743 L 2770,1751 L 2778,1761 L 2783,1772 L 2786,1785 L 2787,1797 L 2785,1810 L 2781,1821 L 2774,1832 L 2766,1841 L 2755,1848 L 2744,1853 L 2731,1856 L 2669,1856 z " style="fill-opacity:1.000000;fill:rgb(229,202,11);stroke:rgb(0,0,0);stroke-width:2"/></g>
<g fill-rule="evenodd"><path d="M 1869,1223 L 1857,1222 L 1845,1218 L 1834,1212 L 1824,1204 L 1817,1194 L 1811,1182 L 1808,1170 L 1807,1158 L 1809,1145 L 1813,1134 L 1820,1123 L 1829,1114 L 1839,1107 L 1851,1102 L 1863,1099 L 1925,1099 L 1938,1100 L 1950,1104 L 1961,1110 L 1970,1118 L 1978,1128 L 1983,1139 L 1986,1152 L 1987,1164 L 1985,1176 L 1981,1188 L 1974,1199 L 1966,1208 L 1955,1215 L 1944,1220 L 1931,1223 L 1869,1223 z " style="fill-opacity:1.000000;fill:rgb(203,208,72);stroke:rgb(0,0,0);stroke-width:2"/></g>
<g fill-rule="evenodd"><path d="M 2669,1223 L 2657,1222 L 2645,1218 L 2634,1212 L 2624,1204 L 2617,1194 L 2611,1182 L 2608,1170 L 2607,1158 L 2609,1145 L 2613,1134 L 2620,1123 L 2629,1114 L 2639,1107 L 2651,1102 L 2663,1099 L 2725,1099 L 2738,1100 L 2750,1104 L 2761,1110 L 2770,1118 L 2778,1128 L 2783,1139 L 2786,1152 L 2787,1164 L 2785,1176 L 2781,1188 L 2774,1199 L 2766,1208 L 2755,1215 L 2744,1220 L 2731,1223 L 2669,1223 z " style="fill-opacity:1.000000;fill:rgb(71,100,189);stroke:rgb(0,0,0);stroke-width:2"/></g>
<g fill-rule="evenodd"><path d="M 2669,1423 L 2657,1422 L 2645,1418 L 2634,1412 L 2624,1404 L 2617,1394 L 2611,1382 L 2608,1370 L 2607,1358 L 2609,1345 L 2613,1334 L 2620,1323 L 2629,1314 L 2639,1307 L 2651,1302 L 2663,1299 L 2725,1299 L 2738,1300 L 2750,1304 L 2761,1310 L 2770,1318 L 2778,1328 L 2783,1339 L 2786,1352 L 2787,1364 L 2785,1376 L 2781,1388 L 2774,1399 L 2766,1408 L 2755,1415 L 2744,1420 L 2731,1423 L 2669,1423 z " style="fill-opacity:1.000000;fill:rgb(31,35,30);stroke:rgb(0,0,0);stroke-width:2"/></g>
</svg>
