<?xml version="1.0" standalone="no"?>
<!DOCTYPE svg PUBLIC "-//W3C//DTD SVG 1.1//EN"
"http://www.w3.org/Graphics/SVG/1.1/DTD/svg11.dtd">
<svg width="7907" height="3811" viewBox="0 0 7907 3811" version="1.1"
xmlns="http://www.w3.org/2000/svg"
xmlns:xlink="http://www.w3.org/1999/xlink">
<g fill-rule="evenodd"><path d="M 0,3811 L 0,0 L 7906,0 L 7906,3811 L 0,3811 z " style="fill-opacity:0.300000;fill:rgb(103,198,105);"/></g>
<g fill-rule="evenodd"><path d="M 0,3792 L 0,13 L 0,13 L 0,11 L 1,10 L 1,8 L 2,7 L 3,5 L 3,4 L 5,3 L 6,2 L 8,1 L 8,1 L 10,0 L 11,0 L 14,0 L 14,0 L 7892,0 L 7892,0 L 7895,0 L 7896,0 L 7898,1 L 7898,1 L 7900,2 L 7901,3 L 7903,4 L 7903,5 L 7904,7 L 7905,8 L 7905,10 L 7906,11 L 7906,13 L 7906,13 L 7906,3792 L 7906,3793 L 7905,3796 L 7905,3797 L 7904,3799 L 7904,3800 L 7902,3802 L 7901,3803 L 7898,3805 L 7897,3805 L 7895,3806 L 7894,3806 L 7892,3806 L 7892,3806 L 111,3806 L 111,3807 L 110,3808 L 108,3809 L 107,3810 L 106,3810 L 105,3810 L 104,3810 L 102,3810 L 101,3810 L 99,3809 L 98,3808 L 97,3807 L 97,3806 L 14,3806 L 14,3806 L 11,3806 L 10,3806 L 8,3805 L 8,3805 L 6,3804 L 5,3803 L 3,3801 L 3,3801 L 2,3799 L 1,3798 L 1,3796 L 0,3795 L 0,3793 L 0,3792 z " style="fill-opacity:0.600000;fill:rgb(103,198,105);stroke:rgb(0,0,0);stroke-width:2"/></g>
<g fill-rule="evenodd"><path d="M 100,3802 L 14,3802 L 12,3802 L 10,3801 L 8,3800 L 6,3799 L 5,3797 L 4,3795 L 4,3792 L 4,13 L 4,11 L 5,9 L 6,7 L 8,6 L 10,4 L 12,4 L 14,3 L 7892,3 L 7894,4 L 7896,4 L 7898,6 L 7900,7 L 7901,9 L 7902,11 L 7902,13 L 7902,3792 L 7901,3796 L 7901,3797 L 7899,3800 L 7896,3802 L 7894,3802 L 7892,3802 L 108,3802 L 108,3804 L 107,3805 L 106,3806 L 104,3807 L 103,3806 L 101,3806 L 100,3804 L 100,3802 z " style="fill-opacity:1.000000;fill:rgb(103,198,105);stroke:rgb(0,0,0);stroke-width:2"/></g>
</svg>
