<?xml version="1.0" standalone="no"?>
<!DOCTYPE svg PUBLIC "-//W3C//DTD SVG 1.1//EN"
"http://www.w3.org/Graphics/SVG/1.1/DTD/svg11.dtd">
<svg width="7141.86" height="3720.01" viewBox="0 0 7141.86 3720.01" version="1.1"
xmlns="http://www.w3.org/2000/svg"
xmlns:xlink="http://www.w3.org/1999/xlink">
<circle cx="354" cy="3341" r="32" style=""/>
<circle cx="354" cy="2947" r="32" style=""/>
<circle cx="354" cy="2554" r="32" style=""/>
<circle cx="364" cy="2248" r="32" style=""/>
<circle cx="364" cy="1854" r="32" style=""/>
<circle cx="364" cy="1461" r="32" style=""/>
<circle cx="710" cy="1464" r="32" style=""/>
<circle cx="749" cy="1858" r="32" style=""/>
<circle cx="710" cy="1071" r="32" style=""/>
<circle cx="364" cy="1067" r="32" style=""/>
<circle cx="1510" cy="1071" r="32" style=""/>
<circle cx="1812" cy="1069" r="32" style=""/>
<circle cx="1812" cy="1269" r="32" style=""/>
<circle cx="1812" cy="1502" r="32" style=""/>
<circle cx="1812" cy="1702" r="32" style=""/>
<circle cx="1812" cy="1935" r="32" style=""/>
<circle cx="1812" cy="2135" r="32" style=""/>
<circle cx="1549" cy="1858" r="32" style=""/>
<circle cx="1510" cy="1464" r="32" style=""/>
<circle cx="2612" cy="1502" r="32" style=""/>
<circle cx="2612" cy="1702" r="32" style=""/>
<circle cx="2612" cy="1935" r="32" style=""/>
<circle cx="2612" cy="2135" r="32" style=""/>
<circle cx="2914" cy="1937" r="32" style=""/>
<circle cx="2914" cy="1504" r="32" style=""/>
<circle cx="2612" cy="1269" r="32" style=""/>
<circle cx="2612" cy="1069" r="32" style=""/>
<circle cx="2875" cy="1071" r="32" style=""/>
<circle cx="3675" cy="1071" r="32" style=""/>
<circle cx="4062" cy="1071" r="32" style=""/>
<circle cx="4062" cy="1307" r="32" style=""/>
<circle cx="4062" cy="1700" r="32" style=""/>
<circle cx="4062" cy="2094" r="32" style=""/>
<circle cx="4062" cy="2370" r="32" style=""/>
<circle cx="4062" cy="2763" r="32" style=""/>
<circle cx="4062" cy="3157" r="32" style=""/>
<circle cx="3714" cy="1937" r="32" style=""/>
<circle cx="3714" cy="1504" r="32" style=""/>
<circle cx="4062" cy="677" r="32" style=""/>
<circle cx="4062" cy="283" r="32" style=""/>
<circle cx="4967" cy="1543" r="32" style=""/>
<circle cx="4967" cy="2133" r="32" style=""/>
<circle cx="6030" cy="2606" r="32" style=""/>
<circle cx="6030" cy="3196" r="32" style=""/>
<circle cx="6936" cy="3078" r="32" style=""/>
<circle cx="6936" cy="2684" r="32" style=""/>
<circle cx="6936" cy="2094" r="32" style=""/>
<circle cx="6936" cy="1700" r="32" style=""/>
<circle cx="6936" cy="992" r="32" style=""/>
<circle cx="6936" cy="598" r="32" style=""/>
<circle cx="6030" cy="480" r="32" style=""/>
<circle cx="6030" cy="1070" r="32" style=""/>
</svg>
