G04 (created by PCBNEW (2013-jul-07)-stable) date Tue 01 Aug 2017 10:55:42 AM PDT*
%MOIN*%
G04 Gerber Fmt 3.4, Leading zero omitted, Abs format*
%FSLAX34Y34*%
G01*
G70*
G90*
G04 APERTURE LIST*
%ADD10C,0.00393701*%
%ADD11C,0.011811*%
%ADD12C,0.012*%
%ADD13C,0.01*%
%ADD14C,0.006*%
%ADD15C,0.008*%
%ADD16C,0.005*%
%ADD17C,0.0019685*%
G04 APERTURE END LIST*
G54D10*
X4000Y-4000D02*
X161350Y-4000D01*
X161350Y-112930D01*
X4000Y-112930D01*
X4000Y-4000D01*
X4700Y-4700D02*
X160650Y-4700D01*
X160650Y-112230D01*
X4700Y-112230D01*
X4700Y-4700D01*
X26470Y-4000D02*
X26470Y-4700D01*
X15382Y-4552D02*
X15097Y-4552D01*
X15240Y-4552D02*
X15240Y-4052D01*
X15192Y-4123D01*
X15144Y-4171D01*
X15097Y-4195D01*
X26470Y-112930D02*
X26470Y-112230D01*
X15382Y-112782D02*
X15097Y-112782D01*
X15240Y-112782D02*
X15240Y-112282D01*
X15192Y-112353D01*
X15144Y-112401D01*
X15097Y-112425D01*
X48940Y-4000D02*
X48940Y-4700D01*
X37567Y-4100D02*
X37590Y-4076D01*
X37638Y-4052D01*
X37757Y-4052D01*
X37805Y-4076D01*
X37829Y-4100D01*
X37852Y-4147D01*
X37852Y-4195D01*
X37829Y-4266D01*
X37543Y-4552D01*
X37852Y-4552D01*
X48940Y-112930D02*
X48940Y-112230D01*
X37567Y-112330D02*
X37590Y-112306D01*
X37638Y-112282D01*
X37757Y-112282D01*
X37805Y-112306D01*
X37829Y-112330D01*
X37852Y-112377D01*
X37852Y-112425D01*
X37829Y-112496D01*
X37543Y-112782D01*
X37852Y-112782D01*
X71410Y-4000D02*
X71410Y-4700D01*
X60013Y-4052D02*
X60322Y-4052D01*
X60156Y-4242D01*
X60227Y-4242D01*
X60275Y-4266D01*
X60299Y-4290D01*
X60322Y-4338D01*
X60322Y-4457D01*
X60299Y-4504D01*
X60275Y-4528D01*
X60227Y-4552D01*
X60084Y-4552D01*
X60037Y-4528D01*
X60013Y-4504D01*
X71410Y-112930D02*
X71410Y-112230D01*
X60013Y-112282D02*
X60322Y-112282D01*
X60156Y-112472D01*
X60227Y-112472D01*
X60275Y-112496D01*
X60299Y-112520D01*
X60322Y-112568D01*
X60322Y-112687D01*
X60299Y-112734D01*
X60275Y-112758D01*
X60227Y-112782D01*
X60084Y-112782D01*
X60037Y-112758D01*
X60013Y-112734D01*
X93880Y-4000D02*
X93880Y-4700D01*
X82745Y-4219D02*
X82745Y-4552D01*
X82626Y-4028D02*
X82507Y-4385D01*
X82816Y-4385D01*
X93880Y-112930D02*
X93880Y-112230D01*
X82745Y-112449D02*
X82745Y-112782D01*
X82626Y-112258D02*
X82507Y-112615D01*
X82816Y-112615D01*
X116350Y-4000D02*
X116350Y-4700D01*
X105239Y-4052D02*
X105000Y-4052D01*
X104977Y-4290D01*
X105000Y-4266D01*
X105048Y-4242D01*
X105167Y-4242D01*
X105215Y-4266D01*
X105239Y-4290D01*
X105262Y-4338D01*
X105262Y-4457D01*
X105239Y-4504D01*
X105215Y-4528D01*
X105167Y-4552D01*
X105048Y-4552D01*
X105000Y-4528D01*
X104977Y-4504D01*
X116350Y-112930D02*
X116350Y-112230D01*
X105239Y-112282D02*
X105000Y-112282D01*
X104977Y-112520D01*
X105000Y-112496D01*
X105048Y-112472D01*
X105167Y-112472D01*
X105215Y-112496D01*
X105239Y-112520D01*
X105262Y-112568D01*
X105262Y-112687D01*
X105239Y-112734D01*
X105215Y-112758D01*
X105167Y-112782D01*
X105048Y-112782D01*
X105000Y-112758D01*
X104977Y-112734D01*
X138820Y-4000D02*
X138820Y-4700D01*
X127685Y-4052D02*
X127590Y-4052D01*
X127542Y-4076D01*
X127518Y-4100D01*
X127470Y-4171D01*
X127447Y-4266D01*
X127447Y-4457D01*
X127470Y-4504D01*
X127494Y-4528D01*
X127542Y-4552D01*
X127637Y-4552D01*
X127685Y-4528D01*
X127709Y-4504D01*
X127732Y-4457D01*
X127732Y-4338D01*
X127709Y-4290D01*
X127685Y-4266D01*
X127637Y-4242D01*
X127542Y-4242D01*
X127494Y-4266D01*
X127470Y-4290D01*
X127447Y-4338D01*
X138820Y-112930D02*
X138820Y-112230D01*
X127685Y-112282D02*
X127590Y-112282D01*
X127542Y-112306D01*
X127518Y-112330D01*
X127470Y-112401D01*
X127447Y-112496D01*
X127447Y-112687D01*
X127470Y-112734D01*
X127494Y-112758D01*
X127542Y-112782D01*
X127637Y-112782D01*
X127685Y-112758D01*
X127709Y-112734D01*
X127732Y-112687D01*
X127732Y-112568D01*
X127709Y-112520D01*
X127685Y-112496D01*
X127637Y-112472D01*
X127542Y-112472D01*
X127494Y-112496D01*
X127470Y-112520D01*
X127447Y-112568D01*
X149893Y-4052D02*
X150226Y-4052D01*
X150012Y-4552D01*
X149893Y-112282D02*
X150226Y-112282D01*
X150012Y-112782D01*
X4000Y-25780D02*
X4700Y-25780D01*
X4230Y-14949D02*
X4469Y-14949D01*
X4183Y-15092D02*
X4350Y-14592D01*
X4516Y-15092D01*
X161350Y-25780D02*
X160650Y-25780D01*
X160880Y-14949D02*
X161119Y-14949D01*
X160833Y-15092D02*
X161000Y-14592D01*
X161166Y-15092D01*
X4000Y-47560D02*
X4700Y-47560D01*
X4385Y-36610D02*
X4457Y-36634D01*
X4480Y-36658D01*
X4504Y-36705D01*
X4504Y-36777D01*
X4480Y-36824D01*
X4457Y-36848D01*
X4409Y-36872D01*
X4219Y-36872D01*
X4219Y-36372D01*
X4385Y-36372D01*
X4433Y-36396D01*
X4457Y-36420D01*
X4480Y-36467D01*
X4480Y-36515D01*
X4457Y-36562D01*
X4433Y-36586D01*
X4385Y-36610D01*
X4219Y-36610D01*
X161350Y-47560D02*
X160650Y-47560D01*
X161035Y-36610D02*
X161107Y-36634D01*
X161130Y-36658D01*
X161154Y-36705D01*
X161154Y-36777D01*
X161130Y-36824D01*
X161107Y-36848D01*
X161059Y-36872D01*
X160869Y-36872D01*
X160869Y-36372D01*
X161035Y-36372D01*
X161083Y-36396D01*
X161107Y-36420D01*
X161130Y-36467D01*
X161130Y-36515D01*
X161107Y-36562D01*
X161083Y-36586D01*
X161035Y-36610D01*
X160869Y-36610D01*
X4000Y-69340D02*
X4700Y-69340D01*
X4504Y-58604D02*
X4480Y-58628D01*
X4409Y-58652D01*
X4361Y-58652D01*
X4290Y-58628D01*
X4242Y-58580D01*
X4219Y-58533D01*
X4195Y-58438D01*
X4195Y-58366D01*
X4219Y-58271D01*
X4242Y-58223D01*
X4290Y-58176D01*
X4361Y-58152D01*
X4409Y-58152D01*
X4480Y-58176D01*
X4504Y-58200D01*
X161350Y-69340D02*
X160650Y-69340D01*
X161154Y-58604D02*
X161130Y-58628D01*
X161059Y-58652D01*
X161011Y-58652D01*
X160940Y-58628D01*
X160892Y-58580D01*
X160869Y-58533D01*
X160845Y-58438D01*
X160845Y-58366D01*
X160869Y-58271D01*
X160892Y-58223D01*
X160940Y-58176D01*
X161011Y-58152D01*
X161059Y-58152D01*
X161130Y-58176D01*
X161154Y-58200D01*
X4000Y-91120D02*
X4700Y-91120D01*
X4219Y-80432D02*
X4219Y-79932D01*
X4338Y-79932D01*
X4409Y-79956D01*
X4457Y-80003D01*
X4480Y-80051D01*
X4504Y-80146D01*
X4504Y-80218D01*
X4480Y-80313D01*
X4457Y-80360D01*
X4409Y-80408D01*
X4338Y-80432D01*
X4219Y-80432D01*
X161350Y-91120D02*
X160650Y-91120D01*
X160869Y-80432D02*
X160869Y-79932D01*
X160988Y-79932D01*
X161059Y-79956D01*
X161107Y-80003D01*
X161130Y-80051D01*
X161154Y-80146D01*
X161154Y-80218D01*
X161130Y-80313D01*
X161107Y-80360D01*
X161059Y-80408D01*
X160988Y-80432D01*
X160869Y-80432D01*
X4242Y-101950D02*
X4409Y-101950D01*
X4480Y-102212D02*
X4242Y-102212D01*
X4242Y-101712D01*
X4480Y-101712D01*
X160892Y-101950D02*
X161059Y-101950D01*
X161130Y-102212D02*
X160892Y-102212D01*
X160892Y-101712D01*
X161130Y-101712D01*
X127800Y-110672D02*
X127875Y-110072D01*
X128017Y-110072D01*
X128100Y-110101D01*
X128150Y-110158D01*
X128171Y-110215D01*
X128185Y-110330D01*
X128175Y-110415D01*
X128132Y-110530D01*
X128096Y-110587D01*
X128032Y-110644D01*
X127942Y-110672D01*
X127800Y-110672D01*
X128657Y-110672D02*
X128696Y-110358D01*
X128675Y-110301D01*
X128621Y-110272D01*
X128507Y-110272D01*
X128446Y-110301D01*
X128660Y-110644D02*
X128600Y-110672D01*
X128457Y-110672D01*
X128403Y-110644D01*
X128382Y-110587D01*
X128389Y-110530D01*
X128425Y-110472D01*
X128485Y-110444D01*
X128628Y-110444D01*
X128689Y-110415D01*
X128907Y-110272D02*
X129135Y-110272D01*
X129017Y-110072D02*
X128953Y-110587D01*
X128975Y-110644D01*
X129028Y-110672D01*
X129085Y-110672D01*
X129517Y-110644D02*
X129457Y-110672D01*
X129342Y-110672D01*
X129289Y-110644D01*
X129267Y-110587D01*
X129296Y-110358D01*
X129332Y-110301D01*
X129392Y-110272D01*
X129507Y-110272D01*
X129560Y-110301D01*
X129582Y-110358D01*
X129575Y-110415D01*
X129282Y-110472D01*
X129807Y-110615D02*
X129832Y-110644D01*
X129800Y-110672D01*
X129775Y-110644D01*
X129807Y-110615D01*
X129800Y-110672D01*
X129846Y-110301D02*
X129871Y-110330D01*
X129839Y-110358D01*
X129814Y-110330D01*
X129846Y-110301D01*
X129839Y-110358D01*
X130857Y-110672D02*
X130514Y-110672D01*
X130685Y-110672D02*
X130760Y-110072D01*
X130692Y-110158D01*
X130628Y-110215D01*
X130567Y-110244D01*
X131828Y-110672D02*
X131867Y-110358D01*
X131846Y-110301D01*
X131792Y-110272D01*
X131678Y-110272D01*
X131617Y-110301D01*
X131832Y-110644D02*
X131771Y-110672D01*
X131628Y-110672D01*
X131575Y-110644D01*
X131553Y-110587D01*
X131560Y-110530D01*
X131596Y-110472D01*
X131657Y-110444D01*
X131800Y-110444D01*
X131860Y-110415D01*
X132421Y-110272D02*
X132371Y-110672D01*
X132164Y-110272D02*
X132125Y-110587D01*
X132146Y-110644D01*
X132200Y-110672D01*
X132285Y-110672D01*
X132346Y-110644D01*
X132378Y-110615D01*
X132964Y-110272D02*
X132903Y-110758D01*
X132867Y-110815D01*
X132835Y-110844D01*
X132775Y-110872D01*
X132689Y-110872D01*
X132635Y-110844D01*
X132917Y-110644D02*
X132857Y-110672D01*
X132742Y-110672D01*
X132689Y-110644D01*
X132664Y-110615D01*
X132642Y-110558D01*
X132664Y-110387D01*
X132700Y-110330D01*
X132732Y-110301D01*
X132792Y-110272D01*
X132907Y-110272D01*
X132960Y-110301D01*
X133696Y-110130D02*
X133728Y-110101D01*
X133789Y-110072D01*
X133932Y-110072D01*
X133985Y-110101D01*
X134010Y-110130D01*
X134032Y-110187D01*
X134025Y-110244D01*
X133985Y-110330D01*
X133600Y-110672D01*
X133971Y-110672D01*
X134417Y-110072D02*
X134475Y-110072D01*
X134528Y-110101D01*
X134553Y-110130D01*
X134575Y-110187D01*
X134589Y-110301D01*
X134571Y-110444D01*
X134528Y-110558D01*
X134492Y-110615D01*
X134460Y-110644D01*
X134400Y-110672D01*
X134342Y-110672D01*
X134289Y-110644D01*
X134264Y-110615D01*
X134242Y-110558D01*
X134228Y-110444D01*
X134246Y-110301D01*
X134289Y-110187D01*
X134325Y-110130D01*
X134357Y-110101D01*
X134417Y-110072D01*
X135114Y-110672D02*
X134771Y-110672D01*
X134942Y-110672D02*
X135017Y-110072D01*
X134950Y-110158D01*
X134885Y-110215D01*
X134825Y-110244D01*
X135389Y-110072D02*
X135789Y-110072D01*
X135457Y-110672D01*
X119392Y-111872D02*
X119392Y-111272D01*
X119735Y-111872D02*
X119478Y-111530D01*
X119735Y-111272D02*
X119392Y-111615D01*
X119992Y-111872D02*
X119992Y-111472D01*
X119992Y-111272D02*
X119964Y-111301D01*
X119992Y-111330D01*
X120021Y-111301D01*
X119992Y-111272D01*
X119992Y-111330D01*
X120621Y-111815D02*
X120592Y-111844D01*
X120507Y-111872D01*
X120450Y-111872D01*
X120364Y-111844D01*
X120307Y-111787D01*
X120278Y-111730D01*
X120250Y-111615D01*
X120250Y-111530D01*
X120278Y-111415D01*
X120307Y-111358D01*
X120364Y-111301D01*
X120450Y-111272D01*
X120507Y-111272D01*
X120592Y-111301D01*
X120621Y-111330D01*
X121135Y-111872D02*
X121135Y-111558D01*
X121107Y-111501D01*
X121050Y-111472D01*
X120935Y-111472D01*
X120878Y-111501D01*
X121135Y-111844D02*
X121078Y-111872D01*
X120935Y-111872D01*
X120878Y-111844D01*
X120850Y-111787D01*
X120850Y-111730D01*
X120878Y-111672D01*
X120935Y-111644D01*
X121078Y-111644D01*
X121135Y-111615D01*
X121678Y-111872D02*
X121678Y-111272D01*
X121678Y-111844D02*
X121621Y-111872D01*
X121507Y-111872D01*
X121450Y-111844D01*
X121421Y-111815D01*
X121392Y-111758D01*
X121392Y-111587D01*
X121421Y-111530D01*
X121450Y-111501D01*
X121507Y-111472D01*
X121621Y-111472D01*
X121678Y-111501D01*
X122421Y-111558D02*
X122621Y-111558D01*
X122707Y-111872D02*
X122421Y-111872D01*
X122421Y-111272D01*
X122707Y-111272D01*
X122964Y-111815D02*
X122992Y-111844D01*
X122964Y-111872D01*
X122935Y-111844D01*
X122964Y-111815D01*
X122964Y-111872D01*
X123249Y-111872D02*
X123249Y-111272D01*
X123392Y-111272D01*
X123478Y-111301D01*
X123535Y-111358D01*
X123564Y-111415D01*
X123592Y-111530D01*
X123592Y-111615D01*
X123564Y-111730D01*
X123535Y-111787D01*
X123478Y-111844D01*
X123392Y-111872D01*
X123249Y-111872D01*
X123849Y-111815D02*
X123878Y-111844D01*
X123849Y-111872D01*
X123821Y-111844D01*
X123849Y-111815D01*
X123849Y-111872D01*
X124107Y-111701D02*
X124392Y-111701D01*
X124049Y-111872D02*
X124249Y-111272D01*
X124449Y-111872D01*
X124649Y-111815D02*
X124678Y-111844D01*
X124649Y-111872D01*
X124621Y-111844D01*
X124649Y-111815D01*
X124649Y-111872D01*
X152942Y-110672D02*
X152778Y-110387D01*
X152600Y-110672D02*
X152675Y-110072D01*
X152903Y-110072D01*
X152957Y-110101D01*
X152982Y-110130D01*
X153003Y-110187D01*
X152992Y-110272D01*
X152957Y-110330D01*
X152925Y-110358D01*
X152864Y-110387D01*
X152635Y-110387D01*
X153432Y-110644D02*
X153371Y-110672D01*
X153257Y-110672D01*
X153203Y-110644D01*
X153182Y-110587D01*
X153210Y-110358D01*
X153246Y-110301D01*
X153307Y-110272D01*
X153421Y-110272D01*
X153475Y-110301D01*
X153496Y-110358D01*
X153489Y-110415D01*
X153196Y-110472D01*
X153707Y-110272D02*
X153800Y-110672D01*
X153992Y-110272D01*
X154178Y-110615D02*
X154203Y-110644D01*
X154171Y-110672D01*
X154146Y-110644D01*
X154178Y-110615D01*
X154171Y-110672D01*
X154217Y-110301D02*
X154242Y-110330D01*
X154210Y-110358D01*
X154185Y-110330D01*
X154217Y-110301D01*
X154210Y-110358D01*
X119364Y-110644D02*
X119450Y-110672D01*
X119592Y-110672D01*
X119650Y-110644D01*
X119678Y-110615D01*
X119707Y-110558D01*
X119707Y-110501D01*
X119678Y-110444D01*
X119650Y-110415D01*
X119592Y-110387D01*
X119478Y-110358D01*
X119421Y-110330D01*
X119392Y-110301D01*
X119364Y-110244D01*
X119364Y-110187D01*
X119392Y-110130D01*
X119421Y-110101D01*
X119478Y-110072D01*
X119621Y-110072D01*
X119707Y-110101D01*
X119964Y-110672D02*
X119964Y-110272D01*
X119964Y-110072D02*
X119935Y-110101D01*
X119964Y-110130D01*
X119992Y-110101D01*
X119964Y-110072D01*
X119964Y-110130D01*
X120192Y-110272D02*
X120507Y-110272D01*
X120192Y-110672D01*
X120507Y-110672D01*
X120964Y-110644D02*
X120907Y-110672D01*
X120792Y-110672D01*
X120735Y-110644D01*
X120707Y-110587D01*
X120707Y-110358D01*
X120735Y-110301D01*
X120792Y-110272D01*
X120907Y-110272D01*
X120964Y-110301D01*
X120992Y-110358D01*
X120992Y-110415D01*
X120707Y-110472D01*
X121250Y-110615D02*
X121278Y-110644D01*
X121250Y-110672D01*
X121221Y-110644D01*
X121250Y-110615D01*
X121250Y-110672D01*
X121250Y-110301D02*
X121278Y-110330D01*
X121250Y-110358D01*
X121221Y-110330D01*
X121250Y-110301D01*
X121250Y-110358D01*
X121964Y-110501D02*
X122250Y-110501D01*
X121907Y-110672D02*
X122107Y-110072D01*
X122307Y-110672D01*
X122450Y-110072D02*
X122821Y-110072D01*
X122621Y-110301D01*
X122707Y-110301D01*
X122764Y-110330D01*
X122792Y-110358D01*
X122821Y-110415D01*
X122821Y-110558D01*
X122792Y-110615D01*
X122764Y-110644D01*
X122707Y-110672D01*
X122535Y-110672D01*
X122478Y-110644D01*
X122450Y-110615D01*
X152592Y-111872D02*
X152592Y-111272D01*
X153135Y-111872D02*
X153135Y-111272D01*
X153135Y-111844D02*
X153078Y-111872D01*
X152964Y-111872D01*
X152907Y-111844D01*
X152878Y-111815D01*
X152850Y-111758D01*
X152850Y-111587D01*
X152878Y-111530D01*
X152907Y-111501D01*
X152964Y-111472D01*
X153078Y-111472D01*
X153135Y-111501D01*
X153421Y-111815D02*
X153450Y-111844D01*
X153421Y-111872D01*
X153392Y-111844D01*
X153421Y-111815D01*
X153421Y-111872D01*
X153421Y-111501D02*
X153450Y-111530D01*
X153421Y-111558D01*
X153392Y-111530D01*
X153421Y-111501D01*
X153421Y-111558D01*
X154478Y-111872D02*
X154135Y-111872D01*
X154307Y-111872D02*
X154307Y-111272D01*
X154249Y-111358D01*
X154192Y-111415D01*
X154135Y-111444D01*
X155164Y-111244D02*
X154650Y-112015D01*
X155678Y-111872D02*
X155335Y-111872D01*
X155507Y-111872D02*
X155507Y-111272D01*
X155449Y-111358D01*
X155392Y-111415D01*
X155335Y-111444D01*
X119389Y-108872D02*
X119732Y-108872D01*
X119485Y-109472D02*
X119560Y-108872D01*
X119857Y-109472D02*
X119907Y-109072D01*
X119932Y-108872D02*
X119900Y-108901D01*
X119925Y-108930D01*
X119957Y-108901D01*
X119932Y-108872D01*
X119925Y-108930D01*
X120107Y-109072D02*
X120335Y-109072D01*
X120217Y-108872D02*
X120153Y-109387D01*
X120175Y-109444D01*
X120228Y-109472D01*
X120285Y-109472D01*
X120571Y-109472D02*
X120517Y-109444D01*
X120496Y-109387D01*
X120560Y-108872D01*
X121032Y-109444D02*
X120971Y-109472D01*
X120857Y-109472D01*
X120803Y-109444D01*
X120782Y-109387D01*
X120810Y-109158D01*
X120846Y-109101D01*
X120907Y-109072D01*
X121021Y-109072D01*
X121075Y-109101D01*
X121096Y-109158D01*
X121089Y-109215D01*
X120796Y-109272D01*
X121321Y-109415D02*
X121346Y-109444D01*
X121314Y-109472D01*
X121289Y-109444D01*
X121321Y-109415D01*
X121314Y-109472D01*
X121360Y-109101D02*
X121385Y-109130D01*
X121353Y-109158D01*
X121328Y-109130D01*
X121360Y-109101D01*
X121353Y-109158D01*
X119592Y-106758D02*
X119392Y-106758D01*
X119392Y-107072D02*
X119392Y-106472D01*
X119678Y-106472D01*
X119907Y-107072D02*
X119907Y-106672D01*
X119907Y-106472D02*
X119878Y-106501D01*
X119907Y-106530D01*
X119935Y-106501D01*
X119907Y-106472D01*
X119907Y-106530D01*
X120278Y-107072D02*
X120221Y-107044D01*
X120192Y-106987D01*
X120192Y-106472D01*
X120735Y-107044D02*
X120678Y-107072D01*
X120564Y-107072D01*
X120507Y-107044D01*
X120478Y-106987D01*
X120478Y-106758D01*
X120507Y-106701D01*
X120564Y-106672D01*
X120678Y-106672D01*
X120735Y-106701D01*
X120764Y-106758D01*
X120764Y-106815D01*
X120478Y-106872D01*
X121021Y-107015D02*
X121050Y-107044D01*
X121021Y-107072D01*
X120992Y-107044D01*
X121021Y-107015D01*
X121021Y-107072D01*
X121021Y-106701D02*
X121050Y-106730D01*
X121021Y-106758D01*
X120992Y-106730D01*
X121021Y-106701D01*
X121021Y-106758D01*
X121707Y-106472D02*
X122078Y-106472D01*
X121878Y-106701D01*
X121964Y-106701D01*
X122021Y-106730D01*
X122050Y-106758D01*
X122078Y-106815D01*
X122078Y-106958D01*
X122050Y-107015D01*
X122021Y-107044D01*
X121964Y-107072D01*
X121792Y-107072D01*
X121735Y-107044D01*
X121707Y-107015D01*
X122678Y-107015D02*
X122650Y-107044D01*
X122564Y-107072D01*
X122507Y-107072D01*
X122421Y-107044D01*
X122364Y-106987D01*
X122335Y-106930D01*
X122307Y-106815D01*
X122307Y-106730D01*
X122335Y-106615D01*
X122364Y-106558D01*
X122421Y-106501D01*
X122507Y-106472D01*
X122564Y-106472D01*
X122650Y-106501D01*
X122678Y-106530D01*
X122935Y-107072D02*
X122935Y-106472D01*
X123192Y-107072D02*
X123192Y-106758D01*
X123164Y-106701D01*
X123107Y-106672D01*
X123021Y-106672D01*
X122964Y-106701D01*
X122935Y-106730D01*
X123735Y-107072D02*
X123735Y-106758D01*
X123707Y-106701D01*
X123650Y-106672D01*
X123535Y-106672D01*
X123478Y-106701D01*
X123735Y-107044D02*
X123678Y-107072D01*
X123535Y-107072D01*
X123478Y-107044D01*
X123450Y-106987D01*
X123450Y-106930D01*
X123478Y-106872D01*
X123535Y-106844D01*
X123678Y-106844D01*
X123735Y-106815D01*
X124021Y-106672D02*
X124021Y-107072D01*
X124021Y-106730D02*
X124050Y-106701D01*
X124107Y-106672D01*
X124192Y-106672D01*
X124250Y-106701D01*
X124278Y-106758D01*
X124278Y-107072D01*
X124564Y-107072D02*
X124564Y-106472D01*
X124764Y-106901D01*
X124964Y-106472D01*
X124964Y-107072D01*
X125335Y-107072D02*
X125278Y-107044D01*
X125250Y-107015D01*
X125221Y-106958D01*
X125221Y-106787D01*
X125250Y-106730D01*
X125278Y-106701D01*
X125335Y-106672D01*
X125421Y-106672D01*
X125478Y-106701D01*
X125507Y-106730D01*
X125535Y-106787D01*
X125535Y-106958D01*
X125507Y-107015D01*
X125478Y-107044D01*
X125421Y-107072D01*
X125335Y-107072D01*
X125764Y-107044D02*
X125821Y-107072D01*
X125935Y-107072D01*
X125992Y-107044D01*
X126021Y-106987D01*
X126021Y-106958D01*
X125992Y-106901D01*
X125935Y-106872D01*
X125850Y-106872D01*
X125792Y-106844D01*
X125764Y-106787D01*
X125764Y-106758D01*
X125792Y-106701D01*
X125850Y-106672D01*
X125935Y-106672D01*
X125992Y-106701D01*
X126192Y-106672D02*
X126421Y-106672D01*
X126278Y-107072D02*
X126278Y-106558D01*
X126307Y-106501D01*
X126364Y-106472D01*
X126421Y-106472D01*
X126850Y-107044D02*
X126792Y-107072D01*
X126678Y-107072D01*
X126621Y-107044D01*
X126592Y-106987D01*
X126592Y-106758D01*
X126621Y-106701D01*
X126678Y-106672D01*
X126792Y-106672D01*
X126850Y-106701D01*
X126878Y-106758D01*
X126878Y-106815D01*
X126592Y-106872D01*
X127050Y-106672D02*
X127278Y-106672D01*
X127135Y-106472D02*
X127135Y-106987D01*
X127164Y-107044D01*
X127221Y-107072D01*
X127278Y-107072D01*
X127678Y-106758D02*
X127764Y-106787D01*
X127792Y-106815D01*
X127821Y-106872D01*
X127821Y-106958D01*
X127792Y-107015D01*
X127764Y-107044D01*
X127707Y-107072D01*
X127478Y-107072D01*
X127478Y-106472D01*
X127678Y-106472D01*
X127735Y-106501D01*
X127764Y-106530D01*
X127792Y-106587D01*
X127792Y-106644D01*
X127764Y-106701D01*
X127735Y-106730D01*
X127678Y-106758D01*
X127478Y-106758D01*
X128164Y-107072D02*
X128107Y-107044D01*
X128078Y-107015D01*
X128050Y-106958D01*
X128050Y-106787D01*
X128078Y-106730D01*
X128107Y-106701D01*
X128164Y-106672D01*
X128250Y-106672D01*
X128307Y-106701D01*
X128335Y-106730D01*
X128364Y-106787D01*
X128364Y-106958D01*
X128335Y-107015D01*
X128307Y-107044D01*
X128250Y-107072D01*
X128164Y-107072D01*
X128878Y-107072D02*
X128878Y-106758D01*
X128850Y-106701D01*
X128792Y-106672D01*
X128678Y-106672D01*
X128621Y-106701D01*
X128878Y-107044D02*
X128821Y-107072D01*
X128678Y-107072D01*
X128621Y-107044D01*
X128592Y-106987D01*
X128592Y-106930D01*
X128621Y-106872D01*
X128678Y-106844D01*
X128821Y-106844D01*
X128878Y-106815D01*
X129164Y-107072D02*
X129164Y-106672D01*
X129164Y-106787D02*
X129192Y-106730D01*
X129221Y-106701D01*
X129278Y-106672D01*
X129335Y-106672D01*
X129792Y-107072D02*
X129792Y-106472D01*
X129792Y-107044D02*
X129735Y-107072D01*
X129621Y-107072D01*
X129564Y-107044D01*
X129535Y-107015D01*
X129507Y-106958D01*
X129507Y-106787D01*
X129535Y-106730D01*
X129564Y-106701D01*
X129621Y-106672D01*
X129735Y-106672D01*
X129792Y-106701D01*
X130078Y-107015D02*
X130107Y-107044D01*
X130078Y-107072D01*
X130050Y-107044D01*
X130078Y-107015D01*
X130078Y-107072D01*
X130364Y-107072D02*
X130364Y-106472D01*
X130421Y-106844D02*
X130592Y-107072D01*
X130592Y-106672D02*
X130364Y-106901D01*
X130849Y-107072D02*
X130849Y-106672D01*
X130849Y-106472D02*
X130821Y-106501D01*
X130849Y-106530D01*
X130878Y-106501D01*
X130849Y-106472D01*
X130849Y-106530D01*
X131392Y-107044D02*
X131335Y-107072D01*
X131221Y-107072D01*
X131164Y-107044D01*
X131135Y-107015D01*
X131107Y-106958D01*
X131107Y-106787D01*
X131135Y-106730D01*
X131164Y-106701D01*
X131221Y-106672D01*
X131335Y-106672D01*
X131392Y-106701D01*
X131907Y-107072D02*
X131907Y-106758D01*
X131878Y-106701D01*
X131821Y-106672D01*
X131707Y-106672D01*
X131649Y-106701D01*
X131907Y-107044D02*
X131849Y-107072D01*
X131707Y-107072D01*
X131649Y-107044D01*
X131621Y-106987D01*
X131621Y-106930D01*
X131649Y-106872D01*
X131707Y-106844D01*
X131849Y-106844D01*
X131907Y-106815D01*
X132449Y-107072D02*
X132449Y-106472D01*
X132449Y-107044D02*
X132392Y-107072D01*
X132278Y-107072D01*
X132221Y-107044D01*
X132192Y-107015D01*
X132164Y-106958D01*
X132164Y-106787D01*
X132192Y-106730D01*
X132221Y-106701D01*
X132278Y-106672D01*
X132392Y-106672D01*
X132449Y-106701D01*
X132592Y-107130D02*
X133049Y-107130D01*
X133192Y-106672D02*
X133192Y-107272D01*
X133192Y-106701D02*
X133249Y-106672D01*
X133364Y-106672D01*
X133421Y-106701D01*
X133449Y-106730D01*
X133478Y-106787D01*
X133478Y-106958D01*
X133449Y-107015D01*
X133421Y-107044D01*
X133364Y-107072D01*
X133249Y-107072D01*
X133192Y-107044D01*
X133992Y-107044D02*
X133935Y-107072D01*
X133821Y-107072D01*
X133764Y-107044D01*
X133735Y-107015D01*
X133707Y-106958D01*
X133707Y-106787D01*
X133735Y-106730D01*
X133764Y-106701D01*
X133821Y-106672D01*
X133935Y-106672D01*
X133992Y-106701D01*
X134249Y-107072D02*
X134249Y-106472D01*
X134249Y-106701D02*
X134307Y-106672D01*
X134421Y-106672D01*
X134478Y-106701D01*
X134507Y-106730D01*
X134535Y-106787D01*
X134535Y-106958D01*
X134507Y-107015D01*
X134478Y-107044D01*
X134421Y-107072D01*
X134307Y-107072D01*
X134249Y-107044D01*
X119364Y-108244D02*
X119450Y-108272D01*
X119592Y-108272D01*
X119650Y-108244D01*
X119678Y-108215D01*
X119707Y-108158D01*
X119707Y-108101D01*
X119678Y-108044D01*
X119650Y-108015D01*
X119592Y-107987D01*
X119478Y-107958D01*
X119421Y-107930D01*
X119392Y-107901D01*
X119364Y-107844D01*
X119364Y-107787D01*
X119392Y-107730D01*
X119421Y-107701D01*
X119478Y-107672D01*
X119621Y-107672D01*
X119707Y-107701D01*
X119964Y-108272D02*
X119964Y-107672D01*
X120221Y-108272D02*
X120221Y-107958D01*
X120192Y-107901D01*
X120135Y-107872D01*
X120050Y-107872D01*
X119992Y-107901D01*
X119964Y-107930D01*
X120735Y-108244D02*
X120678Y-108272D01*
X120564Y-108272D01*
X120507Y-108244D01*
X120478Y-108187D01*
X120478Y-107958D01*
X120507Y-107901D01*
X120564Y-107872D01*
X120678Y-107872D01*
X120735Y-107901D01*
X120764Y-107958D01*
X120764Y-108015D01*
X120478Y-108072D01*
X121250Y-108244D02*
X121192Y-108272D01*
X121078Y-108272D01*
X121021Y-108244D01*
X120992Y-108187D01*
X120992Y-107958D01*
X121021Y-107901D01*
X121078Y-107872D01*
X121192Y-107872D01*
X121250Y-107901D01*
X121278Y-107958D01*
X121278Y-108015D01*
X120992Y-108072D01*
X121450Y-107872D02*
X121678Y-107872D01*
X121535Y-107672D02*
X121535Y-108187D01*
X121564Y-108244D01*
X121621Y-108272D01*
X121678Y-108272D01*
X121878Y-108215D02*
X121907Y-108244D01*
X121878Y-108272D01*
X121850Y-108244D01*
X121878Y-108215D01*
X121878Y-108272D01*
X121878Y-107901D02*
X121907Y-107930D01*
X121878Y-107958D01*
X121850Y-107930D01*
X121878Y-107901D01*
X121878Y-107958D01*
X118650Y-106230D02*
X118650Y-112230D01*
X118650Y-106230D02*
X160650Y-106230D01*
X118650Y-106230D02*
X160650Y-106230D01*
X118650Y-108630D02*
X160650Y-108630D01*
X151850Y-109830D02*
X151850Y-112230D01*
X118650Y-111030D02*
X160650Y-111030D01*
X118650Y-109830D02*
X160650Y-109830D01*
X125250Y-109830D02*
X125250Y-111030D01*
G54D11*
X59122Y-50148D02*
X59488Y-50148D01*
X59291Y-50373D01*
X59375Y-50373D01*
X59431Y-50401D01*
X59460Y-50429D01*
X59488Y-50485D01*
X59488Y-50626D01*
X59460Y-50682D01*
X59431Y-50710D01*
X59375Y-50739D01*
X59206Y-50739D01*
X59150Y-50710D01*
X59122Y-50682D01*
X60528Y-50682D02*
X60500Y-50710D01*
X60416Y-50739D01*
X60359Y-50739D01*
X60275Y-50710D01*
X60219Y-50654D01*
X60191Y-50598D01*
X60163Y-50485D01*
X60163Y-50401D01*
X60191Y-50289D01*
X60219Y-50232D01*
X60275Y-50176D01*
X60359Y-50148D01*
X60416Y-50148D01*
X60500Y-50176D01*
X60528Y-50204D01*
X60781Y-50739D02*
X60781Y-50148D01*
X61034Y-50739D02*
X61034Y-50429D01*
X61006Y-50373D01*
X60950Y-50345D01*
X60866Y-50345D01*
X60809Y-50373D01*
X60781Y-50401D01*
X61569Y-50739D02*
X61569Y-50429D01*
X61541Y-50373D01*
X61484Y-50345D01*
X61372Y-50345D01*
X61316Y-50373D01*
X61569Y-50710D02*
X61512Y-50739D01*
X61372Y-50739D01*
X61316Y-50710D01*
X61287Y-50654D01*
X61287Y-50598D01*
X61316Y-50542D01*
X61372Y-50514D01*
X61512Y-50514D01*
X61569Y-50485D01*
X61850Y-50345D02*
X61850Y-50739D01*
X61850Y-50401D02*
X61878Y-50373D01*
X61934Y-50345D01*
X62019Y-50345D01*
X62075Y-50373D01*
X62103Y-50429D01*
X62103Y-50739D01*
X62384Y-50345D02*
X62384Y-50739D01*
X62384Y-50401D02*
X62412Y-50373D01*
X62469Y-50345D01*
X62553Y-50345D01*
X62609Y-50373D01*
X62637Y-50429D01*
X62637Y-50739D01*
X63143Y-50710D02*
X63087Y-50739D01*
X62975Y-50739D01*
X62919Y-50710D01*
X62890Y-50654D01*
X62890Y-50429D01*
X62919Y-50373D01*
X62975Y-50345D01*
X63087Y-50345D01*
X63143Y-50373D01*
X63172Y-50429D01*
X63172Y-50485D01*
X62890Y-50542D01*
X63509Y-50739D02*
X63453Y-50710D01*
X63425Y-50654D01*
X63425Y-50148D01*
X64465Y-50739D02*
X64184Y-50739D01*
X64184Y-50148D01*
X64662Y-50429D02*
X64859Y-50429D01*
X64943Y-50739D02*
X64662Y-50739D01*
X64662Y-50148D01*
X64943Y-50148D01*
X65196Y-50739D02*
X65196Y-50148D01*
X65337Y-50148D01*
X65421Y-50176D01*
X65478Y-50232D01*
X65506Y-50289D01*
X65534Y-50401D01*
X65534Y-50485D01*
X65506Y-50598D01*
X65478Y-50654D01*
X65421Y-50710D01*
X65337Y-50739D01*
X65196Y-50739D01*
X66237Y-50739D02*
X66237Y-50148D01*
X66377Y-50148D01*
X66462Y-50176D01*
X66518Y-50232D01*
X66546Y-50289D01*
X66574Y-50401D01*
X66574Y-50485D01*
X66546Y-50598D01*
X66518Y-50654D01*
X66462Y-50710D01*
X66377Y-50739D01*
X66237Y-50739D01*
X66827Y-50739D02*
X66827Y-50345D01*
X66827Y-50457D02*
X66856Y-50401D01*
X66884Y-50373D01*
X66940Y-50345D01*
X66996Y-50345D01*
X67193Y-50739D02*
X67193Y-50345D01*
X67193Y-50148D02*
X67165Y-50176D01*
X67193Y-50204D01*
X67221Y-50176D01*
X67193Y-50148D01*
X67193Y-50204D01*
X67418Y-50345D02*
X67559Y-50739D01*
X67699Y-50345D01*
X68149Y-50710D02*
X68093Y-50739D01*
X67980Y-50739D01*
X67924Y-50710D01*
X67896Y-50654D01*
X67896Y-50429D01*
X67924Y-50373D01*
X67980Y-50345D01*
X68093Y-50345D01*
X68149Y-50373D01*
X68177Y-50429D01*
X68177Y-50485D01*
X67896Y-50542D01*
X68430Y-50739D02*
X68430Y-50345D01*
X68430Y-50457D02*
X68458Y-50401D01*
X68487Y-50373D01*
X68543Y-50345D01*
X68599Y-50345D01*
X69190Y-50345D02*
X69330Y-50739D01*
X69471Y-50345D01*
X70005Y-50739D02*
X69668Y-50739D01*
X69836Y-50739D02*
X69836Y-50148D01*
X69780Y-50232D01*
X69724Y-50289D01*
X69668Y-50317D01*
X70258Y-50682D02*
X70286Y-50710D01*
X70258Y-50739D01*
X70230Y-50710D01*
X70258Y-50682D01*
X70258Y-50739D01*
X70652Y-50148D02*
X70708Y-50148D01*
X70764Y-50176D01*
X70793Y-50204D01*
X70821Y-50260D01*
X70849Y-50373D01*
X70849Y-50514D01*
X70821Y-50626D01*
X70793Y-50682D01*
X70764Y-50710D01*
X70708Y-50739D01*
X70652Y-50739D01*
X70596Y-50710D01*
X70568Y-50682D01*
X70539Y-50626D01*
X70511Y-50514D01*
X70511Y-50373D01*
X70539Y-50260D01*
X70568Y-50204D01*
X70596Y-50176D01*
X70652Y-50148D01*
X59192Y-51149D02*
X59221Y-51121D01*
X59277Y-51093D01*
X59417Y-51093D01*
X59474Y-51121D01*
X59502Y-51149D01*
X59530Y-51205D01*
X59530Y-51262D01*
X59502Y-51346D01*
X59164Y-51683D01*
X59530Y-51683D01*
X60092Y-51683D02*
X59755Y-51683D01*
X59924Y-51683D02*
X59924Y-51093D01*
X59867Y-51177D01*
X59811Y-51233D01*
X59755Y-51262D01*
X60345Y-51458D02*
X60795Y-51458D01*
X61189Y-51093D02*
X61245Y-51093D01*
X61302Y-51121D01*
X61330Y-51149D01*
X61358Y-51205D01*
X61386Y-51318D01*
X61386Y-51458D01*
X61358Y-51571D01*
X61330Y-51627D01*
X61302Y-51655D01*
X61245Y-51683D01*
X61189Y-51683D01*
X61133Y-51655D01*
X61105Y-51627D01*
X61077Y-51571D01*
X61048Y-51458D01*
X61048Y-51318D01*
X61077Y-51205D01*
X61105Y-51149D01*
X61133Y-51121D01*
X61189Y-51093D01*
X61583Y-51093D02*
X61976Y-51093D01*
X61723Y-51683D01*
X62201Y-51458D02*
X62651Y-51458D01*
X62904Y-51149D02*
X62933Y-51121D01*
X62989Y-51093D01*
X63129Y-51093D01*
X63186Y-51121D01*
X63214Y-51149D01*
X63242Y-51205D01*
X63242Y-51262D01*
X63214Y-51346D01*
X62876Y-51683D01*
X63242Y-51683D01*
X63607Y-51093D02*
X63664Y-51093D01*
X63720Y-51121D01*
X63748Y-51149D01*
X63776Y-51205D01*
X63804Y-51318D01*
X63804Y-51458D01*
X63776Y-51571D01*
X63748Y-51627D01*
X63720Y-51655D01*
X63664Y-51683D01*
X63607Y-51683D01*
X63551Y-51655D01*
X63523Y-51627D01*
X63495Y-51571D01*
X63467Y-51458D01*
X63467Y-51318D01*
X63495Y-51205D01*
X63523Y-51149D01*
X63551Y-51121D01*
X63607Y-51093D01*
X64367Y-51683D02*
X64029Y-51683D01*
X64198Y-51683D02*
X64198Y-51093D01*
X64142Y-51177D01*
X64086Y-51233D01*
X64029Y-51262D01*
X64564Y-51093D02*
X64957Y-51093D01*
X64704Y-51683D01*
X65632Y-51683D02*
X65632Y-51093D01*
X65632Y-51318D02*
X65688Y-51290D01*
X65801Y-51290D01*
X65857Y-51318D01*
X65885Y-51346D01*
X65913Y-51402D01*
X65913Y-51571D01*
X65885Y-51627D01*
X65857Y-51655D01*
X65801Y-51683D01*
X65688Y-51683D01*
X65632Y-51655D01*
X66110Y-51290D02*
X66251Y-51683D01*
X66392Y-51290D02*
X66251Y-51683D01*
X66195Y-51824D01*
X66167Y-51852D01*
X66110Y-51880D01*
X67404Y-51627D02*
X67376Y-51655D01*
X67291Y-51683D01*
X67235Y-51683D01*
X67151Y-51655D01*
X67095Y-51599D01*
X67066Y-51543D01*
X67038Y-51430D01*
X67038Y-51346D01*
X67066Y-51233D01*
X67095Y-51177D01*
X67151Y-51121D01*
X67235Y-51093D01*
X67291Y-51093D01*
X67376Y-51121D01*
X67404Y-51149D01*
X67657Y-51683D02*
X67657Y-51093D01*
X67882Y-51093D01*
X67938Y-51121D01*
X67966Y-51149D01*
X67994Y-51205D01*
X67994Y-51290D01*
X67966Y-51346D01*
X67938Y-51374D01*
X67882Y-51402D01*
X67657Y-51402D01*
X68360Y-51402D02*
X68360Y-51683D01*
X68163Y-51093D02*
X68360Y-51402D01*
X68557Y-51093D01*
X69007Y-51683D02*
X69007Y-51374D01*
X68979Y-51318D01*
X68922Y-51290D01*
X68810Y-51290D01*
X68754Y-51318D01*
X69007Y-51655D02*
X68951Y-51683D01*
X68810Y-51683D01*
X68754Y-51655D01*
X68726Y-51599D01*
X68726Y-51543D01*
X68754Y-51487D01*
X68810Y-51458D01*
X68951Y-51458D01*
X69007Y-51430D01*
X69288Y-51683D02*
X69288Y-51290D01*
X69288Y-51402D02*
X69316Y-51346D01*
X69344Y-51318D01*
X69401Y-51290D01*
X69457Y-51290D01*
X69907Y-51290D02*
X69907Y-51768D01*
X69879Y-51824D01*
X69850Y-51852D01*
X69794Y-51880D01*
X69710Y-51880D01*
X69654Y-51852D01*
X69907Y-51655D02*
X69850Y-51683D01*
X69738Y-51683D01*
X69682Y-51655D01*
X69654Y-51627D01*
X69625Y-51571D01*
X69625Y-51402D01*
X69654Y-51346D01*
X69682Y-51318D01*
X69738Y-51290D01*
X69850Y-51290D01*
X69907Y-51318D01*
X70413Y-51655D02*
X70357Y-51683D01*
X70244Y-51683D01*
X70188Y-51655D01*
X70160Y-51599D01*
X70160Y-51374D01*
X70188Y-51318D01*
X70244Y-51290D01*
X70357Y-51290D01*
X70413Y-51318D01*
X70441Y-51374D01*
X70441Y-51430D01*
X70160Y-51487D01*
X70694Y-51683D02*
X70694Y-51290D01*
X70694Y-51402D02*
X70722Y-51346D01*
X70750Y-51318D01*
X70807Y-51290D01*
X70863Y-51290D01*
G54D12*
X62250Y-56750D02*
X62650Y-56750D01*
X62650Y-56750D02*
X62650Y-56350D01*
X62650Y-56350D02*
X65850Y-56350D01*
X65850Y-56350D02*
X65850Y-57150D01*
X65850Y-57150D02*
X62650Y-57150D01*
X62650Y-57150D02*
X62650Y-56750D01*
X62650Y-56550D02*
X62850Y-56350D01*
X66250Y-56750D02*
X65850Y-56750D01*
X62250Y-57750D02*
X62650Y-57750D01*
X62650Y-57750D02*
X62650Y-57350D01*
X62650Y-57350D02*
X65850Y-57350D01*
X65850Y-57350D02*
X65850Y-58150D01*
X65850Y-58150D02*
X62650Y-58150D01*
X62650Y-58150D02*
X62650Y-57750D01*
X62650Y-57550D02*
X62850Y-57350D01*
X66250Y-57750D02*
X65850Y-57750D01*
X62250Y-58750D02*
X62650Y-58750D01*
X62650Y-58750D02*
X62650Y-58350D01*
X62650Y-58350D02*
X65850Y-58350D01*
X65850Y-58350D02*
X65850Y-59150D01*
X65850Y-59150D02*
X62650Y-59150D01*
X62650Y-59150D02*
X62650Y-58750D01*
X62650Y-58550D02*
X62850Y-58350D01*
X66250Y-58750D02*
X65850Y-58750D01*
X75500Y-55250D02*
X75900Y-55250D01*
X75900Y-55250D02*
X75900Y-54850D01*
X75900Y-54850D02*
X79100Y-54850D01*
X79100Y-54850D02*
X79100Y-55650D01*
X79100Y-55650D02*
X75900Y-55650D01*
X75900Y-55650D02*
X75900Y-55250D01*
X75900Y-55050D02*
X76100Y-54850D01*
X79500Y-55250D02*
X79100Y-55250D01*
X75500Y-58000D02*
X75900Y-58000D01*
X75900Y-58000D02*
X75900Y-57600D01*
X75900Y-57600D02*
X79100Y-57600D01*
X79100Y-57600D02*
X79100Y-58400D01*
X79100Y-58400D02*
X75900Y-58400D01*
X75900Y-58400D02*
X75900Y-58000D01*
X75900Y-57800D02*
X76100Y-57600D01*
X79500Y-58000D02*
X79100Y-58000D01*
X75500Y-60500D02*
X75900Y-60500D01*
X75900Y-60500D02*
X75900Y-60100D01*
X75900Y-60100D02*
X79100Y-60100D01*
X79100Y-60100D02*
X79100Y-60900D01*
X79100Y-60900D02*
X75900Y-60900D01*
X75900Y-60900D02*
X75900Y-60500D01*
X75900Y-60300D02*
X76100Y-60100D01*
X79500Y-60500D02*
X79100Y-60500D01*
G54D13*
X60750Y-56250D02*
X60750Y-60250D01*
X59750Y-56250D02*
X59750Y-60250D01*
X59750Y-60250D02*
X60750Y-60250D01*
X60750Y-56250D02*
X59750Y-56250D01*
G54D12*
X71191Y-57800D02*
G75*
G03X71191Y-57800I-141J0D01*
G74*
G01*
X72750Y-59000D02*
X73750Y-59000D01*
X72750Y-58000D02*
X73750Y-58000D01*
X69750Y-59250D02*
X70750Y-59250D01*
X69750Y-57750D02*
X70750Y-57750D01*
X70750Y-57500D02*
X72750Y-57500D01*
X72750Y-57500D02*
X72750Y-59500D01*
X72750Y-59500D02*
X70750Y-59500D01*
X70750Y-59500D02*
X70750Y-57500D01*
X71191Y-60300D02*
G75*
G03X71191Y-60300I-141J0D01*
G74*
G01*
X72750Y-61500D02*
X73750Y-61500D01*
X72750Y-60500D02*
X73750Y-60500D01*
X69750Y-61750D02*
X70750Y-61750D01*
X69750Y-60250D02*
X70750Y-60250D01*
X70750Y-60000D02*
X72750Y-60000D01*
X72750Y-60000D02*
X72750Y-62000D01*
X72750Y-62000D02*
X70750Y-62000D01*
X70750Y-62000D02*
X70750Y-60000D01*
X71191Y-55300D02*
G75*
G03X71191Y-55300I-141J0D01*
G74*
G01*
X72750Y-56500D02*
X73750Y-56500D01*
X72750Y-55500D02*
X73750Y-55500D01*
X69750Y-56750D02*
X70750Y-56750D01*
X69750Y-55250D02*
X70750Y-55250D01*
X70750Y-55000D02*
X72750Y-55000D01*
X72750Y-55000D02*
X72750Y-57000D01*
X72750Y-57000D02*
X70750Y-57000D01*
X70750Y-57000D02*
X70750Y-55000D01*
G54D14*
X97250Y-55500D02*
X96250Y-55500D01*
X96250Y-55500D02*
X96250Y-53500D01*
X96250Y-53500D02*
X97250Y-53500D01*
X97250Y-53500D02*
X97250Y-55500D01*
X97250Y-60750D02*
X96250Y-60750D01*
X96250Y-60750D02*
X96250Y-58750D01*
X96250Y-58750D02*
X97250Y-58750D01*
X97250Y-58750D02*
X97250Y-60750D01*
X97250Y-66000D02*
X96250Y-66000D01*
X96250Y-66000D02*
X96250Y-64000D01*
X96250Y-64000D02*
X97250Y-64000D01*
X97250Y-64000D02*
X97250Y-66000D01*
X60750Y-65000D02*
X59750Y-65000D01*
X59750Y-65000D02*
X59750Y-62000D01*
X59750Y-62000D02*
X60750Y-62000D01*
X60750Y-62000D02*
X60750Y-65000D01*
X59750Y-64000D02*
X60750Y-64000D01*
X92000Y-58720D02*
X92000Y-58220D01*
X91750Y-58470D02*
X92250Y-58470D01*
X92000Y-50830D02*
G75*
G02X92000Y-58120I0J-3645D01*
G74*
G01*
X92000Y-58120D02*
G75*
G02X92000Y-50830I0J3645D01*
G74*
G01*
X86750Y-63970D02*
X86750Y-63470D01*
X86500Y-63720D02*
X87000Y-63720D01*
X86750Y-56080D02*
G75*
G02X86750Y-63370I0J-3645D01*
G74*
G01*
X86750Y-63370D02*
G75*
G02X86750Y-56080I0J3645D01*
G74*
G01*
X92000Y-69220D02*
X92000Y-68720D01*
X91750Y-68970D02*
X92250Y-68970D01*
X92000Y-61330D02*
G75*
G02X92000Y-68620I0J-3645D01*
G74*
G01*
X92000Y-68620D02*
G75*
G02X92000Y-61330I0J3645D01*
G74*
G01*
X81750Y-57000D02*
X80750Y-57000D01*
X80750Y-57000D02*
X80750Y-54000D01*
X80750Y-54000D02*
X81750Y-54000D01*
X81750Y-54000D02*
X81750Y-57000D01*
X80750Y-56000D02*
X81750Y-56000D01*
X81750Y-60750D02*
X80750Y-60750D01*
X80750Y-60750D02*
X80750Y-57750D01*
X80750Y-57750D02*
X81750Y-57750D01*
X81750Y-57750D02*
X81750Y-60750D01*
X80750Y-59750D02*
X81750Y-59750D01*
X81750Y-64000D02*
X80750Y-64000D01*
X80750Y-64000D02*
X80750Y-61000D01*
X80750Y-61000D02*
X81750Y-61000D01*
X81750Y-61000D02*
X81750Y-64000D01*
X80750Y-63000D02*
X81750Y-63000D01*
G54D15*
X64166Y-56972D02*
X64000Y-56710D01*
X63880Y-56972D02*
X63880Y-56422D01*
X64071Y-56422D01*
X64119Y-56448D01*
X64142Y-56475D01*
X64166Y-56527D01*
X64166Y-56605D01*
X64142Y-56658D01*
X64119Y-56684D01*
X64071Y-56710D01*
X63880Y-56710D01*
X64642Y-56972D02*
X64357Y-56972D01*
X64500Y-56972D02*
X64500Y-56422D01*
X64452Y-56501D01*
X64404Y-56553D01*
X64357Y-56579D01*
X64166Y-57972D02*
X64000Y-57710D01*
X63880Y-57972D02*
X63880Y-57422D01*
X64071Y-57422D01*
X64119Y-57448D01*
X64142Y-57475D01*
X64166Y-57527D01*
X64166Y-57605D01*
X64142Y-57658D01*
X64119Y-57684D01*
X64071Y-57710D01*
X63880Y-57710D01*
X64357Y-57475D02*
X64380Y-57448D01*
X64428Y-57422D01*
X64547Y-57422D01*
X64595Y-57448D01*
X64619Y-57475D01*
X64642Y-57527D01*
X64642Y-57579D01*
X64619Y-57658D01*
X64333Y-57972D01*
X64642Y-57972D01*
X64166Y-58972D02*
X64000Y-58710D01*
X63880Y-58972D02*
X63880Y-58422D01*
X64071Y-58422D01*
X64119Y-58448D01*
X64142Y-58475D01*
X64166Y-58527D01*
X64166Y-58605D01*
X64142Y-58658D01*
X64119Y-58684D01*
X64071Y-58710D01*
X63880Y-58710D01*
X64333Y-58422D02*
X64642Y-58422D01*
X64476Y-58632D01*
X64547Y-58632D01*
X64595Y-58658D01*
X64619Y-58684D01*
X64642Y-58736D01*
X64642Y-58867D01*
X64619Y-58920D01*
X64595Y-58946D01*
X64547Y-58972D01*
X64404Y-58972D01*
X64357Y-58946D01*
X64333Y-58920D01*
X77416Y-55472D02*
X77250Y-55210D01*
X77130Y-55472D02*
X77130Y-54922D01*
X77321Y-54922D01*
X77369Y-54948D01*
X77392Y-54975D01*
X77416Y-55027D01*
X77416Y-55105D01*
X77392Y-55158D01*
X77369Y-55184D01*
X77321Y-55210D01*
X77130Y-55210D01*
X77845Y-55105D02*
X77845Y-55472D01*
X77726Y-54896D02*
X77607Y-55289D01*
X77916Y-55289D01*
X77416Y-58222D02*
X77250Y-57960D01*
X77130Y-58222D02*
X77130Y-57672D01*
X77321Y-57672D01*
X77369Y-57698D01*
X77392Y-57725D01*
X77416Y-57777D01*
X77416Y-57855D01*
X77392Y-57908D01*
X77369Y-57934D01*
X77321Y-57960D01*
X77130Y-57960D01*
X77869Y-57672D02*
X77630Y-57672D01*
X77607Y-57934D01*
X77630Y-57908D01*
X77678Y-57882D01*
X77797Y-57882D01*
X77845Y-57908D01*
X77869Y-57934D01*
X77892Y-57986D01*
X77892Y-58117D01*
X77869Y-58170D01*
X77845Y-58196D01*
X77797Y-58222D01*
X77678Y-58222D01*
X77630Y-58196D01*
X77607Y-58170D01*
X77416Y-60722D02*
X77250Y-60460D01*
X77130Y-60722D02*
X77130Y-60172D01*
X77321Y-60172D01*
X77369Y-60198D01*
X77392Y-60225D01*
X77416Y-60277D01*
X77416Y-60355D01*
X77392Y-60408D01*
X77369Y-60434D01*
X77321Y-60460D01*
X77130Y-60460D01*
X77845Y-60172D02*
X77750Y-60172D01*
X77702Y-60198D01*
X77678Y-60225D01*
X77630Y-60303D01*
X77607Y-60408D01*
X77607Y-60617D01*
X77630Y-60670D01*
X77654Y-60696D01*
X77702Y-60722D01*
X77797Y-60722D01*
X77845Y-60696D01*
X77869Y-60670D01*
X77892Y-60617D01*
X77892Y-60486D01*
X77869Y-60434D01*
X77845Y-60408D01*
X77797Y-60382D01*
X77702Y-60382D01*
X77654Y-60408D01*
X77630Y-60434D01*
X77607Y-60486D01*
X59411Y-58545D02*
X59011Y-58545D01*
X59011Y-58392D01*
X59030Y-58354D01*
X59050Y-58335D01*
X59088Y-58316D01*
X59145Y-58316D01*
X59183Y-58335D01*
X59202Y-58354D01*
X59221Y-58392D01*
X59221Y-58545D01*
X59411Y-57935D02*
X59411Y-58164D01*
X59411Y-58049D02*
X59011Y-58049D01*
X59069Y-58088D01*
X59107Y-58126D01*
X59126Y-58164D01*
G54D14*
X70216Y-60077D02*
X70216Y-59677D01*
X70350Y-59963D01*
X70483Y-59677D01*
X70483Y-60077D01*
X70750Y-59677D02*
X70826Y-59677D01*
X70864Y-59696D01*
X70902Y-59735D01*
X70921Y-59811D01*
X70921Y-59944D01*
X70902Y-60020D01*
X70864Y-60058D01*
X70826Y-60077D01*
X70750Y-60077D01*
X70711Y-60058D01*
X70673Y-60020D01*
X70654Y-59944D01*
X70654Y-59811D01*
X70673Y-59735D01*
X70711Y-59696D01*
X70750Y-59677D01*
X71321Y-60039D02*
X71302Y-60058D01*
X71245Y-60077D01*
X71207Y-60077D01*
X71150Y-60058D01*
X71111Y-60020D01*
X71092Y-59982D01*
X71073Y-59906D01*
X71073Y-59849D01*
X71092Y-59773D01*
X71111Y-59735D01*
X71150Y-59696D01*
X71207Y-59677D01*
X71245Y-59677D01*
X71302Y-59696D01*
X71321Y-59716D01*
X71454Y-59677D02*
X71702Y-59677D01*
X71569Y-59830D01*
X71626Y-59830D01*
X71664Y-59849D01*
X71683Y-59868D01*
X71702Y-59906D01*
X71702Y-60001D01*
X71683Y-60039D01*
X71664Y-60058D01*
X71626Y-60077D01*
X71511Y-60077D01*
X71473Y-60058D01*
X71454Y-60039D01*
X71950Y-59677D02*
X71988Y-59677D01*
X72026Y-59696D01*
X72045Y-59716D01*
X72064Y-59754D01*
X72083Y-59830D01*
X72083Y-59925D01*
X72064Y-60001D01*
X72045Y-60039D01*
X72026Y-60058D01*
X71988Y-60077D01*
X71950Y-60077D01*
X71911Y-60058D01*
X71892Y-60039D01*
X71873Y-60001D01*
X71854Y-59925D01*
X71854Y-59830D01*
X71873Y-59754D01*
X71892Y-59716D01*
X71911Y-59696D01*
X71950Y-59677D01*
X72464Y-60077D02*
X72235Y-60077D01*
X72350Y-60077D02*
X72350Y-59677D01*
X72311Y-59735D01*
X72273Y-59773D01*
X72235Y-59792D01*
X72711Y-59677D02*
X72750Y-59677D01*
X72788Y-59696D01*
X72807Y-59716D01*
X72826Y-59754D01*
X72845Y-59830D01*
X72845Y-59925D01*
X72826Y-60001D01*
X72807Y-60039D01*
X72788Y-60058D01*
X72750Y-60077D01*
X72711Y-60077D01*
X72673Y-60058D01*
X72654Y-60039D01*
X72635Y-60001D01*
X72616Y-59925D01*
X72616Y-59830D01*
X72635Y-59754D01*
X72654Y-59716D01*
X72673Y-59696D01*
X72711Y-59677D01*
X73016Y-60077D02*
X73016Y-59677D01*
X73150Y-59963D01*
X73283Y-59677D01*
X73283Y-60077D01*
G54D16*
X71054Y-59150D02*
X71245Y-59150D01*
X71016Y-59270D02*
X71150Y-58850D01*
X71283Y-59270D01*
X71445Y-58070D02*
X71445Y-57650D01*
X71673Y-58070D02*
X71502Y-57830D01*
X71673Y-57650D02*
X71445Y-57890D01*
G54D14*
X70216Y-62577D02*
X70216Y-62177D01*
X70350Y-62463D01*
X70483Y-62177D01*
X70483Y-62577D01*
X70750Y-62177D02*
X70826Y-62177D01*
X70864Y-62196D01*
X70902Y-62235D01*
X70921Y-62311D01*
X70921Y-62444D01*
X70902Y-62520D01*
X70864Y-62558D01*
X70826Y-62577D01*
X70750Y-62577D01*
X70711Y-62558D01*
X70673Y-62520D01*
X70654Y-62444D01*
X70654Y-62311D01*
X70673Y-62235D01*
X70711Y-62196D01*
X70750Y-62177D01*
X71321Y-62539D02*
X71302Y-62558D01*
X71245Y-62577D01*
X71207Y-62577D01*
X71150Y-62558D01*
X71111Y-62520D01*
X71092Y-62482D01*
X71073Y-62406D01*
X71073Y-62349D01*
X71092Y-62273D01*
X71111Y-62235D01*
X71150Y-62196D01*
X71207Y-62177D01*
X71245Y-62177D01*
X71302Y-62196D01*
X71321Y-62216D01*
X71454Y-62177D02*
X71702Y-62177D01*
X71569Y-62330D01*
X71626Y-62330D01*
X71664Y-62349D01*
X71683Y-62368D01*
X71702Y-62406D01*
X71702Y-62501D01*
X71683Y-62539D01*
X71664Y-62558D01*
X71626Y-62577D01*
X71511Y-62577D01*
X71473Y-62558D01*
X71454Y-62539D01*
X71950Y-62177D02*
X71988Y-62177D01*
X72026Y-62196D01*
X72045Y-62216D01*
X72064Y-62254D01*
X72083Y-62330D01*
X72083Y-62425D01*
X72064Y-62501D01*
X72045Y-62539D01*
X72026Y-62558D01*
X71988Y-62577D01*
X71950Y-62577D01*
X71911Y-62558D01*
X71892Y-62539D01*
X71873Y-62501D01*
X71854Y-62425D01*
X71854Y-62330D01*
X71873Y-62254D01*
X71892Y-62216D01*
X71911Y-62196D01*
X71950Y-62177D01*
X72464Y-62577D02*
X72235Y-62577D01*
X72350Y-62577D02*
X72350Y-62177D01*
X72311Y-62235D01*
X72273Y-62273D01*
X72235Y-62292D01*
X72711Y-62177D02*
X72750Y-62177D01*
X72788Y-62196D01*
X72807Y-62216D01*
X72826Y-62254D01*
X72845Y-62330D01*
X72845Y-62425D01*
X72826Y-62501D01*
X72807Y-62539D01*
X72788Y-62558D01*
X72750Y-62577D01*
X72711Y-62577D01*
X72673Y-62558D01*
X72654Y-62539D01*
X72635Y-62501D01*
X72616Y-62425D01*
X72616Y-62330D01*
X72635Y-62254D01*
X72654Y-62216D01*
X72673Y-62196D01*
X72711Y-62177D01*
X73016Y-62577D02*
X73016Y-62177D01*
X73150Y-62463D01*
X73283Y-62177D01*
X73283Y-62577D01*
G54D16*
X71904Y-61800D02*
X72095Y-61800D01*
X71866Y-61920D02*
X72000Y-61500D01*
X72133Y-61920D01*
X71445Y-60570D02*
X71445Y-60150D01*
X71673Y-60570D02*
X71502Y-60330D01*
X71673Y-60150D02*
X71445Y-60390D01*
G54D14*
X70216Y-57577D02*
X70216Y-57177D01*
X70350Y-57463D01*
X70483Y-57177D01*
X70483Y-57577D01*
X70750Y-57177D02*
X70826Y-57177D01*
X70864Y-57196D01*
X70902Y-57235D01*
X70921Y-57311D01*
X70921Y-57444D01*
X70902Y-57520D01*
X70864Y-57558D01*
X70826Y-57577D01*
X70750Y-57577D01*
X70711Y-57558D01*
X70673Y-57520D01*
X70654Y-57444D01*
X70654Y-57311D01*
X70673Y-57235D01*
X70711Y-57196D01*
X70750Y-57177D01*
X71321Y-57539D02*
X71302Y-57558D01*
X71245Y-57577D01*
X71207Y-57577D01*
X71150Y-57558D01*
X71111Y-57520D01*
X71092Y-57482D01*
X71073Y-57406D01*
X71073Y-57349D01*
X71092Y-57273D01*
X71111Y-57235D01*
X71150Y-57196D01*
X71207Y-57177D01*
X71245Y-57177D01*
X71302Y-57196D01*
X71321Y-57216D01*
X71454Y-57177D02*
X71702Y-57177D01*
X71569Y-57330D01*
X71626Y-57330D01*
X71664Y-57349D01*
X71683Y-57368D01*
X71702Y-57406D01*
X71702Y-57501D01*
X71683Y-57539D01*
X71664Y-57558D01*
X71626Y-57577D01*
X71511Y-57577D01*
X71473Y-57558D01*
X71454Y-57539D01*
X71950Y-57177D02*
X71988Y-57177D01*
X72026Y-57196D01*
X72045Y-57216D01*
X72064Y-57254D01*
X72083Y-57330D01*
X72083Y-57425D01*
X72064Y-57501D01*
X72045Y-57539D01*
X72026Y-57558D01*
X71988Y-57577D01*
X71950Y-57577D01*
X71911Y-57558D01*
X71892Y-57539D01*
X71873Y-57501D01*
X71854Y-57425D01*
X71854Y-57330D01*
X71873Y-57254D01*
X71892Y-57216D01*
X71911Y-57196D01*
X71950Y-57177D01*
X72464Y-57577D02*
X72235Y-57577D01*
X72350Y-57577D02*
X72350Y-57177D01*
X72311Y-57235D01*
X72273Y-57273D01*
X72235Y-57292D01*
X72711Y-57177D02*
X72750Y-57177D01*
X72788Y-57196D01*
X72807Y-57216D01*
X72826Y-57254D01*
X72845Y-57330D01*
X72845Y-57425D01*
X72826Y-57501D01*
X72807Y-57539D01*
X72788Y-57558D01*
X72750Y-57577D01*
X72711Y-57577D01*
X72673Y-57558D01*
X72654Y-57539D01*
X72635Y-57501D01*
X72616Y-57425D01*
X72616Y-57330D01*
X72635Y-57254D01*
X72654Y-57216D01*
X72673Y-57196D01*
X72711Y-57177D01*
X73016Y-57577D02*
X73016Y-57177D01*
X73150Y-57463D01*
X73283Y-57177D01*
X73283Y-57577D01*
G54D16*
X71054Y-56650D02*
X71245Y-56650D01*
X71016Y-56770D02*
X71150Y-56350D01*
X71283Y-56770D01*
X71445Y-55570D02*
X71445Y-55150D01*
X71673Y-55570D02*
X71502Y-55330D01*
X71673Y-55150D02*
X71445Y-55390D01*
G54D14*
X96121Y-54721D02*
X95821Y-54721D01*
X95821Y-54607D01*
X95835Y-54578D01*
X95850Y-54564D01*
X95878Y-54550D01*
X95921Y-54550D01*
X95950Y-54564D01*
X95964Y-54578D01*
X95978Y-54607D01*
X95978Y-54721D01*
X95921Y-54292D02*
X96121Y-54292D01*
X95807Y-54364D02*
X96021Y-54435D01*
X96021Y-54250D01*
X96121Y-59971D02*
X95821Y-59971D01*
X95821Y-59857D01*
X95835Y-59828D01*
X95850Y-59814D01*
X95878Y-59800D01*
X95921Y-59800D01*
X95950Y-59814D01*
X95964Y-59828D01*
X95978Y-59857D01*
X95978Y-59971D01*
X95850Y-59685D02*
X95835Y-59671D01*
X95821Y-59642D01*
X95821Y-59571D01*
X95835Y-59542D01*
X95850Y-59528D01*
X95878Y-59514D01*
X95907Y-59514D01*
X95950Y-59528D01*
X96121Y-59700D01*
X96121Y-59514D01*
X96121Y-65221D02*
X95821Y-65221D01*
X95821Y-65107D01*
X95835Y-65078D01*
X95850Y-65064D01*
X95878Y-65050D01*
X95921Y-65050D01*
X95950Y-65064D01*
X95964Y-65078D01*
X95978Y-65107D01*
X95978Y-65221D01*
X95821Y-64950D02*
X95821Y-64764D01*
X95935Y-64864D01*
X95935Y-64821D01*
X95950Y-64792D01*
X95964Y-64778D01*
X95992Y-64764D01*
X96064Y-64764D01*
X96092Y-64778D01*
X96107Y-64792D01*
X96121Y-64821D01*
X96121Y-64907D01*
X96107Y-64935D01*
X96092Y-64950D01*
X59561Y-63695D02*
X59161Y-63695D01*
X59561Y-63466D02*
X59333Y-63638D01*
X59161Y-63466D02*
X59390Y-63695D01*
X59561Y-63085D02*
X59561Y-63314D01*
X59561Y-63199D02*
X59161Y-63199D01*
X59219Y-63238D01*
X59257Y-63276D01*
X59276Y-63314D01*
G54D17*
X87009Y-54707D02*
X87040Y-54738D01*
X87071Y-54830D01*
X87071Y-54892D01*
X87040Y-54984D01*
X86979Y-55045D01*
X86917Y-55076D01*
X86794Y-55107D01*
X86702Y-55107D01*
X86579Y-55076D01*
X86517Y-55045D01*
X86456Y-54984D01*
X86425Y-54892D01*
X86425Y-54830D01*
X86456Y-54738D01*
X86487Y-54707D01*
X87071Y-54092D02*
X87071Y-54461D01*
X87071Y-54277D02*
X86425Y-54277D01*
X86517Y-54338D01*
X86579Y-54400D01*
X86610Y-54461D01*
X96933Y-55557D02*
X96933Y-55342D01*
X97271Y-55250D02*
X97271Y-55557D01*
X96625Y-55557D01*
X96625Y-55250D01*
X97209Y-54604D02*
X97240Y-54635D01*
X97271Y-54727D01*
X97271Y-54789D01*
X97240Y-54881D01*
X97179Y-54942D01*
X97117Y-54973D01*
X96994Y-55004D01*
X96902Y-55004D01*
X96779Y-54973D01*
X96717Y-54942D01*
X96656Y-54881D01*
X96625Y-54789D01*
X96625Y-54727D01*
X96656Y-54635D01*
X96687Y-54604D01*
X97086Y-54358D02*
X97086Y-54051D01*
X97271Y-54420D02*
X96625Y-54205D01*
X97271Y-53989D01*
X81759Y-59957D02*
X81790Y-59988D01*
X81821Y-60080D01*
X81821Y-60142D01*
X81790Y-60234D01*
X81729Y-60295D01*
X81667Y-60326D01*
X81544Y-60357D01*
X81452Y-60357D01*
X81329Y-60326D01*
X81267Y-60295D01*
X81206Y-60234D01*
X81175Y-60142D01*
X81175Y-60080D01*
X81206Y-59988D01*
X81237Y-59957D01*
X81237Y-59711D02*
X81206Y-59680D01*
X81175Y-59619D01*
X81175Y-59465D01*
X81206Y-59404D01*
X81237Y-59373D01*
X81298Y-59342D01*
X81360Y-59342D01*
X81452Y-59373D01*
X81821Y-59742D01*
X81821Y-59342D01*
X91683Y-60807D02*
X91683Y-60592D01*
X92021Y-60500D02*
X92021Y-60807D01*
X91375Y-60807D01*
X91375Y-60500D01*
X91959Y-59854D02*
X91990Y-59885D01*
X92021Y-59977D01*
X92021Y-60039D01*
X91990Y-60131D01*
X91929Y-60192D01*
X91867Y-60223D01*
X91744Y-60254D01*
X91652Y-60254D01*
X91529Y-60223D01*
X91467Y-60192D01*
X91406Y-60131D01*
X91375Y-60039D01*
X91375Y-59977D01*
X91406Y-59885D01*
X91437Y-59854D01*
X91836Y-59608D02*
X91836Y-59301D01*
X92021Y-59670D02*
X91375Y-59455D01*
X92021Y-59239D01*
X87009Y-65207D02*
X87040Y-65238D01*
X87071Y-65330D01*
X87071Y-65392D01*
X87040Y-65484D01*
X86979Y-65545D01*
X86917Y-65576D01*
X86794Y-65607D01*
X86702Y-65607D01*
X86579Y-65576D01*
X86517Y-65545D01*
X86456Y-65484D01*
X86425Y-65392D01*
X86425Y-65330D01*
X86456Y-65238D01*
X86487Y-65207D01*
X86425Y-64992D02*
X86425Y-64592D01*
X86671Y-64807D01*
X86671Y-64715D01*
X86702Y-64654D01*
X86733Y-64623D01*
X86794Y-64592D01*
X86948Y-64592D01*
X87009Y-64623D01*
X87040Y-64654D01*
X87071Y-64715D01*
X87071Y-64900D01*
X87040Y-64961D01*
X87009Y-64992D01*
X96933Y-66057D02*
X96933Y-65842D01*
X97271Y-65750D02*
X97271Y-66057D01*
X96625Y-66057D01*
X96625Y-65750D01*
X97209Y-65104D02*
X97240Y-65135D01*
X97271Y-65227D01*
X97271Y-65289D01*
X97240Y-65381D01*
X97179Y-65442D01*
X97117Y-65473D01*
X96994Y-65504D01*
X96902Y-65504D01*
X96779Y-65473D01*
X96717Y-65442D01*
X96656Y-65381D01*
X96625Y-65289D01*
X96625Y-65227D01*
X96656Y-65135D01*
X96687Y-65104D01*
X97086Y-64858D02*
X97086Y-64551D01*
X97271Y-64920D02*
X96625Y-64705D01*
X97271Y-64489D01*
G54D14*
X80600Y-55438D02*
X80580Y-55476D01*
X80542Y-55514D01*
X80485Y-55571D01*
X80466Y-55609D01*
X80466Y-55647D01*
X80561Y-55628D02*
X80542Y-55666D01*
X80504Y-55704D01*
X80428Y-55723D01*
X80295Y-55723D01*
X80219Y-55704D01*
X80180Y-55666D01*
X80161Y-55628D01*
X80161Y-55552D01*
X80180Y-55514D01*
X80219Y-55476D01*
X80295Y-55457D01*
X80428Y-55457D01*
X80504Y-55476D01*
X80542Y-55514D01*
X80561Y-55552D01*
X80561Y-55628D01*
X80561Y-55076D02*
X80561Y-55304D01*
X80561Y-55190D02*
X80161Y-55190D01*
X80219Y-55228D01*
X80257Y-55266D01*
X80276Y-55304D01*
X80600Y-59188D02*
X80580Y-59226D01*
X80542Y-59264D01*
X80485Y-59321D01*
X80466Y-59359D01*
X80466Y-59397D01*
X80561Y-59378D02*
X80542Y-59416D01*
X80504Y-59454D01*
X80428Y-59473D01*
X80295Y-59473D01*
X80219Y-59454D01*
X80180Y-59416D01*
X80161Y-59378D01*
X80161Y-59302D01*
X80180Y-59264D01*
X80219Y-59226D01*
X80295Y-59207D01*
X80428Y-59207D01*
X80504Y-59226D01*
X80542Y-59264D01*
X80561Y-59302D01*
X80561Y-59378D01*
X80200Y-59054D02*
X80180Y-59035D01*
X80161Y-58997D01*
X80161Y-58902D01*
X80180Y-58864D01*
X80200Y-58845D01*
X80238Y-58826D01*
X80276Y-58826D01*
X80333Y-58845D01*
X80561Y-59073D01*
X80561Y-58826D01*
X80600Y-62438D02*
X80580Y-62476D01*
X80542Y-62514D01*
X80485Y-62571D01*
X80466Y-62609D01*
X80466Y-62647D01*
X80561Y-62628D02*
X80542Y-62666D01*
X80504Y-62704D01*
X80428Y-62723D01*
X80295Y-62723D01*
X80219Y-62704D01*
X80180Y-62666D01*
X80161Y-62628D01*
X80161Y-62552D01*
X80180Y-62514D01*
X80219Y-62476D01*
X80295Y-62457D01*
X80428Y-62457D01*
X80504Y-62476D01*
X80542Y-62514D01*
X80561Y-62552D01*
X80561Y-62628D01*
X80161Y-62323D02*
X80161Y-62076D01*
X80314Y-62209D01*
X80314Y-62152D01*
X80333Y-62114D01*
X80352Y-62095D01*
X80390Y-62076D01*
X80485Y-62076D01*
X80523Y-62095D01*
X80542Y-62114D01*
X80561Y-62152D01*
X80561Y-62266D01*
X80542Y-62304D01*
X80523Y-62323D01*
M02*
