G04 (created by PCBNEW (2013-jul-07)-stable) date Tue 01 Aug 2017 10:55:42 AM PDT*
%MOIN*%
G04 Gerber Fmt 3.4, Leading zero omitted, Abs format*
%FSLAX34Y34*%
G01*
G70*
G90*
G04 APERTURE LIST*
%ADD10C,0.00393701*%
%ADD11C,0.06*%
%ADD12R,0.06X0.06*%
%ADD13R,0.09X0.062*%
%ADD14O,0.09X0.062*%
%ADD15R,0.0615X0.0615*%
%ADD16C,0.0615*%
%ADD17C,0.01*%
G04 APERTURE END LIST*
G54D10*
X4000Y-4000D02*
X161350Y-4000D01*
X161350Y-112930D01*
X4000Y-112930D01*
X4000Y-4000D01*
X4700Y-4700D02*
X160650Y-4700D01*
X160650Y-112230D01*
X4700Y-112230D01*
X4700Y-4700D01*
X26470Y-4000D02*
X26470Y-4700D01*
X15382Y-4552D02*
X15097Y-4552D01*
X15240Y-4552D02*
X15240Y-4052D01*
X15192Y-4123D01*
X15144Y-4171D01*
X15097Y-4195D01*
X26470Y-112930D02*
X26470Y-112230D01*
X15382Y-112782D02*
X15097Y-112782D01*
X15240Y-112782D02*
X15240Y-112282D01*
X15192Y-112353D01*
X15144Y-112401D01*
X15097Y-112425D01*
X48940Y-4000D02*
X48940Y-4700D01*
X37567Y-4100D02*
X37590Y-4076D01*
X37638Y-4052D01*
X37757Y-4052D01*
X37805Y-4076D01*
X37829Y-4100D01*
X37852Y-4147D01*
X37852Y-4195D01*
X37829Y-4266D01*
X37543Y-4552D01*
X37852Y-4552D01*
X48940Y-112930D02*
X48940Y-112230D01*
X37567Y-112330D02*
X37590Y-112306D01*
X37638Y-112282D01*
X37757Y-112282D01*
X37805Y-112306D01*
X37829Y-112330D01*
X37852Y-112377D01*
X37852Y-112425D01*
X37829Y-112496D01*
X37543Y-112782D01*
X37852Y-112782D01*
X71410Y-4000D02*
X71410Y-4700D01*
X60013Y-4052D02*
X60322Y-4052D01*
X60156Y-4242D01*
X60227Y-4242D01*
X60275Y-4266D01*
X60299Y-4290D01*
X60322Y-4338D01*
X60322Y-4457D01*
X60299Y-4504D01*
X60275Y-4528D01*
X60227Y-4552D01*
X60084Y-4552D01*
X60037Y-4528D01*
X60013Y-4504D01*
X71410Y-112930D02*
X71410Y-112230D01*
X60013Y-112282D02*
X60322Y-112282D01*
X60156Y-112472D01*
X60227Y-112472D01*
X60275Y-112496D01*
X60299Y-112520D01*
X60322Y-112568D01*
X60322Y-112687D01*
X60299Y-112734D01*
X60275Y-112758D01*
X60227Y-112782D01*
X60084Y-112782D01*
X60037Y-112758D01*
X60013Y-112734D01*
X93880Y-4000D02*
X93880Y-4700D01*
X82745Y-4219D02*
X82745Y-4552D01*
X82626Y-4028D02*
X82507Y-4385D01*
X82816Y-4385D01*
X93880Y-112930D02*
X93880Y-112230D01*
X82745Y-112449D02*
X82745Y-112782D01*
X82626Y-112258D02*
X82507Y-112615D01*
X82816Y-112615D01*
X116350Y-4000D02*
X116350Y-4700D01*
X105239Y-4052D02*
X105000Y-4052D01*
X104977Y-4290D01*
X105000Y-4266D01*
X105048Y-4242D01*
X105167Y-4242D01*
X105215Y-4266D01*
X105239Y-4290D01*
X105262Y-4338D01*
X105262Y-4457D01*
X105239Y-4504D01*
X105215Y-4528D01*
X105167Y-4552D01*
X105048Y-4552D01*
X105000Y-4528D01*
X104977Y-4504D01*
X116350Y-112930D02*
X116350Y-112230D01*
X105239Y-112282D02*
X105000Y-112282D01*
X104977Y-112520D01*
X105000Y-112496D01*
X105048Y-112472D01*
X105167Y-112472D01*
X105215Y-112496D01*
X105239Y-112520D01*
X105262Y-112568D01*
X105262Y-112687D01*
X105239Y-112734D01*
X105215Y-112758D01*
X105167Y-112782D01*
X105048Y-112782D01*
X105000Y-112758D01*
X104977Y-112734D01*
X138820Y-4000D02*
X138820Y-4700D01*
X127685Y-4052D02*
X127590Y-4052D01*
X127542Y-4076D01*
X127518Y-4100D01*
X127470Y-4171D01*
X127447Y-4266D01*
X127447Y-4457D01*
X127470Y-4504D01*
X127494Y-4528D01*
X127542Y-4552D01*
X127637Y-4552D01*
X127685Y-4528D01*
X127709Y-4504D01*
X127732Y-4457D01*
X127732Y-4338D01*
X127709Y-4290D01*
X127685Y-4266D01*
X127637Y-4242D01*
X127542Y-4242D01*
X127494Y-4266D01*
X127470Y-4290D01*
X127447Y-4338D01*
X138820Y-112930D02*
X138820Y-112230D01*
X127685Y-112282D02*
X127590Y-112282D01*
X127542Y-112306D01*
X127518Y-112330D01*
X127470Y-112401D01*
X127447Y-112496D01*
X127447Y-112687D01*
X127470Y-112734D01*
X127494Y-112758D01*
X127542Y-112782D01*
X127637Y-112782D01*
X127685Y-112758D01*
X127709Y-112734D01*
X127732Y-112687D01*
X127732Y-112568D01*
X127709Y-112520D01*
X127685Y-112496D01*
X127637Y-112472D01*
X127542Y-112472D01*
X127494Y-112496D01*
X127470Y-112520D01*
X127447Y-112568D01*
X149893Y-4052D02*
X150226Y-4052D01*
X150012Y-4552D01*
X149893Y-112282D02*
X150226Y-112282D01*
X150012Y-112782D01*
X4000Y-25780D02*
X4700Y-25780D01*
X4230Y-14949D02*
X4469Y-14949D01*
X4183Y-15092D02*
X4350Y-14592D01*
X4516Y-15092D01*
X161350Y-25780D02*
X160650Y-25780D01*
X160880Y-14949D02*
X161119Y-14949D01*
X160833Y-15092D02*
X161000Y-14592D01*
X161166Y-15092D01*
X4000Y-47560D02*
X4700Y-47560D01*
X4385Y-36610D02*
X4457Y-36634D01*
X4480Y-36658D01*
X4504Y-36705D01*
X4504Y-36777D01*
X4480Y-36824D01*
X4457Y-36848D01*
X4409Y-36872D01*
X4219Y-36872D01*
X4219Y-36372D01*
X4385Y-36372D01*
X4433Y-36396D01*
X4457Y-36420D01*
X4480Y-36467D01*
X4480Y-36515D01*
X4457Y-36562D01*
X4433Y-36586D01*
X4385Y-36610D01*
X4219Y-36610D01*
X161350Y-47560D02*
X160650Y-47560D01*
X161035Y-36610D02*
X161107Y-36634D01*
X161130Y-36658D01*
X161154Y-36705D01*
X161154Y-36777D01*
X161130Y-36824D01*
X161107Y-36848D01*
X161059Y-36872D01*
X160869Y-36872D01*
X160869Y-36372D01*
X161035Y-36372D01*
X161083Y-36396D01*
X161107Y-36420D01*
X161130Y-36467D01*
X161130Y-36515D01*
X161107Y-36562D01*
X161083Y-36586D01*
X161035Y-36610D01*
X160869Y-36610D01*
X4000Y-69340D02*
X4700Y-69340D01*
X4504Y-58604D02*
X4480Y-58628D01*
X4409Y-58652D01*
X4361Y-58652D01*
X4290Y-58628D01*
X4242Y-58580D01*
X4219Y-58533D01*
X4195Y-58438D01*
X4195Y-58366D01*
X4219Y-58271D01*
X4242Y-58223D01*
X4290Y-58176D01*
X4361Y-58152D01*
X4409Y-58152D01*
X4480Y-58176D01*
X4504Y-58200D01*
X161350Y-69340D02*
X160650Y-69340D01*
X161154Y-58604D02*
X161130Y-58628D01*
X161059Y-58652D01*
X161011Y-58652D01*
X160940Y-58628D01*
X160892Y-58580D01*
X160869Y-58533D01*
X160845Y-58438D01*
X160845Y-58366D01*
X160869Y-58271D01*
X160892Y-58223D01*
X160940Y-58176D01*
X161011Y-58152D01*
X161059Y-58152D01*
X161130Y-58176D01*
X161154Y-58200D01*
X4000Y-91120D02*
X4700Y-91120D01*
X4219Y-80432D02*
X4219Y-79932D01*
X4338Y-79932D01*
X4409Y-79956D01*
X4457Y-80003D01*
X4480Y-80051D01*
X4504Y-80146D01*
X4504Y-80218D01*
X4480Y-80313D01*
X4457Y-80360D01*
X4409Y-80408D01*
X4338Y-80432D01*
X4219Y-80432D01*
X161350Y-91120D02*
X160650Y-91120D01*
X160869Y-80432D02*
X160869Y-79932D01*
X160988Y-79932D01*
X161059Y-79956D01*
X161107Y-80003D01*
X161130Y-80051D01*
X161154Y-80146D01*
X161154Y-80218D01*
X161130Y-80313D01*
X161107Y-80360D01*
X161059Y-80408D01*
X160988Y-80432D01*
X160869Y-80432D01*
X4242Y-101950D02*
X4409Y-101950D01*
X4480Y-102212D02*
X4242Y-102212D01*
X4242Y-101712D01*
X4480Y-101712D01*
X160892Y-101950D02*
X161059Y-101950D01*
X161130Y-102212D02*
X160892Y-102212D01*
X160892Y-101712D01*
X161130Y-101712D01*
X127800Y-110672D02*
X127875Y-110072D01*
X128017Y-110072D01*
X128100Y-110101D01*
X128150Y-110158D01*
X128171Y-110215D01*
X128185Y-110330D01*
X128175Y-110415D01*
X128132Y-110530D01*
X128096Y-110587D01*
X128032Y-110644D01*
X127942Y-110672D01*
X127800Y-110672D01*
X128657Y-110672D02*
X128696Y-110358D01*
X128675Y-110301D01*
X128621Y-110272D01*
X128507Y-110272D01*
X128446Y-110301D01*
X128660Y-110644D02*
X128600Y-110672D01*
X128457Y-110672D01*
X128403Y-110644D01*
X128382Y-110587D01*
X128389Y-110530D01*
X128425Y-110472D01*
X128485Y-110444D01*
X128628Y-110444D01*
X128689Y-110415D01*
X128907Y-110272D02*
X129135Y-110272D01*
X129017Y-110072D02*
X128953Y-110587D01*
X128975Y-110644D01*
X129028Y-110672D01*
X129085Y-110672D01*
X129517Y-110644D02*
X129457Y-110672D01*
X129342Y-110672D01*
X129289Y-110644D01*
X129267Y-110587D01*
X129296Y-110358D01*
X129332Y-110301D01*
X129392Y-110272D01*
X129507Y-110272D01*
X129560Y-110301D01*
X129582Y-110358D01*
X129575Y-110415D01*
X129282Y-110472D01*
X129807Y-110615D02*
X129832Y-110644D01*
X129800Y-110672D01*
X129775Y-110644D01*
X129807Y-110615D01*
X129800Y-110672D01*
X129846Y-110301D02*
X129871Y-110330D01*
X129839Y-110358D01*
X129814Y-110330D01*
X129846Y-110301D01*
X129839Y-110358D01*
X130857Y-110672D02*
X130514Y-110672D01*
X130685Y-110672D02*
X130760Y-110072D01*
X130692Y-110158D01*
X130628Y-110215D01*
X130567Y-110244D01*
X131828Y-110672D02*
X131867Y-110358D01*
X131846Y-110301D01*
X131792Y-110272D01*
X131678Y-110272D01*
X131617Y-110301D01*
X131832Y-110644D02*
X131771Y-110672D01*
X131628Y-110672D01*
X131575Y-110644D01*
X131553Y-110587D01*
X131560Y-110530D01*
X131596Y-110472D01*
X131657Y-110444D01*
X131800Y-110444D01*
X131860Y-110415D01*
X132421Y-110272D02*
X132371Y-110672D01*
X132164Y-110272D02*
X132125Y-110587D01*
X132146Y-110644D01*
X132200Y-110672D01*
X132285Y-110672D01*
X132346Y-110644D01*
X132378Y-110615D01*
X132964Y-110272D02*
X132903Y-110758D01*
X132867Y-110815D01*
X132835Y-110844D01*
X132775Y-110872D01*
X132689Y-110872D01*
X132635Y-110844D01*
X132917Y-110644D02*
X132857Y-110672D01*
X132742Y-110672D01*
X132689Y-110644D01*
X132664Y-110615D01*
X132642Y-110558D01*
X132664Y-110387D01*
X132700Y-110330D01*
X132732Y-110301D01*
X132792Y-110272D01*
X132907Y-110272D01*
X132960Y-110301D01*
X133696Y-110130D02*
X133728Y-110101D01*
X133789Y-110072D01*
X133932Y-110072D01*
X133985Y-110101D01*
X134010Y-110130D01*
X134032Y-110187D01*
X134025Y-110244D01*
X133985Y-110330D01*
X133600Y-110672D01*
X133971Y-110672D01*
X134417Y-110072D02*
X134475Y-110072D01*
X134528Y-110101D01*
X134553Y-110130D01*
X134575Y-110187D01*
X134589Y-110301D01*
X134571Y-110444D01*
X134528Y-110558D01*
X134492Y-110615D01*
X134460Y-110644D01*
X134400Y-110672D01*
X134342Y-110672D01*
X134289Y-110644D01*
X134264Y-110615D01*
X134242Y-110558D01*
X134228Y-110444D01*
X134246Y-110301D01*
X134289Y-110187D01*
X134325Y-110130D01*
X134357Y-110101D01*
X134417Y-110072D01*
X135114Y-110672D02*
X134771Y-110672D01*
X134942Y-110672D02*
X135017Y-110072D01*
X134950Y-110158D01*
X134885Y-110215D01*
X134825Y-110244D01*
X135389Y-110072D02*
X135789Y-110072D01*
X135457Y-110672D01*
X119392Y-111872D02*
X119392Y-111272D01*
X119735Y-111872D02*
X119478Y-111530D01*
X119735Y-111272D02*
X119392Y-111615D01*
X119992Y-111872D02*
X119992Y-111472D01*
X119992Y-111272D02*
X119964Y-111301D01*
X119992Y-111330D01*
X120021Y-111301D01*
X119992Y-111272D01*
X119992Y-111330D01*
X120621Y-111815D02*
X120592Y-111844D01*
X120507Y-111872D01*
X120450Y-111872D01*
X120364Y-111844D01*
X120307Y-111787D01*
X120278Y-111730D01*
X120250Y-111615D01*
X120250Y-111530D01*
X120278Y-111415D01*
X120307Y-111358D01*
X120364Y-111301D01*
X120450Y-111272D01*
X120507Y-111272D01*
X120592Y-111301D01*
X120621Y-111330D01*
X121135Y-111872D02*
X121135Y-111558D01*
X121107Y-111501D01*
X121050Y-111472D01*
X120935Y-111472D01*
X120878Y-111501D01*
X121135Y-111844D02*
X121078Y-111872D01*
X120935Y-111872D01*
X120878Y-111844D01*
X120850Y-111787D01*
X120850Y-111730D01*
X120878Y-111672D01*
X120935Y-111644D01*
X121078Y-111644D01*
X121135Y-111615D01*
X121678Y-111872D02*
X121678Y-111272D01*
X121678Y-111844D02*
X121621Y-111872D01*
X121507Y-111872D01*
X121450Y-111844D01*
X121421Y-111815D01*
X121392Y-111758D01*
X121392Y-111587D01*
X121421Y-111530D01*
X121450Y-111501D01*
X121507Y-111472D01*
X121621Y-111472D01*
X121678Y-111501D01*
X122421Y-111558D02*
X122621Y-111558D01*
X122707Y-111872D02*
X122421Y-111872D01*
X122421Y-111272D01*
X122707Y-111272D01*
X122964Y-111815D02*
X122992Y-111844D01*
X122964Y-111872D01*
X122935Y-111844D01*
X122964Y-111815D01*
X122964Y-111872D01*
X123249Y-111872D02*
X123249Y-111272D01*
X123392Y-111272D01*
X123478Y-111301D01*
X123535Y-111358D01*
X123564Y-111415D01*
X123592Y-111530D01*
X123592Y-111615D01*
X123564Y-111730D01*
X123535Y-111787D01*
X123478Y-111844D01*
X123392Y-111872D01*
X123249Y-111872D01*
X123849Y-111815D02*
X123878Y-111844D01*
X123849Y-111872D01*
X123821Y-111844D01*
X123849Y-111815D01*
X123849Y-111872D01*
X124107Y-111701D02*
X124392Y-111701D01*
X124049Y-111872D02*
X124249Y-111272D01*
X124449Y-111872D01*
X124649Y-111815D02*
X124678Y-111844D01*
X124649Y-111872D01*
X124621Y-111844D01*
X124649Y-111815D01*
X124649Y-111872D01*
X152942Y-110672D02*
X152778Y-110387D01*
X152600Y-110672D02*
X152675Y-110072D01*
X152903Y-110072D01*
X152957Y-110101D01*
X152982Y-110130D01*
X153003Y-110187D01*
X152992Y-110272D01*
X152957Y-110330D01*
X152925Y-110358D01*
X152864Y-110387D01*
X152635Y-110387D01*
X153432Y-110644D02*
X153371Y-110672D01*
X153257Y-110672D01*
X153203Y-110644D01*
X153182Y-110587D01*
X153210Y-110358D01*
X153246Y-110301D01*
X153307Y-110272D01*
X153421Y-110272D01*
X153475Y-110301D01*
X153496Y-110358D01*
X153489Y-110415D01*
X153196Y-110472D01*
X153707Y-110272D02*
X153800Y-110672D01*
X153992Y-110272D01*
X154178Y-110615D02*
X154203Y-110644D01*
X154171Y-110672D01*
X154146Y-110644D01*
X154178Y-110615D01*
X154171Y-110672D01*
X154217Y-110301D02*
X154242Y-110330D01*
X154210Y-110358D01*
X154185Y-110330D01*
X154217Y-110301D01*
X154210Y-110358D01*
X119364Y-110644D02*
X119450Y-110672D01*
X119592Y-110672D01*
X119650Y-110644D01*
X119678Y-110615D01*
X119707Y-110558D01*
X119707Y-110501D01*
X119678Y-110444D01*
X119650Y-110415D01*
X119592Y-110387D01*
X119478Y-110358D01*
X119421Y-110330D01*
X119392Y-110301D01*
X119364Y-110244D01*
X119364Y-110187D01*
X119392Y-110130D01*
X119421Y-110101D01*
X119478Y-110072D01*
X119621Y-110072D01*
X119707Y-110101D01*
X119964Y-110672D02*
X119964Y-110272D01*
X119964Y-110072D02*
X119935Y-110101D01*
X119964Y-110130D01*
X119992Y-110101D01*
X119964Y-110072D01*
X119964Y-110130D01*
X120192Y-110272D02*
X120507Y-110272D01*
X120192Y-110672D01*
X120507Y-110672D01*
X120964Y-110644D02*
X120907Y-110672D01*
X120792Y-110672D01*
X120735Y-110644D01*
X120707Y-110587D01*
X120707Y-110358D01*
X120735Y-110301D01*
X120792Y-110272D01*
X120907Y-110272D01*
X120964Y-110301D01*
X120992Y-110358D01*
X120992Y-110415D01*
X120707Y-110472D01*
X121250Y-110615D02*
X121278Y-110644D01*
X121250Y-110672D01*
X121221Y-110644D01*
X121250Y-110615D01*
X121250Y-110672D01*
X121250Y-110301D02*
X121278Y-110330D01*
X121250Y-110358D01*
X121221Y-110330D01*
X121250Y-110301D01*
X121250Y-110358D01*
X121964Y-110501D02*
X122250Y-110501D01*
X121907Y-110672D02*
X122107Y-110072D01*
X122307Y-110672D01*
X122450Y-110072D02*
X122821Y-110072D01*
X122621Y-110301D01*
X122707Y-110301D01*
X122764Y-110330D01*
X122792Y-110358D01*
X122821Y-110415D01*
X122821Y-110558D01*
X122792Y-110615D01*
X122764Y-110644D01*
X122707Y-110672D01*
X122535Y-110672D01*
X122478Y-110644D01*
X122450Y-110615D01*
X152592Y-111872D02*
X152592Y-111272D01*
X153135Y-111872D02*
X153135Y-111272D01*
X153135Y-111844D02*
X153078Y-111872D01*
X152964Y-111872D01*
X152907Y-111844D01*
X152878Y-111815D01*
X152850Y-111758D01*
X152850Y-111587D01*
X152878Y-111530D01*
X152907Y-111501D01*
X152964Y-111472D01*
X153078Y-111472D01*
X153135Y-111501D01*
X153421Y-111815D02*
X153450Y-111844D01*
X153421Y-111872D01*
X153392Y-111844D01*
X153421Y-111815D01*
X153421Y-111872D01*
X153421Y-111501D02*
X153450Y-111530D01*
X153421Y-111558D01*
X153392Y-111530D01*
X153421Y-111501D01*
X153421Y-111558D01*
X154478Y-111872D02*
X154135Y-111872D01*
X154307Y-111872D02*
X154307Y-111272D01*
X154249Y-111358D01*
X154192Y-111415D01*
X154135Y-111444D01*
X155164Y-111244D02*
X154650Y-112015D01*
X155678Y-111872D02*
X155335Y-111872D01*
X155507Y-111872D02*
X155507Y-111272D01*
X155449Y-111358D01*
X155392Y-111415D01*
X155335Y-111444D01*
X119389Y-108872D02*
X119732Y-108872D01*
X119485Y-109472D02*
X119560Y-108872D01*
X119857Y-109472D02*
X119907Y-109072D01*
X119932Y-108872D02*
X119900Y-108901D01*
X119925Y-108930D01*
X119957Y-108901D01*
X119932Y-108872D01*
X119925Y-108930D01*
X120107Y-109072D02*
X120335Y-109072D01*
X120217Y-108872D02*
X120153Y-109387D01*
X120175Y-109444D01*
X120228Y-109472D01*
X120285Y-109472D01*
X120571Y-109472D02*
X120517Y-109444D01*
X120496Y-109387D01*
X120560Y-108872D01*
X121032Y-109444D02*
X120971Y-109472D01*
X120857Y-109472D01*
X120803Y-109444D01*
X120782Y-109387D01*
X120810Y-109158D01*
X120846Y-109101D01*
X120907Y-109072D01*
X121021Y-109072D01*
X121075Y-109101D01*
X121096Y-109158D01*
X121089Y-109215D01*
X120796Y-109272D01*
X121321Y-109415D02*
X121346Y-109444D01*
X121314Y-109472D01*
X121289Y-109444D01*
X121321Y-109415D01*
X121314Y-109472D01*
X121360Y-109101D02*
X121385Y-109130D01*
X121353Y-109158D01*
X121328Y-109130D01*
X121360Y-109101D01*
X121353Y-109158D01*
X119592Y-106758D02*
X119392Y-106758D01*
X119392Y-107072D02*
X119392Y-106472D01*
X119678Y-106472D01*
X119907Y-107072D02*
X119907Y-106672D01*
X119907Y-106472D02*
X119878Y-106501D01*
X119907Y-106530D01*
X119935Y-106501D01*
X119907Y-106472D01*
X119907Y-106530D01*
X120278Y-107072D02*
X120221Y-107044D01*
X120192Y-106987D01*
X120192Y-106472D01*
X120735Y-107044D02*
X120678Y-107072D01*
X120564Y-107072D01*
X120507Y-107044D01*
X120478Y-106987D01*
X120478Y-106758D01*
X120507Y-106701D01*
X120564Y-106672D01*
X120678Y-106672D01*
X120735Y-106701D01*
X120764Y-106758D01*
X120764Y-106815D01*
X120478Y-106872D01*
X121021Y-107015D02*
X121050Y-107044D01*
X121021Y-107072D01*
X120992Y-107044D01*
X121021Y-107015D01*
X121021Y-107072D01*
X121021Y-106701D02*
X121050Y-106730D01*
X121021Y-106758D01*
X120992Y-106730D01*
X121021Y-106701D01*
X121021Y-106758D01*
X121707Y-106472D02*
X122078Y-106472D01*
X121878Y-106701D01*
X121964Y-106701D01*
X122021Y-106730D01*
X122050Y-106758D01*
X122078Y-106815D01*
X122078Y-106958D01*
X122050Y-107015D01*
X122021Y-107044D01*
X121964Y-107072D01*
X121792Y-107072D01*
X121735Y-107044D01*
X121707Y-107015D01*
X122678Y-107015D02*
X122650Y-107044D01*
X122564Y-107072D01*
X122507Y-107072D01*
X122421Y-107044D01*
X122364Y-106987D01*
X122335Y-106930D01*
X122307Y-106815D01*
X122307Y-106730D01*
X122335Y-106615D01*
X122364Y-106558D01*
X122421Y-106501D01*
X122507Y-106472D01*
X122564Y-106472D01*
X122650Y-106501D01*
X122678Y-106530D01*
X122935Y-107072D02*
X122935Y-106472D01*
X123192Y-107072D02*
X123192Y-106758D01*
X123164Y-106701D01*
X123107Y-106672D01*
X123021Y-106672D01*
X122964Y-106701D01*
X122935Y-106730D01*
X123735Y-107072D02*
X123735Y-106758D01*
X123707Y-106701D01*
X123650Y-106672D01*
X123535Y-106672D01*
X123478Y-106701D01*
X123735Y-107044D02*
X123678Y-107072D01*
X123535Y-107072D01*
X123478Y-107044D01*
X123450Y-106987D01*
X123450Y-106930D01*
X123478Y-106872D01*
X123535Y-106844D01*
X123678Y-106844D01*
X123735Y-106815D01*
X124021Y-106672D02*
X124021Y-107072D01*
X124021Y-106730D02*
X124050Y-106701D01*
X124107Y-106672D01*
X124192Y-106672D01*
X124250Y-106701D01*
X124278Y-106758D01*
X124278Y-107072D01*
X124564Y-107072D02*
X124564Y-106472D01*
X124764Y-106901D01*
X124964Y-106472D01*
X124964Y-107072D01*
X125335Y-107072D02*
X125278Y-107044D01*
X125250Y-107015D01*
X125221Y-106958D01*
X125221Y-106787D01*
X125250Y-106730D01*
X125278Y-106701D01*
X125335Y-106672D01*
X125421Y-106672D01*
X125478Y-106701D01*
X125507Y-106730D01*
X125535Y-106787D01*
X125535Y-106958D01*
X125507Y-107015D01*
X125478Y-107044D01*
X125421Y-107072D01*
X125335Y-107072D01*
X125764Y-107044D02*
X125821Y-107072D01*
X125935Y-107072D01*
X125992Y-107044D01*
X126021Y-106987D01*
X126021Y-106958D01*
X125992Y-106901D01*
X125935Y-106872D01*
X125850Y-106872D01*
X125792Y-106844D01*
X125764Y-106787D01*
X125764Y-106758D01*
X125792Y-106701D01*
X125850Y-106672D01*
X125935Y-106672D01*
X125992Y-106701D01*
X126192Y-106672D02*
X126421Y-106672D01*
X126278Y-107072D02*
X126278Y-106558D01*
X126307Y-106501D01*
X126364Y-106472D01*
X126421Y-106472D01*
X126850Y-107044D02*
X126792Y-107072D01*
X126678Y-107072D01*
X126621Y-107044D01*
X126592Y-106987D01*
X126592Y-106758D01*
X126621Y-106701D01*
X126678Y-106672D01*
X126792Y-106672D01*
X126850Y-106701D01*
X126878Y-106758D01*
X126878Y-106815D01*
X126592Y-106872D01*
X127050Y-106672D02*
X127278Y-106672D01*
X127135Y-106472D02*
X127135Y-106987D01*
X127164Y-107044D01*
X127221Y-107072D01*
X127278Y-107072D01*
X127678Y-106758D02*
X127764Y-106787D01*
X127792Y-106815D01*
X127821Y-106872D01*
X127821Y-106958D01*
X127792Y-107015D01*
X127764Y-107044D01*
X127707Y-107072D01*
X127478Y-107072D01*
X127478Y-106472D01*
X127678Y-106472D01*
X127735Y-106501D01*
X127764Y-106530D01*
X127792Y-106587D01*
X127792Y-106644D01*
X127764Y-106701D01*
X127735Y-106730D01*
X127678Y-106758D01*
X127478Y-106758D01*
X128164Y-107072D02*
X128107Y-107044D01*
X128078Y-107015D01*
X128050Y-106958D01*
X128050Y-106787D01*
X128078Y-106730D01*
X128107Y-106701D01*
X128164Y-106672D01*
X128250Y-106672D01*
X128307Y-106701D01*
X128335Y-106730D01*
X128364Y-106787D01*
X128364Y-106958D01*
X128335Y-107015D01*
X128307Y-107044D01*
X128250Y-107072D01*
X128164Y-107072D01*
X128878Y-107072D02*
X128878Y-106758D01*
X128850Y-106701D01*
X128792Y-106672D01*
X128678Y-106672D01*
X128621Y-106701D01*
X128878Y-107044D02*
X128821Y-107072D01*
X128678Y-107072D01*
X128621Y-107044D01*
X128592Y-106987D01*
X128592Y-106930D01*
X128621Y-106872D01*
X128678Y-106844D01*
X128821Y-106844D01*
X128878Y-106815D01*
X129164Y-107072D02*
X129164Y-106672D01*
X129164Y-106787D02*
X129192Y-106730D01*
X129221Y-106701D01*
X129278Y-106672D01*
X129335Y-106672D01*
X129792Y-107072D02*
X129792Y-106472D01*
X129792Y-107044D02*
X129735Y-107072D01*
X129621Y-107072D01*
X129564Y-107044D01*
X129535Y-107015D01*
X129507Y-106958D01*
X129507Y-106787D01*
X129535Y-106730D01*
X129564Y-106701D01*
X129621Y-106672D01*
X129735Y-106672D01*
X129792Y-106701D01*
X130078Y-107015D02*
X130107Y-107044D01*
X130078Y-107072D01*
X130050Y-107044D01*
X130078Y-107015D01*
X130078Y-107072D01*
X130364Y-107072D02*
X130364Y-106472D01*
X130421Y-106844D02*
X130592Y-107072D01*
X130592Y-106672D02*
X130364Y-106901D01*
X130849Y-107072D02*
X130849Y-106672D01*
X130849Y-106472D02*
X130821Y-106501D01*
X130849Y-106530D01*
X130878Y-106501D01*
X130849Y-106472D01*
X130849Y-106530D01*
X131392Y-107044D02*
X131335Y-107072D01*
X131221Y-107072D01*
X131164Y-107044D01*
X131135Y-107015D01*
X131107Y-106958D01*
X131107Y-106787D01*
X131135Y-106730D01*
X131164Y-106701D01*
X131221Y-106672D01*
X131335Y-106672D01*
X131392Y-106701D01*
X131907Y-107072D02*
X131907Y-106758D01*
X131878Y-106701D01*
X131821Y-106672D01*
X131707Y-106672D01*
X131649Y-106701D01*
X131907Y-107044D02*
X131849Y-107072D01*
X131707Y-107072D01*
X131649Y-107044D01*
X131621Y-106987D01*
X131621Y-106930D01*
X131649Y-106872D01*
X131707Y-106844D01*
X131849Y-106844D01*
X131907Y-106815D01*
X132449Y-107072D02*
X132449Y-106472D01*
X132449Y-107044D02*
X132392Y-107072D01*
X132278Y-107072D01*
X132221Y-107044D01*
X132192Y-107015D01*
X132164Y-106958D01*
X132164Y-106787D01*
X132192Y-106730D01*
X132221Y-106701D01*
X132278Y-106672D01*
X132392Y-106672D01*
X132449Y-106701D01*
X132592Y-107130D02*
X133049Y-107130D01*
X133192Y-106672D02*
X133192Y-107272D01*
X133192Y-106701D02*
X133249Y-106672D01*
X133364Y-106672D01*
X133421Y-106701D01*
X133449Y-106730D01*
X133478Y-106787D01*
X133478Y-106958D01*
X133449Y-107015D01*
X133421Y-107044D01*
X133364Y-107072D01*
X133249Y-107072D01*
X133192Y-107044D01*
X133992Y-107044D02*
X133935Y-107072D01*
X133821Y-107072D01*
X133764Y-107044D01*
X133735Y-107015D01*
X133707Y-106958D01*
X133707Y-106787D01*
X133735Y-106730D01*
X133764Y-106701D01*
X133821Y-106672D01*
X133935Y-106672D01*
X133992Y-106701D01*
X134249Y-107072D02*
X134249Y-106472D01*
X134249Y-106701D02*
X134307Y-106672D01*
X134421Y-106672D01*
X134478Y-106701D01*
X134507Y-106730D01*
X134535Y-106787D01*
X134535Y-106958D01*
X134507Y-107015D01*
X134478Y-107044D01*
X134421Y-107072D01*
X134307Y-107072D01*
X134249Y-107044D01*
X119364Y-108244D02*
X119450Y-108272D01*
X119592Y-108272D01*
X119650Y-108244D01*
X119678Y-108215D01*
X119707Y-108158D01*
X119707Y-108101D01*
X119678Y-108044D01*
X119650Y-108015D01*
X119592Y-107987D01*
X119478Y-107958D01*
X119421Y-107930D01*
X119392Y-107901D01*
X119364Y-107844D01*
X119364Y-107787D01*
X119392Y-107730D01*
X119421Y-107701D01*
X119478Y-107672D01*
X119621Y-107672D01*
X119707Y-107701D01*
X119964Y-108272D02*
X119964Y-107672D01*
X120221Y-108272D02*
X120221Y-107958D01*
X120192Y-107901D01*
X120135Y-107872D01*
X120050Y-107872D01*
X119992Y-107901D01*
X119964Y-107930D01*
X120735Y-108244D02*
X120678Y-108272D01*
X120564Y-108272D01*
X120507Y-108244D01*
X120478Y-108187D01*
X120478Y-107958D01*
X120507Y-107901D01*
X120564Y-107872D01*
X120678Y-107872D01*
X120735Y-107901D01*
X120764Y-107958D01*
X120764Y-108015D01*
X120478Y-108072D01*
X121250Y-108244D02*
X121192Y-108272D01*
X121078Y-108272D01*
X121021Y-108244D01*
X120992Y-108187D01*
X120992Y-107958D01*
X121021Y-107901D01*
X121078Y-107872D01*
X121192Y-107872D01*
X121250Y-107901D01*
X121278Y-107958D01*
X121278Y-108015D01*
X120992Y-108072D01*
X121450Y-107872D02*
X121678Y-107872D01*
X121535Y-107672D02*
X121535Y-108187D01*
X121564Y-108244D01*
X121621Y-108272D01*
X121678Y-108272D01*
X121878Y-108215D02*
X121907Y-108244D01*
X121878Y-108272D01*
X121850Y-108244D01*
X121878Y-108215D01*
X121878Y-108272D01*
X121878Y-107901D02*
X121907Y-107930D01*
X121878Y-107958D01*
X121850Y-107930D01*
X121878Y-107901D01*
X121878Y-107958D01*
X118650Y-106230D02*
X118650Y-112230D01*
X118650Y-106230D02*
X160650Y-106230D01*
X118650Y-106230D02*
X160650Y-106230D01*
X118650Y-108630D02*
X160650Y-108630D01*
X151850Y-109830D02*
X151850Y-112230D01*
X118650Y-111030D02*
X160650Y-111030D01*
X118650Y-109830D02*
X160650Y-109830D01*
X125250Y-109830D02*
X125250Y-111030D01*
G54D11*
X62250Y-56750D03*
X66250Y-56750D03*
X62250Y-57750D03*
X66250Y-57750D03*
X62250Y-58750D03*
X66250Y-58750D03*
X75500Y-55250D03*
X79500Y-55250D03*
X75500Y-58000D03*
X79500Y-58000D03*
X75500Y-60500D03*
X79500Y-60500D03*
G54D12*
X60250Y-59750D03*
G54D11*
X60250Y-58750D03*
X60250Y-57750D03*
X60250Y-56750D03*
G54D13*
X69750Y-59250D03*
G54D14*
X69750Y-57750D03*
X73750Y-58000D03*
X73750Y-59000D03*
G54D13*
X69750Y-61750D03*
G54D14*
X69750Y-60250D03*
X73750Y-60500D03*
X73750Y-61500D03*
G54D13*
X69750Y-56750D03*
G54D14*
X69750Y-55250D03*
X73750Y-55500D03*
X73750Y-56500D03*
G54D12*
X96750Y-55000D03*
G54D11*
X96750Y-54000D03*
G54D12*
X96750Y-60250D03*
G54D11*
X96750Y-59250D03*
G54D12*
X96750Y-65500D03*
G54D11*
X96750Y-64500D03*
G54D12*
X60250Y-64500D03*
G54D11*
X60250Y-63500D03*
X60250Y-62500D03*
G54D15*
X92000Y-55950D03*
G54D16*
X92000Y-53000D03*
G54D15*
X86750Y-61200D03*
G54D16*
X86750Y-58250D03*
G54D15*
X92000Y-66450D03*
G54D16*
X92000Y-63500D03*
G54D12*
X81250Y-56500D03*
G54D11*
X81250Y-55500D03*
X81250Y-54500D03*
G54D12*
X81250Y-60250D03*
G54D11*
X81250Y-59250D03*
X81250Y-58250D03*
G54D12*
X81250Y-63500D03*
G54D11*
X81250Y-62500D03*
X81250Y-61500D03*
G54D17*
X66250Y-58750D02*
X66250Y-61750D01*
X66250Y-61750D02*
X69750Y-61750D01*
X60250Y-57750D02*
X62250Y-57750D01*
X60250Y-56750D02*
X62250Y-56750D01*
X66250Y-57750D02*
X67750Y-57750D01*
X67750Y-59250D02*
X69750Y-59250D01*
X67750Y-57750D02*
X67750Y-59250D01*
X81250Y-60250D02*
X79750Y-60250D01*
X79750Y-60250D02*
X79500Y-60500D01*
X96750Y-60250D02*
X87700Y-60250D01*
X87700Y-60250D02*
X86750Y-61200D01*
X96750Y-65500D02*
X92950Y-65500D01*
X92950Y-65500D02*
X92000Y-66450D01*
X81250Y-56500D02*
X91450Y-56500D01*
X91450Y-56500D02*
X92000Y-55950D01*
X96750Y-55000D02*
X92950Y-55000D01*
X92950Y-55000D02*
X92000Y-55950D01*
X66250Y-56750D02*
X69750Y-56750D01*
X92000Y-53000D02*
X85750Y-53000D01*
X83250Y-55500D02*
X81250Y-55500D01*
X85750Y-53000D02*
X83250Y-55500D01*
X96750Y-54000D02*
X93000Y-54000D01*
X93000Y-54000D02*
X92000Y-53000D01*
X86750Y-58250D02*
X85750Y-58250D01*
X84750Y-59250D02*
X81250Y-59250D01*
X85750Y-58250D02*
X84750Y-59250D01*
X96750Y-59250D02*
X87750Y-59250D01*
X87750Y-59250D02*
X86750Y-58250D01*
X92000Y-63500D02*
X85250Y-63500D01*
X84250Y-62500D02*
X81250Y-62500D01*
X85250Y-63500D02*
X84250Y-62500D01*
X96750Y-64500D02*
X93000Y-64500D01*
X93000Y-64500D02*
X92000Y-63500D01*
X80250Y-56750D02*
X74750Y-56750D01*
X81250Y-54500D02*
X80500Y-54500D01*
X81250Y-57750D02*
X81250Y-58250D01*
X80250Y-56750D02*
X81250Y-57750D01*
X80250Y-54750D02*
X80250Y-56750D01*
X80500Y-54500D02*
X80250Y-54750D01*
X74750Y-59000D02*
X74750Y-56750D01*
X74750Y-56750D02*
X74750Y-56500D01*
X74750Y-56500D02*
X73750Y-56500D01*
X74750Y-61500D02*
X74750Y-59000D01*
X74750Y-59000D02*
X73750Y-59000D01*
X81250Y-61500D02*
X74750Y-61500D01*
X74750Y-61500D02*
X73750Y-61500D01*
X73750Y-55500D02*
X75250Y-55500D01*
X75250Y-55500D02*
X75500Y-55250D01*
X60250Y-58750D02*
X62250Y-58750D01*
G54D10*
G36*
X97950Y-68450D02*
X97300Y-68450D01*
X97300Y-64391D01*
X97216Y-64188D01*
X97061Y-64034D01*
X96859Y-63950D01*
X96641Y-63949D01*
X96438Y-64033D01*
X96284Y-64188D01*
X96279Y-64200D01*
X93124Y-64200D01*
X92551Y-63626D01*
X92557Y-63611D01*
X92557Y-63389D01*
X92472Y-63184D01*
X92316Y-63027D01*
X92111Y-62942D01*
X91889Y-62942D01*
X91684Y-63027D01*
X91527Y-63183D01*
X91520Y-63200D01*
X85374Y-63200D01*
X84462Y-62287D01*
X84364Y-62222D01*
X84250Y-62200D01*
X81721Y-62200D01*
X81716Y-62188D01*
X81561Y-62034D01*
X81480Y-62000D01*
X81561Y-61966D01*
X81715Y-61811D01*
X81799Y-61609D01*
X81800Y-61391D01*
X81716Y-61188D01*
X81561Y-61034D01*
X81359Y-60950D01*
X81141Y-60949D01*
X80938Y-61033D01*
X80784Y-61188D01*
X80779Y-61200D01*
X75050Y-61200D01*
X75050Y-60827D01*
X75188Y-60965D01*
X75390Y-61049D01*
X75608Y-61050D01*
X75811Y-60966D01*
X75965Y-60811D01*
X76049Y-60609D01*
X76050Y-60391D01*
X75966Y-60188D01*
X75811Y-60034D01*
X75609Y-59950D01*
X75391Y-59949D01*
X75188Y-60033D01*
X75050Y-60172D01*
X75050Y-59000D01*
X75050Y-58327D01*
X75188Y-58465D01*
X75390Y-58549D01*
X75608Y-58550D01*
X75811Y-58466D01*
X75965Y-58311D01*
X76049Y-58109D01*
X76050Y-57891D01*
X75966Y-57688D01*
X75811Y-57534D01*
X75609Y-57450D01*
X75391Y-57449D01*
X75188Y-57533D01*
X75050Y-57672D01*
X75050Y-57050D01*
X80125Y-57050D01*
X80898Y-57823D01*
X80784Y-57938D01*
X80700Y-58140D01*
X80699Y-58358D01*
X80783Y-58561D01*
X80938Y-58715D01*
X81019Y-58749D01*
X80938Y-58783D01*
X80784Y-58938D01*
X80700Y-59140D01*
X80699Y-59358D01*
X80783Y-59561D01*
X80922Y-59699D01*
X80900Y-59699D01*
X80808Y-59737D01*
X80738Y-59808D01*
X80700Y-59900D01*
X80700Y-59950D01*
X80050Y-59950D01*
X80050Y-57891D01*
X79966Y-57688D01*
X79811Y-57534D01*
X79609Y-57450D01*
X79391Y-57449D01*
X79188Y-57533D01*
X79034Y-57688D01*
X78950Y-57890D01*
X78949Y-58108D01*
X79033Y-58311D01*
X79188Y-58465D01*
X79390Y-58549D01*
X79608Y-58550D01*
X79811Y-58466D01*
X79965Y-58311D01*
X80049Y-58109D01*
X80050Y-57891D01*
X80050Y-59950D01*
X79750Y-59950D01*
X79655Y-59968D01*
X79609Y-59950D01*
X79391Y-59949D01*
X79188Y-60033D01*
X79034Y-60188D01*
X78950Y-60390D01*
X78949Y-60608D01*
X79033Y-60811D01*
X79188Y-60965D01*
X79390Y-61049D01*
X79608Y-61050D01*
X79811Y-60966D01*
X79965Y-60811D01*
X80049Y-60609D01*
X80049Y-60550D01*
X80699Y-60550D01*
X80699Y-60599D01*
X80737Y-60691D01*
X80808Y-60761D01*
X80900Y-60799D01*
X80999Y-60800D01*
X81599Y-60800D01*
X81691Y-60762D01*
X81761Y-60691D01*
X81799Y-60599D01*
X81800Y-60500D01*
X81800Y-59900D01*
X81762Y-59808D01*
X81691Y-59738D01*
X81599Y-59700D01*
X81577Y-59700D01*
X81715Y-59561D01*
X81720Y-59550D01*
X84750Y-59550D01*
X84750Y-59549D01*
X84864Y-59527D01*
X84864Y-59527D01*
X84962Y-59462D01*
X85874Y-58550D01*
X86270Y-58550D01*
X86277Y-58565D01*
X86433Y-58722D01*
X86638Y-58807D01*
X86860Y-58807D01*
X86876Y-58800D01*
X87537Y-59462D01*
X87537Y-59462D01*
X87635Y-59527D01*
X87750Y-59550D01*
X96278Y-59550D01*
X96283Y-59561D01*
X96422Y-59699D01*
X96400Y-59699D01*
X96308Y-59737D01*
X96238Y-59808D01*
X96200Y-59900D01*
X96200Y-59950D01*
X87700Y-59950D01*
X87585Y-59972D01*
X87487Y-60037D01*
X86883Y-60642D01*
X86392Y-60642D01*
X86301Y-60680D01*
X86230Y-60750D01*
X86192Y-60842D01*
X86192Y-60942D01*
X86192Y-61557D01*
X86230Y-61648D01*
X86300Y-61719D01*
X86392Y-61757D01*
X86492Y-61757D01*
X87107Y-61757D01*
X87198Y-61719D01*
X87269Y-61649D01*
X87307Y-61557D01*
X87307Y-61457D01*
X87307Y-61066D01*
X87824Y-60550D01*
X96199Y-60550D01*
X96199Y-60599D01*
X96237Y-60691D01*
X96308Y-60761D01*
X96400Y-60799D01*
X96499Y-60800D01*
X97099Y-60800D01*
X97191Y-60762D01*
X97261Y-60691D01*
X97299Y-60599D01*
X97300Y-60500D01*
X97300Y-59900D01*
X97262Y-59808D01*
X97191Y-59738D01*
X97099Y-59700D01*
X97077Y-59700D01*
X97215Y-59561D01*
X97299Y-59359D01*
X97300Y-59141D01*
X97216Y-58938D01*
X97061Y-58784D01*
X96859Y-58700D01*
X96641Y-58699D01*
X96438Y-58783D01*
X96284Y-58938D01*
X96279Y-58950D01*
X87874Y-58950D01*
X87301Y-58376D01*
X87307Y-58361D01*
X87307Y-58139D01*
X87222Y-57934D01*
X87066Y-57777D01*
X86861Y-57692D01*
X86639Y-57692D01*
X86434Y-57777D01*
X86277Y-57933D01*
X86270Y-57950D01*
X85750Y-57950D01*
X85635Y-57972D01*
X85537Y-58037D01*
X84625Y-58950D01*
X81721Y-58950D01*
X81716Y-58938D01*
X81561Y-58784D01*
X81480Y-58750D01*
X81561Y-58716D01*
X81715Y-58561D01*
X81799Y-58359D01*
X81800Y-58141D01*
X81716Y-57938D01*
X81561Y-57784D01*
X81550Y-57779D01*
X81550Y-57750D01*
X81527Y-57635D01*
X81462Y-57537D01*
X81462Y-57537D01*
X80974Y-57050D01*
X80999Y-57050D01*
X81599Y-57050D01*
X81691Y-57012D01*
X81761Y-56941D01*
X81799Y-56849D01*
X81799Y-56800D01*
X91450Y-56800D01*
X91450Y-56799D01*
X91564Y-56777D01*
X91564Y-56777D01*
X91662Y-56712D01*
X91866Y-56507D01*
X92357Y-56507D01*
X92448Y-56469D01*
X92519Y-56399D01*
X92557Y-56307D01*
X92557Y-56207D01*
X92557Y-55816D01*
X93074Y-55300D01*
X96199Y-55300D01*
X96199Y-55349D01*
X96237Y-55441D01*
X96308Y-55511D01*
X96400Y-55549D01*
X96499Y-55550D01*
X97099Y-55550D01*
X97191Y-55512D01*
X97261Y-55441D01*
X97299Y-55349D01*
X97300Y-55250D01*
X97300Y-54650D01*
X97262Y-54558D01*
X97191Y-54488D01*
X97099Y-54450D01*
X97077Y-54450D01*
X97215Y-54311D01*
X97299Y-54109D01*
X97300Y-53891D01*
X97216Y-53688D01*
X97061Y-53534D01*
X96859Y-53450D01*
X96641Y-53449D01*
X96438Y-53533D01*
X96284Y-53688D01*
X96279Y-53700D01*
X93124Y-53700D01*
X92551Y-53126D01*
X92557Y-53111D01*
X92557Y-52889D01*
X92472Y-52684D01*
X92316Y-52527D01*
X92111Y-52442D01*
X91889Y-52442D01*
X91684Y-52527D01*
X91527Y-52683D01*
X91520Y-52700D01*
X85750Y-52700D01*
X85635Y-52722D01*
X85537Y-52787D01*
X83125Y-55200D01*
X81721Y-55200D01*
X81716Y-55188D01*
X81561Y-55034D01*
X81480Y-55000D01*
X81561Y-54966D01*
X81715Y-54811D01*
X81799Y-54609D01*
X81800Y-54391D01*
X81716Y-54188D01*
X81561Y-54034D01*
X81359Y-53950D01*
X81141Y-53949D01*
X80938Y-54033D01*
X80784Y-54188D01*
X80779Y-54200D01*
X80500Y-54200D01*
X80385Y-54222D01*
X80287Y-54287D01*
X80037Y-54537D01*
X79972Y-54635D01*
X79950Y-54750D01*
X79950Y-54922D01*
X79811Y-54784D01*
X79609Y-54700D01*
X79391Y-54699D01*
X79188Y-54783D01*
X79034Y-54938D01*
X78950Y-55140D01*
X78949Y-55358D01*
X79033Y-55561D01*
X79188Y-55715D01*
X79390Y-55799D01*
X79608Y-55800D01*
X79811Y-55716D01*
X79950Y-55577D01*
X79950Y-56450D01*
X75040Y-56450D01*
X75027Y-56385D01*
X74962Y-56287D01*
X74864Y-56222D01*
X74750Y-56200D01*
X74363Y-56200D01*
X74299Y-56104D01*
X74144Y-56000D01*
X74299Y-55895D01*
X74363Y-55800D01*
X75250Y-55800D01*
X75250Y-55799D01*
X75344Y-55781D01*
X75344Y-55781D01*
X75390Y-55799D01*
X75608Y-55800D01*
X75811Y-55716D01*
X75965Y-55561D01*
X76049Y-55359D01*
X76050Y-55141D01*
X75966Y-54938D01*
X75811Y-54784D01*
X75609Y-54700D01*
X75391Y-54699D01*
X75188Y-54783D01*
X75034Y-54938D01*
X74950Y-55140D01*
X74950Y-55200D01*
X74363Y-55200D01*
X74299Y-55104D01*
X74118Y-54982D01*
X73903Y-54940D01*
X73596Y-54940D01*
X73381Y-54982D01*
X73200Y-55104D01*
X73078Y-55285D01*
X73036Y-55500D01*
X73078Y-55714D01*
X73200Y-55895D01*
X73355Y-56000D01*
X73200Y-56104D01*
X73078Y-56285D01*
X73036Y-56500D01*
X73078Y-56714D01*
X73200Y-56895D01*
X73381Y-57017D01*
X73596Y-57060D01*
X73903Y-57060D01*
X74118Y-57017D01*
X74299Y-56895D01*
X74363Y-56800D01*
X74450Y-56800D01*
X74450Y-57931D01*
X74421Y-57785D01*
X74299Y-57604D01*
X74118Y-57482D01*
X73903Y-57440D01*
X73596Y-57440D01*
X73381Y-57482D01*
X73200Y-57604D01*
X73078Y-57785D01*
X73036Y-58000D01*
X73078Y-58214D01*
X73200Y-58395D01*
X73355Y-58500D01*
X73200Y-58604D01*
X73078Y-58785D01*
X73036Y-59000D01*
X73078Y-59214D01*
X73200Y-59395D01*
X73381Y-59517D01*
X73596Y-59560D01*
X73903Y-59560D01*
X74118Y-59517D01*
X74299Y-59395D01*
X74363Y-59300D01*
X74450Y-59300D01*
X74450Y-60431D01*
X74421Y-60285D01*
X74299Y-60104D01*
X74118Y-59982D01*
X73903Y-59940D01*
X73596Y-59940D01*
X73381Y-59982D01*
X73200Y-60104D01*
X73078Y-60285D01*
X73036Y-60500D01*
X73078Y-60714D01*
X73200Y-60895D01*
X73355Y-61000D01*
X73200Y-61104D01*
X73078Y-61285D01*
X73036Y-61500D01*
X73078Y-61714D01*
X73200Y-61895D01*
X73381Y-62017D01*
X73596Y-62060D01*
X73903Y-62060D01*
X74118Y-62017D01*
X74299Y-61895D01*
X74363Y-61800D01*
X74750Y-61800D01*
X80778Y-61800D01*
X80783Y-61811D01*
X80938Y-61965D01*
X81019Y-61999D01*
X80938Y-62033D01*
X80784Y-62188D01*
X80700Y-62390D01*
X80699Y-62608D01*
X80783Y-62811D01*
X80922Y-62949D01*
X80900Y-62949D01*
X80808Y-62987D01*
X80738Y-63058D01*
X80700Y-63150D01*
X80699Y-63249D01*
X80699Y-63849D01*
X80737Y-63941D01*
X80808Y-64011D01*
X80900Y-64049D01*
X80999Y-64050D01*
X81599Y-64050D01*
X81691Y-64012D01*
X81761Y-63941D01*
X81799Y-63849D01*
X81800Y-63750D01*
X81800Y-63150D01*
X81762Y-63058D01*
X81691Y-62988D01*
X81599Y-62950D01*
X81577Y-62950D01*
X81715Y-62811D01*
X81720Y-62800D01*
X84125Y-62800D01*
X85037Y-63712D01*
X85037Y-63712D01*
X85135Y-63777D01*
X85250Y-63800D01*
X91520Y-63800D01*
X91527Y-63815D01*
X91683Y-63972D01*
X91888Y-64057D01*
X92110Y-64057D01*
X92126Y-64050D01*
X92787Y-64712D01*
X92787Y-64712D01*
X92885Y-64777D01*
X93000Y-64800D01*
X96278Y-64800D01*
X96283Y-64811D01*
X96422Y-64949D01*
X96400Y-64949D01*
X96308Y-64987D01*
X96238Y-65058D01*
X96200Y-65150D01*
X96200Y-65200D01*
X92950Y-65200D01*
X92835Y-65222D01*
X92737Y-65287D01*
X92133Y-65892D01*
X91642Y-65892D01*
X91551Y-65930D01*
X91480Y-66000D01*
X91442Y-66092D01*
X91442Y-66192D01*
X91442Y-66807D01*
X91480Y-66898D01*
X91550Y-66969D01*
X91642Y-67007D01*
X91742Y-67007D01*
X92357Y-67007D01*
X92448Y-66969D01*
X92519Y-66899D01*
X92557Y-66807D01*
X92557Y-66707D01*
X92557Y-66316D01*
X93074Y-65800D01*
X96199Y-65800D01*
X96199Y-65849D01*
X96237Y-65941D01*
X96308Y-66011D01*
X96400Y-66049D01*
X96499Y-66050D01*
X97099Y-66050D01*
X97191Y-66012D01*
X97261Y-65941D01*
X97299Y-65849D01*
X97300Y-65750D01*
X97300Y-65150D01*
X97262Y-65058D01*
X97191Y-64988D01*
X97099Y-64950D01*
X97077Y-64950D01*
X97215Y-64811D01*
X97299Y-64609D01*
X97300Y-64391D01*
X97300Y-68450D01*
X70450Y-68450D01*
X70450Y-62010D01*
X70450Y-61390D01*
X70433Y-61349D01*
X70433Y-60386D01*
X70384Y-60300D01*
X69800Y-60300D01*
X69800Y-60810D01*
X69940Y-60810D01*
X70150Y-60748D01*
X70321Y-60610D01*
X70426Y-60418D01*
X70433Y-60386D01*
X70433Y-61349D01*
X70412Y-61298D01*
X70341Y-61228D01*
X70249Y-61190D01*
X70150Y-61189D01*
X69700Y-61189D01*
X69700Y-60810D01*
X69700Y-60300D01*
X69115Y-60300D01*
X69066Y-60386D01*
X69073Y-60418D01*
X69178Y-60610D01*
X69349Y-60748D01*
X69560Y-60810D01*
X69700Y-60810D01*
X69700Y-61189D01*
X69250Y-61189D01*
X69158Y-61227D01*
X69088Y-61298D01*
X69050Y-61390D01*
X69049Y-61450D01*
X66550Y-61450D01*
X66550Y-59221D01*
X66561Y-59216D01*
X66715Y-59061D01*
X66799Y-58859D01*
X66800Y-58641D01*
X66716Y-58438D01*
X66561Y-58284D01*
X66480Y-58250D01*
X66561Y-58216D01*
X66715Y-58061D01*
X66720Y-58050D01*
X67450Y-58050D01*
X67450Y-59250D01*
X67472Y-59364D01*
X67537Y-59462D01*
X67635Y-59527D01*
X67750Y-59550D01*
X69049Y-59550D01*
X69049Y-59609D01*
X69087Y-59701D01*
X69158Y-59771D01*
X69250Y-59809D01*
X69277Y-59809D01*
X69178Y-59889D01*
X69073Y-60081D01*
X69066Y-60113D01*
X69115Y-60200D01*
X69700Y-60200D01*
X69700Y-60192D01*
X69800Y-60192D01*
X69800Y-60200D01*
X70384Y-60200D01*
X70433Y-60113D01*
X70426Y-60081D01*
X70321Y-59889D01*
X70222Y-59810D01*
X70249Y-59810D01*
X70341Y-59772D01*
X70411Y-59701D01*
X70449Y-59609D01*
X70450Y-59510D01*
X70450Y-58890D01*
X70433Y-58849D01*
X70433Y-57886D01*
X70384Y-57800D01*
X69800Y-57800D01*
X69800Y-58310D01*
X69940Y-58310D01*
X70150Y-58248D01*
X70321Y-58110D01*
X70426Y-57918D01*
X70433Y-57886D01*
X70433Y-58849D01*
X70412Y-58798D01*
X70341Y-58728D01*
X70249Y-58690D01*
X70150Y-58689D01*
X69700Y-58689D01*
X69700Y-58310D01*
X69700Y-57800D01*
X69115Y-57800D01*
X69066Y-57886D01*
X69073Y-57918D01*
X69178Y-58110D01*
X69349Y-58248D01*
X69560Y-58310D01*
X69700Y-58310D01*
X69700Y-58689D01*
X69250Y-58689D01*
X69158Y-58727D01*
X69088Y-58798D01*
X69050Y-58890D01*
X69049Y-58950D01*
X68050Y-58950D01*
X68050Y-57750D01*
X68027Y-57635D01*
X67962Y-57537D01*
X67864Y-57472D01*
X67750Y-57450D01*
X66721Y-57450D01*
X66716Y-57438D01*
X66561Y-57284D01*
X66480Y-57250D01*
X66561Y-57216D01*
X66715Y-57061D01*
X66720Y-57050D01*
X69049Y-57050D01*
X69049Y-57109D01*
X69087Y-57201D01*
X69158Y-57271D01*
X69250Y-57309D01*
X69277Y-57309D01*
X69178Y-57389D01*
X69073Y-57581D01*
X69066Y-57613D01*
X69115Y-57700D01*
X69700Y-57700D01*
X69700Y-57692D01*
X69800Y-57692D01*
X69800Y-57700D01*
X70384Y-57700D01*
X70433Y-57613D01*
X70426Y-57581D01*
X70321Y-57389D01*
X70222Y-57310D01*
X70249Y-57310D01*
X70341Y-57272D01*
X70411Y-57201D01*
X70449Y-57109D01*
X70450Y-57010D01*
X70450Y-56390D01*
X70433Y-56349D01*
X70433Y-55386D01*
X70433Y-55113D01*
X70426Y-55081D01*
X70321Y-54889D01*
X70150Y-54751D01*
X69940Y-54690D01*
X69800Y-54690D01*
X69800Y-55200D01*
X70384Y-55200D01*
X70433Y-55113D01*
X70433Y-55386D01*
X70384Y-55300D01*
X69800Y-55300D01*
X69800Y-55810D01*
X69940Y-55810D01*
X70150Y-55748D01*
X70321Y-55610D01*
X70426Y-55418D01*
X70433Y-55386D01*
X70433Y-56349D01*
X70412Y-56298D01*
X70341Y-56228D01*
X70249Y-56190D01*
X70150Y-56189D01*
X69700Y-56189D01*
X69700Y-55810D01*
X69700Y-55300D01*
X69700Y-55200D01*
X69700Y-54690D01*
X69560Y-54690D01*
X69349Y-54751D01*
X69178Y-54889D01*
X69073Y-55081D01*
X69066Y-55113D01*
X69115Y-55200D01*
X69700Y-55200D01*
X69700Y-55300D01*
X69115Y-55300D01*
X69066Y-55386D01*
X69073Y-55418D01*
X69178Y-55610D01*
X69349Y-55748D01*
X69560Y-55810D01*
X69700Y-55810D01*
X69700Y-56189D01*
X69250Y-56189D01*
X69158Y-56227D01*
X69088Y-56298D01*
X69050Y-56390D01*
X69049Y-56450D01*
X66721Y-56450D01*
X66716Y-56438D01*
X66561Y-56284D01*
X66359Y-56200D01*
X66141Y-56199D01*
X65938Y-56283D01*
X65784Y-56438D01*
X65700Y-56640D01*
X65699Y-56858D01*
X65783Y-57061D01*
X65938Y-57215D01*
X66019Y-57249D01*
X65938Y-57283D01*
X65784Y-57438D01*
X65700Y-57640D01*
X65699Y-57858D01*
X65783Y-58061D01*
X65938Y-58215D01*
X66019Y-58249D01*
X65938Y-58283D01*
X65784Y-58438D01*
X65700Y-58640D01*
X65699Y-58858D01*
X65783Y-59061D01*
X65938Y-59215D01*
X65950Y-59220D01*
X65950Y-61750D01*
X65972Y-61864D01*
X66037Y-61962D01*
X66135Y-62027D01*
X66250Y-62050D01*
X69049Y-62050D01*
X69049Y-62109D01*
X69087Y-62201D01*
X69158Y-62271D01*
X69250Y-62309D01*
X69349Y-62310D01*
X70249Y-62310D01*
X70341Y-62272D01*
X70411Y-62201D01*
X70449Y-62109D01*
X70450Y-62010D01*
X70450Y-68450D01*
X62800Y-68450D01*
X62800Y-58641D01*
X62716Y-58438D01*
X62561Y-58284D01*
X62480Y-58250D01*
X62561Y-58216D01*
X62715Y-58061D01*
X62799Y-57859D01*
X62800Y-57641D01*
X62716Y-57438D01*
X62561Y-57284D01*
X62480Y-57250D01*
X62561Y-57216D01*
X62715Y-57061D01*
X62799Y-56859D01*
X62800Y-56641D01*
X62716Y-56438D01*
X62561Y-56284D01*
X62359Y-56200D01*
X62141Y-56199D01*
X61938Y-56283D01*
X61784Y-56438D01*
X61779Y-56450D01*
X60721Y-56450D01*
X60716Y-56438D01*
X60561Y-56284D01*
X60359Y-56200D01*
X60141Y-56199D01*
X59938Y-56283D01*
X59784Y-56438D01*
X59700Y-56640D01*
X59699Y-56858D01*
X59783Y-57061D01*
X59938Y-57215D01*
X60019Y-57249D01*
X59938Y-57283D01*
X59784Y-57438D01*
X59700Y-57640D01*
X59699Y-57858D01*
X59783Y-58061D01*
X59938Y-58215D01*
X60019Y-58249D01*
X59938Y-58283D01*
X59784Y-58438D01*
X59700Y-58640D01*
X59699Y-58858D01*
X59783Y-59061D01*
X59922Y-59200D01*
X59900Y-59200D01*
X59808Y-59238D01*
X59737Y-59308D01*
X59699Y-59400D01*
X59700Y-59637D01*
X59762Y-59700D01*
X60200Y-59700D01*
X60200Y-59692D01*
X60300Y-59692D01*
X60300Y-59700D01*
X60737Y-59700D01*
X60800Y-59637D01*
X60800Y-59400D01*
X60762Y-59308D01*
X60691Y-59238D01*
X60599Y-59200D01*
X60577Y-59200D01*
X60715Y-59061D01*
X60720Y-59050D01*
X61778Y-59050D01*
X61783Y-59061D01*
X61938Y-59215D01*
X62140Y-59299D01*
X62358Y-59300D01*
X62561Y-59216D01*
X62715Y-59061D01*
X62799Y-58859D01*
X62800Y-58641D01*
X62800Y-68450D01*
X60800Y-68450D01*
X60800Y-63391D01*
X60716Y-63188D01*
X60561Y-63034D01*
X60480Y-63000D01*
X60561Y-62966D01*
X60715Y-62811D01*
X60799Y-62609D01*
X60800Y-62391D01*
X60800Y-62390D01*
X60800Y-60099D01*
X60800Y-59862D01*
X60737Y-59800D01*
X60300Y-59800D01*
X60300Y-60237D01*
X60362Y-60300D01*
X60500Y-60300D01*
X60599Y-60299D01*
X60691Y-60261D01*
X60762Y-60191D01*
X60800Y-60099D01*
X60800Y-62390D01*
X60716Y-62188D01*
X60561Y-62034D01*
X60359Y-61950D01*
X60200Y-61949D01*
X60200Y-60237D01*
X60200Y-59800D01*
X59762Y-59800D01*
X59700Y-59862D01*
X59699Y-60099D01*
X59737Y-60191D01*
X59808Y-60261D01*
X59900Y-60299D01*
X59999Y-60300D01*
X60137Y-60300D01*
X60200Y-60237D01*
X60200Y-61949D01*
X60141Y-61949D01*
X59938Y-62033D01*
X59784Y-62188D01*
X59700Y-62390D01*
X59699Y-62608D01*
X59783Y-62811D01*
X59938Y-62965D01*
X60019Y-62999D01*
X59938Y-63033D01*
X59784Y-63188D01*
X59700Y-63390D01*
X59699Y-63608D01*
X59783Y-63811D01*
X59922Y-63949D01*
X59900Y-63949D01*
X59808Y-63987D01*
X59738Y-64058D01*
X59700Y-64150D01*
X59699Y-64249D01*
X59699Y-64849D01*
X59737Y-64941D01*
X59808Y-65011D01*
X59900Y-65049D01*
X59999Y-65050D01*
X60599Y-65050D01*
X60691Y-65012D01*
X60761Y-64941D01*
X60799Y-64849D01*
X60800Y-64750D01*
X60800Y-64150D01*
X60762Y-64058D01*
X60691Y-63988D01*
X60599Y-63950D01*
X60577Y-63950D01*
X60715Y-63811D01*
X60799Y-63609D01*
X60800Y-63391D01*
X60800Y-68450D01*
X58550Y-68450D01*
X58550Y-49550D01*
X97950Y-49550D01*
X97950Y-68450D01*
X97950Y-68450D01*
G37*
G54D17*
X97950Y-68450D02*
X97300Y-68450D01*
X97300Y-64391D01*
X97216Y-64188D01*
X97061Y-64034D01*
X96859Y-63950D01*
X96641Y-63949D01*
X96438Y-64033D01*
X96284Y-64188D01*
X96279Y-64200D01*
X93124Y-64200D01*
X92551Y-63626D01*
X92557Y-63611D01*
X92557Y-63389D01*
X92472Y-63184D01*
X92316Y-63027D01*
X92111Y-62942D01*
X91889Y-62942D01*
X91684Y-63027D01*
X91527Y-63183D01*
X91520Y-63200D01*
X85374Y-63200D01*
X84462Y-62287D01*
X84364Y-62222D01*
X84250Y-62200D01*
X81721Y-62200D01*
X81716Y-62188D01*
X81561Y-62034D01*
X81480Y-62000D01*
X81561Y-61966D01*
X81715Y-61811D01*
X81799Y-61609D01*
X81800Y-61391D01*
X81716Y-61188D01*
X81561Y-61034D01*
X81359Y-60950D01*
X81141Y-60949D01*
X80938Y-61033D01*
X80784Y-61188D01*
X80779Y-61200D01*
X75050Y-61200D01*
X75050Y-60827D01*
X75188Y-60965D01*
X75390Y-61049D01*
X75608Y-61050D01*
X75811Y-60966D01*
X75965Y-60811D01*
X76049Y-60609D01*
X76050Y-60391D01*
X75966Y-60188D01*
X75811Y-60034D01*
X75609Y-59950D01*
X75391Y-59949D01*
X75188Y-60033D01*
X75050Y-60172D01*
X75050Y-59000D01*
X75050Y-58327D01*
X75188Y-58465D01*
X75390Y-58549D01*
X75608Y-58550D01*
X75811Y-58466D01*
X75965Y-58311D01*
X76049Y-58109D01*
X76050Y-57891D01*
X75966Y-57688D01*
X75811Y-57534D01*
X75609Y-57450D01*
X75391Y-57449D01*
X75188Y-57533D01*
X75050Y-57672D01*
X75050Y-57050D01*
X80125Y-57050D01*
X80898Y-57823D01*
X80784Y-57938D01*
X80700Y-58140D01*
X80699Y-58358D01*
X80783Y-58561D01*
X80938Y-58715D01*
X81019Y-58749D01*
X80938Y-58783D01*
X80784Y-58938D01*
X80700Y-59140D01*
X80699Y-59358D01*
X80783Y-59561D01*
X80922Y-59699D01*
X80900Y-59699D01*
X80808Y-59737D01*
X80738Y-59808D01*
X80700Y-59900D01*
X80700Y-59950D01*
X80050Y-59950D01*
X80050Y-57891D01*
X79966Y-57688D01*
X79811Y-57534D01*
X79609Y-57450D01*
X79391Y-57449D01*
X79188Y-57533D01*
X79034Y-57688D01*
X78950Y-57890D01*
X78949Y-58108D01*
X79033Y-58311D01*
X79188Y-58465D01*
X79390Y-58549D01*
X79608Y-58550D01*
X79811Y-58466D01*
X79965Y-58311D01*
X80049Y-58109D01*
X80050Y-57891D01*
X80050Y-59950D01*
X79750Y-59950D01*
X79655Y-59968D01*
X79609Y-59950D01*
X79391Y-59949D01*
X79188Y-60033D01*
X79034Y-60188D01*
X78950Y-60390D01*
X78949Y-60608D01*
X79033Y-60811D01*
X79188Y-60965D01*
X79390Y-61049D01*
X79608Y-61050D01*
X79811Y-60966D01*
X79965Y-60811D01*
X80049Y-60609D01*
X80049Y-60550D01*
X80699Y-60550D01*
X80699Y-60599D01*
X80737Y-60691D01*
X80808Y-60761D01*
X80900Y-60799D01*
X80999Y-60800D01*
X81599Y-60800D01*
X81691Y-60762D01*
X81761Y-60691D01*
X81799Y-60599D01*
X81800Y-60500D01*
X81800Y-59900D01*
X81762Y-59808D01*
X81691Y-59738D01*
X81599Y-59700D01*
X81577Y-59700D01*
X81715Y-59561D01*
X81720Y-59550D01*
X84750Y-59550D01*
X84750Y-59549D01*
X84864Y-59527D01*
X84864Y-59527D01*
X84962Y-59462D01*
X85874Y-58550D01*
X86270Y-58550D01*
X86277Y-58565D01*
X86433Y-58722D01*
X86638Y-58807D01*
X86860Y-58807D01*
X86876Y-58800D01*
X87537Y-59462D01*
X87537Y-59462D01*
X87635Y-59527D01*
X87750Y-59550D01*
X96278Y-59550D01*
X96283Y-59561D01*
X96422Y-59699D01*
X96400Y-59699D01*
X96308Y-59737D01*
X96238Y-59808D01*
X96200Y-59900D01*
X96200Y-59950D01*
X87700Y-59950D01*
X87585Y-59972D01*
X87487Y-60037D01*
X86883Y-60642D01*
X86392Y-60642D01*
X86301Y-60680D01*
X86230Y-60750D01*
X86192Y-60842D01*
X86192Y-60942D01*
X86192Y-61557D01*
X86230Y-61648D01*
X86300Y-61719D01*
X86392Y-61757D01*
X86492Y-61757D01*
X87107Y-61757D01*
X87198Y-61719D01*
X87269Y-61649D01*
X87307Y-61557D01*
X87307Y-61457D01*
X87307Y-61066D01*
X87824Y-60550D01*
X96199Y-60550D01*
X96199Y-60599D01*
X96237Y-60691D01*
X96308Y-60761D01*
X96400Y-60799D01*
X96499Y-60800D01*
X97099Y-60800D01*
X97191Y-60762D01*
X97261Y-60691D01*
X97299Y-60599D01*
X97300Y-60500D01*
X97300Y-59900D01*
X97262Y-59808D01*
X97191Y-59738D01*
X97099Y-59700D01*
X97077Y-59700D01*
X97215Y-59561D01*
X97299Y-59359D01*
X97300Y-59141D01*
X97216Y-58938D01*
X97061Y-58784D01*
X96859Y-58700D01*
X96641Y-58699D01*
X96438Y-58783D01*
X96284Y-58938D01*
X96279Y-58950D01*
X87874Y-58950D01*
X87301Y-58376D01*
X87307Y-58361D01*
X87307Y-58139D01*
X87222Y-57934D01*
X87066Y-57777D01*
X86861Y-57692D01*
X86639Y-57692D01*
X86434Y-57777D01*
X86277Y-57933D01*
X86270Y-57950D01*
X85750Y-57950D01*
X85635Y-57972D01*
X85537Y-58037D01*
X84625Y-58950D01*
X81721Y-58950D01*
X81716Y-58938D01*
X81561Y-58784D01*
X81480Y-58750D01*
X81561Y-58716D01*
X81715Y-58561D01*
X81799Y-58359D01*
X81800Y-58141D01*
X81716Y-57938D01*
X81561Y-57784D01*
X81550Y-57779D01*
X81550Y-57750D01*
X81527Y-57635D01*
X81462Y-57537D01*
X81462Y-57537D01*
X80974Y-57050D01*
X80999Y-57050D01*
X81599Y-57050D01*
X81691Y-57012D01*
X81761Y-56941D01*
X81799Y-56849D01*
X81799Y-56800D01*
X91450Y-56800D01*
X91450Y-56799D01*
X91564Y-56777D01*
X91564Y-56777D01*
X91662Y-56712D01*
X91866Y-56507D01*
X92357Y-56507D01*
X92448Y-56469D01*
X92519Y-56399D01*
X92557Y-56307D01*
X92557Y-56207D01*
X92557Y-55816D01*
X93074Y-55300D01*
X96199Y-55300D01*
X96199Y-55349D01*
X96237Y-55441D01*
X96308Y-55511D01*
X96400Y-55549D01*
X96499Y-55550D01*
X97099Y-55550D01*
X97191Y-55512D01*
X97261Y-55441D01*
X97299Y-55349D01*
X97300Y-55250D01*
X97300Y-54650D01*
X97262Y-54558D01*
X97191Y-54488D01*
X97099Y-54450D01*
X97077Y-54450D01*
X97215Y-54311D01*
X97299Y-54109D01*
X97300Y-53891D01*
X97216Y-53688D01*
X97061Y-53534D01*
X96859Y-53450D01*
X96641Y-53449D01*
X96438Y-53533D01*
X96284Y-53688D01*
X96279Y-53700D01*
X93124Y-53700D01*
X92551Y-53126D01*
X92557Y-53111D01*
X92557Y-52889D01*
X92472Y-52684D01*
X92316Y-52527D01*
X92111Y-52442D01*
X91889Y-52442D01*
X91684Y-52527D01*
X91527Y-52683D01*
X91520Y-52700D01*
X85750Y-52700D01*
X85635Y-52722D01*
X85537Y-52787D01*
X83125Y-55200D01*
X81721Y-55200D01*
X81716Y-55188D01*
X81561Y-55034D01*
X81480Y-55000D01*
X81561Y-54966D01*
X81715Y-54811D01*
X81799Y-54609D01*
X81800Y-54391D01*
X81716Y-54188D01*
X81561Y-54034D01*
X81359Y-53950D01*
X81141Y-53949D01*
X80938Y-54033D01*
X80784Y-54188D01*
X80779Y-54200D01*
X80500Y-54200D01*
X80385Y-54222D01*
X80287Y-54287D01*
X80037Y-54537D01*
X79972Y-54635D01*
X79950Y-54750D01*
X79950Y-54922D01*
X79811Y-54784D01*
X79609Y-54700D01*
X79391Y-54699D01*
X79188Y-54783D01*
X79034Y-54938D01*
X78950Y-55140D01*
X78949Y-55358D01*
X79033Y-55561D01*
X79188Y-55715D01*
X79390Y-55799D01*
X79608Y-55800D01*
X79811Y-55716D01*
X79950Y-55577D01*
X79950Y-56450D01*
X75040Y-56450D01*
X75027Y-56385D01*
X74962Y-56287D01*
X74864Y-56222D01*
X74750Y-56200D01*
X74363Y-56200D01*
X74299Y-56104D01*
X74144Y-56000D01*
X74299Y-55895D01*
X74363Y-55800D01*
X75250Y-55800D01*
X75250Y-55799D01*
X75344Y-55781D01*
X75344Y-55781D01*
X75390Y-55799D01*
X75608Y-55800D01*
X75811Y-55716D01*
X75965Y-55561D01*
X76049Y-55359D01*
X76050Y-55141D01*
X75966Y-54938D01*
X75811Y-54784D01*
X75609Y-54700D01*
X75391Y-54699D01*
X75188Y-54783D01*
X75034Y-54938D01*
X74950Y-55140D01*
X74950Y-55200D01*
X74363Y-55200D01*
X74299Y-55104D01*
X74118Y-54982D01*
X73903Y-54940D01*
X73596Y-54940D01*
X73381Y-54982D01*
X73200Y-55104D01*
X73078Y-55285D01*
X73036Y-55500D01*
X73078Y-55714D01*
X73200Y-55895D01*
X73355Y-56000D01*
X73200Y-56104D01*
X73078Y-56285D01*
X73036Y-56500D01*
X73078Y-56714D01*
X73200Y-56895D01*
X73381Y-57017D01*
X73596Y-57060D01*
X73903Y-57060D01*
X74118Y-57017D01*
X74299Y-56895D01*
X74363Y-56800D01*
X74450Y-56800D01*
X74450Y-57931D01*
X74421Y-57785D01*
X74299Y-57604D01*
X74118Y-57482D01*
X73903Y-57440D01*
X73596Y-57440D01*
X73381Y-57482D01*
X73200Y-57604D01*
X73078Y-57785D01*
X73036Y-58000D01*
X73078Y-58214D01*
X73200Y-58395D01*
X73355Y-58500D01*
X73200Y-58604D01*
X73078Y-58785D01*
X73036Y-59000D01*
X73078Y-59214D01*
X73200Y-59395D01*
X73381Y-59517D01*
X73596Y-59560D01*
X73903Y-59560D01*
X74118Y-59517D01*
X74299Y-59395D01*
X74363Y-59300D01*
X74450Y-59300D01*
X74450Y-60431D01*
X74421Y-60285D01*
X74299Y-60104D01*
X74118Y-59982D01*
X73903Y-59940D01*
X73596Y-59940D01*
X73381Y-59982D01*
X73200Y-60104D01*
X73078Y-60285D01*
X73036Y-60500D01*
X73078Y-60714D01*
X73200Y-60895D01*
X73355Y-61000D01*
X73200Y-61104D01*
X73078Y-61285D01*
X73036Y-61500D01*
X73078Y-61714D01*
X73200Y-61895D01*
X73381Y-62017D01*
X73596Y-62060D01*
X73903Y-62060D01*
X74118Y-62017D01*
X74299Y-61895D01*
X74363Y-61800D01*
X74750Y-61800D01*
X80778Y-61800D01*
X80783Y-61811D01*
X80938Y-61965D01*
X81019Y-61999D01*
X80938Y-62033D01*
X80784Y-62188D01*
X80700Y-62390D01*
X80699Y-62608D01*
X80783Y-62811D01*
X80922Y-62949D01*
X80900Y-62949D01*
X80808Y-62987D01*
X80738Y-63058D01*
X80700Y-63150D01*
X80699Y-63249D01*
X80699Y-63849D01*
X80737Y-63941D01*
X80808Y-64011D01*
X80900Y-64049D01*
X80999Y-64050D01*
X81599Y-64050D01*
X81691Y-64012D01*
X81761Y-63941D01*
X81799Y-63849D01*
X81800Y-63750D01*
X81800Y-63150D01*
X81762Y-63058D01*
X81691Y-62988D01*
X81599Y-62950D01*
X81577Y-62950D01*
X81715Y-62811D01*
X81720Y-62800D01*
X84125Y-62800D01*
X85037Y-63712D01*
X85037Y-63712D01*
X85135Y-63777D01*
X85250Y-63800D01*
X91520Y-63800D01*
X91527Y-63815D01*
X91683Y-63972D01*
X91888Y-64057D01*
X92110Y-64057D01*
X92126Y-64050D01*
X92787Y-64712D01*
X92787Y-64712D01*
X92885Y-64777D01*
X93000Y-64800D01*
X96278Y-64800D01*
X96283Y-64811D01*
X96422Y-64949D01*
X96400Y-64949D01*
X96308Y-64987D01*
X96238Y-65058D01*
X96200Y-65150D01*
X96200Y-65200D01*
X92950Y-65200D01*
X92835Y-65222D01*
X92737Y-65287D01*
X92133Y-65892D01*
X91642Y-65892D01*
X91551Y-65930D01*
X91480Y-66000D01*
X91442Y-66092D01*
X91442Y-66192D01*
X91442Y-66807D01*
X91480Y-66898D01*
X91550Y-66969D01*
X91642Y-67007D01*
X91742Y-67007D01*
X92357Y-67007D01*
X92448Y-66969D01*
X92519Y-66899D01*
X92557Y-66807D01*
X92557Y-66707D01*
X92557Y-66316D01*
X93074Y-65800D01*
X96199Y-65800D01*
X96199Y-65849D01*
X96237Y-65941D01*
X96308Y-66011D01*
X96400Y-66049D01*
X96499Y-66050D01*
X97099Y-66050D01*
X97191Y-66012D01*
X97261Y-65941D01*
X97299Y-65849D01*
X97300Y-65750D01*
X97300Y-65150D01*
X97262Y-65058D01*
X97191Y-64988D01*
X97099Y-64950D01*
X97077Y-64950D01*
X97215Y-64811D01*
X97299Y-64609D01*
X97300Y-64391D01*
X97300Y-68450D01*
X70450Y-68450D01*
X70450Y-62010D01*
X70450Y-61390D01*
X70433Y-61349D01*
X70433Y-60386D01*
X70384Y-60300D01*
X69800Y-60300D01*
X69800Y-60810D01*
X69940Y-60810D01*
X70150Y-60748D01*
X70321Y-60610D01*
X70426Y-60418D01*
X70433Y-60386D01*
X70433Y-61349D01*
X70412Y-61298D01*
X70341Y-61228D01*
X70249Y-61190D01*
X70150Y-61189D01*
X69700Y-61189D01*
X69700Y-60810D01*
X69700Y-60300D01*
X69115Y-60300D01*
X69066Y-60386D01*
X69073Y-60418D01*
X69178Y-60610D01*
X69349Y-60748D01*
X69560Y-60810D01*
X69700Y-60810D01*
X69700Y-61189D01*
X69250Y-61189D01*
X69158Y-61227D01*
X69088Y-61298D01*
X69050Y-61390D01*
X69049Y-61450D01*
X66550Y-61450D01*
X66550Y-59221D01*
X66561Y-59216D01*
X66715Y-59061D01*
X66799Y-58859D01*
X66800Y-58641D01*
X66716Y-58438D01*
X66561Y-58284D01*
X66480Y-58250D01*
X66561Y-58216D01*
X66715Y-58061D01*
X66720Y-58050D01*
X67450Y-58050D01*
X67450Y-59250D01*
X67472Y-59364D01*
X67537Y-59462D01*
X67635Y-59527D01*
X67750Y-59550D01*
X69049Y-59550D01*
X69049Y-59609D01*
X69087Y-59701D01*
X69158Y-59771D01*
X69250Y-59809D01*
X69277Y-59809D01*
X69178Y-59889D01*
X69073Y-60081D01*
X69066Y-60113D01*
X69115Y-60200D01*
X69700Y-60200D01*
X69700Y-60192D01*
X69800Y-60192D01*
X69800Y-60200D01*
X70384Y-60200D01*
X70433Y-60113D01*
X70426Y-60081D01*
X70321Y-59889D01*
X70222Y-59810D01*
X70249Y-59810D01*
X70341Y-59772D01*
X70411Y-59701D01*
X70449Y-59609D01*
X70450Y-59510D01*
X70450Y-58890D01*
X70433Y-58849D01*
X70433Y-57886D01*
X70384Y-57800D01*
X69800Y-57800D01*
X69800Y-58310D01*
X69940Y-58310D01*
X70150Y-58248D01*
X70321Y-58110D01*
X70426Y-57918D01*
X70433Y-57886D01*
X70433Y-58849D01*
X70412Y-58798D01*
X70341Y-58728D01*
X70249Y-58690D01*
X70150Y-58689D01*
X69700Y-58689D01*
X69700Y-58310D01*
X69700Y-57800D01*
X69115Y-57800D01*
X69066Y-57886D01*
X69073Y-57918D01*
X69178Y-58110D01*
X69349Y-58248D01*
X69560Y-58310D01*
X69700Y-58310D01*
X69700Y-58689D01*
X69250Y-58689D01*
X69158Y-58727D01*
X69088Y-58798D01*
X69050Y-58890D01*
X69049Y-58950D01*
X68050Y-58950D01*
X68050Y-57750D01*
X68027Y-57635D01*
X67962Y-57537D01*
X67864Y-57472D01*
X67750Y-57450D01*
X66721Y-57450D01*
X66716Y-57438D01*
X66561Y-57284D01*
X66480Y-57250D01*
X66561Y-57216D01*
X66715Y-57061D01*
X66720Y-57050D01*
X69049Y-57050D01*
X69049Y-57109D01*
X69087Y-57201D01*
X69158Y-57271D01*
X69250Y-57309D01*
X69277Y-57309D01*
X69178Y-57389D01*
X69073Y-57581D01*
X69066Y-57613D01*
X69115Y-57700D01*
X69700Y-57700D01*
X69700Y-57692D01*
X69800Y-57692D01*
X69800Y-57700D01*
X70384Y-57700D01*
X70433Y-57613D01*
X70426Y-57581D01*
X70321Y-57389D01*
X70222Y-57310D01*
X70249Y-57310D01*
X70341Y-57272D01*
X70411Y-57201D01*
X70449Y-57109D01*
X70450Y-57010D01*
X70450Y-56390D01*
X70433Y-56349D01*
X70433Y-55386D01*
X70433Y-55113D01*
X70426Y-55081D01*
X70321Y-54889D01*
X70150Y-54751D01*
X69940Y-54690D01*
X69800Y-54690D01*
X69800Y-55200D01*
X70384Y-55200D01*
X70433Y-55113D01*
X70433Y-55386D01*
X70384Y-55300D01*
X69800Y-55300D01*
X69800Y-55810D01*
X69940Y-55810D01*
X70150Y-55748D01*
X70321Y-55610D01*
X70426Y-55418D01*
X70433Y-55386D01*
X70433Y-56349D01*
X70412Y-56298D01*
X70341Y-56228D01*
X70249Y-56190D01*
X70150Y-56189D01*
X69700Y-56189D01*
X69700Y-55810D01*
X69700Y-55300D01*
X69700Y-55200D01*
X69700Y-54690D01*
X69560Y-54690D01*
X69349Y-54751D01*
X69178Y-54889D01*
X69073Y-55081D01*
X69066Y-55113D01*
X69115Y-55200D01*
X69700Y-55200D01*
X69700Y-55300D01*
X69115Y-55300D01*
X69066Y-55386D01*
X69073Y-55418D01*
X69178Y-55610D01*
X69349Y-55748D01*
X69560Y-55810D01*
X69700Y-55810D01*
X69700Y-56189D01*
X69250Y-56189D01*
X69158Y-56227D01*
X69088Y-56298D01*
X69050Y-56390D01*
X69049Y-56450D01*
X66721Y-56450D01*
X66716Y-56438D01*
X66561Y-56284D01*
X66359Y-56200D01*
X66141Y-56199D01*
X65938Y-56283D01*
X65784Y-56438D01*
X65700Y-56640D01*
X65699Y-56858D01*
X65783Y-57061D01*
X65938Y-57215D01*
X66019Y-57249D01*
X65938Y-57283D01*
X65784Y-57438D01*
X65700Y-57640D01*
X65699Y-57858D01*
X65783Y-58061D01*
X65938Y-58215D01*
X66019Y-58249D01*
X65938Y-58283D01*
X65784Y-58438D01*
X65700Y-58640D01*
X65699Y-58858D01*
X65783Y-59061D01*
X65938Y-59215D01*
X65950Y-59220D01*
X65950Y-61750D01*
X65972Y-61864D01*
X66037Y-61962D01*
X66135Y-62027D01*
X66250Y-62050D01*
X69049Y-62050D01*
X69049Y-62109D01*
X69087Y-62201D01*
X69158Y-62271D01*
X69250Y-62309D01*
X69349Y-62310D01*
X70249Y-62310D01*
X70341Y-62272D01*
X70411Y-62201D01*
X70449Y-62109D01*
X70450Y-62010D01*
X70450Y-68450D01*
X62800Y-68450D01*
X62800Y-58641D01*
X62716Y-58438D01*
X62561Y-58284D01*
X62480Y-58250D01*
X62561Y-58216D01*
X62715Y-58061D01*
X62799Y-57859D01*
X62800Y-57641D01*
X62716Y-57438D01*
X62561Y-57284D01*
X62480Y-57250D01*
X62561Y-57216D01*
X62715Y-57061D01*
X62799Y-56859D01*
X62800Y-56641D01*
X62716Y-56438D01*
X62561Y-56284D01*
X62359Y-56200D01*
X62141Y-56199D01*
X61938Y-56283D01*
X61784Y-56438D01*
X61779Y-56450D01*
X60721Y-56450D01*
X60716Y-56438D01*
X60561Y-56284D01*
X60359Y-56200D01*
X60141Y-56199D01*
X59938Y-56283D01*
X59784Y-56438D01*
X59700Y-56640D01*
X59699Y-56858D01*
X59783Y-57061D01*
X59938Y-57215D01*
X60019Y-57249D01*
X59938Y-57283D01*
X59784Y-57438D01*
X59700Y-57640D01*
X59699Y-57858D01*
X59783Y-58061D01*
X59938Y-58215D01*
X60019Y-58249D01*
X59938Y-58283D01*
X59784Y-58438D01*
X59700Y-58640D01*
X59699Y-58858D01*
X59783Y-59061D01*
X59922Y-59200D01*
X59900Y-59200D01*
X59808Y-59238D01*
X59737Y-59308D01*
X59699Y-59400D01*
X59700Y-59637D01*
X59762Y-59700D01*
X60200Y-59700D01*
X60200Y-59692D01*
X60300Y-59692D01*
X60300Y-59700D01*
X60737Y-59700D01*
X60800Y-59637D01*
X60800Y-59400D01*
X60762Y-59308D01*
X60691Y-59238D01*
X60599Y-59200D01*
X60577Y-59200D01*
X60715Y-59061D01*
X60720Y-59050D01*
X61778Y-59050D01*
X61783Y-59061D01*
X61938Y-59215D01*
X62140Y-59299D01*
X62358Y-59300D01*
X62561Y-59216D01*
X62715Y-59061D01*
X62799Y-58859D01*
X62800Y-58641D01*
X62800Y-68450D01*
X60800Y-68450D01*
X60800Y-63391D01*
X60716Y-63188D01*
X60561Y-63034D01*
X60480Y-63000D01*
X60561Y-62966D01*
X60715Y-62811D01*
X60799Y-62609D01*
X60800Y-62391D01*
X60800Y-62390D01*
X60800Y-60099D01*
X60800Y-59862D01*
X60737Y-59800D01*
X60300Y-59800D01*
X60300Y-60237D01*
X60362Y-60300D01*
X60500Y-60300D01*
X60599Y-60299D01*
X60691Y-60261D01*
X60762Y-60191D01*
X60800Y-60099D01*
X60800Y-62390D01*
X60716Y-62188D01*
X60561Y-62034D01*
X60359Y-61950D01*
X60200Y-61949D01*
X60200Y-60237D01*
X60200Y-59800D01*
X59762Y-59800D01*
X59700Y-59862D01*
X59699Y-60099D01*
X59737Y-60191D01*
X59808Y-60261D01*
X59900Y-60299D01*
X59999Y-60300D01*
X60137Y-60300D01*
X60200Y-60237D01*
X60200Y-61949D01*
X60141Y-61949D01*
X59938Y-62033D01*
X59784Y-62188D01*
X59700Y-62390D01*
X59699Y-62608D01*
X59783Y-62811D01*
X59938Y-62965D01*
X60019Y-62999D01*
X59938Y-63033D01*
X59784Y-63188D01*
X59700Y-63390D01*
X59699Y-63608D01*
X59783Y-63811D01*
X59922Y-63949D01*
X59900Y-63949D01*
X59808Y-63987D01*
X59738Y-64058D01*
X59700Y-64150D01*
X59699Y-64249D01*
X59699Y-64849D01*
X59737Y-64941D01*
X59808Y-65011D01*
X59900Y-65049D01*
X59999Y-65050D01*
X60599Y-65050D01*
X60691Y-65012D01*
X60761Y-64941D01*
X60799Y-64849D01*
X60800Y-64750D01*
X60800Y-64150D01*
X60762Y-64058D01*
X60691Y-63988D01*
X60599Y-63950D01*
X60577Y-63950D01*
X60715Y-63811D01*
X60799Y-63609D01*
X60800Y-63391D01*
X60800Y-68450D01*
X58550Y-68450D01*
X58550Y-49550D01*
X97950Y-49550D01*
X97950Y-68450D01*
M02*
