M48
METRIC,TZ
T1C0.813
T2C1.016
T3C1.041
T4C1.260
%
G90
G05
T1
X157420Y-140500
X157420Y-145500
X157920Y-150500
X167580Y-140500
X167580Y-145500
X168080Y-150500
X171420Y-140480
X171420Y-143020
X171420Y-145980
X171420Y-148520
X171420Y-151480
X171420Y-154020
X181580Y-140480
X181580Y-143020
X181580Y-145980
X181580Y-148520
X181580Y-151480
X181580Y-154020
X184920Y-140500
X185420Y-146000
X185420Y-151500
X195080Y-140500
X195580Y-146000
X195580Y-151500
T2
X152908Y-159338
X152908Y-164338
X152908Y-169338
X153035Y-140455
X153035Y-145455
X153035Y-150455
X153035Y-155455
X236500Y-134500
X236500Y-139500
X236500Y-148500
X236500Y-153500
X236500Y-161000
X236500Y-166000
T3
X211500Y-146500
X211500Y-153993
X225000Y-133000
X225000Y-140493
X225000Y-160000
X225000Y-167493
T4
X200000Y-130500
X200000Y-135500
X200000Y-140500
X200000Y-143500
X200000Y-148500
X200000Y-153500
X200000Y-157000
X200000Y-162000
X200000Y-167000
T0
M30
