G04 #@! TF.FileFunction,Copper,L1,Top,Signal*
%FSLAX46Y46*%
G04 Gerber Fmt 4.6, Leading zero omitted, Abs format (unit mm)*
G04 Created by KiCad (PCBNEW 4.0.7-e1-6374~58~ubuntu14.04.1) date Fri Aug 18 20:16:30 2017*
%MOMM*%
%LPD*%
G01*
G04 APERTURE LIST*
%ADD10C,0.100000*%
%ADD11C,1.524000*%
%ADD12R,1.562100X1.562100*%
%ADD13C,1.562100*%
%ADD14R,1.524000X1.524000*%
%ADD15R,1.750000X1.750000*%
%ADD16C,1.750000*%
%ADD17R,2.286000X1.574800*%
%ADD18O,2.286000X1.574800*%
%ADD19C,1.800000*%
%ADD20C,2.000000*%
%ADD21C,0.254000*%
G04 APERTURE END LIST*
D10*
D11*
X167580000Y-140500000D03*
X157420000Y-140500000D03*
X167580000Y-145500000D03*
X157420000Y-145500000D03*
X168080000Y-150500000D03*
X157920000Y-150500000D03*
X184920000Y-140500000D03*
X195080000Y-140500000D03*
X185420000Y-146000000D03*
X195580000Y-146000000D03*
X185420000Y-151500000D03*
X195580000Y-151500000D03*
D12*
X225000000Y-140493000D03*
D13*
X225000000Y-133000000D03*
D12*
X211500000Y-153993000D03*
D13*
X211500000Y-146500000D03*
D12*
X225000000Y-167493000D03*
D13*
X225000000Y-160000000D03*
D14*
X236500000Y-166000000D03*
D11*
X236500000Y-161000000D03*
D14*
X236500000Y-139500000D03*
D11*
X236500000Y-134500000D03*
D14*
X236500000Y-153500000D03*
D11*
X236500000Y-148500000D03*
D14*
X153035000Y-155455000D03*
D11*
X153035000Y-150455000D03*
X153035000Y-145455000D03*
X153035000Y-140455000D03*
D14*
X152908000Y-169338000D03*
D11*
X152908000Y-164338000D03*
X152908000Y-159338000D03*
D15*
X200000000Y-140500000D03*
D16*
X200000000Y-135500000D03*
X200000000Y-130500000D03*
D15*
X200000000Y-153500000D03*
D16*
X200000000Y-148500000D03*
X200000000Y-143500000D03*
D15*
X200000000Y-167000000D03*
D16*
X200000000Y-162000000D03*
X200000000Y-157000000D03*
D17*
X171420000Y-154020000D03*
D18*
X171420000Y-151480000D03*
X181580000Y-151480000D03*
X181580000Y-154020000D03*
D17*
X171420000Y-148520000D03*
D18*
X171420000Y-145980000D03*
X181580000Y-145980000D03*
X181580000Y-148520000D03*
D17*
X171420000Y-143020000D03*
D18*
X171420000Y-140480000D03*
X181580000Y-140480000D03*
X181580000Y-143020000D03*
D19*
X211500000Y-146500000D02*
X202000000Y-146500000D01*
X202000000Y-146500000D02*
X200000000Y-148500000D01*
X236500000Y-148500000D02*
X213500000Y-148500000D01*
X213500000Y-148500000D02*
X211500000Y-146500000D01*
X181580000Y-151480000D02*
X185400000Y-151480000D01*
D20*
X185400000Y-151480000D02*
X185420000Y-151500000D01*
D19*
X195580000Y-151500000D02*
X195580000Y-167000000D01*
X200000000Y-167000000D02*
X195580000Y-167000000D01*
X195580000Y-167000000D02*
X155570000Y-167000000D01*
X155570000Y-167000000D02*
X152908000Y-164338000D01*
X200000000Y-167000000D02*
X224507000Y-167000000D01*
X224507000Y-167000000D02*
X225000000Y-167493000D01*
X225000000Y-167493000D02*
X235007000Y-167493000D01*
X235007000Y-167493000D02*
X236500000Y-166000000D01*
X211500000Y-153993000D02*
X236007000Y-153993000D01*
X236007000Y-153993000D02*
X236500000Y-153500000D01*
X200000000Y-153500000D02*
X211007000Y-153500000D01*
X211007000Y-153500000D02*
X211500000Y-153993000D01*
D20*
X195580000Y-151500000D02*
X198000000Y-151500000D01*
X198000000Y-151500000D02*
X200000000Y-153500000D01*
X195580000Y-146000000D02*
X195580000Y-151500000D01*
D19*
X225000000Y-140493000D02*
X235507000Y-140493000D01*
X235507000Y-140493000D02*
X236500000Y-139500000D01*
X200000000Y-140500000D02*
X224993000Y-140500000D01*
X224993000Y-140500000D02*
X225000000Y-140493000D01*
X195080000Y-140500000D02*
X195080000Y-137580000D01*
X150000000Y-166430000D02*
X152908000Y-169338000D01*
X150000000Y-139000000D02*
X150000000Y-166430000D01*
X151500000Y-137500000D02*
X150000000Y-139000000D01*
X195000000Y-137500000D02*
X151500000Y-137500000D01*
X195080000Y-137580000D02*
X195000000Y-137500000D01*
X195080000Y-140500000D02*
X200000000Y-140500000D01*
D20*
X200007000Y-140493000D02*
X200000000Y-140500000D01*
D19*
X153035000Y-150455000D02*
X157875000Y-150455000D01*
D20*
X157875000Y-150455000D02*
X157920000Y-150500000D01*
D19*
X153035000Y-145455000D02*
X157375000Y-145455000D01*
D20*
X157375000Y-145455000D02*
X157420000Y-145500000D01*
D19*
X153035000Y-140455000D02*
X157375000Y-140455000D01*
D20*
X157375000Y-140455000D02*
X157420000Y-140500000D01*
D19*
X225000000Y-160000000D02*
X202000000Y-160000000D01*
X202000000Y-160000000D02*
X200000000Y-162000000D01*
X236500000Y-161000000D02*
X226000000Y-161000000D01*
X226000000Y-161000000D02*
X225000000Y-160000000D01*
X225000000Y-133000000D02*
X235000000Y-133000000D01*
X235000000Y-133000000D02*
X236500000Y-134500000D01*
X200000000Y-135500000D02*
X222500000Y-135500000D01*
X222500000Y-135500000D02*
X225000000Y-133000000D01*
X167580000Y-145500000D02*
X170940000Y-145500000D01*
X170940000Y-145500000D02*
X171420000Y-145980000D01*
X168080000Y-150500000D02*
X170440000Y-150500000D01*
X170440000Y-150500000D02*
X171420000Y-151480000D01*
X171420000Y-140480000D02*
X167600000Y-140480000D01*
D20*
X167600000Y-140480000D02*
X167580000Y-140500000D01*
X181580000Y-140480000D02*
X184900000Y-140480000D01*
X184900000Y-140480000D02*
X184920000Y-140500000D01*
D19*
X181580000Y-145980000D02*
X185400000Y-145980000D01*
D20*
X185400000Y-145980000D02*
X185420000Y-146000000D01*
D21*
G36*
X238373000Y-173373000D02*
X148127000Y-173373000D01*
X148127000Y-139000000D01*
X148465000Y-139000000D01*
X148465000Y-166430000D01*
X148581845Y-167017419D01*
X148914591Y-167515409D01*
X151498560Y-170099378D01*
X151498560Y-170100000D01*
X151542838Y-170335317D01*
X151681910Y-170551441D01*
X151894110Y-170696431D01*
X152146000Y-170747440D01*
X152307538Y-170747440D01*
X152320581Y-170756155D01*
X152908000Y-170873000D01*
X153495419Y-170756155D01*
X153508462Y-170747440D01*
X153670000Y-170747440D01*
X153905317Y-170703162D01*
X154121441Y-170564090D01*
X154266431Y-170351890D01*
X154317440Y-170100000D01*
X154317440Y-169938462D01*
X154326155Y-169925419D01*
X154443000Y-169338000D01*
X154326155Y-168750581D01*
X154317440Y-168737538D01*
X154317440Y-168576000D01*
X154273162Y-168340683D01*
X154134090Y-168124559D01*
X153921890Y-167979569D01*
X153670000Y-167928560D01*
X153669378Y-167928560D01*
X151535000Y-165794182D01*
X151535000Y-164992998D01*
X151822591Y-165423409D01*
X154484591Y-168085409D01*
X154982581Y-168418155D01*
X155570000Y-168535000D01*
X223632282Y-168535000D01*
X223754860Y-168725491D01*
X223967060Y-168870481D01*
X224218950Y-168921490D01*
X224464539Y-168921490D01*
X225000000Y-169028000D01*
X235007000Y-169028000D01*
X235594419Y-168911155D01*
X236092409Y-168578409D01*
X237261378Y-167409440D01*
X237262000Y-167409440D01*
X237497317Y-167365162D01*
X237713441Y-167226090D01*
X237858431Y-167013890D01*
X237909440Y-166762000D01*
X237909440Y-166600462D01*
X237918155Y-166587419D01*
X238035000Y-166000000D01*
X237918155Y-165412581D01*
X237909440Y-165399538D01*
X237909440Y-165238000D01*
X237865162Y-165002683D01*
X237726090Y-164786559D01*
X237513890Y-164641569D01*
X237262000Y-164590560D01*
X237100462Y-164590560D01*
X237087419Y-164581845D01*
X236500000Y-164465000D01*
X235912581Y-164581845D01*
X235899538Y-164590560D01*
X235738000Y-164590560D01*
X235502683Y-164634838D01*
X235286559Y-164773910D01*
X235141569Y-164986110D01*
X235090560Y-165238000D01*
X235090560Y-165238622D01*
X234371182Y-165958000D01*
X225635818Y-165958000D01*
X225592409Y-165914591D01*
X225094419Y-165581845D01*
X224507000Y-165465000D01*
X197115000Y-165465000D01*
X197115000Y-162000000D01*
X198465000Y-162000000D01*
X198489890Y-162125129D01*
X198489738Y-162299040D01*
X198556736Y-162461187D01*
X198581845Y-162587419D01*
X198652726Y-162693500D01*
X198719138Y-162854229D01*
X198843085Y-162978393D01*
X198914591Y-163085409D01*
X199020671Y-163156290D01*
X199143537Y-163279370D01*
X199305567Y-163346651D01*
X199412581Y-163418155D01*
X199537709Y-163443045D01*
X199698325Y-163509738D01*
X199873769Y-163509891D01*
X200000000Y-163535000D01*
X200125129Y-163510110D01*
X200299040Y-163510262D01*
X200461187Y-163443264D01*
X200587419Y-163418155D01*
X200693500Y-163347274D01*
X200854229Y-163280862D01*
X200978393Y-163156915D01*
X201085409Y-163085409D01*
X202635818Y-161535000D01*
X224364182Y-161535000D01*
X224914591Y-162085409D01*
X225412581Y-162418155D01*
X226000000Y-162535000D01*
X236500000Y-162535000D01*
X237087419Y-162418155D01*
X237585409Y-162085409D01*
X237918155Y-161587419D01*
X238035000Y-161000000D01*
X237918155Y-160412581D01*
X237585409Y-159914591D01*
X237087419Y-159581845D01*
X236500000Y-159465000D01*
X226635818Y-159465000D01*
X226085409Y-158914591D01*
X225587419Y-158581845D01*
X225000000Y-158465000D01*
X202000000Y-158465000D01*
X201412581Y-158581845D01*
X200914591Y-158914591D01*
X198914591Y-160914591D01*
X198843710Y-161020671D01*
X198720630Y-161143537D01*
X198653349Y-161305567D01*
X198581845Y-161412581D01*
X198556955Y-161537709D01*
X198490262Y-161698325D01*
X198490109Y-161873769D01*
X198465000Y-162000000D01*
X197115000Y-162000000D01*
X197115000Y-158062060D01*
X199117545Y-158062060D01*
X199200884Y-158315953D01*
X199765306Y-158521590D01*
X200365458Y-158495579D01*
X200799116Y-158315953D01*
X200882455Y-158062060D01*
X200000000Y-157179605D01*
X199117545Y-158062060D01*
X197115000Y-158062060D01*
X197115000Y-156765306D01*
X198478410Y-156765306D01*
X198504421Y-157365458D01*
X198684047Y-157799116D01*
X198937940Y-157882455D01*
X199820395Y-157000000D01*
X200179605Y-157000000D01*
X201062060Y-157882455D01*
X201315953Y-157799116D01*
X201521590Y-157234694D01*
X201495579Y-156634542D01*
X201315953Y-156200884D01*
X201062060Y-156117545D01*
X200179605Y-157000000D01*
X199820395Y-157000000D01*
X198937940Y-156117545D01*
X198684047Y-156200884D01*
X198478410Y-156765306D01*
X197115000Y-156765306D01*
X197115000Y-155937940D01*
X199117545Y-155937940D01*
X200000000Y-156820395D01*
X200882455Y-155937940D01*
X200799116Y-155684047D01*
X200234694Y-155478410D01*
X199634542Y-155504421D01*
X199200884Y-155684047D01*
X199117545Y-155937940D01*
X197115000Y-155937940D01*
X197115000Y-153135000D01*
X197322760Y-153135000D01*
X198477560Y-154289799D01*
X198477560Y-154375000D01*
X198521838Y-154610317D01*
X198660910Y-154826441D01*
X198873110Y-154971431D01*
X199125000Y-155022440D01*
X199434122Y-155022440D01*
X200000000Y-155135000D01*
X200502734Y-155035000D01*
X210132282Y-155035000D01*
X210254860Y-155225491D01*
X210467060Y-155370481D01*
X210718950Y-155421490D01*
X210964539Y-155421490D01*
X211500000Y-155528000D01*
X236007000Y-155528000D01*
X236594419Y-155411155D01*
X237092409Y-155078409D01*
X237261378Y-154909440D01*
X237262000Y-154909440D01*
X237497317Y-154865162D01*
X237713441Y-154726090D01*
X237858431Y-154513890D01*
X237909440Y-154262000D01*
X237909440Y-154100462D01*
X237918155Y-154087419D01*
X238035000Y-153500000D01*
X237918155Y-152912581D01*
X237909440Y-152899538D01*
X237909440Y-152738000D01*
X237865162Y-152502683D01*
X237726090Y-152286559D01*
X237513890Y-152141569D01*
X237262000Y-152090560D01*
X237100462Y-152090560D01*
X237087419Y-152081845D01*
X236500000Y-151965000D01*
X235912581Y-152081845D01*
X235899538Y-152090560D01*
X235738000Y-152090560D01*
X235502683Y-152134838D01*
X235286559Y-152273910D01*
X235160776Y-152458000D01*
X212135818Y-152458000D01*
X212092409Y-152414591D01*
X211594419Y-152081845D01*
X211007000Y-151965000D01*
X200777239Y-151965000D01*
X199156120Y-150343880D01*
X198625688Y-149989457D01*
X198000000Y-149864999D01*
X197999995Y-149865000D01*
X197215000Y-149865000D01*
X197215000Y-148500000D01*
X198465000Y-148500000D01*
X198489890Y-148625129D01*
X198489738Y-148799040D01*
X198556736Y-148961187D01*
X198581845Y-149087419D01*
X198652726Y-149193500D01*
X198719138Y-149354229D01*
X198843085Y-149478393D01*
X198914591Y-149585409D01*
X199020671Y-149656290D01*
X199143537Y-149779370D01*
X199305567Y-149846651D01*
X199412581Y-149918155D01*
X199537709Y-149943045D01*
X199698325Y-150009738D01*
X199873769Y-150009891D01*
X200000000Y-150035000D01*
X200125129Y-150010110D01*
X200299040Y-150010262D01*
X200461187Y-149943264D01*
X200587419Y-149918155D01*
X200693500Y-149847274D01*
X200854229Y-149780862D01*
X200978393Y-149656915D01*
X201085409Y-149585409D01*
X202635818Y-148035000D01*
X210864182Y-148035000D01*
X212414591Y-149585409D01*
X212912581Y-149918155D01*
X213500000Y-150035000D01*
X236500000Y-150035000D01*
X237087419Y-149918155D01*
X237585409Y-149585409D01*
X237918155Y-149087419D01*
X238035000Y-148500000D01*
X237918155Y-147912581D01*
X237585409Y-147414591D01*
X237087419Y-147081845D01*
X236500000Y-146965000D01*
X214135818Y-146965000D01*
X212585409Y-145414591D01*
X212087419Y-145081845D01*
X211500000Y-144965000D01*
X202000000Y-144965000D01*
X201412581Y-145081845D01*
X200914591Y-145414591D01*
X198914591Y-147414591D01*
X198843710Y-147520671D01*
X198720630Y-147643537D01*
X198653349Y-147805567D01*
X198581845Y-147912581D01*
X198556955Y-148037709D01*
X198490262Y-148198325D01*
X198490109Y-148373769D01*
X198465000Y-148500000D01*
X197215000Y-148500000D01*
X197215000Y-146000000D01*
X197090543Y-145374313D01*
X196736120Y-144843880D01*
X196314346Y-144562060D01*
X199117545Y-144562060D01*
X199200884Y-144815953D01*
X199765306Y-145021590D01*
X200365458Y-144995579D01*
X200799116Y-144815953D01*
X200882455Y-144562060D01*
X200000000Y-143679605D01*
X199117545Y-144562060D01*
X196314346Y-144562060D01*
X196205687Y-144489457D01*
X195580000Y-144365000D01*
X194954313Y-144489457D01*
X194423880Y-144843880D01*
X194069457Y-145374313D01*
X193945000Y-146000000D01*
X193945000Y-151500000D01*
X194045000Y-152002733D01*
X194045000Y-165465000D01*
X156205818Y-165465000D01*
X153993409Y-163252591D01*
X153495419Y-162919845D01*
X152908000Y-162803000D01*
X152320581Y-162919845D01*
X151822591Y-163252591D01*
X151535000Y-163683002D01*
X151535000Y-160318213D01*
X152107392Y-160318213D01*
X152176857Y-160560397D01*
X152700302Y-160747144D01*
X153255368Y-160719362D01*
X153639143Y-160560397D01*
X153708608Y-160318213D01*
X152908000Y-159517605D01*
X152107392Y-160318213D01*
X151535000Y-160318213D01*
X151535000Y-159705556D01*
X151685603Y-160069143D01*
X151927787Y-160138608D01*
X152728395Y-159338000D01*
X153087605Y-159338000D01*
X153888213Y-160138608D01*
X154130397Y-160069143D01*
X154317144Y-159545698D01*
X154289362Y-158990632D01*
X154130397Y-158606857D01*
X153888213Y-158537392D01*
X153087605Y-159338000D01*
X152728395Y-159338000D01*
X151927787Y-158537392D01*
X151685603Y-158606857D01*
X151535000Y-159028992D01*
X151535000Y-158357787D01*
X152107392Y-158357787D01*
X152908000Y-159158395D01*
X153708608Y-158357787D01*
X153639143Y-158115603D01*
X153115698Y-157928856D01*
X152560632Y-157956638D01*
X152176857Y-158115603D01*
X152107392Y-158357787D01*
X151535000Y-158357787D01*
X151535000Y-154693000D01*
X151625560Y-154693000D01*
X151625560Y-156217000D01*
X151669838Y-156452317D01*
X151808910Y-156668441D01*
X152021110Y-156813431D01*
X152273000Y-156864440D01*
X153797000Y-156864440D01*
X154032317Y-156820162D01*
X154248441Y-156681090D01*
X154393431Y-156468890D01*
X154444440Y-156217000D01*
X154444440Y-154693000D01*
X154400162Y-154457683D01*
X154261090Y-154241559D01*
X154048890Y-154096569D01*
X153797000Y-154045560D01*
X152273000Y-154045560D01*
X152037683Y-154089838D01*
X151821559Y-154228910D01*
X151676569Y-154441110D01*
X151625560Y-154693000D01*
X151535000Y-154693000D01*
X151535000Y-150630957D01*
X151616845Y-151042419D01*
X151949591Y-151540409D01*
X152447581Y-151873155D01*
X153035000Y-151990000D01*
X157263568Y-151990000D01*
X157294313Y-152010543D01*
X157920000Y-152135001D01*
X158545688Y-152010543D01*
X159076120Y-151656120D01*
X159430543Y-151125688D01*
X159555001Y-150500000D01*
X159430543Y-149874313D01*
X159076120Y-149343881D01*
X159031120Y-149298880D01*
X158500688Y-148944457D01*
X157875000Y-148819999D01*
X157372265Y-148920000D01*
X153035000Y-148920000D01*
X152447581Y-149036845D01*
X151949591Y-149369591D01*
X151616845Y-149867581D01*
X151535000Y-150279043D01*
X151535000Y-145630957D01*
X151616845Y-146042419D01*
X151949591Y-146540409D01*
X152447581Y-146873155D01*
X153035000Y-146990000D01*
X156763568Y-146990000D01*
X156794313Y-147010543D01*
X157420000Y-147135001D01*
X158045688Y-147010543D01*
X158576120Y-146656120D01*
X158930543Y-146125688D01*
X159055001Y-145500000D01*
X158930543Y-144874313D01*
X158576120Y-144343881D01*
X158531120Y-144298880D01*
X158000688Y-143944457D01*
X157375000Y-143819999D01*
X156872265Y-143920000D01*
X153035000Y-143920000D01*
X152447581Y-144036845D01*
X151949591Y-144369591D01*
X151616845Y-144867581D01*
X151535000Y-145279043D01*
X151535000Y-140630957D01*
X151616845Y-141042419D01*
X151949591Y-141540409D01*
X152447581Y-141873155D01*
X153035000Y-141990000D01*
X156763568Y-141990000D01*
X156794313Y-142010543D01*
X157420000Y-142135001D01*
X158045688Y-142010543D01*
X158576120Y-141656120D01*
X158930543Y-141125688D01*
X159055001Y-140500000D01*
X158930543Y-139874313D01*
X158576120Y-139343881D01*
X158531120Y-139298880D01*
X158136195Y-139035000D01*
X166876220Y-139035000D01*
X166443880Y-139323881D01*
X166423880Y-139343880D01*
X166069457Y-139874312D01*
X165944999Y-140500000D01*
X166069457Y-141125688D01*
X166423880Y-141656120D01*
X166954312Y-142010543D01*
X167580000Y-142135001D01*
X168183281Y-142015000D01*
X169673625Y-142015000D01*
X169629560Y-142232600D01*
X169629560Y-143807400D01*
X169659215Y-143965000D01*
X167580000Y-143965000D01*
X166992581Y-144081845D01*
X166494591Y-144414591D01*
X166161845Y-144912581D01*
X166045000Y-145500000D01*
X166161845Y-146087419D01*
X166494591Y-146585409D01*
X166992581Y-146918155D01*
X167580000Y-147035000D01*
X170097428Y-147035000D01*
X170195460Y-147100503D01*
X170041683Y-147129438D01*
X169825559Y-147268510D01*
X169680569Y-147480710D01*
X169629560Y-147732600D01*
X169629560Y-148965000D01*
X168080000Y-148965000D01*
X167492581Y-149081845D01*
X166994591Y-149414591D01*
X166661845Y-149912581D01*
X166545000Y-150500000D01*
X166661845Y-151087419D01*
X166994591Y-151585409D01*
X167492581Y-151918155D01*
X168080000Y-152035000D01*
X169722571Y-152035000D01*
X170023778Y-152485789D01*
X170195460Y-152600503D01*
X170041683Y-152629438D01*
X169825559Y-152768510D01*
X169680569Y-152980710D01*
X169629560Y-153232600D01*
X169629560Y-154807400D01*
X169673838Y-155042717D01*
X169812910Y-155258841D01*
X170025110Y-155403831D01*
X170277000Y-155454840D01*
X172563000Y-155454840D01*
X172798317Y-155410562D01*
X173014441Y-155271490D01*
X173159431Y-155059290D01*
X173210440Y-154807400D01*
X173210440Y-154367060D01*
X179844990Y-154367060D01*
X179861673Y-154446996D01*
X180128809Y-154935986D01*
X180562738Y-155285525D01*
X181097400Y-155442400D01*
X181453000Y-155442400D01*
X181453000Y-154147000D01*
X181707000Y-154147000D01*
X181707000Y-155442400D01*
X182062600Y-155442400D01*
X182597262Y-155285525D01*
X183031191Y-154935986D01*
X183298327Y-154446996D01*
X183315010Y-154367060D01*
X183192852Y-154147000D01*
X181707000Y-154147000D01*
X181453000Y-154147000D01*
X179967148Y-154147000D01*
X179844990Y-154367060D01*
X173210440Y-154367060D01*
X173210440Y-153232600D01*
X173166162Y-152997283D01*
X173027090Y-152781159D01*
X172814890Y-152636169D01*
X172643197Y-152601400D01*
X172816222Y-152485789D01*
X173124559Y-152024329D01*
X173232833Y-151480000D01*
X179767167Y-151480000D01*
X179875441Y-152024329D01*
X180183778Y-152485789D01*
X180578830Y-152749754D01*
X180562738Y-152754475D01*
X180128809Y-153104014D01*
X179861673Y-153593004D01*
X179844990Y-153672940D01*
X179967148Y-153893000D01*
X181453000Y-153893000D01*
X181453000Y-153873000D01*
X181707000Y-153873000D01*
X181707000Y-153893000D01*
X183192852Y-153893000D01*
X183315010Y-153672940D01*
X183298327Y-153593004D01*
X183031191Y-153104014D01*
X182920686Y-153015000D01*
X184816719Y-153015000D01*
X185420000Y-153135000D01*
X186045687Y-153010543D01*
X186576119Y-152656119D01*
X186930543Y-152125687D01*
X187055000Y-151500000D01*
X186930543Y-150874312D01*
X186576119Y-150343880D01*
X186556120Y-150323880D01*
X186025688Y-149969457D01*
X185400000Y-149844999D01*
X184897265Y-149945000D01*
X181580000Y-149945000D01*
X180992581Y-150061845D01*
X180918128Y-150111593D01*
X180645238Y-150165874D01*
X180183778Y-150474211D01*
X179875441Y-150935671D01*
X179767167Y-151480000D01*
X173232833Y-151480000D01*
X173124559Y-150935671D01*
X172816222Y-150474211D01*
X172354762Y-150165874D01*
X172257307Y-150146489D01*
X172065658Y-149954840D01*
X172563000Y-149954840D01*
X172798317Y-149910562D01*
X173014441Y-149771490D01*
X173159431Y-149559290D01*
X173210440Y-149307400D01*
X173210440Y-148867060D01*
X179844990Y-148867060D01*
X179861673Y-148946996D01*
X180128809Y-149435986D01*
X180562738Y-149785525D01*
X181097400Y-149942400D01*
X181453000Y-149942400D01*
X181453000Y-148647000D01*
X181707000Y-148647000D01*
X181707000Y-149942400D01*
X182062600Y-149942400D01*
X182597262Y-149785525D01*
X183031191Y-149435986D01*
X183298327Y-148946996D01*
X183315010Y-148867060D01*
X183192852Y-148647000D01*
X181707000Y-148647000D01*
X181453000Y-148647000D01*
X179967148Y-148647000D01*
X179844990Y-148867060D01*
X173210440Y-148867060D01*
X173210440Y-147732600D01*
X173166162Y-147497283D01*
X173027090Y-147281159D01*
X172814890Y-147136169D01*
X172643197Y-147101400D01*
X172816222Y-146985789D01*
X173124559Y-146524329D01*
X173232833Y-145980000D01*
X179767167Y-145980000D01*
X179875441Y-146524329D01*
X180183778Y-146985789D01*
X180578830Y-147249754D01*
X180562738Y-147254475D01*
X180128809Y-147604014D01*
X179861673Y-148093004D01*
X179844990Y-148172940D01*
X179967148Y-148393000D01*
X181453000Y-148393000D01*
X181453000Y-148373000D01*
X181707000Y-148373000D01*
X181707000Y-148393000D01*
X183192852Y-148393000D01*
X183315010Y-148172940D01*
X183298327Y-148093004D01*
X183031191Y-147604014D01*
X182920686Y-147515000D01*
X184816719Y-147515000D01*
X185420000Y-147635000D01*
X186045687Y-147510543D01*
X186576119Y-147156119D01*
X186930543Y-146625687D01*
X187055000Y-146000000D01*
X186930543Y-145374312D01*
X186576119Y-144843880D01*
X186556120Y-144823880D01*
X186025688Y-144469457D01*
X185400000Y-144344999D01*
X184897265Y-144445000D01*
X181580000Y-144445000D01*
X180992581Y-144561845D01*
X180918128Y-144611593D01*
X180645238Y-144665874D01*
X180183778Y-144974211D01*
X179875441Y-145435671D01*
X179767167Y-145980000D01*
X173232833Y-145980000D01*
X173124559Y-145435671D01*
X172816222Y-144974211D01*
X172354762Y-144665874D01*
X172257307Y-144646489D01*
X172065658Y-144454840D01*
X172563000Y-144454840D01*
X172798317Y-144410562D01*
X173014441Y-144271490D01*
X173159431Y-144059290D01*
X173210440Y-143807400D01*
X173210440Y-143367060D01*
X179844990Y-143367060D01*
X179861673Y-143446996D01*
X180128809Y-143935986D01*
X180562738Y-144285525D01*
X181097400Y-144442400D01*
X181453000Y-144442400D01*
X181453000Y-143147000D01*
X181707000Y-143147000D01*
X181707000Y-144442400D01*
X182062600Y-144442400D01*
X182597262Y-144285525D01*
X183031191Y-143935986D01*
X183298327Y-143446996D01*
X183315010Y-143367060D01*
X183258526Y-143265306D01*
X198478410Y-143265306D01*
X198504421Y-143865458D01*
X198684047Y-144299116D01*
X198937940Y-144382455D01*
X199820395Y-143500000D01*
X200179605Y-143500000D01*
X201062060Y-144382455D01*
X201315953Y-144299116D01*
X201521590Y-143734694D01*
X201495579Y-143134542D01*
X201315953Y-142700884D01*
X201062060Y-142617545D01*
X200179605Y-143500000D01*
X199820395Y-143500000D01*
X198937940Y-142617545D01*
X198684047Y-142700884D01*
X198478410Y-143265306D01*
X183258526Y-143265306D01*
X183192852Y-143147000D01*
X181707000Y-143147000D01*
X181453000Y-143147000D01*
X179967148Y-143147000D01*
X179844990Y-143367060D01*
X173210440Y-143367060D01*
X173210440Y-142232600D01*
X173166162Y-141997283D01*
X173027090Y-141781159D01*
X172814890Y-141636169D01*
X172643197Y-141601400D01*
X172816222Y-141485789D01*
X173124559Y-141024329D01*
X173232833Y-140480000D01*
X173124559Y-139935671D01*
X172816222Y-139474211D01*
X172354762Y-139165874D01*
X172081872Y-139111593D01*
X172007419Y-139061845D01*
X171872460Y-139035000D01*
X180856221Y-139035000D01*
X180666760Y-139161593D01*
X180645238Y-139165874D01*
X180183778Y-139474211D01*
X179875441Y-139935671D01*
X179767167Y-140480000D01*
X179875441Y-141024329D01*
X180183778Y-141485789D01*
X180578830Y-141749754D01*
X180562738Y-141754475D01*
X180128809Y-142104014D01*
X179861673Y-142593004D01*
X179844990Y-142672940D01*
X179967148Y-142893000D01*
X181453000Y-142893000D01*
X181453000Y-142873000D01*
X181707000Y-142873000D01*
X181707000Y-142893000D01*
X183192852Y-142893000D01*
X183315010Y-142672940D01*
X183298327Y-142593004D01*
X183037193Y-142115000D01*
X184819453Y-142115000D01*
X184920000Y-142135000D01*
X185545687Y-142010543D01*
X186076119Y-141656119D01*
X186430543Y-141125687D01*
X186555000Y-140500000D01*
X186430543Y-139874312D01*
X186076119Y-139343880D01*
X186056120Y-139323880D01*
X185623780Y-139035000D01*
X193545000Y-139035000D01*
X193545000Y-140500000D01*
X193661845Y-141087419D01*
X193994591Y-141585409D01*
X194492581Y-141918155D01*
X195080000Y-142035000D01*
X199497265Y-142035000D01*
X199540132Y-142043527D01*
X199200884Y-142184047D01*
X199117545Y-142437940D01*
X200000000Y-143320395D01*
X200882455Y-142437940D01*
X200799116Y-142184047D01*
X200429826Y-142049503D01*
X200502735Y-142035000D01*
X224993000Y-142035000D01*
X225028191Y-142028000D01*
X235507000Y-142028000D01*
X236094419Y-141911155D01*
X236592409Y-141578409D01*
X237261378Y-140909440D01*
X237262000Y-140909440D01*
X237497317Y-140865162D01*
X237713441Y-140726090D01*
X237858431Y-140513890D01*
X237909440Y-140262000D01*
X237909440Y-140100462D01*
X237918155Y-140087419D01*
X238035000Y-139500000D01*
X237918155Y-138912581D01*
X237909440Y-138899538D01*
X237909440Y-138738000D01*
X237865162Y-138502683D01*
X237726090Y-138286559D01*
X237513890Y-138141569D01*
X237262000Y-138090560D01*
X237100462Y-138090560D01*
X237087419Y-138081845D01*
X236500000Y-137965000D01*
X235912581Y-138081845D01*
X235899538Y-138090560D01*
X235738000Y-138090560D01*
X235502683Y-138134838D01*
X235286559Y-138273910D01*
X235141569Y-138486110D01*
X235090560Y-138738000D01*
X235090560Y-138738622D01*
X234871182Y-138958000D01*
X225000000Y-138958000D01*
X224964809Y-138965000D01*
X200544920Y-138965000D01*
X200007000Y-138858000D01*
X199469079Y-138965000D01*
X196615000Y-138965000D01*
X196615000Y-137580000D01*
X196498155Y-136992581D01*
X196165409Y-136494591D01*
X196085409Y-136414591D01*
X195587419Y-136081845D01*
X195000000Y-135965000D01*
X151500000Y-135965000D01*
X150912581Y-136081845D01*
X150414591Y-136414591D01*
X148914591Y-137914591D01*
X148581845Y-138412581D01*
X148465000Y-139000000D01*
X148127000Y-139000000D01*
X148127000Y-135500000D01*
X198465000Y-135500000D01*
X198489890Y-135625129D01*
X198489738Y-135799040D01*
X198556736Y-135961187D01*
X198581845Y-136087419D01*
X198652726Y-136193500D01*
X198719138Y-136354229D01*
X198843085Y-136478393D01*
X198914591Y-136585409D01*
X199020671Y-136656290D01*
X199143537Y-136779370D01*
X199305567Y-136846651D01*
X199412581Y-136918155D01*
X199537709Y-136943045D01*
X199698325Y-137009738D01*
X199873769Y-137009891D01*
X200000000Y-137035000D01*
X222500000Y-137035000D01*
X223087419Y-136918155D01*
X223585409Y-136585409D01*
X225635818Y-134535000D01*
X234364182Y-134535000D01*
X235414591Y-135585409D01*
X235912581Y-135918155D01*
X236500000Y-136035000D01*
X237087419Y-135918155D01*
X237585409Y-135585409D01*
X237918155Y-135087419D01*
X238035000Y-134500000D01*
X237918155Y-133912581D01*
X237585409Y-133414591D01*
X236085409Y-131914591D01*
X235587419Y-131581845D01*
X235000000Y-131465000D01*
X225000000Y-131465000D01*
X224412581Y-131581845D01*
X223914591Y-131914591D01*
X221864182Y-133965000D01*
X200000000Y-133965000D01*
X199874871Y-133989890D01*
X199700960Y-133989738D01*
X199538813Y-134056736D01*
X199412581Y-134081845D01*
X199306500Y-134152726D01*
X199145771Y-134219138D01*
X199021607Y-134343085D01*
X198914591Y-134414591D01*
X198843710Y-134520671D01*
X198720630Y-134643537D01*
X198653349Y-134805567D01*
X198581845Y-134912581D01*
X198556955Y-135037709D01*
X198490262Y-135198325D01*
X198490109Y-135373769D01*
X198465000Y-135500000D01*
X148127000Y-135500000D01*
X148127000Y-131562060D01*
X199117545Y-131562060D01*
X199200884Y-131815953D01*
X199765306Y-132021590D01*
X200365458Y-131995579D01*
X200799116Y-131815953D01*
X200882455Y-131562060D01*
X200000000Y-130679605D01*
X199117545Y-131562060D01*
X148127000Y-131562060D01*
X148127000Y-130265306D01*
X198478410Y-130265306D01*
X198504421Y-130865458D01*
X198684047Y-131299116D01*
X198937940Y-131382455D01*
X199820395Y-130500000D01*
X200179605Y-130500000D01*
X201062060Y-131382455D01*
X201315953Y-131299116D01*
X201521590Y-130734694D01*
X201495579Y-130134542D01*
X201315953Y-129700884D01*
X201062060Y-129617545D01*
X200179605Y-130500000D01*
X199820395Y-130500000D01*
X198937940Y-129617545D01*
X198684047Y-129700884D01*
X198478410Y-130265306D01*
X148127000Y-130265306D01*
X148127000Y-129437940D01*
X199117545Y-129437940D01*
X200000000Y-130320395D01*
X200882455Y-129437940D01*
X200799116Y-129184047D01*
X200234694Y-128978410D01*
X199634542Y-129004421D01*
X199200884Y-129184047D01*
X199117545Y-129437940D01*
X148127000Y-129437940D01*
X148127000Y-127127000D01*
X238373000Y-127127000D01*
X238373000Y-173373000D01*
X238373000Y-173373000D01*
G37*
X238373000Y-173373000D02*
X148127000Y-173373000D01*
X148127000Y-139000000D01*
X148465000Y-139000000D01*
X148465000Y-166430000D01*
X148581845Y-167017419D01*
X148914591Y-167515409D01*
X151498560Y-170099378D01*
X151498560Y-170100000D01*
X151542838Y-170335317D01*
X151681910Y-170551441D01*
X151894110Y-170696431D01*
X152146000Y-170747440D01*
X152307538Y-170747440D01*
X152320581Y-170756155D01*
X152908000Y-170873000D01*
X153495419Y-170756155D01*
X153508462Y-170747440D01*
X153670000Y-170747440D01*
X153905317Y-170703162D01*
X154121441Y-170564090D01*
X154266431Y-170351890D01*
X154317440Y-170100000D01*
X154317440Y-169938462D01*
X154326155Y-169925419D01*
X154443000Y-169338000D01*
X154326155Y-168750581D01*
X154317440Y-168737538D01*
X154317440Y-168576000D01*
X154273162Y-168340683D01*
X154134090Y-168124559D01*
X153921890Y-167979569D01*
X153670000Y-167928560D01*
X153669378Y-167928560D01*
X151535000Y-165794182D01*
X151535000Y-164992998D01*
X151822591Y-165423409D01*
X154484591Y-168085409D01*
X154982581Y-168418155D01*
X155570000Y-168535000D01*
X223632282Y-168535000D01*
X223754860Y-168725491D01*
X223967060Y-168870481D01*
X224218950Y-168921490D01*
X224464539Y-168921490D01*
X225000000Y-169028000D01*
X235007000Y-169028000D01*
X235594419Y-168911155D01*
X236092409Y-168578409D01*
X237261378Y-167409440D01*
X237262000Y-167409440D01*
X237497317Y-167365162D01*
X237713441Y-167226090D01*
X237858431Y-167013890D01*
X237909440Y-166762000D01*
X237909440Y-166600462D01*
X237918155Y-166587419D01*
X238035000Y-166000000D01*
X237918155Y-165412581D01*
X237909440Y-165399538D01*
X237909440Y-165238000D01*
X237865162Y-165002683D01*
X237726090Y-164786559D01*
X237513890Y-164641569D01*
X237262000Y-164590560D01*
X237100462Y-164590560D01*
X237087419Y-164581845D01*
X236500000Y-164465000D01*
X235912581Y-164581845D01*
X235899538Y-164590560D01*
X235738000Y-164590560D01*
X235502683Y-164634838D01*
X235286559Y-164773910D01*
X235141569Y-164986110D01*
X235090560Y-165238000D01*
X235090560Y-165238622D01*
X234371182Y-165958000D01*
X225635818Y-165958000D01*
X225592409Y-165914591D01*
X225094419Y-165581845D01*
X224507000Y-165465000D01*
X197115000Y-165465000D01*
X197115000Y-162000000D01*
X198465000Y-162000000D01*
X198489890Y-162125129D01*
X198489738Y-162299040D01*
X198556736Y-162461187D01*
X198581845Y-162587419D01*
X198652726Y-162693500D01*
X198719138Y-162854229D01*
X198843085Y-162978393D01*
X198914591Y-163085409D01*
X199020671Y-163156290D01*
X199143537Y-163279370D01*
X199305567Y-163346651D01*
X199412581Y-163418155D01*
X199537709Y-163443045D01*
X199698325Y-163509738D01*
X199873769Y-163509891D01*
X200000000Y-163535000D01*
X200125129Y-163510110D01*
X200299040Y-163510262D01*
X200461187Y-163443264D01*
X200587419Y-163418155D01*
X200693500Y-163347274D01*
X200854229Y-163280862D01*
X200978393Y-163156915D01*
X201085409Y-163085409D01*
X202635818Y-161535000D01*
X224364182Y-161535000D01*
X224914591Y-162085409D01*
X225412581Y-162418155D01*
X226000000Y-162535000D01*
X236500000Y-162535000D01*
X237087419Y-162418155D01*
X237585409Y-162085409D01*
X237918155Y-161587419D01*
X238035000Y-161000000D01*
X237918155Y-160412581D01*
X237585409Y-159914591D01*
X237087419Y-159581845D01*
X236500000Y-159465000D01*
X226635818Y-159465000D01*
X226085409Y-158914591D01*
X225587419Y-158581845D01*
X225000000Y-158465000D01*
X202000000Y-158465000D01*
X201412581Y-158581845D01*
X200914591Y-158914591D01*
X198914591Y-160914591D01*
X198843710Y-161020671D01*
X198720630Y-161143537D01*
X198653349Y-161305567D01*
X198581845Y-161412581D01*
X198556955Y-161537709D01*
X198490262Y-161698325D01*
X198490109Y-161873769D01*
X198465000Y-162000000D01*
X197115000Y-162000000D01*
X197115000Y-158062060D01*
X199117545Y-158062060D01*
X199200884Y-158315953D01*
X199765306Y-158521590D01*
X200365458Y-158495579D01*
X200799116Y-158315953D01*
X200882455Y-158062060D01*
X200000000Y-157179605D01*
X199117545Y-158062060D01*
X197115000Y-158062060D01*
X197115000Y-156765306D01*
X198478410Y-156765306D01*
X198504421Y-157365458D01*
X198684047Y-157799116D01*
X198937940Y-157882455D01*
X199820395Y-157000000D01*
X200179605Y-157000000D01*
X201062060Y-157882455D01*
X201315953Y-157799116D01*
X201521590Y-157234694D01*
X201495579Y-156634542D01*
X201315953Y-156200884D01*
X201062060Y-156117545D01*
X200179605Y-157000000D01*
X199820395Y-157000000D01*
X198937940Y-156117545D01*
X198684047Y-156200884D01*
X198478410Y-156765306D01*
X197115000Y-156765306D01*
X197115000Y-155937940D01*
X199117545Y-155937940D01*
X200000000Y-156820395D01*
X200882455Y-155937940D01*
X200799116Y-155684047D01*
X200234694Y-155478410D01*
X199634542Y-155504421D01*
X199200884Y-155684047D01*
X199117545Y-155937940D01*
X197115000Y-155937940D01*
X197115000Y-153135000D01*
X197322760Y-153135000D01*
X198477560Y-154289799D01*
X198477560Y-154375000D01*
X198521838Y-154610317D01*
X198660910Y-154826441D01*
X198873110Y-154971431D01*
X199125000Y-155022440D01*
X199434122Y-155022440D01*
X200000000Y-155135000D01*
X200502734Y-155035000D01*
X210132282Y-155035000D01*
X210254860Y-155225491D01*
X210467060Y-155370481D01*
X210718950Y-155421490D01*
X210964539Y-155421490D01*
X211500000Y-155528000D01*
X236007000Y-155528000D01*
X236594419Y-155411155D01*
X237092409Y-155078409D01*
X237261378Y-154909440D01*
X237262000Y-154909440D01*
X237497317Y-154865162D01*
X237713441Y-154726090D01*
X237858431Y-154513890D01*
X237909440Y-154262000D01*
X237909440Y-154100462D01*
X237918155Y-154087419D01*
X238035000Y-153500000D01*
X237918155Y-152912581D01*
X237909440Y-152899538D01*
X237909440Y-152738000D01*
X237865162Y-152502683D01*
X237726090Y-152286559D01*
X237513890Y-152141569D01*
X237262000Y-152090560D01*
X237100462Y-152090560D01*
X237087419Y-152081845D01*
X236500000Y-151965000D01*
X235912581Y-152081845D01*
X235899538Y-152090560D01*
X235738000Y-152090560D01*
X235502683Y-152134838D01*
X235286559Y-152273910D01*
X235160776Y-152458000D01*
X212135818Y-152458000D01*
X212092409Y-152414591D01*
X211594419Y-152081845D01*
X211007000Y-151965000D01*
X200777239Y-151965000D01*
X199156120Y-150343880D01*
X198625688Y-149989457D01*
X198000000Y-149864999D01*
X197999995Y-149865000D01*
X197215000Y-149865000D01*
X197215000Y-148500000D01*
X198465000Y-148500000D01*
X198489890Y-148625129D01*
X198489738Y-148799040D01*
X198556736Y-148961187D01*
X198581845Y-149087419D01*
X198652726Y-149193500D01*
X198719138Y-149354229D01*
X198843085Y-149478393D01*
X198914591Y-149585409D01*
X199020671Y-149656290D01*
X199143537Y-149779370D01*
X199305567Y-149846651D01*
X199412581Y-149918155D01*
X199537709Y-149943045D01*
X199698325Y-150009738D01*
X199873769Y-150009891D01*
X200000000Y-150035000D01*
X200125129Y-150010110D01*
X200299040Y-150010262D01*
X200461187Y-149943264D01*
X200587419Y-149918155D01*
X200693500Y-149847274D01*
X200854229Y-149780862D01*
X200978393Y-149656915D01*
X201085409Y-149585409D01*
X202635818Y-148035000D01*
X210864182Y-148035000D01*
X212414591Y-149585409D01*
X212912581Y-149918155D01*
X213500000Y-150035000D01*
X236500000Y-150035000D01*
X237087419Y-149918155D01*
X237585409Y-149585409D01*
X237918155Y-149087419D01*
X238035000Y-148500000D01*
X237918155Y-147912581D01*
X237585409Y-147414591D01*
X237087419Y-147081845D01*
X236500000Y-146965000D01*
X214135818Y-146965000D01*
X212585409Y-145414591D01*
X212087419Y-145081845D01*
X211500000Y-144965000D01*
X202000000Y-144965000D01*
X201412581Y-145081845D01*
X200914591Y-145414591D01*
X198914591Y-147414591D01*
X198843710Y-147520671D01*
X198720630Y-147643537D01*
X198653349Y-147805567D01*
X198581845Y-147912581D01*
X198556955Y-148037709D01*
X198490262Y-148198325D01*
X198490109Y-148373769D01*
X198465000Y-148500000D01*
X197215000Y-148500000D01*
X197215000Y-146000000D01*
X197090543Y-145374313D01*
X196736120Y-144843880D01*
X196314346Y-144562060D01*
X199117545Y-144562060D01*
X199200884Y-144815953D01*
X199765306Y-145021590D01*
X200365458Y-144995579D01*
X200799116Y-144815953D01*
X200882455Y-144562060D01*
X200000000Y-143679605D01*
X199117545Y-144562060D01*
X196314346Y-144562060D01*
X196205687Y-144489457D01*
X195580000Y-144365000D01*
X194954313Y-144489457D01*
X194423880Y-144843880D01*
X194069457Y-145374313D01*
X193945000Y-146000000D01*
X193945000Y-151500000D01*
X194045000Y-152002733D01*
X194045000Y-165465000D01*
X156205818Y-165465000D01*
X153993409Y-163252591D01*
X153495419Y-162919845D01*
X152908000Y-162803000D01*
X152320581Y-162919845D01*
X151822591Y-163252591D01*
X151535000Y-163683002D01*
X151535000Y-160318213D01*
X152107392Y-160318213D01*
X152176857Y-160560397D01*
X152700302Y-160747144D01*
X153255368Y-160719362D01*
X153639143Y-160560397D01*
X153708608Y-160318213D01*
X152908000Y-159517605D01*
X152107392Y-160318213D01*
X151535000Y-160318213D01*
X151535000Y-159705556D01*
X151685603Y-160069143D01*
X151927787Y-160138608D01*
X152728395Y-159338000D01*
X153087605Y-159338000D01*
X153888213Y-160138608D01*
X154130397Y-160069143D01*
X154317144Y-159545698D01*
X154289362Y-158990632D01*
X154130397Y-158606857D01*
X153888213Y-158537392D01*
X153087605Y-159338000D01*
X152728395Y-159338000D01*
X151927787Y-158537392D01*
X151685603Y-158606857D01*
X151535000Y-159028992D01*
X151535000Y-158357787D01*
X152107392Y-158357787D01*
X152908000Y-159158395D01*
X153708608Y-158357787D01*
X153639143Y-158115603D01*
X153115698Y-157928856D01*
X152560632Y-157956638D01*
X152176857Y-158115603D01*
X152107392Y-158357787D01*
X151535000Y-158357787D01*
X151535000Y-154693000D01*
X151625560Y-154693000D01*
X151625560Y-156217000D01*
X151669838Y-156452317D01*
X151808910Y-156668441D01*
X152021110Y-156813431D01*
X152273000Y-156864440D01*
X153797000Y-156864440D01*
X154032317Y-156820162D01*
X154248441Y-156681090D01*
X154393431Y-156468890D01*
X154444440Y-156217000D01*
X154444440Y-154693000D01*
X154400162Y-154457683D01*
X154261090Y-154241559D01*
X154048890Y-154096569D01*
X153797000Y-154045560D01*
X152273000Y-154045560D01*
X152037683Y-154089838D01*
X151821559Y-154228910D01*
X151676569Y-154441110D01*
X151625560Y-154693000D01*
X151535000Y-154693000D01*
X151535000Y-150630957D01*
X151616845Y-151042419D01*
X151949591Y-151540409D01*
X152447581Y-151873155D01*
X153035000Y-151990000D01*
X157263568Y-151990000D01*
X157294313Y-152010543D01*
X157920000Y-152135001D01*
X158545688Y-152010543D01*
X159076120Y-151656120D01*
X159430543Y-151125688D01*
X159555001Y-150500000D01*
X159430543Y-149874313D01*
X159076120Y-149343881D01*
X159031120Y-149298880D01*
X158500688Y-148944457D01*
X157875000Y-148819999D01*
X157372265Y-148920000D01*
X153035000Y-148920000D01*
X152447581Y-149036845D01*
X151949591Y-149369591D01*
X151616845Y-149867581D01*
X151535000Y-150279043D01*
X151535000Y-145630957D01*
X151616845Y-146042419D01*
X151949591Y-146540409D01*
X152447581Y-146873155D01*
X153035000Y-146990000D01*
X156763568Y-146990000D01*
X156794313Y-147010543D01*
X157420000Y-147135001D01*
X158045688Y-147010543D01*
X158576120Y-146656120D01*
X158930543Y-146125688D01*
X159055001Y-145500000D01*
X158930543Y-144874313D01*
X158576120Y-144343881D01*
X158531120Y-144298880D01*
X158000688Y-143944457D01*
X157375000Y-143819999D01*
X156872265Y-143920000D01*
X153035000Y-143920000D01*
X152447581Y-144036845D01*
X151949591Y-144369591D01*
X151616845Y-144867581D01*
X151535000Y-145279043D01*
X151535000Y-140630957D01*
X151616845Y-141042419D01*
X151949591Y-141540409D01*
X152447581Y-141873155D01*
X153035000Y-141990000D01*
X156763568Y-141990000D01*
X156794313Y-142010543D01*
X157420000Y-142135001D01*
X158045688Y-142010543D01*
X158576120Y-141656120D01*
X158930543Y-141125688D01*
X159055001Y-140500000D01*
X158930543Y-139874313D01*
X158576120Y-139343881D01*
X158531120Y-139298880D01*
X158136195Y-139035000D01*
X166876220Y-139035000D01*
X166443880Y-139323881D01*
X166423880Y-139343880D01*
X166069457Y-139874312D01*
X165944999Y-140500000D01*
X166069457Y-141125688D01*
X166423880Y-141656120D01*
X166954312Y-142010543D01*
X167580000Y-142135001D01*
X168183281Y-142015000D01*
X169673625Y-142015000D01*
X169629560Y-142232600D01*
X169629560Y-143807400D01*
X169659215Y-143965000D01*
X167580000Y-143965000D01*
X166992581Y-144081845D01*
X166494591Y-144414591D01*
X166161845Y-144912581D01*
X166045000Y-145500000D01*
X166161845Y-146087419D01*
X166494591Y-146585409D01*
X166992581Y-146918155D01*
X167580000Y-147035000D01*
X170097428Y-147035000D01*
X170195460Y-147100503D01*
X170041683Y-147129438D01*
X169825559Y-147268510D01*
X169680569Y-147480710D01*
X169629560Y-147732600D01*
X169629560Y-148965000D01*
X168080000Y-148965000D01*
X167492581Y-149081845D01*
X166994591Y-149414591D01*
X166661845Y-149912581D01*
X166545000Y-150500000D01*
X166661845Y-151087419D01*
X166994591Y-151585409D01*
X167492581Y-151918155D01*
X168080000Y-152035000D01*
X169722571Y-152035000D01*
X170023778Y-152485789D01*
X170195460Y-152600503D01*
X170041683Y-152629438D01*
X169825559Y-152768510D01*
X169680569Y-152980710D01*
X169629560Y-153232600D01*
X169629560Y-154807400D01*
X169673838Y-155042717D01*
X169812910Y-155258841D01*
X170025110Y-155403831D01*
X170277000Y-155454840D01*
X172563000Y-155454840D01*
X172798317Y-155410562D01*
X173014441Y-155271490D01*
X173159431Y-155059290D01*
X173210440Y-154807400D01*
X173210440Y-154367060D01*
X179844990Y-154367060D01*
X179861673Y-154446996D01*
X180128809Y-154935986D01*
X180562738Y-155285525D01*
X181097400Y-155442400D01*
X181453000Y-155442400D01*
X181453000Y-154147000D01*
X181707000Y-154147000D01*
X181707000Y-155442400D01*
X182062600Y-155442400D01*
X182597262Y-155285525D01*
X183031191Y-154935986D01*
X183298327Y-154446996D01*
X183315010Y-154367060D01*
X183192852Y-154147000D01*
X181707000Y-154147000D01*
X181453000Y-154147000D01*
X179967148Y-154147000D01*
X179844990Y-154367060D01*
X173210440Y-154367060D01*
X173210440Y-153232600D01*
X173166162Y-152997283D01*
X173027090Y-152781159D01*
X172814890Y-152636169D01*
X172643197Y-152601400D01*
X172816222Y-152485789D01*
X173124559Y-152024329D01*
X173232833Y-151480000D01*
X179767167Y-151480000D01*
X179875441Y-152024329D01*
X180183778Y-152485789D01*
X180578830Y-152749754D01*
X180562738Y-152754475D01*
X180128809Y-153104014D01*
X179861673Y-153593004D01*
X179844990Y-153672940D01*
X179967148Y-153893000D01*
X181453000Y-153893000D01*
X181453000Y-153873000D01*
X181707000Y-153873000D01*
X181707000Y-153893000D01*
X183192852Y-153893000D01*
X183315010Y-153672940D01*
X183298327Y-153593004D01*
X183031191Y-153104014D01*
X182920686Y-153015000D01*
X184816719Y-153015000D01*
X185420000Y-153135000D01*
X186045687Y-153010543D01*
X186576119Y-152656119D01*
X186930543Y-152125687D01*
X187055000Y-151500000D01*
X186930543Y-150874312D01*
X186576119Y-150343880D01*
X186556120Y-150323880D01*
X186025688Y-149969457D01*
X185400000Y-149844999D01*
X184897265Y-149945000D01*
X181580000Y-149945000D01*
X180992581Y-150061845D01*
X180918128Y-150111593D01*
X180645238Y-150165874D01*
X180183778Y-150474211D01*
X179875441Y-150935671D01*
X179767167Y-151480000D01*
X173232833Y-151480000D01*
X173124559Y-150935671D01*
X172816222Y-150474211D01*
X172354762Y-150165874D01*
X172257307Y-150146489D01*
X172065658Y-149954840D01*
X172563000Y-149954840D01*
X172798317Y-149910562D01*
X173014441Y-149771490D01*
X173159431Y-149559290D01*
X173210440Y-149307400D01*
X173210440Y-148867060D01*
X179844990Y-148867060D01*
X179861673Y-148946996D01*
X180128809Y-149435986D01*
X180562738Y-149785525D01*
X181097400Y-149942400D01*
X181453000Y-149942400D01*
X181453000Y-148647000D01*
X181707000Y-148647000D01*
X181707000Y-149942400D01*
X182062600Y-149942400D01*
X182597262Y-149785525D01*
X183031191Y-149435986D01*
X183298327Y-148946996D01*
X183315010Y-148867060D01*
X183192852Y-148647000D01*
X181707000Y-148647000D01*
X181453000Y-148647000D01*
X179967148Y-148647000D01*
X179844990Y-148867060D01*
X173210440Y-148867060D01*
X173210440Y-147732600D01*
X173166162Y-147497283D01*
X173027090Y-147281159D01*
X172814890Y-147136169D01*
X172643197Y-147101400D01*
X172816222Y-146985789D01*
X173124559Y-146524329D01*
X173232833Y-145980000D01*
X179767167Y-145980000D01*
X179875441Y-146524329D01*
X180183778Y-146985789D01*
X180578830Y-147249754D01*
X180562738Y-147254475D01*
X180128809Y-147604014D01*
X179861673Y-148093004D01*
X179844990Y-148172940D01*
X179967148Y-148393000D01*
X181453000Y-148393000D01*
X181453000Y-148373000D01*
X181707000Y-148373000D01*
X181707000Y-148393000D01*
X183192852Y-148393000D01*
X183315010Y-148172940D01*
X183298327Y-148093004D01*
X183031191Y-147604014D01*
X182920686Y-147515000D01*
X184816719Y-147515000D01*
X185420000Y-147635000D01*
X186045687Y-147510543D01*
X186576119Y-147156119D01*
X186930543Y-146625687D01*
X187055000Y-146000000D01*
X186930543Y-145374312D01*
X186576119Y-144843880D01*
X186556120Y-144823880D01*
X186025688Y-144469457D01*
X185400000Y-144344999D01*
X184897265Y-144445000D01*
X181580000Y-144445000D01*
X180992581Y-144561845D01*
X180918128Y-144611593D01*
X180645238Y-144665874D01*
X180183778Y-144974211D01*
X179875441Y-145435671D01*
X179767167Y-145980000D01*
X173232833Y-145980000D01*
X173124559Y-145435671D01*
X172816222Y-144974211D01*
X172354762Y-144665874D01*
X172257307Y-144646489D01*
X172065658Y-144454840D01*
X172563000Y-144454840D01*
X172798317Y-144410562D01*
X173014441Y-144271490D01*
X173159431Y-144059290D01*
X173210440Y-143807400D01*
X173210440Y-143367060D01*
X179844990Y-143367060D01*
X179861673Y-143446996D01*
X180128809Y-143935986D01*
X180562738Y-144285525D01*
X181097400Y-144442400D01*
X181453000Y-144442400D01*
X181453000Y-143147000D01*
X181707000Y-143147000D01*
X181707000Y-144442400D01*
X182062600Y-144442400D01*
X182597262Y-144285525D01*
X183031191Y-143935986D01*
X183298327Y-143446996D01*
X183315010Y-143367060D01*
X183258526Y-143265306D01*
X198478410Y-143265306D01*
X198504421Y-143865458D01*
X198684047Y-144299116D01*
X198937940Y-144382455D01*
X199820395Y-143500000D01*
X200179605Y-143500000D01*
X201062060Y-144382455D01*
X201315953Y-144299116D01*
X201521590Y-143734694D01*
X201495579Y-143134542D01*
X201315953Y-142700884D01*
X201062060Y-142617545D01*
X200179605Y-143500000D01*
X199820395Y-143500000D01*
X198937940Y-142617545D01*
X198684047Y-142700884D01*
X198478410Y-143265306D01*
X183258526Y-143265306D01*
X183192852Y-143147000D01*
X181707000Y-143147000D01*
X181453000Y-143147000D01*
X179967148Y-143147000D01*
X179844990Y-143367060D01*
X173210440Y-143367060D01*
X173210440Y-142232600D01*
X173166162Y-141997283D01*
X173027090Y-141781159D01*
X172814890Y-141636169D01*
X172643197Y-141601400D01*
X172816222Y-141485789D01*
X173124559Y-141024329D01*
X173232833Y-140480000D01*
X173124559Y-139935671D01*
X172816222Y-139474211D01*
X172354762Y-139165874D01*
X172081872Y-139111593D01*
X172007419Y-139061845D01*
X171872460Y-139035000D01*
X180856221Y-139035000D01*
X180666760Y-139161593D01*
X180645238Y-139165874D01*
X180183778Y-139474211D01*
X179875441Y-139935671D01*
X179767167Y-140480000D01*
X179875441Y-141024329D01*
X180183778Y-141485789D01*
X180578830Y-141749754D01*
X180562738Y-141754475D01*
X180128809Y-142104014D01*
X179861673Y-142593004D01*
X179844990Y-142672940D01*
X179967148Y-142893000D01*
X181453000Y-142893000D01*
X181453000Y-142873000D01*
X181707000Y-142873000D01*
X181707000Y-142893000D01*
X183192852Y-142893000D01*
X183315010Y-142672940D01*
X183298327Y-142593004D01*
X183037193Y-142115000D01*
X184819453Y-142115000D01*
X184920000Y-142135000D01*
X185545687Y-142010543D01*
X186076119Y-141656119D01*
X186430543Y-141125687D01*
X186555000Y-140500000D01*
X186430543Y-139874312D01*
X186076119Y-139343880D01*
X186056120Y-139323880D01*
X185623780Y-139035000D01*
X193545000Y-139035000D01*
X193545000Y-140500000D01*
X193661845Y-141087419D01*
X193994591Y-141585409D01*
X194492581Y-141918155D01*
X195080000Y-142035000D01*
X199497265Y-142035000D01*
X199540132Y-142043527D01*
X199200884Y-142184047D01*
X199117545Y-142437940D01*
X200000000Y-143320395D01*
X200882455Y-142437940D01*
X200799116Y-142184047D01*
X200429826Y-142049503D01*
X200502735Y-142035000D01*
X224993000Y-142035000D01*
X225028191Y-142028000D01*
X235507000Y-142028000D01*
X236094419Y-141911155D01*
X236592409Y-141578409D01*
X237261378Y-140909440D01*
X237262000Y-140909440D01*
X237497317Y-140865162D01*
X237713441Y-140726090D01*
X237858431Y-140513890D01*
X237909440Y-140262000D01*
X237909440Y-140100462D01*
X237918155Y-140087419D01*
X238035000Y-139500000D01*
X237918155Y-138912581D01*
X237909440Y-138899538D01*
X237909440Y-138738000D01*
X237865162Y-138502683D01*
X237726090Y-138286559D01*
X237513890Y-138141569D01*
X237262000Y-138090560D01*
X237100462Y-138090560D01*
X237087419Y-138081845D01*
X236500000Y-137965000D01*
X235912581Y-138081845D01*
X235899538Y-138090560D01*
X235738000Y-138090560D01*
X235502683Y-138134838D01*
X235286559Y-138273910D01*
X235141569Y-138486110D01*
X235090560Y-138738000D01*
X235090560Y-138738622D01*
X234871182Y-138958000D01*
X225000000Y-138958000D01*
X224964809Y-138965000D01*
X200544920Y-138965000D01*
X200007000Y-138858000D01*
X199469079Y-138965000D01*
X196615000Y-138965000D01*
X196615000Y-137580000D01*
X196498155Y-136992581D01*
X196165409Y-136494591D01*
X196085409Y-136414591D01*
X195587419Y-136081845D01*
X195000000Y-135965000D01*
X151500000Y-135965000D01*
X150912581Y-136081845D01*
X150414591Y-136414591D01*
X148914591Y-137914591D01*
X148581845Y-138412581D01*
X148465000Y-139000000D01*
X148127000Y-139000000D01*
X148127000Y-135500000D01*
X198465000Y-135500000D01*
X198489890Y-135625129D01*
X198489738Y-135799040D01*
X198556736Y-135961187D01*
X198581845Y-136087419D01*
X198652726Y-136193500D01*
X198719138Y-136354229D01*
X198843085Y-136478393D01*
X198914591Y-136585409D01*
X199020671Y-136656290D01*
X199143537Y-136779370D01*
X199305567Y-136846651D01*
X199412581Y-136918155D01*
X199537709Y-136943045D01*
X199698325Y-137009738D01*
X199873769Y-137009891D01*
X200000000Y-137035000D01*
X222500000Y-137035000D01*
X223087419Y-136918155D01*
X223585409Y-136585409D01*
X225635818Y-134535000D01*
X234364182Y-134535000D01*
X235414591Y-135585409D01*
X235912581Y-135918155D01*
X236500000Y-136035000D01*
X237087419Y-135918155D01*
X237585409Y-135585409D01*
X237918155Y-135087419D01*
X238035000Y-134500000D01*
X237918155Y-133912581D01*
X237585409Y-133414591D01*
X236085409Y-131914591D01*
X235587419Y-131581845D01*
X235000000Y-131465000D01*
X225000000Y-131465000D01*
X224412581Y-131581845D01*
X223914591Y-131914591D01*
X221864182Y-133965000D01*
X200000000Y-133965000D01*
X199874871Y-133989890D01*
X199700960Y-133989738D01*
X199538813Y-134056736D01*
X199412581Y-134081845D01*
X199306500Y-134152726D01*
X199145771Y-134219138D01*
X199021607Y-134343085D01*
X198914591Y-134414591D01*
X198843710Y-134520671D01*
X198720630Y-134643537D01*
X198653349Y-134805567D01*
X198581845Y-134912581D01*
X198556955Y-135037709D01*
X198490262Y-135198325D01*
X198490109Y-135373769D01*
X198465000Y-135500000D01*
X148127000Y-135500000D01*
X148127000Y-131562060D01*
X199117545Y-131562060D01*
X199200884Y-131815953D01*
X199765306Y-132021590D01*
X200365458Y-131995579D01*
X200799116Y-131815953D01*
X200882455Y-131562060D01*
X200000000Y-130679605D01*
X199117545Y-131562060D01*
X148127000Y-131562060D01*
X148127000Y-130265306D01*
X198478410Y-130265306D01*
X198504421Y-130865458D01*
X198684047Y-131299116D01*
X198937940Y-131382455D01*
X199820395Y-130500000D01*
X200179605Y-130500000D01*
X201062060Y-131382455D01*
X201315953Y-131299116D01*
X201521590Y-130734694D01*
X201495579Y-130134542D01*
X201315953Y-129700884D01*
X201062060Y-129617545D01*
X200179605Y-130500000D01*
X199820395Y-130500000D01*
X198937940Y-129617545D01*
X198684047Y-129700884D01*
X198478410Y-130265306D01*
X148127000Y-130265306D01*
X148127000Y-129437940D01*
X199117545Y-129437940D01*
X200000000Y-130320395D01*
X200882455Y-129437940D01*
X200799116Y-129184047D01*
X200234694Y-128978410D01*
X199634542Y-129004421D01*
X199200884Y-129184047D01*
X199117545Y-129437940D01*
X148127000Y-129437940D01*
X148127000Y-127127000D01*
X238373000Y-127127000D01*
X238373000Y-173373000D01*
M02*
