<?xml version="1.0" standalone="no"?>
<!DOCTYPE svg PUBLIC "-//W3C//DTD SVG 1.1//EN"
"http://www.w3.org/Graphics/SVG/1.1/DTD/svg11.dtd">
<svg width="7133" height="3711" viewBox="0 0 7133 3711" version="1.1"
xmlns="http://www.w3.org/2000/svg"
xmlns:xlink="http://www.w3.org/1999/xlink">
<g fill-rule="evenodd"><path d="M 0,3654 L 0,13 L 0,13 L 0,11 L 0,10 L 1,8 L 2,7 L 3,5 L 3,4 L 5,3 L 6,2 L 8,1 L 8,1 L 10,0 L 11,0 L 14,0 L 14,0 L 7118,0 L 7118,0 L 7121,0 L 7122,0 L 7124,1 L 7124,1 L 7126,2 L 7127,3 L 7129,4 L 7129,5 L 7130,7 L 7131,8 L 7132,10 L 7132,11 L 7132,13 L 7132,13 L 7132,3654 L 7132,3655 L 7131,3659 L 7131,3660 L 7130,3662 L 7129,3662 L 7128,3664 L 7127,3664 L 7125,3666 L 7125,3666 L 7123,3667 L 7122,3667 L 7119,3668 L 7118,3668 L 14,3668 L 14,3668 L 11,3668 L 10,3667 L 8,3667 L 8,3666 L 6,3665 L 5,3664 L 3,3663 L 3,3662 L 2,3660 L 1,3660 L 0,3657 L 0,3657 L 0,3654 L 0,3654 z " style="fill-opacity:1.000000;fill:rgb(103,198,105);stroke:rgb(0,0,0);stroke-width:2"/></g>
<g fill-rule="evenodd"><path d="M 45,3708 L 44,3707 L 43,3706 L 43,3704 L 42,3702 L 43,3701 L 43,3699 L 44,3698 L 45,3697 L 46,3696 L 47,3695 L 49,3695 L 50,3694 L 52,3695 L 54,3695 L 55,3696 L 56,3697 L 57,3698 L 58,3699 L 58,3701 L 58,3702 L 58,3702 L 58,3704 L 58,3705 L 58,3706 L 57,3707 L 56,3708 L 55,3709 L 54,3710 L 52,3710 L 51,3710 L 50,3710 L 49,3710 L 48,3710 L 47,3710 L 45,3709 L 45,3708 z " style="fill-opacity:1.000000;fill:rgb(115,81,255);stroke:rgb(0,0,0);stroke-width:2"/></g>
</svg>
