<?xml version="1.0" standalone="no"?>
<!DOCTYPE svg PUBLIC "-//W3C//DTD SVG 1.1//EN"
"http://www.w3.org/Graphics/SVG/1.1/DTD/svg11.dtd">
<svg width="7125" height="3661" viewBox="0 0 7125 3661" version="1.1"
xmlns="http://www.w3.org/2000/svg"
xmlns:xlink="http://www.w3.org/1999/xlink">
<g fill-rule="evenodd"><path d="M 4280,2668 L 4144,2805 L 4132,2814 L 4119,2821 L 4105,2825 L 4090,2826 L 4075,2824 L 4061,2818 L 4049,2810 L 4038,2800 L 4030,2787 L 4025,2773 L 4023,2759 L 4023,2744 L 4027,2730 L 4034,2716 L 4043,2705 L 4201,2548 L 4215,2536 L 4233,2529 L 4251,2527 L 6062,2527 L 6080,2529 L 6097,2536 L 6112,2548 L 6170,2605 L 6967,2605 L 6982,2607 L 6996,2612 L 7009,2619 L 7020,2629 L 7028,2641 L 7034,2654 L 7038,2669 L 7038,2684 L 7034,2698 L 7028,2712 L 7020,2724 L 7009,2734 L 6996,2741 L 6982,2746 L 6967,2747 L 6140,2747 L 6122,2745 L 6105,2738 L 6090,2726 L 6032,2668 L 4280,2668 z " style="fill-opacity:1.000000;fill:rgb(103,198,105);stroke:rgb(0,0,0);stroke-width:2"/></g>
<g fill-rule="evenodd"><path d="M 5186,1621 L 6967,1621 L 6982,1623 L 6996,1627 L 7009,1635 L 7020,1645 L 7028,1657 L 7034,1670 L 7038,1685 L 7038,1700 L 7034,1714 L 7028,1728 L 7020,1740 L 7009,1750 L 6996,1757 L 6982,1762 L 6967,1763 L 5156,1763 L 5138,1761 L 5121,1754 L 5106,1742 L 4969,1606 L 4280,1606 L 4144,1742 L 4132,1752 L 4119,1758 L 4105,1762 L 4090,1763 L 4075,1761 L 4061,1755 L 4049,1747 L 4038,1737 L 4030,1724 L 4025,1711 L 4023,1696 L 4023,1681 L 4027,1667 L 4034,1654 L 4043,1642 L 4201,1485 L 4215,1473 L 4233,1466 L 4251,1464 L 4999,1464 L 5017,1466 L 5034,1473 L 5049,1485 L 5186,1621 z " style="fill-opacity:1.000000;fill:rgb(115,81,255);stroke:rgb(0,0,0);stroke-width:2"/></g>
<g fill-rule="evenodd"><path d="M 5835,598 L 6012,422 L 6026,411 L 6043,403 L 6062,401 L 6849,401 L 6867,403 L 6884,411 L 6899,422 L 7017,540 L 7026,551 L 7033,565 L 7037,579 L 7038,594 L 7035,608 L 7030,622 L 7022,635 L 7012,645 L 6999,653 L 6985,658 L 6971,661 L 6956,660 L 6942,656 L 6928,649 L 6917,640 L 6820,543 L 6091,543 L 5915,719 L 5900,730 L 5883,737 L 5865,740 L 4093,740 L 4079,738 L 4065,733 L 4052,726 L 4041,716 L 4032,704 L 4026,691 L 4023,676 L 4023,661 L 4026,647 L 4032,633 L 4041,621 L 4052,611 L 4065,604 L 4079,599 L 4093,598 L 5835,598 z " style="fill-opacity:1.000000;fill:rgb(74,236,41);stroke:rgb(0,0,0);stroke-width:2"/></g>
<g fill-rule="evenodd"><path d="M 0,10 L 0,7 L 0,5 L 2,3 L 3,2 L 5,1 L 7,0 L 9,0 L 7115,0 L 7117,0 L 7119,1 L 7121,2 L 7122,3 L 7124,5 L 7124,7 L 7125,10 L 7125,3650 L 7124,3654 L 7123,3656 L 7120,3659 L 7118,3660 L 7115,3660 L 9,3660 L 7,3660 L 5,3659 L 3,3658 L 2,3657 L 0,3655 L 0,3653 L 0,3650 L 0,944 L 0,10M 295,2299 L 298,2315 L 307,2328 L 320,2337 L 337,2341 L 455,2341 L 471,2338 L 484,2329 L 493,2316 L 497,2299 L 497,2181 L 494,2165 L 485,2151 L 472,2142 L 455,2139 L 337,2139 L 321,2142 L 307,2151 L 298,2164 L 295,2181 L 295,2299M 4252,2487 L 4209,2495 L 4172,2520 L 4016,2676 L 4009,2685 L 4001,2693 L 3997,2704 L 3991,2713 L 3989,2723 L 3985,2733 L 3985,2745 L 3983,2755 L 3985,2765 L 3985,2777 L 3989,2788 L 3991,2797 L 3997,2806 L 4001,2817 L 4009,2825 L 4015,2833 L 4023,2839 L 4032,2847 L 4043,2852 L 4051,2857 L 4061,2859 L 4072,2864 L 4083,2864 L 4093,2866 L 4103,2864 L 4115,2864 L 4126,2859 L 4136,2857 L 4144,2852 L 4155,2847 L 4163,2839 L 4173,2833 L 4294,2711 L 4296,2710 L 4298,2709 L 4301,2708 L 6012,2708 L 6014,2709 L 6017,2710 L 6019,2711 L 6061,2754 L 6098,2779 L 6141,2787 L 6966,2787 L 7009,2779 L 7045,2755 L 7069,2719 L 7078,2676 L 7069,2634 L 7045,2598 L 7009,2574 L 6966,2565 L 6190,2565 L 6188,2565 L 6185,2564 L 6183,2563 L 6141,2520 L 6104,2495 L 6061,2487 L 4252,2487M 5157,1803 L 6966,1803 L 7009,1794 L 7045,1770 L 7069,1735 L 7078,1692 L 7069,1650 L 7045,1614 L 7009,1590 L 6966,1581 L 5206,1581 L 5204,1581 L 5201,1580 L 5199,1578 L 5078,1457 L 5041,1433 L 4998,1424 L 4252,1424 L 4209,1433 L 4172,1457 L 4016,1613 L 4009,1622 L 4001,1630 L 3997,1641 L 3991,1650 L 3989,1660 L 3985,1670 L 3985,1682 L 3983,1692 L 3985,1702 L 3985,1714 L 3989,1725 L 3991,1735 L 3997,1743 L 4001,1754 L 4009,1762 L 4015,1770 L 4023,1776 L 4032,1784 L 4043,1789 L 4051,1794 L 4061,1797 L 4072,1801 L 4083,1801 L 4093,1803 L 4103,1801 L 4115,1801 L 4126,1797 L 4136,1794 L 4144,1789 L 4155,1785 L 4163,1776 L 4173,1770 L 4294,1649 L 4296,1647 L 4298,1646 L 4301,1646 L 4949,1646 L 4951,1646 L 4954,1647 L 4956,1649 L 5077,1770 L 5114,1794 L 5157,1803M 4094,780 L 5864,780 L 5907,771 L 5944,746 L 6105,586 L 6107,584 L 6109,583 L 6112,583 L 6799,583 L 6801,583 L 6804,584 L 6806,586 L 6888,668 L 6925,692 L 6967,701 L 7009,692 L 7045,668 L 7069,632 L 7078,590 L 7069,548 L 7045,511 L 6928,394 L 6891,370 L 6848,361 L 6063,361 L 6019,370 L 5983,394 L 5822,555 L 5820,557 L 5817,558 L 5815,558 L 4094,558 L 4084,560 L 4072,560 L 4061,564 L 4051,567 L 4043,572 L 4032,576 L 4023,585 L 4015,590 L 4009,599 L 4001,607 L 3997,618 L 3991,626 L 3989,636 L 3985,647 L 3985,659 L 3983,669 L 3985,679 L 3985,690 L 3989,701 L 3991,711 L 3997,720 L 4001,730 L 4009,739 L 4015,747 L 4023,753 L 4032,761 L 4043,766 L 4051,771 L 4061,773 L 4072,778 L 4083,778 L 4094,780M 440,2571 L 466,2597 L 474,2595 L 487,2560 L 485,2520 L 475,2496 L 466,2494 L 440,2520 L 441,2521 L 445,2533 L 446,2545 L 445,2558 L 441,2570 L 440,2571M 332,2520 L 306,2494 L 297,2496 L 287,2525 L 286,2526 L 285,2528 L 283,2530 L 281,2530 L 279,2531 L 277,2531 L 275,2531 L 273,2530 L 271,2529 L 270,2527 L 269,2525 L 268,2523 L 268,2521 L 268,1860 L 268,1858 L 269,1856 L 270,1854 L 271,1853 L 273,1851 L 275,1850 L 277,1850 L 279,1850 L 281,1851 L 283,1851 L 285,1853 L 286,1854 L 287,1856 L 288,1858 L 294,1888 L 318,1924 L 354,1948 L 397,1957 L 729,1957 L 732,1957 L 735,1959 L 780,1968 L 826,1959 L 864,1933 L 890,1895 L 899,1850 L 890,1804 L 864,1765 L 862,1763 L 822,1737 L 777,1728 L 737,1735 L 397,1735 L 354,1744 L 318,1768 L 294,1804 L 288,1834 L 287,1836 L 286,1838 L 285,1840 L 283,1841 L 281,1842 L 279,1842 L 277,1842 L 275,1842 L 273,1841 L 271,1840 L 270,1838 L 269,1836 L 268,1834 L 268,1832 L 268,1466 L 268,1464 L 269,1462 L 270,1460 L 271,1459 L 273,1458 L 275,1457 L 277,1456 L 279,1456 L 281,1457 L 283,1458 L 285,1459 L 286,1461 L 287,1462 L 288,1464 L 294,1495 L 318,1531 L 354,1555 L 397,1563 L 689,1563 L 692,1564 L 696,1566 L 741,1575 L 786,1566 L 825,1540 L 851,1501 L 860,1456 L 851,1411 L 824,1371 L 822,1369 L 783,1343 L 738,1334 L 698,1342 L 397,1342 L 354,1350 L 318,1374 L 294,1410 L 288,1441 L 287,1443 L 286,1444 L 285,1446 L 283,1447 L 281,1448 L 279,1449 L 277,1449 L 275,1448 L 273,1447 L 271,1446 L 270,1445 L 269,1443 L 268,1441 L 268,1439 L 268,1073 L 268,1071 L 269,1069 L 270,1067 L 271,1065 L 273,1064 L 275,1063 L 277,1063 L 279,1063 L 281,1063 L 283,1064 L 285,1065 L 286,1067 L 287,1069 L 288,1071 L 294,1101 L 318,1137 L 354,1161 L 397,1170 L 689,1170 L 692,1170 L 696,1172 L 741,1181 L 786,1172 L 825,1146 L 851,1108 L 860,1062 L 851,1017 L 824,978 L 822,976 L 792,955 L 790,954 L 789,952 L 788,950 L 788,948 L 788,946 L 788,944 L 789,942 L 790,940 L 792,939 L 793,938 L 795,937 L 798,937 L 1486,937 L 1488,937 L 1490,938 L 1492,939 L 1493,940 L 1494,942 L 1495,944 L 1496,946 L 1496,948 L 1495,950 L 1494,952 L 1493,954 L 1491,955 L 1458,978 L 1432,1017 L 1422,1062 L 1432,1108 L 1457,1146 L 1496,1172 L 1541,1181 L 1589,1172 L 1706,1172 L 1708,1172 L 1710,1173 L 1712,1174 L 1714,1175 L 1715,1177 L 1716,1179 L 1716,1181 L 1716,1184 L 1712,1200 L 1712,1322 L 1715,1333 L 1715,1336 L 1714,1338 L 1714,1340 L 1712,1342 L 1711,1343 L 1709,1344 L 1707,1345 L 1705,1345 L 1542,1345 L 1499,1354 L 1463,1378 L 1439,1414 L 1430,1456 L 1439,1498 L 1463,1534 L 1499,1558 L 1542,1567 L 1739,1567 L 1742,1567 L 1745,1569 L 1752,1574 L 1754,1575 L 1755,1577 L 1756,1579 L 1757,1581 L 1757,1583 L 1756,1585 L 1756,1587 L 1754,1589 L 1753,1590 L 1751,1591 L 1749,1592 L 1739,1594 L 1725,1603 L 1716,1616 L 1712,1633 L 1712,1729 L 1712,1731 L 1711,1733 L 1710,1735 L 1709,1737 L 1707,1738 L 1705,1739 L 1702,1739 L 1581,1739 L 1538,1747 L 1502,1771 L 1478,1807 L 1470,1850 L 1478,1892 L 1502,1928 L 1538,1952 L 1581,1961 L 1710,1961 L 1712,1961 L 1714,1962 L 1716,1963 L 1718,1965 L 1741,1999 L 1752,2007 L 1754,2008 L 1755,2010 L 1756,2012 L 1757,2014 L 1757,2016 L 1756,2018 L 1756,2020 L 1754,2022 L 1753,2023 L 1751,2024 L 1749,2025 L 1739,2027 L 1725,2036 L 1716,2049 L 1712,2066 L 1712,2188 L 1715,2204 L 1724,2217 L 1737,2226 L 1754,2230 L 1932,2230 L 1948,2227 L 1962,2218 L 1971,2205 L 1974,2188 L 1974,2066 L 1971,2050 L 1963,2036 L 1949,2027 L 1938,2025 L 1936,2024 L 1934,2023 L 1932,2022 L 1931,2020 L 1930,2018 L 1930,2016 L 1930,2014 L 1930,2012 L 1931,2010 L 1932,2008 L 1934,2007 L 1946,1999 L 1968,1966 L 1976,1927 L 1968,1888 L 1946,1855 L 1913,1833 L 1907,1832 L 1905,1831 L 1902,1829 L 1887,1814 L 1886,1812 L 1885,1810 L 1884,1808 L 1884,1806 L 1885,1804 L 1885,1802 L 1887,1800 L 1888,1799 L 1890,1798 L 1892,1797 L 1894,1797 L 1932,1797 L 1948,1794 L 1962,1785 L 1971,1772 L 1974,1755 L 1974,1633 L 1971,1617 L 1963,1603 L 1949,1594 L 1938,1592 L 1936,1591 L 1934,1590 L 1932,1589 L 1931,1587 L 1930,1585 L 1930,1583 L 1930,1581 L 1930,1579 L 1931,1577 L 1932,1575 L 1934,1574 L 1946,1566 L 1968,1533 L 1976,1494 L 1968,1455 L 1946,1422 L 1913,1400 L 1907,1399 L 1905,1398 L 1902,1396 L 1887,1381 L 1886,1379 L 1885,1377 L 1884,1375 L 1884,1373 L 1885,1371 L 1885,1369 L 1887,1367 L 1888,1366 L 1890,1365 L 1892,1364 L 1894,1364 L 1932,1364 L 1948,1361 L 1962,1352 L 1971,1339 L 1974,1322 L 1974,1200 L 1971,1184 L 1963,1170 L 1949,1161 L 1938,1159 L 1936,1158 L 1934,1157 L 1932,1156 L 1931,1154 L 1930,1152 L 1930,1150 L 1930,1148 L 1930,1146 L 1931,1144 L 1932,1142 L 1934,1141 L 1946,1133 L 1968,1100 L 1976,1061 L 1968,1022 L 1946,989 L 1913,967 L 1893,963 L 1890,961 L 1886,959 L 1877,957 L 1875,956 L 1873,955 L 1872,954 L 1870,952 L 1869,950 L 1869,948 L 1869,946 L 1869,944 L 1870,942 L 1872,940 L 1873,939 L 1875,938 L 1877,937 L 1879,937 L 2586,937 L 2588,937 L 2590,938 L 2592,939 L 2594,940 L 2595,942 L 2596,944 L 2596,946 L 2596,948 L 2596,950 L 2595,952 L 2593,954 L 2592,955 L 2577,965 L 2574,967 L 2541,989 L 2518,1022 L 2511,1061 L 2518,1100 L 2541,1133 L 2570,1152 L 2572,1154 L 2573,1156 L 2574,1158 L 2574,1160 L 2574,1162 L 2574,1164 L 2573,1166 L 2571,1168 L 2568,1170 L 2537,1195 L 2517,1231 L 2517,1232 L 2522,1241 L 2557,1241 L 2560,1233 L 2566,1223 L 2575,1214 L 2585,1207 L 2597,1202 L 2609,1199 L 2671,1199 L 2684,1200 L 2696,1204 L 2707,1210 L 2716,1218 L 2724,1228 L 2729,1239 L 2730,1241 L 2764,1241 L 2769,1232 L 2769,1231 L 2749,1194 L 2748,1192 L 2748,1190 L 2748,1188 L 2749,1185 L 2750,1183 L 2752,1182 L 2754,1181 L 2756,1180 L 2758,1180 L 2898,1180 L 2906,1181 L 2952,1172 L 2990,1146 L 3016,1108 L 3025,1062 L 3016,1017 L 2989,978 L 2956,955 L 2954,954 L 2953,952 L 2952,950 L 2952,948 L 2952,946 L 2952,944 L 2953,942 L 2954,940 L 2956,939 L 2957,938 L 2959,937 L 2962,937 L 3585,937 L 3587,937 L 3590,938 L 3591,939 L 3593,941 L 3594,943 L 3595,945 L 3595,947 L 3595,1061 L 3604,1105 L 3628,1141 L 3664,1165 L 3707,1173 L 4056,1173 L 4061,1175 L 4063,1176 L 4065,1177 L 4066,1179 L 4067,1181 L 4067,1183 L 4067,1185 L 4067,1187 L 4066,1189 L 4065,1191 L 4063,1192 L 4061,1193 L 4039,1202 L 4035,1212 L 4061,1238 L 4072,1233 L 4086,1230 L 4101,1230 L 4115,1233 L 4126,1238 L 4151,1212 L 4148,1203 L 4124,1194 L 4122,1193 L 4120,1191 L 4119,1190 L 4118,1188 L 4117,1186 L 4117,1184 L 4118,1181 L 4119,1180 L 4120,1178 L 4121,1176 L 4123,1175 L 4125,1175 L 4133,1173 L 6060,1173 L 6064,1173 L 6888,1173 L 6931,1164 L 6968,1140 L 7020,1088 L 7022,1086 L 7025,1085 L 7042,1082 L 7055,1073 L 7065,1060 L 7068,1043 L 7068,1031 L 7068,1028 L 7069,1026 L 7078,984 L 7069,941 L 7068,939 L 7068,936 L 7068,925 L 7065,909 L 7056,895 L 7043,886 L 7026,883 L 7014,883 L 7011,882 L 7010,882 L 6967,873 L 6924,882 L 6923,882 L 6920,883 L 6908,883 L 6892,886 L 6879,894 L 6869,908 L 6866,926 L 6865,928 L 6863,931 L 6846,948 L 6844,950 L 6841,951 L 6839,951 L 6063,951 L 6059,952 L 4136,952 L 4094,943 L 4052,952 L 3827,952 L 3825,951 L 3823,951 L 3821,949 L 3819,948 L 3818,946 L 3817,944 L 3817,942 L 3817,833 L 3808,790 L 3784,753 L 3779,749 L 3742,724 L 3699,715 L 276,715 L 233,724 L 196,749 L 79,865 L 55,902 L 46,945 L 46,3103 L 55,3146 L 79,3183 L 282,3386 L 284,3388 L 285,3391 L 288,3408 L 297,3421 L 310,3430 L 327,3434 L 339,3434 L 342,3434 L 343,3435 L 386,3443 L 429,3435 L 430,3434 L 433,3434 L 445,3434 L 461,3431 L 474,3422 L 483,3409 L 487,3392 L 487,3380 L 487,3377 L 488,3376 L 497,3333 L 488,3290 L 487,3288 L 487,3286 L 487,3274 L 484,3258 L 475,3244 L 462,3235 L 444,3232 L 441,3231 L 439,3229 L 271,3061 L 269,3059 L 268,3056 L 268,3054 L 268,2991 L 268,2989 L 269,2987 L 270,2985 L 271,2983 L 273,2982 L 275,2981 L 277,2981 L 279,2981 L 281,2981 L 283,2982 L 285,2984 L 286,2985 L 308,3018 L 516,3226 L 553,3251 L 596,3260 L 5954,3260 L 5956,3260 L 5959,3261 L 5961,3262 L 5962,3264 L 5971,3277 L 5984,3287 L 6001,3290 L 6021,3290 L 6063,3298 L 6849,3298 L 6892,3290 L 6929,3265 L 7020,3174 L 7022,3172 L 7025,3171 L 7042,3168 L 7055,3159 L 7065,3146 L 7068,3129 L 7068,3117 L 7068,3114 L 7069,3113 L 7078,3070 L 7069,3027 L 7068,3026 L 7068,3023 L 7068,3011 L 7065,2995 L 7056,2982 L 7043,2972 L 7026,2969 L 7014,2969 L 7011,2969 L 7010,2968 L 6967,2959 L 6924,2968 L 6923,2969 L 6920,2969 L 6908,2969 L 6892,2972 L 6879,2981 L 6869,2994 L 6866,3012 L 6865,3015 L 6863,3017 L 6807,3074 L 6804,3075 L 6802,3076 L 6799,3077 L 6112,3077 L 6109,3076 L 6107,3075 L 6105,3074 L 6102,3071 L 6065,3046 L 6022,3038 L 3866,3038 L 3864,3038 L 3862,3037 L 3860,3036 L 3858,3034 L 3857,3032 L 3857,3030 L 3856,3028 L 3856,2057 L 3857,2055 L 3857,2053 L 3858,2051 L 3860,2049 L 3862,2048 L 3864,2047 L 3866,2047 L 3883,2047 L 3885,2047 L 3888,2048 L 3890,2050 L 3981,2141 L 3982,2143 L 3983,2145 L 3984,2148 L 3984,2154 L 3987,2170 L 3995,2183 L 4009,2192 L 4026,2196 L 4051,2196 L 4093,2204 L 4133,2197 L 4891,2197 L 4894,2197 L 4896,2198 L 4898,2199 L 4900,2201 L 4908,2215 L 4921,2224 L 4938,2227 L 4959,2227 L 5000,2236 L 6927,2236 L 6971,2227 L 7007,2202 L 7020,2190 L 7022,2188 L 7025,2187 L 7042,2184 L 7055,2175 L 7065,2162 L 7068,2145 L 7068,2133 L 7068,2130 L 7069,2129 L 7078,2086 L 7069,2043 L 7068,2041 L 7068,2039 L 7068,2027 L 7065,2011 L 7056,1997 L 7043,1988 L 7026,1985 L 7014,1985 L 7011,1984 L 7010,1984 L 6967,1975 L 6924,1984 L 6923,1984 L 6920,1985 L 6908,1985 L 6892,1988 L 6879,1997 L 6870,2009 L 6868,2011 L 6866,2013 L 6864,2014 L 6862,2014 L 5049,2014 L 5046,2013 L 5044,2012 L 5042,2011 L 5039,2008 L 5002,1984 L 4959,1975 L 4155,1975 L 4152,1975 L 4150,1974 L 4148,1972 L 4021,1845 L 3981,1819 L 3935,1810 L 3874,1810 L 3872,1809 L 3870,1809 L 3868,1808 L 3866,1806 L 3865,1804 L 3864,1802 L 3864,1800 L 3864,1496 L 3855,1450 L 3829,1412 L 3791,1386 L 3745,1377 L 3700,1386 L 3662,1412 L 3636,1450 L 3627,1496 L 3627,1927 L 3635,1968 L 3635,3028 L 3634,3030 L 3634,3032 L 3632,3034 L 3631,3036 L 3629,3037 L 3627,3038 L 3625,3038 L 646,3038 L 643,3038 L 641,3037 L 638,3035 L 465,2861 L 428,2837 L 386,2828 L 344,2837 L 308,2861 L 286,2893 L 285,2895 L 283,2896 L 281,2897 L 279,2897 L 277,2898 L 275,2897 L 273,2896 L 271,2895 L 270,2894 L 269,2892 L 268,2890 L 268,2888 L 268,2574 L 268,2572 L 269,2570 L 270,2569 L 271,2567 L 273,2566 L 275,2565 L 277,2564 L 279,2565 L 281,2565 L 283,2566 L 285,2567 L 286,2569 L 287,2571 L 297,2595 L 306,2597 L 332,2571 L 331,2570 L 327,2558 L 326,2545 L 327,2533 L 331,2521 L 332,2520M 360,2492 L 367,2488 L 380,2486 L 392,2486 L 404,2488 L 412,2492 L 438,2465 L 435,2457 L 401,2445 L 361,2447 L 337,2457 L 334,2465 L 360,2492M 412,2599 L 404,2603 L 392,2605 L 380,2605 L 367,2603 L 360,2599 L 334,2626 L 337,2634 L 371,2646 L 411,2644 L 435,2634 L 438,2626 L 412,2599M 2730,2107 L 2764,2107 L 2769,2098 L 2769,2097 L 2750,2061 L 2743,2055 L 2741,2054 L 2740,2052 L 2739,2050 L 2739,2048 L 2739,2045 L 2740,2043 L 2741,2041 L 2743,2040 L 2744,2039 L 2747,2038 L 2749,2038 L 2898,2038 L 2946,2047 L 2991,2038 L 3029,2012 L 3055,1974 L 3064,1928 L 3055,1883 L 3029,1844 L 2989,1817 L 2944,1808 L 2904,1816 L 2644,1816 L 2601,1825 L 2597,1827 L 2593,1829 L 2574,1833 L 2541,1855 L 2518,1888 L 2511,1927 L 2518,1966 L 2541,1999 L 2570,2018 L 2572,2020 L 2573,2022 L 2574,2024 L 2574,2026 L 2574,2028 L 2574,2030 L 2573,2032 L 2571,2034 L 2568,2036 L 2537,2061 L 2517,2097 L 2517,2098 L 2522,2107 L 2557,2107 L 2560,2100 L 2566,2089 L 2575,2080 L 2585,2073 L 2597,2068 L 2609,2065 L 2671,2065 L 2684,2066 L 2696,2070 L 2707,2076 L 2716,2084 L 2724,2094 L 2729,2105 L 2730,2107M 2730,2147 L 2727,2154 L 2720,2165 L 2712,2174 L 2701,2181 L 2690,2186 L 2677,2188 L 2663,2189 L 2663,2229 L 2680,2229 L 2719,2217 L 2750,2192 L 2769,2157 L 2769,2156 L 2764,2147 L 2730,2147M 2557,2147 L 2522,2147 L 2517,2156 L 2517,2157 L 2537,2192 L 2568,2217 L 2607,2229 L 2623,2229 L 2623,2189 L 2615,2189 L 2603,2188 L 2591,2184 L 2580,2178 L 2570,2170 L 2563,2160 L 2557,2148 L 2557,2147M 2730,1714 L 2727,1721 L 2720,1732 L 2712,1741 L 2701,1748 L 2690,1753 L 2677,1755 L 2663,1756 L 2663,1796 L 2680,1796 L 2719,1784 L 2750,1759 L 2769,1724 L 2769,1723 L 2764,1714 L 2730,1714M 2730,1674 L 2764,1674 L 2769,1665 L 2769,1664 L 2750,1628 L 2743,1622 L 2741,1621 L 2740,1619 L 2739,1617 L 2739,1615 L 2739,1612 L 2740,1610 L 2741,1608 L 2743,1607 L 2744,1606 L 2747,1605 L 2749,1605 L 2898,1605 L 2946,1614 L 2991,1605 L 3029,1579 L 3055,1541 L 3064,1495 L 3055,1450 L 3029,1411 L 2989,1384 L 2944,1375 L 2904,1383 L 2644,1383 L 2601,1392 L 2597,1394 L 2593,1396 L 2574,1400 L 2541,1422 L 2518,1455 L 2511,1494 L 2518,1533 L 2541,1566 L 2570,1585 L 2572,1587 L 2573,1589 L 2574,1591 L 2574,1593 L 2574,1595 L 2574,1597 L 2573,1599 L 2571,1601 L 2568,1603 L 2537,1628 L 2517,1664 L 2517,1665 L 2522,1674 L 2557,1674 L 2560,1666 L 2566,1656 L 2575,1647 L 2585,1640 L 2597,1635 L 2609,1632 L 2671,1632 L 2684,1633 L 2696,1637 L 2707,1643 L 2716,1651 L 2724,1661 L 2729,1672 L 2730,1674M 2730,1281 L 2727,1288 L 2720,1299 L 2712,1308 L 2701,1315 L 2690,1320 L 2677,1322 L 2663,1323 L 2663,1363 L 2680,1363 L 2719,1351 L 2750,1326 L 2769,1291 L 2769,1290 L 2764,1281 L 2730,1281M 2557,1714 L 2522,1714 L 2517,1723 L 2517,1724 L 2537,1759 L 2568,1784 L 2607,1796 L 2623,1796 L 2623,1756 L 2615,1756 L 2603,1755 L 2591,1751 L 2580,1745 L 2570,1737 L 2563,1727 L 2557,1715 L 2557,1714M 2557,1281 L 2522,1281 L 2517,1290 L 2517,1291 L 2537,1326 L 2568,1351 L 2607,1363 L 2623,1363 L 2623,1323 L 2615,1323 L 2603,1322 L 2591,1318 L 2580,1312 L 2570,1303 L 2563,1294 L 2557,1282 L 2557,1281M 4126,2301 L 4151,2275 L 4148,2266 L 4110,2252 L 4067,2254 L 4039,2265 L 4035,2275 L 4061,2301 L 4072,2296 L 4086,2293 L 4101,2293 L 4115,2296 L 4126,2301M 4033,2394 L 4030,2389 L 4026,2376 L 4025,2361 L 4026,2347 L 4030,2333 L 4033,2329 L 4007,2303 L 3998,2306 L 3984,2344 L 3986,2388 L 3997,2416 L 4007,2419 L 4033,2394M 4154,2394 L 4180,2419 L 4189,2416 L 4203,2378 L 4201,2335 L 4190,2307 L 4180,2303 L 4154,2329 L 4156,2333 L 4161,2347 L 4162,2361 L 4161,2376 L 4156,2389 L 4154,2394M 4061,2422 L 4035,2448 L 4038,2457 L 4076,2471 L 4120,2469 L 4148,2458 L 4151,2448 L 4126,2422 L 4115,2427 L 4101,2430 L 4086,2430 L 4072,2427 L 4061,2422M 4061,1359 L 4035,1385 L 4038,1394 L 4076,1408 L 4120,1406 L 4148,1395 L 4151,1385 L 4126,1359 L 4115,1364 L 4101,1367 L 4086,1367 L 4072,1364 L 4061,1359M 4033,1331 L 4030,1327 L 4026,1313 L 4025,1299 L 4026,1284 L 4030,1271 L 4033,1266 L 4007,1241 L 3998,1244 L 3984,1282 L 3986,1325 L 3997,1353 L 4007,1357 L 4033,1331M 4154,1266 L 4156,1271 L 4161,1284 L 4162,1299 L 4161,1313 L 4156,1327 L 4154,1331 L 4180,1357 L 4189,1354 L 4203,1316 L 4201,1272 L 4190,1244 L 4180,1241 L 4154,1266M 4033,307 L 4030,303 L 4026,289 L 4025,275 L 4026,261 L 4030,247 L 4033,243 L 4007,217 L 3998,220 L 3984,258 L 3986,302 L 3997,330 L 4007,333 L 4033,307M 4154,243 L 4156,247 L 4161,261 L 4162,275 L 4161,289 L 4156,303 L 4154,307 L 4180,333 L 4189,330 L 4203,292 L 4201,249 L 4190,220 L 4180,217 L 4154,243M 4126,214 L 4151,189 L 4148,179 L 4110,165 L 4067,167 L 4039,179 L 4035,189 L 4061,214 L 4072,210 L 4086,207 L 4101,207 L 4115,210 L 4126,214M 4061,336 L 4035,361 L 4038,371 L 4076,385 L 4120,383 L 4148,371 L 4151,361 L 4126,336 L 4115,341 L 4101,344 L 4086,344 L 4072,341 L 4061,336 z " style="fill-opacity:1.000000;fill:rgb(205,186,171);stroke:rgb(0,0,0);stroke-width:2"/></g>
<g fill-rule="evenodd"><path d="M 336,2300 L 336,2180 L 456,2180 L 456,2300 L 336,2300 z " style="fill-opacity:1.000000;fill:rgb(242,251,227);stroke:rgb(0,0,0);stroke-width:2"/></g>
<g fill-rule="evenodd"><path d="M 1753,2189 L 1753,2065 L 1933,2065 L 1933,2189 L 1753,2189 z " style="fill-opacity:1.000000;fill:rgb(70,124,194);stroke:rgb(0,0,0);stroke-width:2"/></g>
<g fill-rule="evenodd"><path d="M 1753,1756 L 1753,1632 L 1933,1632 L 1933,1756 L 1753,1756 z " style="fill-opacity:1.000000;fill:rgb(84,248,27);stroke:rgb(0,0,0);stroke-width:2"/></g>
<g fill-rule="evenodd"><path d="M 1753,1323 L 1753,1199 L 1933,1199 L 1933,1323 L 1753,1323 z " style="fill-opacity:1.000000;fill:rgb(232,231,141);stroke:rgb(0,0,0);stroke-width:2"/></g>
<g fill-rule="evenodd"><path d="M 1883,1866 L 1884,1866 L 1896,1870 L 1907,1876 L 1916,1884 L 1924,1894 L 1929,1905 L 1933,1917 L 1933,1930 L 1931,1942 L 1927,1954 L 1920,1965 L 1912,1974 L 1901,1981 L 1890,1986 L 1878,1988 L 1876,1990 L 1862,1995 L 1847,1998 L 1832,1997 L 1818,1993 L 1808,1988 L 1803,1988 L 1791,1984 L 1780,1978 L 1770,1970 L 1763,1960 L 1757,1948 L 1755,1938 L 1737,1921 L 1580,1921 L 1566,1919 L 1552,1914 L 1539,1907 L 1528,1897 L 1519,1885 L 1513,1872 L 1510,1857 L 1510,1842 L 1513,1828 L 1519,1814 L 1528,1802 L 1539,1792 L 1552,1785 L 1566,1780 L 1580,1779 L 1766,1779 L 1785,1781 L 1802,1788 L 1816,1800 L 1883,1866 z " style="fill-opacity:1.000000;fill:rgb(118,90,46);stroke:rgb(0,0,0);stroke-width:2"/></g>
<g fill-rule="evenodd"><path d="M 1763,1527 L 1541,1527 L 1526,1525 L 1512,1521 L 1499,1513 L 1488,1503 L 1480,1491 L 1474,1478 L 1471,1463 L 1471,1449 L 1474,1434 L 1480,1421 L 1488,1409 L 1499,1399 L 1512,1391 L 1526,1387 L 1541,1385 L 1806,1385 L 1824,1388 L 1841,1395 L 1856,1406 L 1883,1433 L 1884,1433 L 1896,1437 L 1907,1443 L 1916,1451 L 1924,1461 L 1929,1472 L 1933,1484 L 1933,1497 L 1931,1509 L 1927,1521 L 1920,1532 L 1912,1541 L 1901,1548 L 1890,1553 L 1878,1555 L 1876,1557 L 1862,1562 L 1847,1565 L 1832,1564 L 1818,1560 L 1808,1555 L 1803,1555 L 1791,1551 L 1780,1545 L 1770,1537 L 1763,1527 z " style="fill-opacity:1.000000;fill:rgb(99,51,159);stroke:rgb(0,0,0);stroke-width:2"/></g>
<g fill-rule="evenodd"><path d="M 743,1775 L 757,1770 L 773,1768 L 789,1768 L 805,1773 L 820,1780 L 833,1790 L 836,1794 L 847,1807 L 854,1821 L 858,1837 L 859,1854 L 857,1870 L 851,1885 L 842,1899 L 830,1911 L 816,1920 L 801,1926 L 785,1928 L 768,1927 L 752,1923 L 740,1917 L 396,1917 L 381,1915 L 367,1911 L 354,1903 L 343,1894 L 335,1882 L 329,1868 L 325,1854 L 325,1839 L 329,1824 L 335,1811 L 343,1799 L 354,1789 L 367,1781 L 381,1777 L 396,1775 L 743,1775 z " style="fill-opacity:1.000000;fill:rgb(201,154,102);stroke:rgb(0,0,0);stroke-width:2"/></g>
<g fill-rule="evenodd"><path d="M 2909,1998 L 2643,1998 L 2628,1996 L 2614,1992 L 2608,1988 L 2603,1988 L 2591,1984 L 2580,1978 L 2570,1970 L 2563,1960 L 2557,1948 L 2554,1936 L 2553,1924 L 2555,1911 L 2560,1900 L 2566,1889 L 2575,1880 L 2585,1873 L 2597,1868 L 2609,1865 L 2614,1862 L 2628,1858 L 2643,1856 L 2910,1856 L 2924,1851 L 2940,1848 L 2956,1849 L 2972,1853 L 2987,1861 L 3000,1871 L 3001,1873 L 3012,1885 L 3019,1900 L 3023,1916 L 3024,1932 L 3022,1949 L 3016,1964 L 3007,1978 L 2995,1990 L 2981,1999 L 2966,2004 L 2950,2007 L 2933,2006 L 2917,2002 L 2909,1998 z " style="fill-opacity:1.000000;fill:rgb(50,13,183);stroke:rgb(0,0,0);stroke-width:2"/></g>
<g fill-rule="evenodd"><path d="M 1578,1132 L 1569,1136 L 1553,1140 L 1537,1141 L 1521,1138 L 1505,1133 L 1491,1124 L 1480,1112 L 1471,1098 L 1465,1083 L 1462,1067 L 1463,1050 L 1468,1034 L 1475,1020 L 1485,1007 L 1487,1005 L 1500,995 L 1514,987 L 1530,983 L 1547,982 L 1563,985 L 1576,990 L 1843,990 L 1858,992 L 1872,996 L 1878,1000 L 1884,1000 L 1896,1004 L 1907,1010 L 1916,1018 L 1924,1028 L 1929,1039 L 1933,1051 L 1933,1064 L 1931,1076 L 1927,1088 L 1920,1099 L 1912,1108 L 1901,1115 L 1890,1120 L 1877,1122 L 1872,1126 L 1858,1130 L 1843,1132 L 1578,1132 z " style="fill-opacity:1.000000;fill:rgb(49,88,163);stroke:rgb(0,0,0);stroke-width:2"/></g>
<g fill-rule="evenodd"><path d="M 701,1523 L 396,1523 L 381,1522 L 367,1517 L 354,1510 L 343,1500 L 335,1488 L 329,1474 L 325,1460 L 325,1445 L 329,1431 L 335,1417 L 343,1405 L 354,1395 L 367,1388 L 381,1383 L 396,1382 L 704,1382 L 717,1376 L 733,1374 L 750,1375 L 766,1379 L 780,1386 L 793,1397 L 797,1400 L 807,1413 L 815,1428 L 819,1444 L 820,1460 L 817,1476 L 811,1492 L 802,1506 L 791,1517 L 777,1526 L 761,1532 L 745,1535 L 729,1534 L 713,1530 L 701,1523 z " style="fill-opacity:1.000000;fill:rgb(90,37,93);stroke:rgb(0,0,0);stroke-width:2"/></g>
<g fill-rule="evenodd"><path d="M 701,1130 L 396,1130 L 381,1128 L 367,1124 L 354,1116 L 343,1106 L 335,1094 L 329,1081 L 325,1066 L 325,1051 L 329,1037 L 335,1023 L 343,1011 L 354,1002 L 367,994 L 381,990 L 396,988 L 704,988 L 717,983 L 733,980 L 750,981 L 766,985 L 780,993 L 793,1003 L 797,1007 L 807,1020 L 815,1034 L 819,1050 L 820,1067 L 817,1083 L 811,1098 L 802,1112 L 791,1124 L 777,1133 L 761,1138 L 745,1141 L 729,1140 L 713,1136 L 701,1130 z " style="fill-opacity:1.000000;fill:rgb(5,23,88);stroke:rgb(0,0,0);stroke-width:2"/></g>
<g fill-rule="evenodd"><path d="M 2909,1565 L 2643,1565 L 2628,1563 L 2614,1559 L 2608,1555 L 2603,1555 L 2591,1551 L 2580,1545 L 2570,1537 L 2563,1527 L 2557,1515 L 2554,1503 L 2553,1491 L 2555,1478 L 2560,1467 L 2566,1456 L 2575,1447 L 2585,1440 L 2597,1435 L 2609,1432 L 2614,1429 L 2628,1425 L 2643,1423 L 2910,1423 L 2924,1418 L 2940,1415 L 2956,1416 L 2972,1420 L 2987,1428 L 3000,1438 L 3001,1440 L 3012,1452 L 3019,1467 L 3023,1483 L 3024,1499 L 3022,1516 L 3016,1531 L 3007,1545 L 2995,1557 L 2981,1566 L 2966,1571 L 2950,1574 L 2933,1573 L 2917,1569 L 2909,1565 z " style="fill-opacity:1.000000;fill:rgb(233,94,212);stroke:rgb(0,0,0);stroke-width:2"/></g>
<g fill-rule="evenodd"><path d="M 2587,1116 L 2580,1112 L 2570,1104 L 2563,1094 L 2557,1082 L 2554,1070 L 2553,1058 L 2555,1045 L 2560,1034 L 2566,1023 L 2575,1014 L 2585,1007 L 2588,1006 L 2597,997 L 2611,989 L 2627,984 L 2643,982 L 2905,982 L 2925,985 L 2944,993 L 2960,1005 L 2962,1007 L 2972,1020 L 2980,1034 L 2984,1050 L 2985,1067 L 2982,1083 L 2976,1098 L 2967,1112 L 2956,1124 L 2942,1133 L 2927,1138 L 2910,1141 L 2894,1140 L 2892,1140 L 2643,1140 L 2627,1138 L 2611,1133 L 2597,1125 L 2587,1116 z " style="fill-opacity:1.000000;fill:rgb(171,178,205);stroke:rgb(0,0,0);stroke-width:2"/></g>
<g fill-rule="evenodd"><path d="M 4134,2015 L 4960,2015 L 4978,2017 L 4995,2025 L 5010,2036 L 5028,2054 L 6899,2054 L 6907,2046 L 6907,2026 L 6930,2026 L 6942,2020 L 6956,2016 L 6971,2015 L 6985,2017 L 6999,2023 L 7004,2026 L 7027,2026 L 7027,2049 L 7030,2054 L 7035,2068 L 7038,2082 L 7037,2097 L 7033,2111 L 7027,2123 L 7027,2146 L 7007,2146 L 6978,2175 L 6964,2186 L 6947,2193 L 6928,2196 L 4999,2196 L 4980,2193 L 4964,2186 L 4937,2186 L 4937,2163 L 4931,2157 L 4127,2157 L 4114,2162 L 4098,2164 L 4081,2164 L 4065,2159 L 4056,2155 L 4025,2155 L 4025,2128 L 3903,2007 L 3816,2007 L 3816,3078 L 6023,3078 L 6041,3080 L 6058,3087 L 6073,3099 L 6091,3117 L 6820,3117 L 6907,3030 L 6907,3010 L 6930,3010 L 6942,3004 L 6956,3000 L 6971,2999 L 6985,3002 L 6999,3007 L 7004,3010 L 7027,3010 L 7027,3033 L 7030,3038 L 7035,3052 L 7038,3066 L 7037,3081 L 7033,3095 L 7027,3107 L 7027,3130 L 7007,3130 L 6900,3238 L 6885,3249 L 6868,3256 L 6849,3258 L 6062,3258 L 6043,3256 L 6027,3249 L 6000,3249 L 6000,3226 L 5993,3220 L 595,3220 L 577,3217 L 560,3210 L 545,3199 L 336,2989 L 326,2978 L 320,2965 L 316,2950 L 315,2935 L 317,2921 L 323,2907 L 331,2895 L 341,2884 L 354,2876 L 368,2871 L 382,2868 L 397,2869 L 411,2873 L 424,2880 L 436,2889 L 625,3078 L 3675,3078 L 3675,1963 L 3669,1946 L 3667,1928 L 3667,1495 L 3668,1479 L 3674,1463 L 3682,1449 L 3693,1437 L 3706,1427 L 3721,1421 L 3737,1417 L 3754,1417 L 3770,1421 L 3785,1427 L 3798,1437 L 3809,1449 L 3817,1463 L 3822,1479 L 3824,1495 L 3824,1850 L 3936,1850 L 3956,1852 L 3975,1860 L 3992,1873 L 4134,2015 z " style="fill-opacity:1.000000;fill:rgb(198,155,180);stroke:rgb(0,0,0);stroke-width:2"/></g>
<g fill-rule="evenodd"><path d="M 4127,1133 L 4122,1136 L 4106,1140 L 4089,1141 L 4073,1138 L 4060,1133 L 3706,1133 L 3690,1131 L 3675,1126 L 3662,1118 L 3651,1107 L 3642,1093 L 3637,1078 L 3635,1062 L 3635,897 L 304,897 L 228,974 L 228,3074 L 426,3273 L 446,3273 L 446,3295 L 452,3307 L 456,3322 L 457,3336 L 454,3351 L 449,3365 L 446,3370 L 446,3393 L 423,3393 L 418,3396 L 404,3401 L 390,3404 L 375,3403 L 361,3399 L 348,3393 L 326,3393 L 326,3373 L 107,3154 L 96,3139 L 89,3122 L 86,3104 L 86,944 L 89,926 L 96,909 L 107,894 L 225,776 L 240,765 L 257,758 L 275,755 L 3700,755 L 3718,758 L 3735,765 L 3750,776 L 3756,782 L 3767,797 L 3775,814 L 3777,832 L 3777,992 L 4059,992 L 4066,988 L 4082,984 L 4098,983 L 4114,986 L 4129,992 L 6057,992 L 6062,991 L 6860,991 L 6907,943 L 6907,924 L 6930,924 L 6942,918 L 6956,914 L 6971,913 L 6985,915 L 6999,921 L 7004,924 L 7027,924 L 7027,947 L 7030,951 L 7035,965 L 7038,980 L 7037,995 L 7033,1009 L 7027,1021 L 7027,1044 L 7007,1044 L 6939,1112 L 6924,1123 L 6907,1130 L 6889,1133 L 6065,1133 L 6061,1133 L 4127,1133 z " style="fill-opacity:1.000000;fill:rgb(84,17,14);stroke:rgb(0,0,0);stroke-width:2"/></g>
</svg>
