<?xml version="1.0" standalone="no"?>
<!DOCTYPE svg PUBLIC "-//W3C//DTD SVG 1.1//EN"
"http://www.w3.org/Graphics/SVG/1.1/DTD/svg11.dtd">
<svg width="7141" height="3719" viewBox="0 0 7141 3719" version="1.1"
xmlns="http://www.w3.org/2000/svg"
xmlns:xlink="http://www.w3.org/1999/xlink">
<g fill-rule="evenodd"><path d="M 4291,2684 L 4157,2818 L 4156,2819 L 4145,2828 L 4144,2829 L 4130,2836 L 4129,2836 L 4114,2840 L 4113,2840 L 4098,2841 L 4096,2841 L 4082,2839 L 4080,2838 L 4066,2833 L 4065,2832 L 4052,2824 L 4051,2823 L 4041,2813 L 4040,2812 L 4032,2799 L 4031,2798 L 4026,2784 L 4025,2782 L 4023,2768 L 4023,2766 L 4024,2751 L 4024,2750 L 4028,2735 L 4028,2734 L 4035,2720 L 4036,2719 L 4045,2708 L 4046,2707 L 4203,2550 L 4204,2549 L 4219,2538 L 4220,2537 L 4237,2529 L 4239,2529 L 4258,2527 L 4259,2526 L 6069,2526 L 6070,2527 L 6089,2529 L 6091,2529 L 6108,2537 L 6110,2538 L 6124,2549 L 6125,2550 L 6181,2605 L 6975,2605 L 6976,2605 L 6990,2607 L 6992,2607 L 7006,2612 L 7007,2612 L 7020,2620 L 7022,2621 L 7033,2631 L 7034,2632 L 7042,2644 L 7043,2645 L 7049,2659 L 7050,2660 L 7053,2675 L 7053,2677 L 7053,2691 L 7053,2693 L 7050,2707 L 7049,2709 L 7043,2723 L 7042,2724 L 7034,2736 L 7033,2737 L 7022,2747 L 7020,2748 L 7007,2755 L 7006,2756 L 6992,2761 L 6990,2761 L 6976,2763 L 6975,2763 L 6148,2763 L 6147,2763 L 6129,2760 L 6127,2760 L 6110,2753 L 6108,2752 L 6093,2740 L 6092,2740 L 6037,2684 L 4291,2684 z " style="fill-opacity:1.000000;fill:rgb(103,198,105);stroke:rgb(0,0,0);stroke-width:2"/></g>
<g fill-rule="evenodd"><path d="M 5197,1621 L 6975,1621 L 6976,1621 L 6990,1623 L 6992,1623 L 7006,1628 L 7007,1628 L 7020,1636 L 7022,1637 L 7033,1647 L 7034,1648 L 7042,1660 L 7043,1661 L 7049,1675 L 7050,1676 L 7053,1691 L 7053,1692 L 7053,1707 L 7053,1709 L 7050,1723 L 7049,1725 L 7043,1739 L 7042,1740 L 7034,1752 L 7033,1753 L 7022,1763 L 7020,1764 L 7007,1771 L 7006,1772 L 6992,1777 L 6990,1777 L 6976,1779 L 6975,1779 L 5164,1779 L 5163,1779 L 5145,1776 L 5143,1776 L 5126,1769 L 5124,1767 L 5109,1756 L 5108,1756 L 4974,1621 L 4291,1621 L 4157,1756 L 4156,1756 L 4145,1765 L 4144,1766 L 4130,1773 L 4129,1774 L 4114,1777 L 4113,1778 L 4098,1779 L 4096,1778 L 4082,1776 L 4080,1776 L 4066,1770 L 4065,1770 L 4052,1762 L 4051,1761 L 4041,1750 L 4040,1749 L 4032,1736 L 4031,1735 L 4026,1721 L 4025,1719 L 4023,1705 L 4023,1703 L 4024,1688 L 4024,1687 L 4028,1672 L 4028,1671 L 4035,1658 L 4036,1656 L 4045,1645 L 4046,1644 L 4203,1487 L 4204,1486 L 4219,1475 L 4220,1474 L 4237,1467 L 4239,1466 L 4258,1464 L 4259,1464 L 5007,1464 L 5008,1464 L 5026,1466 L 5028,1467 L 5045,1474 L 5047,1475 L 5062,1486 L 5062,1487 L 5197,1621 z " style="fill-opacity:1.000000;fill:rgb(115,81,255);stroke:rgb(0,0,0);stroke-width:2"/></g>
<g fill-rule="evenodd"><path d="M 5840,598 L 6014,424 L 6015,423 L 6029,412 L 6031,411 L 6048,404 L 6050,403 L 6068,401 L 6069,401 L 6857,401 L 6858,401 L 6876,403 L 6878,404 L 6895,411 L 6897,412 L 6912,423 L 6912,424 L 7030,542 L 7031,543 L 7040,554 L 7041,556 L 7048,569 L 7048,570 L 7052,585 L 7053,586 L 7053,601 L 7053,603 L 7051,617 L 7051,619 L 7045,633 L 7044,634 L 7036,647 L 7035,648 L 7025,658 L 7024,659 L 7011,668 L 7010,668 L 6996,674 L 6994,674 L 6980,676 L 6978,676 L 6963,676 L 6962,675 L 6947,672 L 6946,671 L 6933,664 L 6931,663 L 6920,654 L 6919,653 L 6824,558 L 6102,558 L 5928,732 L 5928,733 L 5913,744 L 5911,745 L 5894,752 L 5892,753 L 5874,755 L 5873,755 L 4101,755 L 4101,755 L 4086,754 L 4084,753 L 4070,749 L 4069,748 L 4056,741 L 4054,740 L 4043,730 L 4042,729 L 4034,717 L 4033,715 L 4027,702 L 4026,700 L 4023,686 L 4023,684 L 4023,669 L 4023,667 L 4026,653 L 4027,651 L 4033,638 L 4034,636 L 4042,624 L 4043,623 L 4054,613 L 4056,612 L 4069,605 L 4070,604 L 4084,600 L 4086,599 L 4101,598 L 4101,598 L 5840,598 z " style="fill-opacity:1.000000;fill:rgb(74,236,41);stroke:rgb(0,0,0);stroke-width:2"/></g>
<g fill-rule="evenodd"><path d="M 336,2307 L 336,2187 L 337,2186 L 337,2184 L 338,2183 L 339,2181 L 341,2180 L 342,2180 L 344,2180 L 464,2180 L 466,2180 L 468,2180 L 469,2181 L 470,2183 L 471,2184 L 472,2186 L 472,2187 L 472,2307 L 472,2309 L 471,2311 L 470,2312 L 469,2314 L 468,2314 L 466,2315 L 464,2315 L 344,2315 L 342,2315 L 341,2314 L 339,2314 L 338,2312 L 337,2311 L 337,2309 L 336,2307 z " style="fill-opacity:1.000000;fill:rgb(205,186,171);stroke:rgb(0,0,0);stroke-width:2"/></g>
<g fill-rule="evenodd"><path d="M 1754,2196 L 1754,2072 L 1754,2071 L 1754,2069 L 1755,2068 L 1757,2066 L 1758,2065 L 1760,2065 L 1762,2065 L 1941,2065 L 1943,2065 L 1945,2065 L 1946,2066 L 1948,2068 L 1949,2069 L 1949,2071 L 1949,2072 L 1949,2196 L 1949,2198 L 1949,2200 L 1948,2201 L 1946,2203 L 1945,2204 L 1943,2204 L 1941,2204 L 1762,2204 L 1760,2204 L 1758,2204 L 1757,2203 L 1755,2201 L 1754,2200 L 1754,2198 L 1754,2196 z " style="fill-opacity:1.000000;fill:rgb(242,251,227);stroke:rgb(0,0,0);stroke-width:2"/></g>
<g fill-rule="evenodd"><path d="M 1754,1763 L 1754,1639 L 1754,1638 L 1754,1636 L 1755,1635 L 1757,1633 L 1758,1632 L 1760,1632 L 1762,1632 L 1941,1632 L 1943,1632 L 1945,1632 L 1946,1633 L 1948,1635 L 1949,1636 L 1949,1638 L 1949,1639 L 1949,1763 L 1949,1765 L 1949,1767 L 1948,1768 L 1946,1770 L 1945,1771 L 1943,1771 L 1941,1771 L 1762,1771 L 1760,1771 L 1758,1771 L 1757,1770 L 1755,1768 L 1754,1767 L 1754,1765 L 1754,1763 z " style="fill-opacity:1.000000;fill:rgb(70,124,194);stroke:rgb(0,0,0);stroke-width:2"/></g>
<g fill-rule="evenodd"><path d="M 1754,1330 L 1754,1207 L 1754,1205 L 1754,1203 L 1755,1202 L 1757,1200 L 1758,1199 L 1760,1199 L 1762,1199 L 1941,1199 L 1943,1199 L 1945,1199 L 1946,1200 L 1948,1202 L 1949,1203 L 1949,1205 L 1949,1207 L 1949,1330 L 1949,1332 L 1949,1334 L 1948,1335 L 1946,1337 L 1945,1338 L 1943,1338 L 1941,1338 L 1762,1338 L 1760,1338 L 1758,1338 L 1757,1337 L 1755,1335 L 1754,1334 L 1754,1332 L 1754,1330 z " style="fill-opacity:1.000000;fill:rgb(84,248,27);stroke:rgb(0,0,0);stroke-width:2"/></g>
<g fill-rule="evenodd"><path d="M 1742,1936 L 1589,1936 L 1588,1936 L 1573,1934 L 1571,1934 L 1557,1930 L 1556,1929 L 1543,1921 L 1542,1921 L 1531,1911 L 1530,1909 L 1521,1897 L 1520,1896 L 1514,1882 L 1513,1881 L 1510,1866 L 1510,1865 L 1510,1850 L 1510,1848 L 1513,1834 L 1514,1832 L 1520,1819 L 1521,1817 L 1530,1805 L 1531,1804 L 1542,1794 L 1543,1793 L 1556,1786 L 1557,1785 L 1571,1781 L 1573,1780 L 1588,1779 L 1589,1779 L 1774,1779 L 1775,1779 L 1794,1781 L 1796,1782 L 1813,1789 L 1815,1790 L 1829,1801 L 1830,1802 L 1895,1866 L 1906,1870 L 1908,1871 L 1919,1877 L 1920,1878 L 1930,1886 L 1931,1887 L 1938,1897 L 1939,1898 L 1945,1909 L 1945,1911 L 1948,1923 L 1949,1925 L 1949,1937 L 1949,1939 L 1947,1951 L 1947,1953 L 1943,1965 L 1942,1966 L 1935,1977 L 1934,1978 L 1926,1987 L 1924,1988 L 1914,1995 L 1913,1996 L 1901,2001 L 1900,2001 L 1889,2004 L 1888,2004 L 1886,2005 L 1873,2010 L 1871,2011 L 1856,2013 L 1855,2013 L 1840,2012 L 1838,2012 L 1824,2008 L 1823,2008 L 1814,2003 L 1810,2003 L 1809,2003 L 1797,1999 L 1795,1998 L 1784,1992 L 1783,1991 L 1773,1983 L 1772,1982 L 1765,1972 L 1764,1971 L 1758,1959 L 1758,1958 L 1756,1950 L 1742,1936 z " style="fill-opacity:1.000000;fill:rgb(232,231,141);stroke:rgb(0,0,0);stroke-width:2"/></g>
<g fill-rule="evenodd"><path d="M 1767,1542 L 1549,1542 L 1548,1542 L 1534,1541 L 1532,1541 L 1518,1536 L 1516,1535 L 1504,1528 L 1502,1527 L 1491,1517 L 1490,1516 L 1481,1504 L 1481,1502 L 1475,1489 L 1474,1487 L 1471,1473 L 1471,1471 L 1471,1456 L 1471,1455 L 1474,1440 L 1475,1439 L 1481,1425 L 1481,1424 L 1490,1412 L 1491,1410 L 1502,1401 L 1504,1400 L 1516,1392 L 1518,1392 L 1532,1387 L 1534,1387 L 1548,1385 L 1549,1385 L 1814,1385 L 1815,1385 L 1833,1387 L 1835,1388 L 1852,1395 L 1854,1396 L 1869,1407 L 1869,1408 L 1895,1433 L 1906,1437 L 1908,1438 L 1919,1444 L 1920,1445 L 1930,1453 L 1931,1454 L 1938,1464 L 1939,1465 L 1945,1477 L 1945,1478 L 1948,1490 L 1949,1492 L 1949,1504 L 1949,1506 L 1947,1518 L 1947,1520 L 1943,1532 L 1942,1533 L 1935,1544 L 1934,1545 L 1926,1554 L 1924,1555 L 1914,1562 L 1913,1563 L 1901,1568 L 1900,1568 L 1889,1571 L 1888,1571 L 1886,1572 L 1873,1577 L 1871,1578 L 1856,1580 L 1855,1580 L 1840,1579 L 1838,1579 L 1824,1575 L 1823,1575 L 1814,1570 L 1810,1570 L 1809,1570 L 1797,1566 L 1795,1565 L 1784,1559 L 1783,1558 L 1773,1550 L 1772,1549 L 1767,1542 z " style="fill-opacity:1.000000;fill:rgb(118,90,46);stroke:rgb(0,0,0);stroke-width:2"/></g>
<g fill-rule="evenodd"><path d="M 747,1933 L 404,1933 L 403,1932 L 389,1931 L 387,1931 L 373,1926 L 371,1925 L 359,1918 L 357,1917 L 346,1907 L 345,1906 L 336,1894 L 336,1892 L 330,1879 L 329,1877 L 326,1863 L 326,1861 L 326,1846 L 326,1845 L 329,1830 L 330,1829 L 336,1815 L 336,1814 L 345,1802 L 346,1801 L 357,1791 L 359,1790 L 371,1782 L 373,1782 L 387,1777 L 389,1777 L 403,1775 L 404,1775 L 750,1775 L 762,1770 L 764,1770 L 780,1767 L 782,1767 L 798,1768 L 800,1768 L 815,1773 L 817,1773 L 832,1781 L 833,1782 L 846,1792 L 846,1793 L 850,1796 L 851,1797 L 861,1810 L 862,1811 L 869,1826 L 870,1827 L 874,1843 L 874,1845 L 875,1861 L 875,1863 L 873,1879 L 872,1881 L 866,1896 L 865,1897 L 857,1911 L 855,1912 L 844,1924 L 843,1925 L 829,1934 L 827,1935 L 812,1941 L 810,1941 L 794,1944 L 792,1944 L 776,1943 L 774,1943 L 759,1938 L 757,1938 L 747,1933 z " style="fill-opacity:1.000000;fill:rgb(99,51,159);stroke:rgb(0,0,0);stroke-width:2"/></g>
<g fill-rule="evenodd"><path d="M 2915,2013 L 2651,2013 L 2650,2013 L 2636,2012 L 2634,2011 L 2620,2007 L 2619,2006 L 2614,2003 L 2610,2003 L 2608,2003 L 2597,1999 L 2595,1998 L 2584,1992 L 2583,1991 L 2573,1983 L 2572,1982 L 2564,1972 L 2564,1971 L 2558,1959 L 2558,1958 L 2554,1946 L 2554,1944 L 2554,1932 L 2554,1930 L 2556,1918 L 2556,1916 L 2560,1904 L 2561,1903 L 2568,1892 L 2569,1891 L 2577,1882 L 2578,1881 L 2589,1874 L 2590,1873 L 2602,1868 L 2603,1868 L 2614,1865 L 2619,1863 L 2620,1862 L 2634,1858 L 2636,1857 L 2650,1856 L 2651,1856 L 2917,1856 L 2929,1851 L 2930,1851 L 2947,1848 L 2948,1848 L 2965,1849 L 2966,1849 L 2982,1853 L 2984,1854 L 2998,1861 L 3000,1862 L 3013,1873 L 3013,1873 L 3015,1875 L 3015,1875 L 3026,1888 L 3027,1890 L 3034,1904 L 3035,1906 L 3039,1922 L 3039,1923 L 3040,1940 L 3040,1941 L 3037,1958 L 3037,1959 L 3031,1975 L 3030,1976 L 3021,1990 L 3020,1991 L 3009,2003 L 3007,2004 L 2994,2013 L 2992,2014 L 2977,2019 L 2975,2020 L 2959,2022 L 2957,2023 L 2941,2022 L 2939,2021 L 2923,2017 L 2922,2017 L 2915,2013 z " style="fill-opacity:1.000000;fill:rgb(201,154,102);stroke:rgb(0,0,0);stroke-width:2"/></g>
<g fill-rule="evenodd"><path d="M 1586,990 L 1851,990 L 1852,990 L 1867,991 L 1869,992 L 1883,996 L 1884,997 L 1889,1000 L 1893,1000 L 1894,1000 L 1906,1004 L 1908,1005 L 1919,1011 L 1920,1012 L 1930,1020 L 1931,1021 L 1938,1031 L 1939,1032 L 1945,1044 L 1945,1045 L 1948,1057 L 1949,1059 L 1949,1071 L 1949,1073 L 1947,1085 L 1947,1087 L 1943,1099 L 1942,1100 L 1935,1111 L 1934,1112 L 1926,1121 L 1924,1122 L 1914,1129 L 1913,1130 L 1901,1135 L 1900,1135 L 1888,1138 L 1884,1140 L 1883,1141 L 1869,1145 L 1867,1146 L 1852,1147 L 1851,1147 L 1588,1147 L 1581,1151 L 1579,1151 L 1564,1155 L 1562,1156 L 1545,1157 L 1544,1157 L 1528,1154 L 1526,1154 L 1511,1148 L 1509,1147 L 1495,1138 L 1494,1137 L 1482,1125 L 1481,1124 L 1472,1110 L 1472,1109 L 1466,1093 L 1465,1092 L 1463,1075 L 1463,1074 L 1464,1057 L 1464,1056 L 1468,1040 L 1469,1038 L 1476,1024 L 1477,1022 L 1487,1009 L 1488,1009 L 1490,1007 L 1490,1007 L 1503,996 L 1504,996 L 1519,988 L 1521,987 L 1536,983 L 1538,983 L 1554,982 L 1556,982 L 1572,985 L 1574,985 L 1586,990 z " style="fill-opacity:1.000000;fill:rgb(50,13,183);stroke:rgb(0,0,0);stroke-width:2"/></g>
<g fill-rule="evenodd"><path d="M 707,1539 L 404,1539 L 403,1539 L 389,1537 L 387,1537 L 373,1532 L 371,1532 L 359,1524 L 357,1523 L 346,1513 L 345,1512 L 336,1500 L 336,1499 L 330,1485 L 329,1484 L 326,1469 L 326,1468 L 326,1453 L 326,1451 L 329,1437 L 330,1435 L 336,1422 L 336,1420 L 345,1408 L 346,1407 L 357,1397 L 359,1396 L 371,1389 L 373,1388 L 387,1383 L 389,1383 L 403,1382 L 404,1381 L 710,1381 L 723,1377 L 724,1376 L 741,1374 L 742,1374 L 759,1375 L 760,1375 L 776,1379 L 778,1380 L 792,1387 L 794,1388 L 806,1398 L 807,1399 L 811,1403 L 811,1403 L 822,1416 L 822,1417 L 830,1432 L 830,1434 L 835,1449 L 835,1451 L 836,1467 L 836,1469 L 833,1485 L 833,1487 L 827,1502 L 826,1504 L 817,1518 L 816,1519 L 804,1530 L 803,1532 L 789,1540 L 788,1541 L 773,1547 L 771,1548 L 755,1550 L 753,1550 L 737,1549 L 735,1549 L 719,1545 L 718,1544 L 707,1539 z " style="fill-opacity:1.000000;fill:rgb(49,88,163);stroke:rgb(0,0,0);stroke-width:2"/></g>
<g fill-rule="evenodd"><path d="M 707,1145 L 404,1145 L 403,1145 L 389,1144 L 387,1143 L 373,1139 L 371,1138 L 359,1131 L 357,1130 L 346,1120 L 345,1119 L 336,1107 L 336,1105 L 330,1092 L 329,1090 L 326,1076 L 326,1074 L 326,1059 L 326,1058 L 329,1043 L 330,1041 L 336,1028 L 336,1027 L 345,1015 L 346,1013 L 357,1003 L 359,1002 L 371,995 L 373,994 L 387,990 L 389,989 L 403,988 L 404,988 L 710,988 L 723,983 L 724,983 L 741,980 L 742,980 L 759,981 L 760,981 L 776,985 L 778,986 L 792,994 L 794,994 L 806,1005 L 807,1005 L 811,1009 L 811,1010 L 822,1022 L 822,1024 L 830,1038 L 830,1040 L 835,1056 L 835,1057 L 836,1074 L 836,1075 L 833,1092 L 833,1093 L 827,1109 L 826,1110 L 817,1124 L 816,1125 L 804,1137 L 803,1138 L 789,1147 L 788,1148 L 773,1154 L 771,1154 L 755,1157 L 753,1157 L 737,1156 L 735,1155 L 719,1151 L 718,1151 L 707,1145 z " style="fill-opacity:1.000000;fill:rgb(90,37,93);stroke:rgb(0,0,0);stroke-width:2"/></g>
<g fill-rule="evenodd"><path d="M 2915,1580 L 2651,1580 L 2650,1580 L 2636,1579 L 2634,1578 L 2620,1574 L 2619,1573 L 2614,1570 L 2610,1570 L 2608,1570 L 2597,1566 L 2595,1565 L 2584,1559 L 2583,1558 L 2573,1550 L 2572,1549 L 2564,1539 L 2564,1538 L 2558,1527 L 2558,1525 L 2554,1513 L 2554,1511 L 2554,1499 L 2554,1497 L 2556,1485 L 2556,1483 L 2560,1471 L 2561,1470 L 2568,1459 L 2569,1458 L 2577,1449 L 2578,1448 L 2589,1441 L 2590,1440 L 2602,1435 L 2603,1435 L 2614,1432 L 2619,1430 L 2620,1429 L 2634,1425 L 2636,1424 L 2650,1423 L 2651,1423 L 2917,1423 L 2929,1418 L 2930,1418 L 2947,1415 L 2948,1415 L 2965,1416 L 2966,1416 L 2982,1420 L 2984,1421 L 2998,1428 L 3000,1429 L 3013,1440 L 3013,1440 L 3015,1442 L 3015,1442 L 3026,1455 L 3027,1457 L 3034,1471 L 3035,1473 L 3039,1489 L 3039,1490 L 3040,1507 L 3040,1508 L 3037,1525 L 3037,1526 L 3031,1542 L 3030,1543 L 3021,1557 L 3020,1558 L 3009,1570 L 3007,1571 L 2994,1580 L 2992,1581 L 2977,1586 L 2975,1587 L 2959,1589 L 2957,1590 L 2941,1589 L 2939,1588 L 2923,1584 L 2922,1584 L 2915,1580 z " style="fill-opacity:1.000000;fill:rgb(5,23,88);stroke:rgb(0,0,0);stroke-width:2"/></g>
<g fill-rule="evenodd"><path d="M 2899,1155 L 2651,1155 L 2650,1155 L 2634,1153 L 2633,1153 L 2617,1148 L 2615,1147 L 2601,1139 L 2600,1138 L 2591,1130 L 2584,1126 L 2583,1125 L 2573,1117 L 2572,1116 L 2564,1106 L 2564,1105 L 2558,1094 L 2558,1092 L 2554,1080 L 2554,1078 L 2554,1066 L 2554,1064 L 2556,1052 L 2556,1050 L 2560,1039 L 2561,1037 L 2568,1026 L 2569,1025 L 2577,1016 L 2578,1015 L 2589,1008 L 2590,1007 L 2591,1007 L 2600,999 L 2601,998 L 2615,990 L 2617,989 L 2633,984 L 2634,984 L 2650,982 L 2651,982 L 2913,982 L 2914,982 L 2934,985 L 2936,985 L 2955,993 L 2957,994 L 2973,1007 L 2974,1007 L 2976,1009 L 2976,1010 L 2986,1022 L 2987,1024 L 2995,1038 L 2995,1040 L 3000,1056 L 3000,1057 L 3001,1074 L 3001,1076 L 2998,1092 L 2998,1093 L 2992,1109 L 2991,1110 L 2982,1124 L 2981,1125 L 2969,1137 L 2968,1138 L 2954,1147 L 2953,1148 L 2937,1154 L 2936,1154 L 2920,1157 L 2918,1157 L 2901,1156 L 2900,1155 L 2899,1155 z " style="fill-opacity:1.000000;fill:rgb(233,94,212);stroke:rgb(0,0,0);stroke-width:2"/></g>
<g fill-rule="evenodd"><path d="M 5998,3235 L 604,3235 L 603,3235 L 584,3232 L 582,3232 L 565,3225 L 564,3224 L 549,3213 L 548,3212 L 339,3002 L 338,3002 L 329,2990 L 328,2989 L 321,2976 L 320,2974 L 317,2960 L 316,2958 L 316,2943 L 316,2942 L 318,2927 L 318,2926 L 324,2912 L 324,2910 L 333,2898 L 334,2897 L 344,2886 L 345,2885 L 358,2877 L 359,2876 L 373,2871 L 375,2870 L 389,2868 L 391,2868 L 406,2869 L 407,2869 L 422,2873 L 423,2874 L 436,2880 L 438,2881 L 449,2890 L 450,2891 L 636,3078 L 3675,3078 L 3675,1972 L 3669,1956 L 3669,1954 L 3667,1937 L 3667,1936 L 3667,1503 L 3667,1502 L 3669,1486 L 3669,1484 L 3674,1469 L 3675,1467 L 3683,1453 L 3684,1452 L 3695,1439 L 3696,1438 L 3709,1429 L 3711,1428 L 3726,1421 L 3727,1421 L 3744,1417 L 3745,1417 L 3762,1417 L 3763,1417 L 3779,1421 L 3781,1421 L 3796,1428 L 3797,1429 L 3811,1438 L 3812,1439 L 3823,1452 L 3824,1453 L 3832,1467 L 3833,1469 L 3838,1484 L 3838,1486 L 3840,1502 L 3840,1503 L 3840,1849 L 3944,1849 L 3945,1850 L 3965,1852 L 3967,1853 L 3986,1861 L 3988,1862 L 4004,1874 L 4005,1875 L 4145,2015 L 4968,2015 L 4969,2015 L 4987,2017 L 4989,2018 L 5006,2025 L 5008,2026 L 5023,2037 L 5024,2038 L 5039,2054 L 6903,2054 L 6907,2050 L 6907,2034 L 6907,2032 L 6908,2030 L 6909,2029 L 6910,2027 L 6911,2026 L 6913,2026 L 6915,2026 L 6935,2026 L 6946,2020 L 6947,2020 L 6962,2016 L 6963,2016 L 6978,2015 L 6980,2015 L 6994,2017 L 6996,2018 L 7010,2023 L 7011,2024 L 7014,2026 L 7035,2026 L 7036,2026 L 7038,2026 L 7040,2027 L 7041,2029 L 7042,2030 L 7042,2032 L 7043,2034 L 7043,2054 L 7044,2057 L 7045,2059 L 7051,2072 L 7051,2074 L 7053,2089 L 7053,2090 L 7053,2105 L 7052,2107 L 7048,2121 L 7048,2122 L 7043,2133 L 7043,2153 L 7042,2155 L 7042,2157 L 7041,2158 L 7040,2160 L 7038,2161 L 7036,2161 L 7035,2161 L 7018,2161 L 6992,2188 L 6991,2189 L 6976,2200 L 6974,2201 L 6957,2208 L 6955,2209 L 6937,2211 L 6936,2211 L 5007,2211 L 5006,2211 L 4987,2209 L 4985,2208 L 4970,2202 L 4945,2202 L 4943,2201 L 4942,2201 L 4940,2200 L 4939,2199 L 4938,2197 L 4938,2196 L 4937,2194 L 4937,2174 L 4935,2172 L 4137,2172 L 4125,2177 L 4123,2177 L 4107,2180 L 4105,2180 L 4089,2179 L 4087,2179 L 4071,2175 L 4070,2174 L 4062,2170 L 4032,2170 L 4031,2170 L 4029,2169 L 4028,2169 L 4026,2167 L 4025,2166 L 4025,2164 L 4025,2162 L 4025,2139 L 3908,2023 L 3832,2023 L 3832,3078 L 6031,3078 L 6032,3078 L 6050,3080 L 6052,3081 L 6069,3088 L 6071,3089 L 6086,3100 L 6086,3101 L 6102,3116 L 6825,3116 L 6907,3034 L 6907,3018 L 6907,3016 L 6908,3014 L 6909,3013 L 6910,3011 L 6911,3010 L 6913,3010 L 6915,3010 L 6935,3010 L 6946,3004 L 6947,3004 L 6962,3000 L 6963,3000 L 6978,2999 L 6980,2999 L 6994,3001 L 6996,3002 L 7010,3007 L 7011,3008 L 7014,3010 L 7035,3010 L 7036,3010 L 7038,3010 L 7040,3011 L 7041,3013 L 7042,3014 L 7042,3016 L 7043,3018 L 7043,3038 L 7044,3041 L 7045,3043 L 7051,3056 L 7051,3058 L 7053,3073 L 7053,3074 L 7053,3089 L 7052,3091 L 7048,3105 L 7048,3106 L 7043,3117 L 7043,3138 L 7042,3139 L 7042,3141 L 7041,3142 L 7040,3144 L 7038,3145 L 7036,3145 L 7035,3145 L 7018,3145 L 6913,3251 L 6912,3251 L 6897,3263 L 6896,3264 L 6879,3271 L 6877,3271 L 6858,3274 L 6857,3274 L 6069,3274 L 6068,3274 L 6050,3271 L 6048,3271 L 6033,3264 L 6008,3264 L 6006,3264 L 6005,3264 L 6003,3263 L 6002,3261 L 6001,3260 L 6000,3258 L 6000,3257 L 6000,3237 L 5998,3235 z " style="fill-opacity:1.000000;fill:rgb(171,178,205);stroke:rgb(0,0,0);stroke-width:2"/></g>
<g fill-rule="evenodd"><path d="M 316,913 L 244,985 L 244,3079 L 438,3272 L 454,3272 L 456,3273 L 458,3273 L 459,3274 L 460,3275 L 461,3277 L 462,3279 L 462,3280 L 462,3301 L 467,3311 L 468,3313 L 472,3327 L 472,3329 L 473,3344 L 473,3345 L 470,3360 L 470,3361 L 465,3375 L 464,3377 L 462,3380 L 462,3400 L 462,3402 L 461,3404 L 460,3405 L 459,3406 L 458,3407 L 456,3408 L 454,3408 L 434,3408 L 431,3410 L 429,3411 L 415,3416 L 414,3417 L 399,3419 L 397,3419 L 383,3418 L 381,3418 L 367,3414 L 365,3413 L 355,3408 L 334,3408 L 332,3408 L 331,3407 L 329,3406 L 328,3405 L 327,3404 L 327,3402 L 326,3400 L 326,3384 L 110,3167 L 109,3166 L 98,3152 L 97,3150 L 90,3133 L 89,3131 L 87,3112 L 87,3111 L 87,952 L 87,951 L 89,933 L 90,931 L 97,914 L 98,912 L 109,897 L 110,896 L 228,778 L 228,778 L 243,766 L 245,765 L 262,758 L 264,758 L 282,755 L 283,755 L 3708,755 L 3709,755 L 3727,758 L 3729,758 L 3746,765 L 3748,766 L 3763,778 L 3763,778 L 3770,785 L 3770,785 L 3782,800 L 3783,802 L 3790,819 L 3790,821 L 3793,839 L 3793,840 L 3793,991 L 4066,991 L 4070,989 L 4072,988 L 4088,984 L 4089,984 L 4106,983 L 4107,983 L 4124,986 L 4125,986 L 4139,991 L 6065,991 L 6068,991 L 6069,991 L 6864,991 L 6907,948 L 6907,931 L 6907,930 L 6908,928 L 6909,927 L 6910,925 L 6911,924 L 6913,924 L 6915,924 L 6935,924 L 6946,918 L 6947,918 L 6962,914 L 6963,914 L 6978,913 L 6980,913 L 6994,915 L 6996,916 L 7010,921 L 7011,922 L 7014,924 L 7035,924 L 7036,924 L 7038,924 L 7040,925 L 7041,927 L 7042,928 L 7042,930 L 7043,931 L 7043,952 L 7044,955 L 7045,956 L 7051,970 L 7051,972 L 7053,986 L 7053,988 L 7053,1003 L 7052,1005 L 7048,1019 L 7048,1020 L 7043,1031 L 7043,1051 L 7042,1053 L 7042,1055 L 7041,1056 L 7040,1058 L 7038,1058 L 7036,1059 L 7035,1059 L 7018,1059 L 6952,1125 L 6951,1126 L 6937,1137 L 6935,1138 L 6918,1145 L 6916,1146 L 6898,1148 L 6897,1148 L 6074,1148 L 6070,1149 L 6069,1149 L 4137,1149 L 4133,1151 L 4132,1151 L 4116,1155 L 4114,1156 L 4098,1157 L 4096,1157 L 4080,1154 L 4078,1154 L 4066,1149 L 3714,1149 L 3713,1149 L 3697,1147 L 3696,1147 L 3681,1141 L 3679,1141 L 3666,1132 L 3664,1131 L 3653,1120 L 3652,1118 L 3644,1105 L 3643,1103 L 3638,1088 L 3637,1087 L 3635,1071 L 3635,1070 L 3635,913 L 316,913 z " style="fill-opacity:1.000000;fill:rgb(198,155,180);stroke:rgb(0,0,0);stroke-width:2"/></g>
<g fill-rule="evenodd"><path d="M 18,0 L 7122,0 L 7123,0 L 7125,0 L 7127,0 L 7129,1 L 7131,2 L 7133,3 L 7134,4 L 7136,6 L 7137,7 L 7138,9 L 7139,10 L 7139,13 L 7140,14 L 7140,16 L 7140,17 L 7140,3658 L 7140,3660 L 7140,3660 L 7140,3661 L 7139,3663 L 7138,3665 L 7137,3667 L 7136,3669 L 7134,3671 L 7133,3672 L 7132,3673 L 7131,3673 L 7129,3674 L 7126,3675 L 7123,3676 L 7122,3676 L 18,3676 L 17,3676 L 15,3676 L 13,3675 L 11,3674 L 9,3674 L 7,3672 L 6,3671 L 4,3670 L 3,3668 L 2,3666 L 1,3665 L 1,3663 L 0,3661 L 0,3659 L 0,3658 L 0,17 L 0,16 L 0,14 L 1,13 L 1,10 L 2,9 L 3,7 L 4,6 L 6,4 L 7,3 L 9,2 L 11,1 L 13,0 L 15,0 L 17,0 L 18,0M 2612,1840 L 2609,1842 L 2608,1842 L 2604,1844 L 2603,1844 L 2585,1848 L 2554,1868 L 2534,1899 L 2527,1934 L 2534,1970 L 2554,2001 L 2582,2020 L 2583,2020 L 2585,2022 L 2586,2023 L 2587,2025 L 2588,2026 L 2589,2028 L 2590,2030 L 2590,2032 L 2590,2034 L 2590,2036 L 2590,2038 L 2589,2040 L 2589,2042 L 2588,2044 L 2587,2045 L 2585,2047 L 2583,2049 L 2581,2050 L 2551,2074 L 2534,2105 L 2535,2107 L 2559,2107 L 2560,2104 L 2561,2103 L 2568,2092 L 2569,2091 L 2577,2082 L 2578,2081 L 2589,2074 L 2590,2073 L 2602,2068 L 2603,2068 L 2615,2065 L 2617,2065 L 2679,2065 L 2680,2065 L 2693,2066 L 2694,2066 L 2706,2070 L 2708,2071 L 2719,2077 L 2720,2078 L 2729,2086 L 2730,2087 L 2738,2097 L 2739,2098 L 2743,2107 L 2768,2107 L 2769,2105 L 2752,2074 L 2746,2069 L 2745,2069 L 2743,2067 L 2742,2066 L 2741,2064 L 2740,2062 L 2740,2060 L 2739,2058 L 2739,2056 L 2739,2054 L 2739,2052 L 2740,2050 L 2740,2048 L 2741,2047 L 2742,2045 L 2743,2044 L 2745,2042 L 2746,2041 L 2748,2040 L 2750,2039 L 2752,2038 L 2754,2038 L 2756,2038 L 2757,2037 L 2906,2037 L 2908,2038 L 2954,2047 L 2996,2038 L 3032,2014 L 3056,1978 L 3064,1936 L 3056,1894 L 3031,1857 L 2994,1832 L 2952,1824 L 2914,1831 L 2912,1832 L 2653,1832 L 2612,1840M 497,2306 L 497,2189 L 495,2176 L 488,2165 L 477,2157 L 462,2154 L 346,2154 L 332,2157 L 321,2164 L 314,2175 L 311,2189 L 311,2306 L 314,2319 L 321,2330 L 331,2338 L 346,2340 L 463,2340 L 476,2338 L 487,2331 L 494,2320 L 497,2306M 437,2636 L 437,2635 L 418,2616 L 416,2617 L 414,2618 L 402,2620 L 400,2621 L 388,2621 L 386,2620 L 374,2618 L 372,2617 L 370,2616 L 351,2635 L 351,2636 L 380,2646 L 418,2644 L 437,2636M 437,2471 L 437,2471 L 408,2460 L 371,2462 L 351,2470 L 351,2471 L 370,2490 L 372,2489 L 374,2488 L 386,2486 L 388,2486 L 400,2486 L 402,2486 L 414,2488 L 416,2489 L 418,2490 L 437,2471M 457,2529 L 460,2538 L 461,2540 L 462,2552 L 462,2554 L 461,2566 L 460,2568 L 457,2577 L 477,2596 L 477,2596 L 487,2567 L 485,2530 L 477,2510 L 477,2510 L 457,2529M 2679,2204 L 2679,2229 L 2687,2229 L 2723,2218 L 2752,2195 L 2769,2164 L 2768,2162 L 2743,2162 L 2742,2164 L 2742,2166 L 2735,2177 L 2734,2178 L 2725,2187 L 2724,2188 L 2714,2195 L 2712,2196 L 2701,2201 L 2699,2201 L 2687,2204 L 2686,2204 L 2679,2204M 2551,2195 L 2580,2218 L 2616,2229 L 2623,2229 L 2623,2204 L 2623,2204 L 2623,2204 L 2610,2203 L 2608,2203 L 2597,2199 L 2595,2198 L 2584,2192 L 2583,2191 L 2573,2183 L 2572,2182 L 2564,2172 L 2564,2171 L 2560,2162 L 2535,2162 L 2534,2164 L 2551,2195M 2679,1771 L 2679,1796 L 2687,1796 L 2723,1785 L 2752,1762 L 2769,1731 L 2768,1729 L 2743,1729 L 2742,1732 L 2742,1733 L 2735,1744 L 2734,1745 L 2725,1754 L 2724,1755 L 2714,1762 L 2712,1763 L 2701,1768 L 2699,1768 L 2687,1771 L 2686,1771 L 2679,1771M 2679,1338 L 2679,1363 L 2687,1363 L 2723,1352 L 2752,1329 L 2769,1298 L 2768,1296 L 2743,1296 L 2742,1299 L 2742,1300 L 2735,1311 L 2734,1312 L 2725,1321 L 2724,1322 L 2714,1329 L 2712,1330 L 2701,1335 L 2699,1335 L 2687,1338 L 2686,1338 L 2679,1338M 2653,1399 L 2612,1407 L 2609,1409 L 2608,1409 L 2604,1411 L 2603,1411 L 2585,1415 L 2554,1435 L 2534,1466 L 2527,1502 L 2534,1537 L 2554,1568 L 2582,1587 L 2583,1587 L 2585,1589 L 2586,1590 L 2587,1592 L 2588,1593 L 2589,1595 L 2590,1597 L 2590,1599 L 2590,1601 L 2590,1603 L 2590,1605 L 2589,1607 L 2589,1609 L 2588,1611 L 2587,1612 L 2585,1614 L 2583,1616 L 2581,1617 L 2551,1641 L 2534,1672 L 2535,1674 L 2559,1674 L 2560,1671 L 2561,1670 L 2568,1659 L 2569,1658 L 2577,1649 L 2578,1648 L 2589,1641 L 2590,1640 L 2602,1635 L 2603,1635 L 2615,1632 L 2617,1632 L 2679,1632 L 2680,1632 L 2693,1633 L 2694,1633 L 2706,1637 L 2708,1638 L 2719,1644 L 2720,1645 L 2729,1653 L 2730,1654 L 2738,1664 L 2739,1665 L 2743,1674 L 2768,1674 L 2769,1672 L 2752,1641 L 2746,1636 L 2745,1636 L 2743,1634 L 2742,1633 L 2741,1631 L 2740,1629 L 2740,1627 L 2739,1625 L 2739,1623 L 2739,1621 L 2739,1619 L 2740,1617 L 2740,1615 L 2741,1614 L 2742,1612 L 2743,1611 L 2745,1609 L 2746,1608 L 2748,1607 L 2750,1606 L 2752,1605 L 2754,1605 L 2756,1605 L 2757,1604 L 2906,1604 L 2908,1605 L 2954,1614 L 2996,1605 L 3032,1581 L 3056,1545 L 3064,1503 L 3056,1461 L 3031,1424 L 2994,1399 L 2952,1391 L 2914,1398 L 2912,1399 L 2653,1399M 2535,1729 L 2534,1731 L 2551,1762 L 2580,1785 L 2616,1796 L 2623,1796 L 2623,1771 L 2623,1771 L 2623,1771 L 2610,1770 L 2608,1770 L 2597,1766 L 2595,1765 L 2584,1759 L 2583,1758 L 2573,1750 L 2572,1749 L 2564,1739 L 2564,1738 L 2560,1729 L 2535,1729M 2551,1329 L 2580,1352 L 2616,1363 L 2623,1363 L 2623,1338 L 2623,1338 L 2623,1338 L 2610,1337 L 2608,1337 L 2597,1333 L 2595,1332 L 2584,1326 L 2583,1325 L 2573,1317 L 2572,1316 L 2564,1306 L 2564,1305 L 2560,1296 L 2535,1296 L 2534,1298 L 2551,1329M 4261,2502 L 4220,2510 L 4185,2534 L 4030,2689 L 4024,2697 L 4023,2698 L 4016,2705 L 4012,2715 L 4011,2716 L 4007,2723 L 4005,2732 L 4004,2733 L 4000,2742 L 4000,2753 L 4000,2754 L 3999,2763 L 4000,2771 L 4000,2773 L 4000,2783 L 4004,2792 L 4005,2793 L 4007,2802 L 4011,2809 L 4012,2810 L 4016,2820 L 4023,2827 L 4024,2828 L 4029,2835 L 4036,2840 L 4037,2841 L 4044,2848 L 4054,2852 L 4055,2853 L 4062,2857 L 4070,2859 L 4072,2860 L 4081,2864 L 4091,2864 L 4093,2864 L 4101,2865 L 4110,2864 L 4111,2864 L 4121,2864 L 4131,2860 L 4132,2859 L 4141,2857 L 4148,2853 L 4149,2852 L 4159,2848 L 4166,2841 L 4167,2840 L 4175,2834 L 4296,2713 L 4297,2713 L 4299,2711 L 4301,2710 L 4303,2709 L 4305,2709 L 4308,2708 L 4309,2708 L 6019,2708 L 6020,2708 L 6023,2709 L 6025,2709 L 6027,2710 L 6029,2711 L 6031,2713 L 6032,2713 L 6074,2755 L 6109,2779 L 6150,2787 L 6973,2787 L 7014,2779 L 7047,2756 L 7070,2723 L 7077,2684 L 7070,2645 L 7047,2611 L 7014,2589 L 6973,2581 L 6198,2581 L 6197,2581 L 6195,2581 L 6193,2580 L 6190,2579 L 6188,2578 L 6186,2576 L 6186,2576 L 6143,2534 L 6109,2510 L 6068,2502 L 4261,2502M 4132,2299 L 4150,2281 L 4150,2279 L 4117,2267 L 4077,2269 L 4053,2279 L 4052,2281 L 4071,2299 L 4077,2296 L 4078,2296 L 4093,2293 L 4094,2293 L 4109,2293 L 4110,2293 L 4124,2296 L 4126,2296 L 4132,2299M 4013,2320 L 4012,2320 L 4000,2353 L 4001,2394 L 4011,2418 L 4013,2418 L 4031,2400 L 4031,2399 L 4027,2386 L 4026,2384 L 4025,2370 L 4025,2368 L 4026,2354 L 4027,2352 L 4031,2339 L 4031,2338 L 4013,2320M 4190,2418 L 4191,2418 L 4203,2385 L 4201,2344 L 4192,2321 L 4190,2320 L 4172,2338 L 4172,2339 L 4176,2352 L 4177,2354 L 4178,2368 L 4178,2370 L 4177,2384 L 4176,2386 L 4172,2399 L 4172,2400 L 4190,2418M 4126,2469 L 4150,2459 L 4150,2458 L 4132,2439 L 4126,2442 L 4124,2442 L 4110,2445 L 4109,2445 L 4094,2445 L 4093,2445 L 4078,2442 L 4077,2442 L 4071,2439 L 4052,2458 L 4053,2459 L 4086,2471 L 4126,2469M 5166,1803 L 6973,1803 L 7014,1795 L 7047,1772 L 7070,1739 L 7077,1700 L 7070,1661 L 7047,1627 L 7014,1605 L 6973,1597 L 5214,1597 L 5213,1597 L 5211,1597 L 5209,1596 L 5206,1595 L 5204,1594 L 5202,1592 L 5202,1592 L 5081,1471 L 5046,1448 L 5005,1439 L 4261,1439 L 4220,1448 L 4185,1471 L 4030,1626 L 4024,1634 L 4023,1635 L 4016,1643 L 4012,1652 L 4011,1653 L 4007,1661 L 4005,1669 L 4004,1670 L 4000,1680 L 4000,1690 L 4000,1691 L 3999,1700 L 4000,1708 L 4000,1710 L 4000,1720 L 4004,1729 L 4005,1731 L 4007,1739 L 4011,1746 L 4012,1748 L 4016,1757 L 4023,1764 L 4024,1765 L 4029,1772 L 4036,1777 L 4037,1778 L 4044,1785 L 4054,1789 L 4055,1790 L 4062,1795 L 4070,1797 L 4072,1797 L 4081,1801 L 4091,1801 L 4093,1801 L 4101,1803 L 4110,1801 L 4111,1801 L 4121,1801 L 4131,1797 L 4132,1797 L 4141,1795 L 4148,1790 L 4149,1789 L 4159,1786 L 4166,1778 L 4167,1777 L 4175,1772 L 4296,1651 L 4297,1650 L 4299,1648 L 4301,1647 L 4303,1646 L 4305,1646 L 4308,1645 L 4309,1645 L 4957,1645 L 4958,1645 L 4960,1646 L 4962,1646 L 4965,1647 L 4966,1648 L 4968,1650 L 4969,1651 L 5090,1771 L 5125,1795 L 5166,1803M 4103,779 L 5871,779 L 5912,771 L 5947,748 L 6107,588 L 6108,587 L 6110,586 L 6111,585 L 6114,584 L 6116,583 L 6118,583 L 6119,583 L 6807,583 L 6808,583 L 6810,583 L 6812,584 L 6815,585 L 6816,586 L 6818,587 L 6819,588 L 6901,669 L 6935,693 L 6975,700 L 7014,693 L 7047,670 L 7070,637 L 7077,598 L 7070,559 L 7046,524 L 6931,408 L 6896,385 L 6855,377 L 6071,377 L 6030,385 L 5995,408 L 5835,568 L 5834,569 L 5832,571 L 5831,572 L 5828,573 L 5826,573 L 5824,573 L 5823,574 L 4103,574 L 4093,575 L 4092,575 L 4081,575 L 4072,579 L 4071,580 L 4062,582 L 4055,586 L 4054,587 L 4044,591 L 4037,598 L 4036,599 L 4029,604 L 4024,611 L 4023,612 L 4016,619 L 4012,629 L 4011,630 L 4007,637 L 4005,646 L 4004,647 L 4000,656 L 4000,667 L 4000,668 L 3999,677 L 4000,685 L 4000,686 L 4000,696 L 4004,706 L 4005,707 L 4007,716 L 4011,723 L 4012,724 L 4016,734 L 4023,741 L 4024,742 L 4029,749 L 4036,754 L 4037,755 L 4044,762 L 4054,766 L 4055,767 L 4062,771 L 4070,773 L 4072,774 L 4081,777 L 4091,778 L 4093,778 L 4103,779M 4071,1376 L 4052,1395 L 4053,1396 L 4086,1408 L 4126,1406 L 4150,1397 L 4150,1395 L 4132,1376 L 4126,1379 L 4124,1379 L 4110,1382 L 4109,1383 L 4094,1383 L 4093,1382 L 4078,1379 L 4077,1379 L 4071,1376M 4013,1257 L 4012,1258 L 4000,1291 L 4001,1331 L 4011,1355 L 4013,1355 L 4031,1337 L 4031,1337 L 4027,1323 L 4026,1321 L 4025,1307 L 4025,1305 L 4026,1291 L 4027,1290 L 4031,1276 L 4031,1275 L 4013,1257M 4201,1281 L 4192,1258 L 4190,1257 L 4172,1275 L 4172,1276 L 4176,1290 L 4177,1291 L 4178,1305 L 4178,1307 L 4177,1321 L 4176,1323 L 4172,1337 L 4172,1337 L 4190,1355 L 4191,1355 L 4203,1322 L 4201,1281M 4013,234 L 4012,234 L 4000,267 L 4001,308 L 4011,331 L 4013,332 L 4031,314 L 4031,313 L 4027,300 L 4026,298 L 4025,284 L 4025,282 L 4026,268 L 4027,266 L 4031,252 L 4031,252 L 4013,234M 4192,234 L 4190,234 L 4172,252 L 4172,252 L 4176,266 L 4177,268 L 4178,282 L 4178,284 L 4177,298 L 4176,300 L 4172,313 L 4172,314 L 4190,332 L 4191,332 L 4203,299 L 4201,258 L 4192,234M 4071,353 L 4052,371 L 4053,373 L 4086,385 L 4126,383 L 4150,373 L 4150,371 L 4132,353 L 4126,356 L 4124,356 L 4110,359 L 4109,359 L 4094,359 L 4093,359 L 4078,356 L 4077,356 L 4071,353M 4117,181 L 4077,183 L 4053,193 L 4052,194 L 4071,213 L 4077,210 L 4078,210 L 4093,207 L 4094,207 L 4109,207 L 4110,207 L 4124,210 L 4126,210 L 4132,213 L 4150,194 L 4150,193 L 4117,181M 275,1854 L 277,1854 L 277,1854 L 279,1854 L 279,1854 L 281,1854 L 281,1854 L 282,1854 L 282,1854 L 284,1854 L 284,1854 L 285,1854 L 285,1854 L 287,1854 L 287,1854 L 288,1854 L 288,1854 L 290,1854 L 290,1854 L 291,1854 L 291,1854 L 294,1854 L 294,1854 L 295,1854 L 295,1854 L 297,1854 L 298,1854 L 299,1855 L 300,1857 L 301,1858 L 302,1860 L 303,1861 L 303,1863 L 304,1864 L 309,1893 L 332,1926 L 365,1949 L 406,1957 L 737,1957 L 738,1957 L 741,1957 L 744,1958 L 746,1959 L 789,1968 L 831,1959 L 867,1935 L 891,1900 L 899,1857 L 891,1815 L 866,1778 L 865,1777 L 827,1752 L 785,1743 L 747,1751 L 746,1751 L 406,1751 L 365,1759 L 332,1781 L 309,1815 L 304,1843 L 303,1844 L 303,1846 L 302,1848 L 301,1850 L 300,1851 L 299,1853 L 298,1854 L 297,1854 L 295,1854 L 295,1854 L 294,1854 L 294,1854 L 291,1854 L 291,1854 L 290,1854 L 290,1854 L 288,1854 L 288,1854 L 287,1854 L 287,1854 L 285,1854 L 285,1854 L 284,1854 L 284,1854 L 282,1854 L 282,1854 L 281,1854 L 281,1854 L 279,1854 L 279,1854 L 277,1854 L 277,1854 L 275,1854 L 274,1853 L 272,1851 L 271,1850 L 270,1848 L 270,1846 L 269,1844 L 269,1843 L 268,1841 L 268,1840 L 268,1474 L 268,1473 L 269,1471 L 269,1470 L 269,1468 L 270,1466 L 271,1464 L 272,1463 L 274,1461 L 275,1460 L 275,1460 L 277,1460 L 277,1460 L 279,1460 L 279,1460 L 281,1460 L 281,1460 L 282,1460 L 282,1460 L 284,1460 L 284,1460 L 285,1460 L 285,1460 L 287,1460 L 287,1460 L 288,1460 L 288,1460 L 290,1460 L 290,1460 L 291,1460 L 291,1460 L 294,1460 L 294,1460 L 295,1460 L 295,1460 L 297,1460 L 298,1460 L 299,1461 L 300,1463 L 301,1464 L 302,1466 L 303,1468 L 303,1470 L 304,1471 L 309,1499 L 332,1533 L 365,1555 L 406,1563 L 698,1563 L 699,1563 L 702,1564 L 704,1564 L 707,1566 L 749,1574 L 792,1566 L 828,1542 L 851,1506 L 860,1464 L 851,1421 L 827,1384 L 825,1383 L 788,1358 L 746,1350 L 708,1357 L 706,1357 L 406,1357 L 365,1365 L 332,1388 L 309,1421 L 304,1450 L 303,1451 L 303,1453 L 302,1454 L 301,1456 L 300,1457 L 299,1459 L 298,1460 L 297,1460 L 295,1460 L 295,1460 L 294,1460 L 294,1460 L 291,1460 L 291,1460 L 290,1460 L 290,1460 L 288,1460 L 288,1460 L 287,1460 L 287,1460 L 285,1460 L 285,1460 L 284,1460 L 284,1460 L 282,1460 L 282,1460 L 281,1460 L 281,1460 L 279,1460 L 279,1460 L 277,1460 L 277,1460 L 275,1460 L 274,1459 L 272,1458 L 271,1456 L 270,1454 L 270,1453 L 269,1451 L 269,1449 L 268,1447 L 268,1446 L 268,1080 L 268,1080 L 269,1078 L 269,1076 L 269,1074 L 270,1072 L 271,1071 L 272,1069 L 274,1068 L 275,1067 L 277,1065 L 278,1065 L 280,1064 L 281,1063 L 284,1063 L 285,1063 L 287,1063 L 289,1063 L 291,1063 L 293,1064 L 294,1065 L 296,1065 L 298,1067 L 299,1068 L 300,1069 L 301,1071 L 302,1073 L 303,1074 L 303,1076 L 304,1077 L 309,1106 L 332,1139 L 365,1161 L 406,1170 L 698,1170 L 699,1170 L 702,1170 L 704,1171 L 707,1172 L 749,1181 L 792,1172 L 828,1148 L 851,1112 L 860,1070 L 851,1028 L 827,990 L 825,989 L 796,970 L 795,969 L 794,968 L 792,967 L 791,965 L 790,963 L 789,962 L 789,960 L 788,958 L 788,956 L 788,954 L 788,952 L 788,950 L 789,949 L 790,947 L 791,945 L 792,944 L 793,942 L 794,941 L 796,940 L 798,939 L 799,938 L 801,938 L 803,937 L 805,937 L 806,937 L 1494,937 L 1495,937 L 1497,937 L 1498,938 L 1500,938 L 1502,939 L 1504,940 L 1505,941 L 1507,942 L 1508,944 L 1509,945 L 1510,947 L 1511,949 L 1511,950 L 1511,952 L 1512,954 L 1512,956 L 1511,958 L 1511,960 L 1510,962 L 1509,963 L 1508,965 L 1507,967 L 1506,968 L 1504,969 L 1504,970 L 1472,991 L 1447,1028 L 1439,1070 L 1447,1112 L 1471,1148 L 1507,1172 L 1549,1181 L 1595,1172 L 1597,1172 L 1714,1172 L 1715,1172 L 1717,1172 L 1719,1172 L 1721,1173 L 1722,1174 L 1724,1175 L 1726,1176 L 1727,1177 L 1728,1179 L 1730,1181 L 1730,1182 L 1731,1184 L 1732,1186 L 1732,1188 L 1732,1190 L 1732,1192 L 1732,1193 L 1728,1208 L 1728,1329 L 1730,1340 L 1731,1340 L 1731,1343 L 1731,1344 L 1730,1347 L 1730,1348 L 1729,1350 L 1728,1352 L 1727,1354 L 1726,1355 L 1724,1356 L 1723,1358 L 1721,1359 L 1720,1359 L 1718,1360 L 1716,1360 L 1714,1361 L 1713,1361 L 1551,1361 L 1510,1369 L 1477,1391 L 1454,1424 L 1447,1464 L 1454,1503 L 1477,1536 L 1510,1559 L 1551,1567 L 1747,1567 L 1749,1567 L 1751,1567 L 1754,1568 L 1756,1569 L 1757,1570 L 1765,1575 L 1766,1575 L 1767,1577 L 1769,1578 L 1770,1580 L 1771,1581 L 1772,1583 L 1772,1585 L 1773,1587 L 1773,1588 L 1773,1591 L 1773,1592 L 1772,1594 L 1772,1596 L 1771,1598 L 1770,1599 L 1769,1601 L 1768,1602 L 1766,1604 L 1765,1605 L 1763,1606 L 1761,1606 L 1759,1607 L 1758,1607 L 1750,1609 L 1739,1616 L 1731,1627 L 1728,1641 L 1728,1737 L 1728,1737 L 1728,1740 L 1728,1741 L 1727,1743 L 1726,1745 L 1725,1747 L 1724,1748 L 1722,1750 L 1721,1751 L 1719,1752 L 1717,1753 L 1715,1754 L 1714,1754 L 1711,1754 L 1711,1754 L 1590,1754 L 1549,1763 L 1516,1785 L 1494,1818 L 1486,1857 L 1494,1897 L 1516,1930 L 1549,1952 L 1590,1960 L 1718,1960 L 1719,1960 L 1721,1961 L 1723,1961 L 1725,1962 L 1727,1963 L 1729,1964 L 1731,1966 L 1732,1967 L 1733,1968 L 1754,2001 L 1765,2008 L 1766,2008 L 1767,2010 L 1769,2011 L 1770,2013 L 1771,2014 L 1772,2016 L 1772,2018 L 1773,2020 L 1773,2021 L 1773,2024 L 1773,2025 L 1772,2027 L 1772,2029 L 1771,2031 L 1770,2032 L 1769,2034 L 1768,2035 L 1766,2037 L 1765,2038 L 1763,2039 L 1761,2039 L 1759,2040 L 1758,2040 L 1750,2042 L 1739,2049 L 1731,2060 L 1728,2074 L 1728,2195 L 1731,2208 L 1738,2219 L 1749,2227 L 1763,2230 L 1940,2230 L 1953,2227 L 1964,2220 L 1972,2209 L 1975,2195 L 1975,2074 L 1972,2061 L 1965,2050 L 1954,2042 L 1944,2040 L 1943,2040 L 1941,2039 L 1940,2039 L 1938,2038 L 1937,2037 L 1935,2035 L 1934,2034 L 1933,2032 L 1932,2031 L 1931,2029 L 1931,2027 L 1930,2025 L 1930,2023 L 1930,2021 L 1930,2020 L 1931,2018 L 1931,2016 L 1932,2014 L 1933,2013 L 1934,2011 L 1936,2010 L 1937,2008 L 1938,2008 L 1949,2001 L 1969,1970 L 1976,1934 L 1969,1899 L 1949,1868 L 1918,1848 L 1914,1847 L 1913,1847 L 1910,1846 L 1908,1845 L 1906,1843 L 1905,1842 L 1890,1827 L 1889,1826 L 1888,1825 L 1887,1823 L 1886,1821 L 1885,1820 L 1885,1818 L 1885,1816 L 1884,1814 L 1885,1812 L 1885,1810 L 1885,1809 L 1886,1807 L 1887,1805 L 1888,1803 L 1889,1802 L 1891,1801 L 1892,1800 L 1894,1799 L 1896,1798 L 1898,1797 L 1899,1797 L 1901,1797 L 1902,1797 L 1940,1797 L 1953,1794 L 1964,1787 L 1972,1776 L 1975,1762 L 1975,1641 L 1972,1628 L 1965,1617 L 1954,1609 L 1944,1607 L 1943,1607 L 1941,1606 L 1940,1606 L 1938,1605 L 1937,1604 L 1935,1602 L 1934,1601 L 1933,1599 L 1932,1598 L 1931,1596 L 1931,1594 L 1930,1592 L 1930,1591 L 1930,1588 L 1930,1587 L 1931,1585 L 1931,1583 L 1932,1581 L 1933,1580 L 1934,1578 L 1936,1577 L 1937,1575 L 1938,1575 L 1949,1568 L 1969,1537 L 1976,1502 L 1969,1466 L 1949,1435 L 1918,1415 L 1914,1414 L 1913,1414 L 1910,1413 L 1908,1412 L 1906,1410 L 1905,1409 L 1890,1394 L 1889,1393 L 1888,1392 L 1887,1390 L 1886,1388 L 1885,1387 L 1885,1385 L 1885,1383 L 1884,1381 L 1885,1379 L 1885,1377 L 1885,1376 L 1886,1374 L 1887,1372 L 1888,1370 L 1889,1369 L 1891,1368 L 1892,1367 L 1894,1366 L 1896,1365 L 1898,1364 L 1899,1364 L 1901,1364 L 1902,1364 L 1940,1364 L 1953,1361 L 1964,1354 L 1972,1343 L 1975,1329 L 1975,1208 L 1972,1195 L 1965,1184 L 1954,1176 L 1944,1174 L 1943,1174 L 1941,1173 L 1940,1173 L 1938,1172 L 1937,1171 L 1935,1169 L 1934,1168 L 1933,1166 L 1932,1165 L 1931,1163 L 1931,1161 L 1930,1159 L 1930,1158 L 1930,1155 L 1930,1154 L 1931,1152 L 1931,1150 L 1932,1148 L 1933,1147 L 1934,1145 L 1936,1144 L 1937,1142 L 1938,1142 L 1949,1135 L 1969,1104 L 1976,1069 L 1969,1033 L 1949,1002 L 1918,982 L 1900,978 L 1899,978 L 1895,976 L 1894,976 L 1891,974 L 1884,972 L 1883,972 L 1881,971 L 1879,971 L 1877,970 L 1876,969 L 1875,967 L 1873,966 L 1872,965 L 1871,963 L 1870,961 L 1870,960 L 1869,958 L 1869,956 L 1869,954 L 1869,952 L 1870,950 L 1870,949 L 1871,947 L 1872,945 L 1873,944 L 1874,942 L 1876,941 L 1877,940 L 1879,939 L 1881,938 L 1883,938 L 1884,937 L 1886,937 L 1887,937 L 2594,937 L 2595,937 L 2597,937 L 2599,938 L 2601,938 L 2602,939 L 2604,940 L 2606,941 L 2607,942 L 2608,944 L 2610,945 L 2610,947 L 2611,949 L 2612,950 L 2612,952 L 2612,954 L 2612,956 L 2612,958 L 2611,960 L 2611,962 L 2610,963 L 2609,965 L 2608,967 L 2607,968 L 2605,969 L 2604,970 L 2589,980 L 2588,980 L 2586,981 L 2554,1002 L 2534,1033 L 2527,1069 L 2534,1104 L 2554,1135 L 2582,1154 L 2583,1154 L 2585,1156 L 2586,1157 L 2587,1159 L 2588,1160 L 2589,1162 L 2590,1164 L 2590,1166 L 2590,1168 L 2590,1170 L 2590,1172 L 2589,1174 L 2589,1176 L 2588,1178 L 2587,1179 L 2585,1181 L 2583,1183 L 2581,1184 L 2551,1208 L 2534,1239 L 2535,1241 L 2559,1241 L 2560,1238 L 2561,1237 L 2568,1226 L 2569,1225 L 2577,1216 L 2578,1215 L 2589,1208 L 2590,1207 L 2602,1202 L 2603,1202 L 2615,1199 L 2617,1199 L 2679,1199 L 2680,1199 L 2693,1200 L 2694,1200 L 2706,1204 L 2708,1205 L 2719,1211 L 2720,1212 L 2729,1220 L 2730,1221 L 2738,1231 L 2739,1232 L 2743,1241 L 2768,1241 L 2769,1239 L 2750,1206 L 2750,1205 L 2749,1203 L 2749,1201 L 2748,1199 L 2748,1197 L 2748,1195 L 2749,1193 L 2749,1191 L 2750,1189 L 2751,1187 L 2752,1186 L 2754,1184 L 2755,1183 L 2757,1182 L 2759,1181 L 2761,1180 L 2763,1180 L 2765,1179 L 2766,1179 L 2906,1179 L 2908,1180 L 2914,1181 L 2957,1172 L 2992,1148 L 3016,1112 L 3025,1070 L 3016,1028 L 2992,991 L 2960,970 L 2959,969 L 2957,968 L 2956,967 L 2955,965 L 2954,963 L 2953,962 L 2953,960 L 2952,958 L 2952,956 L 2952,954 L 2952,952 L 2952,950 L 2953,949 L 2954,947 L 2954,945 L 2956,944 L 2957,942 L 2958,941 L 2960,940 L 2962,939 L 2963,938 L 2965,938 L 2967,937 L 2969,937 L 2970,937 L 3593,937 L 3594,937 L 3596,937 L 3598,938 L 3600,938 L 3602,939 L 3604,940 L 3605,941 L 3607,943 L 3608,944 L 3609,946 L 3610,948 L 3610,950 L 3611,952 L 3611,954 L 3611,955 L 3611,1068 L 3619,1109 L 3641,1143 L 3675,1165 L 3716,1173 L 4064,1173 L 4066,1173 L 4071,1175 L 4073,1176 L 4075,1177 L 4076,1178 L 4078,1179 L 4079,1180 L 4080,1182 L 4081,1183 L 4082,1185 L 4082,1187 L 4083,1189 L 4083,1191 L 4083,1193 L 4083,1194 L 4082,1197 L 4082,1198 L 4081,1200 L 4080,1202 L 4079,1203 L 4078,1204 L 4076,1206 L 4075,1207 L 4073,1208 L 4072,1208 L 4053,1216 L 4052,1218 L 4071,1236 L 4077,1234 L 4078,1233 L 4093,1230 L 4094,1230 L 4109,1230 L 4110,1230 L 4124,1233 L 4126,1234 L 4132,1236 L 4150,1218 L 4150,1217 L 4129,1209 L 4128,1209 L 4126,1208 L 4125,1207 L 4123,1205 L 4122,1204 L 4121,1202 L 4120,1201 L 4119,1199 L 4118,1198 L 4118,1195 L 4117,1194 L 4117,1192 L 4118,1190 L 4118,1188 L 4118,1186 L 4119,1184 L 4120,1183 L 4121,1181 L 4122,1180 L 4124,1178 L 4125,1177 L 4127,1176 L 4129,1175 L 4131,1175 L 4132,1175 L 4140,1173 L 4141,1173 L 6067,1173 L 6070,1173 L 6072,1173 L 6895,1173 L 6936,1164 L 6971,1141 L 7022,1090 L 7023,1089 L 7025,1087 L 7027,1086 L 7030,1085 L 7031,1085 L 7047,1082 L 7058,1075 L 7065,1064 L 7068,1050 L 7068,1039 L 7068,1038 L 7068,1035 L 7069,1032 L 7069,1032 L 7077,991 L 7069,951 L 7069,950 L 7068,948 L 7068,945 L 7068,944 L 7068,933 L 7065,920 L 7058,909 L 7047,901 L 7033,898 L 7022,898 L 7021,898 L 7018,898 L 7016,897 L 7015,897 L 6975,889 L 6934,897 L 6934,897 L 6932,898 L 6929,898 L 6927,898 L 6916,898 L 6903,901 L 6892,908 L 6885,919 L 6881,935 L 6881,936 L 6880,939 L 6879,941 L 6877,943 L 6876,944 L 6859,961 L 6858,962 L 6856,964 L 6855,965 L 6852,966 L 6850,966 L 6848,967 L 6847,967 L 6071,967 L 6068,967 L 6067,967 L 4144,967 L 4143,967 L 4102,959 L 4061,967 L 4060,967 L 3835,967 L 3834,967 L 3832,967 L 3830,966 L 3828,966 L 3826,965 L 3824,964 L 3823,963 L 3822,961 L 3820,960 L 3819,958 L 3818,956 L 3818,954 L 3817,952 L 3817,950 L 3817,949 L 3817,842 L 3809,801 L 3786,766 L 3782,762 L 3747,739 L 3706,731 L 285,731 L 244,739 L 209,762 L 94,878 L 70,913 L 62,954 L 62,3110 L 70,3151 L 94,3185 L 296,3388 L 297,3388 L 298,3391 L 300,3393 L 301,3396 L 301,3397 L 304,3412 L 311,3423 L 321,3430 L 336,3433 L 347,3433 L 348,3433 L 351,3434 L 353,3435 L 354,3435 L 394,3443 L 434,3435 L 435,3435 L 437,3434 L 440,3433 L 441,3433 L 452,3433 L 466,3431 L 477,3424 L 484,3413 L 487,3398 L 487,3388 L 487,3386 L 488,3384 L 488,3381 L 489,3381 L 497,3340 L 489,3300 L 488,3299 L 488,3297 L 487,3294 L 487,3293 L 487,3282 L 485,3269 L 478,3257 L 467,3250 L 451,3247 L 449,3247 L 447,3246 L 445,3244 L 442,3243 L 441,3242 L 273,3074 L 273,3073 L 271,3071 L 270,3069 L 269,3067 L 269,3065 L 268,3062 L 268,3061 L 268,2998 L 268,2997 L 269,2995 L 269,2994 L 270,2992 L 270,2990 L 271,2988 L 272,2987 L 274,2985 L 275,2984 L 277,2983 L 278,2982 L 280,2981 L 282,2981 L 284,2981 L 285,2980 L 288,2980 L 289,2981 L 291,2981 L 293,2982 L 295,2983 L 296,2984 L 298,2985 L 299,2986 L 300,2988 L 301,2988 L 323,3021 L 530,3228 L 564,3251 L 606,3259 L 5962,3259 L 5963,3259 L 5965,3260 L 5967,3260 L 5969,3261 L 5971,3262 L 5973,3263 L 5975,3265 L 5976,3267 L 5977,3267 L 5984,3279 L 5995,3287 L 6010,3290 L 6029,3290 L 6031,3290 L 6071,3298 L 6855,3298 L 6896,3290 L 6931,3267 L 7022,3176 L 7023,3175 L 7025,3173 L 7027,3172 L 7030,3171 L 7031,3171 L 7047,3168 L 7058,3161 L 7065,3150 L 7068,3136 L 7068,3125 L 7068,3124 L 7068,3121 L 7069,3119 L 7069,3118 L 7077,3078 L 7069,3037 L 7069,3037 L 7068,3034 L 7068,3031 L 7068,3030 L 7068,3019 L 7065,3006 L 7058,2995 L 7047,2987 L 7033,2984 L 7022,2984 L 7021,2984 L 7018,2984 L 7016,2983 L 7015,2983 L 6975,2975 L 6934,2983 L 6934,2983 L 6932,2984 L 6929,2984 L 6927,2984 L 6916,2984 L 6903,2987 L 6892,2994 L 6885,3005 L 6881,3021 L 6881,3022 L 6880,3025 L 6879,3027 L 6877,3029 L 6876,3030 L 6820,3087 L 6819,3088 L 6817,3089 L 6815,3090 L 6813,3091 L 6811,3092 L 6808,3092 L 6807,3092 L 6119,3092 L 6118,3092 L 6116,3092 L 6114,3091 L 6111,3090 L 6110,3089 L 6108,3088 L 6107,3087 L 6105,3085 L 6070,3061 L 6029,3053 L 3874,3053 L 3873,3053 L 3871,3053 L 3869,3053 L 3867,3052 L 3866,3051 L 3864,3050 L 3862,3049 L 3861,3047 L 3860,3046 L 3859,3044 L 3858,3042 L 3857,3040 L 3857,3039 L 3856,3036 L 3856,3035 L 3856,2065 L 3856,2064 L 3857,2062 L 3857,2060 L 3858,2058 L 3859,2056 L 3860,2054 L 3861,2053 L 3862,2051 L 3864,2050 L 3866,2049 L 3867,2048 L 3869,2048 L 3871,2047 L 3873,2047 L 3874,2047 L 3891,2047 L 3892,2047 L 3894,2047 L 3896,2048 L 3899,2049 L 3900,2050 L 3902,2051 L 3903,2052 L 3994,2143 L 3995,2144 L 3996,2146 L 3997,2148 L 3998,2150 L 3999,2152 L 3999,2155 L 3999,2156 L 3999,2161 L 4002,2174 L 4009,2185 L 4020,2193 L 4034,2195 L 4059,2196 L 4060,2196 L 4101,2204 L 4139,2197 L 4141,2196 L 4899,2196 L 4900,2197 L 4902,2197 L 4904,2197 L 4907,2198 L 4908,2199 L 4910,2201 L 4912,2202 L 4913,2204 L 4914,2205 L 4922,2217 L 4932,2224 L 4947,2227 L 4967,2227 L 4968,2227 L 5008,2235 L 6934,2235 L 6975,2227 L 7010,2204 L 7022,2192 L 7023,2191 L 7025,2189 L 7027,2188 L 7030,2187 L 7031,2187 L 7047,2184 L 7058,2177 L 7065,2166 L 7068,2152 L 7068,2141 L 7068,2140 L 7068,2137 L 7069,2135 L 7069,2134 L 7077,2094 L 7069,2053 L 7069,2052 L 7068,2050 L 7068,2047 L 7068,2046 L 7068,2035 L 7065,2022 L 7058,2011 L 7047,2003 L 7033,2000 L 7022,2000 L 7021,2000 L 7018,2000 L 7016,1999 L 7015,1999 L 6975,1991 L 6934,1999 L 6934,1999 L 6932,2000 L 6929,2000 L 6927,2000 L 6916,2000 L 6903,2003 L 6892,2010 L 6884,2022 L 6883,2022 L 6882,2024 L 6880,2025 L 6878,2027 L 6877,2028 L 6875,2029 L 6873,2029 L 6870,2029 L 6869,2029 L 5057,2029 L 5056,2029 L 5053,2029 L 5051,2028 L 5049,2027 L 5047,2026 L 5045,2025 L 5044,2024 L 5042,2022 L 5007,1999 L 4966,1991 L 4163,1991 L 4162,1990 L 4159,1990 L 4157,1990 L 4155,1989 L 4153,1988 L 4151,1986 L 4150,1985 L 4024,1859 L 3986,1834 L 3942,1825 L 3882,1825 L 3881,1825 L 3879,1825 L 3877,1825 L 3875,1824 L 3874,1823 L 3872,1822 L 3870,1821 L 3869,1819 L 3868,1818 L 3866,1816 L 3866,1814 L 3865,1812 L 3865,1810 L 3864,1808 L 3864,1807 L 3864,1505 L 3856,1461 L 3832,1425 L 3796,1401 L 3753,1393 L 3711,1401 L 3675,1425 L 3651,1461 L 3643,1505 L 3643,1934 L 3650,1974 L 3650,1976 L 3650,3035 L 3650,3036 L 3650,3039 L 3650,3040 L 3649,3042 L 3648,3044 L 3647,3046 L 3646,3047 L 3644,3049 L 3643,3050 L 3641,3051 L 3640,3052 L 3637,3053 L 3636,3053 L 3633,3053 L 3633,3053 L 654,3053 L 653,3053 L 650,3053 L 648,3052 L 646,3051 L 644,3050 L 642,3049 L 641,3048 L 468,2875 L 433,2852 L 394,2844 L 355,2852 L 322,2874 L 301,2905 L 300,2906 L 299,2907 L 298,2909 L 296,2910 L 295,2911 L 293,2912 L 291,2912 L 289,2913 L 288,2913 L 285,2913 L 284,2913 L 282,2912 L 280,2912 L 278,2911 L 277,2910 L 275,2909 L 274,2908 L 272,2906 L 271,2905 L 270,2903 L 270,2902 L 269,2900 L 269,2898 L 268,2896 L 268,2895 L 268,2582 L 268,2581 L 269,2579 L 269,2577 L 270,2575 L 270,2574 L 271,2572 L 272,2571 L 274,2569 L 275,2568 L 277,2567 L 278,2566 L 280,2565 L 282,2565 L 284,2564 L 285,2564 L 287,2564 L 289,2564 L 291,2565 L 293,2565 L 295,2566 L 296,2567 L 298,2568 L 299,2570 L 300,2571 L 301,2573 L 302,2574 L 303,2575 L 311,2596 L 312,2596 L 331,2577 L 328,2568 L 328,2566 L 326,2554 L 326,2552 L 328,2540 L 328,2538 L 331,2529 L 312,2510 L 312,2510 L 303,2535 L 303,2536 L 302,2537 L 301,2539 L 299,2541 L 298,2542 L 297,2543 L 295,2544 L 293,2545 L 292,2546 L 290,2546 L 288,2547 L 286,2547 L 284,2546 L 282,2546 L 280,2546 L 278,2545 L 277,2544 L 275,2543 L 274,2542 L 272,2540 L 271,2539 L 270,2537 L 270,2535 L 269,2533 L 269,2532 L 268,2530 L 268,2529 L 268,1868 L 268,1867 L 269,1865 L 269,1863 L 269,1861 L 270,1860 L 271,1858 L 272,1856 L 274,1855 L 275,1854 L 275,1854 z " style="fill-opacity:1.000000;fill:rgb(84,17,14);stroke:rgb(0,0,0);stroke-width:2"/></g>
</svg>
