<?xml version="1.0" standalone="no"?>
<!DOCTYPE svg PUBLIC "-//W3C//DTD SVG 1.1//EN"
"http://www.w3.org/Graphics/SVG/1.1/DTD/svg11.dtd">
<svg width="7141" height="3719" viewBox="0 0 7141 3719" version="1.1"
xmlns="http://www.w3.org/2000/svg"
xmlns:xlink="http://www.w3.org/1999/xlink">
<g fill-rule="evenodd"><path d="M 1617,1071 L 1616,1083 L 1615,1085 L 1611,1097 L 1611,1098 L 1605,1109 L 1604,1111 L 1595,1120 L 1594,1121 L 1584,1128 L 1582,1129 L 1571,1134 L 1569,1135 L 1557,1137 L 1555,1138 L 1543,1138 L 1541,1137 L 1529,1135 L 1527,1134 L 1516,1129 L 1515,1128 L 1504,1121 L 1503,1120 L 1495,1111 L 1494,1109 L 1488,1098 L 1487,1097 L 1483,1085 L 1483,1083 L 1481,1071 L 1481,1069 L 1483,1057 L 1483,1055 L 1487,1043 L 1488,1042 L 1494,1031 L 1495,1030 L 1503,1020 L 1504,1019 L 1515,1012 L 1516,1011 L 1527,1006 L 1529,1005 L 1541,1003 L 1543,1003 L 1555,1003 L 1557,1003 L 1569,1005 L 1571,1006 L 1582,1011 L 1584,1012 L 1594,1019 L 1595,1020 L 1604,1030 L 1605,1031 L 1611,1042 L 1611,1043 L 1615,1055 L 1616,1057 L 1617,1069 L 1617,1071 z " style="fill-opacity:1.000000;fill:rgb(103,198,105);stroke:rgb(0,0,0);stroke-width:2"/></g>
<g fill-rule="evenodd"><path d="M 817,1071 L 816,1083 L 816,1085 L 812,1097 L 811,1098 L 805,1109 L 804,1111 L 795,1120 L 794,1121 L 784,1128 L 783,1129 L 771,1134 L 770,1135 L 757,1137 L 756,1138 L 743,1138 L 741,1137 L 729,1135 L 728,1134 L 716,1129 L 715,1128 L 705,1121 L 703,1120 L 695,1111 L 694,1109 L 688,1098 L 687,1097 L 683,1085 L 683,1083 L 682,1071 L 682,1069 L 683,1057 L 683,1055 L 687,1043 L 688,1042 L 694,1031 L 695,1030 L 703,1020 L 705,1019 L 715,1012 L 716,1011 L 728,1006 L 729,1005 L 741,1003 L 743,1003 L 756,1003 L 757,1003 L 770,1005 L 771,1006 L 783,1011 L 784,1012 L 794,1019 L 795,1020 L 804,1030 L 805,1031 L 811,1042 L 812,1043 L 816,1055 L 816,1057 L 817,1069 L 817,1071 z " style="fill-opacity:1.000000;fill:rgb(115,81,255);stroke:rgb(0,0,0);stroke-width:2"/></g>
<g fill-rule="evenodd"><path d="M 1617,1465 L 1616,1477 L 1615,1479 L 1611,1491 L 1611,1492 L 1605,1503 L 1604,1504 L 1595,1514 L 1594,1515 L 1584,1522 L 1582,1523 L 1571,1528 L 1569,1528 L 1557,1531 L 1555,1531 L 1543,1531 L 1541,1531 L 1529,1528 L 1527,1528 L 1516,1523 L 1515,1522 L 1504,1515 L 1503,1514 L 1495,1504 L 1494,1503 L 1488,1492 L 1487,1491 L 1483,1479 L 1483,1477 L 1481,1465 L 1481,1463 L 1483,1450 L 1483,1449 L 1487,1437 L 1488,1435 L 1494,1425 L 1495,1423 L 1503,1414 L 1504,1413 L 1515,1405 L 1516,1405 L 1527,1399 L 1529,1399 L 1541,1396 L 1543,1396 L 1555,1396 L 1557,1396 L 1569,1399 L 1571,1399 L 1582,1405 L 1584,1405 L 1594,1413 L 1595,1414 L 1604,1423 L 1605,1425 L 1611,1435 L 1611,1437 L 1615,1449 L 1616,1450 L 1617,1463 L 1617,1465 z " style="fill-opacity:1.000000;fill:rgb(74,236,41);stroke:rgb(0,0,0);stroke-width:2"/></g>
<g fill-rule="evenodd"><path d="M 817,1465 L 816,1477 L 816,1479 L 812,1491 L 811,1492 L 805,1503 L 804,1504 L 795,1514 L 794,1515 L 784,1522 L 783,1523 L 771,1528 L 770,1528 L 757,1531 L 756,1531 L 743,1531 L 741,1531 L 729,1528 L 728,1528 L 716,1523 L 715,1522 L 705,1515 L 703,1514 L 695,1504 L 694,1503 L 688,1492 L 687,1491 L 683,1479 L 683,1477 L 682,1465 L 682,1463 L 683,1450 L 683,1449 L 687,1437 L 688,1435 L 694,1425 L 695,1423 L 703,1414 L 705,1413 L 715,1405 L 716,1405 L 728,1399 L 729,1399 L 741,1396 L 743,1396 L 756,1396 L 757,1396 L 770,1399 L 771,1399 L 783,1405 L 784,1405 L 794,1413 L 795,1414 L 804,1423 L 805,1425 L 811,1435 L 812,1437 L 816,1449 L 816,1450 L 817,1463 L 817,1465 z " style="fill-opacity:1.000000;fill:rgb(205,186,171);stroke:rgb(0,0,0);stroke-width:2"/></g>
<g fill-rule="evenodd"><path d="M 1656,1858 L 1655,1871 L 1655,1872 L 1651,1884 L 1650,1886 L 1644,1897 L 1643,1898 L 1635,1907 L 1633,1908 L 1623,1916 L 1622,1916 L 1610,1922 L 1609,1922 L 1596,1925 L 1595,1925 L 1582,1925 L 1581,1925 L 1568,1922 L 1567,1922 L 1555,1916 L 1554,1916 L 1544,1908 L 1543,1907 L 1534,1898 L 1533,1897 L 1527,1886 L 1526,1884 L 1522,1872 L 1522,1871 L 1521,1858 L 1521,1857 L 1522,1844 L 1522,1842 L 1526,1831 L 1527,1829 L 1533,1818 L 1534,1817 L 1543,1807 L 1544,1806 L 1554,1799 L 1555,1798 L 1567,1793 L 1568,1793 L 1581,1790 L 1582,1790 L 1595,1790 L 1596,1790 L 1609,1793 L 1610,1793 L 1622,1798 L 1623,1799 L 1633,1806 L 1635,1807 L 1643,1817 L 1644,1818 L 1650,1829 L 1651,1831 L 1655,1842 L 1655,1844 L 1656,1857 L 1656,1858 z " style="fill-opacity:1.000000;fill:rgb(242,251,227);stroke:rgb(0,0,0);stroke-width:2"/></g>
<g fill-rule="evenodd"><path d="M 857,1858 L 855,1871 L 855,1872 L 851,1884 L 850,1886 L 844,1897 L 843,1898 L 835,1907 L 834,1908 L 823,1916 L 822,1916 L 810,1922 L 809,1922 L 797,1925 L 795,1925 L 782,1925 L 781,1925 L 769,1922 L 767,1922 L 756,1916 L 754,1916 L 744,1908 L 743,1907 L 734,1898 L 733,1897 L 727,1886 L 726,1884 L 723,1872 L 722,1871 L 721,1858 L 721,1857 L 722,1844 L 723,1842 L 726,1831 L 727,1829 L 733,1818 L 734,1817 L 743,1807 L 744,1806 L 754,1799 L 756,1798 L 767,1793 L 769,1793 L 781,1790 L 782,1790 L 795,1790 L 797,1790 L 809,1793 L 810,1793 L 822,1798 L 823,1799 L 834,1806 L 835,1807 L 843,1817 L 844,1818 L 850,1829 L 851,1831 L 855,1842 L 855,1844 L 857,1857 L 857,1858 z " style="fill-opacity:1.000000;fill:rgb(70,124,194);stroke:rgb(0,0,0);stroke-width:2"/></g>
<g fill-rule="evenodd"><path d="M 2982,1071 L 2981,1083 L 2980,1085 L 2977,1097 L 2976,1098 L 2970,1109 L 2969,1111 L 2960,1120 L 2959,1121 L 2949,1128 L 2947,1129 L 2936,1134 L 2934,1135 L 2922,1137 L 2921,1138 L 2908,1138 L 2906,1137 L 2894,1135 L 2893,1134 L 2881,1129 L 2880,1128 L 2869,1121 L 2868,1120 L 2860,1111 L 2859,1109 L 2853,1098 L 2852,1097 L 2848,1085 L 2848,1083 L 2846,1071 L 2846,1069 L 2848,1057 L 2848,1055 L 2852,1043 L 2853,1042 L 2859,1031 L 2860,1030 L 2868,1020 L 2869,1019 L 2880,1012 L 2881,1011 L 2893,1006 L 2894,1005 L 2906,1003 L 2908,1003 L 2921,1003 L 2922,1003 L 2934,1005 L 2936,1006 L 2947,1011 L 2949,1012 L 2959,1019 L 2960,1020 L 2969,1030 L 2970,1031 L 2976,1042 L 2977,1043 L 2980,1055 L 2981,1057 L 2982,1069 L 2982,1071 z " style="fill-opacity:1.000000;fill:rgb(84,248,27);stroke:rgb(0,0,0);stroke-width:2"/></g>
<g fill-rule="evenodd"><path d="M 3782,1071 L 3781,1083 L 3780,1085 L 3776,1097 L 3776,1098 L 3769,1109 L 3768,1111 L 3760,1120 L 3759,1121 L 3749,1128 L 3747,1129 L 3736,1134 L 3734,1135 L 3722,1137 L 3720,1138 L 3708,1138 L 3706,1137 L 3694,1135 L 3692,1134 L 3681,1129 L 3679,1128 L 3669,1121 L 3668,1120 L 3660,1111 L 3659,1109 L 3652,1098 L 3652,1097 L 3648,1085 L 3648,1083 L 3646,1071 L 3646,1069 L 3648,1057 L 3648,1055 L 3652,1043 L 3652,1042 L 3659,1031 L 3660,1030 L 3668,1020 L 3669,1019 L 3679,1012 L 3681,1011 L 3692,1006 L 3694,1005 L 3706,1003 L 3708,1003 L 3720,1003 L 3722,1003 L 3734,1005 L 3736,1006 L 3747,1011 L 3749,1012 L 3759,1019 L 3760,1020 L 3768,1030 L 3769,1031 L 3776,1042 L 3776,1043 L 3780,1055 L 3781,1057 L 3782,1069 L 3782,1071 z " style="fill-opacity:1.000000;fill:rgb(232,231,141);stroke:rgb(0,0,0);stroke-width:2"/></g>
<g fill-rule="evenodd"><path d="M 3021,1504 L 3020,1516 L 3020,1518 L 3016,1530 L 3015,1531 L 3009,1542 L 3008,1544 L 3000,1553 L 2998,1554 L 2988,1561 L 2987,1562 L 2975,1567 L 2974,1568 L 2962,1570 L 2960,1571 L 2947,1571 L 2946,1570 L 2933,1568 L 2932,1567 L 2920,1562 L 2919,1561 L 2909,1554 L 2908,1553 L 2899,1544 L 2898,1542 L 2892,1531 L 2891,1530 L 2887,1518 L 2887,1516 L 2886,1504 L 2886,1502 L 2887,1490 L 2887,1488 L 2891,1476 L 2892,1475 L 2898,1464 L 2899,1463 L 2908,1453 L 2909,1452 L 2919,1445 L 2920,1444 L 2932,1439 L 2933,1438 L 2946,1436 L 2947,1436 L 2960,1436 L 2962,1436 L 2974,1438 L 2975,1439 L 2987,1444 L 2988,1445 L 2998,1452 L 3000,1453 L 3008,1463 L 3009,1464 L 3015,1475 L 3016,1476 L 3020,1488 L 3020,1490 L 3021,1502 L 3021,1504 z " style="fill-opacity:1.000000;fill:rgb(118,90,46);stroke:rgb(0,0,0);stroke-width:2"/></g>
<g fill-rule="evenodd"><path d="M 3821,1504 L 3820,1516 L 3820,1518 L 3816,1530 L 3815,1531 L 3809,1542 L 3808,1544 L 3799,1553 L 3798,1554 L 3788,1561 L 3787,1562 L 3775,1567 L 3774,1568 L 3761,1570 L 3760,1571 L 3747,1571 L 3746,1570 L 3733,1568 L 3732,1567 L 3720,1562 L 3719,1561 L 3709,1554 L 3707,1553 L 3699,1544 L 3698,1542 L 3692,1531 L 3691,1530 L 3687,1518 L 3687,1516 L 3686,1504 L 3686,1502 L 3687,1490 L 3687,1488 L 3691,1476 L 3692,1475 L 3698,1464 L 3699,1463 L 3707,1453 L 3709,1452 L 3719,1445 L 3720,1444 L 3732,1439 L 3733,1438 L 3746,1436 L 3747,1436 L 3760,1436 L 3761,1436 L 3774,1438 L 3775,1439 L 3787,1444 L 3788,1445 L 3798,1452 L 3799,1453 L 3808,1463 L 3809,1464 L 3815,1475 L 3816,1476 L 3820,1488 L 3820,1490 L 3821,1502 L 3821,1504 z " style="fill-opacity:1.000000;fill:rgb(99,51,159);stroke:rgb(0,0,0);stroke-width:2"/></g>
<g fill-rule="evenodd"><path d="M 3021,1937 L 3020,1949 L 3020,1951 L 3016,1963 L 3015,1964 L 3009,1975 L 3008,1977 L 3000,1986 L 2998,1987 L 2988,1994 L 2987,1995 L 2975,2000 L 2974,2001 L 2962,2003 L 2960,2004 L 2947,2004 L 2946,2003 L 2933,2001 L 2932,2000 L 2920,1995 L 2919,1994 L 2909,1987 L 2908,1986 L 2899,1977 L 2898,1975 L 2892,1964 L 2891,1963 L 2887,1951 L 2887,1949 L 2886,1937 L 2886,1935 L 2887,1923 L 2887,1921 L 2891,1909 L 2892,1908 L 2898,1897 L 2899,1896 L 2908,1886 L 2909,1885 L 2919,1878 L 2920,1877 L 2932,1872 L 2933,1871 L 2946,1869 L 2947,1869 L 2960,1869 L 2962,1869 L 2974,1871 L 2975,1872 L 2987,1877 L 2988,1878 L 2998,1885 L 3000,1886 L 3008,1896 L 3009,1897 L 3015,1908 L 3016,1909 L 3020,1921 L 3020,1923 L 3021,1935 L 3021,1937 z " style="fill-opacity:1.000000;fill:rgb(201,154,102);stroke:rgb(0,0,0);stroke-width:2"/></g>
<g fill-rule="evenodd"><path d="M 3821,1937 L 3820,1949 L 3820,1951 L 3816,1963 L 3815,1964 L 3809,1975 L 3808,1977 L 3799,1986 L 3798,1987 L 3788,1994 L 3787,1995 L 3775,2000 L 3774,2001 L 3761,2003 L 3760,2004 L 3747,2004 L 3746,2003 L 3733,2001 L 3732,2000 L 3720,1995 L 3719,1994 L 3709,1987 L 3707,1986 L 3699,1977 L 3698,1975 L 3692,1964 L 3691,1963 L 3687,1951 L 3687,1949 L 3686,1937 L 3686,1935 L 3687,1923 L 3687,1921 L 3691,1909 L 3692,1908 L 3698,1897 L 3699,1896 L 3707,1886 L 3709,1885 L 3719,1878 L 3720,1877 L 3732,1872 L 3733,1871 L 3746,1869 L 3747,1869 L 3760,1869 L 3761,1869 L 3774,1871 L 3775,1872 L 3787,1877 L 3788,1878 L 3798,1885 L 3799,1886 L 3808,1896 L 3809,1897 L 3815,1908 L 3816,1909 L 3820,1921 L 3820,1923 L 3821,1935 L 3821,1937 z " style="fill-opacity:1.000000;fill:rgb(50,13,183);stroke:rgb(0,0,0);stroke-width:2"/></g>
<g fill-rule="evenodd"><path d="M 6000,1131 L 6000,1008 L 6000,1006 L 6001,1005 L 6002,1003 L 6003,1002 L 6005,1001 L 6006,1000 L 6008,1000 L 6131,1000 L 6133,1000 L 6134,1001 L 6136,1002 L 6137,1003 L 6138,1005 L 6139,1006 L 6139,1008 L 6139,1131 L 6139,1133 L 6138,1134 L 6137,1136 L 6136,1137 L 6134,1138 L 6133,1139 L 6131,1139 L 6008,1139 L 6006,1139 L 6005,1138 L 6003,1137 L 6002,1136 L 6001,1134 L 6000,1133 L 6000,1131 z " style="fill-opacity:1.000000;fill:rgb(49,88,163);stroke:rgb(0,0,0);stroke-width:2"/></g>
<g fill-rule="evenodd"><path d="M 6139,481 L 6137,493 L 6137,495 L 6133,507 L 6132,509 L 6126,520 L 6125,521 L 6116,531 L 6115,532 L 6105,539 L 6103,540 L 6092,545 L 6090,546 L 6077,549 L 6076,549 L 6063,549 L 6061,549 L 6049,546 L 6047,545 L 6035,540 L 6034,539 L 6024,532 L 6022,531 L 6014,521 L 6013,520 L 6006,509 L 6006,507 L 6002,495 L 6001,493 L 6000,481 L 6000,479 L 6001,466 L 6002,464 L 6006,452 L 6006,451 L 6013,440 L 6014,438 L 6022,429 L 6024,428 L 6034,420 L 6035,419 L 6047,414 L 6049,414 L 6061,411 L 6063,411 L 6076,411 L 6077,411 L 6090,414 L 6092,414 L 6103,419 L 6105,420 L 6115,428 L 6116,429 L 6125,438 L 6126,440 L 6132,451 L 6133,452 L 6137,464 L 6137,466 L 6139,479 L 6139,481 z " style="fill-opacity:1.000000;fill:rgb(90,37,93);stroke:rgb(0,0,0);stroke-width:2"/></g>
<g fill-rule="evenodd"><path d="M 4937,2194 L 4937,2071 L 4938,2069 L 4938,2067 L 4939,2066 L 4940,2065 L 4942,2064 L 4943,2063 L 4945,2063 L 5068,2063 L 5070,2063 L 5072,2064 L 5073,2065 L 5074,2066 L 5075,2067 L 5076,2069 L 5076,2071 L 5076,2194 L 5076,2196 L 5075,2197 L 5074,2199 L 5073,2200 L 5072,2201 L 5070,2201 L 5068,2202 L 4945,2202 L 4943,2201 L 4942,2201 L 4940,2200 L 4939,2199 L 4938,2197 L 4938,2196 L 4937,2194 z " style="fill-opacity:1.000000;fill:rgb(5,23,88);stroke:rgb(0,0,0);stroke-width:2"/></g>
<g fill-rule="evenodd"><path d="M 5076,1543 L 5075,1556 L 5074,1558 L 5070,1570 L 5070,1571 L 5063,1583 L 5062,1584 L 5054,1593 L 5052,1595 L 5042,1602 L 5041,1603 L 5029,1608 L 5027,1609 L 5015,1611 L 5013,1611 L 5000,1611 L 4999,1611 L 4986,1609 L 4984,1608 L 4973,1603 L 4971,1602 L 4961,1595 L 4960,1593 L 4951,1584 L 4950,1583 L 4944,1571 L 4943,1570 L 4939,1558 L 4939,1556 L 4937,1543 L 4937,1542 L 4939,1529 L 4939,1527 L 4943,1515 L 4944,1514 L 4950,1502 L 4951,1501 L 4960,1491 L 4961,1490 L 4971,1483 L 4973,1482 L 4984,1477 L 4986,1476 L 4999,1474 L 5000,1473 L 5013,1473 L 5015,1474 L 5027,1476 L 5029,1477 L 5041,1482 L 5042,1483 L 5052,1490 L 5054,1491 L 5062,1501 L 5063,1502 L 5070,1514 L 5070,1515 L 5074,1527 L 5075,1529 L 5076,1542 L 5076,1543 z " style="fill-opacity:1.000000;fill:rgb(233,94,212);stroke:rgb(0,0,0);stroke-width:2"/></g>
<g fill-rule="evenodd"><path d="M 6000,3257 L 6000,3134 L 6000,3132 L 6001,3130 L 6002,3129 L 6003,3127 L 6005,3126 L 6006,3126 L 6008,3126 L 6131,3126 L 6133,3126 L 6134,3126 L 6136,3127 L 6137,3129 L 6138,3130 L 6139,3132 L 6139,3134 L 6139,3257 L 6139,3258 L 6138,3260 L 6137,3261 L 6136,3263 L 6134,3264 L 6133,3264 L 6131,3264 L 6008,3264 L 6006,3264 L 6005,3264 L 6003,3263 L 6002,3261 L 6001,3260 L 6000,3258 L 6000,3257 z " style="fill-opacity:1.000000;fill:rgb(171,178,205);stroke:rgb(0,0,0);stroke-width:2"/></g>
<g fill-rule="evenodd"><path d="M 6139,2606 L 6137,2619 L 6137,2620 L 6133,2633 L 6132,2634 L 6126,2645 L 6125,2647 L 6116,2656 L 6115,2657 L 6105,2665 L 6103,2666 L 6092,2671 L 6090,2671 L 6077,2674 L 6076,2674 L 6063,2674 L 6061,2674 L 6049,2671 L 6047,2671 L 6035,2666 L 6034,2665 L 6024,2657 L 6022,2656 L 6014,2647 L 6013,2645 L 6006,2634 L 6006,2633 L 6002,2620 L 6001,2619 L 6000,2606 L 6000,2604 L 6001,2592 L 6002,2590 L 6006,2578 L 6006,2576 L 6013,2565 L 6014,2564 L 6022,2554 L 6024,2553 L 6034,2546 L 6035,2545 L 6047,2540 L 6049,2539 L 6061,2536 L 6063,2536 L 6076,2536 L 6077,2536 L 6090,2539 L 6092,2540 L 6103,2545 L 6105,2546 L 6115,2553 L 6116,2554 L 6125,2564 L 6126,2565 L 6132,2576 L 6133,2578 L 6137,2590 L 6137,2592 L 6139,2604 L 6139,2606 z " style="fill-opacity:1.000000;fill:rgb(198,155,180);stroke:rgb(0,0,0);stroke-width:2"/></g>
<g fill-rule="evenodd"><path d="M 6907,3138 L 6907,3018 L 6907,3016 L 6908,3014 L 6909,3013 L 6910,3011 L 6911,3010 L 6913,3010 L 6915,3010 L 7035,3010 L 7036,3010 L 7038,3010 L 7040,3011 L 7041,3013 L 7042,3014 L 7042,3016 L 7043,3018 L 7043,3138 L 7042,3139 L 7042,3141 L 7041,3142 L 7040,3144 L 7038,3145 L 7036,3145 L 7035,3145 L 6915,3145 L 6913,3145 L 6911,3145 L 6910,3144 L 6909,3142 L 6908,3141 L 6907,3139 L 6907,3138 z " style="fill-opacity:1.000000;fill:rgb(84,17,14);stroke:rgb(0,0,0);stroke-width:2"/></g>
<g fill-rule="evenodd"><path d="M 7043,2685 L 7041,2697 L 7041,2699 L 7037,2711 L 7036,2712 L 7030,2723 L 7029,2724 L 7021,2734 L 7019,2735 L 7009,2742 L 7008,2743 L 6996,2748 L 6995,2749 L 6983,2751 L 6981,2751 L 6968,2751 L 6967,2751 L 6955,2749 L 6953,2748 L 6942,2743 L 6940,2742 L 6930,2735 L 6929,2734 L 6920,2724 L 6919,2723 L 6913,2712 L 6912,2711 L 6909,2699 L 6908,2697 L 6907,2685 L 6907,2683 L 6908,2671 L 6909,2669 L 6912,2657 L 6913,2656 L 6919,2645 L 6920,2643 L 6929,2634 L 6930,2633 L 6940,2626 L 6942,2625 L 6953,2620 L 6955,2619 L 6967,2617 L 6968,2616 L 6981,2616 L 6983,2617 L 6995,2619 L 6996,2620 L 7008,2625 L 7009,2626 L 7019,2633 L 7021,2634 L 7029,2643 L 7030,2645 L 7036,2656 L 7037,2657 L 7041,2669 L 7041,2671 L 7043,2683 L 7043,2685 z " style="fill-opacity:1.000000;fill:rgb(130,116,65);stroke:rgb(0,0,0);stroke-width:2"/></g>
<g fill-rule="evenodd"><path d="M 6907,1051 L 6907,931 L 6907,930 L 6908,928 L 6909,927 L 6910,925 L 6911,924 L 6913,924 L 6915,924 L 7035,924 L 7036,924 L 7038,924 L 7040,925 L 7041,927 L 7042,928 L 7042,930 L 7043,931 L 7043,1051 L 7042,1053 L 7042,1055 L 7041,1056 L 7040,1058 L 7038,1058 L 7036,1059 L 7035,1059 L 6915,1059 L 6913,1059 L 6911,1058 L 6910,1058 L 6909,1056 L 6908,1055 L 6907,1053 L 6907,1051 z " style="fill-opacity:1.000000;fill:rgb(33,61,220);stroke:rgb(0,0,0);stroke-width:2"/></g>
<g fill-rule="evenodd"><path d="M 7043,599 L 7041,611 L 7041,613 L 7037,625 L 7036,626 L 7030,637 L 7029,638 L 7021,648 L 7019,649 L 7009,656 L 7008,657 L 6996,662 L 6995,663 L 6983,665 L 6981,665 L 6968,665 L 6967,665 L 6955,663 L 6953,662 L 6942,657 L 6940,656 L 6930,649 L 6929,648 L 6920,638 L 6919,637 L 6913,626 L 6912,625 L 6909,613 L 6908,611 L 6907,599 L 6907,597 L 6908,584 L 6909,583 L 6912,571 L 6913,569 L 6919,559 L 6920,557 L 6929,548 L 6930,547 L 6940,539 L 6942,539 L 6953,534 L 6955,533 L 6967,530 L 6968,530 L 6981,530 L 6983,530 L 6995,533 L 6996,534 L 7008,539 L 7009,539 L 7019,547 L 7021,548 L 7029,557 L 7030,559 L 7036,569 L 7037,571 L 7041,583 L 7041,584 L 7043,597 L 7043,599 z " style="fill-opacity:1.000000;fill:rgb(135,112,233);stroke:rgb(0,0,0);stroke-width:2"/></g>
<g fill-rule="evenodd"><path d="M 6907,2153 L 6907,2034 L 6907,2032 L 6908,2030 L 6909,2029 L 6910,2027 L 6911,2026 L 6913,2026 L 6915,2026 L 7035,2026 L 7036,2026 L 7038,2026 L 7040,2027 L 7041,2029 L 7042,2030 L 7042,2032 L 7043,2034 L 7043,2153 L 7042,2155 L 7042,2157 L 7041,2158 L 7040,2160 L 7038,2161 L 7036,2161 L 7035,2161 L 6915,2161 L 6913,2161 L 6911,2161 L 6910,2160 L 6909,2158 L 6908,2157 L 6907,2155 L 6907,2153 z " style="fill-opacity:1.000000;fill:rgb(62,161,65);stroke:rgb(0,0,0);stroke-width:2"/></g>
<g fill-rule="evenodd"><path d="M 7043,1701 L 7041,1713 L 7041,1715 L 7037,1727 L 7036,1728 L 7030,1739 L 7029,1740 L 7021,1750 L 7019,1751 L 7009,1758 L 7008,1759 L 6996,1764 L 6995,1765 L 6983,1767 L 6981,1767 L 6968,1767 L 6967,1767 L 6955,1765 L 6953,1764 L 6942,1759 L 6940,1758 L 6930,1751 L 6929,1750 L 6920,1740 L 6919,1739 L 6913,1728 L 6912,1727 L 6909,1715 L 6908,1713 L 6907,1701 L 6907,1699 L 6908,1687 L 6909,1685 L 6912,1673 L 6913,1672 L 6919,1661 L 6920,1659 L 6929,1650 L 6930,1649 L 6940,1642 L 6942,1641 L 6953,1636 L 6955,1635 L 6967,1633 L 6968,1632 L 6981,1632 L 6983,1633 L 6995,1635 L 6996,1636 L 7008,1641 L 7009,1642 L 7019,1649 L 7021,1650 L 7029,1659 L 7030,1661 L 7036,1672 L 7037,1673 L 7041,1685 L 7041,1687 L 7043,1699 L 7043,1701 z " style="fill-opacity:1.000000;fill:rgb(225,252,103);stroke:rgb(0,0,0);stroke-width:2"/></g>
<g fill-rule="evenodd"><path d="M 472,1855 L 471,1867 L 470,1869 L 466,1881 L 466,1882 L 460,1893 L 459,1894 L 450,1904 L 449,1905 L 439,1912 L 437,1913 L 426,1918 L 424,1919 L 412,1921 L 410,1921 L 398,1921 L 396,1921 L 384,1919 L 382,1918 L 371,1913 L 370,1912 L 359,1905 L 358,1904 L 350,1894 L 349,1893 L 343,1882 L 342,1881 L 338,1869 L 338,1867 L 336,1855 L 336,1853 L 338,1841 L 338,1839 L 342,1827 L 343,1825 L 349,1815 L 350,1813 L 358,1804 L 359,1803 L 370,1795 L 371,1795 L 382,1790 L 384,1789 L 396,1786 L 398,1786 L 410,1786 L 412,1786 L 424,1789 L 426,1790 L 437,1795 L 439,1795 L 449,1803 L 450,1804 L 459,1813 L 460,1815 L 466,1825 L 466,1827 L 470,1839 L 471,1841 L 472,1853 L 472,1855 z " style="fill-opacity:1.000000;fill:rgb(62,1,126);stroke:rgb(0,0,0);stroke-width:2"/></g>
<g fill-rule="evenodd"><path d="M 472,1461 L 471,1473 L 470,1475 L 466,1487 L 466,1489 L 460,1499 L 459,1501 L 450,1510 L 449,1511 L 439,1519 L 437,1519 L 426,1524 L 424,1525 L 412,1528 L 410,1528 L 398,1528 L 396,1528 L 384,1525 L 382,1524 L 371,1519 L 370,1519 L 359,1511 L 358,1510 L 350,1501 L 349,1499 L 343,1489 L 342,1487 L 338,1475 L 338,1473 L 336,1461 L 336,1459 L 338,1447 L 338,1445 L 342,1433 L 343,1432 L 349,1421 L 350,1420 L 358,1410 L 359,1409 L 370,1402 L 371,1401 L 382,1396 L 384,1395 L 396,1393 L 398,1393 L 410,1393 L 412,1393 L 424,1395 L 426,1396 L 437,1401 L 439,1402 L 449,1409 L 450,1410 L 459,1420 L 460,1421 L 466,1432 L 466,1433 L 470,1445 L 471,1447 L 472,1459 L 472,1461 z " style="fill-opacity:1.000000;fill:rgb(151,234,220);stroke:rgb(0,0,0);stroke-width:2"/></g>
<g fill-rule="evenodd"><path d="M 472,1067 L 471,1080 L 470,1081 L 466,1093 L 466,1095 L 460,1106 L 459,1107 L 450,1116 L 449,1118 L 439,1125 L 437,1126 L 426,1131 L 424,1131 L 412,1134 L 410,1134 L 398,1134 L 396,1134 L 384,1131 L 382,1131 L 371,1126 L 370,1125 L 359,1118 L 358,1116 L 350,1107 L 349,1106 L 343,1095 L 342,1093 L 338,1081 L 338,1080 L 336,1067 L 336,1066 L 338,1053 L 338,1052 L 342,1040 L 343,1038 L 349,1027 L 350,1026 L 358,1017 L 359,1016 L 370,1008 L 371,1007 L 382,1002 L 384,1002 L 396,999 L 398,999 L 410,999 L 412,999 L 424,1002 L 426,1002 L 437,1007 L 439,1008 L 449,1016 L 450,1017 L 459,1026 L 460,1027 L 466,1038 L 466,1040 L 470,1052 L 471,1053 L 472,1066 L 472,1067 z " style="fill-opacity:1.000000;fill:rgb(107,150,143);stroke:rgb(0,0,0);stroke-width:2"/></g>
<g fill-rule="evenodd"><path d="M 326,3400 L 326,3280 L 327,3279 L 327,3277 L 328,3275 L 329,3274 L 331,3273 L 332,3273 L 334,3272 L 454,3272 L 456,3273 L 458,3273 L 459,3274 L 460,3275 L 461,3277 L 462,3279 L 462,3280 L 462,3400 L 462,3402 L 461,3404 L 460,3405 L 459,3406 L 458,3407 L 456,3408 L 454,3408 L 334,3408 L 332,3408 L 331,3407 L 329,3406 L 328,3405 L 327,3404 L 327,3402 L 326,3400 z " style="fill-opacity:1.000000;fill:rgb(56,92,42);stroke:rgb(0,0,0);stroke-width:2"/></g>
<g fill-rule="evenodd"><path d="M 462,2948 L 461,2960 L 460,2962 L 456,2974 L 456,2975 L 450,2986 L 449,2987 L 440,2997 L 439,2998 L 429,3005 L 427,3006 L 416,3011 L 414,3011 L 402,3014 L 400,3014 L 388,3014 L 386,3014 L 374,3011 L 372,3011 L 361,3006 L 360,3005 L 349,2998 L 348,2997 L 340,2987 L 339,2986 L 333,2975 L 332,2974 L 328,2962 L 328,2960 L 326,2948 L 326,2946 L 328,2933 L 328,2932 L 332,2920 L 333,2918 L 339,2908 L 340,2906 L 348,2897 L 349,2896 L 360,2888 L 361,2888 L 372,2882 L 374,2882 L 386,2879 L 388,2879 L 400,2879 L 402,2879 L 414,2882 L 416,2882 L 427,2888 L 429,2888 L 439,2896 L 440,2897 L 449,2906 L 450,2908 L 456,2918 L 456,2920 L 460,2932 L 461,2933 L 462,2946 L 462,2948 z " style="fill-opacity:1.000000;fill:rgb(236,176,59);stroke:rgb(0,0,0);stroke-width:2"/></g>
<g fill-rule="evenodd"><path d="M 462,2554 L 461,2566 L 460,2568 L 456,2580 L 456,2581 L 450,2592 L 449,2594 L 440,2603 L 439,2604 L 429,2611 L 427,2612 L 416,2617 L 414,2618 L 402,2620 L 400,2621 L 388,2621 L 386,2620 L 374,2618 L 372,2617 L 361,2612 L 360,2611 L 349,2604 L 348,2603 L 340,2594 L 339,2592 L 333,2581 L 332,2580 L 328,2568 L 328,2566 L 326,2554 L 326,2552 L 328,2540 L 328,2538 L 332,2526 L 333,2525 L 339,2514 L 340,2513 L 348,2503 L 349,2502 L 360,2495 L 361,2494 L 372,2489 L 374,2488 L 386,2486 L 388,2486 L 400,2486 L 402,2486 L 414,2488 L 416,2489 L 427,2494 L 429,2495 L 439,2502 L 440,2503 L 449,2513 L 450,2514 L 456,2525 L 456,2526 L 460,2538 L 461,2540 L 462,2552 L 462,2554 z " style="fill-opacity:1.000000;fill:rgb(251,50,175);stroke:rgb(0,0,0);stroke-width:2"/></g>
<g fill-rule="evenodd"><path d="M 4025,1139 L 4025,1001 L 4025,999 L 4025,998 L 4026,996 L 4028,995 L 4029,994 L 4031,994 L 4032,993 L 4170,993 L 4172,994 L 4174,994 L 4175,995 L 4176,996 L 4177,998 L 4178,999 L 4178,1001 L 4178,1139 L 4178,1141 L 4177,1142 L 4176,1144 L 4175,1145 L 4174,1146 L 4172,1147 L 4170,1147 L 4032,1147 L 4031,1147 L 4029,1146 L 4028,1145 L 4026,1144 L 4025,1142 L 4025,1141 L 4025,1139 z " style="fill-opacity:1.000000;fill:rgb(60,84,236);stroke:rgb(0,0,0);stroke-width:2"/></g>
<g fill-rule="evenodd"><path d="M 4178,677 L 4177,692 L 4176,693 L 4172,707 L 4171,708 L 4164,721 L 4163,722 L 4153,733 L 4152,734 L 4140,743 L 4139,743 L 4126,749 L 4124,750 L 4110,753 L 4109,753 L 4094,753 L 4093,753 L 4078,750 L 4077,749 L 4064,743 L 4062,743 L 4051,734 L 4049,733 L 4040,722 L 4039,721 L 4032,708 L 4031,707 L 4027,693 L 4026,692 L 4025,677 L 4025,676 L 4026,661 L 4027,660 L 4031,646 L 4032,645 L 4039,632 L 4040,631 L 4049,620 L 4051,619 L 4062,610 L 4064,610 L 4077,604 L 4078,603 L 4093,600 L 4094,600 L 4109,600 L 4110,600 L 4124,603 L 4126,604 L 4139,610 L 4140,610 L 4152,619 L 4153,620 L 4163,631 L 4164,632 L 4171,645 L 4172,646 L 4176,660 L 4177,661 L 4178,676 L 4178,677 z " style="fill-opacity:1.000000;fill:rgb(24,219,92);stroke:rgb(0,0,0);stroke-width:2"/></g>
<g fill-rule="evenodd"><path d="M 4178,284 L 4177,298 L 4176,300 L 4172,313 L 4171,315 L 4164,327 L 4163,329 L 4153,339 L 4152,340 L 4140,349 L 4139,350 L 4126,356 L 4124,356 L 4110,359 L 4109,359 L 4094,359 L 4093,359 L 4078,356 L 4077,356 L 4064,350 L 4062,349 L 4051,340 L 4049,339 L 4040,329 L 4039,327 L 4032,315 L 4031,313 L 4027,300 L 4026,298 L 4025,284 L 4025,282 L 4026,268 L 4027,266 L 4031,252 L 4032,251 L 4039,238 L 4040,237 L 4049,226 L 4051,225 L 4062,217 L 4064,216 L 4077,210 L 4078,210 L 4093,207 L 4094,207 L 4109,207 L 4110,207 L 4124,210 L 4126,210 L 4139,216 L 4140,217 L 4152,225 L 4153,226 L 4163,237 L 4164,238 L 4171,251 L 4172,252 L 4176,266 L 4177,268 L 4178,282 L 4178,284 z " style="fill-opacity:1.000000;fill:rgb(2,26,254);stroke:rgb(0,0,0);stroke-width:2"/></g>
<g fill-rule="evenodd"><path d="M 4025,2162 L 4025,2025 L 4025,2023 L 4025,2021 L 4026,2020 L 4028,2018 L 4029,2018 L 4031,2017 L 4032,2017 L 4170,2017 L 4172,2017 L 4174,2018 L 4175,2018 L 4176,2020 L 4177,2021 L 4178,2023 L 4178,2025 L 4178,2162 L 4178,2164 L 4177,2166 L 4176,2167 L 4175,2169 L 4174,2169 L 4172,2170 L 4170,2170 L 4032,2170 L 4031,2170 L 4029,2169 L 4028,2169 L 4026,2167 L 4025,2166 L 4025,2164 L 4025,2162 z " style="fill-opacity:1.000000;fill:rgb(67,251,250);stroke:rgb(0,0,0);stroke-width:2"/></g>
<g fill-rule="evenodd"><path d="M 4178,1701 L 4177,1715 L 4176,1717 L 4172,1730 L 4171,1732 L 4164,1744 L 4163,1746 L 4153,1756 L 4152,1757 L 4140,1766 L 4139,1767 L 4126,1773 L 4124,1773 L 4110,1776 L 4109,1776 L 4094,1776 L 4093,1776 L 4078,1773 L 4077,1773 L 4064,1767 L 4062,1766 L 4051,1757 L 4049,1756 L 4040,1746 L 4039,1744 L 4032,1732 L 4031,1730 L 4027,1717 L 4026,1715 L 4025,1701 L 4025,1699 L 4026,1685 L 4027,1683 L 4031,1669 L 4032,1668 L 4039,1655 L 4040,1654 L 4049,1643 L 4051,1642 L 4062,1634 L 4064,1633 L 4077,1627 L 4078,1627 L 4093,1624 L 4094,1624 L 4109,1624 L 4110,1624 L 4124,1627 L 4126,1627 L 4139,1633 L 4140,1634 L 4152,1642 L 4153,1643 L 4163,1654 L 4164,1655 L 4171,1668 L 4172,1669 L 4176,1683 L 4177,1685 L 4178,1699 L 4178,1701 z " style="fill-opacity:1.000000;fill:rgb(170,58,251);stroke:rgb(0,0,0);stroke-width:2"/></g>
<g fill-rule="evenodd"><path d="M 4178,1307 L 4177,1321 L 4176,1323 L 4172,1337 L 4171,1338 L 4164,1351 L 4163,1352 L 4153,1363 L 4152,1364 L 4140,1372 L 4139,1373 L 4126,1379 L 4124,1379 L 4110,1382 L 4109,1383 L 4094,1383 L 4093,1382 L 4078,1379 L 4077,1379 L 4064,1373 L 4062,1372 L 4051,1364 L 4049,1363 L 4040,1352 L 4039,1351 L 4032,1338 L 4031,1337 L 4027,1323 L 4026,1321 L 4025,1307 L 4025,1305 L 4026,1291 L 4027,1290 L 4031,1276 L 4032,1274 L 4039,1262 L 4040,1261 L 4049,1250 L 4051,1249 L 4062,1240 L 4064,1239 L 4077,1234 L 4078,1233 L 4093,1230 L 4094,1230 L 4109,1230 L 4110,1230 L 4124,1233 L 4126,1234 L 4139,1239 L 4140,1240 L 4152,1249 L 4153,1250 L 4163,1261 L 4164,1262 L 4171,1274 L 4172,1276 L 4176,1290 L 4177,1291 L 4178,1305 L 4178,1307 z " style="fill-opacity:1.000000;fill:rgb(41,209,230);stroke:rgb(0,0,0);stroke-width:2"/></g>
<g fill-rule="evenodd"><path d="M 4025,3225 L 4025,3087 L 4025,3086 L 4025,3084 L 4026,3082 L 4028,3081 L 4029,3080 L 4031,3080 L 4032,3080 L 4170,3080 L 4172,3080 L 4174,3080 L 4175,3081 L 4176,3082 L 4177,3084 L 4178,3086 L 4178,3087 L 4178,3225 L 4178,3227 L 4177,3229 L 4176,3230 L 4175,3231 L 4174,3232 L 4172,3233 L 4170,3233 L 4032,3233 L 4031,3233 L 4029,3232 L 4028,3231 L 4026,3230 L 4025,3229 L 4025,3227 L 4025,3225 z " style="fill-opacity:1.000000;fill:rgb(5,60,124);stroke:rgb(0,0,0);stroke-width:2"/></g>
<g fill-rule="evenodd"><path d="M 4178,2763 L 4177,2778 L 4176,2779 L 4172,2793 L 4171,2795 L 4164,2807 L 4163,2808 L 4153,2819 L 4152,2820 L 4140,2829 L 4139,2829 L 4126,2835 L 4124,2836 L 4110,2839 L 4109,2839 L 4094,2839 L 4093,2839 L 4078,2836 L 4077,2835 L 4064,2829 L 4062,2829 L 4051,2820 L 4049,2819 L 4040,2808 L 4039,2807 L 4032,2795 L 4031,2793 L 4027,2779 L 4026,2778 L 4025,2763 L 4025,2762 L 4026,2747 L 4027,2746 L 4031,2732 L 4032,2731 L 4039,2718 L 4040,2717 L 4049,2706 L 4051,2705 L 4062,2697 L 4064,2696 L 4077,2690 L 4078,2689 L 4093,2686 L 4094,2686 L 4109,2686 L 4110,2686 L 4124,2689 L 4126,2690 L 4139,2696 L 4140,2697 L 4152,2705 L 4153,2706 L 4163,2717 L 4164,2718 L 4171,2731 L 4172,2732 L 4176,2746 L 4177,2747 L 4178,2762 L 4178,2763 z " style="fill-opacity:1.000000;fill:rgb(148,117,216);stroke:rgb(0,0,0);stroke-width:2"/></g>
<g fill-rule="evenodd"><path d="M 4178,2370 L 4177,2384 L 4176,2386 L 4172,2399 L 4171,2401 L 4164,2413 L 4163,2415 L 4153,2425 L 4152,2427 L 4140,2435 L 4139,2436 L 4126,2442 L 4124,2442 L 4110,2445 L 4109,2445 L 4094,2445 L 4093,2445 L 4078,2442 L 4077,2442 L 4064,2436 L 4062,2435 L 4051,2427 L 4049,2425 L 4040,2415 L 4039,2413 L 4032,2401 L 4031,2399 L 4027,2386 L 4026,2384 L 4025,2370 L 4025,2368 L 4026,2354 L 4027,2352 L 4031,2339 L 4032,2337 L 4039,2325 L 4040,2323 L 4049,2313 L 4051,2311 L 4062,2303 L 4064,2302 L 4077,2296 L 4078,2296 L 4093,2293 L 4094,2293 L 4109,2293 L 4110,2293 L 4124,2296 L 4126,2296 L 4139,2302 L 4140,2303 L 4152,2311 L 4153,2313 L 4163,2323 L 4164,2325 L 4171,2337 L 4172,2339 L 4176,2352 L 4177,2354 L 4178,2368 L 4178,2370 z " style="fill-opacity:1.000000;fill:rgb(190,97,137);stroke:rgb(0,0,0);stroke-width:2"/></g>
<g fill-rule="evenodd"><path d="M 1823,2004 L 1810,2003 L 1809,2003 L 1797,1999 L 1795,1998 L 1784,1992 L 1783,1991 L 1773,1983 L 1772,1982 L 1765,1972 L 1764,1971 L 1758,1959 L 1758,1958 L 1755,1946 L 1754,1944 L 1754,1932 L 1754,1930 L 1756,1918 L 1756,1916 L 1760,1904 L 1761,1903 L 1768,1892 L 1769,1891 L 1777,1882 L 1779,1881 L 1789,1874 L 1790,1873 L 1802,1868 L 1803,1868 L 1816,1865 L 1817,1865 L 1879,1865 L 1880,1865 L 1893,1866 L 1894,1866 L 1906,1870 L 1908,1871 L 1919,1877 L 1920,1878 L 1930,1886 L 1931,1887 L 1938,1897 L 1939,1898 L 1945,1909 L 1945,1911 L 1948,1923 L 1949,1925 L 1949,1937 L 1949,1939 L 1947,1951 L 1947,1953 L 1943,1965 L 1942,1966 L 1935,1977 L 1934,1978 L 1926,1987 L 1924,1988 L 1914,1995 L 1913,1996 L 1901,2001 L 1900,2001 L 1887,2004 L 1886,2004 L 1824,2004 L 1823,2004 z " style="fill-opacity:1.000000;fill:rgb(249,92,187);stroke:rgb(0,0,0);stroke-width:2"/></g>
<g fill-rule="evenodd"><path d="M 2623,2004 L 2610,2003 L 2608,2003 L 2597,1999 L 2595,1998 L 2584,1992 L 2583,1991 L 2573,1983 L 2572,1982 L 2564,1972 L 2564,1971 L 2558,1959 L 2558,1958 L 2554,1946 L 2554,1944 L 2554,1932 L 2554,1930 L 2556,1918 L 2556,1916 L 2560,1904 L 2561,1903 L 2568,1892 L 2569,1891 L 2577,1882 L 2578,1881 L 2589,1874 L 2590,1873 L 2602,1868 L 2603,1868 L 2615,1865 L 2617,1865 L 2679,1865 L 2680,1865 L 2693,1866 L 2694,1866 L 2706,1870 L 2708,1871 L 2719,1877 L 2720,1878 L 2729,1886 L 2730,1887 L 2738,1897 L 2739,1898 L 2745,1909 L 2745,1911 L 2748,1923 L 2748,1925 L 2749,1937 L 2749,1939 L 2747,1951 L 2747,1953 L 2742,1965 L 2742,1966 L 2735,1977 L 2734,1978 L 2725,1987 L 2724,1988 L 2714,1995 L 2712,1996 L 2701,2001 L 2699,2001 L 2687,2004 L 2686,2004 L 2623,2004 L 2623,2004 z " style="fill-opacity:1.000000;fill:rgb(168,153,15);stroke:rgb(0,0,0);stroke-width:2"/></g>
<g fill-rule="evenodd"><path d="M 2623,2204 L 2610,2203 L 2608,2203 L 2597,2199 L 2595,2198 L 2584,2192 L 2583,2191 L 2573,2183 L 2572,2182 L 2564,2172 L 2564,2171 L 2558,2159 L 2558,2158 L 2554,2146 L 2554,2144 L 2554,2132 L 2554,2130 L 2556,2118 L 2556,2116 L 2560,2104 L 2561,2103 L 2568,2092 L 2569,2091 L 2577,2082 L 2578,2081 L 2589,2074 L 2590,2073 L 2602,2068 L 2603,2068 L 2615,2065 L 2617,2065 L 2679,2065 L 2680,2065 L 2693,2066 L 2694,2066 L 2706,2070 L 2708,2071 L 2719,2077 L 2720,2078 L 2729,2086 L 2730,2087 L 2738,2097 L 2739,2098 L 2745,2109 L 2745,2111 L 2748,2123 L 2748,2125 L 2749,2137 L 2749,2139 L 2747,2151 L 2747,2153 L 2742,2164 L 2742,2166 L 2735,2177 L 2734,2178 L 2725,2187 L 2724,2188 L 2714,2195 L 2712,2196 L 2701,2201 L 2699,2201 L 2687,2204 L 2686,2204 L 2623,2204 L 2623,2204 z " style="fill-opacity:1.000000;fill:rgb(149,177,235);stroke:rgb(0,0,0);stroke-width:2"/></g>
<g fill-rule="evenodd"><path d="M 1823,1571 L 1810,1570 L 1809,1570 L 1797,1566 L 1795,1565 L 1784,1559 L 1783,1558 L 1773,1550 L 1772,1549 L 1765,1539 L 1764,1538 L 1758,1527 L 1758,1525 L 1755,1513 L 1754,1511 L 1754,1499 L 1754,1497 L 1756,1485 L 1756,1483 L 1760,1471 L 1761,1470 L 1768,1459 L 1769,1458 L 1777,1449 L 1779,1448 L 1789,1441 L 1790,1440 L 1802,1435 L 1803,1435 L 1816,1432 L 1817,1432 L 1879,1432 L 1880,1432 L 1893,1433 L 1894,1433 L 1906,1437 L 1908,1438 L 1919,1444 L 1920,1445 L 1930,1453 L 1931,1454 L 1938,1464 L 1939,1465 L 1945,1477 L 1945,1478 L 1948,1490 L 1949,1492 L 1949,1504 L 1949,1506 L 1947,1518 L 1947,1520 L 1943,1532 L 1942,1533 L 1935,1544 L 1934,1545 L 1926,1554 L 1924,1555 L 1914,1562 L 1913,1563 L 1901,1568 L 1900,1568 L 1887,1571 L 1886,1571 L 1824,1571 L 1823,1571 z " style="fill-opacity:1.000000;fill:rgb(241,179,5);stroke:rgb(0,0,0);stroke-width:2"/></g>
<g fill-rule="evenodd"><path d="M 2623,1571 L 2610,1570 L 2608,1570 L 2597,1566 L 2595,1565 L 2584,1559 L 2583,1558 L 2573,1550 L 2572,1549 L 2564,1539 L 2564,1538 L 2558,1527 L 2558,1525 L 2554,1513 L 2554,1511 L 2554,1499 L 2554,1497 L 2556,1485 L 2556,1483 L 2560,1471 L 2561,1470 L 2568,1459 L 2569,1458 L 2577,1449 L 2578,1448 L 2589,1441 L 2590,1440 L 2602,1435 L 2603,1435 L 2615,1432 L 2617,1432 L 2679,1432 L 2680,1432 L 2693,1433 L 2694,1433 L 2706,1437 L 2708,1438 L 2719,1444 L 2720,1445 L 2729,1453 L 2730,1454 L 2738,1464 L 2739,1465 L 2745,1477 L 2745,1478 L 2748,1490 L 2748,1492 L 2749,1504 L 2749,1506 L 2747,1518 L 2747,1520 L 2742,1532 L 2742,1533 L 2735,1544 L 2734,1545 L 2725,1554 L 2724,1555 L 2714,1562 L 2712,1563 L 2701,1568 L 2699,1568 L 2687,1571 L 2686,1571 L 2623,1571 L 2623,1571 z " style="fill-opacity:1.000000;fill:rgb(239,247,0);stroke:rgb(0,0,0);stroke-width:2"/></g>
<g fill-rule="evenodd"><path d="M 2623,1771 L 2610,1770 L 2608,1770 L 2597,1766 L 2595,1765 L 2584,1759 L 2583,1758 L 2573,1750 L 2572,1749 L 2564,1739 L 2564,1738 L 2558,1726 L 2558,1725 L 2554,1713 L 2554,1711 L 2554,1699 L 2554,1697 L 2556,1685 L 2556,1683 L 2560,1671 L 2561,1670 L 2568,1659 L 2569,1658 L 2577,1649 L 2578,1648 L 2589,1641 L 2590,1640 L 2602,1635 L 2603,1635 L 2615,1632 L 2617,1632 L 2679,1632 L 2680,1632 L 2693,1633 L 2694,1633 L 2706,1637 L 2708,1638 L 2719,1644 L 2720,1645 L 2729,1653 L 2730,1654 L 2738,1664 L 2739,1665 L 2745,1676 L 2745,1678 L 2748,1690 L 2748,1692 L 2749,1704 L 2749,1706 L 2747,1718 L 2747,1720 L 2742,1732 L 2742,1733 L 2735,1744 L 2734,1745 L 2725,1754 L 2724,1755 L 2714,1762 L 2712,1763 L 2701,1768 L 2699,1768 L 2687,1771 L 2686,1771 L 2623,1771 L 2623,1771 z " style="fill-opacity:1.000000;fill:rgb(233,161,58);stroke:rgb(0,0,0);stroke-width:2"/></g>
<g fill-rule="evenodd"><path d="M 1823,1138 L 1810,1137 L 1809,1137 L 1797,1133 L 1795,1132 L 1784,1126 L 1783,1125 L 1773,1117 L 1772,1116 L 1765,1106 L 1764,1105 L 1758,1094 L 1758,1092 L 1755,1080 L 1754,1078 L 1754,1066 L 1754,1064 L 1756,1052 L 1756,1050 L 1760,1039 L 1761,1037 L 1768,1026 L 1769,1025 L 1777,1016 L 1779,1015 L 1789,1008 L 1790,1007 L 1802,1002 L 1803,1002 L 1816,999 L 1817,999 L 1879,999 L 1880,999 L 1893,1000 L 1894,1000 L 1906,1004 L 1908,1005 L 1919,1011 L 1920,1012 L 1930,1020 L 1931,1021 L 1938,1031 L 1939,1032 L 1945,1044 L 1945,1045 L 1948,1057 L 1949,1059 L 1949,1071 L 1949,1073 L 1947,1085 L 1947,1087 L 1943,1099 L 1942,1100 L 1935,1111 L 1934,1112 L 1926,1121 L 1924,1122 L 1914,1129 L 1913,1130 L 1901,1135 L 1900,1135 L 1887,1138 L 1886,1138 L 1824,1138 L 1823,1138 z " style="fill-opacity:1.000000;fill:rgb(229,202,11);stroke:rgb(0,0,0);stroke-width:2"/></g>
<g fill-rule="evenodd"><path d="M 2623,1138 L 2610,1137 L 2608,1137 L 2597,1133 L 2595,1132 L 2584,1126 L 2583,1125 L 2573,1117 L 2572,1116 L 2564,1106 L 2564,1105 L 2558,1094 L 2558,1092 L 2554,1080 L 2554,1078 L 2554,1066 L 2554,1064 L 2556,1052 L 2556,1050 L 2560,1039 L 2561,1037 L 2568,1026 L 2569,1025 L 2577,1016 L 2578,1015 L 2589,1008 L 2590,1007 L 2602,1002 L 2603,1002 L 2615,999 L 2617,999 L 2679,999 L 2680,999 L 2693,1000 L 2694,1000 L 2706,1004 L 2708,1005 L 2719,1011 L 2720,1012 L 2729,1020 L 2730,1021 L 2738,1031 L 2739,1032 L 2745,1044 L 2745,1045 L 2748,1057 L 2748,1059 L 2749,1071 L 2749,1073 L 2747,1085 L 2747,1087 L 2742,1099 L 2742,1100 L 2735,1111 L 2734,1112 L 2725,1121 L 2724,1122 L 2714,1129 L 2712,1130 L 2701,1135 L 2699,1135 L 2687,1138 L 2686,1138 L 2623,1138 L 2623,1138 z " style="fill-opacity:1.000000;fill:rgb(203,208,72);stroke:rgb(0,0,0);stroke-width:2"/></g>
<g fill-rule="evenodd"><path d="M 2623,1338 L 2610,1337 L 2608,1337 L 2597,1333 L 2595,1332 L 2584,1326 L 2583,1325 L 2573,1317 L 2572,1316 L 2564,1306 L 2564,1305 L 2558,1293 L 2558,1292 L 2554,1280 L 2554,1278 L 2554,1266 L 2554,1264 L 2556,1252 L 2556,1250 L 2560,1238 L 2561,1237 L 2568,1226 L 2569,1225 L 2577,1216 L 2578,1215 L 2589,1208 L 2590,1207 L 2602,1202 L 2603,1202 L 2615,1199 L 2617,1199 L 2679,1199 L 2680,1199 L 2693,1200 L 2694,1200 L 2706,1204 L 2708,1205 L 2719,1211 L 2720,1212 L 2729,1220 L 2730,1221 L 2738,1231 L 2739,1232 L 2745,1244 L 2745,1245 L 2748,1257 L 2748,1259 L 2749,1271 L 2749,1273 L 2747,1285 L 2747,1287 L 2742,1299 L 2742,1300 L 2735,1311 L 2734,1312 L 2725,1321 L 2724,1322 L 2714,1329 L 2712,1330 L 2701,1335 L 2699,1335 L 2687,1338 L 2686,1338 L 2623,1338 L 2623,1338 z " style="fill-opacity:1.000000;fill:rgb(71,100,189);stroke:rgb(0,0,0);stroke-width:2"/></g>
<g fill-rule="evenodd"><path d="M 18,0 L 7122,0 L 7123,0 L 7125,0 L 7127,0 L 7129,1 L 7131,2 L 7133,3 L 7134,4 L 7136,6 L 7137,7 L 7138,9 L 7139,10 L 7139,13 L 7140,14 L 7140,16 L 7140,17 L 7140,3658 L 7140,3660 L 7140,3660 L 7140,3661 L 7139,3663 L 7138,3665 L 7137,3667 L 7136,3669 L 7134,3671 L 7133,3672 L 7132,3673 L 7131,3673 L 7129,3674 L 7126,3675 L 7123,3676 L 7122,3676 L 18,3676 L 17,3676 L 15,3676 L 13,3675 L 11,3674 L 9,3674 L 7,3672 L 6,3671 L 4,3670 L 3,3668 L 2,3666 L 1,3665 L 1,3663 L 0,3661 L 0,3659 L 0,3658 L 0,17 L 0,16 L 0,14 L 1,13 L 1,10 L 2,9 L 3,7 L 4,6 L 6,4 L 7,3 L 9,2 L 11,1 L 13,0 L 15,0 L 17,0 L 18,0M 2680,1840 L 2622,1840 L 2585,1848 L 2554,1868 L 2534,1899 L 2527,1934 L 2534,1970 L 2554,2001 L 2582,2020 L 2583,2020 L 2585,2022 L 2586,2023 L 2587,2024 L 2588,2026 L 2589,2028 L 2590,2030 L 2590,2032 L 2590,2033 L 2590,2036 L 2590,2037 L 2590,2039 L 2589,2041 L 2588,2043 L 2587,2044 L 2586,2046 L 2585,2047 L 2583,2049 L 2582,2049 L 2554,2068 L 2534,2099 L 2527,2134 L 2534,2170 L 2554,2201 L 2585,2221 L 2622,2229 L 2680,2229 L 2718,2221 L 2748,2201 L 2769,2170 L 2776,2134 L 2769,2099 L 2748,2068 L 2720,2049 L 2719,2049 L 2718,2047 L 2717,2046 L 2715,2044 L 2714,2043 L 2713,2041 L 2713,2039 L 2712,2037 L 2712,2036 L 2712,2033 L 2712,2032 L 2713,2030 L 2713,2028 L 2714,2026 L 2715,2024 L 2717,2023 L 2718,2022 L 2719,2020 L 2720,2020 L 2748,2001 L 2769,1970 L 2776,1934 L 2769,1899 L 2748,1868 L 2718,1848 L 2680,1840M 1681,1839 L 1667,1805 L 1641,1779 L 1607,1765 L 1570,1765 L 1536,1779 L 1511,1805 L 1496,1839 L 1496,1876 L 1510,1909 L 1536,1935 L 1570,1949 L 1607,1949 L 1641,1935 L 1667,1910 L 1681,1876 L 1681,1839M 881,1839 L 867,1805 L 841,1779 L 807,1765 L 771,1765 L 737,1779 L 711,1805 L 697,1839 L 697,1876 L 711,1909 L 737,1935 L 770,1949 L 807,1949 L 841,1935 L 867,1910 L 881,1876 L 881,1839M 2972,1844 L 2935,1844 L 2902,1858 L 2876,1884 L 2862,1918 L 2861,1954 L 2875,1988 L 2901,2014 L 2935,2028 L 2972,2028 L 3006,2014 L 3032,1988 L 3046,1954 L 3046,1918 L 3032,1884 L 3006,1858 L 2972,1844M 1880,1840 L 1823,1840 L 1785,1848 L 1754,1868 L 1734,1899 L 1727,1934 L 1734,1970 L 1754,2001 L 1765,2008 L 1765,2008 L 1767,2009 L 1768,2011 L 1769,2012 L 1770,2014 L 1771,2016 L 1772,2017 L 1772,2019 L 1773,2021 L 1773,2023 L 1772,2025 L 1772,2027 L 1772,2028 L 1771,2030 L 1770,2032 L 1769,2034 L 1768,2035 L 1766,2036 L 1765,2037 L 1763,2038 L 1761,2039 L 1759,2040 L 1757,2040 L 1755,2040 L 1743,2045 L 1734,2054 L 1729,2066 L 1729,2105 L 1731,2107 L 1754,2107 L 1754,2072 L 1754,2071 L 1754,2069 L 1755,2068 L 1757,2066 L 1758,2065 L 1760,2065 L 1762,2065 L 1941,2065 L 1943,2065 L 1945,2065 L 1946,2066 L 1948,2068 L 1949,2069 L 1949,2071 L 1949,2072 L 1949,2107 L 1972,2107 L 1974,2105 L 1974,2066 L 1969,2054 L 1960,2045 L 1948,2040 L 1946,2040 L 1944,2040 L 1942,2039 L 1940,2038 L 1938,2037 L 1937,2036 L 1935,2035 L 1934,2034 L 1933,2032 L 1932,2030 L 1931,2028 L 1931,2027 L 1931,2025 L 1930,2023 L 1930,2021 L 1931,2019 L 1931,2017 L 1932,2016 L 1933,2014 L 1934,2012 L 1935,2011 L 1936,2009 L 1938,2008 L 1938,2008 L 1949,2001 L 1969,1970 L 1976,1934 L 1969,1899 L 1949,1868 L 1918,1848 L 1880,1840M 496,1872 L 496,1836 L 482,1802 L 456,1776 L 423,1762 L 386,1762 L 352,1776 L 326,1802 L 312,1835 L 312,1872 L 326,1906 L 352,1932 L 386,1946 L 422,1946 L 456,1932 L 482,1906 L 496,1872M 1755,2229 L 1822,2229 L 1824,2227 L 1824,2204 L 1762,2204 L 1760,2204 L 1758,2204 L 1757,2203 L 1755,2201 L 1754,2200 L 1754,2198 L 1754,2196 L 1754,2162 L 1731,2162 L 1729,2164 L 1729,2203 L 1734,2215 L 1743,2224 L 1755,2229M 336,3247 L 322,3250 L 311,3257 L 304,3268 L 301,3282 L 301,3399 L 304,3412 L 311,3423 L 321,3430 L 336,3433 L 452,3433 L 466,3431 L 477,3424 L 484,3413 L 487,3398 L 487,3282 L 485,3269 L 478,3257 L 467,3250 L 452,3247 L 336,3247M 446,3025 L 472,2999 L 486,2965 L 486,2928 L 472,2895 L 446,2869 L 413,2855 L 376,2855 L 342,2869 L 316,2894 L 302,2928 L 302,2965 L 316,2999 L 342,3025 L 376,3039 L 412,3039 L 446,3025M 312,2314 L 317,2326 L 326,2335 L 338,2340 L 374,2340 L 376,2337 L 376,2315 L 344,2315 L 342,2315 L 341,2314 L 339,2314 L 338,2312 L 337,2311 L 337,2309 L 336,2307 L 336,2275 L 314,2275 L 312,2277 L 312,2314M 496,2314 L 496,2277 L 494,2275 L 472,2275 L 472,2307 L 472,2309 L 471,2311 L 470,2312 L 469,2314 L 468,2314 L 466,2315 L 464,2315 L 432,2315 L 432,2337 L 434,2340 L 471,2340 L 482,2335 L 491,2326 L 496,2314M 446,2631 L 472,2605 L 486,2571 L 486,2535 L 472,2501 L 446,2475 L 413,2461 L 376,2461 L 342,2475 L 316,2501 L 302,2535 L 302,2571 L 316,2605 L 342,2631 L 376,2645 L 412,2645 L 446,2631M 434,2155 L 432,2157 L 432,2180 L 464,2180 L 466,2180 L 468,2180 L 469,2181 L 470,2183 L 471,2184 L 472,2186 L 472,2187 L 472,2220 L 494,2220 L 496,2218 L 496,2181 L 491,2169 L 482,2160 L 471,2155 L 434,2155M 376,2180 L 376,2157 L 374,2155 L 338,2155 L 326,2160 L 317,2169 L 312,2181 L 312,2218 L 314,2220 L 336,2220 L 336,2187 L 337,2186 L 337,2184 L 338,2183 L 339,2181 L 341,2180 L 342,2180 L 344,2180 L 376,2180M 1974,2203 L 1974,2164 L 1972,2162 L 1949,2162 L 1949,2196 L 1949,2198 L 1949,2200 L 1948,2201 L 1946,2203 L 1945,2204 L 1943,2204 L 1941,2204 L 1879,2204 L 1879,2227 L 1881,2229 L 1948,2229 L 1960,2224 L 1969,2215 L 1974,2203M 1785,1415 L 1754,1435 L 1734,1466 L 1727,1502 L 1734,1537 L 1754,1568 L 1765,1575 L 1765,1575 L 1767,1576 L 1768,1578 L 1769,1579 L 1770,1581 L 1771,1583 L 1772,1584 L 1772,1586 L 1773,1588 L 1773,1590 L 1772,1592 L 1772,1594 L 1772,1595 L 1771,1597 L 1770,1599 L 1769,1601 L 1768,1602 L 1766,1603 L 1765,1604 L 1763,1605 L 1761,1606 L 1759,1607 L 1757,1607 L 1755,1607 L 1743,1612 L 1734,1621 L 1729,1633 L 1729,1672 L 1731,1674 L 1754,1674 L 1754,1639 L 1754,1638 L 1754,1636 L 1755,1635 L 1757,1633 L 1758,1632 L 1760,1632 L 1762,1632 L 1941,1632 L 1943,1632 L 1945,1632 L 1946,1633 L 1948,1635 L 1949,1636 L 1949,1638 L 1949,1639 L 1949,1674 L 1972,1674 L 1974,1672 L 1974,1633 L 1969,1621 L 1960,1612 L 1948,1607 L 1946,1607 L 1944,1607 L 1942,1606 L 1940,1605 L 1938,1604 L 1937,1603 L 1935,1602 L 1934,1601 L 1933,1599 L 1932,1597 L 1931,1595 L 1931,1594 L 1931,1592 L 1930,1590 L 1930,1588 L 1931,1586 L 1931,1584 L 1932,1583 L 1933,1581 L 1934,1579 L 1935,1578 L 1936,1576 L 1938,1575 L 1938,1575 L 1949,1568 L 1969,1537 L 1976,1502 L 1969,1466 L 1949,1435 L 1918,1415 L 1880,1407 L 1823,1407 L 1785,1415M 1785,982 L 1754,1002 L 1734,1033 L 1727,1069 L 1734,1104 L 1754,1135 L 1765,1142 L 1765,1142 L 1767,1144 L 1768,1145 L 1769,1146 L 1770,1148 L 1771,1150 L 1772,1151 L 1772,1153 L 1773,1155 L 1773,1157 L 1772,1159 L 1772,1161 L 1772,1162 L 1771,1164 L 1770,1166 L 1769,1168 L 1768,1169 L 1766,1170 L 1765,1171 L 1763,1172 L 1761,1173 L 1759,1174 L 1757,1174 L 1755,1174 L 1743,1179 L 1734,1188 L 1729,1200 L 1729,1239 L 1731,1241 L 1754,1241 L 1754,1207 L 1754,1205 L 1754,1203 L 1755,1202 L 1757,1200 L 1758,1199 L 1760,1199 L 1762,1199 L 1941,1199 L 1943,1199 L 1945,1199 L 1946,1200 L 1948,1202 L 1949,1203 L 1949,1205 L 1949,1207 L 1949,1241 L 1972,1241 L 1974,1239 L 1974,1200 L 1969,1188 L 1960,1179 L 1948,1174 L 1946,1174 L 1944,1174 L 1942,1173 L 1940,1172 L 1938,1171 L 1937,1170 L 1935,1169 L 1934,1168 L 1933,1166 L 1932,1164 L 1931,1162 L 1931,1161 L 1931,1159 L 1930,1157 L 1930,1155 L 1931,1153 L 1931,1151 L 1932,1150 L 1933,1148 L 1934,1146 L 1935,1145 L 1936,1144 L 1938,1142 L 1938,1142 L 1949,1135 L 1969,1104 L 1976,1069 L 1969,1033 L 1949,1002 L 1918,982 L 1880,974 L 1823,974 L 1785,982M 1755,1796 L 1822,1796 L 1824,1794 L 1824,1771 L 1762,1771 L 1760,1771 L 1758,1771 L 1757,1770 L 1755,1768 L 1754,1767 L 1754,1765 L 1754,1763 L 1754,1729 L 1731,1729 L 1729,1731 L 1729,1770 L 1734,1782 L 1743,1791 L 1755,1796M 1755,1363 L 1822,1363 L 1824,1361 L 1824,1338 L 1762,1338 L 1760,1338 L 1758,1338 L 1757,1337 L 1755,1335 L 1754,1334 L 1754,1332 L 1754,1330 L 1754,1296 L 1731,1296 L 1729,1298 L 1729,1337 L 1734,1349 L 1743,1358 L 1755,1363M 456,1382 L 423,1368 L 386,1368 L 352,1382 L 326,1408 L 312,1442 L 312,1478 L 326,1512 L 352,1538 L 386,1552 L 422,1552 L 456,1538 L 482,1512 L 496,1479 L 496,1442 L 482,1408 L 456,1382M 802,1386 L 768,1372 L 731,1372 L 697,1386 L 671,1411 L 657,1445 L 657,1482 L 671,1516 L 697,1542 L 731,1556 L 768,1556 L 801,1542 L 827,1516 L 841,1482 L 842,1445 L 828,1412 L 802,1386M 422,1159 L 456,1145 L 482,1119 L 496,1085 L 496,1048 L 482,1014 L 456,989 L 423,974 L 386,974 L 352,988 L 326,1014 L 312,1048 L 312,1085 L 326,1119 L 352,1145 L 386,1159 L 422,1159M 697,1148 L 731,1162 L 768,1162 L 801,1148 L 827,1122 L 841,1089 L 842,1052 L 828,1018 L 802,992 L 768,978 L 731,978 L 697,992 L 671,1018 L 657,1052 L 657,1088 L 671,1122 L 697,1148M 1601,1386 L 1568,1372 L 1531,1372 L 1497,1386 L 1471,1411 L 1457,1445 L 1457,1482 L 1471,1516 L 1497,1542 L 1531,1556 L 1567,1556 L 1601,1542 L 1627,1516 L 1641,1482 L 1641,1445 L 1627,1412 L 1601,1386M 1497,1148 L 1531,1162 L 1567,1162 L 1601,1148 L 1627,1122 L 1641,1089 L 1641,1052 L 1627,1018 L 1601,992 L 1568,978 L 1531,978 L 1497,992 L 1471,1018 L 1457,1052 L 1457,1088 L 1471,1122 L 1497,1148M 2622,1796 L 2680,1796 L 2718,1788 L 2748,1768 L 2769,1737 L 2776,1701 L 2769,1666 L 2748,1635 L 2720,1616 L 2719,1616 L 2718,1614 L 2717,1613 L 2715,1611 L 2714,1610 L 2713,1608 L 2713,1606 L 2712,1604 L 2712,1603 L 2712,1600 L 2712,1599 L 2713,1597 L 2713,1595 L 2714,1593 L 2715,1592 L 2717,1590 L 2718,1589 L 2719,1587 L 2720,1587 L 2748,1568 L 2769,1537 L 2776,1502 L 2769,1466 L 2748,1435 L 2718,1415 L 2680,1407 L 2622,1407 L 2585,1415 L 2554,1435 L 2534,1466 L 2527,1502 L 2534,1537 L 2554,1568 L 2582,1587 L 2583,1587 L 2585,1589 L 2586,1590 L 2587,1592 L 2588,1593 L 2589,1595 L 2590,1597 L 2590,1599 L 2590,1600 L 2590,1603 L 2590,1604 L 2590,1606 L 2589,1608 L 2588,1610 L 2587,1611 L 2586,1613 L 2585,1614 L 2583,1616 L 2582,1616 L 2554,1635 L 2534,1666 L 2527,1701 L 2534,1737 L 2554,1768 L 2585,1788 L 2622,1796M 2622,1363 L 2680,1363 L 2718,1355 L 2748,1335 L 2769,1304 L 2776,1268 L 2769,1233 L 2748,1202 L 2720,1183 L 2719,1183 L 2718,1181 L 2717,1180 L 2715,1178 L 2714,1177 L 2713,1175 L 2713,1173 L 2712,1171 L 2712,1170 L 2712,1167 L 2712,1166 L 2713,1164 L 2713,1162 L 2714,1160 L 2715,1159 L 2717,1157 L 2718,1156 L 2719,1154 L 2720,1154 L 2748,1135 L 2769,1104 L 2776,1069 L 2769,1033 L 2748,1002 L 2718,982 L 2680,974 L 2622,974 L 2585,982 L 2554,1002 L 2534,1033 L 2527,1069 L 2534,1104 L 2554,1135 L 2582,1154 L 2583,1154 L 2585,1156 L 2586,1157 L 2587,1159 L 2588,1160 L 2589,1162 L 2590,1164 L 2590,1166 L 2590,1167 L 2590,1170 L 2590,1171 L 2590,1173 L 2589,1175 L 2588,1177 L 2587,1178 L 2586,1180 L 2585,1181 L 2583,1183 L 2582,1183 L 2554,1202 L 2534,1233 L 2527,1268 L 2534,1304 L 2554,1335 L 2585,1355 L 2622,1363M 1972,1729 L 1949,1729 L 1949,1763 L 1949,1765 L 1949,1767 L 1948,1768 L 1946,1770 L 1945,1771 L 1943,1771 L 1941,1771 L 1879,1771 L 1879,1794 L 1881,1796 L 1948,1796 L 1960,1791 L 1969,1782 L 1974,1770 L 1974,1731 L 1972,1729M 1881,1363 L 1948,1363 L 1960,1358 L 1969,1349 L 1974,1337 L 1974,1298 L 1972,1296 L 1949,1296 L 1949,1330 L 1949,1332 L 1949,1334 L 1948,1335 L 1946,1337 L 1945,1338 L 1943,1338 L 1941,1338 L 1879,1338 L 1879,1361 L 1881,1363M 2902,1425 L 2876,1451 L 2862,1485 L 2861,1521 L 2875,1555 L 2901,1581 L 2935,1595 L 2972,1595 L 3006,1581 L 3032,1555 L 3046,1521 L 3046,1485 L 3032,1451 L 3006,1425 L 2972,1411 L 2935,1411 L 2902,1425M 2862,1148 L 2896,1162 L 2932,1162 L 2966,1148 L 2992,1122 L 3006,1089 L 3006,1052 L 2992,1018 L 2966,992 L 2933,978 L 2896,978 L 2862,992 L 2836,1018 L 2822,1052 L 2822,1088 L 2836,1122 L 2862,1148M 3772,1844 L 3735,1844 L 3701,1858 L 3675,1884 L 3661,1918 L 3661,1954 L 3675,1988 L 3701,2014 L 3735,2028 L 3772,2028 L 3806,2014 L 3831,1988 L 3846,1954 L 3846,1918 L 3832,1884 L 3806,1858 L 3772,1844M 4202,2783 L 4202,2743 L 4187,2706 L 4159,2677 L 4122,2662 L 4081,2662 L 4044,2677 L 4016,2705 L 4000,2742 L 4000,2783 L 4016,2820 L 4044,2848 L 4081,2864 L 4121,2864 L 4159,2848 L 4187,2820 L 4202,2783M 4203,3223 L 4203,3089 L 4201,3076 L 4194,3065 L 4183,3057 L 4168,3054 L 4034,3054 L 4021,3057 L 4010,3064 L 4002,3075 L 3999,3089 L 3999,3223 L 4002,3237 L 4009,3248 L 4020,3255 L 4034,3258 L 4169,3258 L 4182,3256 L 4193,3249 L 4200,3238 L 4203,3223M 4187,2312 L 4159,2283 L 4122,2268 L 4081,2268 L 4044,2283 L 4016,2312 L 4000,2349 L 4000,2389 L 4016,2426 L 4044,2455 L 4081,2470 L 4121,2470 L 4159,2455 L 4187,2426 L 4202,2389 L 4202,2349 L 4187,2312M 4010,2001 L 4002,2012 L 3999,2026 L 3999,2161 L 4002,2174 L 4009,2185 L 4020,2193 L 4034,2195 L 4169,2195 L 4182,2193 L 4193,2186 L 4200,2175 L 4203,2161 L 4203,2026 L 4201,2013 L 4194,2002 L 4183,1994 L 4168,1992 L 4034,1992 L 4021,1994 L 4010,2001M 4915,2206 L 4922,2217 L 4932,2224 L 4947,2227 L 5066,2227 L 5080,2224 L 5091,2217 L 5098,2207 L 5101,2192 L 5101,2073 L 5099,2059 L 5092,2048 L 5081,2041 L 5066,2038 L 4947,2038 L 4933,2040 L 4922,2047 L 4915,2058 L 4912,2073 L 4912,2192 L 4915,2206M 7027,2762 L 7053,2736 L 7067,2702 L 7067,2666 L 7053,2632 L 7027,2606 L 6993,2592 L 6956,2592 L 6923,2606 L 6897,2632 L 6883,2666 L 6883,2702 L 6897,2736 L 6922,2762 L 6956,2776 L 6993,2776 L 7027,2762M 6164,3255 L 6164,3135 L 6161,3122 L 6154,3111 L 6144,3103 L 6129,3100 L 6010,3100 L 5996,3103 L 5985,3110 L 5978,3121 L 5975,3135 L 5975,3255 L 5977,3268 L 5984,3279 L 5995,3287 L 6010,3290 L 6129,3290 L 6143,3287 L 6154,3280 L 6161,3269 L 6164,3255M 7047,2987 L 7033,2984 L 6916,2984 L 6903,2987 L 6892,2994 L 6885,3005 L 6882,3019 L 6882,3136 L 6884,3149 L 6891,3160 L 6902,3168 L 6917,3171 L 7033,3171 L 7047,3168 L 7058,3161 L 7065,3150 L 7068,3136 L 7068,3019 L 7065,3006 L 7058,2995 L 7047,2987M 6149,2552 L 6123,2526 L 6088,2512 L 6051,2512 L 6016,2526 L 5990,2552 L 5976,2587 L 5976,2624 L 5990,2658 L 6016,2685 L 6051,2699 L 6088,2699 L 6122,2685 L 6149,2658 L 6163,2624 L 6163,2587 L 6149,2552M 7068,2152 L 7068,2035 L 7065,2022 L 7058,2011 L 7047,2003 L 7033,2000 L 6916,2000 L 6903,2003 L 6892,2010 L 6885,2021 L 6882,2035 L 6882,2152 L 6884,2165 L 6891,2176 L 6902,2184 L 6917,2187 L 7033,2187 L 7047,2184 L 7058,2177 L 7065,2166 L 7068,2152M 4159,1392 L 4187,1364 L 4202,1326 L 4202,1286 L 4187,1249 L 4159,1221 L 4124,1206 L 4124,1206 L 4122,1205 L 4120,1204 L 4119,1203 L 4118,1202 L 4116,1200 L 4116,1198 L 4115,1197 L 4114,1195 L 4114,1193 L 4113,1191 L 4113,1189 L 4114,1188 L 4114,1185 L 4114,1184 L 4115,1182 L 4116,1180 L 4117,1179 L 4118,1178 L 4120,1176 L 4121,1175 L 4123,1174 L 4125,1173 L 4127,1173 L 4128,1172 L 4130,1172 L 4131,1172 L 4169,1172 L 4182,1170 L 4193,1162 L 4200,1152 L 4203,1137 L 4203,1003 L 4201,989 L 4194,978 L 4183,971 L 4168,968 L 4034,968 L 4021,971 L 4010,978 L 4002,988 L 3999,1003 L 3999,1137 L 4002,1151 L 4009,1162 L 4020,1169 L 4034,1172 L 4072,1172 L 4072,1172 L 4075,1172 L 4076,1173 L 4078,1173 L 4080,1174 L 4081,1175 L 4083,1176 L 4084,1178 L 4085,1179 L 4087,1180 L 4088,1182 L 4088,1184 L 4089,1185 L 4089,1188 L 4089,1189 L 4089,1191 L 4089,1193 L 4089,1195 L 4088,1197 L 4087,1198 L 4086,1200 L 4085,1202 L 4084,1203 L 4082,1204 L 4081,1205 L 4079,1206 L 4078,1206 L 4044,1221 L 4016,1249 L 4000,1286 L 4000,1326 L 4016,1363 L 4044,1392 L 4081,1407 L 4121,1407 L 4159,1392M 4016,1757 L 4044,1785 L 4081,1801 L 4121,1801 L 4159,1786 L 4187,1757 L 4202,1720 L 4202,1680 L 4187,1643 L 4159,1614 L 4122,1599 L 4081,1599 L 4044,1614 L 4016,1643 L 4000,1680 L 4000,1720 L 4016,1757M 3772,1595 L 3806,1581 L 3831,1555 L 3846,1521 L 3846,1485 L 3832,1451 L 3806,1425 L 3772,1411 L 3735,1411 L 3701,1425 L 3675,1451 L 3661,1485 L 3661,1521 L 3675,1555 L 3701,1581 L 3735,1595 L 3772,1595M 3662,1148 L 3696,1162 L 3732,1162 L 3766,1148 L 3792,1122 L 3806,1089 L 3806,1052 L 3792,1018 L 3766,992 L 3732,978 L 3696,978 L 3662,992 L 3636,1018 L 3622,1052 L 3622,1088 L 3636,1122 L 3662,1148M 4913,1561 L 4927,1595 L 4954,1622 L 4988,1636 L 5025,1636 L 5060,1622 L 5086,1596 L 5100,1561 L 5100,1524 L 5086,1489 L 5060,1463 L 5025,1449 L 4988,1449 L 4954,1463 L 4927,1489 L 4913,1524 L 4913,1561M 4016,734 L 4044,762 L 4081,777 L 4121,778 L 4159,762 L 4187,734 L 4202,697 L 4202,657 L 4187,619 L 4159,591 L 4122,576 L 4081,575 L 4044,591 L 4016,619 L 4000,656 L 4000,696 L 4016,734M 4016,340 L 4044,368 L 4081,384 L 4121,384 L 4159,369 L 4187,340 L 4202,303 L 4202,263 L 4187,226 L 4159,197 L 4122,182 L 4081,182 L 4044,197 L 4016,226 L 4000,263 L 4000,303 L 4016,340M 7065,920 L 7058,909 L 7047,901 L 7033,898 L 6916,898 L 6903,901 L 6892,908 L 6885,919 L 6882,933 L 6882,1050 L 6884,1063 L 6891,1074 L 6902,1082 L 6917,1084 L 7033,1084 L 7047,1082 L 7058,1075 L 7065,1064 L 7068,1050 L 7068,933 L 7065,920M 6154,1155 L 6161,1144 L 6164,1129 L 6164,1010 L 6161,996 L 6154,985 L 6144,978 L 6129,975 L 6010,975 L 5996,978 L 5985,985 L 5978,995 L 5975,1010 L 5975,1129 L 5977,1143 L 5984,1154 L 5995,1161 L 6010,1164 L 6129,1164 L 6143,1162 L 6154,1155M 7027,1622 L 6993,1608 L 6956,1608 L 6923,1622 L 6897,1648 L 6883,1681 L 6883,1718 L 6897,1752 L 6922,1778 L 6956,1792 L 6993,1792 L 7027,1778 L 7053,1752 L 7067,1718 L 7067,1682 L 7053,1648 L 7027,1622M 6163,461 L 6149,427 L 6123,400 L 6088,386 L 6051,386 L 6016,400 L 5990,427 L 5976,461 L 5976,498 L 5990,533 L 6016,559 L 6051,573 L 6088,573 L 6122,559 L 6149,533 L 6163,498 L 6163,461M 6993,690 L 7027,676 L 7053,650 L 7067,616 L 7067,580 L 7053,546 L 7027,520 L 6993,506 L 6956,506 L 6923,520 L 6897,546 L 6883,579 L 6883,616 L 6897,650 L 6922,676 L 6956,690 L 6993,690 z " style="fill-opacity:1.000000;fill:rgb(31,35,30);stroke:rgb(0,0,0);stroke-width:2"/></g>
</svg>
