<?xml version="1.0" standalone="no"?>
<!DOCTYPE svg PUBLIC "-//W3C//DTD SVG 1.1//EN"
"http://www.w3.org/Graphics/SVG/1.1/DTD/svg11.dtd">
<svg width="7125" height="3704" viewBox="0 0 7125 3704" version="1.1"
xmlns="http://www.w3.org/2000/svg"
xmlns:xlink="http://www.w3.org/1999/xlink">
<g fill-rule="evenodd"><path d="M 0,3651 L 0,10 L 0,7 L 0,5 L 2,3 L 3,2 L 5,1 L 7,0 L 9,0 L 7115,0 L 7117,0 L 7119,1 L 7121,2 L 7122,3 L 7124,5 L 7124,7 L 7125,10 L 7124,3651 L 7124,3655 L 7123,3656 L 7121,3658 L 7120,3659 L 7118,3660 L 7115,3661 L 9,3661 L 7,3660 L 5,3660 L 3,3658 L 2,3657 L 0,3655 L 0,3653 L 0,3651 z " style="fill-opacity:1.000000;fill:rgb(103,198,105);stroke:rgb(0,0,0);stroke-width:2"/></g>
<g fill-rule="evenodd"><path d="M 46,3703 L 45,3703 L 43,3702 L 42,3701 L 42,3700 L 42,3698 L 43,3697 L 44,3696 L 46,3695 L 47,3695 L 49,3696 L 50,3697 L 50,3699 L 50,3700 L 49,3702 L 48,3703 L 46,3703 z " style="fill-opacity:1.000000;fill:rgb(115,81,255);stroke:rgb(0,0,0);stroke-width:2"/></g>
</svg>
