<?xml version="1.0" standalone="no"?>
<!DOCTYPE svg PUBLIC "-//W3C//DTD SVG 1.1//EN"
"http://www.w3.org/Graphics/SVG/1.1/DTD/svg11.dtd">
<svg width="7125" height="3661" viewBox="0 0 7125 3661" version="1.1"
xmlns="http://www.w3.org/2000/svg"
xmlns:xlink="http://www.w3.org/1999/xlink">
<g fill-rule="evenodd"><path d="M 0,10 L 0,7 L 0,5 L 2,3 L 3,2 L 5,1 L 7,0 L 9,0 L 7115,0 L 7117,0 L 7119,1 L 7121,2 L 7122,3 L 7124,5 L 7124,7 L 7125,10 L 7125,3650 L 7124,3654 L 7123,3656 L 7120,3659 L 7118,3660 L 7115,3660 L 9,3660 L 7,3660 L 5,3659 L 3,3658 L 2,3657 L 0,3655 L 0,3653 L 0,3650 L 0,1716 L 0,10M 2713,1833 L 2673,1825 L 2613,1825 L 2574,1833 L 2541,1855 L 2518,1888 L 2511,1927 L 2518,1966 L 2541,1999 L 2570,2019 L 2572,2020 L 2573,2022 L 2574,2024 L 2574,2026 L 2574,2028 L 2574,2030 L 2573,2032 L 2572,2034 L 2570,2035 L 2541,2055 L 2518,2088 L 2511,2127 L 2518,2166 L 2541,2199 L 2574,2221 L 2613,2229 L 2673,2229 L 2713,2221 L 2746,2199 L 2768,2166 L 2776,2127 L 2768,2088 L 2746,2055 L 2716,2035 L 2715,2034 L 2713,2032 L 2713,2030 L 2712,2028 L 2712,2026 L 2713,2024 L 2713,2022 L 2715,2020 L 2716,2019 L 2746,1999 L 2768,1966 L 2776,1927 L 2768,1888 L 2746,1855 L 2713,1833M 1680,1830 L 1665,1793 L 1637,1765 L 1600,1750 L 1561,1750 L 1524,1765 L 1496,1793 L 1480,1830 L 1480,1869 L 1496,1906 L 1524,1934 L 1560,1950 L 1600,1950 L 1637,1934 L 1665,1906 L 1680,1870 L 1680,1830M 881,1830 L 865,1793 L 837,1765 L 800,1750 L 761,1750 L 724,1765 L 696,1793 L 681,1830 L 680,1869 L 696,1906 L 724,1934 L 761,1950 L 800,1950 L 837,1934 L 865,1906 L 880,1870 L 881,1830M 3002,1844 L 2966,1828 L 2926,1828 L 2889,1844 L 2861,1872 L 2846,1908 L 2846,1948 L 2861,1985 L 2889,2013 L 2926,2028 L 2965,2028 L 3002,2013 L 3030,1985 L 3046,1948 L 3046,1909 L 3030,1872 L 3002,1844M 496,1866 L 496,1826 L 481,1790 L 453,1761 L 416,1746 L 376,1746 L 339,1761 L 311,1789 L 296,1826 L 296,1866 L 311,1903 L 339,1931 L 376,1946 L 416,1946 L 452,1931 L 481,1903 L 496,1866M 445,3434 L 461,3431 L 474,3422 L 483,3409 L 487,3392 L 487,3274 L 484,3258 L 475,3244 L 462,3235 L 445,3232 L 327,3232 L 311,3235 L 297,3244 L 288,3257 L 285,3274 L 285,3392 L 288,3408 L 297,3421 L 310,3430 L 327,3434 L 445,3434M 442,3024 L 471,2996 L 486,2959 L 486,2919 L 471,2883 L 443,2854 L 406,2839 L 366,2839 L 329,2854 L 301,2882 L 286,2919 L 286,2959 L 301,2996 L 329,3024 L 366,3039 L 406,3039 L 442,3024M 442,2630 L 471,2602 L 486,2565 L 486,2526 L 471,2489 L 443,2461 L 406,2446 L 366,2445 L 329,2461 L 301,2489 L 286,2526 L 286,2565 L 301,2602 L 329,2630 L 366,2645 L 406,2645 L 442,2630M 826,1399 L 798,1371 L 761,1356 L 721,1356 L 685,1371 L 656,1399 L 641,1436 L 641,1476 L 656,1513 L 684,1541 L 721,1556 L 761,1556 L 798,1541 L 826,1513 L 841,1476 L 841,1436 L 826,1399M 481,1396 L 453,1368 L 416,1353 L 376,1352 L 339,1368 L 311,1396 L 296,1433 L 296,1472 L 311,1509 L 339,1537 L 376,1552 L 416,1552 L 452,1537 L 481,1509 L 496,1472 L 496,1433 L 481,1396M 416,1159 L 452,1144 L 481,1116 L 496,1079 L 496,1039 L 481,1002 L 453,974 L 416,959 L 376,959 L 339,974 L 311,1002 L 296,1039 L 296,1079 L 311,1115 L 339,1144 L 376,1159 L 416,1159M 684,1147 L 721,1162 L 761,1162 L 798,1147 L 826,1119 L 841,1082 L 841,1043 L 826,1006 L 798,978 L 761,962 L 721,962 L 685,978 L 656,1006 L 641,1042 L 641,1082 L 656,1119 L 684,1147M 1626,1399 L 1598,1371 L 1561,1356 L 1521,1356 L 1484,1371 L 1456,1399 L 1441,1436 L 1441,1476 L 1456,1513 L 1484,1541 L 1521,1556 L 1561,1556 L 1598,1541 L 1626,1513 L 1641,1476 L 1641,1436 L 1626,1399M 1484,1147 L 1521,1162 L 1561,1162 L 1598,1147 L 1626,1119 L 1641,1082 L 1641,1043 L 1626,1006 L 1598,978 L 1561,962 L 1521,962 L 1484,978 L 1456,1006 L 1441,1042 L 1441,1082 L 1456,1119 L 1484,1147M 2613,1796 L 2673,1796 L 2713,1788 L 2746,1766 L 2768,1733 L 2776,1694 L 2768,1655 L 2746,1622 L 2716,1602 L 2715,1601 L 2713,1599 L 2713,1597 L 2712,1595 L 2712,1593 L 2713,1591 L 2713,1589 L 2715,1587 L 2716,1585 L 2746,1566 L 2768,1533 L 2776,1494 L 2768,1455 L 2746,1422 L 2713,1400 L 2673,1392 L 2613,1392 L 2574,1400 L 2541,1422 L 2518,1455 L 2511,1494 L 2518,1533 L 2541,1566 L 2570,1585 L 2572,1587 L 2573,1589 L 2574,1591 L 2574,1593 L 2574,1595 L 2574,1597 L 2573,1599 L 2572,1601 L 2570,1602 L 2541,1622 L 2518,1655 L 2511,1694 L 2518,1733 L 2541,1766 L 2574,1788 L 2613,1796M 2613,1363 L 2673,1363 L 2713,1355 L 2746,1333 L 2768,1300 L 2776,1261 L 2768,1222 L 2746,1189 L 2716,1169 L 2715,1168 L 2713,1166 L 2713,1164 L 2712,1162 L 2712,1160 L 2713,1158 L 2713,1156 L 2715,1154 L 2716,1152 L 2746,1133 L 2768,1100 L 2776,1061 L 2768,1022 L 2746,989 L 2713,967 L 2673,959 L 2613,959 L 2574,967 L 2541,989 L 2518,1022 L 2511,1061 L 2518,1100 L 2541,1133 L 2570,1152 L 2572,1154 L 2573,1156 L 2574,1158 L 2574,1160 L 2574,1162 L 2574,1164 L 2573,1166 L 2572,1168 L 2570,1169 L 2541,1189 L 2518,1222 L 2511,1261 L 2518,1300 L 2541,1333 L 2574,1355 L 2613,1363M 2926,1595 L 2965,1595 L 3002,1580 L 3030,1552 L 3046,1515 L 3046,1476 L 3030,1439 L 3002,1411 L 2966,1395 L 2926,1395 L 2889,1411 L 2861,1439 L 2846,1475 L 2846,1515 L 2861,1552 L 2889,1580 L 2926,1595M 2849,1147 L 2886,1162 L 2926,1162 L 2963,1147 L 2991,1119 L 3006,1082 L 3006,1043 L 2991,1006 L 2963,978 L 2926,962 L 2886,962 L 2850,978 L 2821,1006 L 2806,1042 L 2806,1082 L 2821,1119 L 2849,1147M 3802,1844 L 3765,1828 L 3726,1828 L 3689,1844 L 3661,1872 L 3645,1908 L 3645,1948 L 3661,1985 L 3689,2013 L 3725,2028 L 3765,2028 L 3802,2013 L 3830,1985 L 3845,1948 L 3845,1909 L 3830,1872 L 3802,1844M 4202,2777 L 4202,2734 L 4186,2693 L 4155,2663 L 4115,2646 L 4072,2646 L 4032,2663 L 4001,2693 L 3985,2733 L 3985,2777 L 4001,2817 L 4032,2847 L 4072,2864 L 4115,2864 L 4155,2847 L 4186,2817 L 4202,2777M 3984,3217 L 3987,3232 L 3995,3246 L 4009,3255 L 4026,3259 L 4161,3259 L 4177,3256 L 4191,3247 L 4200,3233 L 4203,3217 L 4203,3081 L 4200,3065 L 4192,3051 L 4178,3042 L 4161,3039 L 4025,3039 L 4010,3042 L 3996,3051 L 3987,3064 L 3984,3081 L 3984,3217M 4186,2300 L 4155,2269 L 4115,2253 L 4072,2253 L 4032,2269 L 4001,2300 L 3985,2340 L 3985,2383 L 4001,2423 L 4032,2454 L 4072,2470 L 4115,2470 L 4155,2454 L 4186,2423 L 4202,2383 L 4202,2340 L 4186,2300M 4009,2192 L 4026,2196 L 4161,2196 L 4177,2193 L 4191,2184 L 4200,2171 L 4203,2154 L 4203,2018 L 4200,2002 L 4192,1989 L 4178,1979 L 4161,1976 L 4025,1976 L 4010,1979 L 3996,1988 L 3987,2001 L 3984,2018 L 3984,2154 L 3987,2170 L 3995,2183 L 4009,2192M 4899,2201 L 4908,2215 L 4921,2224 L 4938,2227 L 5059,2227 L 5075,2224 L 5089,2215 L 5098,2202 L 5101,2185 L 5101,2064 L 5098,2048 L 5090,2035 L 5076,2026 L 5059,2022 L 4938,2022 L 4923,2025 L 4909,2034 L 4900,2047 L 4896,2064 L 4896,2185 L 4899,2201M 6910,2761 L 6947,2776 L 6987,2776 L 7024,2761 L 7052,2733 L 7067,2696 L 7067,2657 L 7052,2620 L 7024,2592 L 6987,2576 L 6947,2576 L 6910,2592 L 6882,2620 L 6867,2656 L 6867,2696 L 6882,2733 L 6910,2761M 5959,3248 L 5962,3264 L 5971,3277 L 5984,3287 L 6001,3290 L 6122,3290 L 6138,3287 L 6152,3278 L 6161,3265 L 6164,3248 L 6164,3127 L 6161,3111 L 6152,3098 L 6139,3088 L 6122,3085 L 6001,3085 L 5985,3088 L 5972,3097 L 5963,3110 L 5959,3127 L 5959,3248M 6879,2981 L 6869,2994 L 6866,3011 L 6866,3129 L 6869,3145 L 6878,3158 L 6891,3168 L 6908,3171 L 7026,3171 L 7042,3168 L 7055,3159 L 7065,3146 L 7068,3129 L 7068,3011 L 7065,2995 L 7056,2982 L 7043,2972 L 7026,2969 L 6908,2969 L 6892,2972 L 6879,2981M 6148,2540 L 6119,2512 L 6082,2496 L 6042,2496 L 6004,2512 L 5976,2540 L 5960,2577 L 5960,2618 L 5976,2655 L 6004,2684 L 6041,2699 L 6082,2699 L 6119,2684 L 6148,2655 L 6163,2618 L 6163,2578 L 6148,2540M 6866,2145 L 6869,2161 L 6878,2174 L 6891,2183 L 6908,2187 L 7026,2187 L 7042,2184 L 7055,2175 L 7065,2162 L 7068,2145 L 7068,2027 L 7065,2011 L 7056,1997 L 7043,1988 L 7026,1985 L 6908,1985 L 6892,1988 L 6879,1997 L 6869,2010 L 6866,2027 L 6866,2145M 4032,1391 L 4072,1407 L 4115,1407 L 4155,1391 L 4186,1360 L 4202,1320 L 4202,1277 L 4186,1237 L 4155,1206 L 4119,1191 L 4118,1190 L 4116,1189 L 4115,1187 L 4114,1186 L 4113,1183 L 4113,1181 L 4114,1179 L 4115,1177 L 4116,1176 L 4117,1174 L 4119,1173 L 4121,1172 L 4123,1172 L 4161,1172 L 4177,1169 L 4191,1161 L 4200,1147 L 4203,1130 L 4203,994 L 4200,979 L 4192,965 L 4178,956 L 4161,953 L 4025,953 L 4010,955 L 3996,964 L 3987,978 L 3984,994 L 3984,1130 L 3987,1146 L 3995,1160 L 4009,1169 L 4026,1172 L 4064,1172 L 4066,1172 L 4068,1173 L 4070,1174 L 4071,1176 L 4072,1177 L 4073,1179 L 4074,1181 L 4074,1183 L 4073,1186 L 4072,1187 L 4071,1189 L 4069,1190 L 4067,1191 L 4032,1206 L 4001,1237 L 3985,1277 L 3985,1320 L 4001,1360 L 4032,1391M 4001,1754 L 4032,1784 L 4072,1801 L 4115,1801 L 4155,1785 L 4186,1754 L 4202,1714 L 4202,1671 L 4186,1631 L 4155,1600 L 4115,1583 L 4072,1583 L 4032,1600 L 4001,1630 L 3985,1670 L 3985,1714 L 4001,1754M 3725,1595 L 3765,1595 L 3802,1580 L 3830,1552 L 3845,1515 L 3845,1476 L 3830,1439 L 3802,1411 L 3765,1395 L 3726,1395 L 3689,1411 L 3661,1439 L 3645,1475 L 3645,1515 L 3661,1552 L 3689,1580 L 3725,1595M 3649,1147 L 3686,1162 L 3726,1162 L 3763,1147 L 3791,1119 L 3806,1082 L 3806,1043 L 3791,1006 L 3763,978 L 3726,962 L 3686,962 L 3650,978 L 3621,1006 L 3606,1042 L 3606,1082 L 3621,1119 L 3649,1147M 4897,1555 L 4913,1592 L 4941,1621 L 4979,1636 L 5019,1636 L 5056,1621 L 5085,1592 L 5100,1555 L 5100,1515 L 5085,1477 L 5056,1449 L 5019,1433 L 4979,1433 L 4941,1449 L 4913,1477 L 4897,1514 L 4897,1555M 4001,730 L 4032,761 L 4072,778 L 4115,778 L 4155,761 L 4186,730 L 4202,690 L 4202,647 L 4186,607 L 4155,576 L 4115,560 L 4072,560 L 4032,576 L 4001,607 L 3985,647 L 3985,690 L 4001,730M 4001,337 L 4032,367 L 4072,384 L 4115,384 L 4155,367 L 4186,337 L 4202,297 L 4202,254 L 4186,213 L 4155,183 L 4115,166 L 4072,166 L 4032,183 L 4001,213 L 3985,253 L 3985,297 L 4001,337M 7068,925 L 7065,909 L 7056,895 L 7043,886 L 7026,883 L 6908,883 L 6892,886 L 6879,894 L 6869,908 L 6866,925 L 6866,1043 L 6869,1058 L 6878,1072 L 6891,1081 L 6908,1085 L 7026,1085 L 7042,1082 L 7055,1073 L 7065,1060 L 7068,1043 L 7068,925M 5971,1152 L 5984,1161 L 6001,1164 L 6122,1164 L 6138,1161 L 6152,1153 L 6161,1139 L 6164,1122 L 6164,1001 L 6161,986 L 6152,972 L 6139,963 L 6122,959 L 6001,959 L 5985,962 L 5972,971 L 5963,984 L 5959,1001 L 5959,1122 L 5962,1138 L 5971,1152M 7024,1608 L 6987,1592 L 6947,1592 L 6910,1607 L 6882,1636 L 6867,1672 L 6867,1712 L 6882,1749 L 6910,1777 L 6947,1792 L 6987,1792 L 7024,1777 L 7052,1749 L 7067,1712 L 7067,1672 L 7052,1636 L 7024,1608M 6163,492 L 6163,452 L 6148,415 L 6119,386 L 6082,370 L 6042,370 L 6004,386 L 5976,414 L 5960,452 L 5960,492 L 5976,529 L 6004,558 L 6041,573 L 6082,573 L 6119,558 L 6148,529 L 6163,492M 6947,690 L 6987,690 L 7024,675 L 7052,647 L 7067,610 L 7067,570 L 7052,533 L 7024,505 L 6987,490 L 6947,490 L 6910,505 L 6882,533 L 6867,570 L 6867,610 L 6882,647 L 6910,675 L 6947,690M 1753,2107 L 1753,2065 L 1933,2065 L 1933,2107 L 1967,2107 L 1973,2100 L 1973,2057 L 1967,2042 L 1956,2031 L 1941,2025 L 1938,2025 L 1936,2024 L 1934,2023 L 1933,2021 L 1931,2020 L 1931,2018 L 1930,2016 L 1930,2014 L 1931,2011 L 1932,2010 L 1933,2008 L 1935,2007 L 1946,1999 L 1968,1966 L 1976,1927 L 1968,1888 L 1946,1855 L 1913,1833 L 1873,1825 L 1814,1825 L 1774,1833 L 1741,1855 L 1719,1888 L 1711,1927 L 1719,1966 L 1741,1999 L 1752,2007 L 1754,2008 L 1755,2010 L 1756,2011 L 1757,2014 L 1757,2016 L 1756,2018 L 1755,2020 L 1754,2021 L 1753,2023 L 1751,2024 L 1749,2025 L 1745,2025 L 1731,2031 L 1719,2042 L 1713,2057 L 1713,2100 L 1720,2107 L 1753,2107M 1753,2147 L 1720,2147 L 1713,2153 L 1713,2197 L 1719,2211 L 1731,2223 L 1745,2229 L 1817,2229 L 1823,2222 L 1823,2189 L 1753,2189 L 1753,2147M 376,2300 L 336,2300 L 336,2260 L 303,2260 L 296,2266 L 296,2308 L 302,2322 L 313,2334 L 328,2340 L 369,2340 L 376,2333 L 376,2300M 416,2300 L 416,2333 L 423,2340 L 464,2340 L 479,2334 L 490,2322 L 496,2308 L 496,2266 L 489,2260 L 456,2260 L 456,2300 L 416,2300M 456,2220 L 489,2220 L 496,2213 L 496,2172 L 490,2157 L 479,2146 L 464,2140 L 423,2140 L 416,2146 L 416,2180 L 456,2180 L 456,2220M 336,2220 L 336,2180 L 376,2180 L 376,2146 L 369,2140 L 328,2140 L 313,2146 L 302,2157 L 296,2172 L 296,2213 L 303,2220 L 336,2220M 1863,2189 L 1863,2222 L 1870,2229 L 1941,2229 L 1956,2223 L 1967,2211 L 1973,2197 L 1973,2153 L 1967,2147 L 1933,2147 L 1933,2189 L 1863,2189M 1753,1714 L 1720,1714 L 1713,1720 L 1713,1764 L 1719,1778 L 1731,1790 L 1745,1796 L 1817,1796 L 1823,1789 L 1823,1756 L 1753,1756 L 1753,1714M 1753,1674 L 1753,1632 L 1933,1632 L 1933,1674 L 1967,1674 L 1973,1667 L 1973,1624 L 1967,1609 L 1956,1598 L 1941,1592 L 1938,1592 L 1936,1591 L 1934,1590 L 1933,1588 L 1931,1587 L 1931,1585 L 1930,1583 L 1930,1581 L 1931,1578 L 1932,1577 L 1933,1575 L 1935,1573 L 1946,1566 L 1968,1533 L 1976,1494 L 1968,1455 L 1946,1422 L 1913,1400 L 1873,1392 L 1814,1392 L 1774,1400 L 1741,1422 L 1719,1455 L 1711,1494 L 1719,1533 L 1741,1566 L 1752,1573 L 1754,1575 L 1755,1577 L 1756,1578 L 1757,1581 L 1757,1583 L 1756,1585 L 1755,1587 L 1754,1588 L 1753,1590 L 1751,1591 L 1749,1592 L 1745,1592 L 1731,1598 L 1719,1609 L 1713,1624 L 1713,1667 L 1720,1674 L 1753,1674M 1753,1281 L 1720,1281 L 1713,1287 L 1713,1331 L 1719,1345 L 1731,1357 L 1745,1363 L 1817,1363 L 1823,1356 L 1823,1323 L 1753,1323 L 1753,1281M 1753,1241 L 1753,1199 L 1933,1199 L 1933,1241 L 1967,1241 L 1973,1234 L 1973,1191 L 1967,1176 L 1956,1165 L 1941,1159 L 1938,1159 L 1936,1158 L 1934,1157 L 1933,1155 L 1931,1154 L 1931,1152 L 1930,1150 L 1930,1147 L 1931,1145 L 1932,1144 L 1933,1142 L 1935,1140 L 1946,1133 L 1968,1100 L 1976,1061 L 1968,1022 L 1946,989 L 1913,967 L 1873,959 L 1814,959 L 1774,967 L 1741,989 L 1719,1022 L 1711,1061 L 1719,1100 L 1741,1133 L 1752,1140 L 1754,1142 L 1755,1144 L 1756,1145 L 1757,1147 L 1757,1150 L 1756,1152 L 1755,1154 L 1754,1155 L 1753,1157 L 1751,1158 L 1749,1159 L 1745,1159 L 1731,1165 L 1719,1176 L 1713,1191 L 1713,1234 L 1720,1241 L 1753,1241M 1863,1756 L 1863,1789 L 1870,1796 L 1941,1796 L 1956,1790 L 1967,1778 L 1973,1764 L 1973,1720 L 1967,1714 L 1933,1714 L 1933,1756 L 1863,1756M 1863,1323 L 1863,1356 L 1870,1363 L 1941,1363 L 1956,1357 L 1967,1345 L 1973,1331 L 1973,1287 L 1967,1281 L 1933,1281 L 1933,1323 L 1863,1323 z " style="fill-opacity:1.000000;fill:rgb(103,198,105);stroke:rgb(0,0,0);stroke-width:2"/></g>
<g fill-rule="evenodd"><path d="M 1601,1062 L 1600,1075 L 1596,1087 L 1590,1098 L 1581,1107 L 1571,1114 L 1560,1119 L 1547,1122 L 1535,1122 L 1522,1119 L 1511,1114 L 1501,1107 L 1492,1098 L 1486,1087 L 1482,1075 L 1481,1062 L 1482,1050 L 1486,1038 L 1492,1027 L 1501,1018 L 1511,1010 L 1522,1005 L 1535,1003 L 1547,1003 L 1560,1005 L 1571,1010 L 1581,1018 L 1590,1027 L 1596,1038 L 1600,1050 L 1601,1062 z " style="fill-opacity:1.000000;fill:rgb(115,81,255);stroke:rgb(0,0,0);stroke-width:2"/></g>
<g fill-rule="evenodd"><path d="M 801,1062 L 800,1075 L 796,1087 L 790,1098 L 781,1107 L 771,1114 L 760,1119 L 747,1122 L 735,1122 L 723,1119 L 711,1114 L 701,1107 L 693,1098 L 686,1087 L 682,1075 L 681,1062 L 682,1050 L 686,1038 L 693,1027 L 701,1018 L 711,1010 L 723,1005 L 735,1003 L 747,1003 L 760,1005 L 771,1010 L 781,1018 L 790,1027 L 796,1038 L 800,1050 L 801,1062 z " style="fill-opacity:1.000000;fill:rgb(74,236,41);stroke:rgb(0,0,0);stroke-width:2"/></g>
<g fill-rule="evenodd"><path d="M 1601,1456 L 1600,1469 L 1596,1480 L 1590,1491 L 1581,1501 L 1571,1508 L 1560,1513 L 1547,1516 L 1535,1516 L 1522,1513 L 1511,1508 L 1501,1501 L 1492,1491 L 1486,1480 L 1482,1469 L 1481,1456 L 1482,1444 L 1486,1432 L 1492,1421 L 1501,1411 L 1511,1404 L 1522,1399 L 1535,1396 L 1547,1396 L 1560,1399 L 1571,1404 L 1581,1411 L 1590,1421 L 1596,1432 L 1600,1444 L 1601,1456 z " style="fill-opacity:1.000000;fill:rgb(205,186,171);stroke:rgb(0,0,0);stroke-width:2"/></g>
<g fill-rule="evenodd"><path d="M 801,1456 L 800,1469 L 796,1480 L 790,1491 L 781,1501 L 771,1508 L 760,1513 L 747,1516 L 735,1516 L 723,1513 L 711,1508 L 701,1501 L 693,1491 L 686,1480 L 682,1469 L 681,1456 L 682,1444 L 686,1432 L 693,1421 L 701,1411 L 711,1404 L 723,1399 L 735,1396 L 747,1396 L 760,1399 L 771,1404 L 781,1411 L 790,1421 L 796,1432 L 800,1444 L 801,1456 z " style="fill-opacity:1.000000;fill:rgb(242,251,227);stroke:rgb(0,0,0);stroke-width:2"/></g>
<g fill-rule="evenodd"><path d="M 1640,1850 L 1639,1862 L 1635,1874 L 1629,1885 L 1621,1894 L 1610,1902 L 1599,1907 L 1587,1909 L 1574,1909 L 1562,1907 L 1550,1902 L 1540,1894 L 1532,1885 L 1526,1874 L 1522,1862 L 1520,1850 L 1522,1837 L 1526,1825 L 1532,1814 L 1540,1805 L 1550,1798 L 1562,1793 L 1574,1790 L 1587,1790 L 1599,1793 L 1610,1798 L 1621,1805 L 1629,1814 L 1635,1825 L 1639,1837 L 1640,1850 z " style="fill-opacity:1.000000;fill:rgb(70,124,194);stroke:rgb(0,0,0);stroke-width:2"/></g>
<g fill-rule="evenodd"><path d="M 840,1850 L 839,1862 L 835,1874 L 829,1885 L 821,1894 L 810,1902 L 799,1907 L 787,1909 L 774,1909 L 762,1907 L 751,1902 L 740,1894 L 732,1885 L 726,1874 L 722,1862 L 721,1850 L 722,1837 L 726,1825 L 732,1814 L 740,1805 L 750,1798 L 762,1793 L 774,1790 L 787,1790 L 799,1793 L 810,1798 L 821,1805 L 829,1814 L 835,1825 L 839,1837 L 840,1850 z " style="fill-opacity:1.000000;fill:rgb(84,248,27);stroke:rgb(0,0,0);stroke-width:2"/></g>
<g fill-rule="evenodd"><path d="M 2966,1062 L 2965,1075 L 2961,1087 L 2955,1098 L 2946,1107 L 2936,1114 L 2925,1119 L 2912,1122 L 2900,1122 L 2888,1119 L 2876,1114 L 2866,1107 L 2858,1098 L 2851,1087 L 2848,1075 L 2846,1062 L 2848,1050 L 2851,1038 L 2858,1027 L 2866,1018 L 2876,1010 L 2888,1005 L 2900,1003 L 2912,1003 L 2925,1005 L 2936,1010 L 2946,1018 L 2955,1027 L 2961,1038 L 2965,1050 L 2966,1062 z " style="fill-opacity:1.000000;fill:rgb(232,231,141);stroke:rgb(0,0,0);stroke-width:2"/></g>
<g fill-rule="evenodd"><path d="M 3766,1062 L 3765,1075 L 3761,1087 L 3755,1098 L 3746,1107 L 3736,1114 L 3725,1119 L 3712,1122 L 3700,1122 L 3688,1119 L 3676,1114 L 3666,1107 L 3658,1098 L 3651,1087 L 3647,1075 L 3646,1062 L 3647,1050 L 3651,1038 L 3658,1027 L 3666,1018 L 3676,1010 L 3688,1005 L 3700,1003 L 3712,1003 L 3725,1005 L 3736,1010 L 3746,1018 L 3755,1027 L 3761,1038 L 3765,1050 L 3766,1062 z " style="fill-opacity:1.000000;fill:rgb(118,90,46);stroke:rgb(0,0,0);stroke-width:2"/></g>
<g fill-rule="evenodd"><path d="M 3006,1495 L 3004,1508 L 3000,1520 L 2994,1531 L 2986,1540 L 2976,1547 L 2964,1552 L 2952,1555 L 2939,1555 L 2927,1552 L 2916,1547 L 2905,1540 L 2897,1531 L 2891,1520 L 2887,1508 L 2886,1495 L 2887,1483 L 2891,1471 L 2897,1460 L 2905,1451 L 2916,1443 L 2927,1438 L 2939,1436 L 2952,1436 L 2964,1438 L 2976,1443 L 2986,1451 L 2994,1460 L 3000,1471 L 3004,1483 L 3006,1495 z " style="fill-opacity:1.000000;fill:rgb(99,51,159);stroke:rgb(0,0,0);stroke-width:2"/></g>
<g fill-rule="evenodd"><path d="M 3805,1495 L 3804,1508 L 3800,1520 L 3794,1531 L 3786,1540 L 3775,1547 L 3764,1552 L 3752,1555 L 3739,1555 L 3727,1552 L 3715,1547 L 3705,1540 L 3697,1531 L 3691,1520 L 3687,1508 L 3685,1495 L 3687,1483 L 3691,1471 L 3697,1460 L 3705,1451 L 3715,1443 L 3727,1438 L 3739,1436 L 3752,1436 L 3764,1438 L 3775,1443 L 3786,1451 L 3794,1460 L 3800,1471 L 3804,1483 L 3805,1495 z " style="fill-opacity:1.000000;fill:rgb(201,154,102);stroke:rgb(0,0,0);stroke-width:2"/></g>
<g fill-rule="evenodd"><path d="M 3006,1928 L 3004,1941 L 3000,1953 L 2994,1964 L 2986,1973 L 2976,1980 L 2964,1985 L 2952,1988 L 2939,1988 L 2927,1985 L 2916,1980 L 2905,1973 L 2897,1964 L 2891,1953 L 2887,1941 L 2886,1928 L 2887,1916 L 2891,1904 L 2897,1893 L 2905,1884 L 2916,1876 L 2927,1871 L 2939,1869 L 2952,1869 L 2964,1871 L 2976,1876 L 2986,1884 L 2994,1893 L 3000,1904 L 3004,1916 L 3006,1928 z " style="fill-opacity:1.000000;fill:rgb(50,13,183);stroke:rgb(0,0,0);stroke-width:2"/></g>
<g fill-rule="evenodd"><path d="M 3805,1928 L 3804,1941 L 3800,1953 L 3794,1964 L 3786,1973 L 3775,1980 L 3764,1985 L 3752,1988 L 3739,1988 L 3727,1985 L 3715,1980 L 3705,1973 L 3697,1964 L 3691,1953 L 3687,1941 L 3685,1928 L 3687,1916 L 3691,1904 L 3697,1893 L 3705,1884 L 3715,1876 L 3727,1871 L 3739,1869 L 3752,1869 L 3764,1871 L 3775,1876 L 3786,1884 L 3794,1893 L 3800,1904 L 3804,1916 L 3805,1928 z " style="fill-opacity:1.000000;fill:rgb(49,88,163);stroke:rgb(0,0,0);stroke-width:2"/></g>
<g fill-rule="evenodd"><path d="M 6000,1123 L 6000,1000 L 6123,1000 L 6123,1123 L 6000,1123 z " style="fill-opacity:1.000000;fill:rgb(90,37,93);stroke:rgb(0,0,0);stroke-width:2"/></g>
<g fill-rule="evenodd"><path d="M 6123,472 L 6122,485 L 6118,497 L 6111,508 L 6103,518 L 6092,525 L 6081,530 L 6068,533 L 6055,533 L 6043,530 L 6031,525 L 6021,518 L 6012,508 L 6005,497 L 6002,485 L 6000,472 L 6002,459 L 6005,447 L 6012,436 L 6021,426 L 6031,419 L 6043,413 L 6055,411 L 6068,411 L 6081,413 L 6092,419 L 6103,426 L 6111,436 L 6118,447 L 6122,459 L 6123,472 z " style="fill-opacity:1.000000;fill:rgb(5,23,88);stroke:rgb(0,0,0);stroke-width:2"/></g>
<g fill-rule="evenodd"><path d="M 4937,2186 L 4937,2063 L 5060,2063 L 5060,2186 L 4937,2186 z " style="fill-opacity:1.000000;fill:rgb(233,94,212);stroke:rgb(0,0,0);stroke-width:2"/></g>
<g fill-rule="evenodd"><path d="M 5060,1535 L 5059,1548 L 5055,1560 L 5049,1571 L 5040,1580 L 5030,1588 L 5018,1593 L 5005,1596 L 4992,1596 L 4980,1593 L 4968,1588 L 4958,1580 L 4949,1571 L 4943,1560 L 4939,1548 L 4937,1535 L 4939,1522 L 4943,1510 L 4949,1499 L 4958,1489 L 4968,1482 L 4980,1476 L 4992,1474 L 5005,1474 L 5018,1476 L 5030,1482 L 5040,1489 L 5049,1499 L 5055,1510 L 5059,1522 L 5060,1535 z " style="fill-opacity:1.000000;fill:rgb(171,178,205);stroke:rgb(0,0,0);stroke-width:2"/></g>
<g fill-rule="evenodd"><path d="M 6000,3249 L 6000,3126 L 6123,3126 L 6123,3249 L 6000,3249 z " style="fill-opacity:1.000000;fill:rgb(198,155,180);stroke:rgb(0,0,0);stroke-width:2"/></g>
<g fill-rule="evenodd"><path d="M 6123,2598 L 6122,2610 L 6118,2623 L 6111,2634 L 6103,2643 L 6092,2651 L 6081,2656 L 6068,2659 L 6055,2659 L 6043,2656 L 6031,2651 L 6021,2643 L 6012,2634 L 6005,2623 L 6002,2610 L 6000,2598 L 6002,2585 L 6005,2573 L 6012,2561 L 6021,2552 L 6031,2544 L 6043,2539 L 6055,2536 L 6068,2536 L 6081,2539 L 6092,2544 L 6103,2552 L 6111,2561 L 6118,2573 L 6122,2585 L 6123,2598 z " style="fill-opacity:1.000000;fill:rgb(84,17,14);stroke:rgb(0,0,0);stroke-width:2"/></g>
<g fill-rule="evenodd"><path d="M 6907,3130 L 6907,3010 L 7027,3010 L 7027,3130 L 6907,3130 z " style="fill-opacity:1.000000;fill:rgb(130,116,65);stroke:rgb(0,0,0);stroke-width:2"/></g>
<g fill-rule="evenodd"><path d="M 7027,2676 L 7026,2689 L 7022,2701 L 7016,2712 L 7007,2721 L 6997,2728 L 6986,2733 L 6973,2736 L 6961,2736 L 6949,2733 L 6937,2728 L 6927,2721 L 6919,2712 L 6912,2701 L 6908,2689 L 6907,2676 L 6908,2664 L 6912,2652 L 6919,2641 L 6927,2632 L 6937,2624 L 6949,2619 L 6961,2617 L 6973,2617 L 6986,2619 L 6997,2624 L 7007,2632 L 7016,2641 L 7022,2652 L 7026,2664 L 7027,2676 z " style="fill-opacity:1.000000;fill:rgb(33,61,220);stroke:rgb(0,0,0);stroke-width:2"/></g>
<g fill-rule="evenodd"><path d="M 6907,1044 L 6907,924 L 7027,924 L 7027,1044 L 6907,1044 z " style="fill-opacity:1.000000;fill:rgb(135,112,233);stroke:rgb(0,0,0);stroke-width:2"/></g>
<g fill-rule="evenodd"><path d="M 7027,590 L 7026,602 L 7022,614 L 7016,625 L 7007,635 L 6997,642 L 6986,647 L 6973,650 L 6961,650 L 6949,647 L 6937,642 L 6927,635 L 6919,625 L 6912,614 L 6908,602 L 6907,590 L 6908,578 L 6912,566 L 6919,555 L 6927,545 L 6937,538 L 6949,533 L 6961,530 L 6973,530 L 6986,533 L 6997,538 L 7007,545 L 7016,555 L 7022,566 L 7026,578 L 7027,590 z " style="fill-opacity:1.000000;fill:rgb(62,161,65);stroke:rgb(0,0,0);stroke-width:2"/></g>
<g fill-rule="evenodd"><path d="M 6907,2146 L 6907,2026 L 7027,2026 L 7027,2146 L 6907,2146 z " style="fill-opacity:1.000000;fill:rgb(225,252,103);stroke:rgb(0,0,0);stroke-width:2"/></g>
<g fill-rule="evenodd"><path d="M 7027,1692 L 7026,1705 L 7022,1717 L 7016,1727 L 7007,1737 L 6997,1744 L 6986,1749 L 6973,1752 L 6961,1752 L 6949,1749 L 6937,1744 L 6927,1737 L 6919,1727 L 6912,1717 L 6908,1705 L 6907,1692 L 6908,1680 L 6912,1668 L 6919,1657 L 6927,1648 L 6937,1640 L 6949,1635 L 6961,1633 L 6973,1633 L 6986,1635 L 6997,1640 L 7007,1648 L 7016,1657 L 7022,1668 L 7026,1680 L 7027,1692 z " style="fill-opacity:1.000000;fill:rgb(62,1,126);stroke:rgb(0,0,0);stroke-width:2"/></g>
<g fill-rule="evenodd"><path d="M 456,1846 L 455,1859 L 451,1871 L 444,1881 L 436,1891 L 426,1898 L 414,1903 L 402,1906 L 390,1906 L 377,1903 L 366,1898 L 356,1891 L 347,1881 L 341,1871 L 337,1859 L 336,1846 L 337,1834 L 341,1822 L 347,1811 L 356,1802 L 366,1794 L 377,1789 L 390,1786 L 402,1786 L 414,1789 L 426,1794 L 436,1802 L 444,1811 L 451,1822 L 455,1834 L 456,1846 z " style="fill-opacity:1.000000;fill:rgb(151,234,220);stroke:rgb(0,0,0);stroke-width:2"/></g>
<g fill-rule="evenodd"><path d="M 456,1452 L 455,1465 L 451,1477 L 444,1488 L 436,1497 L 426,1504 L 414,1510 L 402,1512 L 390,1512 L 377,1510 L 366,1504 L 356,1497 L 347,1488 L 341,1477 L 337,1465 L 336,1452 L 337,1440 L 341,1428 L 347,1417 L 356,1408 L 366,1401 L 377,1395 L 390,1393 L 402,1393 L 414,1395 L 426,1401 L 436,1408 L 444,1417 L 451,1428 L 455,1440 L 456,1452 z " style="fill-opacity:1.000000;fill:rgb(107,150,143);stroke:rgb(0,0,0);stroke-width:2"/></g>
<g fill-rule="evenodd"><path d="M 456,1059 L 455,1071 L 451,1083 L 444,1094 L 436,1103 L 426,1111 L 414,1116 L 402,1119 L 390,1119 L 377,1116 L 366,1111 L 356,1103 L 347,1094 L 341,1083 L 337,1071 L 336,1059 L 337,1046 L 341,1034 L 347,1024 L 356,1014 L 366,1007 L 377,1002 L 390,999 L 402,999 L 414,1002 L 426,1007 L 436,1014 L 444,1024 L 451,1034 L 455,1046 L 456,1059 z " style="fill-opacity:1.000000;fill:rgb(56,92,42);stroke:rgb(0,0,0);stroke-width:2"/></g>
<g fill-rule="evenodd"><path d="M 326,3393 L 326,3273 L 446,3273 L 446,3393 L 326,3393 z " style="fill-opacity:1.000000;fill:rgb(236,176,59);stroke:rgb(0,0,0);stroke-width:2"/></g>
<g fill-rule="evenodd"><path d="M 446,2939 L 445,2952 L 441,2964 L 434,2974 L 426,2984 L 416,2991 L 404,2996 L 392,2999 L 380,2999 L 367,2996 L 356,2991 L 346,2984 L 337,2974 L 331,2964 L 327,2952 L 326,2939 L 327,2927 L 331,2915 L 337,2904 L 346,2895 L 356,2887 L 367,2882 L 380,2879 L 392,2879 L 404,2882 L 416,2887 L 426,2895 L 434,2904 L 441,2915 L 445,2927 L 446,2939 z " style="fill-opacity:1.000000;fill:rgb(251,50,175);stroke:rgb(0,0,0);stroke-width:2"/></g>
<g fill-rule="evenodd"><path d="M 446,2545 L 445,2558 L 441,2570 L 434,2581 L 426,2590 L 416,2597 L 404,2603 L 392,2605 L 380,2605 L 367,2603 L 356,2597 L 346,2590 L 337,2581 L 331,2570 L 327,2558 L 326,2545 L 327,2533 L 331,2521 L 337,2510 L 346,2501 L 356,2494 L 367,2488 L 380,2486 L 392,2486 L 404,2488 L 416,2494 L 426,2501 L 434,2510 L 441,2521 L 445,2533 L 446,2545 z " style="fill-opacity:1.000000;fill:rgb(60,84,236);stroke:rgb(0,0,0);stroke-width:2"/></g>
<g fill-rule="evenodd"><path d="M 4025,1131 L 4025,994 L 4162,994 L 4162,1131 L 4025,1131 z " style="fill-opacity:1.000000;fill:rgb(24,219,92);stroke:rgb(0,0,0);stroke-width:2"/></g>
<g fill-rule="evenodd"><path d="M 4162,669 L 4161,683 L 4156,697 L 4149,709 L 4140,720 L 4128,728 L 4115,734 L 4101,737 L 4086,737 L 4072,734 L 4059,728 L 4047,720 L 4038,709 L 4030,697 L 4026,683 L 4025,669 L 4026,654 L 4030,641 L 4038,628 L 4047,618 L 4059,609 L 4072,603 L 4086,600 L 4101,600 L 4115,603 L 4128,609 L 4140,618 L 4149,628 L 4156,641 L 4161,654 L 4162,669 z " style="fill-opacity:1.000000;fill:rgb(2,26,254);stroke:rgb(0,0,0);stroke-width:2"/></g>
<g fill-rule="evenodd"><path d="M 4162,275 L 4161,289 L 4156,303 L 4149,316 L 4140,326 L 4128,335 L 4115,341 L 4101,344 L 4086,344 L 4072,341 L 4059,335 L 4047,326 L 4038,316 L 4030,303 L 4026,289 L 4025,275 L 4026,261 L 4030,247 L 4038,235 L 4047,224 L 4059,215 L 4072,210 L 4086,207 L 4101,207 L 4115,210 L 4128,215 L 4140,224 L 4149,235 L 4156,247 L 4161,261 L 4162,275 z " style="fill-opacity:1.000000;fill:rgb(67,251,250);stroke:rgb(0,0,0);stroke-width:2"/></g>
<g fill-rule="evenodd"><path d="M 4025,2155 L 4025,2017 L 4162,2017 L 4162,2155 L 4025,2155 z " style="fill-opacity:1.000000;fill:rgb(170,58,251);stroke:rgb(0,0,0);stroke-width:2"/></g>
<g fill-rule="evenodd"><path d="M 4162,1692 L 4161,1707 L 4156,1720 L 4149,1733 L 4140,1743 L 4128,1752 L 4115,1758 L 4101,1761 L 4086,1761 L 4072,1758 L 4059,1752 L 4047,1743 L 4038,1733 L 4030,1720 L 4026,1707 L 4025,1692 L 4026,1678 L 4030,1664 L 4038,1652 L 4047,1641 L 4059,1633 L 4072,1627 L 4086,1624 L 4101,1624 L 4115,1627 L 4128,1633 L 4140,1641 L 4149,1652 L 4156,1664 L 4161,1678 L 4162,1692 z " style="fill-opacity:1.000000;fill:rgb(41,209,230);stroke:rgb(0,0,0);stroke-width:2"/></g>
<g fill-rule="evenodd"><path d="M 4162,1299 L 4161,1313 L 4156,1327 L 4149,1339 L 4140,1350 L 4128,1358 L 4115,1364 L 4101,1367 L 4086,1367 L 4072,1364 L 4059,1358 L 4047,1350 L 4038,1339 L 4030,1327 L 4026,1313 L 4025,1299 L 4026,1284 L 4030,1271 L 4038,1258 L 4047,1247 L 4059,1239 L 4072,1233 L 4086,1230 L 4101,1230 L 4115,1233 L 4128,1239 L 4140,1247 L 4149,1258 L 4156,1271 L 4161,1284 L 4162,1299 z " style="fill-opacity:1.000000;fill:rgb(5,60,124);stroke:rgb(0,0,0);stroke-width:2"/></g>
<g fill-rule="evenodd"><path d="M 4025,3218 L 4025,3080 L 4162,3080 L 4162,3218 L 4025,3218 z " style="fill-opacity:1.000000;fill:rgb(148,117,216);stroke:rgb(0,0,0);stroke-width:2"/></g>
<g fill-rule="evenodd"><path d="M 4162,2755 L 4161,2769 L 4156,2783 L 4149,2796 L 4140,2806 L 4128,2815 L 4115,2821 L 4101,2824 L 4086,2824 L 4072,2821 L 4059,2815 L 4047,2806 L 4038,2796 L 4030,2783 L 4026,2769 L 4025,2755 L 4026,2741 L 4030,2727 L 4038,2715 L 4047,2704 L 4059,2695 L 4072,2690 L 4086,2687 L 4101,2687 L 4115,2690 L 4128,2695 L 4140,2704 L 4149,2715 L 4156,2727 L 4161,2741 L 4162,2755 z " style="fill-opacity:1.000000;fill:rgb(190,97,137);stroke:rgb(0,0,0);stroke-width:2"/></g>
<g fill-rule="evenodd"><path d="M 4162,2361 L 4161,2376 L 4156,2389 L 4149,2402 L 4140,2413 L 4128,2421 L 4115,2427 L 4101,2430 L 4086,2430 L 4072,2427 L 4059,2421 L 4047,2413 L 4038,2402 L 4030,2389 L 4026,2376 L 4025,2361 L 4026,2347 L 4030,2333 L 4038,2321 L 4047,2310 L 4059,2302 L 4072,2296 L 4086,2293 L 4101,2293 L 4115,2296 L 4128,2302 L 4140,2310 L 4149,2321 L 4156,2333 L 4161,2347 L 4162,2361 z " style="fill-opacity:1.000000;fill:rgb(249,92,187);stroke:rgb(0,0,0);stroke-width:2"/></g>
<g fill-rule="evenodd"><path d="M 1815,1989 L 1803,1988 L 1791,1984 L 1780,1978 L 1770,1970 L 1763,1960 L 1757,1948 L 1754,1936 L 1753,1924 L 1755,1911 L 1760,1900 L 1766,1889 L 1775,1880 L 1785,1873 L 1797,1868 L 1809,1865 L 1871,1865 L 1884,1866 L 1896,1870 L 1907,1876 L 1916,1884 L 1924,1894 L 1929,1905 L 1933,1917 L 1933,1930 L 1931,1942 L 1927,1954 L 1920,1965 L 1912,1974 L 1901,1981 L 1890,1986 L 1878,1989 L 1815,1989 z " style="fill-opacity:1.000000;fill:rgb(168,153,15);stroke:rgb(0,0,0);stroke-width:2"/></g>
<g fill-rule="evenodd"><path d="M 2615,1989 L 2603,1988 L 2591,1984 L 2580,1978 L 2570,1970 L 2563,1960 L 2557,1948 L 2554,1936 L 2553,1924 L 2555,1911 L 2560,1900 L 2566,1889 L 2575,1880 L 2585,1873 L 2597,1868 L 2609,1865 L 2671,1865 L 2684,1866 L 2696,1870 L 2707,1876 L 2716,1884 L 2724,1894 L 2729,1905 L 2733,1917 L 2733,1930 L 2731,1942 L 2727,1954 L 2720,1965 L 2712,1974 L 2701,1981 L 2690,1986 L 2677,1989 L 2615,1989 z " style="fill-opacity:1.000000;fill:rgb(149,177,235);stroke:rgb(0,0,0);stroke-width:2"/></g>
<g fill-rule="evenodd"><path d="M 2615,2189 L 2603,2188 L 2591,2184 L 2580,2178 L 2570,2170 L 2563,2160 L 2557,2148 L 2554,2136 L 2553,2124 L 2555,2111 L 2560,2100 L 2566,2089 L 2575,2080 L 2585,2073 L 2597,2068 L 2609,2065 L 2671,2065 L 2684,2066 L 2696,2070 L 2707,2076 L 2716,2084 L 2724,2094 L 2729,2105 L 2733,2117 L 2733,2130 L 2731,2142 L 2727,2154 L 2720,2165 L 2712,2174 L 2701,2181 L 2690,2186 L 2677,2188 L 2615,2189 z " style="fill-opacity:1.000000;fill:rgb(241,179,5);stroke:rgb(0,0,0);stroke-width:2"/></g>
<g fill-rule="evenodd"><path d="M 1815,1556 L 1803,1555 L 1791,1551 L 1780,1545 L 1770,1537 L 1763,1527 L 1757,1515 L 1754,1503 L 1753,1491 L 1755,1478 L 1760,1467 L 1766,1456 L 1775,1447 L 1785,1440 L 1797,1435 L 1809,1432 L 1871,1432 L 1884,1433 L 1896,1437 L 1907,1443 L 1916,1451 L 1924,1461 L 1929,1472 L 1933,1484 L 1933,1497 L 1931,1509 L 1927,1521 L 1920,1532 L 1912,1541 L 1901,1548 L 1890,1553 L 1878,1555 L 1815,1556 z " style="fill-opacity:1.000000;fill:rgb(239,247,0);stroke:rgb(0,0,0);stroke-width:2"/></g>
<g fill-rule="evenodd"><path d="M 2615,1556 L 2603,1555 L 2591,1551 L 2580,1545 L 2570,1537 L 2563,1527 L 2557,1515 L 2554,1503 L 2553,1491 L 2555,1478 L 2560,1467 L 2566,1456 L 2575,1447 L 2585,1440 L 2597,1435 L 2609,1432 L 2671,1432 L 2684,1433 L 2696,1437 L 2707,1443 L 2716,1451 L 2724,1461 L 2729,1472 L 2733,1484 L 2733,1497 L 2731,1509 L 2727,1521 L 2720,1532 L 2712,1541 L 2701,1548 L 2690,1553 L 2677,1555 L 2615,1556 z " style="fill-opacity:1.000000;fill:rgb(233,161,58);stroke:rgb(0,0,0);stroke-width:2"/></g>
<g fill-rule="evenodd"><path d="M 2615,1756 L 2603,1755 L 2591,1751 L 2580,1745 L 2570,1737 L 2563,1727 L 2557,1715 L 2554,1703 L 2553,1691 L 2555,1678 L 2560,1666 L 2566,1656 L 2575,1647 L 2585,1640 L 2597,1635 L 2609,1632 L 2671,1632 L 2684,1633 L 2696,1637 L 2707,1643 L 2716,1651 L 2724,1661 L 2729,1672 L 2733,1684 L 2733,1697 L 2731,1709 L 2727,1721 L 2720,1732 L 2712,1741 L 2701,1748 L 2690,1753 L 2677,1755 L 2615,1756 z " style="fill-opacity:1.000000;fill:rgb(229,202,11);stroke:rgb(0,0,0);stroke-width:2"/></g>
<g fill-rule="evenodd"><path d="M 1815,1123 L 1803,1122 L 1791,1118 L 1780,1112 L 1770,1104 L 1763,1094 L 1757,1082 L 1754,1070 L 1753,1058 L 1755,1045 L 1760,1034 L 1766,1023 L 1775,1014 L 1785,1007 L 1797,1002 L 1809,999 L 1871,999 L 1884,1000 L 1896,1004 L 1907,1010 L 1916,1018 L 1924,1028 L 1929,1039 L 1933,1051 L 1933,1064 L 1931,1076 L 1927,1088 L 1920,1099 L 1912,1108 L 1901,1115 L 1890,1120 L 1878,1122 L 1815,1123 z " style="fill-opacity:1.000000;fill:rgb(203,208,72);stroke:rgb(0,0,0);stroke-width:2"/></g>
<g fill-rule="evenodd"><path d="M 2615,1123 L 2603,1122 L 2591,1118 L 2580,1112 L 2570,1104 L 2563,1094 L 2557,1082 L 2554,1070 L 2553,1058 L 2555,1045 L 2560,1034 L 2566,1023 L 2575,1014 L 2585,1007 L 2597,1002 L 2609,999 L 2671,999 L 2684,1000 L 2696,1004 L 2707,1010 L 2716,1018 L 2724,1028 L 2729,1039 L 2733,1051 L 2733,1064 L 2731,1076 L 2727,1088 L 2720,1099 L 2712,1108 L 2701,1115 L 2690,1120 L 2677,1122 L 2615,1123 z " style="fill-opacity:1.000000;fill:rgb(71,100,189);stroke:rgb(0,0,0);stroke-width:2"/></g>
<g fill-rule="evenodd"><path d="M 2615,1323 L 2603,1322 L 2591,1318 L 2580,1312 L 2570,1303 L 2563,1294 L 2557,1282 L 2554,1270 L 2553,1258 L 2555,1245 L 2560,1233 L 2566,1223 L 2575,1214 L 2585,1207 L 2597,1202 L 2609,1199 L 2671,1199 L 2684,1200 L 2696,1204 L 2707,1210 L 2716,1218 L 2724,1228 L 2729,1239 L 2733,1251 L 2733,1264 L 2731,1276 L 2727,1288 L 2720,1299 L 2712,1308 L 2701,1315 L 2690,1320 L 2677,1322 L 2615,1323 z " style="fill-opacity:1.000000;fill:rgb(31,35,30);stroke:rgb(0,0,0);stroke-width:2"/></g>
</svg>
