<?xml version="1.0" standalone="no"?>
<!DOCTYPE svg PUBLIC "-//W3C//DTD SVG 1.1//EN"
"http://www.w3.org/Graphics/SVG/1.1/DTD/svg11.dtd">
<svg width="7133" height="3711" viewBox="0 0 7133 3711" version="1.1"
xmlns="http://www.w3.org/2000/svg"
xmlns:xlink="http://www.w3.org/1999/xlink">
<g fill-rule="evenodd"><path d="M 100,3711 L 99,3708 L 97,3707 L 82,3693 L 81,3692 L 71,3686 L 70,3685 L 63,3683 L 61,3682 L 53,3681 L 52,3681 L 45,3682 L 43,3682 L 36,3684 L 34,3684 L 27,3688 L 25,3689 L 14,3697 L 13,3698 L 11,3699 L 10,3700 L 7,3702 L 0,3709 L 0,0 L 7132,0 L 7132,3711 L 100,3711 z " style="fill-opacity:0.300000;fill:rgb(103,198,105);"/></g>
<g fill-rule="evenodd"><path d="M 0,3709 L 7,3702 L 10,3700 L 11,3699 L 13,3698 L 14,3697 L 25,3689 L 27,3688 L 34,3684 L 36,3684 L 43,3682 L 45,3682 L 52,3681 L 53,3681 L 61,3682 L 63,3683 L 70,3685 L 71,3686 L 81,3692 L 82,3693 L 97,3707 L 99,3708 L 100,3711 L 0,3711 L 0,3709 z " style="fill-opacity:0.300000;fill:rgb(115,81,255);"/></g>
<g fill-rule="evenodd"><path d="M 0,3654 L 0,13 L 0,13 L 0,11 L 0,10 L 1,8 L 2,7 L 3,5 L 3,4 L 5,3 L 6,2 L 8,1 L 8,1 L 10,0 L 11,0 L 14,0 L 14,0 L 7118,0 L 7118,0 L 7121,0 L 7122,0 L 7124,1 L 7124,1 L 7126,2 L 7127,3 L 7129,4 L 7129,5 L 7130,7 L 7131,8 L 7132,10 L 7132,11 L 7132,13 L 7132,13 L 7132,3654 L 7132,3655 L 7131,3659 L 7131,3660 L 7130,3662 L 7129,3662 L 7128,3664 L 7127,3664 L 7125,3666 L 7125,3666 L 7123,3667 L 7122,3667 L 7119,3668 L 7118,3668 L 14,3668 L 14,3668 L 11,3668 L 10,3667 L 8,3667 L 8,3666 L 6,3665 L 5,3664 L 3,3663 L 3,3662 L 2,3660 L 1,3660 L 0,3657 L 0,3657 L 0,3654 L 0,3654 z " style="fill-opacity:0.600000;fill:rgb(103,198,105);stroke:rgb(0,0,0);stroke-width:2"/></g>
<g fill-rule="evenodd"><path d="M 45,3708 L 44,3707 L 43,3706 L 43,3704 L 42,3702 L 43,3701 L 43,3699 L 44,3698 L 45,3697 L 46,3696 L 47,3695 L 49,3695 L 50,3694 L 52,3695 L 54,3695 L 55,3696 L 56,3697 L 57,3698 L 58,3699 L 58,3701 L 58,3702 L 58,3702 L 58,3704 L 58,3705 L 58,3706 L 57,3707 L 56,3708 L 55,3709 L 54,3710 L 52,3710 L 51,3710 L 50,3710 L 49,3710 L 48,3710 L 47,3710 L 45,3709 L 45,3708 z " style="fill-opacity:0.600000;fill:rgb(115,81,255);stroke:rgb(0,0,0);stroke-width:2"/></g>
<g fill-rule="evenodd"><path d="M 7128,3654 L 7127,3658 L 7126,3660 L 7125,3661 L 7123,3663 L 7121,3663 L 7118,3664 L 14,3664 L 12,3664 L 10,3663 L 8,3662 L 6,3660 L 5,3658 L 4,3656 L 4,3654 L 4,13 L 4,11 L 5,9 L 6,7 L 8,6 L 10,4 L 12,4 L 14,3 L 7118,3 L 7120,4 L 7122,4 L 7124,6 L 7126,7 L 7127,9 L 7128,11 L 7128,13 L 7128,3654 z " style="fill-opacity:1.000000;fill:rgb(103,198,105);stroke:rgb(0,0,0);stroke-width:2"/></g>
<g fill-rule="evenodd"><path d="M 48,3705 L 47,3704 L 46,3703 L 46,3701 L 47,3700 L 48,3699 L 50,3698 L 52,3699 L 53,3699 L 54,3700 L 55,3702 L 54,3704 L 54,3705 L 52,3706 L 51,3707 L 49,3706 L 48,3705 z " style="fill-opacity:1.000000;fill:rgb(115,81,255);stroke:rgb(0,0,0);stroke-width:2"/></g>
</svg>
