M48
METRIC,TZ
T1C0.813
T2C1.016
T3C1.041
T4C1.260
%
G90
G05
T1
X157420Y-155230
X157420Y-157770
X157500Y-141920
X157500Y-152080
X160500Y-141920
X160500Y-152080
X163500Y-141920
X163500Y-152080
X163920Y-134500
X167230Y-141920
X167230Y-152080
X167580Y-155230
X167580Y-157770
X169770Y-141920
X169770Y-152080
X172500Y-153420
X172500Y-163580
X174080Y-134500
X174730Y-141920
X174730Y-152080
X176420Y-137000
X177270Y-141920
X177270Y-152080
X186580Y-137000
T2
X153035Y-140455
X153035Y-145455
X153035Y-150455
X153035Y-155455
X167500Y-166000
X172500Y-166000
X177500Y-166000
X202500Y-128000
X207500Y-128000
X222000Y-164500
X227000Y-164500
X230000Y-128000
X235000Y-128000
T3
X201500Y-141000
X205500Y-160500
X208993Y-141000
X212993Y-160500
X224500Y-144500
X224500Y-151993
T4
X183500Y-142500
X183500Y-152000
X183500Y-161500
X188500Y-142500
X188500Y-152000
X188500Y-161500
X193500Y-142500
X193500Y-152000
X193500Y-161500
T0
M30
