G04 #@! TF.FileFunction,Copper,L1,Top,Plane*
%FSLAX46Y46*%
G04 Gerber Fmt 4.6, Leading zero omitted, Abs format (unit mm)*
G04 Created by KiCad (PCBNEW 4.0.7-e1-6374~58~ubuntu14.04.1) date Mon Aug 21 22:32:21 2017*
%MOMM*%
%LPD*%
G01*
G04 APERTURE LIST*
%ADD10C,0.200000*%
%ADD11C,1.524000*%
%ADD12R,1.562100X1.562100*%
%ADD13C,1.562100*%
%ADD14R,1.524000X1.524000*%
%ADD15R,1.750000X1.750000*%
%ADD16C,1.750000*%
%ADD17R,1.574800X2.286000*%
%ADD18O,1.574800X2.286000*%
%ADD19R,2.286000X1.574800*%
%ADD20O,2.286000X1.574800*%
%ADD21C,1.800000*%
%ADD22C,0.254000*%
G04 APERTURE END LIST*
D10*
D11*
X157500000Y-152080000D03*
X157500000Y-141920000D03*
X163500000Y-152080000D03*
X163500000Y-141920000D03*
D12*
X212993000Y-160500000D03*
D13*
X205500000Y-160500000D03*
D12*
X208993000Y-141000000D03*
D13*
X201500000Y-141000000D03*
D11*
X160500000Y-141920000D03*
X160500000Y-152080000D03*
X163920000Y-134500000D03*
X174080000Y-134500000D03*
X172400000Y-152120000D03*
X172400000Y-162280000D03*
X176420000Y-137000000D03*
X186580000Y-137000000D03*
D12*
X224500000Y-151993000D03*
D13*
X224500000Y-144500000D03*
D14*
X230000000Y-128000000D03*
D11*
X235000000Y-128000000D03*
D14*
X227000000Y-164500000D03*
D11*
X222000000Y-164500000D03*
D14*
X207500000Y-128000000D03*
D11*
X202500000Y-128000000D03*
D14*
X153035000Y-155455000D03*
D11*
X153035000Y-150455000D03*
X153035000Y-145455000D03*
X153035000Y-140455000D03*
D14*
X177500000Y-166000000D03*
D11*
X172500000Y-166000000D03*
X167500000Y-166000000D03*
D15*
X183500000Y-161500000D03*
D16*
X188500000Y-161500000D03*
X193500000Y-161500000D03*
D15*
X183500000Y-142500000D03*
D16*
X188500000Y-142500000D03*
X193500000Y-142500000D03*
D15*
X183500000Y-152000000D03*
D16*
X188500000Y-152000000D03*
X193500000Y-152000000D03*
D17*
X177270000Y-152080000D03*
D18*
X174730000Y-152080000D03*
X174730000Y-141920000D03*
X177270000Y-141920000D03*
D19*
X157720000Y-160470000D03*
D20*
X157720000Y-157930000D03*
X167880000Y-157930000D03*
X167880000Y-160470000D03*
D17*
X169970000Y-151480000D03*
D18*
X167430000Y-151480000D03*
X167430000Y-141320000D03*
X169970000Y-141320000D03*
D21*
X188500000Y-142500000D02*
X188500000Y-145500000D01*
X196500000Y-146000000D02*
X201500000Y-141000000D01*
X189000000Y-146000000D02*
X196500000Y-146000000D01*
X188500000Y-145500000D02*
X189000000Y-146000000D01*
X202500000Y-128000000D02*
X202500000Y-140000000D01*
X202500000Y-140000000D02*
X201500000Y-141000000D01*
X174730000Y-141920000D02*
X174730000Y-139770000D01*
X176000000Y-138500000D02*
X176000000Y-137420000D01*
X174730000Y-139770000D02*
X176000000Y-138500000D01*
X176000000Y-137420000D02*
X176420000Y-137000000D01*
X172400000Y-162280000D02*
X180220000Y-162280000D01*
X183500000Y-155300000D02*
X183500000Y-152000000D01*
X180800000Y-158000000D02*
X183500000Y-155300000D01*
X180800000Y-161700000D02*
X180800000Y-158000000D01*
X180220000Y-162280000D02*
X180800000Y-161700000D01*
X172500000Y-166000000D02*
X172500000Y-162380000D01*
X172500000Y-162380000D02*
X172400000Y-162280000D01*
X183500000Y-152000000D02*
X183480000Y-152000000D01*
X186580000Y-137000000D02*
X186580000Y-131920000D01*
X205000000Y-125500000D02*
X207500000Y-128000000D01*
X193000000Y-125500000D02*
X205000000Y-125500000D01*
X186580000Y-131920000D02*
X193000000Y-125500000D01*
X224500000Y-151993000D02*
X224500000Y-148500000D01*
X217000000Y-141000000D02*
X208993000Y-141000000D01*
X224500000Y-148500000D02*
X217000000Y-141000000D01*
X207500000Y-128000000D02*
X230000000Y-128000000D01*
X207500000Y-128000000D02*
X207500000Y-139507000D01*
X207500000Y-139507000D02*
X208993000Y-141000000D01*
X183500000Y-142500000D02*
X183500000Y-152000000D01*
X186580000Y-137000000D02*
X184500000Y-137000000D01*
X183500000Y-138000000D02*
X183500000Y-142500000D01*
X184500000Y-137000000D02*
X183500000Y-138000000D01*
X174080000Y-134500000D02*
X172500000Y-134500000D01*
X174500000Y-169000000D02*
X177500000Y-166000000D01*
X156500000Y-169000000D02*
X174500000Y-169000000D01*
X149500000Y-162000000D02*
X156500000Y-169000000D01*
X149500000Y-137500000D02*
X149500000Y-162000000D01*
X156000000Y-131000000D02*
X149500000Y-137500000D01*
X169000000Y-131000000D02*
X156000000Y-131000000D01*
X172500000Y-134500000D02*
X169000000Y-131000000D01*
X183500000Y-161500000D02*
X183500000Y-159500000D01*
X209993000Y-157500000D02*
X212993000Y-160500000D01*
X185500000Y-157500000D02*
X209993000Y-157500000D01*
X183500000Y-159500000D02*
X185500000Y-157500000D01*
X212993000Y-160500000D02*
X223000000Y-160500000D01*
X223000000Y-160500000D02*
X227000000Y-164500000D01*
X177500000Y-166000000D02*
X182500000Y-166000000D01*
X183500000Y-165000000D02*
X183500000Y-161500000D01*
X182500000Y-166000000D02*
X183500000Y-165000000D01*
X153035000Y-150455000D02*
X153035000Y-149474002D01*
X160500000Y-149600000D02*
X160500000Y-152080000D01*
X159800000Y-148900000D02*
X160500000Y-149600000D01*
X153609002Y-148900000D02*
X159800000Y-148900000D01*
X153035000Y-149474002D02*
X153609002Y-148900000D01*
X153035000Y-150455000D02*
X153545000Y-150455000D01*
X153035000Y-145455000D02*
X157055000Y-145455000D01*
X157500000Y-145010000D02*
X157500000Y-141920000D01*
X157055000Y-145455000D02*
X157500000Y-145010000D01*
X153035000Y-140455000D02*
X153035000Y-139465000D01*
X163500000Y-139800000D02*
X163500000Y-141920000D01*
X162700000Y-139000000D02*
X163500000Y-139800000D01*
X153500000Y-139000000D02*
X162700000Y-139000000D01*
X153035000Y-139465000D02*
X153500000Y-139000000D01*
X188500000Y-152000000D02*
X188500000Y-150000000D01*
X230000000Y-150000000D02*
X224500000Y-144500000D01*
X230000000Y-153000000D02*
X230000000Y-150000000D01*
X228000000Y-155000000D02*
X230000000Y-153000000D01*
X222500000Y-155000000D02*
X228000000Y-155000000D01*
X216000000Y-148500000D02*
X222500000Y-155000000D01*
X190000000Y-148500000D02*
X216000000Y-148500000D01*
X188500000Y-150000000D02*
X190000000Y-148500000D01*
X235000000Y-128000000D02*
X235000000Y-134000000D01*
X235000000Y-134000000D02*
X224500000Y-144500000D01*
X188500000Y-161500000D02*
X188500000Y-164000000D01*
X201000000Y-165000000D02*
X205500000Y-160500000D01*
X189500000Y-165000000D02*
X201000000Y-165000000D01*
X188500000Y-164000000D02*
X189500000Y-165000000D01*
X222000000Y-164500000D02*
X209500000Y-164500000D01*
X209500000Y-164500000D02*
X205500000Y-160500000D01*
X157720000Y-157930000D02*
X157720000Y-152300000D01*
X157720000Y-152300000D02*
X157500000Y-152080000D01*
X174730000Y-152080000D02*
X174730000Y-155130000D01*
X160500000Y-145400000D02*
X160500000Y-141920000D01*
X160600000Y-145500000D02*
X160500000Y-145400000D01*
X179000000Y-145500000D02*
X160600000Y-145500000D01*
X180400000Y-146900000D02*
X179000000Y-145500000D01*
X180400000Y-153400000D02*
X180400000Y-146900000D01*
X178500000Y-155300000D02*
X180400000Y-153400000D01*
X174900000Y-155300000D02*
X178500000Y-155300000D01*
X174730000Y-155130000D02*
X174900000Y-155300000D01*
X163500000Y-152080000D02*
X166830000Y-152080000D01*
X166830000Y-152080000D02*
X167430000Y-151480000D01*
X163920000Y-134500000D02*
X167100000Y-134500000D01*
X167430000Y-134830000D02*
X167430000Y-141320000D01*
X167100000Y-134500000D02*
X167430000Y-134830000D01*
X169970000Y-151480000D02*
X169970000Y-153730000D01*
X161430000Y-160470000D02*
X157720000Y-160470000D01*
X166800000Y-155100000D02*
X161430000Y-160470000D01*
X168600000Y-155100000D02*
X166800000Y-155100000D01*
X169970000Y-153730000D02*
X168600000Y-155100000D01*
X153035000Y-155455000D02*
X153035000Y-160235000D01*
X153035000Y-160235000D02*
X153270000Y-160470000D01*
X153270000Y-160470000D02*
X157720000Y-160470000D01*
X177270000Y-152080000D02*
X177270000Y-148870000D01*
X169970000Y-148830000D02*
X169970000Y-151480000D01*
X170100000Y-148700000D02*
X169970000Y-148830000D01*
X177100000Y-148700000D02*
X170100000Y-148700000D01*
X177270000Y-148870000D02*
X177100000Y-148700000D01*
X172400000Y-152120000D02*
X172400000Y-156900000D01*
X171370000Y-157930000D02*
X167880000Y-157930000D01*
X172400000Y-156900000D02*
X171370000Y-157930000D01*
D22*
G36*
X237873000Y-170873000D02*
X147627000Y-170873000D01*
X147627000Y-137500000D01*
X147965000Y-137500000D01*
X147965000Y-162000000D01*
X148081845Y-162587419D01*
X148414591Y-163085409D01*
X155414591Y-170085409D01*
X155912581Y-170418155D01*
X156500000Y-170535000D01*
X174500000Y-170535000D01*
X175087419Y-170418155D01*
X175585409Y-170085409D01*
X178135818Y-167535000D01*
X182500000Y-167535000D01*
X183087419Y-167418155D01*
X183585409Y-167085409D01*
X184585409Y-166085409D01*
X184918155Y-165587419D01*
X185035000Y-165000000D01*
X185035000Y-160135818D01*
X186135818Y-159035000D01*
X205148087Y-159035000D01*
X204912581Y-159081845D01*
X204414591Y-159414591D01*
X200364182Y-163465000D01*
X190135818Y-163465000D01*
X190035000Y-163364182D01*
X190035000Y-162562060D01*
X192617545Y-162562060D01*
X192700884Y-162815953D01*
X193265306Y-163021590D01*
X193865458Y-162995579D01*
X194299116Y-162815953D01*
X194382455Y-162562060D01*
X193500000Y-161679605D01*
X192617545Y-162562060D01*
X190035000Y-162562060D01*
X190035000Y-161500000D01*
X190010110Y-161374871D01*
X190010205Y-161265306D01*
X191978410Y-161265306D01*
X192004421Y-161865458D01*
X192184047Y-162299116D01*
X192437940Y-162382455D01*
X193320395Y-161500000D01*
X193679605Y-161500000D01*
X194562060Y-162382455D01*
X194815953Y-162299116D01*
X195021590Y-161734694D01*
X194995579Y-161134542D01*
X194815953Y-160700884D01*
X194562060Y-160617545D01*
X193679605Y-161500000D01*
X193320395Y-161500000D01*
X192437940Y-160617545D01*
X192184047Y-160700884D01*
X191978410Y-161265306D01*
X190010205Y-161265306D01*
X190010262Y-161200960D01*
X189943264Y-161038813D01*
X189918155Y-160912581D01*
X189847274Y-160806500D01*
X189780862Y-160645771D01*
X189656915Y-160521607D01*
X189601011Y-160437940D01*
X192617545Y-160437940D01*
X193500000Y-161320395D01*
X194382455Y-160437940D01*
X194299116Y-160184047D01*
X193734694Y-159978410D01*
X193134542Y-160004421D01*
X192700884Y-160184047D01*
X192617545Y-160437940D01*
X189601011Y-160437940D01*
X189585409Y-160414591D01*
X189479329Y-160343710D01*
X189356463Y-160220630D01*
X189194433Y-160153349D01*
X189087419Y-160081845D01*
X188962291Y-160056955D01*
X188801675Y-159990262D01*
X188626231Y-159990109D01*
X188500000Y-159965000D01*
X188374871Y-159989890D01*
X188200960Y-159989738D01*
X188038813Y-160056736D01*
X187912581Y-160081845D01*
X187806500Y-160152726D01*
X187645771Y-160219138D01*
X187521607Y-160343085D01*
X187414591Y-160414591D01*
X187343710Y-160520671D01*
X187220630Y-160643537D01*
X187153349Y-160805567D01*
X187081845Y-160912581D01*
X187056955Y-161037709D01*
X186990262Y-161198325D01*
X186990109Y-161373769D01*
X186965000Y-161500000D01*
X186965000Y-164000000D01*
X187081845Y-164587419D01*
X187414591Y-165085409D01*
X188414591Y-166085409D01*
X188912581Y-166418155D01*
X189500000Y-166535000D01*
X201000000Y-166535000D01*
X201587419Y-166418155D01*
X202085409Y-166085409D01*
X205500000Y-162670818D01*
X208414591Y-165585409D01*
X208912581Y-165918155D01*
X209500000Y-166035000D01*
X222000000Y-166035000D01*
X222587419Y-165918155D01*
X223085409Y-165585409D01*
X223418155Y-165087419D01*
X223535000Y-164500000D01*
X223418155Y-163912581D01*
X223085409Y-163414591D01*
X222587419Y-163081845D01*
X222000000Y-162965000D01*
X210135818Y-162965000D01*
X206585409Y-159414591D01*
X206087419Y-159081845D01*
X205851913Y-159035000D01*
X209357182Y-159035000D01*
X211564510Y-161242328D01*
X211564510Y-161281050D01*
X211608788Y-161516367D01*
X211747860Y-161732491D01*
X211960060Y-161877481D01*
X212211950Y-161928490D01*
X212457539Y-161928490D01*
X212993000Y-162035000D01*
X222364182Y-162035000D01*
X225590560Y-165261378D01*
X225590560Y-165262000D01*
X225634838Y-165497317D01*
X225773910Y-165713441D01*
X225986110Y-165858431D01*
X226238000Y-165909440D01*
X226399538Y-165909440D01*
X226412581Y-165918155D01*
X227000000Y-166035000D01*
X227587419Y-165918155D01*
X227600462Y-165909440D01*
X227762000Y-165909440D01*
X227997317Y-165865162D01*
X228213441Y-165726090D01*
X228358431Y-165513890D01*
X228409440Y-165262000D01*
X228409440Y-165100462D01*
X228418155Y-165087419D01*
X228535000Y-164500000D01*
X228418155Y-163912581D01*
X228409440Y-163899538D01*
X228409440Y-163738000D01*
X228365162Y-163502683D01*
X228226090Y-163286559D01*
X228013890Y-163141569D01*
X227762000Y-163090560D01*
X227761378Y-163090560D01*
X224085409Y-159414591D01*
X223587419Y-159081845D01*
X223000000Y-158965000D01*
X213628818Y-158965000D01*
X211078409Y-156414591D01*
X210580419Y-156081845D01*
X209993000Y-155965000D01*
X185500000Y-155965000D01*
X184912581Y-156081845D01*
X184687958Y-156231933D01*
X184918155Y-155887419D01*
X185035000Y-155300000D01*
X185035000Y-138635818D01*
X185135818Y-138535000D01*
X186580000Y-138535000D01*
X187167419Y-138418155D01*
X187665409Y-138085409D01*
X187998155Y-137587419D01*
X188115000Y-137000000D01*
X188115000Y-132555818D01*
X193635818Y-127035000D01*
X201334136Y-127035000D01*
X201081845Y-127412581D01*
X200965000Y-128000000D01*
X200965000Y-139364182D01*
X195864182Y-144465000D01*
X190035000Y-144465000D01*
X190035000Y-143562060D01*
X192617545Y-143562060D01*
X192700884Y-143815953D01*
X193265306Y-144021590D01*
X193865458Y-143995579D01*
X194299116Y-143815953D01*
X194382455Y-143562060D01*
X193500000Y-142679605D01*
X192617545Y-143562060D01*
X190035000Y-143562060D01*
X190035000Y-142500000D01*
X190010110Y-142374871D01*
X190010205Y-142265306D01*
X191978410Y-142265306D01*
X192004421Y-142865458D01*
X192184047Y-143299116D01*
X192437940Y-143382455D01*
X193320395Y-142500000D01*
X193679605Y-142500000D01*
X194562060Y-143382455D01*
X194815953Y-143299116D01*
X195021590Y-142734694D01*
X194995579Y-142134542D01*
X194815953Y-141700884D01*
X194562060Y-141617545D01*
X193679605Y-142500000D01*
X193320395Y-142500000D01*
X192437940Y-141617545D01*
X192184047Y-141700884D01*
X191978410Y-142265306D01*
X190010205Y-142265306D01*
X190010262Y-142200960D01*
X189943264Y-142038813D01*
X189918155Y-141912581D01*
X189847274Y-141806500D01*
X189780862Y-141645771D01*
X189656915Y-141521607D01*
X189601011Y-141437940D01*
X192617545Y-141437940D01*
X193500000Y-142320395D01*
X194382455Y-141437940D01*
X194299116Y-141184047D01*
X193734694Y-140978410D01*
X193134542Y-141004421D01*
X192700884Y-141184047D01*
X192617545Y-141437940D01*
X189601011Y-141437940D01*
X189585409Y-141414591D01*
X189479329Y-141343710D01*
X189356463Y-141220630D01*
X189194433Y-141153349D01*
X189087419Y-141081845D01*
X188962291Y-141056955D01*
X188801675Y-140990262D01*
X188626231Y-140990109D01*
X188500000Y-140965000D01*
X188374871Y-140989890D01*
X188200960Y-140989738D01*
X188038813Y-141056736D01*
X187912581Y-141081845D01*
X187806500Y-141152726D01*
X187645771Y-141219138D01*
X187521607Y-141343085D01*
X187414591Y-141414591D01*
X187343710Y-141520671D01*
X187220630Y-141643537D01*
X187153349Y-141805567D01*
X187081845Y-141912581D01*
X187056955Y-142037709D01*
X186990262Y-142198325D01*
X186990109Y-142373769D01*
X186965000Y-142500000D01*
X186965000Y-145500000D01*
X187081845Y-146087419D01*
X187414591Y-146585409D01*
X187914591Y-147085409D01*
X188412581Y-147418155D01*
X188828329Y-147500853D01*
X187414591Y-148914591D01*
X187081845Y-149412581D01*
X186965000Y-150000000D01*
X186965000Y-152000000D01*
X186989890Y-152125129D01*
X186989738Y-152299040D01*
X187056736Y-152461187D01*
X187081845Y-152587419D01*
X187152726Y-152693500D01*
X187219138Y-152854229D01*
X187343085Y-152978393D01*
X187414591Y-153085409D01*
X187520671Y-153156290D01*
X187643537Y-153279370D01*
X187805567Y-153346651D01*
X187912581Y-153418155D01*
X188037709Y-153443045D01*
X188198325Y-153509738D01*
X188373769Y-153509891D01*
X188500000Y-153535000D01*
X188625129Y-153510110D01*
X188799040Y-153510262D01*
X188961187Y-153443264D01*
X189087419Y-153418155D01*
X189193500Y-153347274D01*
X189354229Y-153280862D01*
X189478393Y-153156915D01*
X189585409Y-153085409D01*
X189601010Y-153062060D01*
X192617545Y-153062060D01*
X192700884Y-153315953D01*
X193265306Y-153521590D01*
X193865458Y-153495579D01*
X194299116Y-153315953D01*
X194382455Y-153062060D01*
X193500000Y-152179605D01*
X192617545Y-153062060D01*
X189601010Y-153062060D01*
X189656290Y-152979329D01*
X189779370Y-152856463D01*
X189846651Y-152694433D01*
X189918155Y-152587419D01*
X189943045Y-152462291D01*
X190009738Y-152301675D01*
X190009891Y-152126231D01*
X190035000Y-152000000D01*
X190035000Y-151765306D01*
X191978410Y-151765306D01*
X192004421Y-152365458D01*
X192184047Y-152799116D01*
X192437940Y-152882455D01*
X193320395Y-152000000D01*
X193679605Y-152000000D01*
X194562060Y-152882455D01*
X194815953Y-152799116D01*
X195021590Y-152234694D01*
X194995579Y-151634542D01*
X194815953Y-151200884D01*
X194562060Y-151117545D01*
X193679605Y-152000000D01*
X193320395Y-152000000D01*
X192437940Y-151117545D01*
X192184047Y-151200884D01*
X191978410Y-151765306D01*
X190035000Y-151765306D01*
X190035000Y-150937940D01*
X192617545Y-150937940D01*
X193500000Y-151820395D01*
X194382455Y-150937940D01*
X194299116Y-150684047D01*
X193734694Y-150478410D01*
X193134542Y-150504421D01*
X192700884Y-150684047D01*
X192617545Y-150937940D01*
X190035000Y-150937940D01*
X190035000Y-150635818D01*
X190635818Y-150035000D01*
X215364182Y-150035000D01*
X221414591Y-156085409D01*
X221912581Y-156418155D01*
X222500000Y-156535000D01*
X228000000Y-156535000D01*
X228587419Y-156418155D01*
X229085409Y-156085409D01*
X231085409Y-154085409D01*
X231418155Y-153587419D01*
X231535000Y-153000000D01*
X231535000Y-150000000D01*
X231418155Y-149412581D01*
X231085409Y-148914591D01*
X226670818Y-144500000D01*
X236085409Y-135085409D01*
X236418155Y-134587419D01*
X236535000Y-134000000D01*
X236535000Y-128000000D01*
X236418155Y-127412581D01*
X236085409Y-126914591D01*
X235587419Y-126581845D01*
X235000000Y-126465000D01*
X234412581Y-126581845D01*
X233914591Y-126914591D01*
X233581845Y-127412581D01*
X233465000Y-128000000D01*
X233465000Y-133364182D01*
X223414591Y-143414591D01*
X223081845Y-143912581D01*
X222965000Y-144500000D01*
X223038046Y-144867228D01*
X218085409Y-139914591D01*
X217587419Y-139581845D01*
X217000000Y-139465000D01*
X209628818Y-139465000D01*
X209035000Y-138871182D01*
X209035000Y-129535000D01*
X230000000Y-129535000D01*
X230587419Y-129418155D01*
X230600462Y-129409440D01*
X230762000Y-129409440D01*
X230997317Y-129365162D01*
X231213441Y-129226090D01*
X231358431Y-129013890D01*
X231409440Y-128762000D01*
X231409440Y-128600462D01*
X231418155Y-128587419D01*
X231535000Y-128000000D01*
X231418155Y-127412581D01*
X231409440Y-127399538D01*
X231409440Y-127238000D01*
X231365162Y-127002683D01*
X231226090Y-126786559D01*
X231013890Y-126641569D01*
X230762000Y-126590560D01*
X230600462Y-126590560D01*
X230587419Y-126581845D01*
X230000000Y-126465000D01*
X208135818Y-126465000D01*
X206085409Y-124414591D01*
X205587419Y-124081845D01*
X205000000Y-123965000D01*
X193000000Y-123965000D01*
X192412581Y-124081845D01*
X191914591Y-124414591D01*
X185494591Y-130834591D01*
X185161845Y-131332581D01*
X185045000Y-131920000D01*
X185045000Y-135465000D01*
X184500000Y-135465000D01*
X183912581Y-135581845D01*
X183414591Y-135914591D01*
X182414591Y-136914591D01*
X182081845Y-137412581D01*
X181965000Y-138000000D01*
X181965000Y-151899453D01*
X181945000Y-152000000D01*
X181965000Y-152100547D01*
X181965000Y-154664182D01*
X179714591Y-156914591D01*
X179381845Y-157412581D01*
X179265000Y-158000000D01*
X179265000Y-160745000D01*
X172400000Y-160745000D01*
X171812581Y-160861845D01*
X171314591Y-161194591D01*
X170981845Y-161692581D01*
X170865000Y-162280000D01*
X170965000Y-162782734D01*
X170965000Y-166000000D01*
X171081845Y-166587419D01*
X171414591Y-167085409D01*
X171912581Y-167418155D01*
X172148087Y-167465000D01*
X157135818Y-167465000D01*
X156651031Y-166980213D01*
X166699392Y-166980213D01*
X166768857Y-167222397D01*
X167292302Y-167409144D01*
X167847368Y-167381362D01*
X168231143Y-167222397D01*
X168300608Y-166980213D01*
X167500000Y-166179605D01*
X166699392Y-166980213D01*
X156651031Y-166980213D01*
X155463120Y-165792302D01*
X166090856Y-165792302D01*
X166118638Y-166347368D01*
X166277603Y-166731143D01*
X166519787Y-166800608D01*
X167320395Y-166000000D01*
X167679605Y-166000000D01*
X168480213Y-166800608D01*
X168722397Y-166731143D01*
X168909144Y-166207698D01*
X168881362Y-165652632D01*
X168722397Y-165268857D01*
X168480213Y-165199392D01*
X167679605Y-166000000D01*
X167320395Y-166000000D01*
X166519787Y-165199392D01*
X166277603Y-165268857D01*
X166090856Y-165792302D01*
X155463120Y-165792302D01*
X154690605Y-165019787D01*
X166699392Y-165019787D01*
X167500000Y-165820395D01*
X168300608Y-165019787D01*
X168231143Y-164777603D01*
X167707698Y-164590856D01*
X167152632Y-164618638D01*
X166768857Y-164777603D01*
X166699392Y-165019787D01*
X154690605Y-165019787D01*
X151035000Y-161364182D01*
X151035000Y-139465000D01*
X151500000Y-139465000D01*
X151500000Y-140455000D01*
X151616845Y-141042419D01*
X151949591Y-141540409D01*
X152447581Y-141873155D01*
X153035000Y-141990000D01*
X153622419Y-141873155D01*
X154120409Y-141540409D01*
X154453155Y-141042419D01*
X154554087Y-140535000D01*
X156862961Y-140535000D01*
X156414591Y-140834591D01*
X156081845Y-141332581D01*
X155965000Y-141920000D01*
X155965000Y-143920000D01*
X153035000Y-143920000D01*
X152447581Y-144036845D01*
X151949591Y-144369591D01*
X151616845Y-144867581D01*
X151500000Y-145455000D01*
X151616845Y-146042419D01*
X151949591Y-146540409D01*
X152447581Y-146873155D01*
X153035000Y-146990000D01*
X157055000Y-146990000D01*
X157642419Y-146873155D01*
X158140409Y-146540409D01*
X158585409Y-146095409D01*
X158918155Y-145597419D01*
X158965000Y-145361913D01*
X158965000Y-145400000D01*
X159081845Y-145987419D01*
X159414591Y-146485409D01*
X159514591Y-146585409D01*
X160012581Y-146918155D01*
X160600000Y-147035000D01*
X178364182Y-147035000D01*
X178865000Y-147535818D01*
X178865000Y-152764182D01*
X178704840Y-152924342D01*
X178704840Y-152583538D01*
X178805000Y-152080000D01*
X178805000Y-148870000D01*
X178688155Y-148282581D01*
X178355409Y-147784591D01*
X178185409Y-147614591D01*
X177687419Y-147281845D01*
X177100000Y-147165000D01*
X170100000Y-147165000D01*
X169512581Y-147281845D01*
X169014591Y-147614591D01*
X168884591Y-147744591D01*
X168551845Y-148242581D01*
X168435000Y-148830000D01*
X168435000Y-150083251D01*
X167974329Y-149775441D01*
X167430000Y-149667167D01*
X166885671Y-149775441D01*
X166424211Y-150083778D01*
X166116033Y-150545000D01*
X163500000Y-150545000D01*
X162912581Y-150661845D01*
X162414591Y-150994591D01*
X162081845Y-151492581D01*
X162035000Y-151728087D01*
X162035000Y-149600000D01*
X161918155Y-149012581D01*
X161585409Y-148514591D01*
X160885409Y-147814591D01*
X160387419Y-147481845D01*
X159800000Y-147365000D01*
X153609002Y-147365000D01*
X153021583Y-147481845D01*
X152523593Y-147814591D01*
X151949591Y-148388593D01*
X151616845Y-148886583D01*
X151500000Y-149474002D01*
X151500000Y-150455000D01*
X151616845Y-151042419D01*
X151949591Y-151540409D01*
X152447581Y-151873155D01*
X153035000Y-151990000D01*
X153545000Y-151990000D01*
X154132419Y-151873155D01*
X154630409Y-151540409D01*
X154963155Y-151042419D01*
X155080000Y-150455000D01*
X155076022Y-150435000D01*
X158965000Y-150435000D01*
X158965000Y-151453436D01*
X158805409Y-151214591D01*
X158585409Y-150994591D01*
X158087419Y-150661845D01*
X157500000Y-150545000D01*
X156912581Y-150661845D01*
X156414591Y-150994591D01*
X156081845Y-151492581D01*
X155965000Y-152080000D01*
X156081845Y-152667419D01*
X156185000Y-152821801D01*
X156185000Y-157131907D01*
X156015441Y-157385671D01*
X155907167Y-157930000D01*
X156015441Y-158474329D01*
X156323251Y-158935000D01*
X154570000Y-158935000D01*
X154570000Y-155455000D01*
X154453155Y-154867581D01*
X154444440Y-154854538D01*
X154444440Y-154693000D01*
X154400162Y-154457683D01*
X154261090Y-154241559D01*
X154048890Y-154096569D01*
X153797000Y-154045560D01*
X153635462Y-154045560D01*
X153622419Y-154036845D01*
X153035000Y-153920000D01*
X152447581Y-154036845D01*
X152434538Y-154045560D01*
X152273000Y-154045560D01*
X152037683Y-154089838D01*
X151821559Y-154228910D01*
X151676569Y-154441110D01*
X151625560Y-154693000D01*
X151625560Y-154854538D01*
X151616845Y-154867581D01*
X151500000Y-155455000D01*
X151500000Y-160235000D01*
X151616845Y-160822419D01*
X151949591Y-161320409D01*
X152184591Y-161555409D01*
X152682581Y-161888155D01*
X153270000Y-162005000D01*
X161430000Y-162005000D01*
X162017419Y-161888155D01*
X162515409Y-161555409D01*
X163253758Y-160817060D01*
X166144990Y-160817060D01*
X166161673Y-160896996D01*
X166428809Y-161385986D01*
X166862738Y-161735525D01*
X167397400Y-161892400D01*
X167753000Y-161892400D01*
X167753000Y-160597000D01*
X168007000Y-160597000D01*
X168007000Y-161892400D01*
X168362600Y-161892400D01*
X168897262Y-161735525D01*
X169331191Y-161385986D01*
X169598327Y-160896996D01*
X169615010Y-160817060D01*
X169492852Y-160597000D01*
X168007000Y-160597000D01*
X167753000Y-160597000D01*
X166267148Y-160597000D01*
X166144990Y-160817060D01*
X163253758Y-160817060D01*
X166079387Y-157991431D01*
X166175441Y-158474329D01*
X166483778Y-158935789D01*
X166878830Y-159199754D01*
X166862738Y-159204475D01*
X166428809Y-159554014D01*
X166161673Y-160043004D01*
X166144990Y-160122940D01*
X166267148Y-160343000D01*
X167753000Y-160343000D01*
X167753000Y-160323000D01*
X168007000Y-160323000D01*
X168007000Y-160343000D01*
X169492852Y-160343000D01*
X169615010Y-160122940D01*
X169598327Y-160043004D01*
X169331191Y-159554014D01*
X169220686Y-159465000D01*
X171370000Y-159465000D01*
X171957419Y-159348155D01*
X172455409Y-159015409D01*
X173485409Y-157985409D01*
X173818155Y-157487419D01*
X173935000Y-156900000D01*
X173935000Y-156465864D01*
X174312581Y-156718155D01*
X174900000Y-156835000D01*
X178500000Y-156835000D01*
X179087419Y-156718155D01*
X179585409Y-156385409D01*
X181485409Y-154485409D01*
X181818155Y-153987419D01*
X181935000Y-153400000D01*
X181935000Y-146900000D01*
X181818155Y-146312581D01*
X181485409Y-145814591D01*
X180085409Y-144414591D01*
X179587419Y-144081845D01*
X179000000Y-143965000D01*
X162035000Y-143965000D01*
X162035000Y-142271913D01*
X162081845Y-142507419D01*
X162414591Y-143005409D01*
X162912581Y-143338155D01*
X163500000Y-143455000D01*
X164087419Y-143338155D01*
X164585409Y-143005409D01*
X164918155Y-142507419D01*
X165035000Y-141920000D01*
X165035000Y-139800000D01*
X164918155Y-139212581D01*
X164585409Y-138714591D01*
X163785409Y-137914591D01*
X163287419Y-137581845D01*
X162700000Y-137465000D01*
X153500000Y-137465000D01*
X152912581Y-137581845D01*
X152414591Y-137914591D01*
X151949591Y-138379591D01*
X151616845Y-138877581D01*
X151500000Y-139465000D01*
X151035000Y-139465000D01*
X151035000Y-138135818D01*
X154670818Y-134500000D01*
X162385000Y-134500000D01*
X162501845Y-135087419D01*
X162834591Y-135585409D01*
X163332581Y-135918155D01*
X163920000Y-136035000D01*
X165895000Y-136035000D01*
X165895000Y-141320000D01*
X166011845Y-141907419D01*
X166061593Y-141981872D01*
X166115874Y-142254762D01*
X166424211Y-142716222D01*
X166885671Y-143024559D01*
X167430000Y-143132833D01*
X167974329Y-143024559D01*
X168435789Y-142716222D01*
X168699754Y-142321170D01*
X168704475Y-142337262D01*
X169054014Y-142771191D01*
X169543004Y-143038327D01*
X169622940Y-143055010D01*
X169843000Y-142932852D01*
X169843000Y-141447000D01*
X170097000Y-141447000D01*
X170097000Y-142932852D01*
X170317060Y-143055010D01*
X170396996Y-143038327D01*
X170885986Y-142771191D01*
X171235525Y-142337262D01*
X171392400Y-141802600D01*
X171392400Y-141447000D01*
X170097000Y-141447000D01*
X169843000Y-141447000D01*
X169823000Y-141447000D01*
X169823000Y-141193000D01*
X169843000Y-141193000D01*
X169843000Y-139707148D01*
X170097000Y-139707148D01*
X170097000Y-141193000D01*
X171392400Y-141193000D01*
X171392400Y-140837400D01*
X171235525Y-140302738D01*
X170885986Y-139868809D01*
X170705118Y-139770000D01*
X173195000Y-139770000D01*
X173195000Y-141920000D01*
X173311845Y-142507419D01*
X173361593Y-142581872D01*
X173415874Y-142854762D01*
X173724211Y-143316222D01*
X174185671Y-143624559D01*
X174730000Y-143732833D01*
X175274329Y-143624559D01*
X175735789Y-143316222D01*
X175999754Y-142921170D01*
X176004475Y-142937262D01*
X176354014Y-143371191D01*
X176843004Y-143638327D01*
X176922940Y-143655010D01*
X177143000Y-143532852D01*
X177143000Y-142047000D01*
X177397000Y-142047000D01*
X177397000Y-143532852D01*
X177617060Y-143655010D01*
X177696996Y-143638327D01*
X178185986Y-143371191D01*
X178535525Y-142937262D01*
X178692400Y-142402600D01*
X178692400Y-142047000D01*
X177397000Y-142047000D01*
X177143000Y-142047000D01*
X177123000Y-142047000D01*
X177123000Y-141793000D01*
X177143000Y-141793000D01*
X177143000Y-140307148D01*
X177397000Y-140307148D01*
X177397000Y-141793000D01*
X178692400Y-141793000D01*
X178692400Y-141437400D01*
X178535525Y-140902738D01*
X178185986Y-140468809D01*
X177696996Y-140201673D01*
X177617060Y-140184990D01*
X177397000Y-140307148D01*
X177143000Y-140307148D01*
X176922940Y-140184990D01*
X176843004Y-140201673D01*
X176354014Y-140468809D01*
X176265000Y-140579314D01*
X176265000Y-140405818D01*
X177085409Y-139585409D01*
X177418155Y-139087419D01*
X177535000Y-138500000D01*
X177535000Y-138041123D01*
X177838155Y-137587419D01*
X177955000Y-137000000D01*
X177838155Y-136412581D01*
X177505409Y-135914591D01*
X177007419Y-135581845D01*
X176420000Y-135465000D01*
X175832581Y-135581845D01*
X175334591Y-135914591D01*
X174914591Y-136334591D01*
X174581845Y-136832581D01*
X174465000Y-137420000D01*
X174465000Y-137864182D01*
X173644591Y-138684591D01*
X173311845Y-139182581D01*
X173195000Y-139770000D01*
X170705118Y-139770000D01*
X170396996Y-139601673D01*
X170317060Y-139584990D01*
X170097000Y-139707148D01*
X169843000Y-139707148D01*
X169622940Y-139584990D01*
X169543004Y-139601673D01*
X169054014Y-139868809D01*
X168965000Y-139979314D01*
X168965000Y-134830000D01*
X168848155Y-134242581D01*
X168515409Y-133744591D01*
X168185409Y-133414591D01*
X167687419Y-133081845D01*
X167100000Y-132965000D01*
X163920000Y-132965000D01*
X163332581Y-133081845D01*
X162834591Y-133414591D01*
X162501845Y-133912581D01*
X162385000Y-134500000D01*
X154670818Y-134500000D01*
X156635818Y-132535000D01*
X168364182Y-132535000D01*
X171414591Y-135585409D01*
X171912581Y-135918155D01*
X172500000Y-136035000D01*
X174080000Y-136035000D01*
X174667419Y-135918155D01*
X175165409Y-135585409D01*
X175498155Y-135087419D01*
X175615000Y-134500000D01*
X175498155Y-133912581D01*
X175165409Y-133414591D01*
X174667419Y-133081845D01*
X174080000Y-132965000D01*
X173135818Y-132965000D01*
X170085409Y-129914591D01*
X169587419Y-129581845D01*
X169000000Y-129465000D01*
X156000000Y-129465000D01*
X155412581Y-129581845D01*
X154914591Y-129914591D01*
X148414591Y-136414591D01*
X148081845Y-136912581D01*
X147965000Y-137500000D01*
X147627000Y-137500000D01*
X147627000Y-123127000D01*
X237873000Y-123127000D01*
X237873000Y-170873000D01*
X237873000Y-170873000D01*
G37*
X237873000Y-170873000D02*
X147627000Y-170873000D01*
X147627000Y-137500000D01*
X147965000Y-137500000D01*
X147965000Y-162000000D01*
X148081845Y-162587419D01*
X148414591Y-163085409D01*
X155414591Y-170085409D01*
X155912581Y-170418155D01*
X156500000Y-170535000D01*
X174500000Y-170535000D01*
X175087419Y-170418155D01*
X175585409Y-170085409D01*
X178135818Y-167535000D01*
X182500000Y-167535000D01*
X183087419Y-167418155D01*
X183585409Y-167085409D01*
X184585409Y-166085409D01*
X184918155Y-165587419D01*
X185035000Y-165000000D01*
X185035000Y-160135818D01*
X186135818Y-159035000D01*
X205148087Y-159035000D01*
X204912581Y-159081845D01*
X204414591Y-159414591D01*
X200364182Y-163465000D01*
X190135818Y-163465000D01*
X190035000Y-163364182D01*
X190035000Y-162562060D01*
X192617545Y-162562060D01*
X192700884Y-162815953D01*
X193265306Y-163021590D01*
X193865458Y-162995579D01*
X194299116Y-162815953D01*
X194382455Y-162562060D01*
X193500000Y-161679605D01*
X192617545Y-162562060D01*
X190035000Y-162562060D01*
X190035000Y-161500000D01*
X190010110Y-161374871D01*
X190010205Y-161265306D01*
X191978410Y-161265306D01*
X192004421Y-161865458D01*
X192184047Y-162299116D01*
X192437940Y-162382455D01*
X193320395Y-161500000D01*
X193679605Y-161500000D01*
X194562060Y-162382455D01*
X194815953Y-162299116D01*
X195021590Y-161734694D01*
X194995579Y-161134542D01*
X194815953Y-160700884D01*
X194562060Y-160617545D01*
X193679605Y-161500000D01*
X193320395Y-161500000D01*
X192437940Y-160617545D01*
X192184047Y-160700884D01*
X191978410Y-161265306D01*
X190010205Y-161265306D01*
X190010262Y-161200960D01*
X189943264Y-161038813D01*
X189918155Y-160912581D01*
X189847274Y-160806500D01*
X189780862Y-160645771D01*
X189656915Y-160521607D01*
X189601011Y-160437940D01*
X192617545Y-160437940D01*
X193500000Y-161320395D01*
X194382455Y-160437940D01*
X194299116Y-160184047D01*
X193734694Y-159978410D01*
X193134542Y-160004421D01*
X192700884Y-160184047D01*
X192617545Y-160437940D01*
X189601011Y-160437940D01*
X189585409Y-160414591D01*
X189479329Y-160343710D01*
X189356463Y-160220630D01*
X189194433Y-160153349D01*
X189087419Y-160081845D01*
X188962291Y-160056955D01*
X188801675Y-159990262D01*
X188626231Y-159990109D01*
X188500000Y-159965000D01*
X188374871Y-159989890D01*
X188200960Y-159989738D01*
X188038813Y-160056736D01*
X187912581Y-160081845D01*
X187806500Y-160152726D01*
X187645771Y-160219138D01*
X187521607Y-160343085D01*
X187414591Y-160414591D01*
X187343710Y-160520671D01*
X187220630Y-160643537D01*
X187153349Y-160805567D01*
X187081845Y-160912581D01*
X187056955Y-161037709D01*
X186990262Y-161198325D01*
X186990109Y-161373769D01*
X186965000Y-161500000D01*
X186965000Y-164000000D01*
X187081845Y-164587419D01*
X187414591Y-165085409D01*
X188414591Y-166085409D01*
X188912581Y-166418155D01*
X189500000Y-166535000D01*
X201000000Y-166535000D01*
X201587419Y-166418155D01*
X202085409Y-166085409D01*
X205500000Y-162670818D01*
X208414591Y-165585409D01*
X208912581Y-165918155D01*
X209500000Y-166035000D01*
X222000000Y-166035000D01*
X222587419Y-165918155D01*
X223085409Y-165585409D01*
X223418155Y-165087419D01*
X223535000Y-164500000D01*
X223418155Y-163912581D01*
X223085409Y-163414591D01*
X222587419Y-163081845D01*
X222000000Y-162965000D01*
X210135818Y-162965000D01*
X206585409Y-159414591D01*
X206087419Y-159081845D01*
X205851913Y-159035000D01*
X209357182Y-159035000D01*
X211564510Y-161242328D01*
X211564510Y-161281050D01*
X211608788Y-161516367D01*
X211747860Y-161732491D01*
X211960060Y-161877481D01*
X212211950Y-161928490D01*
X212457539Y-161928490D01*
X212993000Y-162035000D01*
X222364182Y-162035000D01*
X225590560Y-165261378D01*
X225590560Y-165262000D01*
X225634838Y-165497317D01*
X225773910Y-165713441D01*
X225986110Y-165858431D01*
X226238000Y-165909440D01*
X226399538Y-165909440D01*
X226412581Y-165918155D01*
X227000000Y-166035000D01*
X227587419Y-165918155D01*
X227600462Y-165909440D01*
X227762000Y-165909440D01*
X227997317Y-165865162D01*
X228213441Y-165726090D01*
X228358431Y-165513890D01*
X228409440Y-165262000D01*
X228409440Y-165100462D01*
X228418155Y-165087419D01*
X228535000Y-164500000D01*
X228418155Y-163912581D01*
X228409440Y-163899538D01*
X228409440Y-163738000D01*
X228365162Y-163502683D01*
X228226090Y-163286559D01*
X228013890Y-163141569D01*
X227762000Y-163090560D01*
X227761378Y-163090560D01*
X224085409Y-159414591D01*
X223587419Y-159081845D01*
X223000000Y-158965000D01*
X213628818Y-158965000D01*
X211078409Y-156414591D01*
X210580419Y-156081845D01*
X209993000Y-155965000D01*
X185500000Y-155965000D01*
X184912581Y-156081845D01*
X184687958Y-156231933D01*
X184918155Y-155887419D01*
X185035000Y-155300000D01*
X185035000Y-138635818D01*
X185135818Y-138535000D01*
X186580000Y-138535000D01*
X187167419Y-138418155D01*
X187665409Y-138085409D01*
X187998155Y-137587419D01*
X188115000Y-137000000D01*
X188115000Y-132555818D01*
X193635818Y-127035000D01*
X201334136Y-127035000D01*
X201081845Y-127412581D01*
X200965000Y-128000000D01*
X200965000Y-139364182D01*
X195864182Y-144465000D01*
X190035000Y-144465000D01*
X190035000Y-143562060D01*
X192617545Y-143562060D01*
X192700884Y-143815953D01*
X193265306Y-144021590D01*
X193865458Y-143995579D01*
X194299116Y-143815953D01*
X194382455Y-143562060D01*
X193500000Y-142679605D01*
X192617545Y-143562060D01*
X190035000Y-143562060D01*
X190035000Y-142500000D01*
X190010110Y-142374871D01*
X190010205Y-142265306D01*
X191978410Y-142265306D01*
X192004421Y-142865458D01*
X192184047Y-143299116D01*
X192437940Y-143382455D01*
X193320395Y-142500000D01*
X193679605Y-142500000D01*
X194562060Y-143382455D01*
X194815953Y-143299116D01*
X195021590Y-142734694D01*
X194995579Y-142134542D01*
X194815953Y-141700884D01*
X194562060Y-141617545D01*
X193679605Y-142500000D01*
X193320395Y-142500000D01*
X192437940Y-141617545D01*
X192184047Y-141700884D01*
X191978410Y-142265306D01*
X190010205Y-142265306D01*
X190010262Y-142200960D01*
X189943264Y-142038813D01*
X189918155Y-141912581D01*
X189847274Y-141806500D01*
X189780862Y-141645771D01*
X189656915Y-141521607D01*
X189601011Y-141437940D01*
X192617545Y-141437940D01*
X193500000Y-142320395D01*
X194382455Y-141437940D01*
X194299116Y-141184047D01*
X193734694Y-140978410D01*
X193134542Y-141004421D01*
X192700884Y-141184047D01*
X192617545Y-141437940D01*
X189601011Y-141437940D01*
X189585409Y-141414591D01*
X189479329Y-141343710D01*
X189356463Y-141220630D01*
X189194433Y-141153349D01*
X189087419Y-141081845D01*
X188962291Y-141056955D01*
X188801675Y-140990262D01*
X188626231Y-140990109D01*
X188500000Y-140965000D01*
X188374871Y-140989890D01*
X188200960Y-140989738D01*
X188038813Y-141056736D01*
X187912581Y-141081845D01*
X187806500Y-141152726D01*
X187645771Y-141219138D01*
X187521607Y-141343085D01*
X187414591Y-141414591D01*
X187343710Y-141520671D01*
X187220630Y-141643537D01*
X187153349Y-141805567D01*
X187081845Y-141912581D01*
X187056955Y-142037709D01*
X186990262Y-142198325D01*
X186990109Y-142373769D01*
X186965000Y-142500000D01*
X186965000Y-145500000D01*
X187081845Y-146087419D01*
X187414591Y-146585409D01*
X187914591Y-147085409D01*
X188412581Y-147418155D01*
X188828329Y-147500853D01*
X187414591Y-148914591D01*
X187081845Y-149412581D01*
X186965000Y-150000000D01*
X186965000Y-152000000D01*
X186989890Y-152125129D01*
X186989738Y-152299040D01*
X187056736Y-152461187D01*
X187081845Y-152587419D01*
X187152726Y-152693500D01*
X187219138Y-152854229D01*
X187343085Y-152978393D01*
X187414591Y-153085409D01*
X187520671Y-153156290D01*
X187643537Y-153279370D01*
X187805567Y-153346651D01*
X187912581Y-153418155D01*
X188037709Y-153443045D01*
X188198325Y-153509738D01*
X188373769Y-153509891D01*
X188500000Y-153535000D01*
X188625129Y-153510110D01*
X188799040Y-153510262D01*
X188961187Y-153443264D01*
X189087419Y-153418155D01*
X189193500Y-153347274D01*
X189354229Y-153280862D01*
X189478393Y-153156915D01*
X189585409Y-153085409D01*
X189601010Y-153062060D01*
X192617545Y-153062060D01*
X192700884Y-153315953D01*
X193265306Y-153521590D01*
X193865458Y-153495579D01*
X194299116Y-153315953D01*
X194382455Y-153062060D01*
X193500000Y-152179605D01*
X192617545Y-153062060D01*
X189601010Y-153062060D01*
X189656290Y-152979329D01*
X189779370Y-152856463D01*
X189846651Y-152694433D01*
X189918155Y-152587419D01*
X189943045Y-152462291D01*
X190009738Y-152301675D01*
X190009891Y-152126231D01*
X190035000Y-152000000D01*
X190035000Y-151765306D01*
X191978410Y-151765306D01*
X192004421Y-152365458D01*
X192184047Y-152799116D01*
X192437940Y-152882455D01*
X193320395Y-152000000D01*
X193679605Y-152000000D01*
X194562060Y-152882455D01*
X194815953Y-152799116D01*
X195021590Y-152234694D01*
X194995579Y-151634542D01*
X194815953Y-151200884D01*
X194562060Y-151117545D01*
X193679605Y-152000000D01*
X193320395Y-152000000D01*
X192437940Y-151117545D01*
X192184047Y-151200884D01*
X191978410Y-151765306D01*
X190035000Y-151765306D01*
X190035000Y-150937940D01*
X192617545Y-150937940D01*
X193500000Y-151820395D01*
X194382455Y-150937940D01*
X194299116Y-150684047D01*
X193734694Y-150478410D01*
X193134542Y-150504421D01*
X192700884Y-150684047D01*
X192617545Y-150937940D01*
X190035000Y-150937940D01*
X190035000Y-150635818D01*
X190635818Y-150035000D01*
X215364182Y-150035000D01*
X221414591Y-156085409D01*
X221912581Y-156418155D01*
X222500000Y-156535000D01*
X228000000Y-156535000D01*
X228587419Y-156418155D01*
X229085409Y-156085409D01*
X231085409Y-154085409D01*
X231418155Y-153587419D01*
X231535000Y-153000000D01*
X231535000Y-150000000D01*
X231418155Y-149412581D01*
X231085409Y-148914591D01*
X226670818Y-144500000D01*
X236085409Y-135085409D01*
X236418155Y-134587419D01*
X236535000Y-134000000D01*
X236535000Y-128000000D01*
X236418155Y-127412581D01*
X236085409Y-126914591D01*
X235587419Y-126581845D01*
X235000000Y-126465000D01*
X234412581Y-126581845D01*
X233914591Y-126914591D01*
X233581845Y-127412581D01*
X233465000Y-128000000D01*
X233465000Y-133364182D01*
X223414591Y-143414591D01*
X223081845Y-143912581D01*
X222965000Y-144500000D01*
X223038046Y-144867228D01*
X218085409Y-139914591D01*
X217587419Y-139581845D01*
X217000000Y-139465000D01*
X209628818Y-139465000D01*
X209035000Y-138871182D01*
X209035000Y-129535000D01*
X230000000Y-129535000D01*
X230587419Y-129418155D01*
X230600462Y-129409440D01*
X230762000Y-129409440D01*
X230997317Y-129365162D01*
X231213441Y-129226090D01*
X231358431Y-129013890D01*
X231409440Y-128762000D01*
X231409440Y-128600462D01*
X231418155Y-128587419D01*
X231535000Y-128000000D01*
X231418155Y-127412581D01*
X231409440Y-127399538D01*
X231409440Y-127238000D01*
X231365162Y-127002683D01*
X231226090Y-126786559D01*
X231013890Y-126641569D01*
X230762000Y-126590560D01*
X230600462Y-126590560D01*
X230587419Y-126581845D01*
X230000000Y-126465000D01*
X208135818Y-126465000D01*
X206085409Y-124414591D01*
X205587419Y-124081845D01*
X205000000Y-123965000D01*
X193000000Y-123965000D01*
X192412581Y-124081845D01*
X191914591Y-124414591D01*
X185494591Y-130834591D01*
X185161845Y-131332581D01*
X185045000Y-131920000D01*
X185045000Y-135465000D01*
X184500000Y-135465000D01*
X183912581Y-135581845D01*
X183414591Y-135914591D01*
X182414591Y-136914591D01*
X182081845Y-137412581D01*
X181965000Y-138000000D01*
X181965000Y-151899453D01*
X181945000Y-152000000D01*
X181965000Y-152100547D01*
X181965000Y-154664182D01*
X179714591Y-156914591D01*
X179381845Y-157412581D01*
X179265000Y-158000000D01*
X179265000Y-160745000D01*
X172400000Y-160745000D01*
X171812581Y-160861845D01*
X171314591Y-161194591D01*
X170981845Y-161692581D01*
X170865000Y-162280000D01*
X170965000Y-162782734D01*
X170965000Y-166000000D01*
X171081845Y-166587419D01*
X171414591Y-167085409D01*
X171912581Y-167418155D01*
X172148087Y-167465000D01*
X157135818Y-167465000D01*
X156651031Y-166980213D01*
X166699392Y-166980213D01*
X166768857Y-167222397D01*
X167292302Y-167409144D01*
X167847368Y-167381362D01*
X168231143Y-167222397D01*
X168300608Y-166980213D01*
X167500000Y-166179605D01*
X166699392Y-166980213D01*
X156651031Y-166980213D01*
X155463120Y-165792302D01*
X166090856Y-165792302D01*
X166118638Y-166347368D01*
X166277603Y-166731143D01*
X166519787Y-166800608D01*
X167320395Y-166000000D01*
X167679605Y-166000000D01*
X168480213Y-166800608D01*
X168722397Y-166731143D01*
X168909144Y-166207698D01*
X168881362Y-165652632D01*
X168722397Y-165268857D01*
X168480213Y-165199392D01*
X167679605Y-166000000D01*
X167320395Y-166000000D01*
X166519787Y-165199392D01*
X166277603Y-165268857D01*
X166090856Y-165792302D01*
X155463120Y-165792302D01*
X154690605Y-165019787D01*
X166699392Y-165019787D01*
X167500000Y-165820395D01*
X168300608Y-165019787D01*
X168231143Y-164777603D01*
X167707698Y-164590856D01*
X167152632Y-164618638D01*
X166768857Y-164777603D01*
X166699392Y-165019787D01*
X154690605Y-165019787D01*
X151035000Y-161364182D01*
X151035000Y-139465000D01*
X151500000Y-139465000D01*
X151500000Y-140455000D01*
X151616845Y-141042419D01*
X151949591Y-141540409D01*
X152447581Y-141873155D01*
X153035000Y-141990000D01*
X153622419Y-141873155D01*
X154120409Y-141540409D01*
X154453155Y-141042419D01*
X154554087Y-140535000D01*
X156862961Y-140535000D01*
X156414591Y-140834591D01*
X156081845Y-141332581D01*
X155965000Y-141920000D01*
X155965000Y-143920000D01*
X153035000Y-143920000D01*
X152447581Y-144036845D01*
X151949591Y-144369591D01*
X151616845Y-144867581D01*
X151500000Y-145455000D01*
X151616845Y-146042419D01*
X151949591Y-146540409D01*
X152447581Y-146873155D01*
X153035000Y-146990000D01*
X157055000Y-146990000D01*
X157642419Y-146873155D01*
X158140409Y-146540409D01*
X158585409Y-146095409D01*
X158918155Y-145597419D01*
X158965000Y-145361913D01*
X158965000Y-145400000D01*
X159081845Y-145987419D01*
X159414591Y-146485409D01*
X159514591Y-146585409D01*
X160012581Y-146918155D01*
X160600000Y-147035000D01*
X178364182Y-147035000D01*
X178865000Y-147535818D01*
X178865000Y-152764182D01*
X178704840Y-152924342D01*
X178704840Y-152583538D01*
X178805000Y-152080000D01*
X178805000Y-148870000D01*
X178688155Y-148282581D01*
X178355409Y-147784591D01*
X178185409Y-147614591D01*
X177687419Y-147281845D01*
X177100000Y-147165000D01*
X170100000Y-147165000D01*
X169512581Y-147281845D01*
X169014591Y-147614591D01*
X168884591Y-147744591D01*
X168551845Y-148242581D01*
X168435000Y-148830000D01*
X168435000Y-150083251D01*
X167974329Y-149775441D01*
X167430000Y-149667167D01*
X166885671Y-149775441D01*
X166424211Y-150083778D01*
X166116033Y-150545000D01*
X163500000Y-150545000D01*
X162912581Y-150661845D01*
X162414591Y-150994591D01*
X162081845Y-151492581D01*
X162035000Y-151728087D01*
X162035000Y-149600000D01*
X161918155Y-149012581D01*
X161585409Y-148514591D01*
X160885409Y-147814591D01*
X160387419Y-147481845D01*
X159800000Y-147365000D01*
X153609002Y-147365000D01*
X153021583Y-147481845D01*
X152523593Y-147814591D01*
X151949591Y-148388593D01*
X151616845Y-148886583D01*
X151500000Y-149474002D01*
X151500000Y-150455000D01*
X151616845Y-151042419D01*
X151949591Y-151540409D01*
X152447581Y-151873155D01*
X153035000Y-151990000D01*
X153545000Y-151990000D01*
X154132419Y-151873155D01*
X154630409Y-151540409D01*
X154963155Y-151042419D01*
X155080000Y-150455000D01*
X155076022Y-150435000D01*
X158965000Y-150435000D01*
X158965000Y-151453436D01*
X158805409Y-151214591D01*
X158585409Y-150994591D01*
X158087419Y-150661845D01*
X157500000Y-150545000D01*
X156912581Y-150661845D01*
X156414591Y-150994591D01*
X156081845Y-151492581D01*
X155965000Y-152080000D01*
X156081845Y-152667419D01*
X156185000Y-152821801D01*
X156185000Y-157131907D01*
X156015441Y-157385671D01*
X155907167Y-157930000D01*
X156015441Y-158474329D01*
X156323251Y-158935000D01*
X154570000Y-158935000D01*
X154570000Y-155455000D01*
X154453155Y-154867581D01*
X154444440Y-154854538D01*
X154444440Y-154693000D01*
X154400162Y-154457683D01*
X154261090Y-154241559D01*
X154048890Y-154096569D01*
X153797000Y-154045560D01*
X153635462Y-154045560D01*
X153622419Y-154036845D01*
X153035000Y-153920000D01*
X152447581Y-154036845D01*
X152434538Y-154045560D01*
X152273000Y-154045560D01*
X152037683Y-154089838D01*
X151821559Y-154228910D01*
X151676569Y-154441110D01*
X151625560Y-154693000D01*
X151625560Y-154854538D01*
X151616845Y-154867581D01*
X151500000Y-155455000D01*
X151500000Y-160235000D01*
X151616845Y-160822419D01*
X151949591Y-161320409D01*
X152184591Y-161555409D01*
X152682581Y-161888155D01*
X153270000Y-162005000D01*
X161430000Y-162005000D01*
X162017419Y-161888155D01*
X162515409Y-161555409D01*
X163253758Y-160817060D01*
X166144990Y-160817060D01*
X166161673Y-160896996D01*
X166428809Y-161385986D01*
X166862738Y-161735525D01*
X167397400Y-161892400D01*
X167753000Y-161892400D01*
X167753000Y-160597000D01*
X168007000Y-160597000D01*
X168007000Y-161892400D01*
X168362600Y-161892400D01*
X168897262Y-161735525D01*
X169331191Y-161385986D01*
X169598327Y-160896996D01*
X169615010Y-160817060D01*
X169492852Y-160597000D01*
X168007000Y-160597000D01*
X167753000Y-160597000D01*
X166267148Y-160597000D01*
X166144990Y-160817060D01*
X163253758Y-160817060D01*
X166079387Y-157991431D01*
X166175441Y-158474329D01*
X166483778Y-158935789D01*
X166878830Y-159199754D01*
X166862738Y-159204475D01*
X166428809Y-159554014D01*
X166161673Y-160043004D01*
X166144990Y-160122940D01*
X166267148Y-160343000D01*
X167753000Y-160343000D01*
X167753000Y-160323000D01*
X168007000Y-160323000D01*
X168007000Y-160343000D01*
X169492852Y-160343000D01*
X169615010Y-160122940D01*
X169598327Y-160043004D01*
X169331191Y-159554014D01*
X169220686Y-159465000D01*
X171370000Y-159465000D01*
X171957419Y-159348155D01*
X172455409Y-159015409D01*
X173485409Y-157985409D01*
X173818155Y-157487419D01*
X173935000Y-156900000D01*
X173935000Y-156465864D01*
X174312581Y-156718155D01*
X174900000Y-156835000D01*
X178500000Y-156835000D01*
X179087419Y-156718155D01*
X179585409Y-156385409D01*
X181485409Y-154485409D01*
X181818155Y-153987419D01*
X181935000Y-153400000D01*
X181935000Y-146900000D01*
X181818155Y-146312581D01*
X181485409Y-145814591D01*
X180085409Y-144414591D01*
X179587419Y-144081845D01*
X179000000Y-143965000D01*
X162035000Y-143965000D01*
X162035000Y-142271913D01*
X162081845Y-142507419D01*
X162414591Y-143005409D01*
X162912581Y-143338155D01*
X163500000Y-143455000D01*
X164087419Y-143338155D01*
X164585409Y-143005409D01*
X164918155Y-142507419D01*
X165035000Y-141920000D01*
X165035000Y-139800000D01*
X164918155Y-139212581D01*
X164585409Y-138714591D01*
X163785409Y-137914591D01*
X163287419Y-137581845D01*
X162700000Y-137465000D01*
X153500000Y-137465000D01*
X152912581Y-137581845D01*
X152414591Y-137914591D01*
X151949591Y-138379591D01*
X151616845Y-138877581D01*
X151500000Y-139465000D01*
X151035000Y-139465000D01*
X151035000Y-138135818D01*
X154670818Y-134500000D01*
X162385000Y-134500000D01*
X162501845Y-135087419D01*
X162834591Y-135585409D01*
X163332581Y-135918155D01*
X163920000Y-136035000D01*
X165895000Y-136035000D01*
X165895000Y-141320000D01*
X166011845Y-141907419D01*
X166061593Y-141981872D01*
X166115874Y-142254762D01*
X166424211Y-142716222D01*
X166885671Y-143024559D01*
X167430000Y-143132833D01*
X167974329Y-143024559D01*
X168435789Y-142716222D01*
X168699754Y-142321170D01*
X168704475Y-142337262D01*
X169054014Y-142771191D01*
X169543004Y-143038327D01*
X169622940Y-143055010D01*
X169843000Y-142932852D01*
X169843000Y-141447000D01*
X170097000Y-141447000D01*
X170097000Y-142932852D01*
X170317060Y-143055010D01*
X170396996Y-143038327D01*
X170885986Y-142771191D01*
X171235525Y-142337262D01*
X171392400Y-141802600D01*
X171392400Y-141447000D01*
X170097000Y-141447000D01*
X169843000Y-141447000D01*
X169823000Y-141447000D01*
X169823000Y-141193000D01*
X169843000Y-141193000D01*
X169843000Y-139707148D01*
X170097000Y-139707148D01*
X170097000Y-141193000D01*
X171392400Y-141193000D01*
X171392400Y-140837400D01*
X171235525Y-140302738D01*
X170885986Y-139868809D01*
X170705118Y-139770000D01*
X173195000Y-139770000D01*
X173195000Y-141920000D01*
X173311845Y-142507419D01*
X173361593Y-142581872D01*
X173415874Y-142854762D01*
X173724211Y-143316222D01*
X174185671Y-143624559D01*
X174730000Y-143732833D01*
X175274329Y-143624559D01*
X175735789Y-143316222D01*
X175999754Y-142921170D01*
X176004475Y-142937262D01*
X176354014Y-143371191D01*
X176843004Y-143638327D01*
X176922940Y-143655010D01*
X177143000Y-143532852D01*
X177143000Y-142047000D01*
X177397000Y-142047000D01*
X177397000Y-143532852D01*
X177617060Y-143655010D01*
X177696996Y-143638327D01*
X178185986Y-143371191D01*
X178535525Y-142937262D01*
X178692400Y-142402600D01*
X178692400Y-142047000D01*
X177397000Y-142047000D01*
X177143000Y-142047000D01*
X177123000Y-142047000D01*
X177123000Y-141793000D01*
X177143000Y-141793000D01*
X177143000Y-140307148D01*
X177397000Y-140307148D01*
X177397000Y-141793000D01*
X178692400Y-141793000D01*
X178692400Y-141437400D01*
X178535525Y-140902738D01*
X178185986Y-140468809D01*
X177696996Y-140201673D01*
X177617060Y-140184990D01*
X177397000Y-140307148D01*
X177143000Y-140307148D01*
X176922940Y-140184990D01*
X176843004Y-140201673D01*
X176354014Y-140468809D01*
X176265000Y-140579314D01*
X176265000Y-140405818D01*
X177085409Y-139585409D01*
X177418155Y-139087419D01*
X177535000Y-138500000D01*
X177535000Y-138041123D01*
X177838155Y-137587419D01*
X177955000Y-137000000D01*
X177838155Y-136412581D01*
X177505409Y-135914591D01*
X177007419Y-135581845D01*
X176420000Y-135465000D01*
X175832581Y-135581845D01*
X175334591Y-135914591D01*
X174914591Y-136334591D01*
X174581845Y-136832581D01*
X174465000Y-137420000D01*
X174465000Y-137864182D01*
X173644591Y-138684591D01*
X173311845Y-139182581D01*
X173195000Y-139770000D01*
X170705118Y-139770000D01*
X170396996Y-139601673D01*
X170317060Y-139584990D01*
X170097000Y-139707148D01*
X169843000Y-139707148D01*
X169622940Y-139584990D01*
X169543004Y-139601673D01*
X169054014Y-139868809D01*
X168965000Y-139979314D01*
X168965000Y-134830000D01*
X168848155Y-134242581D01*
X168515409Y-133744591D01*
X168185409Y-133414591D01*
X167687419Y-133081845D01*
X167100000Y-132965000D01*
X163920000Y-132965000D01*
X163332581Y-133081845D01*
X162834591Y-133414591D01*
X162501845Y-133912581D01*
X162385000Y-134500000D01*
X154670818Y-134500000D01*
X156635818Y-132535000D01*
X168364182Y-132535000D01*
X171414591Y-135585409D01*
X171912581Y-135918155D01*
X172500000Y-136035000D01*
X174080000Y-136035000D01*
X174667419Y-135918155D01*
X175165409Y-135585409D01*
X175498155Y-135087419D01*
X175615000Y-134500000D01*
X175498155Y-133912581D01*
X175165409Y-133414591D01*
X174667419Y-133081845D01*
X174080000Y-132965000D01*
X173135818Y-132965000D01*
X170085409Y-129914591D01*
X169587419Y-129581845D01*
X169000000Y-129465000D01*
X156000000Y-129465000D01*
X155412581Y-129581845D01*
X154914591Y-129914591D01*
X148414591Y-136414591D01*
X148081845Y-136912581D01*
X147965000Y-137500000D01*
X147627000Y-137500000D01*
X147627000Y-123127000D01*
X237873000Y-123127000D01*
X237873000Y-170873000D01*
M02*
