G04 #@! TF.FileFunction,Copper,L2,Bot,Signal*
%FSLAX46Y46*%
G04 Gerber Fmt 4.6, Leading zero omitted, Abs format (unit mm)*
G04 Created by KiCad (PCBNEW 4.0.7-e1-6374~58~ubuntu14.04.1) date Mon Aug 21 22:32:21 2017*
%MOMM*%
%LPD*%
G01*
G04 APERTURE LIST*
%ADD10C,0.200000*%
%ADD11C,1.524000*%
%ADD12R,1.562100X1.562100*%
%ADD13C,1.562100*%
%ADD14R,1.524000X1.524000*%
%ADD15R,1.750000X1.750000*%
%ADD16C,1.750000*%
%ADD17R,1.574800X2.286000*%
%ADD18O,1.574800X2.286000*%
%ADD19R,2.286000X1.574800*%
%ADD20O,2.286000X1.574800*%
G04 APERTURE END LIST*
D10*
D11*
X157500000Y-152080000D03*
X157500000Y-141920000D03*
X163500000Y-152080000D03*
X163500000Y-141920000D03*
D12*
X212993000Y-160500000D03*
D13*
X205500000Y-160500000D03*
D12*
X208993000Y-141000000D03*
D13*
X201500000Y-141000000D03*
D11*
X160500000Y-141920000D03*
X160500000Y-152080000D03*
X163920000Y-134500000D03*
X174080000Y-134500000D03*
X172400000Y-152120000D03*
X172400000Y-162280000D03*
X176420000Y-137000000D03*
X186580000Y-137000000D03*
D12*
X224500000Y-151993000D03*
D13*
X224500000Y-144500000D03*
D14*
X230000000Y-128000000D03*
D11*
X235000000Y-128000000D03*
D14*
X227000000Y-164500000D03*
D11*
X222000000Y-164500000D03*
D14*
X207500000Y-128000000D03*
D11*
X202500000Y-128000000D03*
D14*
X153035000Y-155455000D03*
D11*
X153035000Y-150455000D03*
X153035000Y-145455000D03*
X153035000Y-140455000D03*
D14*
X177500000Y-166000000D03*
D11*
X172500000Y-166000000D03*
X167500000Y-166000000D03*
D15*
X183500000Y-161500000D03*
D16*
X188500000Y-161500000D03*
X193500000Y-161500000D03*
D15*
X183500000Y-142500000D03*
D16*
X188500000Y-142500000D03*
X193500000Y-142500000D03*
D15*
X183500000Y-152000000D03*
D16*
X188500000Y-152000000D03*
X193500000Y-152000000D03*
D17*
X177270000Y-152080000D03*
D18*
X174730000Y-152080000D03*
X174730000Y-141920000D03*
X177270000Y-141920000D03*
D19*
X157720000Y-160470000D03*
D20*
X157720000Y-157930000D03*
X167880000Y-157930000D03*
X167880000Y-160470000D03*
D17*
X169970000Y-151480000D03*
D18*
X167430000Y-151480000D03*
X167430000Y-141320000D03*
X169970000Y-141320000D03*
M02*
