<?xml version="1.0" standalone="no"?>
<!DOCTYPE svg PUBLIC "-//W3C//DTD SVG 1.1//EN"
"http://www.w3.org/Graphics/SVG/1.1/DTD/svg11.dtd">
<svg width="7141.86" height="4034.97" viewBox="0 0 7141.86 4034.97" version="1.1"
xmlns="http://www.w3.org/2000/svg"
xmlns:xlink="http://www.w3.org/1999/xlink">
<circle cx="789" cy="2745" r="32" style=""/>
<circle cx="789" cy="2545" r="32" style=""/>
<circle cx="795" cy="2297" r="32" style=""/>
<circle cx="1031" cy="2297" r="32" style=""/>
<circle cx="1267" cy="2297" r="32" style=""/>
<circle cx="1561" cy="2297" r="32" style=""/>
<circle cx="1761" cy="2297" r="32" style=""/>
<circle cx="1976" cy="2402" r="32" style=""/>
<circle cx="2151" cy="2297" r="32" style=""/>
<circle cx="2351" cy="2297" r="32" style=""/>
<circle cx="2842" cy="2290" r="32" style=""/>
<circle cx="3235" cy="2290" r="32" style=""/>
<circle cx="3629" cy="2290" r="32" style=""/>
<circle cx="3629" cy="3038" r="32" style=""/>
<circle cx="3235" cy="3038" r="32" style=""/>
<circle cx="2842" cy="3038" r="32" style=""/>
<circle cx="2370" cy="3392" r="32" style=""/>
<circle cx="1976" cy="3392" r="32" style=""/>
<circle cx="1976" cy="3202" r="32" style=""/>
<circle cx="1582" cy="3392" r="32" style=""/>
<circle cx="1589" cy="2745" r="32" style=""/>
<circle cx="1589" cy="2545" r="32" style=""/>
<circle cx="1561" cy="1497" r="32" style=""/>
<circle cx="1761" cy="1497" r="32" style=""/>
<circle cx="2151" cy="1497" r="32" style=""/>
<circle cx="2351" cy="1497" r="32" style=""/>
<circle cx="2284" cy="1110" r="32" style=""/>
<circle cx="2100" cy="913" r="32" style=""/>
<circle cx="1300" cy="913" r="32" style=""/>
<circle cx="1267" cy="1497" r="32" style=""/>
<circle cx="1031" cy="1497" r="32" style=""/>
<circle cx="795" cy="1497" r="32" style=""/>
<circle cx="444" cy="1382" r="32" style=""/>
<circle cx="444" cy="1775" r="32" style=""/>
<circle cx="444" cy="2169" r="32" style=""/>
<circle cx="444" cy="2562" r="32" style=""/>
<circle cx="2842" cy="1542" r="32" style=""/>
<circle cx="3235" cy="1542" r="32" style=""/>
<circle cx="3629" cy="1542" r="32" style=""/>
<circle cx="4259" cy="1424" r="32" style=""/>
<circle cx="4849" cy="1424" r="32" style=""/>
<circle cx="4731" cy="401" r="32" style=""/>
<circle cx="4338" cy="401" r="32" style=""/>
<circle cx="3084" cy="1110" r="32" style=""/>
<circle cx="4574" cy="2959" r="32" style=""/>
<circle cx="5164" cy="2959" r="32" style=""/>
<circle cx="5873" cy="3274" r="32" style=""/>
<circle cx="6266" cy="3274" r="32" style=""/>
<circle cx="6069" cy="2290" r="32" style=""/>
<circle cx="6069" cy="1700" r="32" style=""/>
<circle cx="6502" cy="401" r="32" style=""/>
<circle cx="6896" cy="401" r="32" style=""/>
</svg>
