<?xml version="1.0" standalone="no"?>
<!DOCTYPE svg PUBLIC "-//W3C//DTD SVG 1.1//EN"
"http://www.w3.org/Graphics/SVG/1.1/DTD/svg11.dtd">
<svg width="7125" height="3779" viewBox="0 0 7125 3779" version="1.1"
xmlns="http://www.w3.org/2000/svg"
xmlns:xlink="http://www.w3.org/1999/xlink">
<g fill-rule="evenodd"><path d="M 0,9 L 0,7 L 0,5 L 2,3 L 3,2 L 5,0 L 7,0 L 10,0 L 7114,0 L 7117,0 L 7119,0 L 7121,2 L 7122,3 L 7124,5 L 7124,7 L 7124,9 L 7124,3769 L 7124,3772 L 7123,3774 L 7120,3777 L 7118,3778 L 7114,3779 L 10,3779 L 7,3778 L 5,3778 L 3,3776 L 2,3775 L 0,3773 L 0,3771 L 0,3769 L 0,1789 L 0,9M 3559,3123 L 3599,3139 L 3643,3139 L 3683,3123 L 3713,3092 L 3730,3052 L 3730,3009 L 3713,2969 L 3683,2938 L 3643,2922 L 3599,2922 L 3559,2938 L 3529,2969 L 3512,3009 L 3512,3052 L 3529,3092 L 3559,3123M 3559,2375 L 3599,2392 L 3643,2392 L 3683,2375 L 3713,2344 L 3730,2304 L 3730,2261 L 3713,2221 L 3683,2190 L 3643,2174 L 3599,2174 L 3559,2190 L 3529,2221 L 3512,2261 L 3512,2304 L 3529,2344 L 3559,2375M 3559,1627 L 3599,1644 L 3643,1644 L 3683,1627 L 3713,1596 L 3730,1556 L 3730,1513 L 3713,1473 L 3683,1442 L 3643,1426 L 3599,1426 L 3559,1442 L 3529,1473 L 3512,1513 L 3512,1556 L 3529,1596 L 3559,1627M 1659,3328 L 1631,3300 L 1594,3285 L 1554,3285 L 1518,3300 L 1489,3328 L 1474,3365 L 1474,3405 L 1489,3441 L 1517,3470 L 1554,3485 L 1594,3485 L 1631,3470 L 1659,3442 L 1674,3405 L 1674,3365 L 1659,3328M 887,2309 L 887,2269 L 872,2232 L 844,2204 L 807,2189 L 767,2189 L 730,2204 L 702,2232 L 687,2269 L 687,2309 L 702,2346 L 730,2374 L 767,2389 L 807,2389 L 843,2374 L 872,2346 L 887,2309M 415,2261 L 455,2261 L 492,2246 L 520,2218 L 535,2181 L 535,2141 L 520,2104 L 492,2076 L 455,2061 L 415,2061 L 379,2076 L 351,2104 L 335,2141 L 335,2181 L 350,2218 L 379,2246 L 415,2261M 966,2374 L 1003,2389 L 1043,2389 L 1080,2374 L 1108,2346 L 1123,2309 L 1123,2269 L 1108,2232 L 1080,2204 L 1043,2189 L 1003,2189 L 966,2204 L 938,2232 L 923,2269 L 923,2309 L 938,2346 L 966,2374M 1202,2374 L 1239,2389 L 1279,2389 L 1316,2374 L 1344,2346 L 1359,2309 L 1359,2269 L 1344,2232 L 1316,2204 L 1279,2189 L 1239,2189 L 1203,2204 L 1174,2232 L 1159,2269 L 1159,2309 L 1174,2346 L 1202,2374M 2264,3309 L 2260,3326 L 2260,3444 L 2263,3460 L 2272,3473 L 2286,3482 L 2302,3486 L 2420,3486 L 2436,3483 L 2450,3474 L 2459,3461 L 2462,3444 L 2462,3326 L 2459,3310 L 2451,3296 L 2437,3287 L 2420,3284 L 2302,3284 L 2287,3287 L 2273,3296 L 2264,3309M 1883,3328 L 1868,3365 L 1868,3405 L 1883,3441 L 1911,3470 L 1948,3485 L 1988,3485 L 2024,3470 L 2052,3442 L 2068,3405 L 2068,3365 L 2053,3328 L 2024,3300 L 2019,3298 L 2018,3296 L 2017,3295 L 2016,3293 L 2015,3291 L 2015,3289 L 2016,3286 L 2017,3284 L 2018,3283 L 2019,3281 L 2024,3279 L 2052,3251 L 2068,3214 L 2068,3175 L 2053,3138 L 2024,3110 L 1988,3094 L 1948,3094 L 1911,3110 L 1883,3138 L 1868,3174 L 1868,3214 L 1883,3251 L 1911,3279 L 1916,3281 L 1918,3283 L 1919,3284 L 1920,3286 L 1920,3289 L 1920,3291 L 1920,3293 L 1919,3295 L 1918,3296 L 1916,3298 L 1911,3300 L 1883,3328M 3118,3052 L 3135,3092 L 3166,3123 L 3206,3139 L 3249,3139 L 3289,3123 L 3320,3092 L 3336,3052 L 3336,3009 L 3320,2969 L 3289,2938 L 3249,2922 L 3206,2922 L 3166,2938 L 3135,2969 L 3119,3009 L 3118,3052M 2724,3099 L 2727,3114 L 2736,3128 L 2749,3137 L 2766,3140 L 2902,3140 L 2917,3137 L 2931,3129 L 2940,3115 L 2944,3098 L 2944,2963 L 2941,2947 L 2932,2933 L 2919,2924 L 2902,2921 L 2766,2921 L 2750,2924 L 2736,2932 L 2727,2946 L 2724,2963 L 2724,3099M 2727,2366 L 2736,2380 L 2749,2389 L 2766,2393 L 2902,2393 L 2917,2390 L 2931,2381 L 2940,2367 L 2944,2351 L 2944,2215 L 2941,2199 L 2932,2185 L 2919,2176 L 2902,2173 L 2766,2173 L 2750,2176 L 2736,2185 L 2727,2198 L 2724,2215 L 2724,2351 L 2727,2366M 3166,2375 L 3206,2392 L 3249,2392 L 3289,2375 L 3320,2344 L 3336,2304 L 3336,2261 L 3320,2221 L 3289,2190 L 3249,2174 L 3206,2174 L 3166,2190 L 3135,2221 L 3119,2261 L 3118,2304 L 3135,2344 L 3166,2375M 1753,1622 L 1792,1614 L 1825,1592 L 1847,1559 L 1855,1519 L 1855,1459 L 1847,1419 L 1825,1386 L 1792,1364 L 1753,1357 L 1714,1364 L 1681,1386 L 1661,1416 L 1660,1417 L 1658,1419 L 1656,1420 L 1654,1420 L 1652,1420 L 1650,1420 L 1648,1419 L 1646,1417 L 1645,1416 L 1625,1386 L 1592,1364 L 1553,1357 L 1514,1364 L 1481,1386 L 1459,1419 L 1451,1459 L 1451,1519 L 1459,1559 L 1481,1592 L 1514,1614 L 1553,1622 L 1592,1614 L 1625,1592 L 1645,1562 L 1646,1561 L 1648,1559 L 1650,1558 L 1652,1558 L 1654,1558 L 1656,1558 L 1658,1559 L 1660,1561 L 1661,1562 L 1681,1592 L 1714,1614 L 1753,1622M 1207,961 L 1236,990 L 1272,1005 L 1312,1005 L 1349,990 L 1377,962 L 1392,925 L 1392,885 L 1377,848 L 1349,820 L 1312,805 L 1272,805 L 1236,820 L 1208,848 L 1192,885 L 1192,925 L 1207,961M 887,1509 L 887,1469 L 872,1432 L 844,1404 L 807,1389 L 767,1389 L 730,1404 L 702,1432 L 687,1469 L 687,1509 L 702,1546 L 730,1574 L 767,1589 L 807,1589 L 843,1574 L 872,1546 L 887,1509M 350,1430 L 379,1458 L 415,1474 L 455,1474 L 492,1459 L 520,1430 L 535,1394 L 535,1354 L 520,1317 L 492,1289 L 455,1274 L 415,1274 L 379,1289 L 351,1317 L 335,1354 L 335,1394 L 350,1430M 415,1867 L 455,1867 L 492,1852 L 520,1824 L 535,1787 L 535,1748 L 520,1711 L 492,1683 L 455,1667 L 415,1667 L 379,1683 L 351,1711 L 335,1747 L 335,1787 L 350,1824 L 379,1852 L 415,1867M 1344,1432 L 1316,1404 L 1279,1389 L 1239,1389 L 1203,1404 L 1174,1432 L 1159,1469 L 1159,1509 L 1174,1546 L 1202,1574 L 1239,1589 L 1279,1589 L 1316,1574 L 1344,1546 L 1359,1509 L 1359,1469 L 1344,1432M 1108,1432 L 1080,1404 L 1043,1389 L 1003,1389 L 966,1404 L 938,1432 L 923,1469 L 923,1509 L 938,1546 L 966,1574 L 1003,1589 L 1043,1589 L 1080,1574 L 1108,1546 L 1123,1509 L 1123,1469 L 1108,1432M 2007,961 L 2035,990 L 2072,1005 L 2112,1005 L 2149,990 L 2177,962 L 2192,925 L 2192,885 L 2177,848 L 2149,820 L 2112,805 L 2072,805 L 2036,820 L 2007,848 L 1992,885 L 1992,925 L 2007,961M 2437,1419 L 2415,1386 L 2382,1364 L 2343,1357 L 2304,1364 L 2271,1386 L 2252,1416 L 2250,1417 L 2248,1419 L 2246,1420 L 2244,1420 L 2242,1420 L 2240,1420 L 2238,1419 L 2236,1417 L 2235,1416 L 2215,1386 L 2182,1364 L 2143,1357 L 2104,1364 L 2071,1386 L 2049,1419 L 2041,1459 L 2041,1519 L 2049,1559 L 2071,1592 L 2104,1614 L 2143,1622 L 2182,1614 L 2215,1592 L 2235,1562 L 2236,1561 L 2238,1559 L 2240,1558 L 2242,1558 L 2244,1558 L 2246,1558 L 2248,1559 L 2250,1561 L 2252,1562 L 2271,1592 L 2304,1614 L 2343,1622 L 2382,1614 L 2415,1592 L 2437,1559 L 2445,1519 L 2445,1459 L 2437,1419M 2220,1186 L 2256,1202 L 2296,1202 L 2333,1187 L 2361,1158 L 2376,1122 L 2376,1082 L 2361,1045 L 2333,1017 L 2296,1002 L 2257,1002 L 2220,1017 L 2192,1045 L 2176,1082 L 2176,1122 L 2192,1158 L 2220,1186M 3249,1426 L 3206,1426 L 3166,1442 L 3135,1473 L 3119,1513 L 3118,1556 L 3135,1596 L 3166,1627 L 3206,1644 L 3249,1644 L 3289,1627 L 3320,1596 L 3336,1556 L 3336,1513 L 3320,1473 L 3289,1442 L 3249,1426M 2902,1425 L 2766,1425 L 2750,1428 L 2736,1437 L 2727,1450 L 2724,1467 L 2724,1603 L 2727,1618 L 2736,1632 L 2749,1641 L 2766,1645 L 2902,1645 L 2917,1642 L 2931,1633 L 2940,1619 L 2944,1603 L 2944,1467 L 2941,1451 L 2932,1437 L 2919,1428 L 2902,1425M 3096,1202 L 3133,1187 L 3161,1158 L 3176,1122 L 3176,1082 L 3161,1045 L 3133,1017 L 3096,1002 L 3056,1002 L 3020,1017 L 2992,1045 L 2976,1082 L 2976,1122 L 2991,1158 L 3020,1186 L 3056,1202 L 3096,1202M 4667,2972 L 4667,2932 L 4652,2894 L 4623,2866 L 4586,2850 L 4546,2850 L 4508,2866 L 4480,2894 L 4464,2932 L 4464,2972 L 4480,3009 L 4508,3038 L 4546,3053 L 4586,3053 L 4623,3038 L 4652,3009 L 4667,2972M 5095,3054 L 5216,3054 L 5232,3051 L 5246,3043 L 5255,3029 L 5258,3012 L 5258,2891 L 5255,2876 L 5246,2862 L 5233,2853 L 5216,2849 L 5095,2849 L 5079,2852 L 5066,2861 L 5057,2874 L 5053,2891 L 5053,3012 L 5056,3028 L 5065,3042 L 5078,3051 L 5095,3054M 6199,3368 L 6318,3368 L 6333,3365 L 6347,3356 L 6356,3343 L 6359,3326 L 6359,3208 L 6356,3192 L 6348,3178 L 6334,3169 L 6317,3166 L 6199,3166 L 6184,3169 L 6170,3178 L 6161,3191 L 6158,3208 L 6158,3326 L 6160,3342 L 6169,3355 L 6183,3364 L 6199,3368M 5780,3323 L 5808,3351 L 5845,3367 L 5885,3367 L 5921,3352 L 5950,3323 L 5965,3287 L 5965,3247 L 5950,3210 L 5922,3182 L 5885,3167 L 5845,3167 L 5808,3182 L 5780,3210 L 5765,3247 L 5765,3287 L 5780,3323M 5962,2358 L 5971,2372 L 5984,2381 L 6001,2385 L 6122,2385 L 6138,2382 L 6152,2373 L 6161,2359 L 6164,2343 L 6164,2222 L 6161,2206 L 6152,2192 L 6139,2183 L 6122,2180 L 6001,2180 L 5985,2183 L 5972,2191 L 5963,2205 L 5959,2222 L 5959,2343 L 5962,2358M 4352,1437 L 4352,1397 L 4337,1359 L 4308,1331 L 4271,1315 L 4231,1315 L 4193,1331 L 4165,1359 L 4149,1396 L 4149,1437 L 4165,1474 L 4193,1503 L 4231,1518 L 4271,1518 L 4308,1503 L 4337,1474 L 4352,1437M 4738,1477 L 4741,1493 L 4750,1507 L 4763,1516 L 4780,1519 L 4901,1519 L 4917,1516 L 4931,1507 L 4940,1494 L 4943,1477 L 4943,1356 L 4940,1340 L 4932,1327 L 4918,1318 L 4901,1314 L 4780,1314 L 4765,1317 L 4751,1326 L 4742,1339 L 4738,1356 L 4738,1477M 4273,478 L 4310,493 L 4349,493 L 4386,478 L 4414,450 L 4430,413 L 4430,373 L 4414,337 L 4386,308 L 4350,293 L 4310,293 L 4273,308 L 4245,336 L 4230,373 L 4230,413 L 4245,450 L 4273,478M 4821,469 L 4824,452 L 4824,334 L 4821,318 L 4812,305 L 4799,296 L 4782,292 L 4664,292 L 4649,295 L 4635,304 L 4626,317 L 4622,334 L 4622,452 L 4625,468 L 4634,482 L 4647,491 L 4664,494 L 4782,494 L 4798,491 L 4812,482 L 4821,469M 6163,1672 L 6148,1635 L 6119,1606 L 6082,1591 L 6042,1591 L 6004,1606 L 5976,1635 L 5960,1672 L 5960,1712 L 5976,1750 L 6004,1778 L 6041,1794 L 6082,1794 L 6119,1778 L 6148,1750 L 6163,1712 L 6163,1672M 6592,469 L 6596,452 L 6596,334 L 6593,318 L 6584,305 L 6571,296 L 6554,292 L 6436,292 L 6420,295 L 6406,304 L 6397,317 L 6394,334 L 6394,452 L 6397,468 L 6405,482 L 6419,491 L 6436,494 L 6554,494 L 6569,491 L 6583,482 L 6592,469M 6832,478 L 6868,493 L 6908,493 L 6945,478 L 6973,450 L 6988,413 L 6988,373 L 6973,337 L 6945,308 L 6908,293 L 6869,293 L 6832,308 L 6804,336 L 6788,373 L 6788,413 L 6803,450 L 6832,478M 1815,2309 L 1815,2379 L 1773,2379 L 1773,2412 L 1779,2419 L 1823,2419 L 1837,2413 L 1849,2401 L 1851,2399 L 1853,2397 L 1854,2396 L 1857,2396 L 1859,2396 L 1861,2396 L 1863,2397 L 1864,2398 L 1866,2400 L 1867,2402 L 1868,2404 L 1868,2406 L 1868,2414 L 1883,2451 L 1911,2479 L 1948,2494 L 1988,2494 L 2024,2479 L 2052,2451 L 2068,2414 L 2068,2408 L 2068,2406 L 2069,2404 L 2070,2402 L 2071,2400 L 2073,2399 L 2075,2398 L 2077,2398 L 2079,2398 L 2081,2399 L 2083,2400 L 2104,2414 L 2143,2421 L 2182,2414 L 2215,2392 L 2223,2380 L 2224,2379 L 2226,2377 L 2228,2376 L 2230,2376 L 2232,2376 L 2234,2376 L 2236,2377 L 2238,2378 L 2239,2380 L 2240,2382 L 2241,2384 L 2241,2387 L 2247,2402 L 2259,2413 L 2273,2419 L 2317,2419 L 2323,2412 L 2323,2379 L 2281,2379 L 2281,2199 L 2323,2199 L 2323,2166 L 2317,2159 L 2273,2159 L 2259,2165 L 2247,2176 L 2241,2191 L 2241,2194 L 2240,2196 L 2239,2198 L 2238,2200 L 2236,2201 L 2234,2202 L 2232,2202 L 2230,2202 L 2228,2202 L 2226,2201 L 2224,2199 L 2223,2198 L 2215,2186 L 2182,2164 L 2143,2156 L 2104,2164 L 2071,2186 L 2049,2219 L 2041,2259 L 2041,2302 L 2041,2305 L 2040,2307 L 2039,2308 L 2038,2310 L 2036,2311 L 2034,2312 L 2032,2312 L 2030,2312 L 2028,2312 L 2026,2311 L 2025,2310 L 1988,2294 L 1948,2294 L 1911,2310 L 1883,2338 L 1874,2359 L 1873,2361 L 1872,2363 L 1870,2364 L 1868,2365 L 1866,2365 L 1864,2366 L 1862,2365 L 1860,2364 L 1858,2363 L 1857,2361 L 1856,2360 L 1855,2358 L 1855,2356 L 1855,2316 L 1848,2309 L 1815,2309M 1815,2269 L 1848,2269 L 1855,2262 L 1855,2191 L 1849,2176 L 1837,2165 L 1823,2159 L 1779,2159 L 1773,2166 L 1773,2199 L 1815,2199 L 1815,2269M 870,2757 L 870,2799 L 800,2799 L 800,2832 L 807,2839 L 878,2839 L 893,2833 L 904,2822 L 910,2807 L 910,2764 L 904,2757 L 870,2757M 870,2717 L 904,2717 L 910,2710 L 910,2667 L 904,2652 L 893,2641 L 878,2635 L 875,2635 L 873,2634 L 871,2633 L 870,2632 L 869,2630 L 868,2628 L 867,2626 L 867,2624 L 868,2622 L 869,2620 L 870,2618 L 872,2617 L 883,2609 L 905,2576 L 913,2537 L 905,2498 L 883,2465 L 850,2443 L 810,2435 L 751,2435 L 711,2443 L 678,2465 L 656,2498 L 648,2537 L 656,2576 L 678,2609 L 689,2617 L 691,2618 L 692,2620 L 693,2622 L 694,2624 L 694,2626 L 693,2628 L 692,2630 L 691,2632 L 690,2633 L 688,2634 L 686,2635 L 683,2635 L 668,2641 L 657,2652 L 651,2667 L 651,2710 L 657,2717 L 691,2717 L 691,2675 L 870,2675 L 870,2717M 415,2615 L 375,2615 L 375,2575 L 342,2575 L 335,2581 L 335,2623 L 341,2637 L 353,2649 L 367,2655 L 409,2655 L 415,2648 L 415,2615M 415,2495 L 415,2461 L 409,2455 L 367,2455 L 353,2461 L 341,2472 L 335,2487 L 335,2528 L 342,2535 L 375,2535 L 375,2495 L 415,2495M 455,2615 L 455,2648 L 462,2655 L 503,2655 L 518,2649 L 529,2637 L 535,2623 L 535,2581 L 529,2575 L 495,2575 L 495,2615 L 455,2615M 691,2757 L 657,2757 L 651,2764 L 651,2807 L 657,2822 L 668,2833 L 683,2839 L 754,2839 L 761,2832 L 761,2799 L 691,2799 L 691,2757M 495,2535 L 529,2535 L 535,2528 L 535,2487 L 529,2472 L 518,2461 L 503,2455 L 462,2455 L 455,2461 L 455,2495 L 495,2495 L 495,2535M 1733,2379 L 1691,2379 L 1691,2199 L 1733,2199 L 1733,2166 L 1726,2159 L 1683,2159 L 1668,2165 L 1657,2176 L 1651,2191 L 1651,2194 L 1650,2196 L 1649,2198 L 1647,2200 L 1646,2201 L 1644,2202 L 1642,2202 L 1640,2202 L 1637,2202 L 1636,2201 L 1634,2199 L 1633,2198 L 1625,2186 L 1592,2164 L 1553,2156 L 1514,2164 L 1481,2186 L 1459,2219 L 1451,2259 L 1451,2319 L 1459,2359 L 1481,2392 L 1514,2414 L 1536,2418 L 1538,2419 L 1540,2420 L 1542,2421 L 1543,2423 L 1544,2425 L 1544,2427 L 1544,2429 L 1544,2431 L 1543,2433 L 1542,2435 L 1540,2436 L 1538,2437 L 1536,2438 L 1511,2443 L 1478,2465 L 1456,2498 L 1448,2537 L 1456,2576 L 1478,2609 L 1507,2629 L 1509,2630 L 1510,2632 L 1511,2634 L 1512,2636 L 1512,2638 L 1511,2640 L 1510,2642 L 1509,2644 L 1507,2645 L 1478,2665 L 1456,2698 L 1448,2737 L 1456,2776 L 1478,2809 L 1511,2831 L 1551,2839 L 1610,2839 L 1650,2831 L 1683,2809 L 1705,2776 L 1713,2737 L 1705,2698 L 1683,2665 L 1654,2645 L 1652,2644 L 1651,2642 L 1650,2640 L 1649,2638 L 1649,2636 L 1650,2634 L 1651,2632 L 1652,2630 L 1654,2629 L 1683,2609 L 1705,2576 L 1713,2537 L 1705,2498 L 1683,2465 L 1650,2443 L 1610,2435 L 1587,2435 L 1584,2435 L 1582,2434 L 1581,2433 L 1579,2432 L 1578,2430 L 1577,2428 L 1577,2426 L 1577,2424 L 1577,2422 L 1578,2420 L 1579,2418 L 1581,2417 L 1583,2416 L 1585,2415 L 1592,2414 L 1625,2392 L 1634,2379 L 1636,2377 L 1637,2376 L 1640,2376 L 1642,2376 L 1644,2376 L 1646,2377 L 1647,2378 L 1649,2380 L 1650,2382 L 1651,2384 L 1651,2387 L 1657,2402 L 1668,2413 L 1683,2419 L 1726,2419 L 1733,2412 L 1733,2379M 2363,2379 L 2363,2412 L 2370,2419 L 2413,2419 L 2428,2413 L 2439,2402 L 2445,2387 L 2445,2316 L 2439,2309 L 2405,2309 L 2405,2379 L 2363,2379M 2363,2199 L 2405,2199 L 2405,2269 L 2439,2269 L 2445,2262 L 2445,2191 L 2439,2176 L 2428,2165 L 2413,2159 L 2370,2159 L 2363,2166 L 2363,2199 z " style="fill-opacity:1.000000;fill:rgb(103,198,105);stroke:rgb(0,0,0);stroke-width:2"/></g>
<g fill-rule="evenodd"><path d="M 847,2289 L 845,2301 L 842,2313 L 835,2324 L 827,2334 L 817,2341 L 805,2346 L 793,2349 L 781,2349 L 768,2346 L 757,2341 L 747,2334 L 738,2324 L 732,2313 L 728,2301 L 727,2289 L 728,2276 L 732,2265 L 738,2254 L 747,2244 L 757,2237 L 768,2232 L 781,2229 L 793,2229 L 805,2232 L 817,2237 L 827,2244 L 835,2254 L 842,2265 L 845,2276 L 847,2289 z " style="fill-opacity:1.000000;fill:rgb(115,81,255);stroke:rgb(0,0,0);stroke-width:2"/></g>
<g fill-rule="evenodd"><path d="M 847,1489 L 845,1502 L 842,1513 L 835,1524 L 827,1534 L 817,1541 L 805,1546 L 793,1549 L 781,1549 L 768,1546 L 757,1541 L 747,1534 L 738,1524 L 732,1513 L 728,1502 L 727,1489 L 728,1477 L 732,1465 L 738,1454 L 747,1444 L 757,1437 L 768,1432 L 781,1429 L 793,1429 L 805,1432 L 817,1437 L 827,1444 L 835,1454 L 842,1465 L 845,1477 L 847,1489 z " style="fill-opacity:1.000000;fill:rgb(74,236,41);stroke:rgb(0,0,0);stroke-width:2"/></g>
<g fill-rule="evenodd"><path d="M 1319,2289 L 1318,2301 L 1314,2313 L 1308,2324 L 1299,2334 L 1289,2341 L 1278,2346 L 1265,2349 L 1253,2349 L 1241,2346 L 1229,2341 L 1219,2334 L 1211,2324 L 1204,2313 L 1200,2301 L 1199,2289 L 1200,2276 L 1204,2265 L 1211,2254 L 1219,2244 L 1229,2237 L 1241,2232 L 1253,2229 L 1265,2229 L 1278,2232 L 1289,2237 L 1299,2244 L 1308,2254 L 1314,2265 L 1318,2276 L 1319,2289 z " style="fill-opacity:1.000000;fill:rgb(205,186,171);stroke:rgb(0,0,0);stroke-width:2"/></g>
<g fill-rule="evenodd"><path d="M 1319,1489 L 1318,1502 L 1314,1513 L 1308,1524 L 1299,1534 L 1289,1541 L 1278,1546 L 1265,1549 L 1253,1549 L 1241,1546 L 1229,1541 L 1219,1534 L 1211,1524 L 1204,1513 L 1200,1502 L 1199,1489 L 1200,1477 L 1204,1465 L 1211,1454 L 1219,1444 L 1229,1437 L 1241,1432 L 1253,1429 L 1265,1429 L 1278,1432 L 1289,1437 L 1299,1444 L 1308,1454 L 1314,1465 L 1318,1477 L 1319,1489 z " style="fill-opacity:1.000000;fill:rgb(242,251,227);stroke:rgb(0,0,0);stroke-width:2"/></g>
<g fill-rule="evenodd"><path d="M 5094,3013 L 5094,2890 L 5217,2890 L 5217,3013 L 5094,3013 z " style="fill-opacity:1.000000;fill:rgb(70,124,194);stroke:rgb(0,0,0);stroke-width:2"/></g>
<g fill-rule="evenodd"><path d="M 4627,2952 L 4626,2965 L 4622,2977 L 4616,2988 L 4607,2998 L 4597,3005 L 4585,3010 L 4572,3013 L 4559,3013 L 4547,3010 L 4535,3005 L 4525,2998 L 4516,2988 L 4510,2977 L 4506,2965 L 4504,2952 L 4506,2939 L 4510,2927 L 4516,2916 L 4525,2906 L 4535,2899 L 4547,2893 L 4559,2891 L 4572,2891 L 4585,2893 L 4597,2899 L 4607,2906 L 4616,2916 L 4622,2927 L 4626,2939 L 4627,2952 z " style="fill-opacity:1.000000;fill:rgb(84,248,27);stroke:rgb(0,0,0);stroke-width:2"/></g>
<g fill-rule="evenodd"><path d="M 4779,1478 L 4779,1355 L 4902,1355 L 4902,1478 L 4779,1478 z " style="fill-opacity:1.000000;fill:rgb(232,231,141);stroke:rgb(0,0,0);stroke-width:2"/></g>
<g fill-rule="evenodd"><path d="M 4312,1417 L 4311,1429 L 4307,1442 L 4301,1453 L 4292,1462 L 4282,1470 L 4270,1475 L 4257,1478 L 4244,1478 L 4232,1475 L 4220,1470 L 4210,1462 L 4201,1453 L 4195,1442 L 4191,1429 L 4189,1417 L 4191,1404 L 4195,1392 L 4201,1380 L 4210,1371 L 4220,1363 L 4232,1358 L 4244,1355 L 4257,1355 L 4270,1358 L 4282,1363 L 4292,1371 L 4301,1380 L 4307,1392 L 4311,1404 L 4312,1417 z " style="fill-opacity:1.000000;fill:rgb(118,90,46);stroke:rgb(0,0,0);stroke-width:2"/></g>
<g fill-rule="evenodd"><path d="M 1083,1489 L 1082,1502 L 1078,1513 L 1072,1524 L 1063,1534 L 1053,1541 L 1042,1546 L 1029,1549 L 1017,1549 L 1004,1546 L 993,1541 L 983,1534 L 974,1524 L 968,1513 L 964,1502 L 963,1489 L 964,1477 L 968,1465 L 974,1454 L 983,1444 L 993,1437 L 1004,1432 L 1017,1429 L 1029,1429 L 1042,1432 L 1053,1437 L 1063,1444 L 1072,1454 L 1078,1465 L 1082,1477 L 1083,1489 z " style="fill-opacity:1.000000;fill:rgb(99,51,159);stroke:rgb(0,0,0);stroke-width:2"/></g>
<g fill-rule="evenodd"><path d="M 1083,2289 L 1082,2301 L 1078,2313 L 1072,2324 L 1063,2334 L 1053,2341 L 1042,2346 L 1029,2349 L 1017,2349 L 1004,2346 L 993,2341 L 983,2334 L 974,2324 L 968,2313 L 964,2301 L 963,2289 L 964,2276 L 968,2265 L 974,2254 L 983,2244 L 993,2237 L 1004,2232 L 1017,2229 L 1029,2229 L 1042,2232 L 1053,2237 L 1063,2244 L 1072,2254 L 1078,2265 L 1082,2276 L 1083,2289 z " style="fill-opacity:1.000000;fill:rgb(201,154,102);stroke:rgb(0,0,0);stroke-width:2"/></g>
<g fill-rule="evenodd"><path d="M 1352,905 L 1351,917 L 1347,929 L 1341,940 L 1332,949 L 1322,957 L 1311,962 L 1299,965 L 1286,965 L 1274,962 L 1262,957 L 1252,949 L 1244,940 L 1237,929 L 1234,917 L 1232,905 L 1234,892 L 1237,880 L 1244,870 L 1252,860 L 1262,853 L 1274,848 L 1286,845 L 1299,845 L 1311,848 L 1322,853 L 1332,860 L 1341,870 L 1347,880 L 1351,892 L 1352,905 z " style="fill-opacity:1.000000;fill:rgb(50,13,183);stroke:rgb(0,0,0);stroke-width:2"/></g>
<g fill-rule="evenodd"><path d="M 2152,905 L 2151,917 L 2147,929 L 2141,940 L 2132,949 L 2122,957 L 2111,962 L 2098,965 L 2086,965 L 2074,962 L 2062,957 L 2052,949 L 2044,940 L 2037,929 L 2033,917 L 2032,905 L 2033,892 L 2037,880 L 2044,870 L 2052,860 L 2062,853 L 2074,848 L 2086,845 L 2098,845 L 2111,848 L 2122,853 L 2132,860 L 2141,870 L 2147,880 L 2151,892 L 2152,905 z " style="fill-opacity:1.000000;fill:rgb(49,88,163);stroke:rgb(0,0,0);stroke-width:2"/></g>
<g fill-rule="evenodd"><path d="M 2028,2394 L 2026,2407 L 2023,2419 L 2016,2430 L 2008,2439 L 1998,2446 L 1986,2451 L 1974,2454 L 1961,2454 L 1949,2451 L 1938,2446 L 1928,2439 L 1919,2430 L 1913,2419 L 1909,2407 L 1908,2394 L 1909,2382 L 1913,2370 L 1919,2359 L 1928,2350 L 1938,2342 L 1949,2337 L 1961,2335 L 1974,2335 L 1986,2337 L 1998,2342 L 2008,2350 L 2016,2359 L 2023,2370 L 2026,2382 L 2028,2394 z " style="fill-opacity:1.000000;fill:rgb(90,37,93);stroke:rgb(0,0,0);stroke-width:2"/></g>
<g fill-rule="evenodd"><path d="M 2028,3194 L 2026,3207 L 2023,3219 L 2016,3230 L 2008,3239 L 1998,3246 L 1986,3251 L 1974,3254 L 1961,3254 L 1949,3251 L 1938,3246 L 1928,3239 L 1919,3230 L 1913,3219 L 1909,3207 L 1908,3194 L 1909,3182 L 1913,3170 L 1919,3159 L 1928,3150 L 1938,3142 L 1949,3137 L 1961,3135 L 1974,3135 L 1986,3137 L 1998,3142 L 2008,3150 L 2016,3159 L 2023,3170 L 2026,3182 L 2028,3194 z " style="fill-opacity:1.000000;fill:rgb(5,23,88);stroke:rgb(0,0,0);stroke-width:2"/></g>
<g fill-rule="evenodd"><path d="M 2336,1102 L 2335,1114 L 2331,1126 L 2325,1137 L 2316,1146 L 2306,1154 L 2295,1159 L 2283,1161 L 2270,1161 L 2258,1159 L 2246,1154 L 2236,1146 L 2228,1137 L 2222,1126 L 2218,1114 L 2216,1102 L 2218,1089 L 2222,1077 L 2228,1066 L 2236,1057 L 2246,1050 L 2258,1045 L 2270,1042 L 2283,1042 L 2295,1045 L 2306,1050 L 2316,1057 L 2325,1066 L 2331,1077 L 2335,1089 L 2336,1102 z " style="fill-opacity:1.000000;fill:rgb(233,94,212);stroke:rgb(0,0,0);stroke-width:2"/></g>
<g fill-rule="evenodd"><path d="M 3136,1102 L 3135,1114 L 3131,1126 L 3125,1137 L 3116,1146 L 3106,1154 L 3095,1159 L 3083,1161 L 3070,1161 L 3058,1159 L 3046,1154 L 3036,1146 L 3028,1137 L 3021,1126 L 3018,1114 L 3016,1102 L 3018,1089 L 3021,1077 L 3028,1066 L 3036,1057 L 3046,1050 L 3058,1045 L 3070,1042 L 3083,1042 L 3095,1045 L 3106,1050 L 3116,1057 L 3125,1066 L 3131,1077 L 3135,1089 L 3136,1102 z " style="fill-opacity:1.000000;fill:rgb(171,178,205);stroke:rgb(0,0,0);stroke-width:2"/></g>
<g fill-rule="evenodd"><path d="M 6000,2344 L 6000,2221 L 6123,2221 L 6123,2344 L 6000,2344 z " style="fill-opacity:1.000000;fill:rgb(198,155,180);stroke:rgb(0,0,0);stroke-width:2"/></g>
<g fill-rule="evenodd"><path d="M 6123,1692 L 6122,1705 L 6118,1717 L 6111,1728 L 6103,1738 L 6092,1745 L 6081,1751 L 6068,1753 L 6055,1753 L 6043,1751 L 6031,1745 L 6021,1738 L 6012,1728 L 6005,1717 L 6002,1705 L 6000,1692 L 6002,1679 L 6005,1667 L 6012,1656 L 6021,1646 L 6031,1639 L 6043,1634 L 6055,1631 L 6068,1631 L 6081,1634 L 6092,1639 L 6103,1646 L 6111,1656 L 6118,1667 L 6122,1679 L 6123,1692 z " style="fill-opacity:1.000000;fill:rgb(84,17,14);stroke:rgb(0,0,0);stroke-width:2"/></g>
<g fill-rule="evenodd"><path d="M 6435,453 L 6435,333 L 6555,333 L 6555,453 L 6435,453 z " style="fill-opacity:1.000000;fill:rgb(130,116,65);stroke:rgb(0,0,0);stroke-width:2"/></g>
<g fill-rule="evenodd"><path d="M 6948,393 L 6947,406 L 6943,418 L 6937,428 L 6928,438 L 6918,445 L 6907,450 L 6895,453 L 6882,453 L 6870,450 L 6858,445 L 6848,438 L 6840,428 L 6834,418 L 6830,406 L 6828,393 L 6830,381 L 6834,369 L 6840,358 L 6848,349 L 6858,341 L 6870,336 L 6882,333 L 6895,333 L 6907,336 L 6918,341 L 6928,349 L 6937,358 L 6943,369 L 6947,381 L 6948,393 z " style="fill-opacity:1.000000;fill:rgb(33,61,220);stroke:rgb(0,0,0);stroke-width:2"/></g>
<g fill-rule="evenodd"><path d="M 6198,3327 L 6198,3207 L 6318,3207 L 6318,3327 L 6198,3327 z " style="fill-opacity:1.000000;fill:rgb(135,112,233);stroke:rgb(0,0,0);stroke-width:2"/></g>
<g fill-rule="evenodd"><path d="M 5925,3267 L 5924,3279 L 5920,3291 L 5913,3302 L 5905,3311 L 5895,3319 L 5883,3324 L 5871,3326 L 5859,3326 L 5846,3324 L 5835,3319 L 5825,3311 L 5816,3302 L 5810,3291 L 5806,3279 L 5805,3267 L 5806,3254 L 5810,3242 L 5816,3231 L 5825,3222 L 5835,3215 L 5846,3210 L 5859,3207 L 5871,3207 L 5883,3210 L 5895,3215 L 5905,3222 L 5913,3231 L 5920,3242 L 5924,3254 L 5925,3267 z " style="fill-opacity:1.000000;fill:rgb(62,161,65);stroke:rgb(0,0,0);stroke-width:2"/></g>
<g fill-rule="evenodd"><path d="M 4663,453 L 4663,333 L 4783,333 L 4783,453 L 4663,453 z " style="fill-opacity:1.000000;fill:rgb(225,252,103);stroke:rgb(0,0,0);stroke-width:2"/></g>
<g fill-rule="evenodd"><path d="M 4390,393 L 4388,406 L 4384,418 L 4378,428 L 4370,438 L 4360,445 L 4348,450 L 4336,453 L 4323,453 L 4311,450 L 4300,445 L 4289,438 L 4281,428 L 4275,418 L 4271,406 L 4270,393 L 4271,381 L 4275,369 L 4281,358 L 4289,349 L 4300,341 L 4311,336 L 4323,333 L 4336,333 L 4348,336 L 4360,341 L 4370,349 L 4378,358 L 4384,369 L 4388,381 L 4390,393 z " style="fill-opacity:1.000000;fill:rgb(62,1,126);stroke:rgb(0,0,0);stroke-width:2"/></g>
<g fill-rule="evenodd"><path d="M 495,2161 L 494,2173 L 490,2185 L 484,2196 L 475,2206 L 465,2213 L 454,2218 L 442,2221 L 429,2221 L 417,2218 L 405,2213 L 395,2206 L 387,2196 L 380,2185 L 377,2173 L 375,2161 L 377,2149 L 380,2137 L 387,2126 L 395,2116 L 405,2109 L 417,2104 L 429,2101 L 442,2101 L 454,2104 L 465,2109 L 475,2116 L 484,2126 L 490,2137 L 494,2149 L 495,2161 z " style="fill-opacity:1.000000;fill:rgb(151,234,220);stroke:rgb(0,0,0);stroke-width:2"/></g>
<g fill-rule="evenodd"><path d="M 495,1767 L 494,1780 L 490,1792 L 484,1803 L 475,1812 L 465,1819 L 454,1824 L 442,1827 L 429,1827 L 417,1824 L 405,1819 L 395,1812 L 387,1803 L 380,1792 L 377,1780 L 375,1767 L 377,1755 L 380,1743 L 387,1732 L 395,1723 L 405,1715 L 417,1710 L 429,1708 L 442,1708 L 454,1710 L 465,1715 L 475,1723 L 484,1732 L 490,1743 L 494,1755 L 495,1767 z " style="fill-opacity:1.000000;fill:rgb(107,150,143);stroke:rgb(0,0,0);stroke-width:2"/></g>
<g fill-rule="evenodd"><path d="M 495,1374 L 494,1386 L 490,1398 L 484,1409 L 475,1418 L 465,1426 L 454,1431 L 442,1433 L 429,1433 L 417,1431 L 405,1426 L 395,1418 L 387,1409 L 380,1398 L 377,1386 L 375,1374 L 377,1361 L 380,1349 L 387,1338 L 395,1329 L 405,1322 L 417,1317 L 429,1314 L 442,1314 L 454,1317 L 465,1322 L 475,1329 L 484,1338 L 490,1349 L 494,1361 L 495,1374 z " style="fill-opacity:1.000000;fill:rgb(56,92,42);stroke:rgb(0,0,0);stroke-width:2"/></g>
<g fill-rule="evenodd"><path d="M 2301,3445 L 2301,3325 L 2421,3325 L 2421,3445 L 2301,3445 z " style="fill-opacity:1.000000;fill:rgb(236,176,59);stroke:rgb(0,0,0);stroke-width:2"/></g>
<g fill-rule="evenodd"><path d="M 2028,3385 L 2026,3397 L 2023,3409 L 2016,3420 L 2008,3429 L 1998,3437 L 1986,3442 L 1974,3445 L 1961,3445 L 1949,3442 L 1938,3437 L 1928,3429 L 1919,3420 L 1913,3409 L 1909,3397 L 1908,3385 L 1909,3372 L 1913,3360 L 1919,3350 L 1928,3340 L 1938,3333 L 1949,3328 L 1961,3325 L 1974,3325 L 1986,3328 L 1998,3333 L 2008,3340 L 2016,3350 L 2023,3360 L 2026,3372 L 2028,3385 z " style="fill-opacity:1.000000;fill:rgb(251,50,175);stroke:rgb(0,0,0);stroke-width:2"/></g>
<g fill-rule="evenodd"><path d="M 1634,3385 L 1633,3397 L 1629,3409 L 1623,3420 L 1614,3429 L 1604,3437 L 1593,3442 L 1580,3445 L 1568,3445 L 1556,3442 L 1544,3437 L 1534,3429 L 1526,3420 L 1519,3409 L 1515,3397 L 1514,3385 L 1515,3372 L 1519,3360 L 1526,3350 L 1534,3340 L 1544,3333 L 1556,3328 L 1568,3325 L 1580,3325 L 1593,3328 L 1604,3333 L 1614,3340 L 1623,3350 L 1629,3360 L 1633,3372 L 1634,3385 z " style="fill-opacity:1.000000;fill:rgb(60,84,236);stroke:rgb(0,0,0);stroke-width:2"/></g>
<g fill-rule="evenodd"><path d="M 2765,3099 L 2765,2962 L 2903,2962 L 2903,3099 L 2765,3099 z " style="fill-opacity:1.000000;fill:rgb(24,219,92);stroke:rgb(0,0,0);stroke-width:2"/></g>
<g fill-rule="evenodd"><path d="M 3296,3031 L 3295,3045 L 3290,3059 L 3283,3071 L 3273,3082 L 3262,3090 L 3249,3096 L 3235,3099 L 3220,3099 L 3206,3096 L 3193,3090 L 3181,3082 L 3172,3071 L 3164,3059 L 3160,3045 L 3159,3031 L 3160,3016 L 3164,3003 L 3172,2990 L 3181,2979 L 3193,2971 L 3206,2965 L 3220,2962 L 3235,2962 L 3249,2965 L 3262,2971 L 3273,2979 L 3283,2990 L 3290,3003 L 3295,3016 L 3296,3031 z " style="fill-opacity:1.000000;fill:rgb(2,26,254);stroke:rgb(0,0,0);stroke-width:2"/></g>
<g fill-rule="evenodd"><path d="M 3690,3031 L 3688,3045 L 3684,3059 L 3677,3071 L 3667,3082 L 3655,3090 L 3642,3096 L 3628,3099 L 3614,3099 L 3600,3096 L 3587,3090 L 3575,3082 L 3565,3071 L 3558,3059 L 3554,3045 L 3552,3031 L 3554,3016 L 3558,3003 L 3565,2990 L 3575,2979 L 3587,2971 L 3600,2965 L 3614,2962 L 3628,2962 L 3642,2965 L 3655,2971 L 3667,2979 L 3677,2990 L 3684,3003 L 3688,3016 L 3690,3031 z " style="fill-opacity:1.000000;fill:rgb(67,251,250);stroke:rgb(0,0,0);stroke-width:2"/></g>
<g fill-rule="evenodd"><path d="M 2765,1604 L 2765,1466 L 2903,1466 L 2903,1604 L 2765,1604 z " style="fill-opacity:1.000000;fill:rgb(170,58,251);stroke:rgb(0,0,0);stroke-width:2"/></g>
<g fill-rule="evenodd"><path d="M 3296,1535 L 3295,1549 L 3290,1563 L 3283,1575 L 3273,1586 L 3262,1594 L 3249,1600 L 3235,1603 L 3220,1603 L 3206,1600 L 3193,1594 L 3181,1586 L 3172,1575 L 3164,1563 L 3160,1549 L 3159,1535 L 3160,1520 L 3164,1507 L 3172,1494 L 3181,1484 L 3193,1475 L 3206,1469 L 3220,1466 L 3235,1466 L 3249,1469 L 3262,1475 L 3273,1484 L 3283,1494 L 3290,1507 L 3295,1520 L 3296,1535 z " style="fill-opacity:1.000000;fill:rgb(41,209,230);stroke:rgb(0,0,0);stroke-width:2"/></g>
<g fill-rule="evenodd"><path d="M 3690,1535 L 3688,1549 L 3684,1563 L 3677,1575 L 3667,1586 L 3655,1594 L 3642,1600 L 3628,1603 L 3614,1603 L 3600,1600 L 3587,1594 L 3575,1586 L 3565,1575 L 3558,1563 L 3554,1549 L 3552,1535 L 3554,1520 L 3558,1507 L 3565,1494 L 3575,1484 L 3587,1475 L 3600,1469 L 3614,1466 L 3628,1466 L 3642,1469 L 3655,1475 L 3667,1484 L 3677,1494 L 3684,1507 L 3688,1520 L 3690,1535 z " style="fill-opacity:1.000000;fill:rgb(5,60,124);stroke:rgb(0,0,0);stroke-width:2"/></g>
<g fill-rule="evenodd"><path d="M 2765,2352 L 2765,2214 L 2903,2214 L 2903,2352 L 2765,2352 z " style="fill-opacity:1.000000;fill:rgb(148,117,216);stroke:rgb(0,0,0);stroke-width:2"/></g>
<g fill-rule="evenodd"><path d="M 3296,2283 L 3295,2297 L 3290,2311 L 3283,2323 L 3273,2334 L 3262,2342 L 3249,2348 L 3235,2351 L 3220,2351 L 3206,2348 L 3193,2342 L 3181,2334 L 3172,2323 L 3164,2311 L 3160,2297 L 3159,2283 L 3160,2268 L 3164,2255 L 3172,2242 L 3181,2231 L 3193,2223 L 3206,2217 L 3220,2214 L 3235,2214 L 3249,2217 L 3262,2223 L 3273,2231 L 3283,2242 L 3290,2255 L 3295,2268 L 3296,2283 z " style="fill-opacity:1.000000;fill:rgb(190,97,137);stroke:rgb(0,0,0);stroke-width:2"/></g>
<g fill-rule="evenodd"><path d="M 3690,2283 L 3688,2297 L 3684,2311 L 3677,2323 L 3667,2334 L 3655,2342 L 3642,2348 L 3628,2351 L 3614,2351 L 3600,2348 L 3587,2342 L 3575,2334 L 3565,2323 L 3558,2311 L 3554,2297 L 3552,2283 L 3554,2268 L 3558,2255 L 3565,2242 L 3575,2231 L 3587,2223 L 3600,2217 L 3614,2214 L 3628,2214 L 3642,2217 L 3655,2223 L 3667,2231 L 3677,2242 L 3684,2255 L 3688,2268 L 3690,2283 z " style="fill-opacity:1.000000;fill:rgb(249,92,187);stroke:rgb(0,0,0);stroke-width:2"/></g>
<g fill-rule="evenodd"><path d="M 2205,2317 L 2204,2329 L 2200,2341 L 2194,2352 L 2186,2362 L 2176,2370 L 2165,2375 L 2153,2378 L 2140,2379 L 2128,2377 L 2116,2373 L 2105,2366 L 2096,2357 L 2089,2347 L 2084,2335 L 2082,2323 L 2081,2261 L 2083,2248 L 2086,2237 L 2092,2226 L 2101,2216 L 2111,2208 L 2122,2203 L 2134,2200 L 2146,2199 L 2159,2201 L 2171,2205 L 2181,2212 L 2190,2221 L 2198,2231 L 2202,2242 L 2205,2255 L 2205,2317 z " style="fill-opacity:1.000000;fill:rgb(168,153,15);stroke:rgb(0,0,0);stroke-width:2"/></g>
<g fill-rule="evenodd"><path d="M 2205,1517 L 2204,1530 L 2200,1541 L 2194,1552 L 2186,1562 L 2176,1570 L 2165,1575 L 2153,1578 L 2140,1579 L 2128,1577 L 2116,1573 L 2105,1566 L 2096,1557 L 2089,1547 L 2084,1536 L 2082,1523 L 2081,1461 L 2083,1449 L 2086,1437 L 2092,1426 L 2101,1416 L 2111,1408 L 2122,1403 L 2134,1400 L 2146,1399 L 2159,1401 L 2171,1405 L 2181,1412 L 2190,1421 L 2198,1431 L 2202,1443 L 2205,1455 L 2205,1517 z " style="fill-opacity:1.000000;fill:rgb(149,177,235);stroke:rgb(0,0,0);stroke-width:2"/></g>
<g fill-rule="evenodd"><path d="M 2405,1517 L 2404,1530 L 2400,1541 L 2394,1552 L 2386,1562 L 2376,1570 L 2365,1575 L 2353,1578 L 2340,1579 L 2328,1577 L 2316,1573 L 2305,1566 L 2296,1557 L 2289,1547 L 2284,1536 L 2282,1523 L 2281,1461 L 2283,1449 L 2286,1437 L 2292,1426 L 2301,1416 L 2310,1408 L 2322,1403 L 2334,1400 L 2346,1399 L 2359,1401 L 2371,1405 L 2381,1412 L 2390,1421 L 2397,1431 L 2402,1443 L 2405,1455 L 2405,1517 z " style="fill-opacity:1.000000;fill:rgb(241,179,5);stroke:rgb(0,0,0);stroke-width:2"/></g>
<g fill-rule="evenodd"><path d="M 753,2599 L 740,2598 L 728,2594 L 717,2588 L 708,2580 L 700,2570 L 694,2558 L 691,2546 L 691,2534 L 692,2521 L 697,2510 L 703,2499 L 712,2490 L 722,2483 L 734,2478 L 746,2475 L 808,2475 L 821,2476 L 833,2480 L 844,2486 L 853,2494 L 861,2504 L 867,2515 L 870,2528 L 870,2540 L 869,2552 L 864,2564 L 858,2575 L 849,2584 L 839,2591 L 827,2596 L 815,2599 L 753,2599 z " style="fill-opacity:1.000000;fill:rgb(239,247,0);stroke:rgb(0,0,0);stroke-width:2"/></g>
<g fill-rule="evenodd"><path d="M 1552,2599 L 1540,2598 L 1528,2594 L 1517,2588 L 1507,2580 L 1500,2570 L 1494,2558 L 1491,2546 L 1490,2534 L 1492,2521 L 1497,2510 L 1503,2499 L 1512,2490 L 1522,2483 L 1534,2478 L 1546,2475 L 1608,2475 L 1621,2476 L 1633,2480 L 1644,2486 L 1653,2494 L 1661,2504 L 1667,2515 L 1670,2528 L 1670,2540 L 1668,2552 L 1664,2564 L 1657,2575 L 1649,2584 L 1638,2591 L 1627,2596 L 1615,2599 L 1552,2599 z " style="fill-opacity:1.000000;fill:rgb(233,161,58);stroke:rgb(0,0,0);stroke-width:2"/></g>
<g fill-rule="evenodd"><path d="M 1552,2799 L 1540,2798 L 1528,2794 L 1517,2788 L 1507,2780 L 1500,2770 L 1494,2758 L 1491,2746 L 1490,2734 L 1492,2721 L 1497,2710 L 1503,2699 L 1512,2690 L 1522,2683 L 1534,2678 L 1546,2675 L 1608,2675 L 1621,2676 L 1633,2680 L 1644,2686 L 1653,2694 L 1661,2704 L 1667,2715 L 1670,2728 L 1670,2740 L 1668,2752 L 1664,2764 L 1657,2775 L 1649,2784 L 1638,2791 L 1627,2796 L 1615,2799 L 1552,2799 z " style="fill-opacity:1.000000;fill:rgb(229,202,11);stroke:rgb(0,0,0);stroke-width:2"/></g>
<g fill-rule="evenodd"><path d="M 1615,2317 L 1614,2329 L 1610,2341 L 1604,2352 L 1596,2362 L 1586,2370 L 1574,2375 L 1562,2378 L 1550,2379 L 1537,2377 L 1526,2373 L 1515,2366 L 1506,2357 L 1499,2347 L 1494,2335 L 1491,2323 L 1491,2261 L 1492,2248 L 1496,2237 L 1502,2226 L 1510,2216 L 1520,2208 L 1531,2203 L 1543,2200 L 1556,2199 L 1568,2201 L 1580,2205 L 1591,2212 L 1600,2221 L 1607,2231 L 1612,2242 L 1615,2255 L 1615,2317 z " style="fill-opacity:1.000000;fill:rgb(203,208,72);stroke:rgb(0,0,0);stroke-width:2"/></g>
<g fill-rule="evenodd"><path d="M 1615,1517 L 1614,1530 L 1610,1541 L 1604,1552 L 1596,1562 L 1586,1570 L 1574,1575 L 1562,1578 L 1550,1579 L 1537,1577 L 1526,1573 L 1515,1566 L 1506,1557 L 1499,1547 L 1494,1536 L 1491,1523 L 1491,1461 L 1492,1449 L 1496,1437 L 1502,1426 L 1510,1416 L 1520,1408 L 1531,1403 L 1543,1400 L 1556,1399 L 1568,1401 L 1580,1405 L 1591,1412 L 1600,1421 L 1607,1431 L 1612,1443 L 1615,1455 L 1615,1517 z " style="fill-opacity:1.000000;fill:rgb(71,100,189);stroke:rgb(0,0,0);stroke-width:2"/></g>
<g fill-rule="evenodd"><path d="M 1815,1517 L 1814,1530 L 1810,1541 L 1804,1552 L 1796,1562 L 1786,1570 L 1774,1575 L 1762,1578 L 1750,1579 L 1737,1577 L 1726,1573 L 1715,1566 L 1706,1557 L 1699,1547 L 1694,1536 L 1691,1523 L 1691,1461 L 1692,1449 L 1696,1437 L 1702,1426 L 1710,1416 L 1720,1408 L 1731,1403 L 1743,1400 L 1756,1399 L 1768,1401 L 1780,1405 L 1791,1412 L 1800,1421 L 1807,1431 L 1812,1443 L 1814,1455 L 1815,1517 z " style="fill-opacity:1.000000;fill:rgb(31,35,30);stroke:rgb(0,0,0);stroke-width:2"/></g>
</svg>
