<?xml version="1.0" standalone="no"?>
<!DOCTYPE svg PUBLIC "-//W3C//DTD SVG 1.1//EN"
"http://www.w3.org/Graphics/SVG/1.1/DTD/svg11.dtd">
<svg width="7141" height="4034" viewBox="0 0 7141 4034" version="1.1"
xmlns="http://www.w3.org/2000/svg"
xmlns:xlink="http://www.w3.org/1999/xlink">
<g fill-rule="evenodd"><path d="M 863,2297 L 861,2310 L 861,2312 L 857,2324 L 857,2325 L 850,2336 L 849,2337 L 841,2347 L 840,2348 L 830,2355 L 828,2356 L 817,2361 L 815,2361 L 803,2364 L 801,2364 L 789,2364 L 787,2364 L 775,2361 L 773,2361 L 762,2356 L 760,2355 L 750,2348 L 749,2347 L 741,2337 L 740,2336 L 733,2325 L 733,2324 L 729,2312 L 728,2310 L 727,2297 L 727,2296 L 728,2283 L 729,2282 L 733,2270 L 733,2268 L 740,2257 L 741,2256 L 749,2247 L 750,2246 L 760,2238 L 762,2238 L 773,2232 L 775,2232 L 787,2229 L 789,2229 L 801,2229 L 803,2229 L 815,2232 L 817,2232 L 828,2238 L 830,2238 L 840,2246 L 841,2247 L 849,2256 L 850,2257 L 857,2268 L 857,2270 L 861,2282 L 861,2283 L 863,2296 L 863,2297 z " style="fill-opacity:1.000000;fill:rgb(103,198,105);stroke:rgb(0,0,0);stroke-width:2"/></g>
<g fill-rule="evenodd"><path d="M 863,1498 L 861,1510 L 861,1512 L 857,1524 L 857,1525 L 850,1536 L 849,1537 L 841,1547 L 840,1548 L 830,1555 L 828,1556 L 817,1561 L 815,1562 L 803,1564 L 801,1564 L 789,1564 L 787,1564 L 775,1562 L 773,1561 L 762,1556 L 760,1555 L 750,1548 L 749,1547 L 741,1537 L 740,1536 L 733,1525 L 733,1524 L 729,1512 L 728,1510 L 727,1498 L 727,1496 L 728,1484 L 729,1482 L 733,1470 L 733,1468 L 740,1458 L 741,1456 L 749,1447 L 750,1446 L 760,1439 L 762,1438 L 773,1433 L 775,1432 L 787,1429 L 789,1429 L 801,1429 L 803,1429 L 815,1432 L 817,1433 L 828,1438 L 830,1439 L 840,1446 L 841,1447 L 849,1456 L 850,1458 L 857,1468 L 857,1470 L 861,1482 L 861,1484 L 863,1496 L 863,1498 z " style="fill-opacity:1.000000;fill:rgb(115,81,255);stroke:rgb(0,0,0);stroke-width:2"/></g>
<g fill-rule="evenodd"><path d="M 1335,2297 L 1334,2310 L 1333,2312 L 1330,2324 L 1329,2325 L 1323,2336 L 1322,2337 L 1313,2347 L 1312,2348 L 1302,2355 L 1301,2356 L 1289,2361 L 1287,2361 L 1275,2364 L 1274,2364 L 1261,2364 L 1259,2364 L 1247,2361 L 1246,2361 L 1234,2356 L 1233,2355 L 1223,2348 L 1221,2347 L 1213,2337 L 1212,2336 L 1206,2325 L 1205,2324 L 1201,2312 L 1201,2310 L 1199,2297 L 1199,2296 L 1201,2283 L 1201,2282 L 1205,2270 L 1206,2268 L 1212,2257 L 1213,2256 L 1221,2247 L 1223,2246 L 1233,2238 L 1234,2238 L 1246,2232 L 1247,2232 L 1259,2229 L 1261,2229 L 1274,2229 L 1275,2229 L 1287,2232 L 1289,2232 L 1301,2238 L 1302,2238 L 1312,2246 L 1313,2247 L 1322,2256 L 1323,2257 L 1329,2268 L 1330,2270 L 1333,2282 L 1334,2283 L 1335,2296 L 1335,2297 z " style="fill-opacity:1.000000;fill:rgb(74,236,41);stroke:rgb(0,0,0);stroke-width:2"/></g>
<g fill-rule="evenodd"><path d="M 1335,1498 L 1334,1510 L 1333,1512 L 1330,1524 L 1329,1525 L 1323,1536 L 1322,1537 L 1313,1547 L 1312,1548 L 1302,1555 L 1301,1556 L 1289,1561 L 1287,1562 L 1275,1564 L 1274,1564 L 1261,1564 L 1259,1564 L 1247,1562 L 1246,1561 L 1234,1556 L 1233,1555 L 1223,1548 L 1221,1547 L 1213,1537 L 1212,1536 L 1206,1525 L 1205,1524 L 1201,1512 L 1201,1510 L 1199,1498 L 1199,1496 L 1201,1484 L 1201,1482 L 1205,1470 L 1206,1468 L 1212,1458 L 1213,1456 L 1221,1447 L 1223,1446 L 1233,1439 L 1234,1438 L 1246,1433 L 1247,1432 L 1259,1429 L 1261,1429 L 1274,1429 L 1275,1429 L 1287,1432 L 1289,1433 L 1301,1438 L 1302,1439 L 1312,1446 L 1313,1447 L 1322,1456 L 1323,1458 L 1329,1468 L 1330,1470 L 1333,1482 L 1334,1484 L 1335,1496 L 1335,1498 z " style="fill-opacity:1.000000;fill:rgb(205,186,171);stroke:rgb(0,0,0);stroke-width:2"/></g>
<g fill-rule="evenodd"><path d="M 5094,3021 L 5094,2898 L 5094,2896 L 5095,2895 L 5096,2893 L 5097,2892 L 5099,2891 L 5100,2890 L 5102,2890 L 5225,2890 L 5227,2890 L 5229,2891 L 5230,2892 L 5231,2893 L 5232,2895 L 5233,2896 L 5233,2898 L 5233,3021 L 5233,3023 L 5232,3024 L 5231,3026 L 5230,3027 L 5229,3028 L 5227,3029 L 5225,3029 L 5102,3029 L 5100,3029 L 5099,3028 L 5097,3027 L 5096,3026 L 5095,3024 L 5094,3023 L 5094,3021 z " style="fill-opacity:1.000000;fill:rgb(242,251,227);stroke:rgb(0,0,0);stroke-width:2"/></g>
<g fill-rule="evenodd"><path d="M 4643,2960 L 4642,2973 L 4641,2975 L 4637,2987 L 4637,2988 L 4630,3000 L 4629,3001 L 4621,3010 L 4620,3012 L 4609,3019 L 4608,3020 L 4596,3025 L 4594,3026 L 4582,3028 L 4580,3029 L 4567,3029 L 4566,3028 L 4553,3026 L 4552,3025 L 4540,3020 L 4538,3019 L 4528,3012 L 4527,3010 L 4518,3001 L 4517,3000 L 4511,2988 L 4510,2987 L 4506,2975 L 4506,2973 L 4504,2960 L 4504,2959 L 4506,2946 L 4506,2944 L 4510,2932 L 4511,2931 L 4517,2919 L 4518,2918 L 4527,2909 L 4528,2907 L 4538,2900 L 4540,2899 L 4552,2894 L 4553,2893 L 4566,2891 L 4567,2891 L 4580,2891 L 4582,2891 L 4594,2893 L 4596,2894 L 4608,2899 L 4609,2900 L 4620,2907 L 4621,2909 L 4629,2918 L 4630,2919 L 4637,2931 L 4637,2932 L 4641,2944 L 4642,2946 L 4643,2959 L 4643,2960 z " style="fill-opacity:1.000000;fill:rgb(70,124,194);stroke:rgb(0,0,0);stroke-width:2"/></g>
<g fill-rule="evenodd"><path d="M 4779,1486 L 4779,1363 L 4780,1361 L 4780,1360 L 4781,1358 L 4782,1357 L 4784,1356 L 4785,1355 L 4787,1355 L 4910,1355 L 4912,1355 L 4914,1356 L 4915,1357 L 4916,1358 L 4917,1360 L 4918,1361 L 4918,1363 L 4918,1486 L 4918,1488 L 4917,1489 L 4916,1491 L 4915,1492 L 4914,1493 L 4912,1494 L 4910,1494 L 4787,1494 L 4785,1494 L 4784,1493 L 4782,1492 L 4781,1491 L 4780,1489 L 4780,1488 L 4779,1486 z " style="fill-opacity:1.000000;fill:rgb(84,248,27);stroke:rgb(0,0,0);stroke-width:2"/></g>
<g fill-rule="evenodd"><path d="M 4328,1425 L 4327,1438 L 4326,1440 L 4322,1452 L 4322,1453 L 4315,1464 L 4314,1466 L 4306,1475 L 4305,1476 L 4294,1484 L 4293,1485 L 4281,1490 L 4279,1491 L 4267,1493 L 4265,1493 L 4252,1493 L 4251,1493 L 4238,1491 L 4237,1490 L 4225,1485 L 4223,1484 L 4213,1476 L 4212,1475 L 4203,1466 L 4202,1464 L 4196,1453 L 4195,1452 L 4191,1440 L 4191,1438 L 4190,1425 L 4190,1424 L 4191,1411 L 4191,1409 L 4195,1397 L 4196,1395 L 4202,1384 L 4203,1383 L 4212,1373 L 4213,1372 L 4223,1365 L 4225,1364 L 4237,1359 L 4238,1358 L 4251,1356 L 4252,1355 L 4265,1355 L 4267,1356 L 4279,1358 L 4281,1359 L 4293,1364 L 4294,1365 L 4305,1372 L 4306,1373 L 4314,1383 L 4315,1384 L 4322,1395 L 4322,1397 L 4326,1409 L 4327,1411 L 4328,1424 L 4328,1425 z " style="fill-opacity:1.000000;fill:rgb(232,231,141);stroke:rgb(0,0,0);stroke-width:2"/></g>
<g fill-rule="evenodd"><path d="M 1099,1498 L 1098,1510 L 1097,1512 L 1093,1524 L 1093,1525 L 1086,1536 L 1086,1537 L 1077,1547 L 1076,1548 L 1066,1555 L 1064,1556 L 1053,1561 L 1051,1562 L 1039,1564 L 1037,1564 L 1025,1564 L 1023,1564 L 1011,1562 L 1009,1561 L 998,1556 L 997,1555 L 986,1548 L 985,1547 L 977,1537 L 976,1536 L 970,1525 L 969,1524 L 965,1512 L 965,1510 L 963,1498 L 963,1496 L 965,1484 L 965,1482 L 969,1470 L 970,1468 L 976,1458 L 977,1456 L 985,1447 L 986,1446 L 997,1439 L 998,1438 L 1009,1433 L 1011,1432 L 1023,1429 L 1025,1429 L 1037,1429 L 1039,1429 L 1051,1432 L 1053,1433 L 1064,1438 L 1066,1439 L 1076,1446 L 1077,1447 L 1086,1456 L 1086,1458 L 1093,1468 L 1093,1470 L 1097,1482 L 1098,1484 L 1099,1496 L 1099,1498 z " style="fill-opacity:1.000000;fill:rgb(118,90,46);stroke:rgb(0,0,0);stroke-width:2"/></g>
<g fill-rule="evenodd"><path d="M 1099,2297 L 1098,2310 L 1097,2312 L 1093,2324 L 1093,2325 L 1086,2336 L 1086,2337 L 1077,2347 L 1076,2348 L 1066,2355 L 1064,2356 L 1053,2361 L 1051,2361 L 1039,2364 L 1037,2364 L 1025,2364 L 1023,2364 L 1011,2361 L 1009,2361 L 998,2356 L 997,2355 L 986,2348 L 985,2347 L 977,2337 L 976,2336 L 970,2325 L 969,2324 L 965,2312 L 965,2310 L 963,2297 L 963,2296 L 965,2283 L 965,2282 L 969,2270 L 970,2268 L 976,2257 L 977,2256 L 985,2247 L 986,2246 L 997,2238 L 998,2238 L 1009,2232 L 1011,2232 L 1023,2229 L 1025,2229 L 1037,2229 L 1039,2229 L 1051,2232 L 1053,2232 L 1064,2238 L 1066,2238 L 1076,2246 L 1077,2247 L 1086,2256 L 1086,2257 L 1093,2268 L 1093,2270 L 1097,2282 L 1098,2283 L 1099,2296 L 1099,2297 z " style="fill-opacity:1.000000;fill:rgb(99,51,159);stroke:rgb(0,0,0);stroke-width:2"/></g>
<g fill-rule="evenodd"><path d="M 1368,914 L 1367,926 L 1367,928 L 1363,940 L 1362,941 L 1356,952 L 1355,953 L 1346,963 L 1345,964 L 1335,971 L 1334,972 L 1322,977 L 1321,977 L 1308,980 L 1307,980 L 1294,980 L 1292,980 L 1280,977 L 1279,977 L 1267,972 L 1266,971 L 1256,964 L 1254,963 L 1246,953 L 1245,952 L 1239,941 L 1238,940 L 1234,928 L 1234,926 L 1233,914 L 1233,912 L 1234,899 L 1234,898 L 1238,886 L 1239,884 L 1245,874 L 1246,872 L 1254,863 L 1256,862 L 1266,854 L 1267,854 L 1279,848 L 1280,848 L 1292,845 L 1294,845 L 1307,845 L 1308,845 L 1321,848 L 1322,848 L 1334,854 L 1335,854 L 1345,862 L 1346,863 L 1355,872 L 1356,874 L 1362,884 L 1363,886 L 1367,898 L 1367,899 L 1368,912 L 1368,914 z " style="fill-opacity:1.000000;fill:rgb(201,154,102);stroke:rgb(0,0,0);stroke-width:2"/></g>
<g fill-rule="evenodd"><path d="M 2168,914 L 2167,926 L 2166,928 L 2163,940 L 2162,941 L 2156,952 L 2155,953 L 2146,963 L 2145,964 L 2135,971 L 2133,972 L 2122,977 L 2120,977 L 2108,980 L 2106,980 L 2094,980 L 2092,980 L 2080,977 L 2078,977 L 2067,972 L 2066,971 L 2055,964 L 2054,963 L 2046,953 L 2045,952 L 2039,941 L 2038,940 L 2034,928 L 2034,926 L 2032,914 L 2032,912 L 2034,899 L 2034,898 L 2038,886 L 2039,884 L 2045,874 L 2046,872 L 2054,863 L 2055,862 L 2066,854 L 2067,854 L 2078,848 L 2080,848 L 2092,845 L 2094,845 L 2106,845 L 2108,845 L 2120,848 L 2122,848 L 2133,854 L 2135,854 L 2145,862 L 2146,863 L 2155,872 L 2156,874 L 2162,884 L 2163,886 L 2166,898 L 2167,899 L 2168,912 L 2168,914 z " style="fill-opacity:1.000000;fill:rgb(50,13,183);stroke:rgb(0,0,0);stroke-width:2"/></g>
<g fill-rule="evenodd"><path d="M 2044,2403 L 2042,2415 L 2042,2417 L 2038,2429 L 2037,2430 L 2031,2441 L 2030,2443 L 2022,2452 L 2021,2453 L 2010,2460 L 2009,2461 L 1998,2466 L 1996,2467 L 1984,2470 L 1982,2470 L 1970,2470 L 1968,2470 L 1956,2467 L 1954,2466 L 1943,2461 L 1941,2460 L 1931,2453 L 1930,2452 L 1921,2443 L 1920,2441 L 1914,2430 L 1914,2429 L 1910,2417 L 1909,2415 L 1908,2403 L 1908,2401 L 1909,2389 L 1910,2387 L 1914,2375 L 1914,2374 L 1920,2363 L 1921,2362 L 1930,2352 L 1931,2351 L 1941,2344 L 1943,2343 L 1954,2338 L 1956,2337 L 1968,2335 L 1970,2335 L 1982,2335 L 1984,2335 L 1996,2337 L 1998,2338 L 2009,2343 L 2010,2344 L 2021,2351 L 2022,2352 L 2030,2362 L 2031,2363 L 2037,2374 L 2038,2375 L 2042,2387 L 2042,2389 L 2044,2401 L 2044,2403 z " style="fill-opacity:1.000000;fill:rgb(49,88,163);stroke:rgb(0,0,0);stroke-width:2"/></g>
<g fill-rule="evenodd"><path d="M 2044,3203 L 2042,3215 L 2042,3217 L 2038,3229 L 2037,3230 L 2031,3241 L 2030,3243 L 2022,3252 L 2021,3253 L 2010,3260 L 2009,3261 L 1998,3266 L 1996,3267 L 1984,3269 L 1982,3270 L 1970,3270 L 1968,3269 L 1956,3267 L 1954,3266 L 1943,3261 L 1941,3260 L 1931,3253 L 1930,3252 L 1921,3243 L 1920,3241 L 1914,3230 L 1914,3229 L 1910,3217 L 1909,3215 L 1908,3203 L 1908,3201 L 1909,3189 L 1910,3187 L 1914,3175 L 1914,3174 L 1920,3163 L 1921,3161 L 1930,3152 L 1931,3151 L 1941,3144 L 1943,3143 L 1954,3138 L 1956,3137 L 1968,3135 L 1970,3134 L 1982,3134 L 1984,3135 L 1996,3137 L 1998,3138 L 2009,3143 L 2010,3144 L 2021,3151 L 2022,3152 L 2030,3161 L 2031,3163 L 2037,3174 L 2038,3175 L 2042,3187 L 2042,3189 L 2044,3201 L 2044,3203 z " style="fill-opacity:1.000000;fill:rgb(90,37,93);stroke:rgb(0,0,0);stroke-width:2"/></g>
<g fill-rule="evenodd"><path d="M 2352,1110 L 2351,1123 L 2351,1124 L 2347,1136 L 2346,1138 L 2340,1149 L 2339,1150 L 2330,1159 L 2329,1160 L 2319,1168 L 2318,1169 L 2306,1174 L 2305,1174 L 2292,1177 L 2291,1177 L 2278,1177 L 2277,1177 L 2264,1174 L 2263,1174 L 2251,1169 L 2250,1168 L 2240,1160 L 2238,1159 L 2230,1150 L 2229,1149 L 2223,1138 L 2222,1136 L 2218,1124 L 2218,1123 L 2217,1110 L 2217,1109 L 2218,1096 L 2218,1095 L 2222,1083 L 2223,1081 L 2229,1070 L 2230,1069 L 2238,1060 L 2240,1059 L 2250,1051 L 2251,1050 L 2263,1045 L 2264,1045 L 2277,1042 L 2278,1042 L 2291,1042 L 2292,1042 L 2305,1045 L 2306,1045 L 2318,1050 L 2319,1051 L 2329,1059 L 2330,1060 L 2339,1069 L 2340,1070 L 2346,1081 L 2347,1083 L 2351,1095 L 2351,1096 L 2352,1109 L 2352,1110 z " style="fill-opacity:1.000000;fill:rgb(5,23,88);stroke:rgb(0,0,0);stroke-width:2"/></g>
<g fill-rule="evenodd"><path d="M 3152,1110 L 3151,1123 L 3150,1124 L 3147,1136 L 3146,1138 L 3140,1149 L 3139,1150 L 3130,1159 L 3129,1160 L 3119,1168 L 3117,1169 L 3106,1174 L 3104,1174 L 3092,1177 L 3091,1177 L 3078,1177 L 3076,1177 L 3064,1174 L 3063,1174 L 3051,1169 L 3050,1168 L 3040,1160 L 3038,1159 L 3030,1150 L 3029,1149 L 3023,1138 L 3022,1136 L 3018,1124 L 3018,1123 L 3016,1110 L 3016,1109 L 3018,1096 L 3018,1095 L 3022,1083 L 3023,1081 L 3029,1070 L 3030,1069 L 3038,1060 L 3040,1059 L 3050,1051 L 3051,1050 L 3063,1045 L 3064,1045 L 3076,1042 L 3078,1042 L 3091,1042 L 3092,1042 L 3104,1045 L 3106,1045 L 3117,1050 L 3119,1051 L 3129,1059 L 3130,1060 L 3139,1069 L 3140,1070 L 3146,1081 L 3147,1083 L 3150,1095 L 3151,1096 L 3152,1109 L 3152,1110 z " style="fill-opacity:1.000000;fill:rgb(233,94,212);stroke:rgb(0,0,0);stroke-width:2"/></g>
<g fill-rule="evenodd"><path d="M 6000,2351 L 6000,2228 L 6000,2227 L 6001,2225 L 6002,2223 L 6003,2222 L 6005,2221 L 6006,2221 L 6008,2220 L 6131,2220 L 6133,2221 L 6134,2221 L 6136,2222 L 6137,2223 L 6138,2225 L 6139,2227 L 6139,2228 L 6139,2351 L 6139,2353 L 6138,2355 L 6137,2356 L 6136,2357 L 6134,2358 L 6133,2359 L 6131,2359 L 6008,2359 L 6006,2359 L 6005,2358 L 6003,2357 L 6002,2356 L 6001,2355 L 6000,2353 L 6000,2351 z " style="fill-opacity:1.000000;fill:rgb(171,178,205);stroke:rgb(0,0,0);stroke-width:2"/></g>
<g fill-rule="evenodd"><path d="M 6139,1701 L 6137,1714 L 6137,1715 L 6133,1727 L 6132,1729 L 6126,1740 L 6125,1741 L 6116,1751 L 6115,1752 L 6105,1760 L 6103,1760 L 6092,1766 L 6090,1766 L 6078,1769 L 6076,1769 L 6063,1769 L 6061,1769 L 6049,1766 L 6047,1766 L 6036,1760 L 6034,1760 L 6024,1752 L 6022,1751 L 6014,1741 L 6013,1740 L 6007,1729 L 6006,1727 L 6002,1715 L 6002,1714 L 6000,1701 L 6000,1699 L 6002,1686 L 6002,1685 L 6006,1672 L 6007,1671 L 6013,1660 L 6014,1659 L 6022,1649 L 6024,1648 L 6034,1640 L 6036,1640 L 6047,1634 L 6049,1634 L 6061,1631 L 6063,1631 L 6076,1631 L 6078,1631 L 6090,1634 L 6092,1634 L 6103,1640 L 6105,1640 L 6115,1648 L 6116,1649 L 6125,1659 L 6126,1660 L 6132,1671 L 6133,1672 L 6137,1685 L 6137,1686 L 6139,1699 L 6139,1701 z " style="fill-opacity:1.000000;fill:rgb(198,155,180);stroke:rgb(0,0,0);stroke-width:2"/></g>
<g fill-rule="evenodd"><path d="M 6435,461 L 6435,341 L 6435,339 L 6435,338 L 6436,336 L 6438,335 L 6439,334 L 6441,333 L 6442,333 L 6562,333 L 6564,333 L 6566,334 L 6567,335 L 6569,336 L 6570,338 L 6570,339 L 6570,341 L 6570,461 L 6570,463 L 6570,464 L 6569,466 L 6567,467 L 6566,468 L 6564,469 L 6562,469 L 6442,469 L 6441,469 L 6439,468 L 6438,467 L 6436,466 L 6435,464 L 6435,463 L 6435,461 z " style="fill-opacity:1.000000;fill:rgb(84,17,14);stroke:rgb(0,0,0);stroke-width:2"/></g>
<g fill-rule="evenodd"><path d="M 6964,402 L 6963,414 L 6962,416 L 6958,428 L 6958,429 L 6951,440 L 6950,442 L 6942,451 L 6941,452 L 6931,459 L 6929,460 L 6918,465 L 6916,466 L 6904,468 L 6902,469 L 6890,469 L 6888,468 L 6876,466 L 6874,465 L 6863,460 L 6861,459 L 6851,452 L 6850,451 L 6842,442 L 6841,440 L 6834,429 L 6834,428 L 6830,416 L 6830,414 L 6828,402 L 6828,400 L 6830,388 L 6830,386 L 6834,374 L 6834,373 L 6841,362 L 6842,360 L 6850,351 L 6851,350 L 6861,343 L 6863,342 L 6874,337 L 6876,336 L 6888,334 L 6890,333 L 6902,333 L 6904,334 L 6916,336 L 6918,337 L 6929,342 L 6931,343 L 6941,350 L 6942,351 L 6950,360 L 6951,362 L 6958,373 L 6958,374 L 6962,386 L 6963,388 L 6964,400 L 6964,402 z " style="fill-opacity:1.000000;fill:rgb(130,116,65);stroke:rgb(0,0,0);stroke-width:2"/></g>
<g fill-rule="evenodd"><path d="M 6198,3334 L 6198,3214 L 6199,3213 L 6199,3211 L 6200,3210 L 6201,3208 L 6203,3207 L 6205,3207 L 6206,3207 L 6326,3207 L 6328,3207 L 6330,3207 L 6331,3208 L 6332,3210 L 6333,3211 L 6334,3213 L 6334,3214 L 6334,3334 L 6334,3336 L 6333,3338 L 6332,3339 L 6331,3341 L 6330,3342 L 6328,3342 L 6326,3342 L 6206,3342 L 6205,3342 L 6203,3342 L 6201,3341 L 6200,3339 L 6199,3338 L 6199,3336 L 6198,3334 z " style="fill-opacity:1.000000;fill:rgb(33,61,220);stroke:rgb(0,0,0);stroke-width:2"/></g>
<g fill-rule="evenodd"><path d="M 5940,3275 L 5939,3288 L 5939,3289 L 5935,3301 L 5934,3303 L 5928,3314 L 5927,3315 L 5919,3324 L 5917,3325 L 5907,3333 L 5906,3334 L 5894,3339 L 5893,3339 L 5881,3342 L 5879,3342 L 5866,3342 L 5865,3342 L 5853,3339 L 5851,3339 L 5839,3334 L 5838,3333 L 5828,3325 L 5827,3324 L 5818,3315 L 5817,3314 L 5811,3303 L 5810,3301 L 5807,3289 L 5806,3288 L 5805,3275 L 5805,3274 L 5806,3261 L 5807,3260 L 5810,3248 L 5811,3246 L 5817,3235 L 5818,3234 L 5827,3225 L 5828,3223 L 5838,3216 L 5839,3215 L 5851,3210 L 5853,3210 L 5865,3207 L 5866,3207 L 5879,3207 L 5881,3207 L 5893,3210 L 5894,3210 L 5906,3215 L 5907,3216 L 5917,3223 L 5919,3225 L 5927,3234 L 5928,3235 L 5934,3246 L 5935,3248 L 5939,3260 L 5939,3261 L 5940,3274 L 5940,3275 z " style="fill-opacity:1.000000;fill:rgb(135,112,233);stroke:rgb(0,0,0);stroke-width:2"/></g>
<g fill-rule="evenodd"><path d="M 4663,461 L 4663,341 L 4664,339 L 4664,338 L 4665,336 L 4666,335 L 4668,334 L 4669,333 L 4671,333 L 4791,333 L 4793,333 L 4795,334 L 4796,335 L 4797,336 L 4798,338 L 4799,339 L 4799,341 L 4799,461 L 4799,463 L 4798,464 L 4797,466 L 4796,467 L 4795,468 L 4793,469 L 4791,469 L 4671,469 L 4669,469 L 4668,468 L 4666,467 L 4665,466 L 4664,464 L 4664,463 L 4663,461 z " style="fill-opacity:1.000000;fill:rgb(62,161,65);stroke:rgb(0,0,0);stroke-width:2"/></g>
<g fill-rule="evenodd"><path d="M 4405,402 L 4404,414 L 4404,416 L 4400,428 L 4399,429 L 4393,440 L 4392,442 L 4384,451 L 4382,452 L 4372,459 L 4371,460 L 4359,465 L 4358,466 L 4345,468 L 4344,469 L 4331,469 L 4330,468 L 4317,466 L 4316,465 L 4304,460 L 4303,459 L 4293,452 L 4292,451 L 4283,442 L 4282,440 L 4276,429 L 4275,428 L 4271,416 L 4271,414 L 4270,402 L 4270,400 L 4271,388 L 4271,386 L 4275,374 L 4276,373 L 4282,362 L 4283,360 L 4292,351 L 4293,350 L 4303,343 L 4304,342 L 4316,337 L 4317,336 L 4330,334 L 4331,333 L 4344,333 L 4345,334 L 4358,336 L 4359,337 L 4371,342 L 4372,343 L 4382,350 L 4384,351 L 4392,360 L 4393,362 L 4399,373 L 4400,374 L 4404,386 L 4404,388 L 4405,400 L 4405,402 z " style="fill-opacity:1.000000;fill:rgb(225,252,103);stroke:rgb(0,0,0);stroke-width:2"/></g>
<g fill-rule="evenodd"><path d="M 511,2170 L 510,2182 L 510,2184 L 506,2196 L 505,2197 L 499,2208 L 498,2209 L 489,2219 L 488,2220 L 478,2227 L 477,2228 L 465,2233 L 464,2233 L 451,2236 L 450,2236 L 437,2236 L 436,2236 L 423,2233 L 422,2233 L 410,2228 L 409,2227 L 399,2220 L 397,2219 L 389,2209 L 388,2208 L 382,2197 L 381,2196 L 377,2184 L 377,2182 L 376,2170 L 376,2168 L 377,2155 L 377,2154 L 381,2142 L 382,2140 L 388,2130 L 389,2128 L 397,2119 L 399,2118 L 409,2110 L 410,2110 L 422,2105 L 423,2104 L 436,2101 L 437,2101 L 450,2101 L 451,2101 L 464,2104 L 465,2105 L 477,2110 L 478,2110 L 488,2118 L 489,2119 L 498,2128 L 499,2130 L 505,2140 L 506,2142 L 510,2154 L 510,2155 L 511,2168 L 511,2170 z " style="fill-opacity:1.000000;fill:rgb(62,1,126);stroke:rgb(0,0,0);stroke-width:2"/></g>
<g fill-rule="evenodd"><path d="M 511,1776 L 510,1788 L 510,1790 L 506,1802 L 505,1803 L 499,1814 L 498,1816 L 489,1825 L 488,1826 L 478,1833 L 477,1834 L 465,1839 L 464,1840 L 451,1842 L 450,1843 L 437,1843 L 436,1842 L 423,1840 L 422,1839 L 410,1834 L 409,1833 L 399,1826 L 397,1825 L 389,1816 L 388,1814 L 382,1803 L 381,1802 L 377,1790 L 377,1788 L 376,1776 L 376,1774 L 377,1762 L 377,1760 L 381,1748 L 382,1747 L 388,1736 L 389,1735 L 397,1725 L 399,1724 L 409,1717 L 410,1716 L 422,1711 L 423,1710 L 436,1708 L 437,1708 L 450,1708 L 451,1708 L 464,1710 L 465,1711 L 477,1716 L 478,1717 L 488,1724 L 489,1725 L 498,1735 L 499,1736 L 505,1747 L 506,1748 L 510,1760 L 510,1762 L 511,1774 L 511,1776 z " style="fill-opacity:1.000000;fill:rgb(151,234,220);stroke:rgb(0,0,0);stroke-width:2"/></g>
<g fill-rule="evenodd"><path d="M 511,1382 L 510,1395 L 510,1396 L 506,1408 L 505,1410 L 499,1421 L 498,1422 L 489,1431 L 488,1432 L 478,1440 L 477,1441 L 465,1446 L 464,1446 L 451,1449 L 450,1449 L 437,1449 L 436,1449 L 423,1446 L 422,1446 L 410,1441 L 409,1440 L 399,1432 L 397,1431 L 389,1422 L 388,1421 L 382,1410 L 381,1408 L 377,1396 L 377,1395 L 376,1382 L 376,1381 L 377,1368 L 377,1367 L 381,1355 L 382,1353 L 388,1342 L 389,1341 L 397,1332 L 399,1331 L 409,1323 L 410,1322 L 422,1317 L 423,1317 L 436,1314 L 437,1314 L 450,1314 L 451,1314 L 464,1317 L 465,1317 L 477,1322 L 478,1323 L 488,1331 L 489,1332 L 498,1341 L 499,1342 L 505,1353 L 506,1355 L 510,1367 L 510,1368 L 511,1381 L 511,1382 z " style="fill-opacity:1.000000;fill:rgb(107,150,143);stroke:rgb(0,0,0);stroke-width:2"/></g>
<g fill-rule="evenodd"><path d="M 2302,3453 L 2302,3333 L 2302,3331 L 2302,3329 L 2303,3328 L 2305,3326 L 2306,3325 L 2308,3325 L 2309,3325 L 2429,3325 L 2431,3325 L 2433,3325 L 2434,3326 L 2436,3328 L 2437,3329 L 2437,3331 L 2437,3333 L 2437,3453 L 2437,3454 L 2437,3456 L 2436,3457 L 2434,3459 L 2433,3460 L 2431,3460 L 2429,3460 L 2309,3460 L 2308,3460 L 2306,3460 L 2305,3459 L 2303,3457 L 2302,3456 L 2302,3454 L 2302,3453 z " style="fill-opacity:1.000000;fill:rgb(56,92,42);stroke:rgb(0,0,0);stroke-width:2"/></g>
<g fill-rule="evenodd"><path d="M 2044,3393 L 2042,3406 L 2042,3407 L 2038,3419 L 2037,3421 L 2031,3432 L 2030,3433 L 2022,3442 L 2021,3443 L 2010,3451 L 2009,3452 L 1998,3457 L 1996,3457 L 1984,3460 L 1982,3460 L 1970,3460 L 1968,3460 L 1956,3457 L 1954,3457 L 1943,3452 L 1941,3451 L 1931,3443 L 1930,3442 L 1921,3433 L 1920,3432 L 1914,3421 L 1914,3419 L 1910,3407 L 1909,3406 L 1908,3393 L 1908,3392 L 1909,3379 L 1910,3378 L 1914,3366 L 1914,3364 L 1920,3353 L 1921,3352 L 1930,3343 L 1931,3342 L 1941,3334 L 1943,3333 L 1954,3328 L 1956,3328 L 1968,3325 L 1970,3325 L 1982,3325 L 1984,3325 L 1996,3328 L 1998,3328 L 2009,3333 L 2010,3334 L 2021,3342 L 2022,3343 L 2030,3352 L 2031,3353 L 2037,3364 L 2038,3366 L 2042,3378 L 2042,3379 L 2044,3392 L 2044,3393 z " style="fill-opacity:1.000000;fill:rgb(236,176,59);stroke:rgb(0,0,0);stroke-width:2"/></g>
<g fill-rule="evenodd"><path d="M 1650,3393 L 1649,3406 L 1648,3407 L 1645,3419 L 1644,3421 L 1638,3432 L 1637,3433 L 1628,3442 L 1627,3443 L 1617,3451 L 1615,3452 L 1604,3457 L 1602,3457 L 1590,3460 L 1588,3460 L 1576,3460 L 1574,3460 L 1562,3457 L 1560,3457 L 1549,3452 L 1548,3451 L 1537,3443 L 1536,3442 L 1528,3433 L 1527,3432 L 1521,3421 L 1520,3419 L 1516,3407 L 1516,3406 L 1514,3393 L 1514,3392 L 1516,3379 L 1516,3378 L 1520,3366 L 1521,3364 L 1527,3353 L 1528,3352 L 1536,3343 L 1537,3342 L 1548,3334 L 1549,3333 L 1560,3328 L 1562,3328 L 1574,3325 L 1576,3325 L 1588,3325 L 1590,3325 L 1602,3328 L 1604,3328 L 1615,3333 L 1617,3334 L 1627,3342 L 1628,3343 L 1637,3352 L 1638,3353 L 1644,3364 L 1645,3366 L 1648,3378 L 1649,3379 L 1650,3392 L 1650,3393 z " style="fill-opacity:1.000000;fill:rgb(251,50,175);stroke:rgb(0,0,0);stroke-width:2"/></g>
<g fill-rule="evenodd"><path d="M 2765,3107 L 2765,2969 L 2765,2968 L 2766,2966 L 2767,2964 L 2768,2963 L 2770,2962 L 2771,2962 L 2773,2961 L 2911,2961 L 2912,2962 L 2914,2962 L 2916,2963 L 2917,2964 L 2918,2966 L 2918,2968 L 2919,2969 L 2919,3107 L 2918,3109 L 2918,3111 L 2917,3112 L 2916,3113 L 2914,3114 L 2912,3115 L 2911,3115 L 2773,3115 L 2771,3115 L 2770,3114 L 2768,3113 L 2767,3112 L 2766,3111 L 2765,3109 L 2765,3107 z " style="fill-opacity:1.000000;fill:rgb(60,84,236);stroke:rgb(0,0,0);stroke-width:2"/></g>
<g fill-rule="evenodd"><path d="M 3312,3039 L 3311,3053 L 3310,3055 L 3306,3069 L 3305,3070 L 3298,3083 L 3297,3084 L 3287,3095 L 3286,3096 L 3274,3104 L 3273,3105 L 3260,3111 L 3258,3111 L 3244,3114 L 3243,3115 L 3228,3115 L 3227,3114 L 3212,3111 L 3211,3111 L 3198,3105 L 3196,3104 L 3185,3096 L 3183,3095 L 3174,3084 L 3173,3083 L 3166,3070 L 3165,3069 L 3161,3055 L 3160,3053 L 3159,3039 L 3159,3037 L 3160,3023 L 3161,3021 L 3165,3008 L 3166,3006 L 3173,2994 L 3174,2992 L 3183,2982 L 3185,2981 L 3196,2972 L 3198,2971 L 3211,2966 L 3212,2965 L 3227,2962 L 3228,2962 L 3243,2962 L 3244,2962 L 3258,2965 L 3260,2966 L 3273,2971 L 3274,2972 L 3286,2981 L 3287,2982 L 3297,2992 L 3298,2994 L 3305,3006 L 3306,3008 L 3310,3021 L 3311,3023 L 3312,3037 L 3312,3039 z " style="fill-opacity:1.000000;fill:rgb(24,219,92);stroke:rgb(0,0,0);stroke-width:2"/></g>
<g fill-rule="evenodd"><path d="M 3706,3039 L 3704,3053 L 3704,3055 L 3699,3069 L 3699,3070 L 3692,3083 L 3691,3084 L 3681,3095 L 3680,3096 L 3668,3104 L 3667,3105 L 3654,3111 L 3652,3111 L 3638,3114 L 3636,3115 L 3622,3115 L 3620,3114 L 3606,3111 L 3605,3111 L 3591,3105 L 3590,3104 L 3578,3096 L 3577,3095 L 3567,3084 L 3566,3083 L 3559,3070 L 3559,3069 L 3554,3055 L 3554,3053 L 3552,3039 L 3552,3037 L 3554,3023 L 3554,3021 L 3559,3008 L 3559,3006 L 3566,2994 L 3567,2992 L 3577,2982 L 3578,2981 L 3590,2972 L 3591,2971 L 3605,2966 L 3606,2965 L 3620,2962 L 3622,2962 L 3636,2962 L 3638,2962 L 3652,2965 L 3654,2966 L 3667,2971 L 3668,2972 L 3680,2981 L 3681,2982 L 3691,2992 L 3692,2994 L 3699,3006 L 3699,3008 L 3704,3021 L 3704,3023 L 3706,3037 L 3706,3039 z " style="fill-opacity:1.000000;fill:rgb(2,26,254);stroke:rgb(0,0,0);stroke-width:2"/></g>
<g fill-rule="evenodd"><path d="M 2765,1611 L 2765,1474 L 2765,1472 L 2766,1470 L 2767,1469 L 2768,1467 L 2770,1467 L 2771,1466 L 2773,1466 L 2911,1466 L 2912,1466 L 2914,1467 L 2916,1467 L 2917,1469 L 2918,1470 L 2918,1472 L 2919,1474 L 2919,1611 L 2918,1613 L 2918,1615 L 2917,1616 L 2916,1618 L 2914,1618 L 2912,1619 L 2911,1619 L 2773,1619 L 2771,1619 L 2770,1618 L 2768,1618 L 2767,1616 L 2766,1615 L 2765,1613 L 2765,1611 z " style="fill-opacity:1.000000;fill:rgb(67,251,250);stroke:rgb(0,0,0);stroke-width:2"/></g>
<g fill-rule="evenodd"><path d="M 3312,1543 L 3311,1558 L 3310,1559 L 3306,1573 L 3305,1574 L 3298,1587 L 3297,1588 L 3287,1599 L 3286,1600 L 3274,1609 L 3273,1609 L 3260,1615 L 3258,1616 L 3244,1619 L 3243,1619 L 3228,1619 L 3227,1619 L 3212,1616 L 3211,1615 L 3198,1609 L 3196,1609 L 3185,1600 L 3183,1599 L 3174,1588 L 3173,1587 L 3166,1574 L 3165,1573 L 3161,1559 L 3160,1558 L 3159,1543 L 3159,1542 L 3160,1527 L 3161,1526 L 3165,1512 L 3166,1511 L 3173,1498 L 3174,1497 L 3183,1486 L 3185,1485 L 3196,1476 L 3198,1476 L 3211,1470 L 3212,1469 L 3227,1466 L 3228,1466 L 3243,1466 L 3244,1466 L 3258,1469 L 3260,1470 L 3273,1476 L 3274,1476 L 3286,1485 L 3287,1486 L 3297,1497 L 3298,1498 L 3305,1511 L 3306,1512 L 3310,1526 L 3311,1527 L 3312,1542 L 3312,1543 z " style="fill-opacity:1.000000;fill:rgb(170,58,251);stroke:rgb(0,0,0);stroke-width:2"/></g>
<g fill-rule="evenodd"><path d="M 3706,1543 L 3704,1558 L 3704,1559 L 3699,1573 L 3699,1574 L 3692,1587 L 3691,1588 L 3681,1599 L 3680,1600 L 3668,1609 L 3667,1609 L 3654,1615 L 3652,1616 L 3638,1619 L 3636,1619 L 3622,1619 L 3620,1619 L 3606,1616 L 3605,1615 L 3591,1609 L 3590,1609 L 3578,1600 L 3577,1599 L 3567,1588 L 3566,1587 L 3559,1574 L 3559,1573 L 3554,1559 L 3554,1558 L 3552,1543 L 3552,1542 L 3554,1527 L 3554,1526 L 3559,1512 L 3559,1511 L 3566,1498 L 3567,1497 L 3577,1486 L 3578,1485 L 3590,1476 L 3591,1476 L 3605,1470 L 3606,1469 L 3620,1466 L 3622,1466 L 3636,1466 L 3638,1466 L 3652,1469 L 3654,1470 L 3667,1476 L 3668,1476 L 3680,1485 L 3681,1486 L 3691,1497 L 3692,1498 L 3699,1511 L 3699,1512 L 3704,1526 L 3704,1527 L 3706,1542 L 3706,1543 z " style="fill-opacity:1.000000;fill:rgb(41,209,230);stroke:rgb(0,0,0);stroke-width:2"/></g>
<g fill-rule="evenodd"><path d="M 2765,2359 L 2765,2221 L 2765,2220 L 2766,2218 L 2767,2217 L 2768,2215 L 2770,2214 L 2771,2214 L 2773,2214 L 2911,2214 L 2912,2214 L 2914,2214 L 2916,2215 L 2917,2217 L 2918,2218 L 2918,2220 L 2919,2221 L 2919,2359 L 2918,2361 L 2918,2363 L 2917,2364 L 2916,2365 L 2914,2366 L 2912,2367 L 2911,2367 L 2773,2367 L 2771,2367 L 2770,2366 L 2768,2365 L 2767,2364 L 2766,2363 L 2765,2361 L 2765,2359 z " style="fill-opacity:1.000000;fill:rgb(5,60,124);stroke:rgb(0,0,0);stroke-width:2"/></g>
<g fill-rule="evenodd"><path d="M 3312,2291 L 3311,2306 L 3310,2307 L 3306,2321 L 3305,2322 L 3298,2335 L 3297,2336 L 3287,2347 L 3286,2348 L 3274,2356 L 3273,2357 L 3260,2363 L 3258,2364 L 3244,2367 L 3243,2367 L 3228,2367 L 3227,2367 L 3212,2364 L 3211,2363 L 3198,2357 L 3196,2356 L 3185,2348 L 3183,2347 L 3174,2336 L 3173,2335 L 3166,2322 L 3165,2321 L 3161,2307 L 3160,2306 L 3159,2291 L 3159,2290 L 3160,2275 L 3161,2274 L 3165,2260 L 3166,2258 L 3173,2246 L 3174,2245 L 3183,2234 L 3185,2233 L 3196,2224 L 3198,2224 L 3211,2218 L 3212,2217 L 3227,2214 L 3228,2214 L 3243,2214 L 3244,2214 L 3258,2217 L 3260,2218 L 3273,2224 L 3274,2224 L 3286,2233 L 3287,2234 L 3297,2245 L 3298,2246 L 3305,2258 L 3306,2260 L 3310,2274 L 3311,2275 L 3312,2290 L 3312,2291 z " style="fill-opacity:1.000000;fill:rgb(148,117,216);stroke:rgb(0,0,0);stroke-width:2"/></g>
<g fill-rule="evenodd"><path d="M 3706,2291 L 3704,2306 L 3704,2307 L 3699,2321 L 3699,2322 L 3692,2335 L 3691,2336 L 3681,2347 L 3680,2348 L 3668,2356 L 3667,2357 L 3654,2363 L 3652,2364 L 3638,2367 L 3636,2367 L 3622,2367 L 3620,2367 L 3606,2364 L 3605,2363 L 3591,2357 L 3590,2356 L 3578,2348 L 3577,2347 L 3567,2336 L 3566,2335 L 3559,2322 L 3559,2321 L 3554,2307 L 3554,2306 L 3552,2291 L 3552,2290 L 3554,2275 L 3554,2274 L 3559,2260 L 3559,2258 L 3566,2246 L 3567,2245 L 3577,2234 L 3578,2233 L 3590,2224 L 3591,2224 L 3605,2218 L 3606,2217 L 3620,2214 L 3622,2214 L 3636,2214 L 3638,2214 L 3652,2217 L 3654,2218 L 3667,2224 L 3668,2224 L 3680,2233 L 3681,2234 L 3691,2245 L 3692,2246 L 3699,2258 L 3699,2260 L 3704,2274 L 3704,2275 L 3706,2290 L 3706,2291 z " style="fill-opacity:1.000000;fill:rgb(190,97,137);stroke:rgb(0,0,0);stroke-width:2"/></g>
<g fill-rule="evenodd"><path d="M 2221,2325 L 2220,2338 L 2220,2339 L 2216,2351 L 2215,2353 L 2209,2364 L 2208,2365 L 2200,2375 L 2199,2376 L 2189,2383 L 2188,2384 L 2176,2390 L 2175,2390 L 2163,2394 L 2161,2394 L 2149,2394 L 2147,2394 L 2135,2392 L 2133,2392 L 2121,2388 L 2120,2387 L 2109,2380 L 2108,2379 L 2099,2371 L 2098,2370 L 2091,2359 L 2090,2358 L 2085,2346 L 2085,2345 L 2082,2333 L 2082,2331 L 2082,2269 L 2082,2268 L 2083,2255 L 2083,2254 L 2087,2242 L 2088,2240 L 2094,2229 L 2095,2228 L 2103,2219 L 2104,2218 L 2114,2210 L 2115,2209 L 2126,2203 L 2128,2203 L 2140,2200 L 2142,2200 L 2154,2199 L 2156,2199 L 2168,2201 L 2170,2201 L 2181,2206 L 2183,2206 L 2193,2213 L 2195,2214 L 2204,2223 L 2205,2224 L 2212,2234 L 2213,2235 L 2218,2247 L 2218,2249 L 2221,2261 L 2221,2262 L 2221,2325 L 2221,2325 z " style="fill-opacity:1.000000;fill:rgb(249,92,187);stroke:rgb(0,0,0);stroke-width:2"/></g>
<g fill-rule="evenodd"><path d="M 2221,1526 L 2220,1538 L 2220,1540 L 2216,1552 L 2215,1553 L 2209,1564 L 2208,1565 L 2200,1575 L 2199,1576 L 2189,1584 L 2188,1584 L 2176,1590 L 2175,1591 L 2163,1594 L 2161,1594 L 2149,1595 L 2147,1595 L 2135,1593 L 2133,1592 L 2121,1588 L 2120,1587 L 2109,1581 L 2108,1580 L 2099,1571 L 2098,1570 L 2091,1559 L 2090,1558 L 2085,1546 L 2085,1545 L 2082,1533 L 2082,1531 L 2082,1469 L 2082,1468 L 2083,1456 L 2083,1454 L 2087,1442 L 2088,1441 L 2094,1430 L 2095,1428 L 2103,1419 L 2104,1418 L 2114,1410 L 2115,1409 L 2126,1404 L 2128,1403 L 2140,1400 L 2142,1400 L 2154,1399 L 2156,1399 L 2168,1401 L 2170,1401 L 2181,1406 L 2183,1407 L 2193,1413 L 2195,1414 L 2204,1423 L 2205,1424 L 2212,1434 L 2213,1436 L 2218,1447 L 2218,1449 L 2221,1461 L 2221,1463 L 2221,1525 L 2221,1526 z " style="fill-opacity:1.000000;fill:rgb(168,153,15);stroke:rgb(0,0,0);stroke-width:2"/></g>
<g fill-rule="evenodd"><path d="M 2421,1526 L 2420,1538 L 2420,1540 L 2416,1552 L 2415,1553 L 2409,1564 L 2408,1565 L 2400,1575 L 2399,1576 L 2389,1584 L 2388,1584 L 2376,1590 L 2375,1591 L 2363,1594 L 2361,1594 L 2349,1595 L 2347,1595 L 2335,1593 L 2333,1592 L 2321,1588 L 2320,1587 L 2309,1581 L 2308,1580 L 2299,1571 L 2298,1570 L 2291,1559 L 2290,1558 L 2285,1546 L 2284,1545 L 2282,1533 L 2282,1531 L 2281,1469 L 2282,1468 L 2283,1456 L 2283,1454 L 2287,1442 L 2288,1441 L 2294,1430 L 2294,1428 L 2303,1419 L 2304,1418 L 2314,1410 L 2315,1409 L 2326,1404 L 2328,1403 L 2340,1400 L 2342,1400 L 2354,1399 L 2356,1399 L 2368,1401 L 2370,1401 L 2381,1406 L 2383,1407 L 2393,1413 L 2395,1414 L 2404,1423 L 2405,1424 L 2412,1434 L 2413,1436 L 2418,1447 L 2418,1449 L 2421,1461 L 2421,1463 L 2421,1525 L 2421,1526 z " style="fill-opacity:1.000000;fill:rgb(149,177,235);stroke:rgb(0,0,0);stroke-width:2"/></g>
<g fill-rule="evenodd"><path d="M 760,2614 L 747,2613 L 746,2613 L 734,2609 L 732,2608 L 721,2602 L 720,2602 L 711,2593 L 710,2592 L 702,2582 L 701,2581 L 695,2570 L 695,2568 L 692,2556 L 692,2554 L 691,2542 L 691,2540 L 693,2528 L 693,2526 L 698,2515 L 698,2513 L 705,2503 L 706,2501 L 715,2492 L 716,2491 L 726,2484 L 727,2483 L 739,2478 L 741,2478 L 753,2475 L 754,2475 L 817,2475 L 817,2475 L 830,2476 L 832,2476 L 843,2480 L 845,2481 L 856,2487 L 857,2488 L 867,2496 L 868,2497 L 875,2507 L 876,2508 L 882,2520 L 882,2521 L 886,2533 L 886,2535 L 886,2547 L 886,2549 L 884,2561 L 884,2563 L 880,2575 L 879,2576 L 872,2587 L 871,2588 L 863,2597 L 862,2598 L 851,2605 L 850,2606 L 838,2611 L 837,2612 L 825,2614 L 823,2614 L 761,2615 L 760,2614 z " style="fill-opacity:1.000000;fill:rgb(241,179,5);stroke:rgb(0,0,0);stroke-width:2"/></g>
<g fill-rule="evenodd"><path d="M 1560,2614 L 1547,2613 L 1546,2613 L 1534,2609 L 1532,2608 L 1521,2602 L 1520,2602 L 1510,2593 L 1509,2592 L 1502,2582 L 1501,2581 L 1495,2570 L 1495,2568 L 1492,2556 L 1491,2554 L 1491,2542 L 1491,2540 L 1493,2528 L 1493,2526 L 1497,2515 L 1498,2513 L 1505,2503 L 1506,2501 L 1514,2492 L 1516,2491 L 1526,2484 L 1527,2483 L 1539,2478 L 1540,2478 L 1553,2475 L 1554,2475 L 1616,2475 L 1617,2475 L 1630,2476 L 1631,2476 L 1643,2480 L 1645,2481 L 1656,2487 L 1657,2488 L 1667,2496 L 1668,2497 L 1675,2507 L 1676,2508 L 1682,2520 L 1682,2521 L 1685,2533 L 1686,2535 L 1686,2547 L 1686,2549 L 1684,2561 L 1684,2563 L 1680,2575 L 1679,2576 L 1672,2587 L 1671,2588 L 1663,2597 L 1661,2598 L 1651,2605 L 1650,2606 L 1638,2611 L 1637,2612 L 1624,2614 L 1623,2614 L 1561,2615 L 1560,2614 z " style="fill-opacity:1.000000;fill:rgb(239,247,0);stroke:rgb(0,0,0);stroke-width:2"/></g>
<g fill-rule="evenodd"><path d="M 1560,2814 L 1547,2813 L 1546,2813 L 1534,2809 L 1532,2808 L 1521,2802 L 1520,2801 L 1510,2793 L 1509,2792 L 1502,2782 L 1501,2781 L 1495,2770 L 1495,2768 L 1492,2756 L 1491,2754 L 1491,2742 L 1491,2740 L 1493,2728 L 1493,2726 L 1497,2715 L 1498,2713 L 1505,2703 L 1506,2701 L 1514,2692 L 1516,2691 L 1526,2684 L 1527,2683 L 1539,2678 L 1540,2678 L 1553,2675 L 1554,2675 L 1616,2675 L 1617,2675 L 1630,2676 L 1631,2676 L 1643,2680 L 1645,2681 L 1656,2687 L 1657,2688 L 1667,2696 L 1668,2697 L 1675,2707 L 1676,2708 L 1682,2720 L 1682,2721 L 1685,2733 L 1686,2735 L 1686,2747 L 1686,2749 L 1684,2761 L 1684,2763 L 1680,2775 L 1679,2776 L 1672,2787 L 1671,2788 L 1663,2797 L 1661,2798 L 1651,2805 L 1650,2806 L 1638,2811 L 1637,2811 L 1624,2814 L 1623,2814 L 1561,2814 L 1560,2814 z " style="fill-opacity:1.000000;fill:rgb(233,161,58);stroke:rgb(0,0,0);stroke-width:2"/></g>
<g fill-rule="evenodd"><path d="M 1631,2325 L 1630,2338 L 1629,2339 L 1625,2351 L 1625,2353 L 1619,2364 L 1618,2365 L 1610,2375 L 1608,2376 L 1599,2383 L 1597,2384 L 1586,2390 L 1584,2390 L 1572,2394 L 1571,2394 L 1558,2394 L 1557,2394 L 1544,2392 L 1543,2392 L 1531,2388 L 1529,2387 L 1519,2380 L 1518,2379 L 1509,2371 L 1507,2370 L 1500,2359 L 1500,2358 L 1495,2346 L 1494,2345 L 1492,2333 L 1491,2331 L 1491,2269 L 1491,2268 L 1492,2255 L 1493,2254 L 1496,2242 L 1497,2240 L 1503,2229 L 1504,2228 L 1512,2219 L 1513,2218 L 1523,2210 L 1525,2209 L 1536,2203 L 1537,2203 L 1550,2200 L 1551,2200 L 1564,2199 L 1565,2199 L 1578,2201 L 1579,2201 L 1591,2206 L 1592,2206 L 1603,2213 L 1604,2214 L 1613,2223 L 1614,2224 L 1622,2234 L 1622,2235 L 1627,2247 L 1628,2249 L 1630,2261 L 1630,2262 L 1631,2325 L 1631,2325 z " style="fill-opacity:1.000000;fill:rgb(229,202,11);stroke:rgb(0,0,0);stroke-width:2"/></g>
<g fill-rule="evenodd"><path d="M 1631,1526 L 1630,1538 L 1629,1540 L 1625,1552 L 1625,1553 L 1619,1564 L 1618,1565 L 1610,1575 L 1608,1576 L 1599,1584 L 1597,1584 L 1586,1590 L 1584,1591 L 1572,1594 L 1571,1594 L 1558,1595 L 1557,1595 L 1544,1593 L 1543,1592 L 1531,1588 L 1529,1587 L 1519,1581 L 1518,1580 L 1509,1571 L 1507,1570 L 1500,1559 L 1500,1558 L 1495,1546 L 1494,1545 L 1492,1533 L 1491,1531 L 1491,1469 L 1491,1468 L 1492,1456 L 1493,1454 L 1496,1442 L 1497,1441 L 1503,1430 L 1504,1428 L 1512,1419 L 1513,1418 L 1523,1410 L 1525,1409 L 1536,1404 L 1537,1403 L 1550,1400 L 1551,1400 L 1564,1399 L 1565,1399 L 1578,1401 L 1579,1401 L 1591,1406 L 1592,1407 L 1603,1413 L 1604,1414 L 1613,1423 L 1614,1424 L 1622,1434 L 1622,1436 L 1627,1447 L 1628,1449 L 1630,1461 L 1630,1463 L 1631,1525 L 1631,1526 z " style="fill-opacity:1.000000;fill:rgb(203,208,72);stroke:rgb(0,0,0);stroke-width:2"/></g>
<g fill-rule="evenodd"><path d="M 1831,1526 L 1829,1538 L 1829,1540 L 1825,1552 L 1825,1553 L 1819,1564 L 1818,1565 L 1810,1575 L 1808,1576 L 1799,1584 L 1797,1584 L 1786,1590 L 1784,1591 L 1772,1594 L 1771,1594 L 1758,1595 L 1757,1595 L 1744,1593 L 1743,1592 L 1731,1588 L 1729,1587 L 1719,1581 L 1718,1580 L 1708,1571 L 1707,1570 L 1700,1559 L 1699,1558 L 1695,1546 L 1694,1545 L 1692,1533 L 1691,1531 L 1691,1469 L 1691,1468 L 1692,1456 L 1693,1454 L 1696,1442 L 1697,1441 L 1703,1430 L 1704,1428 L 1712,1419 L 1713,1418 L 1723,1410 L 1725,1409 L 1736,1404 L 1737,1403 L 1750,1400 L 1751,1400 L 1764,1399 L 1765,1399 L 1778,1401 L 1779,1401 L 1791,1406 L 1792,1407 L 1803,1413 L 1804,1414 L 1813,1423 L 1814,1424 L 1822,1434 L 1822,1436 L 1827,1447 L 1828,1449 L 1830,1461 L 1830,1463 L 1831,1525 L 1831,1526 z " style="fill-opacity:1.000000;fill:rgb(71,100,189);stroke:rgb(0,0,0);stroke-width:2"/></g>
<g fill-rule="evenodd"><path d="M 18,0 L 7122,0 L 7123,0 L 7125,0 L 7127,0 L 7129,1 L 7131,2 L 7133,3 L 7134,4 L 7136,6 L 7137,7 L 7138,9 L 7139,10 L 7139,13 L 7140,14 L 7140,16 L 7140,17 L 7140,3776 L 7140,3778 L 7140,3778 L 7140,3779 L 7139,3782 L 7139,3783 L 7137,3786 L 7136,3788 L 7134,3790 L 7133,3790 L 7132,3791 L 7131,3791 L 7129,3793 L 7127,3793 L 7124,3794 L 7122,3794 L 18,3794 L 17,3794 L 15,3794 L 13,3793 L 11,3793 L 9,3792 L 7,3791 L 6,3790 L 4,3788 L 3,3787 L 2,3785 L 1,3783 L 1,3781 L 0,3779 L 0,3777 L 0,3776 L 0,17 L 0,16 L 0,14 L 1,13 L 1,10 L 2,9 L 3,7 L 4,6 L 6,4 L 7,3 L 9,2 L 11,1 L 13,0 L 15,0 L 17,0 L 18,0M 3572,3124 L 3609,3139 L 3649,3139 L 3686,3124 L 3715,3096 L 3730,3058 L 3730,3018 L 3715,2981 L 3686,2953 L 3649,2937 L 3609,2937 L 3572,2953 L 3543,2981 L 3528,3018 L 3528,3058 L 3543,3095 L 3572,3124M 3572,2376 L 3609,2391 L 3649,2391 L 3686,2376 L 3715,2348 L 3730,2311 L 3730,2270 L 3715,2233 L 3686,2205 L 3649,2189 L 3609,2189 L 3572,2205 L 3543,2233 L 3528,2270 L 3528,2310 L 3543,2348 L 3572,2376M 3572,1628 L 3609,1643 L 3649,1644 L 3686,1628 L 3715,1600 L 3730,1563 L 3730,1522 L 3715,1485 L 3686,1457 L 3649,1442 L 3609,1441 L 3572,1457 L 3543,1485 L 3528,1522 L 3528,1562 L 3543,1600 L 3572,1628M 1789,2395 L 1789,2417 L 1791,2419 L 1829,2419 L 1841,2414 L 1851,2404 L 1853,2402 L 1854,2400 L 1856,2399 L 1857,2398 L 1859,2397 L 1861,2396 L 1863,2396 L 1865,2396 L 1867,2396 L 1868,2396 L 1870,2396 L 1872,2397 L 1874,2398 L 1875,2398 L 1877,2400 L 1878,2401 L 1880,2402 L 1881,2404 L 1882,2406 L 1882,2407 L 1883,2409 L 1883,2411 L 1884,2413 L 1884,2414 L 1884,2420 L 1898,2454 L 1924,2480 L 1957,2494 L 1994,2494 L 2028,2480 L 2054,2454 L 2068,2421 L 2068,2416 L 2068,2415 L 2068,2413 L 2069,2411 L 2069,2409 L 2070,2407 L 2071,2406 L 2072,2404 L 2074,2403 L 2075,2402 L 2077,2400 L 2078,2400 L 2080,2399 L 2082,2398 L 2084,2398 L 2086,2398 L 2088,2398 L 2089,2398 L 2092,2399 L 2093,2399 L 2095,2400 L 2096,2401 L 2116,2414 L 2151,2421 L 2187,2414 L 2218,2394 L 2225,2383 L 2225,2383 L 2226,2381 L 2228,2380 L 2229,2379 L 2231,2378 L 2233,2377 L 2234,2376 L 2236,2376 L 2238,2376 L 2240,2376 L 2242,2376 L 2244,2376 L 2245,2377 L 2247,2377 L 2249,2378 L 2251,2379 L 2252,2381 L 2253,2382 L 2254,2383 L 2255,2385 L 2256,2387 L 2257,2389 L 2257,2391 L 2257,2393 L 2262,2405 L 2271,2414 L 2283,2419 L 2321,2419 L 2323,2417 L 2323,2395 L 2289,2395 L 2288,2394 L 2286,2394 L 2284,2393 L 2283,2392 L 2282,2390 L 2282,2388 L 2281,2387 L 2281,2207 L 2282,2205 L 2282,2203 L 2283,2202 L 2284,2201 L 2286,2200 L 2288,2199 L 2289,2199 L 2323,2199 L 2323,2177 L 2321,2175 L 2283,2175 L 2271,2179 L 2262,2188 L 2257,2201 L 2257,2203 L 2257,2205 L 2256,2207 L 2255,2208 L 2254,2210 L 2253,2211 L 2252,2213 L 2250,2214 L 2249,2215 L 2247,2216 L 2245,2217 L 2244,2217 L 2242,2218 L 2240,2218 L 2238,2218 L 2236,2217 L 2234,2217 L 2233,2216 L 2231,2216 L 2229,2215 L 2228,2213 L 2226,2212 L 2225,2211 L 2225,2210 L 2218,2200 L 2187,2179 L 2151,2172 L 2116,2179 L 2085,2200 L 2065,2230 L 2057,2268 L 2057,2310 L 2057,2311 L 2057,2313 L 2057,2315 L 2056,2317 L 2055,2318 L 2054,2320 L 2053,2322 L 2052,2323 L 2050,2324 L 2049,2325 L 2047,2326 L 2045,2327 L 2044,2328 L 2042,2328 L 2040,2328 L 2038,2328 L 2036,2328 L 2034,2327 L 2032,2327 L 2030,2326 L 2029,2325 L 2029,2324 L 1994,2310 L 1958,2310 L 1924,2324 L 1898,2350 L 1889,2370 L 1889,2371 L 1888,2373 L 1887,2374 L 1886,2376 L 1885,2377 L 1883,2378 L 1881,2379 L 1879,2380 L 1878,2380 L 1876,2381 L 1874,2381 L 1872,2381 L 1870,2381 L 1868,2381 L 1867,2380 L 1865,2379 L 1863,2378 L 1862,2377 L 1860,2376 L 1859,2375 L 1858,2373 L 1857,2371 L 1856,2370 L 1856,2368 L 1855,2366 L 1855,2364 L 1855,2363 L 1855,2327 L 1853,2325 L 1831,2325 L 1831,2387 L 1831,2388 L 1830,2390 L 1829,2392 L 1828,2393 L 1826,2394 L 1825,2394 L 1823,2395 L 1789,2395M 1789,2177 L 1789,2199 L 1823,2199 L 1825,2199 L 1826,2200 L 1828,2201 L 1829,2202 L 1830,2203 L 1831,2205 L 1831,2207 L 1831,2269 L 1853,2269 L 1855,2267 L 1855,2200 L 1850,2188 L 1841,2179 L 1829,2175 L 1791,2175 L 1789,2177M 819,2839 L 885,2839 L 897,2834 L 906,2825 L 911,2813 L 911,2775 L 909,2772 L 887,2772 L 887,2807 L 886,2808 L 886,2810 L 885,2812 L 884,2813 L 882,2814 L 880,2814 L 879,2814 L 817,2814 L 817,2837 L 819,2839M 692,2839 L 759,2839 L 761,2837 L 761,2814 L 699,2814 L 697,2814 L 695,2814 L 694,2813 L 693,2812 L 692,2810 L 691,2808 L 691,2807 L 691,2772 L 669,2772 L 667,2775 L 667,2813 L 671,2825 L 680,2834 L 692,2839M 1560,2839 L 1617,2839 L 1655,2831 L 1686,2811 L 1706,2780 L 1713,2745 L 1706,2709 L 1686,2678 L 1657,2659 L 1657,2659 L 1655,2658 L 1654,2656 L 1653,2655 L 1652,2653 L 1651,2651 L 1650,2650 L 1650,2647 L 1649,2646 L 1649,2644 L 1650,2642 L 1650,2640 L 1651,2638 L 1652,2636 L 1653,2635 L 1654,2633 L 1655,2632 L 1657,2630 L 1657,2630 L 1686,2611 L 1706,2581 L 1713,2545 L 1706,2509 L 1686,2478 L 1655,2458 L 1618,2451 L 1595,2451 L 1594,2450 L 1592,2450 L 1590,2450 L 1588,2449 L 1587,2449 L 1585,2448 L 1584,2447 L 1582,2445 L 1581,2444 L 1580,2442 L 1579,2441 L 1578,2439 L 1577,2437 L 1577,2435 L 1577,2434 L 1577,2431 L 1577,2430 L 1578,2428 L 1578,2426 L 1579,2424 L 1580,2423 L 1581,2421 L 1582,2420 L 1584,2419 L 1585,2418 L 1587,2417 L 1588,2416 L 1590,2415 L 1591,2415 L 1597,2414 L 1627,2394 L 1636,2382 L 1637,2380 L 1639,2379 L 1640,2378 L 1642,2377 L 1644,2376 L 1646,2376 L 1647,2376 L 1650,2376 L 1651,2376 L 1653,2376 L 1655,2377 L 1657,2377 L 1658,2378 L 1660,2379 L 1661,2381 L 1663,2382 L 1664,2383 L 1665,2385 L 1666,2387 L 1666,2389 L 1667,2391 L 1667,2393 L 1672,2405 L 1681,2414 L 1693,2419 L 1731,2419 L 1733,2417 L 1733,2395 L 1699,2395 L 1697,2394 L 1696,2394 L 1694,2393 L 1693,2392 L 1692,2390 L 1691,2388 L 1691,2387 L 1691,2207 L 1691,2205 L 1692,2203 L 1693,2202 L 1694,2201 L 1696,2200 L 1697,2199 L 1699,2199 L 1733,2199 L 1733,2177 L 1731,2175 L 1693,2175 L 1681,2179 L 1672,2188 L 1667,2201 L 1667,2203 L 1666,2205 L 1666,2207 L 1665,2208 L 1664,2210 L 1663,2211 L 1661,2213 L 1660,2214 L 1658,2215 L 1657,2216 L 1655,2217 L 1653,2217 L 1651,2218 L 1650,2218 L 1647,2218 L 1646,2217 L 1644,2217 L 1642,2216 L 1640,2216 L 1639,2215 L 1637,2213 L 1636,2212 L 1635,2211 L 1634,2210 L 1627,2200 L 1597,2179 L 1561,2172 L 1525,2179 L 1495,2200 L 1474,2230 L 1467,2268 L 1467,2326 L 1474,2363 L 1495,2394 L 1525,2414 L 1546,2418 L 1547,2418 L 1549,2419 L 1550,2420 L 1552,2421 L 1554,2422 L 1555,2423 L 1556,2424 L 1557,2426 L 1558,2427 L 1559,2429 L 1560,2431 L 1560,2433 L 1560,2435 L 1560,2437 L 1560,2438 L 1560,2440 L 1559,2442 L 1558,2444 L 1557,2445 L 1556,2447 L 1555,2448 L 1554,2450 L 1552,2451 L 1550,2452 L 1549,2452 L 1547,2453 L 1546,2453 L 1522,2458 L 1491,2478 L 1471,2509 L 1464,2545 L 1471,2581 L 1491,2611 L 1520,2630 L 1520,2630 L 1522,2632 L 1523,2633 L 1525,2635 L 1525,2636 L 1526,2638 L 1527,2640 L 1527,2642 L 1528,2644 L 1528,2646 L 1527,2647 L 1527,2650 L 1526,2651 L 1525,2653 L 1525,2655 L 1523,2656 L 1522,2658 L 1520,2659 L 1520,2659 L 1491,2678 L 1471,2709 L 1464,2745 L 1471,2780 L 1491,2811 L 1522,2831 L 1560,2839M 1660,3340 L 1634,3314 L 1601,3300 L 1564,3300 L 1530,3314 L 1504,3340 L 1490,3374 L 1490,3411 L 1504,3445 L 1530,3471 L 1564,3485 L 1600,3485 L 1634,3471 L 1660,3445 L 1674,3411 L 1674,3374 L 1660,3340M 887,2278 L 873,2245 L 847,2219 L 813,2205 L 777,2205 L 743,2219 L 717,2244 L 703,2278 L 703,2315 L 717,2349 L 743,2375 L 777,2389 L 813,2389 L 847,2375 L 873,2349 L 887,2315 L 887,2278M 887,2717 L 909,2717 L 911,2715 L 911,2676 L 906,2664 L 897,2655 L 885,2650 L 883,2650 L 881,2650 L 879,2649 L 877,2649 L 875,2647 L 874,2646 L 873,2645 L 871,2644 L 870,2642 L 869,2641 L 869,2639 L 868,2637 L 868,2635 L 868,2633 L 868,2631 L 868,2629 L 868,2627 L 869,2626 L 870,2624 L 871,2623 L 872,2621 L 873,2620 L 875,2618 L 875,2618 L 886,2611 L 906,2581 L 913,2545 L 906,2509 L 886,2478 L 855,2458 L 818,2451 L 760,2451 L 722,2458 L 692,2478 L 671,2509 L 664,2545 L 671,2581 L 692,2611 L 702,2618 L 703,2618 L 704,2620 L 705,2621 L 707,2623 L 708,2624 L 708,2626 L 709,2627 L 709,2629 L 710,2631 L 710,2633 L 710,2635 L 709,2637 L 709,2639 L 708,2641 L 707,2642 L 706,2644 L 705,2645 L 703,2646 L 702,2647 L 700,2649 L 699,2649 L 697,2650 L 695,2650 L 693,2650 L 680,2655 L 671,2664 L 667,2676 L 667,2715 L 669,2717 L 691,2717 L 691,2683 L 691,2681 L 692,2679 L 693,2678 L 694,2676 L 695,2676 L 697,2675 L 699,2675 L 879,2675 L 880,2675 L 882,2676 L 884,2676 L 885,2678 L 886,2679 L 886,2681 L 887,2683 L 887,2717M 351,2629 L 356,2641 L 365,2650 L 377,2654 L 414,2654 L 416,2652 L 416,2630 L 383,2630 L 382,2630 L 380,2629 L 379,2629 L 377,2627 L 376,2626 L 376,2624 L 376,2622 L 376,2590 L 353,2590 L 351,2592 L 351,2629M 416,2495 L 416,2472 L 414,2470 L 377,2470 L 365,2475 L 356,2484 L 351,2496 L 351,2532 L 353,2534 L 376,2534 L 376,2502 L 376,2501 L 376,2499 L 377,2497 L 379,2496 L 380,2495 L 382,2495 L 383,2495 L 416,2495M 536,2629 L 536,2592 L 534,2590 L 511,2590 L 511,2622 L 511,2624 L 511,2626 L 510,2627 L 508,2629 L 507,2629 L 505,2630 L 503,2630 L 471,2630 L 471,2652 L 473,2654 L 510,2654 L 522,2650 L 531,2641 L 536,2629M 536,2496 L 531,2484 L 522,2475 L 510,2470 L 473,2470 L 471,2472 L 471,2495 L 503,2495 L 505,2495 L 507,2495 L 508,2496 L 510,2497 L 511,2499 L 511,2501 L 511,2502 L 511,2534 L 534,2534 L 536,2532 L 536,2496M 425,2261 L 462,2261 L 496,2247 L 522,2221 L 536,2187 L 536,2151 L 522,2117 L 496,2091 L 462,2077 L 425,2077 L 391,2091 L 365,2116 L 351,2150 L 351,2187 L 365,2221 L 391,2247 L 425,2261M 1083,2375 L 1109,2349 L 1123,2315 L 1123,2278 L 1109,2245 L 1083,2219 L 1050,2205 L 1013,2205 L 979,2219 L 953,2244 L 939,2278 L 939,2315 L 953,2349 L 979,2375 L 1013,2389 L 1049,2389 L 1083,2375M 1319,2375 L 1345,2349 L 1359,2315 L 1359,2278 L 1345,2245 L 1320,2219 L 1286,2205 L 1249,2205 L 1215,2219 L 1189,2244 L 1175,2278 L 1175,2315 L 1189,2349 L 1215,2375 L 1249,2389 L 1286,2389 L 1319,2375M 2279,3320 L 2276,3334 L 2276,3451 L 2279,3464 L 2286,3475 L 2297,3483 L 2311,3486 L 2428,3486 L 2441,3483 L 2452,3476 L 2460,3465 L 2463,3451 L 2463,3334 L 2460,3321 L 2453,3310 L 2442,3302 L 2428,3299 L 2311,3299 L 2298,3302 L 2287,3309 L 2279,3320M 2054,3340 L 2028,3314 L 2024,3313 L 2022,3311 L 2021,3310 L 2020,3309 L 2018,3307 L 2017,3306 L 2017,3304 L 2016,3302 L 2016,3300 L 2015,3298 L 2015,3296 L 2016,3295 L 2016,3292 L 2017,3291 L 2017,3289 L 2018,3287 L 2020,3286 L 2021,3284 L 2022,3283 L 2024,3282 L 2028,3280 L 2054,3254 L 2068,3220 L 2068,3184 L 2054,3150 L 2028,3124 L 1994,3110 L 1958,3110 L 1924,3124 L 1898,3150 L 1884,3184 L 1884,3220 L 1898,3254 L 1924,3280 L 1927,3282 L 1929,3283 L 1931,3284 L 1932,3286 L 1933,3287 L 1934,3289 L 1935,3291 L 1936,3292 L 1936,3295 L 1936,3296 L 1936,3298 L 1936,3300 L 1936,3302 L 1935,3304 L 1934,3306 L 1933,3307 L 1932,3309 L 1931,3310 L 1929,3311 L 1927,3313 L 1924,3314 L 1898,3340 L 1884,3374 L 1884,3411 L 1898,3445 L 1924,3471 L 1957,3485 L 1994,3485 L 2028,3471 L 2054,3445 L 2068,3411 L 2068,3374 L 2054,3340M 2944,3105 L 2944,2971 L 2941,2958 L 2934,2947 L 2923,2939 L 2909,2936 L 2775,2936 L 2761,2939 L 2750,2946 L 2743,2957 L 2740,2971 L 2740,3105 L 2742,3119 L 2749,3130 L 2760,3137 L 2775,3140 L 2909,3140 L 2922,3138 L 2934,3131 L 2941,3120 L 2944,3105M 3150,3095 L 3178,3124 L 3215,3139 L 3255,3139 L 3293,3124 L 3321,3096 L 3336,3058 L 3336,3018 L 3321,2981 L 3293,2953 L 3256,2937 L 3215,2937 L 3178,2953 L 3150,2981 L 3134,3018 L 3134,3058 L 3150,3095M 2445,2393 L 2445,2327 L 2443,2325 L 2421,2325 L 2421,2387 L 2421,2388 L 2420,2390 L 2419,2392 L 2418,2393 L 2417,2394 L 2415,2394 L 2413,2395 L 2379,2395 L 2379,2417 L 2381,2419 L 2420,2419 L 2432,2414 L 2441,2405 L 2445,2393M 2421,2269 L 2443,2269 L 2445,2267 L 2445,2200 L 2441,2188 L 2432,2179 L 2420,2175 L 2381,2175 L 2379,2177 L 2379,2199 L 2413,2199 L 2415,2199 L 2417,2200 L 2418,2201 L 2419,2202 L 2420,2203 L 2421,2205 L 2421,2207 L 2421,2269M 2742,2371 L 2749,2382 L 2760,2389 L 2775,2392 L 2909,2392 L 2922,2390 L 2934,2383 L 2941,2372 L 2944,2357 L 2944,2223 L 2941,2210 L 2934,2199 L 2923,2191 L 2909,2188 L 2775,2188 L 2761,2191 L 2750,2198 L 2743,2209 L 2740,2223 L 2740,2358 L 2742,2371M 3293,2376 L 3321,2348 L 3336,2311 L 3336,2270 L 3321,2233 L 3293,2205 L 3256,2189 L 3215,2189 L 3178,2205 L 3150,2233 L 3134,2270 L 3134,2310 L 3150,2348 L 3178,2376 L 3215,2391 L 3255,2391 L 3293,2376M 1761,1621 L 1797,1614 L 1827,1594 L 1848,1563 L 1855,1526 L 1855,1468 L 1848,1430 L 1827,1400 L 1797,1379 L 1761,1372 L 1725,1379 L 1695,1400 L 1676,1428 L 1675,1429 L 1674,1430 L 1673,1432 L 1671,1433 L 1669,1434 L 1667,1435 L 1666,1435 L 1664,1436 L 1662,1436 L 1660,1436 L 1658,1436 L 1656,1435 L 1654,1435 L 1652,1434 L 1651,1433 L 1649,1432 L 1648,1430 L 1647,1429 L 1646,1428 L 1627,1400 L 1597,1379 L 1561,1372 L 1525,1379 L 1495,1400 L 1474,1430 L 1467,1468 L 1467,1526 L 1474,1563 L 1495,1594 L 1525,1614 L 1561,1621 L 1597,1614 L 1627,1594 L 1646,1566 L 1647,1565 L 1648,1563 L 1649,1562 L 1651,1561 L 1652,1560 L 1654,1559 L 1656,1558 L 1658,1558 L 1660,1558 L 1662,1558 L 1664,1558 L 1666,1558 L 1667,1559 L 1669,1560 L 1671,1561 L 1673,1562 L 1674,1563 L 1675,1565 L 1676,1566 L 1695,1594 L 1725,1614 L 1761,1621M 1378,965 L 1392,931 L 1393,894 L 1379,861 L 1353,835 L 1319,821 L 1282,821 L 1248,835 L 1222,860 L 1208,894 L 1208,931 L 1222,965 L 1248,991 L 1282,1005 L 1319,1005 L 1352,991 L 1378,965M 887,1479 L 873,1445 L 847,1419 L 813,1405 L 777,1405 L 743,1419 L 717,1445 L 703,1478 L 703,1515 L 717,1549 L 743,1575 L 777,1589 L 813,1589 L 847,1575 L 873,1549 L 887,1515 L 887,1479M 522,1434 L 536,1400 L 536,1363 L 522,1329 L 496,1303 L 462,1289 L 425,1289 L 391,1303 L 365,1329 L 351,1363 L 351,1400 L 365,1434 L 391,1460 L 425,1474 L 462,1474 L 496,1460 L 522,1434M 425,1867 L 462,1867 L 496,1853 L 522,1827 L 536,1794 L 536,1757 L 522,1723 L 496,1697 L 462,1683 L 425,1683 L 391,1697 L 365,1723 L 351,1757 L 351,1793 L 365,1827 L 391,1853 L 425,1867M 1345,1445 L 1320,1419 L 1286,1405 L 1249,1405 L 1215,1419 L 1189,1445 L 1175,1478 L 1175,1515 L 1189,1549 L 1215,1575 L 1249,1589 L 1286,1589 L 1319,1575 L 1345,1549 L 1359,1515 L 1359,1479 L 1345,1445M 1109,1445 L 1083,1419 L 1050,1405 L 1013,1405 L 979,1419 L 953,1445 L 939,1478 L 939,1515 L 953,1549 L 979,1575 L 1013,1589 L 1049,1589 L 1083,1575 L 1109,1549 L 1123,1515 L 1123,1479 L 1109,1445M 2178,965 L 2192,931 L 2192,894 L 2178,861 L 2152,835 L 2119,821 L 2082,821 L 2048,835 L 2022,860 L 2008,894 L 2008,931 L 2022,965 L 2048,991 L 2082,1005 L 2118,1005 L 2152,991 L 2178,965M 2438,1430 L 2418,1400 L 2387,1379 L 2351,1372 L 2315,1379 L 2285,1400 L 2266,1428 L 2266,1429 L 2264,1430 L 2263,1432 L 2261,1433 L 2260,1434 L 2258,1435 L 2256,1435 L 2254,1436 L 2252,1436 L 2250,1436 L 2249,1436 L 2246,1435 L 2245,1435 L 2243,1434 L 2241,1433 L 2240,1432 L 2238,1430 L 2237,1429 L 2237,1428 L 2218,1400 L 2187,1379 L 2151,1372 L 2116,1379 L 2085,1400 L 2065,1430 L 2057,1468 L 2057,1526 L 2065,1563 L 2085,1594 L 2116,1614 L 2151,1621 L 2187,1614 L 2218,1594 L 2237,1566 L 2237,1565 L 2238,1563 L 2240,1562 L 2241,1561 L 2243,1560 L 2245,1559 L 2246,1558 L 2249,1558 L 2250,1558 L 2252,1558 L 2254,1558 L 2256,1558 L 2258,1559 L 2260,1560 L 2261,1561 L 2263,1562 L 2264,1563 L 2266,1565 L 2266,1566 L 2285,1594 L 2315,1614 L 2351,1621 L 2387,1614 L 2418,1594 L 2438,1563 L 2445,1526 L 2445,1468 L 2438,1430M 2232,1188 L 2266,1202 L 2303,1202 L 2337,1188 L 2362,1162 L 2377,1128 L 2377,1091 L 2363,1057 L 2337,1031 L 2303,1017 L 2266,1017 L 2232,1031 L 2206,1057 L 2192,1091 L 2192,1128 L 2206,1162 L 2232,1188M 2775,1441 L 2761,1443 L 2750,1450 L 2743,1461 L 2740,1475 L 2740,1610 L 2742,1623 L 2749,1634 L 2760,1642 L 2775,1644 L 2909,1644 L 2922,1642 L 2934,1635 L 2941,1624 L 2944,1610 L 2944,1475 L 2941,1462 L 2934,1451 L 2923,1443 L 2909,1441 L 2775,1441M 3134,1562 L 3150,1600 L 3178,1628 L 3215,1643 L 3255,1644 L 3293,1628 L 3321,1600 L 3336,1563 L 3336,1522 L 3321,1485 L 3293,1457 L 3256,1442 L 3215,1441 L 3178,1457 L 3150,1485 L 3134,1522 L 3134,1562M 3103,1202 L 3136,1188 L 3162,1162 L 3176,1128 L 3176,1091 L 3162,1057 L 3137,1031 L 3103,1017 L 3066,1017 L 3032,1031 L 3006,1057 L 2992,1091 L 2992,1128 L 3006,1162 L 3032,1188 L 3066,1202 L 3103,1202M 4667,2978 L 4667,2941 L 4653,2907 L 4627,2880 L 4592,2866 L 4555,2866 L 4521,2880 L 4494,2906 L 4480,2941 L 4480,2978 L 4494,3012 L 4521,3039 L 4555,3053 L 4592,3053 L 4627,3039 L 4653,3013 L 4667,2978M 5104,3054 L 5223,3054 L 5237,3052 L 5248,3044 L 5255,3034 L 5258,3019 L 5258,2900 L 5256,2886 L 5249,2875 L 5238,2868 L 5223,2865 L 5104,2865 L 5090,2867 L 5079,2875 L 5072,2885 L 5069,2900 L 5069,3019 L 5072,3033 L 5079,3044 L 5089,3051 L 5104,3054M 6208,3368 L 6325,3368 L 6338,3365 L 6349,3358 L 6356,3347 L 6359,3333 L 6359,3216 L 6357,3203 L 6350,3192 L 6339,3184 L 6325,3181 L 6208,3181 L 6195,3184 L 6183,3191 L 6176,3202 L 6173,3216 L 6173,3333 L 6176,3346 L 6183,3357 L 6194,3365 L 6208,3368M 5951,3327 L 5965,3293 L 5965,3256 L 5951,3222 L 5925,3196 L 5891,3182 L 5854,3182 L 5821,3196 L 5795,3222 L 5781,3256 L 5781,3293 L 5795,3327 L 5820,3352 L 5854,3367 L 5891,3367 L 5925,3353 L 5951,3327M 5985,2374 L 5995,2381 L 6010,2384 L 6129,2384 L 6143,2382 L 6154,2375 L 6161,2364 L 6164,2350 L 6164,2230 L 6162,2217 L 6154,2206 L 6144,2198 L 6129,2195 L 6010,2195 L 5996,2198 L 5985,2205 L 5978,2216 L 5975,2230 L 5975,2350 L 5977,2363 L 5985,2374M 4352,1443 L 4352,1406 L 4338,1371 L 4312,1345 L 4278,1331 L 4240,1331 L 4206,1345 L 4180,1371 L 4165,1406 L 4165,1443 L 4179,1477 L 4206,1504 L 4240,1518 L 4277,1518 L 4312,1504 L 4338,1477 L 4352,1443M 4943,1484 L 4943,1365 L 4941,1351 L 4934,1340 L 4923,1333 L 4908,1330 L 4789,1330 L 4775,1332 L 4764,1339 L 4757,1350 L 4754,1365 L 4754,1484 L 4757,1498 L 4764,1509 L 4774,1516 L 4789,1519 L 4909,1519 L 4922,1516 L 4933,1509 L 4940,1499 L 4943,1484M 4390,479 L 4416,453 L 4430,419 L 4430,383 L 4416,349 L 4390,323 L 4356,309 L 4319,309 L 4285,323 L 4260,349 L 4245,383 L 4245,419 L 4259,453 L 4285,479 L 4319,493 L 4356,493 L 4390,479M 4821,474 L 4824,459 L 4824,343 L 4822,329 L 4815,318 L 4804,311 L 4789,308 L 4673,308 L 4659,310 L 4648,318 L 4641,328 L 4638,343 L 4638,459 L 4641,473 L 4648,484 L 4658,491 L 4673,494 L 4789,494 L 4803,492 L 4814,484 L 4821,474M 6163,1681 L 6149,1647 L 6123,1621 L 6088,1606 L 6051,1606 L 6017,1621 L 5990,1647 L 5976,1681 L 5976,1718 L 5990,1753 L 6016,1779 L 6051,1794 L 6088,1794 L 6122,1779 L 6149,1753 L 6163,1719 L 6163,1681M 6593,474 L 6596,459 L 6596,343 L 6593,329 L 6586,318 L 6575,311 L 6561,308 L 6444,308 L 6431,310 L 6420,318 L 6412,328 L 6409,343 L 6409,459 L 6412,473 L 6419,484 L 6430,491 L 6444,494 L 6561,494 L 6574,492 L 6585,484 L 6593,474M 6948,479 L 6974,453 L 6988,419 L 6988,383 L 6974,349 L 6948,323 L 6914,309 L 6878,309 L 6844,323 L 6818,349 L 6804,383 L 6804,419 L 6818,453 L 6844,479 L 6878,493 L 6914,493 L 6948,479 z " style="fill-opacity:1.000000;fill:rgb(31,35,30);stroke:rgb(0,0,0);stroke-width:2"/></g>
</svg>
