<?xml version="1.0" standalone="no"?>
<!DOCTYPE svg PUBLIC "-//W3C//DTD SVG 1.1//EN"
"http://www.w3.org/Graphics/SVG/1.1/DTD/svg11.dtd">
<svg width="7141" height="4034" viewBox="0 0 7141 4034" version="1.1"
xmlns="http://www.w3.org/2000/svg"
xmlns:xlink="http://www.w3.org/1999/xlink">
<g fill-rule="evenodd"><path d="M 3314,1739 L 3833,1739 L 4259,1313 L 4259,401 L 4259,400 L 4260,385 L 4261,384 L 4265,370 L 4266,368 L 4273,355 L 4274,354 L 4284,343 L 4286,342 L 4298,333 L 4299,332 L 4312,326 L 4314,326 L 4329,323 L 4330,323 L 4345,323 L 4347,323 L 4361,326 L 4363,326 L 4376,332 L 4378,333 L 4390,342 L 4391,343 L 4401,354 L 4402,355 L 4409,368 L 4410,370 L 4414,384 L 4415,385 L 4416,400 L 4416,401 L 4416,1346 L 4416,1347 L 4414,1365 L 4413,1367 L 4406,1384 L 4405,1386 L 4394,1401 L 4393,1401 L 3921,1874 L 3920,1874 L 3905,1886 L 3904,1887 L 3887,1894 L 3885,1894 L 3866,1897 L 3865,1897 L 3275,1897 L 3274,1897 L 3255,1894 L 3253,1894 L 3236,1887 L 3235,1886 L 3220,1874 L 3219,1874 L 3180,1834 L 3179,1834 L 3168,1819 L 3167,1817 L 3160,1800 L 3159,1798 L 3157,1780 L 3157,1779 L 3157,1542 L 3157,1542 L 3158,1527 L 3159,1525 L 3163,1511 L 3164,1510 L 3171,1497 L 3172,1496 L 3182,1485 L 3183,1483 L 3195,1475 L 3197,1474 L 3210,1468 L 3212,1467 L 3226,1464 L 3228,1464 L 3243,1464 L 3244,1464 L 3259,1467 L 3261,1468 L 3274,1474 L 3275,1475 L 3287,1483 L 3289,1485 L 3299,1496 L 3300,1497 L 3307,1510 L 3308,1511 L 3312,1525 L 3313,1527 L 3314,1542 L 3314,1542 L 3314,1739 z " style="fill-opacity:1.000000;fill:rgb(103,198,105);stroke:rgb(0,0,0);stroke-width:2"/></g>
<g fill-rule="evenodd"><path d="M 3386,2094 L 3314,2166 L 3314,2290 L 3314,2291 L 3313,2306 L 3312,2308 L 3308,2322 L 3307,2323 L 3300,2336 L 3299,2337 L 3289,2348 L 3287,2349 L 3275,2358 L 3274,2359 L 3261,2365 L 3259,2365 L 3244,2369 L 3243,2369 L 3228,2369 L 3226,2369 L 3212,2365 L 3210,2365 L 3197,2359 L 3195,2358 L 3183,2349 L 3182,2348 L 3172,2337 L 3171,2336 L 3164,2323 L 3163,2322 L 3159,2308 L 3158,2306 L 3157,2291 L 3157,2290 L 3157,2133 L 3157,2132 L 3159,2114 L 3160,2112 L 3167,2094 L 3168,2093 L 3179,2078 L 3180,2077 L 3298,1959 L 3299,1958 L 3313,1947 L 3315,1946 L 3332,1939 L 3334,1939 L 3352,1936 L 3354,1936 L 5400,1936 L 5401,1936 L 5420,1939 L 5422,1939 L 5439,1946 L 5441,1947 L 5455,1958 L 5456,1959 L 5945,2448 L 6312,2448 L 6424,2336 L 6424,2166 L 6014,1756 L 6013,1755 L 6003,1743 L 6002,1741 L 5996,1727 L 5995,1725 L 5991,1710 L 5991,1708 L 5991,1692 L 5991,1690 L 5995,1675 L 5996,1673 L 6002,1659 L 6003,1657 L 6013,1645 L 6014,1644 L 6817,841 L 6817,401 L 6817,400 L 6819,385 L 6819,384 L 6824,370 L 6825,368 L 6832,355 L 6833,354 L 6843,343 L 6844,342 L 6856,333 L 6857,332 L 6871,326 L 6873,326 L 6887,323 L 6889,323 L 6904,323 L 6905,323 L 6920,326 L 6921,326 L 6935,332 L 6936,333 L 6948,342 L 6949,343 L 6959,354 L 6960,355 L 6968,368 L 6968,370 L 6973,384 L 6973,385 L 6975,400 L 6975,401 L 6975,873 L 6975,874 L 6972,893 L 6972,895 L 6965,912 L 6964,914 L 6952,928 L 6952,929 L 6181,1700 L 6558,2077 L 6559,2078 L 6570,2093 L 6571,2094 L 6578,2112 L 6579,2114 L 6581,2132 L 6581,2133 L 6581,2369 L 6581,2370 L 6579,2388 L 6578,2390 L 6571,2408 L 6570,2409 L 6559,2424 L 6558,2425 L 6401,2582 L 6400,2583 L 6385,2594 L 6383,2595 L 6366,2602 L 6364,2603 L 6346,2605 L 6345,2605 L 5912,2605 L 5911,2605 L 5893,2603 L 5891,2602 L 5874,2595 L 5872,2594 L 5857,2583 L 5856,2582 L 5368,2094 L 3386,2094 z " style="fill-opacity:1.000000;fill:rgb(115,81,255);stroke:rgb(0,0,0);stroke-width:2"/></g>
<g fill-rule="evenodd"><path d="M 4574,3071 L 4275,3369 L 4274,3370 L 4260,3381 L 4258,3382 L 4241,3389 L 4239,3390 L 4221,3392 L 4219,3393 L 3314,3393 L 3313,3392 L 3295,3390 L 3293,3389 L 3276,3382 L 3274,3381 L 3259,3370 L 3258,3369 L 3180,3291 L 3179,3290 L 3168,3275 L 3167,3273 L 3160,3256 L 3159,3254 L 3157,3236 L 3157,3235 L 3157,3038 L 3157,3037 L 3158,3023 L 3159,3021 L 3163,3007 L 3164,3005 L 3171,2993 L 3172,2991 L 3182,2980 L 3183,2979 L 3195,2971 L 3197,2970 L 3210,2964 L 3212,2963 L 3226,2960 L 3228,2960 L 3243,2960 L 3244,2960 L 3259,2963 L 3261,2964 L 3274,2970 L 3275,2971 L 3287,2979 L 3289,2980 L 3299,2991 L 3300,2993 L 3307,3005 L 3308,3007 L 3312,3021 L 3313,3023 L 3314,3037 L 3314,3038 L 3314,3202 L 3347,3235 L 4187,3235 L 4518,2904 L 4519,2903 L 4531,2893 L 4533,2892 L 4547,2886 L 4549,2885 L 4564,2881 L 4566,2881 L 4582,2881 L 4583,2881 L 4599,2885 L 4601,2886 L 4615,2892 L 4616,2893 L 4629,2903 L 4629,2904 L 4921,3196 L 5873,3196 L 5874,3196 L 5888,3197 L 5890,3198 L 5904,3202 L 5905,3203 L 5918,3210 L 5920,3211 L 5931,3221 L 5932,3222 L 5940,3234 L 5941,3236 L 5947,3249 L 5948,3251 L 5951,3265 L 5951,3267 L 5951,3282 L 5951,3283 L 5948,3298 L 5947,3300 L 5941,3313 L 5940,3314 L 5932,3326 L 5931,3328 L 5920,3338 L 5918,3339 L 5905,3346 L 5904,3347 L 5890,3351 L 5888,3352 L 5874,3353 L 5873,3353 L 4889,3353 L 4888,3353 L 4869,3351 L 4867,3350 L 4850,3343 L 4848,3342 L 4834,3331 L 4833,3330 L 4574,3071 z " style="fill-opacity:1.000000;fill:rgb(74,236,41);stroke:rgb(0,0,0);stroke-width:2"/></g>
<g fill-rule="evenodd"><path d="M 591,2172 L 539,2224 L 539,2225 L 524,2236 L 522,2237 L 505,2244 L 503,2245 L 485,2247 L 484,2247 L 443,2247 L 443,2247 L 428,2246 L 426,2246 L 412,2241 L 411,2240 L 398,2233 L 397,2232 L 386,2222 L 384,2221 L 376,2209 L 375,2207 L 369,2194 L 368,2192 L 365,2178 L 365,2176 L 365,2161 L 365,2160 L 368,2145 L 369,2144 L 375,2130 L 376,2129 L 384,2117 L 386,2115 L 397,2106 L 398,2105 L 411,2097 L 412,2097 L 426,2092 L 428,2092 L 443,2090 L 443,2090 L 451,2090 L 503,2038 L 504,2037 L 519,2026 L 520,2025 L 537,2018 L 539,2017 L 558,2015 L 559,2015 L 992,2015 L 993,2015 L 1011,2017 L 1013,2018 L 1030,2025 L 1032,2026 L 1047,2037 L 1047,2038 L 1087,2077 L 1087,2078 L 1099,2093 L 1100,2094 L 1107,2112 L 1107,2114 L 1110,2132 L 1110,2133 L 1110,2297 L 1110,2297 L 1108,2312 L 1108,2314 L 1103,2328 L 1103,2329 L 1095,2342 L 1094,2344 L 1084,2355 L 1083,2356 L 1071,2364 L 1070,2365 L 1056,2371 L 1055,2372 L 1040,2375 L 1039,2375 L 1024,2375 L 1022,2375 L 1008,2372 L 1006,2371 L 993,2365 L 991,2364 L 979,2356 L 978,2355 L 968,2344 L 967,2342 L 960,2329 L 959,2328 L 954,2314 L 954,2312 L 952,2297 L 952,2297 L 952,2172 L 591,2172 z " style="fill-opacity:1.000000;fill:rgb(205,186,171);stroke:rgb(0,0,0);stroke-width:2"/></g>
<g fill-rule="evenodd"><path d="M 522,1306 L 522,1382 L 522,1382 L 521,1397 L 520,1399 L 516,1413 L 515,1414 L 508,1427 L 507,1428 L 497,1439 L 496,1441 L 484,1449 L 482,1450 L 469,1456 L 467,1457 L 453,1460 L 451,1460 L 436,1460 L 434,1460 L 420,1457 L 418,1456 L 405,1450 L 403,1449 L 391,1441 L 390,1439 L 380,1428 L 379,1427 L 372,1414 L 371,1413 L 367,1399 L 366,1397 L 365,1382 L 365,1382 L 365,1264 L 365,1263 L 367,1245 L 368,1243 L 375,1226 L 376,1224 L 387,1209 L 388,1209 L 424,1172 L 425,1171 L 440,1160 L 442,1159 L 459,1152 L 461,1151 L 479,1149 L 480,1149 L 1189,1149 L 1190,1149 L 1208,1151 L 1210,1152 L 1227,1159 L 1229,1160 L 1243,1171 L 1244,1172 L 1323,1251 L 1324,1251 L 1335,1266 L 1336,1268 L 1343,1285 L 1344,1287 L 1346,1305 L 1346,1306 L 1346,1497 L 1346,1498 L 1344,1512 L 1344,1514 L 1340,1528 L 1339,1530 L 1331,1542 L 1330,1544 L 1321,1555 L 1319,1556 L 1307,1565 L 1306,1565 L 1292,1571 L 1291,1572 L 1276,1575 L 1275,1575 L 1260,1575 L 1258,1575 L 1244,1572 L 1242,1571 L 1229,1565 L 1227,1565 L 1215,1556 L 1214,1555 L 1204,1544 L 1203,1542 L 1196,1530 L 1195,1528 L 1191,1514 L 1190,1512 L 1189,1498 L 1189,1497 L 1189,1339 L 1156,1306 L 522,1306 z " style="fill-opacity:1.000000;fill:rgb(242,251,227);stroke:rgb(0,0,0);stroke-width:2"/></g>
<g fill-rule="evenodd"><path d="M 522,1730 L 522,1775 L 522,1776 L 521,1791 L 520,1792 L 516,1806 L 515,1808 L 508,1821 L 507,1822 L 497,1833 L 496,1834 L 484,1843 L 482,1844 L 469,1850 L 467,1850 L 453,1853 L 451,1853 L 436,1853 L 434,1853 L 420,1850 L 418,1850 L 405,1844 L 403,1843 L 391,1834 L 390,1833 L 380,1822 L 379,1821 L 372,1808 L 371,1806 L 367,1792 L 366,1791 L 365,1776 L 365,1775 L 365,1697 L 365,1696 L 367,1678 L 368,1676 L 375,1659 L 376,1657 L 387,1642 L 388,1642 L 588,1441 L 589,1440 L 604,1429 L 605,1428 L 622,1421 L 624,1421 L 643,1418 L 644,1418 L 795,1418 L 796,1418 L 811,1420 L 812,1420 L 826,1425 L 828,1425 L 841,1433 L 842,1434 L 853,1444 L 854,1445 L 863,1457 L 864,1458 L 870,1472 L 870,1473 L 873,1488 L 873,1489 L 873,1504 L 873,1506 L 870,1520 L 870,1522 L 864,1535 L 863,1537 L 854,1549 L 853,1550 L 842,1560 L 841,1561 L 828,1568 L 826,1569 L 812,1574 L 811,1574 L 796,1576 L 795,1576 L 676,1576 L 522,1730 z " style="fill-opacity:1.000000;fill:rgb(70,124,194);stroke:rgb(0,0,0);stroke-width:2"/></g>
<g fill-rule="evenodd"><path d="M 376,2622 L 376,2502 L 376,2501 L 376,2499 L 377,2497 L 379,2496 L 380,2495 L 382,2495 L 383,2495 L 503,2495 L 505,2495 L 507,2495 L 508,2496 L 510,2497 L 511,2499 L 511,2501 L 511,2502 L 511,2622 L 511,2624 L 511,2626 L 510,2627 L 508,2629 L 507,2629 L 505,2630 L 503,2630 L 383,2630 L 382,2630 L 380,2629 L 379,2629 L 377,2627 L 376,2626 L 376,2624 L 376,2622 z " style="fill-opacity:1.000000;fill:rgb(84,248,27);stroke:rgb(0,0,0);stroke-width:2"/></g>
<g fill-rule="evenodd"><path d="M 2281,2387 L 2281,2207 L 2282,2205 L 2282,2203 L 2283,2202 L 2284,2201 L 2286,2200 L 2288,2199 L 2289,2199 L 2413,2199 L 2415,2199 L 2417,2200 L 2418,2201 L 2419,2202 L 2420,2203 L 2421,2205 L 2421,2207 L 2421,2387 L 2421,2388 L 2420,2390 L 2419,2392 L 2418,2393 L 2417,2394 L 2415,2394 L 2413,2395 L 2289,2395 L 2288,2394 L 2286,2394 L 2284,2393 L 2283,2392 L 2282,2390 L 2282,2388 L 2281,2387 z " style="fill-opacity:1.000000;fill:rgb(232,231,141);stroke:rgb(0,0,0);stroke-width:2"/></g>
<g fill-rule="evenodd"><path d="M 691,2807 L 691,2683 L 691,2681 L 692,2679 L 693,2678 L 694,2676 L 695,2676 L 697,2675 L 699,2675 L 879,2675 L 880,2675 L 882,2676 L 884,2676 L 885,2678 L 886,2679 L 886,2681 L 887,2683 L 887,2807 L 886,2808 L 886,2810 L 885,2812 L 884,2813 L 882,2814 L 880,2814 L 879,2814 L 699,2814 L 697,2814 L 695,2814 L 694,2813 L 693,2812 L 692,2810 L 691,2808 L 691,2807 z " style="fill-opacity:1.000000;fill:rgb(118,90,46);stroke:rgb(0,0,0);stroke-width:2"/></g>
<g fill-rule="evenodd"><path d="M 1691,2387 L 1691,2207 L 1691,2205 L 1692,2203 L 1693,2202 L 1694,2201 L 1696,2200 L 1697,2199 L 1699,2199 L 1823,2199 L 1825,2199 L 1826,2200 L 1828,2201 L 1829,2202 L 1830,2203 L 1831,2205 L 1831,2207 L 1831,2387 L 1831,2388 L 1830,2390 L 1829,2392 L 1828,2393 L 1826,2394 L 1825,2394 L 1823,2395 L 1699,2395 L 1697,2394 L 1696,2394 L 1694,2393 L 1693,2392 L 1692,2390 L 1691,2388 L 1691,2387 z " style="fill-opacity:1.000000;fill:rgb(99,51,159);stroke:rgb(0,0,0);stroke-width:2"/></g>
<g fill-rule="evenodd"><path d="M 1142,1818 L 1751,1818 L 1752,1818 L 1771,1821 L 1773,1821 L 1790,1828 L 1792,1829 L 1806,1840 L 1807,1841 L 2167,2201 L 2168,2201 L 2170,2201 L 2181,2206 L 2183,2206 L 2193,2213 L 2195,2214 L 2204,2223 L 2205,2224 L 2212,2234 L 2213,2235 L 2218,2247 L 2218,2249 L 2221,2260 L 2225,2268 L 2225,2269 L 2229,2284 L 2229,2285 L 2230,2300 L 2230,2302 L 2228,2316 L 2227,2318 L 2222,2332 L 2221,2333 L 2220,2334 L 2220,2338 L 2220,2339 L 2216,2351 L 2215,2353 L 2209,2364 L 2208,2365 L 2200,2375 L 2199,2376 L 2189,2383 L 2188,2384 L 2176,2390 L 2175,2390 L 2163,2394 L 2161,2394 L 2149,2394 L 2147,2394 L 2135,2392 L 2133,2392 L 2121,2388 L 2120,2387 L 2109,2380 L 2108,2379 L 2099,2371 L 2098,2370 L 2091,2359 L 2090,2358 L 2085,2346 L 2085,2345 L 2084,2340 L 1719,1975 L 1110,1975 L 1109,1975 L 1091,1973 L 1089,1972 L 1071,1965 L 1070,1964 L 1055,1953 L 1054,1952 L 975,1874 L 975,1873 L 964,1858 L 963,1856 L 955,1839 L 955,1837 L 952,1819 L 952,1818 L 952,1497 L 952,1496 L 954,1481 L 954,1480 L 959,1466 L 960,1464 L 967,1451 L 968,1450 L 978,1439 L 979,1438 L 991,1429 L 993,1428 L 1006,1422 L 1008,1422 L 1022,1419 L 1024,1418 L 1039,1418 L 1040,1419 L 1055,1422 L 1056,1422 L 1070,1428 L 1071,1429 L 1083,1438 L 1084,1439 L 1094,1450 L 1095,1451 L 1103,1464 L 1103,1466 L 1108,1480 L 1108,1481 L 1110,1496 L 1110,1497 L 1110,1785 L 1142,1818 z " style="fill-opacity:1.000000;fill:rgb(201,154,102);stroke:rgb(0,0,0);stroke-width:2"/></g>
<g fill-rule="evenodd"><path d="M 716,2491 L 716,2297 L 716,2296 L 718,2281 L 718,2280 L 723,2265 L 723,2264 L 731,2251 L 732,2250 L 742,2239 L 743,2238 L 755,2229 L 756,2228 L 770,2222 L 771,2222 L 786,2219 L 788,2218 L 802,2218 L 804,2219 L 819,2222 L 820,2222 L 834,2228 L 835,2229 L 847,2238 L 848,2239 L 858,2250 L 859,2251 L 867,2264 L 867,2265 L 872,2280 L 872,2281 L 874,2296 L 874,2297 L 874,2505 L 875,2507 L 876,2508 L 882,2520 L 882,2521 L 886,2533 L 886,2535 L 886,2547 L 886,2549 L 884,2561 L 884,2563 L 880,2575 L 879,2576 L 872,2587 L 871,2588 L 863,2597 L 862,2598 L 851,2605 L 850,2606 L 838,2611 L 837,2612 L 825,2614 L 818,2618 L 816,2618 L 802,2622 L 800,2622 L 785,2623 L 784,2623 L 769,2621 L 768,2620 L 754,2615 L 752,2614 L 751,2614 L 747,2613 L 746,2613 L 734,2609 L 732,2608 L 721,2602 L 720,2602 L 711,2593 L 710,2592 L 702,2582 L 701,2581 L 695,2570 L 695,2568 L 692,2556 L 692,2554 L 691,2542 L 691,2540 L 693,2528 L 693,2526 L 698,2515 L 698,2513 L 705,2503 L 706,2501 L 715,2492 L 716,2491 L 716,2491 z " style="fill-opacity:1.000000;fill:rgb(50,13,183);stroke:rgb(0,0,0);stroke-width:2"/></g>
<g fill-rule="evenodd"><path d="M 1513,2375 L 1267,2375 L 1266,2375 L 1252,2374 L 1250,2373 L 1236,2369 L 1235,2368 L 1222,2361 L 1220,2360 L 1209,2350 L 1208,2349 L 1200,2337 L 1199,2335 L 1193,2322 L 1192,2320 L 1189,2306 L 1189,2304 L 1189,2289 L 1189,2288 L 1192,2273 L 1193,2272 L 1199,2258 L 1200,2257 L 1208,2245 L 1209,2243 L 1220,2233 L 1222,2233 L 1235,2225 L 1236,2224 L 1250,2220 L 1252,2220 L 1266,2218 L 1267,2218 L 1513,2218 L 1513,2218 L 1523,2210 L 1525,2209 L 1536,2203 L 1537,2203 L 1550,2200 L 1551,2200 L 1564,2199 L 1565,2199 L 1578,2201 L 1579,2201 L 1591,2206 L 1592,2206 L 1603,2213 L 1604,2214 L 1613,2223 L 1614,2224 L 1622,2234 L 1622,2235 L 1627,2247 L 1628,2249 L 1630,2259 L 1636,2272 L 1636,2273 L 1639,2288 L 1639,2289 L 1639,2304 L 1639,2306 L 1636,2320 L 1636,2322 L 1630,2334 L 1630,2338 L 1629,2339 L 1625,2351 L 1625,2353 L 1619,2364 L 1618,2365 L 1610,2375 L 1608,2376 L 1599,2383 L 1597,2384 L 1586,2390 L 1584,2390 L 1572,2394 L 1571,2394 L 1558,2394 L 1557,2394 L 1544,2392 L 1543,2392 L 1531,2388 L 1529,2387 L 1519,2380 L 1518,2379 L 1513,2375 z " style="fill-opacity:1.000000;fill:rgb(49,88,163);stroke:rgb(0,0,0);stroke-width:2"/></g>
<g fill-rule="evenodd"><path d="M 1897,2466 L 1897,2402 L 1897,2401 L 1899,2387 L 1899,2385 L 1904,2371 L 1904,2369 L 1912,2357 L 1913,2355 L 1923,2344 L 1924,2343 L 1936,2334 L 1937,2334 L 1951,2328 L 1952,2327 L 1967,2324 L 1968,2324 L 1983,2324 L 1985,2324 L 1999,2327 L 2001,2328 L 2014,2334 L 2016,2334 L 2028,2343 L 2029,2344 L 2039,2355 L 2040,2357 L 2047,2369 L 2048,2371 L 2053,2385 L 2053,2387 L 2055,2401 L 2055,2402 L 2055,2523 L 2054,2524 L 2052,2543 L 2052,2545 L 2044,2562 L 2043,2564 L 2032,2578 L 2031,2579 L 2010,2600 L 2009,2601 L 1995,2612 L 1993,2613 L 1976,2620 L 1974,2621 L 1956,2623 L 1955,2623 L 1589,2623 L 1588,2623 L 1573,2622 L 1571,2621 L 1557,2617 L 1556,2616 L 1551,2614 L 1547,2613 L 1546,2613 L 1534,2609 L 1532,2608 L 1521,2602 L 1520,2602 L 1510,2593 L 1509,2592 L 1502,2582 L 1501,2581 L 1495,2570 L 1495,2568 L 1492,2556 L 1491,2554 L 1491,2542 L 1491,2540 L 1493,2528 L 1493,2526 L 1497,2515 L 1498,2513 L 1505,2503 L 1506,2501 L 1514,2492 L 1516,2491 L 1526,2484 L 1527,2483 L 1539,2478 L 1540,2478 L 1552,2476 L 1556,2473 L 1557,2472 L 1571,2468 L 1573,2468 L 1588,2466 L 1589,2466 L 1897,2466 z " style="fill-opacity:1.000000;fill:rgb(90,37,93);stroke:rgb(0,0,0);stroke-width:2"/></g>
<g fill-rule="evenodd"><path d="M 3622,283 L 3163,742 L 3163,1110 L 3163,1110 L 3161,1126 L 3161,1128 L 3156,1143 L 3155,1144 L 3146,1158 L 3145,1159 L 3134,1170 L 3133,1172 L 3119,1180 L 3118,1181 L 3103,1186 L 3101,1186 L 3085,1188 L 3084,1188 L 2953,1188 L 2921,1221 L 2921,2290 L 2920,2291 L 2919,2306 L 2919,2359 L 2918,2361 L 2918,2363 L 2917,2364 L 2916,2365 L 2914,2366 L 2912,2367 L 2911,2367 L 2876,2367 L 2055,3189 L 2055,3393 L 2055,3393 L 2053,3408 L 2053,3410 L 2048,3424 L 2047,3425 L 2040,3438 L 2039,3439 L 2029,3450 L 2028,3452 L 2016,3460 L 2014,3461 L 2001,3467 L 1999,3468 L 1985,3471 L 1983,3471 L 1968,3471 L 1967,3471 L 1952,3468 L 1951,3467 L 1937,3461 L 1936,3460 L 1924,3452 L 1923,3450 L 1913,3439 L 1912,3438 L 1904,3425 L 1904,3424 L 1899,3410 L 1899,3408 L 1897,3393 L 1897,3393 L 1897,3156 L 1897,3155 L 1900,3137 L 1900,3135 L 1907,3118 L 1908,3116 L 1919,3101 L 1920,3101 L 2763,2258 L 2763,1188 L 2763,1187 L 2766,1169 L 2766,1167 L 2773,1150 L 2774,1148 L 2785,1133 L 2786,1133 L 2865,1054 L 2866,1053 L 2880,1042 L 2882,1041 L 2899,1034 L 2901,1033 L 2919,1031 L 2921,1031 L 3006,1031 L 3006,710 L 3006,709 L 3008,690 L 3009,688 L 3016,671 L 3017,669 L 3028,655 L 3029,654 L 3534,149 L 3535,148 L 3549,137 L 3551,136 L 3568,128 L 3570,128 L 3589,126 L 3590,125 L 4534,125 L 4535,126 L 4554,128 L 4556,128 L 4573,136 L 4575,137 L 4589,148 L 4590,149 L 4764,322 L 6502,322 L 6503,322 L 6518,324 L 6520,324 L 6534,329 L 6535,329 L 6542,333 L 6562,333 L 6564,333 L 6566,334 L 6567,335 L 6569,336 L 6570,338 L 6570,339 L 6570,341 L 6570,361 L 6571,362 L 6577,376 L 6578,377 L 6581,392 L 6581,394 L 6581,408 L 6581,410 L 6578,425 L 6577,426 L 6571,440 L 6570,441 L 6570,461 L 6570,463 L 6570,464 L 6569,466 L 6567,467 L 6566,468 L 6564,469 L 6562,469 L 6542,469 L 6535,473 L 6534,473 L 6520,478 L 6518,478 L 6503,480 L 6502,480 L 4810,480 L 4810,1274 L 4881,1346 L 5479,1346 L 5480,1346 L 5498,1348 L 5500,1349 L 5517,1356 L 5519,1357 L 5534,1368 L 5535,1369 L 6125,1959 L 6126,1960 L 6137,1975 L 6138,1976 L 6145,1993 L 6146,1995 L 6148,2014 L 6148,2015 L 6148,2290 L 6148,2291 L 6147,2305 L 6146,2307 L 6142,2321 L 6141,2323 L 6139,2326 L 6139,2351 L 6139,2353 L 6138,2355 L 6137,2356 L 6136,2357 L 6134,2358 L 6133,2359 L 6131,2359 L 6106,2359 L 6095,2364 L 6093,2365 L 6079,2368 L 6077,2368 L 6062,2368 L 6060,2368 L 6046,2365 L 6044,2364 L 6033,2359 L 6008,2359 L 6006,2359 L 6005,2358 L 6003,2357 L 6002,2356 L 6001,2355 L 6000,2353 L 6000,2351 L 6000,2326 L 5998,2323 L 5997,2321 L 5993,2307 L 5992,2305 L 5991,2291 L 5991,2290 L 5991,2047 L 5446,1503 L 4849,1503 L 4848,1503 L 4829,1501 L 4827,1500 L 4812,1494 L 4787,1494 L 4785,1494 L 4784,1493 L 4782,1492 L 4781,1491 L 4780,1489 L 4780,1488 L 4779,1486 L 4779,1466 L 4676,1363 L 4675,1362 L 4664,1347 L 4663,1345 L 4655,1328 L 4655,1326 L 4653,1308 L 4652,1307 L 4652,434 L 4502,283 L 3622,283 z " style="fill-opacity:1.000000;fill:rgb(5,23,88);stroke:rgb(0,0,0);stroke-width:2"/></g>
<g fill-rule="evenodd"><path d="M 3032,2802 L 2921,2913 L 2921,3314 L 2920,3315 L 2918,3333 L 2918,3335 L 2910,3352 L 2909,3354 L 2898,3369 L 2897,3369 L 2819,3448 L 2818,3449 L 2803,3460 L 2802,3461 L 2784,3468 L 2782,3469 L 2764,3471 L 2763,3471 L 2402,3471 L 2189,3684 L 2188,3685 L 2174,3696 L 2172,3697 L 2155,3704 L 2153,3705 L 2134,3707 L 2133,3707 L 716,3707 L 715,3707 L 697,3705 L 695,3704 L 678,3697 L 676,3696 L 661,3685 L 661,3684 L 110,3133 L 109,3133 L 98,3118 L 97,3116 L 89,3099 L 89,3097 L 87,3079 L 86,3078 L 86,1149 L 87,1148 L 89,1130 L 89,1128 L 97,1110 L 98,1109 L 109,1094 L 110,1093 L 621,581 L 622,581 L 637,570 L 638,569 L 656,561 L 658,561 L 676,559 L 677,558 L 1700,558 L 1701,559 L 1720,561 L 1722,561 L 1739,569 L 1741,570 L 1755,581 L 1756,581 L 2008,834 L 2100,834 L 2101,834 L 2116,836 L 2117,836 L 2131,840 L 2133,841 L 2146,849 L 2147,850 L 2158,859 L 2159,861 L 2168,873 L 2169,874 L 2175,888 L 2175,889 L 2178,904 L 2179,905 L 2179,920 L 2178,922 L 2175,936 L 2175,938 L 2169,951 L 2168,953 L 2159,965 L 2158,966 L 2147,976 L 2146,977 L 2133,984 L 2131,985 L 2117,989 L 2116,990 L 2101,991 L 2100,991 L 1976,991 L 1975,991 L 1956,989 L 1954,988 L 1937,981 L 1936,980 L 1921,969 L 1920,968 L 1668,716 L 709,716 L 244,1181 L 244,3045 L 749,3550 L 2101,3550 L 2302,3349 L 2302,3333 L 2302,3331 L 2302,3329 L 2303,3328 L 2305,3326 L 2306,3325 L 2308,3325 L 2309,3325 L 2330,3325 L 2331,3324 L 2348,3317 L 2350,3316 L 2368,3314 L 2369,3314 L 2730,3314 L 2763,3281 L 2763,2881 L 2763,2880 L 2766,2861 L 2766,2859 L 2773,2842 L 2774,2841 L 2785,2826 L 2786,2825 L 2944,2668 L 2944,2667 L 2959,2656 L 2961,2655 L 2978,2648 L 2980,2647 L 2998,2645 L 2999,2645 L 4927,2645 L 4928,2645 L 4947,2647 L 4949,2648 L 4966,2655 L 4968,2656 L 4982,2667 L 4983,2668 L 5196,2881 L 5951,2881 L 5952,2881 L 5971,2883 L 5973,2884 L 5990,2891 L 5992,2892 L 6006,2903 L 6007,2904 L 6310,3207 L 6326,3207 L 6328,3207 L 6330,3207 L 6331,3208 L 6332,3210 L 6333,3211 L 6334,3213 L 6334,3214 L 6334,3235 L 6339,3245 L 6340,3247 L 6344,3261 L 6344,3263 L 6345,3278 L 6345,3279 L 6343,3294 L 6342,3296 L 6337,3309 L 6336,3311 L 6334,3314 L 6334,3334 L 6334,3336 L 6333,3338 L 6332,3339 L 6331,3341 L 6330,3342 L 6328,3342 L 6326,3342 L 6306,3342 L 6303,3344 L 6301,3345 L 6287,3350 L 6286,3351 L 6271,3353 L 6270,3353 L 6255,3352 L 6253,3352 L 6239,3348 L 6237,3348 L 6227,3342 L 6206,3342 L 6205,3342 L 6203,3342 L 6201,3341 L 6200,3339 L 6199,3338 L 6199,3336 L 6198,3334 L 6198,3318 L 5919,3038 L 5164,3038 L 5163,3038 L 5144,3036 L 5142,3035 L 5127,3029 L 5102,3029 L 5100,3029 L 5099,3028 L 5097,3027 L 5096,3026 L 5095,3024 L 5094,3023 L 5094,3021 L 5094,3001 L 4895,2802 L 3032,2802 z " style="fill-opacity:1.000000;fill:rgb(233,94,212);stroke:rgb(0,0,0);stroke-width:2"/></g>
<g fill-rule="evenodd"><path d="M 1482,991 L 1300,991 L 1300,991 L 1285,990 L 1283,989 L 1269,985 L 1268,984 L 1255,977 L 1253,976 L 1242,966 L 1241,965 L 1233,953 L 1232,951 L 1226,938 L 1225,936 L 1222,922 L 1222,920 L 1222,905 L 1222,904 L 1225,889 L 1226,888 L 1232,874 L 1233,873 L 1241,861 L 1242,859 L 1253,850 L 1255,849 L 1268,841 L 1269,840 L 1283,836 L 1285,836 L 1300,834 L 1300,834 L 1543,834 L 1544,834 L 1562,836 L 1564,837 L 1581,844 L 1583,845 L 1598,856 L 1599,857 L 1617,875 L 1617,876 L 1629,891 L 1630,892 L 1637,909 L 1637,911 L 1640,930 L 1640,931 L 1640,1497 L 1640,1498 L 1638,1512 L 1638,1514 L 1633,1528 L 1633,1530 L 1630,1534 L 1630,1538 L 1629,1540 L 1625,1552 L 1625,1553 L 1619,1564 L 1618,1565 L 1610,1575 L 1608,1576 L 1599,1584 L 1597,1584 L 1586,1590 L 1584,1591 L 1572,1594 L 1571,1594 L 1558,1595 L 1557,1595 L 1544,1593 L 1543,1592 L 1531,1588 L 1529,1587 L 1519,1581 L 1518,1580 L 1509,1571 L 1507,1570 L 1500,1559 L 1500,1558 L 1495,1546 L 1494,1545 L 1492,1534 L 1489,1530 L 1489,1528 L 1484,1514 L 1484,1512 L 1482,1498 L 1482,1497 L 1482,991 z " style="fill-opacity:1.000000;fill:rgb(171,178,205);stroke:rgb(0,0,0);stroke-width:2"/></g>
<g fill-rule="evenodd"><path d="M 2220,1534 L 2220,1538 L 2220,1540 L 2216,1552 L 2215,1553 L 2209,1564 L 2208,1565 L 2200,1575 L 2199,1576 L 2189,1584 L 2188,1584 L 2176,1590 L 2175,1591 L 2163,1594 L 2161,1594 L 2149,1595 L 2147,1595 L 2135,1593 L 2133,1592 L 2121,1588 L 2120,1587 L 2109,1581 L 2108,1580 L 2099,1571 L 2098,1570 L 2091,1559 L 2090,1558 L 2085,1546 L 2085,1545 L 2082,1534 L 2080,1530 L 2079,1528 L 2075,1514 L 2074,1512 L 2073,1498 L 2073,1497 L 2073,1328 L 2073,1327 L 2075,1308 L 2076,1306 L 2083,1289 L 2084,1287 L 2095,1273 L 2096,1272 L 2173,1195 L 2173,1143 L 2173,1142 L 2175,1123 L 2176,1121 L 2183,1104 L 2184,1102 L 2195,1088 L 2196,1087 L 2229,1054 L 2229,1053 L 2241,1044 L 2242,1043 L 2255,1036 L 2257,1036 L 2271,1032 L 2273,1032 L 2288,1031 L 2289,1031 L 2304,1033 L 2306,1034 L 2319,1039 L 2321,1040 L 2333,1048 L 2335,1049 L 2345,1059 L 2346,1061 L 2354,1073 L 2355,1075 L 2360,1088 L 2361,1090 L 2363,1105 L 2363,1106 L 2362,1121 L 2362,1123 L 2358,1137 L 2358,1138 L 2351,1152 L 2350,1153 L 2341,1165 L 2340,1165 L 2330,1175 L 2330,1228 L 2330,1229 L 2328,1247 L 2327,1249 L 2320,1266 L 2319,1268 L 2308,1282 L 2307,1283 L 2230,1360 L 2230,1497 L 2230,1498 L 2229,1512 L 2228,1514 L 2224,1528 L 2223,1530 L 2220,1534 z " style="fill-opacity:1.000000;fill:rgb(198,155,180);stroke:rgb(0,0,0);stroke-width:2"/></g>
<g fill-rule="evenodd"><path d="M 18,0 L 7122,0 L 7123,0 L 7125,0 L 7127,0 L 7129,1 L 7131,2 L 7133,3 L 7134,4 L 7136,6 L 7137,7 L 7138,9 L 7139,10 L 7139,13 L 7140,14 L 7140,16 L 7140,17 L 7140,3776 L 7140,3778 L 7140,3778 L 7140,3779 L 7139,3782 L 7139,3783 L 7137,3786 L 7136,3788 L 7134,3790 L 7133,3790 L 7132,3791 L 7131,3791 L 7129,3793 L 7127,3793 L 7124,3794 L 7122,3794 L 18,3794 L 17,3794 L 15,3794 L 13,3793 L 11,3793 L 9,3792 L 7,3791 L 6,3790 L 4,3788 L 3,3787 L 2,3785 L 1,3783 L 1,3781 L 0,3779 L 0,3777 L 0,3776 L 0,17 L 0,16 L 0,14 L 1,13 L 1,10 L 2,9 L 3,7 L 4,6 L 6,4 L 7,3 L 9,2 L 11,1 L 13,0 L 15,0 L 17,0 L 18,0M 3316,3417 L 4218,3417 L 4259,3409 L 4294,3385 L 4561,3118 L 4562,3117 L 4564,3116 L 4565,3115 L 4567,3114 L 4569,3113 L 4571,3113 L 4573,3113 L 4575,3113 L 4577,3113 L 4579,3113 L 4580,3114 L 4582,3115 L 4584,3116 L 4586,3117 L 4586,3118 L 4815,3346 L 4849,3369 L 4890,3377 L 5871,3377 L 5912,3369 L 5945,3347 L 5967,3314 L 5975,3274 L 5967,3235 L 5945,3202 L 5912,3180 L 5871,3171 L 4939,3171 L 4938,3171 L 4935,3171 L 4933,3171 L 4931,3170 L 4929,3168 L 4927,3167 L 4926,3166 L 4648,2888 L 4613,2865 L 4598,2862 L 4597,2862 L 4595,2861 L 4594,2860 L 4592,2859 L 4590,2858 L 4589,2857 L 4588,2856 L 4587,2854 L 4586,2853 L 4585,2851 L 4584,2849 L 4584,2847 L 4584,2845 L 4584,2843 L 4584,2842 L 4584,2840 L 4585,2838 L 4586,2836 L 4586,2835 L 4588,2833 L 4589,2832 L 4590,2830 L 4592,2829 L 4593,2828 L 4595,2828 L 4597,2827 L 4599,2827 L 4601,2826 L 4601,2826 L 4877,2826 L 4878,2826 L 4881,2827 L 4883,2827 L 4885,2828 L 4887,2829 L 4889,2831 L 4890,2832 L 5064,3005 L 5064,3006 L 5066,3008 L 5067,3010 L 5068,3012 L 5069,3015 L 5069,3019 L 5072,3033 L 5079,3044 L 5089,3051 L 5104,3054 L 5123,3054 L 5125,3054 L 5165,3062 L 5901,3062 L 5902,3063 L 5905,3063 L 5907,3063 L 5909,3064 L 5911,3065 L 5913,3067 L 5914,3068 L 6168,3322 L 6169,3323 L 6171,3325 L 6172,3327 L 6173,3330 L 6173,3331 L 6176,3346 L 6183,3357 L 6194,3365 L 6208,3368 L 6219,3368 L 6220,3368 L 6223,3368 L 6225,3369 L 6226,3369 L 6266,3377 L 6307,3369 L 6307,3369 L 6310,3368 L 6312,3368 L 6314,3368 L 6325,3368 L 6338,3365 L 6349,3358 L 6356,3347 L 6359,3333 L 6359,3322 L 6359,3321 L 6360,3318 L 6361,3315 L 6361,3315 L 6369,3274 L 6361,3234 L 6361,3233 L 6360,3231 L 6359,3228 L 6359,3227 L 6359,3216 L 6357,3203 L 6350,3192 L 6339,3184 L 6323,3181 L 6322,3181 L 6319,3180 L 6317,3179 L 6314,3177 L 6314,3176 L 6025,2888 L 5991,2865 L 5950,2857 L 5214,2857 L 5213,2856 L 5210,2856 L 5208,2856 L 5206,2855 L 5204,2854 L 5202,2852 L 5201,2851 L 5002,2652 L 4967,2629 L 4926,2620 L 3001,2620 L 2960,2629 L 2925,2652 L 2770,2807 L 2747,2842 L 2739,2883 L 2739,3264 L 2739,3265 L 2738,3267 L 2738,3269 L 2737,3272 L 2736,3274 L 2734,3276 L 2734,3276 L 2726,3284 L 2725,3285 L 2723,3287 L 2721,3288 L 2719,3289 L 2717,3289 L 2714,3289 L 2713,3290 L 2371,3290 L 2329,3298 L 2328,3298 L 2326,3299 L 2323,3299 L 2322,3299 L 2311,3299 L 2298,3302 L 2287,3309 L 2279,3320 L 2276,3336 L 2276,3337 L 2275,3340 L 2274,3342 L 2272,3344 L 2271,3345 L 2096,3520 L 2095,3521 L 2093,3523 L 2091,3524 L 2089,3525 L 2087,3525 L 2084,3526 L 2083,3526 L 2004,3526 L 2003,3526 L 2001,3525 L 1999,3525 L 1997,3524 L 1996,3524 L 1994,3523 L 1992,3522 L 1991,3520 L 1990,3519 L 1988,3517 L 1988,3516 L 1987,3514 L 1986,3512 L 1986,3510 L 1986,3509 L 1986,3507 L 1986,3505 L 1986,3503 L 1987,3501 L 1988,3499 L 1989,3498 L 1990,3496 L 1991,3495 L 1993,3494 L 1994,3493 L 1996,3492 L 1997,3491 L 1999,3491 L 2000,3490 L 2015,3487 L 2048,3465 L 2071,3432 L 2079,3391 L 2079,3206 L 2079,3205 L 2079,3203 L 2080,3201 L 2081,3198 L 2082,3197 L 2083,3195 L 2084,3194 L 2880,2398 L 2881,2397 L 2883,2395 L 2885,2394 L 2887,2393 L 2889,2393 L 2892,2392 L 2893,2392 L 2909,2392 L 2922,2390 L 2934,2383 L 2941,2372 L 2944,2357 L 2944,2295 L 2944,2294 L 2945,2289 L 2945,1238 L 2945,1237 L 2945,1235 L 2946,1233 L 2947,1230 L 2948,1228 L 2949,1226 L 2950,1226 L 2958,1218 L 2959,1217 L 2961,1215 L 2963,1214 L 2965,1213 L 2967,1213 L 2970,1213 L 2971,1212 L 3083,1212 L 3124,1204 L 3157,1182 L 3179,1149 L 3187,1108 L 3187,760 L 3187,759 L 3188,756 L 3188,754 L 3189,752 L 3190,750 L 3192,748 L 3192,747 L 3627,312 L 3628,312 L 3630,310 L 3632,309 L 3634,308 L 3636,308 L 3639,307 L 3640,307 L 4246,307 L 4247,307 L 4249,307 L 4250,308 L 4252,308 L 4254,309 L 4256,310 L 4257,311 L 4259,313 L 4260,314 L 4261,316 L 4262,317 L 4263,319 L 4263,321 L 4264,323 L 4264,325 L 4264,327 L 4263,329 L 4263,331 L 4262,332 L 4261,334 L 4261,335 L 4243,362 L 4235,403 L 4235,1296 L 4235,1297 L 4234,1299 L 4234,1301 L 4233,1304 L 4232,1305 L 4230,1307 L 4229,1308 L 3828,1710 L 3827,1711 L 3825,1712 L 3823,1713 L 3821,1714 L 3819,1715 L 3816,1715 L 3815,1715 L 3356,1715 L 3355,1715 L 3353,1715 L 3351,1714 L 3349,1714 L 3348,1713 L 3346,1712 L 3344,1711 L 3343,1709 L 3342,1708 L 3341,1706 L 3340,1704 L 3339,1702 L 3339,1700 L 3338,1698 L 3338,1697 L 3338,1544 L 3337,1534 L 3336,1533 L 3336,1522 L 3333,1513 L 3332,1512 L 3330,1503 L 3326,1496 L 3325,1495 L 3321,1485 L 3314,1478 L 3313,1477 L 3308,1470 L 3301,1465 L 3300,1464 L 3293,1457 L 3283,1453 L 3282,1452 L 3275,1448 L 3266,1446 L 3265,1445 L 3256,1442 L 3245,1441 L 3244,1441 L 3235,1440 L 3227,1441 L 3226,1441 L 3215,1441 L 3206,1445 L 3205,1446 L 3196,1448 L 3189,1452 L 3188,1453 L 3178,1457 L 3171,1464 L 3170,1465 L 3163,1470 L 3158,1477 L 3157,1478 L 3150,1485 L 3146,1495 L 3145,1496 L 3141,1503 L 3139,1512 L 3138,1513 L 3134,1522 L 3134,1533 L 3134,1534 L 3132,1544 L 3132,1777 L 3141,1818 L 3164,1853 L 3201,1890 L 3236,1913 L 3265,1919 L 3266,1919 L 3268,1920 L 3269,1920 L 3271,1921 L 3272,1922 L 3274,1924 L 3275,1925 L 3276,1927 L 3277,1928 L 3278,1930 L 3279,1932 L 3279,1934 L 3279,1936 L 3279,1938 L 3279,1939 L 3278,1942 L 3278,1943 L 3277,1945 L 3276,1947 L 3274,1948 L 3274,1949 L 3164,2059 L 3141,2094 L 3132,2135 L 3132,2289 L 3134,2299 L 3134,2300 L 3134,2310 L 3138,2320 L 3139,2321 L 3141,2330 L 3145,2337 L 3146,2338 L 3150,2348 L 3157,2355 L 3158,2356 L 3163,2363 L 3170,2368 L 3171,2369 L 3178,2376 L 3188,2380 L 3189,2381 L 3196,2385 L 3205,2387 L 3206,2387 L 3215,2391 L 3226,2391 L 3227,2391 L 3235,2393 L 3244,2392 L 3245,2391 L 3255,2391 L 3265,2387 L 3266,2387 L 3275,2385 L 3282,2381 L 3283,2380 L 3293,2376 L 3300,2369 L 3301,2368 L 3308,2363 L 3313,2356 L 3314,2355 L 3321,2348 L 3325,2338 L 3326,2337 L 3330,2330 L 3332,2321 L 3333,2320 L 3336,2311 L 3336,2300 L 3337,2299 L 3338,2289 L 3338,2183 L 3338,2182 L 3339,2179 L 3339,2177 L 3340,2175 L 3341,2173 L 3343,2171 L 3344,2170 L 3391,2123 L 3392,2122 L 3394,2121 L 3396,2120 L 3398,2119 L 3400,2118 L 3403,2118 L 3404,2118 L 5350,2118 L 5351,2118 L 5354,2118 L 5356,2119 L 5358,2120 L 5360,2121 L 5362,2122 L 5363,2123 L 5838,2598 L 5873,2621 L 5914,2630 L 6343,2630 L 6384,2621 L 6419,2598 L 6574,2443 L 6597,2408 L 6605,2367 L 6605,2135 L 6597,2094 L 6574,2059 L 6228,1713 L 6227,1712 L 6226,1710 L 6225,1709 L 6224,1707 L 6223,1705 L 6223,1703 L 6223,1701 L 6223,1699 L 6223,1697 L 6223,1695 L 6224,1693 L 6225,1691 L 6226,1690 L 6227,1688 L 6228,1687 L 6968,947 L 6991,913 L 6999,872 L 6999,403 L 6991,362 L 6969,328 L 6935,306 L 6896,298 L 6857,306 L 6824,328 L 6801,362 L 6793,403 L 6793,823 L 6793,824 L 6793,827 L 6792,829 L 6791,831 L 6790,833 L 6789,835 L 6788,836 L 5998,1626 L 5975,1661 L 5967,1700 L 5972,1725 L 5972,1726 L 5972,1728 L 5972,1730 L 5972,1732 L 5972,1734 L 5971,1736 L 5970,1737 L 5969,1739 L 5968,1740 L 5967,1742 L 5965,1743 L 5964,1744 L 5962,1745 L 5960,1746 L 5958,1746 L 5956,1747 L 5955,1747 L 5953,1747 L 5951,1746 L 5949,1746 L 5947,1745 L 5945,1744 L 5944,1743 L 5942,1742 L 5942,1741 L 5553,1353 L 5518,1330 L 5477,1321 L 4899,1321 L 4898,1321 L 4895,1321 L 4893,1320 L 4891,1319 L 4889,1318 L 4887,1317 L 4886,1316 L 4839,1269 L 4839,1269 L 4837,1267 L 4836,1265 L 4835,1262 L 4835,1260 L 4834,1258 L 4834,1257 L 4834,522 L 4834,521 L 4834,519 L 4835,517 L 4836,515 L 4836,513 L 4838,511 L 4839,510 L 4840,508 L 4842,507 L 4843,506 L 4845,505 L 4847,505 L 4849,504 L 4851,504 L 4852,504 L 6501,504 L 6543,496 L 6543,495 L 6546,495 L 6549,494 L 6550,494 L 6561,494 L 6574,492 L 6585,484 L 6593,474 L 6596,459 L 6596,448 L 6596,447 L 6596,444 L 6597,442 L 6597,441 L 6605,401 L 6597,361 L 6597,360 L 6596,358 L 6596,355 L 6596,354 L 6596,343 L 6593,329 L 6586,318 L 6575,311 L 6561,308 L 6550,308 L 6549,308 L 6546,307 L 6543,307 L 6543,306 L 6501,298 L 4781,298 L 4780,298 L 4778,298 L 4776,297 L 4773,296 L 4771,295 L 4769,293 L 4769,293 L 4608,133 L 4574,109 L 4533,101 L 3591,101 L 3550,109 L 3516,133 L 3013,636 L 2989,670 L 2981,711 L 2981,989 L 2981,990 L 2981,992 L 2981,993 L 2980,996 L 2979,997 L 2978,999 L 2977,1000 L 2975,1002 L 2974,1003 L 2972,1004 L 2970,1005 L 2968,1006 L 2967,1006 L 2964,1006 L 2963,1007 L 2922,1007 L 2881,1015 L 2846,1038 L 2770,1114 L 2747,1149 L 2739,1190 L 2739,2240 L 2739,2241 L 2738,2244 L 2738,2246 L 2737,2248 L 2736,2250 L 2734,2252 L 2734,2253 L 1904,3082 L 1881,3117 L 1873,3158 L 1873,3391 L 1881,3432 L 1903,3465 L 1937,3487 L 1952,3490 L 1952,3491 L 1954,3491 L 1956,3492 L 1958,3493 L 1959,3494 L 1961,3495 L 1962,3496 L 1963,3498 L 1964,3499 L 1965,3501 L 1965,3503 L 1966,3505 L 1966,3507 L 1966,3509 L 1966,3510 L 1965,3512 L 1965,3514 L 1964,3516 L 1963,3517 L 1962,3519 L 1961,3520 L 1959,3522 L 1958,3523 L 1956,3524 L 1955,3524 L 1953,3525 L 1951,3525 L 1949,3526 L 1948,3526 L 766,3526 L 765,3526 L 763,3525 L 761,3525 L 758,3524 L 757,3523 L 754,3521 L 754,3520 L 273,3040 L 273,3039 L 271,3037 L 270,3036 L 269,3033 L 269,3031 L 268,3029 L 268,3028 L 268,1199 L 268,1198 L 269,1195 L 269,1193 L 270,1191 L 271,1189 L 273,1187 L 273,1186 L 714,745 L 715,745 L 717,743 L 719,742 L 721,741 L 723,741 L 726,740 L 727,740 L 1650,740 L 1651,740 L 1654,741 L 1656,741 L 1658,742 L 1660,743 L 1662,745 L 1663,745 L 1902,984 L 1937,1008 L 1978,1016 L 2098,1016 L 2139,1008 L 2173,985 L 2195,952 L 2203,913 L 2195,873 L 2173,840 L 2139,818 L 2098,810 L 2026,810 L 2025,810 L 2022,809 L 2020,809 L 2018,808 L 2016,807 L 2014,805 L 2013,804 L 1774,566 L 1740,542 L 1699,534 L 679,534 L 638,542 L 603,566 L 94,1075 L 70,1110 L 62,1151 L 62,3076 L 70,3117 L 94,3152 L 642,3700 L 677,3723 L 718,3732 L 2132,3732 L 2173,3723 L 2207,3700 L 2407,3501 L 2408,3500 L 2410,3498 L 2411,3497 L 2414,3496 L 2416,3496 L 2418,3496 L 2420,3495 L 2761,3495 L 2802,3487 L 2837,3464 L 2913,3388 L 2937,3353 L 2945,3312 L 2945,2931 L 2945,2930 L 2945,2927 L 2946,2925 L 2947,2923 L 2948,2921 L 2949,2919 L 2950,2918 L 3037,2832 L 3037,2831 L 3040,2829 L 3041,2828 L 3044,2827 L 3046,2827 L 3048,2826 L 3049,2826 L 4546,2826 L 4547,2826 L 4549,2827 L 4551,2827 L 4553,2828 L 4554,2828 L 4556,2829 L 4557,2830 L 4559,2832 L 4560,2833 L 4561,2835 L 4562,2836 L 4563,2838 L 4563,2840 L 4564,2842 L 4564,2843 L 4564,2845 L 4564,2847 L 4563,2849 L 4563,2851 L 4562,2853 L 4561,2854 L 4560,2856 L 4559,2857 L 4557,2858 L 4556,2859 L 4554,2860 L 4552,2861 L 4550,2862 L 4550,2862 L 4534,2865 L 4500,2888 L 4182,3206 L 4181,3206 L 4179,3208 L 4177,3209 L 4175,3210 L 4173,3210 L 4170,3211 L 4169,3211 L 3364,3211 L 3363,3211 L 3361,3210 L 3359,3210 L 3356,3209 L 3354,3208 L 3352,3206 L 3352,3206 L 3344,3198 L 3343,3197 L 3341,3195 L 3340,3193 L 3339,3191 L 3339,3189 L 3338,3186 L 3338,3185 L 3338,3040 L 3337,3030 L 3336,3028 L 3336,3018 L 3333,3009 L 3332,3007 L 3330,2999 L 3326,2992 L 3325,2990 L 3321,2981 L 3314,2974 L 3313,2973 L 3308,2966 L 3301,2961 L 3300,2960 L 3293,2953 L 3283,2949 L 3282,2948 L 3275,2943 L 3266,2942 L 3265,2941 L 3256,2937 L 3245,2937 L 3244,2937 L 3235,2936 L 3227,2937 L 3226,2937 L 3215,2937 L 3206,2941 L 3205,2942 L 3196,2943 L 3189,2948 L 3188,2949 L 3178,2953 L 3171,2960 L 3170,2961 L 3163,2966 L 3158,2973 L 3157,2974 L 3150,2981 L 3146,2990 L 3145,2992 L 3141,2999 L 3139,3007 L 3138,3009 L 3134,3018 L 3134,3028 L 3134,3030 L 3132,3040 L 3132,3233 L 3141,3274 L 3164,3309 L 3240,3385 L 3275,3409 L 3316,3417M 960,1892 L 1033,1966 L 1034,1966 L 1035,1968 L 1036,1970 L 1037,1971 L 1038,1973 L 1038,1975 L 1038,1977 L 1039,1979 L 1038,1980 L 1038,1983 L 1038,1984 L 1037,1986 L 1036,1988 L 1035,1989 L 1034,1991 L 1032,1992 L 1031,1993 L 1029,1994 L 1028,1995 L 1026,1996 L 1024,1996 L 1022,1996 L 1020,1996 L 1018,1996 L 1017,1996 L 990,1991 L 561,1991 L 520,1999 L 485,2022 L 444,2063 L 443,2064 L 441,2066 L 438,2067 L 436,2068 L 435,2068 L 404,2074 L 371,2096 L 349,2129 L 341,2169 L 349,2208 L 371,2241 L 404,2264 L 445,2272 L 482,2272 L 523,2264 L 558,2240 L 596,2202 L 597,2201 L 599,2199 L 601,2198 L 603,2197 L 605,2197 L 608,2197 L 609,2197 L 707,2197 L 708,2197 L 710,2197 L 712,2197 L 714,2198 L 716,2199 L 717,2200 L 719,2201 L 720,2202 L 721,2203 L 723,2205 L 724,2207 L 724,2209 L 725,2210 L 725,2213 L 725,2214 L 725,2216 L 725,2218 L 724,2220 L 724,2222 L 723,2224 L 722,2224 L 700,2257 L 692,2298 L 692,2472 L 692,2474 L 691,2476 L 691,2479 L 690,2481 L 689,2482 L 671,2509 L 664,2545 L 671,2581 L 692,2611 L 704,2619 L 706,2621 L 707,2623 L 708,2624 L 709,2626 L 709,2628 L 710,2630 L 710,2632 L 710,2634 L 710,2635 L 710,2637 L 709,2639 L 708,2641 L 707,2643 L 706,2644 L 705,2645 L 703,2647 L 702,2648 L 700,2649 L 698,2650 L 696,2650 L 696,2650 L 687,2652 L 676,2659 L 669,2670 L 666,2684 L 666,2805 L 668,2818 L 675,2829 L 686,2837 L 700,2840 L 877,2840 L 890,2837 L 901,2830 L 909,2819 L 912,2805 L 912,2684 L 909,2671 L 902,2660 L 891,2652 L 881,2650 L 881,2650 L 879,2650 L 877,2649 L 875,2648 L 874,2647 L 872,2645 L 871,2644 L 870,2642 L 869,2641 L 868,2639 L 868,2637 L 867,2635 L 867,2634 L 867,2632 L 867,2630 L 868,2628 L 868,2626 L 869,2624 L 870,2623 L 872,2621 L 873,2620 L 874,2619 L 875,2618 L 886,2611 L 906,2581 L 913,2545 L 906,2509 L 901,2501 L 900,2500 L 899,2498 L 898,2495 L 898,2492 L 898,2491 L 898,2324 L 898,2324 L 898,2321 L 899,2320 L 899,2318 L 900,2316 L 901,2315 L 902,2313 L 903,2312 L 905,2311 L 906,2309 L 908,2308 L 910,2308 L 911,2307 L 913,2307 L 915,2307 L 917,2307 L 919,2307 L 921,2307 L 922,2308 L 924,2309 L 926,2309 L 927,2311 L 928,2312 L 930,2313 L 931,2315 L 932,2317 L 933,2318 L 933,2320 L 933,2321 L 936,2336 L 959,2369 L 992,2391 L 1031,2399 L 1070,2391 L 1104,2369 L 1126,2336 L 1132,2307 L 1132,2306 L 1133,2304 L 1133,2303 L 1134,2301 L 1135,2299 L 1137,2298 L 1138,2297 L 1140,2296 L 1141,2295 L 1143,2294 L 1144,2293 L 1147,2293 L 1148,2293 L 1150,2293 L 1152,2293 L 1154,2293 L 1156,2294 L 1157,2295 L 1159,2296 L 1161,2297 L 1162,2298 L 1163,2299 L 1164,2301 L 1165,2303 L 1166,2304 L 1167,2306 L 1167,2307 L 1173,2336 L 1195,2369 L 1228,2391 L 1269,2400 L 1498,2400 L 1499,2400 L 1502,2400 L 1504,2401 L 1507,2402 L 1508,2403 L 1525,2414 L 1543,2418 L 1544,2418 L 1546,2418 L 1547,2419 L 1549,2420 L 1550,2421 L 1552,2423 L 1553,2424 L 1554,2426 L 1555,2427 L 1556,2429 L 1556,2431 L 1557,2433 L 1557,2434 L 1557,2436 L 1557,2438 L 1556,2440 L 1556,2442 L 1555,2444 L 1554,2445 L 1553,2447 L 1551,2448 L 1550,2449 L 1549,2450 L 1546,2452 L 1545,2453 L 1541,2454 L 1540,2454 L 1522,2458 L 1491,2478 L 1471,2509 L 1464,2545 L 1471,2581 L 1491,2611 L 1520,2630 L 1520,2630 L 1522,2632 L 1523,2633 L 1525,2635 L 1526,2636 L 1526,2638 L 1527,2640 L 1527,2642 L 1528,2644 L 1527,2646 L 1527,2648 L 1527,2650 L 1526,2652 L 1525,2654 L 1524,2655 L 1522,2657 L 1520,2659 L 1518,2660 L 1488,2684 L 1471,2715 L 1472,2717 L 1497,2717 L 1497,2715 L 1498,2713 L 1505,2703 L 1506,2701 L 1514,2692 L 1516,2691 L 1526,2684 L 1527,2683 L 1539,2678 L 1540,2678 L 1553,2675 L 1554,2675 L 1616,2675 L 1617,2675 L 1630,2676 L 1631,2676 L 1643,2680 L 1645,2681 L 1656,2687 L 1657,2688 L 1667,2696 L 1668,2697 L 1675,2707 L 1676,2708 L 1680,2717 L 1705,2717 L 1706,2715 L 1689,2684 L 1683,2679 L 1682,2679 L 1681,2677 L 1680,2676 L 1678,2674 L 1678,2672 L 1677,2670 L 1676,2669 L 1676,2666 L 1676,2665 L 1676,2662 L 1677,2661 L 1678,2659 L 1678,2657 L 1680,2655 L 1681,2654 L 1682,2652 L 1684,2651 L 1686,2650 L 1687,2649 L 1689,2648 L 1691,2648 L 1693,2648 L 1694,2648 L 1953,2648 L 1994,2639 L 2029,2616 L 2047,2597 L 2071,2563 L 2079,2522 L 2079,2423 L 2079,2422 L 2079,2420 L 2079,2418 L 2080,2416 L 2081,2415 L 2082,2413 L 2083,2412 L 2084,2410 L 2086,2409 L 2088,2408 L 2089,2407 L 2091,2406 L 2093,2406 L 2095,2405 L 2096,2405 L 2099,2405 L 2100,2405 L 2102,2406 L 2105,2407 L 2115,2414 L 2151,2421 L 2187,2414 L 2218,2394 L 2225,2383 L 2225,2382 L 2227,2381 L 2228,2380 L 2230,2378 L 2231,2377 L 2233,2377 L 2235,2376 L 2237,2375 L 2238,2375 L 2240,2375 L 2242,2375 L 2244,2376 L 2246,2376 L 2248,2377 L 2249,2378 L 2251,2379 L 2252,2380 L 2254,2382 L 2255,2383 L 2256,2385 L 2256,2387 L 2257,2389 L 2257,2390 L 2259,2398 L 2266,2409 L 2277,2417 L 2291,2420 L 2412,2420 L 2425,2417 L 2436,2410 L 2443,2399 L 2446,2385 L 2446,2208 L 2444,2195 L 2437,2184 L 2426,2177 L 2412,2174 L 2291,2174 L 2278,2176 L 2267,2183 L 2259,2194 L 2257,2204 L 2257,2205 L 2256,2207 L 2256,2208 L 2255,2210 L 2254,2212 L 2252,2213 L 2251,2214 L 2249,2215 L 2248,2216 L 2246,2217 L 2244,2218 L 2242,2218 L 2240,2218 L 2238,2218 L 2237,2218 L 2235,2217 L 2233,2217 L 2231,2216 L 2230,2215 L 2228,2214 L 2227,2213 L 2225,2211 L 2225,2210 L 2218,2200 L 2187,2179 L 2183,2178 L 2182,2178 L 2179,2177 L 2177,2176 L 2175,2174 L 2174,2174 L 1826,1825 L 1791,1802 L 1750,1794 L 1160,1794 L 1159,1794 L 1156,1793 L 1154,1793 L 1152,1792 L 1150,1791 L 1148,1789 L 1147,1789 L 1139,1781 L 1139,1780 L 1137,1778 L 1136,1776 L 1135,1774 L 1135,1772 L 1134,1769 L 1134,1768 L 1134,1525 L 1134,1524 L 1134,1522 L 1135,1520 L 1135,1518 L 1136,1517 L 1137,1515 L 1138,1513 L 1139,1512 L 1141,1511 L 1142,1509 L 1144,1509 L 1146,1508 L 1147,1507 L 1149,1507 L 1151,1507 L 1153,1507 L 1155,1507 L 1157,1507 L 1158,1508 L 1160,1509 L 1162,1510 L 1163,1511 L 1165,1512 L 1166,1514 L 1167,1515 L 1168,1517 L 1169,1518 L 1169,1520 L 1170,1521 L 1173,1536 L 1195,1569 L 1228,1592 L 1267,1599 L 1307,1592 L 1340,1569 L 1362,1536 L 1370,1495 L 1370,1308 L 1362,1267 L 1339,1232 L 1263,1156 L 1228,1133 L 1187,1125 L 482,1125 L 441,1133 L 406,1156 L 372,1190 L 349,1225 L 340,1266 L 340,1380 L 349,1421 L 371,1454 L 404,1476 L 443,1484 L 470,1479 L 471,1479 L 473,1479 L 474,1479 L 477,1479 L 478,1479 L 480,1480 L 482,1481 L 484,1482 L 485,1483 L 486,1484 L 487,1485 L 489,1487 L 489,1489 L 490,1491 L 491,1492 L 491,1494 L 491,1496 L 491,1498 L 491,1500 L 490,1502 L 490,1503 L 489,1505 L 488,1507 L 487,1508 L 486,1509 L 372,1623 L 349,1658 L 340,1699 L 340,1773 L 349,1814 L 371,1848 L 404,1870 L 443,1878 L 483,1870 L 516,1848 L 538,1814 L 546,1773 L 546,1747 L 547,1746 L 547,1744 L 547,1742 L 548,1739 L 549,1737 L 551,1735 L 552,1735 L 681,1605 L 682,1604 L 684,1603 L 686,1602 L 688,1601 L 690,1600 L 693,1600 L 694,1600 L 793,1600 L 834,1592 L 868,1569 L 890,1536 L 893,1521 L 893,1520 L 894,1518 L 894,1517 L 895,1515 L 896,1514 L 898,1512 L 899,1511 L 901,1510 L 902,1509 L 904,1508 L 905,1507 L 907,1507 L 909,1507 L 911,1507 L 913,1507 L 915,1507 L 917,1508 L 918,1509 L 920,1509 L 922,1511 L 923,1512 L 924,1513 L 925,1515 L 926,1517 L 927,1518 L 928,1520 L 928,1522 L 928,1524 L 928,1525 L 928,1816 L 936,1857 L 960,1892M 1553,2839 L 1561,2839 L 1561,2814 L 1561,2814 L 1560,2814 L 1547,2813 L 1546,2813 L 1534,2809 L 1532,2808 L 1521,2802 L 1520,2801 L 1510,2793 L 1509,2792 L 1502,2782 L 1501,2781 L 1497,2772 L 1472,2772 L 1471,2774 L 1488,2805 L 1517,2828 L 1553,2839M 1616,2839 L 1624,2839 L 1660,2828 L 1689,2805 L 1706,2774 L 1705,2772 L 1680,2772 L 1680,2775 L 1679,2776 L 1672,2787 L 1671,2788 L 1663,2797 L 1661,2798 L 1651,2805 L 1650,2806 L 1638,2811 L 1637,2811 L 1624,2814 L 1623,2814 L 1616,2814 L 1616,2839M 1606,3329 L 1625,3310 L 1625,3310 L 1596,3300 L 1559,3301 L 1539,3309 L 1539,3310 L 1558,3329 L 1560,3328 L 1562,3328 L 1574,3325 L 1576,3325 L 1588,3325 L 1590,3325 L 1602,3328 L 1604,3328 L 1606,3329M 1558,3456 L 1539,3475 L 1539,3475 L 1569,3485 L 1606,3484 L 1625,3476 L 1625,3475 L 1606,3456 L 1604,3457 L 1602,3457 L 1590,3460 L 1588,3460 L 1576,3460 L 1574,3460 L 1562,3457 L 1560,3457 L 1558,3456M 1499,3435 L 1500,3435 L 1519,3416 L 1516,3407 L 1516,3406 L 1514,3393 L 1514,3392 L 1516,3379 L 1516,3378 L 1519,3369 L 1500,3350 L 1500,3350 L 1489,3379 L 1491,3416 L 1499,3435M 1665,3435 L 1665,3435 L 1675,3406 L 1673,3369 L 1665,3350 L 1665,3350 L 1645,3369 L 1648,3378 L 1649,3379 L 1650,3392 L 1650,3393 L 1649,3406 L 1648,3407 L 1645,3416 L 1665,3435M 385,2655 L 502,2655 L 515,2653 L 526,2646 L 534,2635 L 537,2621 L 537,2504 L 534,2491 L 527,2480 L 516,2472 L 502,2469 L 385,2469 L 372,2472 L 361,2479 L 353,2490 L 350,2504 L 350,2621 L 353,2634 L 360,2645 L 371,2653 L 385,2655M 3539,3087 L 3541,3087 L 3559,3069 L 3559,3069 L 3554,3055 L 3554,3053 L 3552,3039 L 3552,3037 L 3554,3023 L 3554,3021 L 3559,3008 L 3559,3007 L 3541,2989 L 3539,2990 L 3527,3023 L 3529,3063 L 3539,3087M 3559,2260 L 3541,2241 L 3539,2242 L 3527,2275 L 3529,2315 L 3539,2339 L 3541,2339 L 3559,2321 L 3559,2321 L 3554,2307 L 3554,2306 L 3552,2291 L 3552,2290 L 3554,2275 L 3554,2274 L 3559,2260 L 3559,2260M 1789,1380 L 1789,1405 L 1791,1406 L 1792,1407 L 1803,1413 L 1804,1414 L 1813,1423 L 1814,1424 L 1822,1434 L 1822,1436 L 1827,1447 L 1828,1449 L 1830,1461 L 1830,1463 L 1830,1469 L 1855,1469 L 1855,1461 L 1844,1425 L 1821,1397 L 1790,1380 L 1789,1380M 1789,1589 L 1789,1613 L 1790,1614 L 1821,1597 L 1844,1568 L 1855,1532 L 1855,1525 L 1831,1525 L 1831,1525 L 1831,1526 L 1829,1538 L 1829,1540 L 1825,1552 L 1825,1553 L 1819,1564 L 1818,1565 L 1810,1575 L 1808,1576 L 1799,1584 L 1797,1584 L 1789,1589M 1206,952 L 1228,985 L 1261,1008 L 1302,1016 L 1440,1016 L 1441,1016 L 1443,1016 L 1445,1016 L 1447,1017 L 1449,1018 L 1451,1019 L 1452,1020 L 1454,1022 L 1455,1023 L 1456,1025 L 1457,1027 L 1457,1029 L 1458,1030 L 1458,1033 L 1458,1034 L 1458,1495 L 1466,1536 L 1468,1539 L 1469,1540 L 1470,1544 L 1471,1545 L 1474,1563 L 1495,1594 L 1525,1614 L 1561,1621 L 1597,1614 L 1627,1594 L 1646,1566 L 1647,1565 L 1648,1563 L 1649,1562 L 1651,1561 L 1653,1560 L 1655,1559 L 1656,1558 L 1659,1558 L 1660,1558 L 1663,1558 L 1664,1558 L 1667,1559 L 1668,1559 L 1670,1560 L 1672,1562 L 1673,1563 L 1675,1565 L 1677,1567 L 1700,1597 L 1732,1614 L 1733,1613 L 1733,1589 L 1731,1588 L 1729,1587 L 1719,1581 L 1718,1580 L 1708,1571 L 1707,1570 L 1700,1559 L 1699,1558 L 1695,1546 L 1694,1545 L 1692,1533 L 1691,1531 L 1691,1469 L 1691,1468 L 1692,1456 L 1693,1454 L 1696,1442 L 1697,1441 L 1703,1430 L 1704,1428 L 1712,1419 L 1713,1418 L 1723,1410 L 1725,1409 L 1733,1405 L 1733,1380 L 1732,1380 L 1700,1397 L 1696,1402 L 1695,1403 L 1694,1405 L 1692,1406 L 1690,1407 L 1689,1408 L 1687,1408 L 1685,1409 L 1683,1409 L 1681,1409 L 1679,1409 L 1677,1408 L 1675,1408 L 1673,1407 L 1671,1406 L 1670,1405 L 1668,1403 L 1667,1402 L 1666,1400 L 1665,1398 L 1665,1396 L 1664,1394 L 1664,1392 L 1664,1391 L 1664,933 L 1656,892 L 1633,857 L 1617,841 L 1582,818 L 1541,810 L 1302,810 L 1261,818 L 1228,840 L 1206,873 L 1198,913 L 1206,952M 2435,1425 L 2412,1397 L 2381,1380 L 2379,1380 L 2379,1405 L 2381,1406 L 2383,1407 L 2393,1413 L 2395,1414 L 2404,1423 L 2405,1424 L 2412,1434 L 2413,1436 L 2418,1447 L 2418,1449 L 2421,1461 L 2421,1463 L 2421,1469 L 2445,1469 L 2445,1461 L 2435,1425M 2048,1495 L 2057,1536 L 2059,1539 L 2059,1540 L 2061,1544 L 2061,1545 L 2065,1563 L 2085,1594 L 2116,1614 L 2151,1621 L 2187,1614 L 2218,1594 L 2236,1566 L 2237,1565 L 2238,1563 L 2240,1562 L 2242,1561 L 2243,1560 L 2245,1559 L 2247,1558 L 2249,1558 L 2251,1558 L 2253,1558 L 2255,1558 L 2257,1559 L 2259,1559 L 2261,1560 L 2262,1561 L 2264,1563 L 2265,1565 L 2267,1567 L 2291,1597 L 2322,1614 L 2323,1613 L 2323,1589 L 2321,1588 L 2320,1587 L 2309,1581 L 2308,1580 L 2299,1571 L 2298,1570 L 2291,1559 L 2290,1558 L 2285,1546 L 2284,1545 L 2282,1533 L 2282,1531 L 2281,1469 L 2282,1468 L 2283,1456 L 2283,1454 L 2287,1442 L 2288,1441 L 2294,1430 L 2294,1428 L 2303,1419 L 2304,1418 L 2314,1410 L 2315,1409 L 2323,1405 L 2323,1380 L 2322,1380 L 2291,1397 L 2286,1403 L 2286,1403 L 2284,1405 L 2283,1406 L 2281,1407 L 2279,1408 L 2277,1408 L 2275,1409 L 2273,1409 L 2271,1409 L 2269,1409 L 2267,1408 L 2265,1408 L 2264,1407 L 2262,1406 L 2260,1405 L 2259,1403 L 2258,1402 L 2257,1400 L 2256,1398 L 2255,1396 L 2255,1394 L 2254,1392 L 2254,1391 L 2254,1378 L 2254,1377 L 2255,1374 L 2255,1372 L 2256,1370 L 2257,1368 L 2259,1366 L 2260,1365 L 2323,1302 L 2346,1267 L 2354,1226 L 2354,1191 L 2354,1190 L 2355,1187 L 2356,1185 L 2357,1183 L 2357,1182 L 2379,1149 L 2387,1110 L 2379,1070 L 2357,1037 L 2324,1015 L 2284,1007 L 2245,1015 L 2210,1038 L 2180,1069 L 2157,1103 L 2148,1144 L 2148,1178 L 2148,1179 L 2148,1181 L 2147,1183 L 2146,1186 L 2145,1187 L 2144,1189 L 2143,1190 L 2080,1254 L 2057,1288 L 2048,1329 L 2048,1495M 2435,1568 L 2445,1532 L 2445,1525 L 2421,1525 L 2421,1525 L 2421,1526 L 2420,1538 L 2420,1540 L 2416,1552 L 2415,1553 L 2409,1564 L 2408,1565 L 2400,1575 L 2399,1576 L 2389,1584 L 2388,1584 L 2379,1589 L 2379,1613 L 2381,1614 L 2412,1597 L 2435,1568M 3529,1567 L 3539,1591 L 3541,1592 L 3559,1573 L 3559,1573 L 3554,1559 L 3554,1558 L 3552,1543 L 3552,1542 L 3554,1527 L 3554,1526 L 3559,1512 L 3559,1512 L 3541,1493 L 3539,1494 L 3527,1527 L 3529,1567M 3718,3087 L 3719,3087 L 3731,3054 L 3729,3013 L 3719,2990 L 3718,2989 L 3699,3007 L 3699,3008 L 3704,3021 L 3704,3023 L 3706,3037 L 3706,3039 L 3704,3053 L 3704,3055 L 3699,3069 L 3699,3069 L 3718,3087M 3678,3128 L 3678,3127 L 3660,3108 L 3654,3111 L 3652,3111 L 3638,3114 L 3636,3115 L 3622,3115 L 3620,3114 L 3606,3111 L 3605,3111 L 3598,3108 L 3580,3127 L 3580,3128 L 3613,3140 L 3654,3138 L 3678,3128M 3660,2968 L 3678,2950 L 3678,2948 L 3645,2936 L 3604,2938 L 3581,2948 L 3580,2950 L 3598,2968 L 3605,2966 L 3606,2965 L 3620,2962 L 3622,2962 L 3636,2962 L 3638,2962 L 3652,2965 L 3654,2966 L 3660,2968M 3580,2379 L 3580,2380 L 3613,2392 L 3654,2390 L 3678,2381 L 3678,2379 L 3660,2360 L 3654,2363 L 3652,2364 L 3638,2367 L 3636,2367 L 3622,2367 L 3620,2367 L 3606,2364 L 3605,2363 L 3598,2360 L 3580,2379M 3729,2266 L 3719,2242 L 3718,2241 L 3699,2260 L 3699,2260 L 3704,2274 L 3704,2275 L 3706,2290 L 3706,2291 L 3704,2306 L 3704,2307 L 3699,2321 L 3699,2321 L 3718,2339 L 3719,2339 L 3731,2306 L 3729,2266M 3678,2202 L 3678,2201 L 3645,2189 L 3604,2190 L 3581,2200 L 3580,2202 L 3598,2220 L 3605,2218 L 3606,2217 L 3620,2214 L 3622,2214 L 3636,2214 L 3638,2214 L 3652,2217 L 3654,2218 L 3660,2220 L 3678,2202M 3731,1558 L 3729,1518 L 3719,1494 L 3718,1493 L 3699,1512 L 3699,1512 L 3704,1526 L 3704,1527 L 3706,1542 L 3706,1543 L 3704,1558 L 3704,1559 L 3699,1573 L 3699,1573 L 3718,1592 L 3719,1591 L 3731,1558M 3678,1633 L 3678,1631 L 3660,1612 L 3654,1615 L 3652,1616 L 3638,1619 L 3636,1619 L 3622,1619 L 3620,1619 L 3606,1616 L 3605,1615 L 3598,1612 L 3580,1631 L 3580,1632 L 3613,1644 L 3654,1643 L 3678,1633M 3678,1454 L 3678,1453 L 3645,1441 L 3604,1442 L 3581,1452 L 3580,1454 L 3598,1473 L 3605,1470 L 3606,1469 L 3620,1466 L 3622,1466 L 3636,1466 L 3638,1466 L 3652,1469 L 3654,1470 L 3660,1473 L 3678,1454 z " style="fill-opacity:1.000000;fill:rgb(84,17,14);stroke:rgb(0,0,0);stroke-width:2"/></g>
</svg>
