<?xml version="1.0" standalone="no"?>
<!DOCTYPE svg PUBLIC "-//W3C//DTD SVG 1.1//EN"
"http://www.w3.org/Graphics/SVG/1.1/DTD/svg11.dtd">
<svg width="7133" height="4026" viewBox="0 0 7133 4026" version="1.1"
xmlns="http://www.w3.org/2000/svg"
xmlns:xlink="http://www.w3.org/1999/xlink">
<g fill-rule="evenodd"><path d="M 0,3772 L 0,13 L 0,13 L 0,11 L 0,10 L 1,8 L 1,7 L 3,5 L 3,4 L 5,3 L 6,2 L 7,1 L 8,1 L 10,0 L 11,0 L 13,0 L 14,0 L 7118,0 L 7119,0 L 7121,0 L 7122,0 L 7124,1 L 7125,1 L 7126,2 L 7127,3 L 7129,4 L 7129,5 L 7130,7 L 7131,8 L 7132,10 L 7132,11 L 7132,13 L 7132,13 L 7132,3773 L 7132,3773 L 7131,3777 L 7131,3778 L 7130,3780 L 7129,3781 L 7128,3782 L 7127,3783 L 7125,3784 L 7125,3784 L 7123,3785 L 7122,3785 L 7119,3786 L 7118,3786 L 14,3786 L 13,3786 L 11,3786 L 10,3786 L 8,3785 L 7,3784 L 6,3783 L 5,3783 L 3,3781 L 3,3780 L 1,3779 L 1,3778 L 0,3776 L 0,3775 L 0,3773 L 0,3772 z " style="fill-opacity:1.000000;fill:rgb(103,198,105);stroke:rgb(0,0,0);stroke-width:2"/></g>
<g fill-rule="evenodd"><path d="M 84,4023 L 83,4022 L 82,4021 L 82,4019 L 82,4017 L 82,4016 L 82,4014 L 83,4013 L 84,4012 L 85,4011 L 86,4010 L 88,4010 L 90,4009 L 91,4010 L 93,4010 L 94,4011 L 95,4012 L 96,4013 L 97,4014 L 98,4016 L 98,4017 L 98,4017 L 98,4019 L 97,4020 L 97,4021 L 96,4022 L 95,4023 L 94,4024 L 93,4025 L 91,4025 L 90,4025 L 90,4025 L 88,4025 L 87,4025 L 86,4025 L 85,4024 L 84,4023 z " style="fill-opacity:1.000000;fill:rgb(115,81,255);stroke:rgb(0,0,0);stroke-width:2"/></g>
</svg>
