<?xml version="1.0" standalone="no"?>
<!DOCTYPE svg PUBLIC "-//W3C//DTD SVG 1.1//EN"
"http://www.w3.org/Graphics/SVG/1.1/DTD/svg11.dtd">
<svg width="7125" height="3779" viewBox="0 0 7125 3779" version="1.1"
xmlns="http://www.w3.org/2000/svg"
xmlns:xlink="http://www.w3.org/1999/xlink">
<g fill-rule="evenodd"><path d="M 3298,1739 L 3828,1739 L 4259,1309 L 4259,393 L 4260,378 L 4265,364 L 4272,351 L 4282,340 L 4294,332 L 4308,326 L 4322,323 L 4337,323 L 4352,326 L 4365,332 L 4377,340 L 4387,351 L 4394,364 L 4399,378 L 4400,393 L 4400,1338 L 4398,1356 L 4391,1373 L 4380,1388 L 3907,1860 L 3893,1872 L 3876,1879 L 3857,1881 L 3267,1881 L 3248,1879 L 3231,1872 L 3217,1860 L 3177,1821 L 3166,1806 L 3159,1789 L 3157,1771 L 3157,1535 L 3158,1520 L 3163,1506 L 3170,1493 L 3180,1482 L 3192,1473 L 3206,1467 L 3220,1464 L 3235,1464 L 3249,1467 L 3263,1473 L 3275,1482 L 3285,1493 L 3292,1506 L 3297,1520 L 3298,1535 L 3298,1739 z " style="fill-opacity:1.000000;fill:rgb(103,198,105);stroke:rgb(0,0,0);stroke-width:2"/></g>
<g fill-rule="evenodd"><path d="M 3375,2078 L 3298,2155 L 3298,2283 L 3297,2297 L 3292,2311 L 3285,2324 L 3275,2335 L 3263,2344 L 3249,2350 L 3235,2353 L 3220,2353 L 3206,2350 L 3192,2344 L 3180,2335 L 3170,2324 L 3163,2311 L 3158,2297 L 3157,2283 L 3157,2125 L 3159,2107 L 3166,2090 L 3177,2075 L 3295,1957 L 3310,1946 L 3327,1939 L 3345,1936 L 5392,1936 L 5411,1939 L 5428,1946 L 5443,1957 L 5934,2448 L 6308,2448 L 6424,2332 L 6424,2155 L 6012,1742 L 6002,1730 L 5995,1716 L 5991,1700 L 5991,1684 L 5995,1669 L 6002,1654 L 6012,1642 L 6817,836 L 6817,393 L 6819,378 L 6824,364 L 6831,351 L 6841,340 L 6853,332 L 6866,326 L 6881,323 L 6896,323 L 6910,326 L 6924,332 L 6936,340 L 6946,351 L 6953,364 L 6958,378 L 6959,393 L 6959,866 L 6957,884 L 6950,901 L 6938,916 L 6162,1692 L 6545,2075 L 6556,2090 L 6563,2107 L 6566,2125 L 6566,2361 L 6563,2380 L 6556,2397 L 6545,2411 L 6387,2569 L 6373,2580 L 6356,2587 L 6337,2590 L 5904,2590 L 5886,2587 L 5869,2580 L 5854,2569 L 5363,2078 L 3375,2078 z " style="fill-opacity:1.000000;fill:rgb(115,81,255);stroke:rgb(0,0,0);stroke-width:2"/></g>
<g fill-rule="evenodd"><path d="M 3335,3235 L 4182,3235 L 4516,2902 L 4528,2892 L 4542,2885 L 4558,2881 L 4574,2881 L 4589,2885 L 4603,2892 L 4616,2902 L 4910,3196 L 5865,3196 L 5880,3197 L 5894,3202 L 5906,3209 L 5917,3219 L 5926,3231 L 5932,3245 L 5935,3259 L 5935,3274 L 5932,3289 L 5926,3302 L 5917,3314 L 5906,3324 L 5894,3331 L 5880,3336 L 5865,3338 L 4881,3338 L 4862,3335 L 4845,3328 L 4831,3317 L 4566,3052 L 4262,3356 L 4247,3367 L 4230,3375 L 4212,3377 L 3306,3377 L 3288,3375 L 3271,3367 L 3256,3356 L 3177,3277 L 3166,3263 L 3159,3246 L 3157,3227 L 3157,3031 L 3158,3016 L 3163,3002 L 3170,2989 L 3180,2978 L 3192,2969 L 3206,2963 L 3220,2960 L 3235,2960 L 3249,2963 L 3263,2969 L 3275,2978 L 3285,2989 L 3292,3002 L 3297,3016 L 3298,3031 L 3298,3198 L 3335,3235 z " style="fill-opacity:1.000000;fill:rgb(74,236,41);stroke:rgb(0,0,0);stroke-width:2"/></g>
<g fill-rule="evenodd"><path d="M 580,2157 L 526,2211 L 511,2222 L 494,2229 L 475,2232 L 435,2232 L 421,2230 L 406,2226 L 394,2218 L 383,2208 L 374,2196 L 368,2183 L 365,2168 L 365,2154 L 368,2139 L 374,2126 L 383,2114 L 394,2104 L 406,2096 L 421,2092 L 435,2090 L 446,2090 L 501,2036 L 515,2024 L 532,2017 L 551,2015 L 984,2015 L 1002,2017 L 1019,2024 L 1034,2036 L 1073,2075 L 1084,2090 L 1091,2107 L 1094,2125 L 1094,2289 L 1092,2304 L 1088,2318 L 1080,2331 L 1070,2342 L 1058,2350 L 1045,2356 L 1030,2359 L 1016,2359 L 1001,2356 L 988,2350 L 976,2342 L 966,2331 L 958,2318 L 954,2304 L 952,2289 L 952,2157 L 580,2157 z " style="fill-opacity:1.000000;fill:rgb(205,186,171);stroke:rgb(0,0,0);stroke-width:2"/></g>
<g fill-rule="evenodd"><path d="M 506,1291 L 506,1374 L 505,1388 L 500,1403 L 493,1415 L 483,1426 L 471,1435 L 457,1441 L 443,1444 L 428,1444 L 413,1441 L 400,1435 L 388,1426 L 378,1415 L 371,1403 L 366,1388 L 364,1374 L 364,1256 L 367,1238 L 374,1221 L 385,1206 L 422,1170 L 436,1158 L 454,1151 L 472,1149 L 1180,1149 L 1199,1151 L 1216,1158 L 1231,1170 L 1309,1248 L 1321,1263 L 1328,1280 L 1330,1299 L 1330,1489 L 1328,1504 L 1324,1518 L 1316,1531 L 1307,1542 L 1295,1550 L 1281,1556 L 1267,1560 L 1252,1560 L 1237,1556 L 1224,1550 L 1212,1542 L 1202,1531 L 1194,1518 L 1190,1504 L 1188,1489 L 1188,1328 L 1151,1291 L 506,1291 z " style="fill-opacity:1.000000;fill:rgb(242,251,227);stroke:rgb(0,0,0);stroke-width:2"/></g>
<g fill-rule="evenodd"><path d="M 665,1560 L 506,1719 L 506,1767 L 505,1782 L 500,1796 L 493,1809 L 483,1820 L 471,1829 L 457,1835 L 443,1838 L 428,1838 L 413,1835 L 400,1829 L 388,1820 L 378,1809 L 371,1796 L 366,1782 L 364,1767 L 364,1689 L 367,1671 L 374,1654 L 385,1639 L 586,1439 L 600,1428 L 617,1421 L 636,1418 L 787,1418 L 802,1420 L 816,1424 L 828,1432 L 839,1442 L 848,1454 L 854,1467 L 857,1482 L 857,1496 L 854,1511 L 848,1524 L 839,1536 L 828,1546 L 816,1554 L 802,1558 L 787,1560 L 665,1560 z " style="fill-opacity:1.000000;fill:rgb(70,124,194);stroke:rgb(0,0,0);stroke-width:2"/></g>
<g fill-rule="evenodd"><path d="M 0,9 L 0,7 L 0,5 L 2,3 L 3,2 L 5,0 L 7,0 L 10,0 L 7114,0 L 7117,0 L 7119,0 L 7121,2 L 7122,3 L 7124,5 L 7124,7 L 7124,9 L 7124,3769 L 7124,3772 L 7123,3774 L 7120,3777 L 7118,3778 L 7114,3779 L 10,3779 L 7,3778 L 5,3778 L 3,3776 L 2,3775 L 0,3773 L 0,3771 L 0,3769 L 0,1141 L 0,9M 3307,3417 L 4211,3417 L 4254,3408 L 4291,3384 L 4559,3116 L 4560,3114 L 4562,3113 L 4565,3113 L 4567,3113 L 4569,3113 L 4571,3114 L 4573,3116 L 4802,3344 L 4838,3369 L 4882,3378 L 5864,3378 L 5907,3369 L 5943,3345 L 5967,3309 L 5975,3267 L 5967,3224 L 5943,3189 L 5907,3165 L 5864,3156 L 4931,3156 L 4928,3156 L 4926,3155 L 4924,3153 L 4645,2874 L 4608,2850 L 4592,2846 L 4590,2846 L 4588,2845 L 4586,2843 L 4585,2842 L 4584,2840 L 4584,2838 L 4584,2836 L 4584,2833 L 4585,2832 L 4586,2830 L 4588,2828 L 4589,2827 L 4591,2827 L 4594,2827 L 4869,2827 L 4872,2827 L 4874,2828 L 4877,2829 L 5050,3003 L 5052,3005 L 5053,3008 L 5053,3012 L 5056,3028 L 5065,3042 L 5078,3051 L 5095,3054 L 5116,3055 L 5157,3063 L 5894,3063 L 5896,3063 L 5898,3064 L 5901,3066 L 6155,3320 L 6156,3322 L 6157,3325 L 6160,3342 L 6169,3355 L 6183,3364 L 6199,3368 L 6211,3368 L 6214,3368 L 6216,3369 L 6258,3377 L 6301,3369 L 6303,3368 L 6306,3368 L 6318,3368 L 6333,3365 L 6347,3356 L 6356,3343 L 6359,3326 L 6359,3314 L 6360,3311 L 6361,3310 L 6369,3267 L 6361,3224 L 6360,3222 L 6359,3219 L 6359,3208 L 6356,3192 L 6348,3178 L 6334,3169 L 6316,3166 L 6314,3165 L 6311,3163 L 6023,2874 L 5986,2850 L 5943,2841 L 5206,2841 L 5203,2841 L 5201,2840 L 5199,2838 L 4999,2638 L 4962,2613 L 4919,2605 L 2992,2605 L 2949,2613 L 2912,2638 L 2756,2794 L 2732,2831 L 2723,2874 L 2723,3256 L 2723,3259 L 2722,3261 L 2720,3263 L 2712,3271 L 2710,3273 L 2708,3274 L 2705,3274 L 2362,3274 L 2319,3283 L 2317,3283 L 2314,3284 L 2302,3284 L 2287,3287 L 2273,3296 L 2264,3309 L 2260,3327 L 2259,3330 L 2257,3332 L 2082,3507 L 2080,3509 L 2078,3510 L 2075,3510 L 1995,3510 L 1993,3510 L 1991,3509 L 1990,3508 L 1988,3507 L 1987,3505 L 1986,3503 L 1985,3501 L 1986,3499 L 1986,3497 L 1987,3495 L 1988,3493 L 1990,3492 L 1991,3491 L 1993,3490 L 2010,3487 L 2046,3463 L 2070,3427 L 2079,3384 L 2079,3199 L 2079,3196 L 2080,3194 L 2082,3192 L 2878,2395 L 2880,2394 L 2882,2393 L 2885,2393 L 2902,2393 L 2917,2390 L 2931,2381 L 2940,2367 L 2944,2351 L 2944,2288 L 2945,2282 L 2945,1230 L 2945,1228 L 2946,1225 L 2948,1223 L 2955,1215 L 2958,1214 L 2960,1213 L 2963,1213 L 3075,1213 L 3119,1204 L 3154,1180 L 3178,1144 L 3187,1101 L 3187,752 L 3187,749 L 3188,747 L 3190,745 L 3625,310 L 3627,309 L 3629,308 L 3632,307 L 4238,307 L 4240,307 L 4242,308 L 4244,309 L 4245,311 L 4247,312 L 4247,314 L 4248,317 L 4248,319 L 4247,321 L 4246,323 L 4227,351 L 4219,394 L 4219,1288 L 4218,1290 L 4217,1293 L 4216,1295 L 3814,1696 L 3812,1698 L 3810,1699 L 3807,1699 L 3348,1699 L 3346,1699 L 3344,1698 L 3342,1697 L 3340,1696 L 3339,1694 L 3339,1692 L 3338,1689 L 3338,1536 L 3336,1525 L 3336,1513 L 3332,1502 L 3330,1492 L 3324,1484 L 3320,1473 L 3311,1465 L 3306,1456 L 3297,1451 L 3289,1442 L 3278,1438 L 3270,1432 L 3260,1430 L 3249,1426 L 3237,1426 L 3227,1424 L 3218,1426 L 3206,1426 L 3195,1430 L 3185,1432 L 3177,1438 L 3166,1442 L 3157,1451 L 3149,1456 L 3143,1465 L 3135,1473 L 3131,1484 L 3125,1492 L 3123,1502 L 3119,1513 L 3119,1525 L 3117,1536 L 3117,1770 L 3125,1813 L 3150,1850 L 3188,1888 L 3224,1913 L 3255,1919 L 3257,1919 L 3259,1920 L 3261,1922 L 3262,1924 L 3263,1926 L 3263,1928 L 3263,1930 L 3263,1932 L 3262,1934 L 3260,1936 L 3150,2046 L 3125,2083 L 3117,2126 L 3117,2282 L 3119,2293 L 3118,2304 L 3123,2315 L 3125,2325 L 3131,2333 L 3135,2344 L 3143,2353 L 3149,2361 L 3157,2367 L 3166,2375 L 3177,2379 L 3185,2385 L 3195,2387 L 3206,2392 L 3217,2392 L 3227,2393 L 3237,2392 L 3249,2392 L 3260,2387 L 3270,2385 L 3278,2379 L 3289,2375 L 3297,2367 L 3306,2361 L 3311,2353 L 3320,2344 L 3324,2333 L 3330,2325 L 3332,2315 L 3336,2304 L 3336,2293 L 3338,2282 L 3338,2175 L 3339,2173 L 3340,2170 L 3341,2168 L 3388,2121 L 3391,2119 L 3393,2118 L 3396,2118 L 5342,2118 L 5345,2118 L 5347,2119 L 5349,2121 L 5825,2597 L 5862,2621 L 5905,2630 L 6336,2630 L 6380,2621 L 6416,2597 L 6572,2440 L 6597,2404 L 6606,2360 L 6606,2126 L 6597,2083 L 6572,2046 L 6225,1699 L 6224,1697 L 6223,1695 L 6223,1693 L 6223,1691 L 6223,1689 L 6224,1687 L 6225,1685 L 6966,945 L 6991,908 L 6999,865 L 6999,394 L 6991,351 L 6967,315 L 6931,291 L 6888,282 L 6846,291 L 6810,315 L 6786,351 L 6777,394 L 6777,815 L 6777,818 L 6776,820 L 6775,823 L 5984,1613 L 5959,1650 L 5951,1692 L 5956,1719 L 5957,1721 L 5956,1723 L 5956,1725 L 5954,1727 L 5953,1729 L 5951,1730 L 5949,1731 L 5947,1731 L 5945,1731 L 5943,1730 L 5941,1729 L 5939,1728 L 5550,1339 L 5514,1314 L 5470,1306 L 4891,1306 L 4888,1305 L 4886,1304 L 4884,1303 L 4837,1256 L 4835,1254 L 4834,1252 L 4834,1249 L 4834,514 L 4834,512 L 4835,510 L 4836,508 L 4838,506 L 4840,505 L 4842,504 L 4844,504 L 6494,504 L 6537,495 L 6539,495 L 6542,494 L 6554,494 L 6569,491 L 6583,482 L 6592,469 L 6596,452 L 6596,440 L 6596,438 L 6597,436 L 6605,393 L 6597,350 L 6596,349 L 6596,346 L 6596,334 L 6593,318 L 6584,305 L 6571,296 L 6554,292 L 6542,292 L 6539,292 L 6537,291 L 6494,282 L 4773,282 L 4771,282 L 4768,281 L 4766,279 L 4606,119 L 4569,94 L 4525,85 L 3583,85 L 3539,94 L 3503,119 L 2999,623 L 2974,659 L 2965,703 L 2965,981 L 2965,983 L 2964,985 L 2963,987 L 2962,989 L 2960,990 L 2958,991 L 2955,991 L 2913,991 L 2870,999 L 2833,1024 L 2756,1101 L 2732,1138 L 2723,1181 L 2723,2233 L 2723,2235 L 2722,2238 L 2720,2240 L 1890,3070 L 1866,3106 L 1857,3150 L 1857,3384 L 1865,3427 L 1889,3463 L 1925,3487 L 1942,3490 L 1944,3491 L 1946,3492 L 1947,3493 L 1949,3495 L 1950,3497 L 1950,3499 L 1950,3501 L 1950,3503 L 1949,3505 L 1947,3507 L 1946,3508 L 1944,3509 L 1942,3510 L 1940,3510 L 758,3510 L 756,3510 L 753,3509 L 751,3507 L 271,3027 L 269,3025 L 268,3022 L 268,3020 L 268,1191 L 268,1189 L 269,1186 L 271,1184 L 712,743 L 714,742 L 716,741 L 719,740 L 1642,740 L 1645,741 L 1647,742 L 1649,743 L 1889,983 L 1925,1007 L 1969,1016 L 2091,1016 L 2134,1007 L 2170,983 L 2194,947 L 2203,905 L 2194,863 L 2170,827 L 2134,803 L 2091,794 L 2018,794 L 2015,794 L 2013,793 L 2011,791 L 1771,552 L 1735,527 L 1691,518 L 670,518 L 626,527 L 590,552 L 79,1062 L 55,1099 L 46,1142 L 46,3069 L 55,3112 L 79,3149 L 629,3699 L 666,3723 L 709,3732 L 2124,3732 L 2168,3723 L 2204,3699 L 2404,3499 L 2406,3497 L 2409,3496 L 2411,3496 L 2754,3496 L 2797,3487 L 2834,3463 L 2911,3385 L 2936,3348 L 2945,3305 L 2945,2923 L 2945,2921 L 2946,2918 L 2948,2916 L 3034,2829 L 3036,2828 L 3039,2827 L 3041,2827 L 4538,2827 L 4540,2827 L 4542,2827 L 4544,2828 L 4546,2830 L 4547,2832 L 4548,2833 L 4548,2836 L 4548,2838 L 4548,2840 L 4547,2842 L 4545,2843 L 4544,2845 L 4542,2846 L 4540,2846 L 4523,2850 L 4487,2874 L 4169,3192 L 4166,3194 L 4164,3195 L 4161,3195 L 3356,3195 L 3354,3195 L 3351,3194 L 3349,3192 L 3341,3184 L 3340,3182 L 3339,3180 L 3338,3177 L 3338,3032 L 3336,3021 L 3336,3009 L 3332,2998 L 3330,2988 L 3324,2980 L 3320,2969 L 3311,2961 L 3306,2952 L 3297,2947 L 3289,2938 L 3278,2934 L 3270,2928 L 3260,2926 L 3249,2922 L 3237,2922 L 3227,2920 L 3218,2922 L 3206,2922 L 3195,2926 L 3185,2928 L 3177,2934 L 3166,2938 L 3157,2947 L 3149,2952 L 3143,2961 L 3135,2969 L 3131,2980 L 3125,2988 L 3123,2998 L 3119,3009 L 3119,3021 L 3117,3032 L 3117,3226 L 3125,3270 L 3150,3306 L 3227,3384 L 3264,3408 L 3307,3417M 376,2656 L 494,2656 L 510,2653 L 524,2644 L 533,2631 L 536,2614 L 536,2496 L 533,2480 L 524,2466 L 511,2457 L 494,2454 L 376,2454 L 361,2457 L 347,2465 L 338,2479 L 334,2496 L 334,2614 L 337,2629 L 346,2643 L 359,2652 L 376,2656M 3561,2998 L 3535,2973 L 3525,2976 L 3511,3014 L 3513,3057 L 3525,3085 L 3535,3089 L 3561,3063 L 3558,3059 L 3554,3045 L 3552,3031 L 3554,3016 L 3558,3003 L 3561,2998M 3561,1502 L 3535,1477 L 3525,1480 L 3511,1518 L 3513,1561 L 3525,1590 L 3535,1593 L 3561,1567 L 3558,1563 L 3554,1549 L 3552,1535 L 3554,1520 L 3558,1507 L 3561,1502M 3561,2250 L 3535,2225 L 3525,2228 L 3511,2266 L 3513,2309 L 3525,2337 L 3535,2341 L 3561,2315 L 3558,2311 L 3554,2297 L 3552,2283 L 3554,2268 L 3558,2255 L 3561,2250M 1560,2799 L 1552,2799 L 1540,2798 L 1528,2794 L 1517,2788 L 1507,2780 L 1500,2770 L 1494,2758 L 1494,2757 L 1459,2757 L 1454,2766 L 1455,2767 L 1474,2802 L 1505,2828 L 1544,2839 L 1560,2839 L 1560,2799M 1600,2799 L 1600,2839 L 1617,2839 L 1656,2828 L 1687,2802 L 1706,2767 L 1706,2766 L 1701,2757 L 1667,2757 L 1664,2764 L 1657,2775 L 1649,2784 L 1638,2791 L 1627,2796 L 1615,2799 L 1600,2799M 1600,3331 L 1626,3305 L 1623,3296 L 1589,3284 L 1549,3286 L 1525,3296 L 1522,3305 L 1548,3331 L 1556,3328 L 1568,3325 L 1580,3325 L 1593,3328 L 1600,3331M 1548,3439 L 1522,3465 L 1525,3473 L 1559,3486 L 1599,3484 L 1623,3474 L 1626,3465 L 1600,3439 L 1593,3442 L 1580,3445 L 1568,3445 L 1556,3442 L 1548,3439M 1520,3359 L 1494,3333 L 1486,3335 L 1473,3370 L 1475,3410 L 1485,3434 L 1494,3437 L 1520,3411 L 1519,3409 L 1515,3397 L 1514,3385 L 1515,3372 L 1519,3360 L 1520,3359M 1628,3359 L 1629,3360 L 1633,3372 L 1634,3385 L 1633,3397 L 1629,3409 L 1628,3411 L 1654,3437 L 1663,3434 L 1675,3400 L 1673,3360 L 1663,3336 L 1654,3333 L 1628,3359M 1494,2717 L 1497,2710 L 1503,2699 L 1512,2690 L 1522,2683 L 1534,2678 L 1546,2675 L 1608,2675 L 1621,2676 L 1633,2680 L 1644,2686 L 1653,2694 L 1661,2704 L 1667,2715 L 1667,2717 L 1701,2717 L 1706,2708 L 1706,2707 L 1687,2671 L 1680,2666 L 1678,2664 L 1677,2662 L 1676,2660 L 1676,2658 L 1676,2656 L 1677,2653 L 1678,2652 L 1680,2650 L 1682,2649 L 1684,2648 L 1686,2648 L 1945,2648 L 1989,2639 L 2026,2615 L 2045,2595 L 2070,2558 L 2079,2515 L 2079,2415 L 2079,2413 L 2080,2411 L 2081,2409 L 2082,2408 L 2084,2406 L 2086,2406 L 2088,2405 L 2090,2405 L 2092,2406 L 2104,2414 L 2143,2421 L 2182,2414 L 2215,2392 L 2223,2380 L 2225,2378 L 2226,2377 L 2228,2376 L 2230,2375 L 2232,2375 L 2235,2376 L 2237,2377 L 2238,2378 L 2240,2380 L 2241,2381 L 2241,2384 L 2243,2394 L 2252,2407 L 2265,2416 L 2282,2420 L 2404,2420 L 2420,2417 L 2434,2408 L 2443,2395 L 2446,2378 L 2446,2200 L 2443,2184 L 2434,2171 L 2421,2161 L 2404,2158 L 2282,2158 L 2267,2161 L 2253,2170 L 2244,2183 L 2241,2195 L 2241,2197 L 2240,2199 L 2238,2200 L 2237,2201 L 2235,2202 L 2232,2203 L 2230,2203 L 2228,2202 L 2226,2201 L 2225,2200 L 2223,2198 L 2215,2186 L 2182,2164 L 2177,2163 L 2174,2162 L 2171,2160 L 1822,1811 L 1786,1787 L 1742,1778 L 1152,1778 L 1149,1778 L 1147,1777 L 1145,1775 L 1137,1767 L 1135,1765 L 1134,1763 L 1134,1760 L 1134,1517 L 1134,1515 L 1135,1513 L 1136,1511 L 1137,1509 L 1139,1508 L 1141,1507 L 1143,1507 L 1145,1507 L 1147,1507 L 1149,1508 L 1151,1509 L 1152,1511 L 1153,1513 L 1154,1515 L 1157,1531 L 1181,1567 L 1217,1591 L 1259,1600 L 1302,1591 L 1337,1567 L 1361,1531 L 1370,1488 L 1370,1300 L 1361,1256 L 1337,1219 L 1260,1142 L 1223,1118 L 1179,1109 L 473,1109 L 430,1118 L 393,1142 L 358,1177 L 333,1214 L 324,1257 L 324,1373 L 333,1416 L 357,1452 L 393,1476 L 435,1484 L 463,1479 L 465,1479 L 467,1479 L 469,1480 L 471,1481 L 473,1482 L 474,1484 L 475,1486 L 475,1488 L 475,1490 L 475,1492 L 474,1494 L 472,1496 L 358,1610 L 333,1647 L 324,1690 L 324,1766 L 333,1810 L 357,1846 L 393,1870 L 435,1878 L 478,1870 L 514,1846 L 538,1810 L 546,1766 L 546,1739 L 546,1737 L 547,1734 L 549,1732 L 679,1603 L 681,1601 L 683,1600 L 686,1600 L 786,1600 L 829,1591 L 865,1567 L 889,1531 L 892,1515 L 893,1513 L 894,1511 L 895,1509 L 897,1508 L 899,1507 L 901,1507 L 903,1507 L 905,1507 L 907,1508 L 909,1509 L 910,1511 L 911,1513 L 912,1515 L 912,1517 L 912,1809 L 921,1853 L 945,1889 L 1020,1964 L 1021,1965 L 1022,1967 L 1022,1969 L 1023,1971 L 1022,1973 L 1021,1975 L 1020,1977 L 1019,1979 L 1017,1980 L 1015,1980 L 1013,1981 L 1011,1981 L 983,1975 L 552,1975 L 508,1984 L 472,2008 L 430,2050 L 428,2051 L 425,2052 L 393,2059 L 357,2083 L 333,2119 L 325,2161 L 333,2203 L 357,2239 L 393,2263 L 436,2272 L 474,2272 L 518,2263 L 555,2239 L 594,2200 L 596,2198 L 598,2197 L 601,2197 L 699,2197 L 701,2197 L 703,2198 L 705,2199 L 707,2200 L 708,2202 L 709,2204 L 709,2206 L 709,2208 L 709,2210 L 708,2212 L 685,2247 L 676,2290 L 676,2465 L 676,2468 L 674,2470 L 656,2498 L 648,2537 L 656,2576 L 678,2609 L 691,2618 L 693,2620 L 694,2622 L 694,2624 L 694,2626 L 694,2628 L 693,2630 L 691,2632 L 690,2633 L 688,2634 L 686,2635 L 676,2637 L 662,2646 L 653,2659 L 650,2676 L 650,2798 L 652,2814 L 661,2827 L 675,2836 L 692,2840 L 870,2840 L 885,2837 L 899,2828 L 908,2815 L 911,2798 L 911,2676 L 909,2660 L 900,2646 L 886,2637 L 875,2635 L 873,2634 L 871,2633 L 869,2632 L 868,2630 L 867,2628 L 867,2626 L 867,2624 L 867,2622 L 868,2620 L 870,2618 L 871,2617 L 883,2609 L 905,2576 L 913,2537 L 905,2498 L 899,2489 L 898,2486 L 898,2484 L 898,2317 L 898,2315 L 899,2313 L 900,2311 L 901,2309 L 903,2308 L 905,2307 L 907,2307 L 909,2307 L 911,2307 L 913,2308 L 914,2309 L 916,2311 L 917,2313 L 917,2315 L 921,2331 L 945,2367 L 981,2391 L 1023,2400 L 1065,2391 L 1101,2367 L 1125,2331 L 1131,2301 L 1132,2299 L 1133,2297 L 1134,2295 L 1136,2294 L 1138,2293 L 1140,2293 L 1142,2293 L 1144,2293 L 1146,2294 L 1148,2295 L 1149,2297 L 1150,2299 L 1151,2301 L 1157,2331 L 1181,2367 L 1217,2391 L 1260,2400 L 1490,2400 L 1493,2400 L 1496,2401 L 1514,2414 L 1533,2418 L 1535,2418 L 1537,2419 L 1539,2421 L 1540,2422 L 1541,2424 L 1541,2426 L 1541,2429 L 1541,2431 L 1540,2433 L 1538,2434 L 1537,2436 L 1534,2438 L 1530,2439 L 1511,2443 L 1478,2465 L 1456,2498 L 1448,2537 L 1456,2576 L 1478,2609 L 1507,2629 L 1509,2630 L 1510,2632 L 1511,2634 L 1512,2636 L 1511,2638 L 1511,2641 L 1510,2643 L 1508,2644 L 1505,2646 L 1474,2671 L 1455,2707 L 1454,2708 L 1459,2717 L 1494,2717M 1815,1469 L 1855,1469 L 1855,1452 L 1843,1414 L 1818,1383 L 1783,1363 L 1782,1363 L 1773,1368 L 1773,1403 L 1780,1405 L 1791,1412 L 1800,1421 L 1807,1431 L 1812,1443 L 1814,1455 L 1815,1469M 1815,1509 L 1815,1517 L 1814,1530 L 1810,1541 L 1804,1552 L 1796,1562 L 1786,1570 L 1774,1575 L 1773,1576 L 1773,1610 L 1782,1615 L 1783,1615 L 1818,1595 L 1843,1564 L 1855,1526 L 1855,1509 L 1815,1509M 1733,1403 L 1733,1368 L 1724,1363 L 1723,1363 L 1687,1383 L 1681,1390 L 1680,1391 L 1678,1393 L 1676,1393 L 1674,1394 L 1671,1393 L 1669,1393 L 1667,1391 L 1666,1390 L 1665,1388 L 1664,1386 L 1664,1384 L 1664,924 L 1655,881 L 1631,844 L 1614,827 L 1577,803 L 1534,794 L 1293,794 L 1250,803 L 1214,827 L 1190,863 L 1182,905 L 1190,947 L 1214,983 L 1250,1007 L 1293,1016 L 1432,1016 L 1434,1016 L 1436,1017 L 1438,1018 L 1440,1019 L 1441,1021 L 1442,1024 L 1442,1026 L 1442,1488 L 1451,1531 L 1453,1536 L 1455,1539 L 1459,1559 L 1481,1592 L 1514,1614 L 1553,1622 L 1592,1614 L 1625,1592 L 1644,1562 L 1646,1561 L 1648,1559 L 1650,1558 L 1652,1558 L 1654,1558 L 1656,1559 L 1658,1560 L 1660,1561 L 1662,1564 L 1687,1595 L 1723,1615 L 1724,1615 L 1733,1610 L 1733,1575 L 1726,1573 L 1715,1566 L 1706,1557 L 1699,1547 L 1694,1536 L 1691,1523 L 1691,1461 L 1692,1449 L 1696,1437 L 1702,1426 L 1710,1416 L 1720,1408 L 1731,1403 L 1733,1403M 2323,1403 L 2323,1368 L 2314,1363 L 2313,1363 L 2278,1383 L 2272,1390 L 2270,1391 L 2268,1393 L 2266,1393 L 2264,1394 L 2262,1393 L 2260,1393 L 2258,1391 L 2256,1390 L 2255,1388 L 2254,1386 L 2254,1384 L 2254,1370 L 2254,1367 L 2255,1365 L 2257,1363 L 2321,1299 L 2346,1262 L 2354,1219 L 2354,1184 L 2355,1181 L 2356,1178 L 2379,1144 L 2387,1102 L 2379,1059 L 2355,1023 L 2319,999 L 2276,991 L 2234,999 L 2197,1024 L 2166,1056 L 2141,1092 L 2132,1136 L 2132,1170 L 2132,1172 L 2131,1175 L 2130,1177 L 2066,1241 L 2041,1277 L 2032,1321 L 2032,1488 L 2041,1531 L 2044,1536 L 2045,1539 L 2049,1559 L 2071,1592 L 2104,1614 L 2143,1622 L 2182,1614 L 2215,1592 L 2235,1562 L 2236,1561 L 2238,1559 L 2240,1558 L 2243,1558 L 2245,1558 L 2247,1559 L 2249,1560 L 2251,1561 L 2253,1564 L 2278,1595 L 2313,1615 L 2314,1615 L 2323,1610 L 2323,1575 L 2316,1573 L 2305,1566 L 2296,1557 L 2289,1547 L 2284,1536 L 2282,1523 L 2281,1461 L 2283,1449 L 2286,1437 L 2292,1426 L 2301,1416 L 2310,1408 L 2322,1403 L 2323,1403M 2363,1403 L 2371,1405 L 2381,1412 L 2390,1421 L 2397,1431 L 2402,1443 L 2405,1455 L 2405,1469 L 2445,1469 L 2445,1452 L 2434,1414 L 2409,1383 L 2373,1363 L 2372,1363 L 2363,1368 L 2363,1403M 2405,1509 L 2405,1517 L 2404,1530 L 2400,1541 L 2394,1552 L 2386,1562 L 2376,1570 L 2365,1575 L 2363,1576 L 2363,1610 L 2372,1615 L 2373,1615 L 2409,1595 L 2434,1564 L 2445,1526 L 2445,1509 L 2405,1509M 3653,3091 L 3642,3096 L 3628,3099 L 3614,3099 L 3600,3096 L 3589,3091 L 3563,3117 L 3566,3126 L 3604,3140 L 3648,3138 L 3676,3127 L 3679,3117 L 3653,3091M 3589,2970 L 3600,2965 L 3614,2962 L 3628,2962 L 3642,2965 L 3653,2970 L 3679,2944 L 3676,2935 L 3638,2921 L 3594,2923 L 3566,2934 L 3563,2944 L 3589,2970M 3682,2998 L 3684,3003 L 3688,3016 L 3690,3031 L 3688,3045 L 3684,3059 L 3682,3063 L 3707,3089 L 3717,3086 L 3731,3047 L 3729,3004 L 3717,2976 L 3707,2973 L 3682,2998M 3653,2343 L 3642,2348 L 3628,2351 L 3614,2351 L 3600,2348 L 3589,2343 L 3563,2369 L 3566,2379 L 3604,2392 L 3648,2390 L 3676,2379 L 3679,2369 L 3653,2343M 3589,2222 L 3600,2217 L 3614,2214 L 3628,2214 L 3642,2217 L 3653,2222 L 3679,2196 L 3676,2187 L 3638,2173 L 3594,2175 L 3566,2187 L 3563,2196 L 3589,2222M 3682,2250 L 3684,2255 L 3688,2268 L 3690,2283 L 3688,2297 L 3684,2311 L 3682,2315 L 3707,2341 L 3717,2338 L 3731,2300 L 3729,2256 L 3717,2228 L 3707,2225 L 3682,2250M 3653,1595 L 3642,1600 L 3628,1603 L 3614,1603 L 3600,1600 L 3589,1595 L 3563,1621 L 3566,1631 L 3604,1644 L 3648,1643 L 3676,1631 L 3679,1621 L 3653,1595M 3589,1474 L 3600,1469 L 3614,1466 L 3628,1466 L 3642,1469 L 3653,1474 L 3679,1448 L 3676,1439 L 3638,1425 L 3594,1427 L 3566,1439 L 3563,1448 L 3589,1474M 3682,1567 L 3707,1593 L 3717,1590 L 3731,1552 L 3729,1508 L 3717,1480 L 3707,1477 L 3682,1502 L 3684,1507 L 3688,1520 L 3690,1535 L 3688,1549 L 3684,1563 L 3682,1567 z " style="fill-opacity:1.000000;fill:rgb(84,248,27);stroke:rgb(0,0,0);stroke-width:2"/></g>
<g fill-rule="evenodd"><path d="M 375,2615 L 375,2495 L 495,2495 L 495,2615 L 375,2615 z " style="fill-opacity:1.000000;fill:rgb(232,231,141);stroke:rgb(0,0,0);stroke-width:2"/></g>
<g fill-rule="evenodd"><path d="M 2281,2379 L 2281,2199 L 2405,2199 L 2405,2379 L 2281,2379 z " style="fill-opacity:1.000000;fill:rgb(118,90,46);stroke:rgb(0,0,0);stroke-width:2"/></g>
<g fill-rule="evenodd"><path d="M 691,2799 L 691,2675 L 870,2675 L 870,2799 L 691,2799 z " style="fill-opacity:1.000000;fill:rgb(99,51,159);stroke:rgb(0,0,0);stroke-width:2"/></g>
<g fill-rule="evenodd"><path d="M 1691,2379 L 1691,2199 L 1815,2199 L 1815,2379 L 1691,2379 z " style="fill-opacity:1.000000;fill:rgb(201,154,102);stroke:rgb(0,0,0);stroke-width:2"/></g>
<g fill-rule="evenodd"><path d="M 2155,2200 L 2159,2201 L 2171,2205 L 2181,2212 L 2190,2221 L 2198,2231 L 2202,2242 L 2205,2255 L 2209,2264 L 2213,2278 L 2214,2293 L 2212,2307 L 2206,2321 L 2205,2324 L 2204,2329 L 2200,2341 L 2194,2352 L 2186,2362 L 2176,2370 L 2165,2375 L 2153,2378 L 2140,2379 L 2128,2377 L 2116,2373 L 2105,2366 L 2096,2357 L 2089,2347 L 2084,2335 L 2083,2329 L 1714,1960 L 1102,1960 L 1083,1957 L 1066,1950 L 1052,1939 L 973,1860 L 962,1846 L 955,1829 L 952,1810 L 952,1489 L 954,1474 L 958,1460 L 966,1447 L 976,1436 L 988,1428 L 1001,1422 L 1016,1419 L 1030,1419 L 1045,1422 L 1058,1428 L 1070,1436 L 1080,1447 L 1088,1460 L 1092,1474 L 1094,1489 L 1094,1781 L 1131,1818 L 1743,1818 L 1762,1821 L 1779,1828 L 1793,1839 L 2155,2200 z " style="fill-opacity:1.000000;fill:rgb(50,13,183);stroke:rgb(0,0,0);stroke-width:2"/></g>
<g fill-rule="evenodd"><path d="M 716,2487 L 716,2289 L 717,2274 L 722,2260 L 729,2247 L 739,2236 L 751,2228 L 765,2222 L 779,2218 L 794,2218 L 809,2222 L 822,2228 L 834,2236 L 844,2247 L 852,2260 L 856,2274 L 858,2289 L 858,2500 L 861,2504 L 867,2515 L 870,2528 L 870,2540 L 869,2552 L 864,2564 L 858,2575 L 849,2584 L 839,2591 L 827,2596 L 815,2599 L 806,2603 L 792,2607 L 777,2608 L 762,2605 L 748,2600 L 745,2598 L 740,2598 L 728,2594 L 717,2588 L 708,2580 L 700,2570 L 694,2558 L 691,2546 L 691,2534 L 692,2521 L 697,2510 L 703,2499 L 712,2490 L 716,2487 z " style="fill-opacity:1.000000;fill:rgb(49,88,163);stroke:rgb(0,0,0);stroke-width:2"/></g>
<g fill-rule="evenodd"><path d="M 1614,2325 L 1614,2329 L 1610,2341 L 1604,2352 L 1596,2362 L 1586,2370 L 1574,2375 L 1562,2378 L 1550,2379 L 1537,2377 L 1526,2373 L 1515,2366 L 1508,2360 L 1259,2360 L 1244,2358 L 1230,2354 L 1218,2346 L 1207,2336 L 1198,2324 L 1192,2311 L 1189,2296 L 1189,2282 L 1192,2267 L 1198,2254 L 1207,2242 L 1218,2232 L 1230,2224 L 1244,2220 L 1259,2218 L 1508,2218 L 1510,2216 L 1520,2208 L 1531,2203 L 1543,2200 L 1556,2199 L 1568,2201 L 1580,2205 L 1591,2212 L 1600,2221 L 1607,2231 L 1612,2242 L 1614,2254 L 1620,2267 L 1623,2282 L 1623,2296 L 1620,2311 L 1614,2325 z " style="fill-opacity:1.000000;fill:rgb(90,37,93);stroke:rgb(0,0,0);stroke-width:2"/></g>
<g fill-rule="evenodd"><path d="M 1546,2598 L 1540,2598 L 1528,2594 L 1517,2588 L 1507,2580 L 1500,2570 L 1494,2558 L 1491,2546 L 1490,2534 L 1492,2521 L 1497,2510 L 1503,2499 L 1512,2490 L 1522,2483 L 1534,2478 L 1546,2475 L 1552,2472 L 1566,2468 L 1580,2466 L 1897,2466 L 1897,2394 L 1898,2380 L 1903,2366 L 1910,2353 L 1920,2342 L 1932,2333 L 1946,2327 L 1960,2324 L 1975,2324 L 1990,2327 L 2003,2333 L 2015,2342 L 2025,2353 L 2032,2366 L 2037,2380 L 2039,2394 L 2039,2516 L 2036,2534 L 2029,2551 L 2018,2566 L 1997,2587 L 1982,2598 L 1965,2605 L 1946,2608 L 1580,2608 L 1566,2606 L 1552,2602 L 1546,2598 z " style="fill-opacity:1.000000;fill:rgb(5,23,88);stroke:rgb(0,0,0);stroke-width:2"/></g>
<g fill-rule="evenodd"><path d="M 2903,2298 L 2903,2352 L 2865,2352 L 2039,3178 L 2039,3385 L 2037,3400 L 2032,3414 L 2025,3427 L 2015,3438 L 2003,3446 L 1990,3452 L 1975,3455 L 1960,3455 L 1946,3452 L 1932,3446 L 1920,3438 L 1910,3427 L 1903,3414 L 1898,3400 L 1897,3385 L 1897,3149 L 1899,3130 L 1906,3113 L 1918,3099 L 2763,2253 L 2763,1180 L 2765,1162 L 2772,1145 L 2784,1130 L 2862,1052 L 2877,1040 L 2894,1033 L 2912,1031 L 3005,1031 L 3005,702 L 3008,683 L 3015,666 L 3026,652 L 3532,146 L 3546,135 L 3563,128 L 3582,125 L 4526,125 L 4545,128 L 4562,135 L 4577,146 L 4753,322 L 6495,322 L 6509,324 L 6523,328 L 6532,333 L 6555,333 L 6555,356 L 6556,358 L 6562,371 L 6565,386 L 6565,401 L 6562,415 L 6556,429 L 6555,430 L 6555,453 L 6532,453 L 6523,458 L 6509,462 L 6495,464 L 4794,464 L 4794,1270 L 4870,1346 L 5471,1346 L 5490,1348 L 5507,1355 L 5521,1367 L 6112,1957 L 6123,1972 L 6130,1989 L 6133,2007 L 6133,2282 L 6131,2297 L 6126,2311 L 6123,2317 L 6123,2344 L 6097,2344 L 6084,2349 L 6069,2353 L 6054,2353 L 6040,2349 L 6027,2344 L 6000,2344 L 6000,2317 L 5997,2311 L 5992,2297 L 5991,2282 L 5991,2036 L 5442,1487 L 4841,1487 L 4822,1485 L 4806,1478 L 4779,1478 L 4779,1455 L 4673,1349 L 4662,1335 L 4655,1317 L 4652,1299 L 4652,422 L 4497,267 L 3611,267 L 3147,731 L 3147,1102 L 3145,1117 L 3140,1132 L 3132,1146 L 3120,1157 L 3107,1166 L 3092,1171 L 3076,1173 L 2942,1173 L 2905,1210 L 2905,2283 L 2903,2298 z " style="fill-opacity:1.000000;fill:rgb(233,94,212);stroke:rgb(0,0,0);stroke-width:2"/></g>
<g fill-rule="evenodd"><path d="M 2301,3345 L 2301,3325 L 2324,3325 L 2326,3323 L 2343,3316 L 2361,3314 L 2726,3314 L 2763,3277 L 2763,2873 L 2765,2855 L 2772,2838 L 2784,2823 L 2941,2666 L 2956,2654 L 2973,2647 L 2991,2645 L 4920,2645 L 4938,2647 L 4955,2654 L 4970,2666 L 5185,2881 L 5944,2881 L 5962,2883 L 5979,2890 L 5994,2902 L 6299,3207 L 6318,3207 L 6318,3229 L 6325,3241 L 6328,3256 L 6329,3270 L 6327,3285 L 6322,3299 L 6318,3304 L 6318,3327 L 6295,3327 L 6291,3330 L 6277,3335 L 6262,3338 L 6247,3337 L 6233,3333 L 6221,3327 L 6198,3327 L 6198,3307 L 5914,3023 L 5156,3023 L 5137,3020 L 5121,3013 L 5094,3013 L 5094,2991 L 4890,2787 L 3021,2787 L 2905,2902 L 2905,3306 L 2902,3324 L 2895,3342 L 2884,3356 L 2805,3435 L 2790,3446 L 2773,3453 L 2755,3456 L 2391,3456 L 2175,3671 L 2161,3682 L 2144,3689 L 2125,3692 L 708,3692 L 690,3689 L 673,3682 L 658,3671 L 107,3120 L 96,3105 L 89,3088 L 86,3070 L 86,1141 L 89,1123 L 96,1106 L 107,1091 L 619,579 L 633,568 L 650,561 L 669,558 L 1692,558 L 1711,561 L 1728,568 L 1742,579 L 1997,834 L 2092,834 L 2107,836 L 2121,840 L 2134,848 L 2145,857 L 2153,869 L 2160,883 L 2163,897 L 2163,912 L 2160,927 L 2153,940 L 2145,952 L 2134,962 L 2121,970 L 2107,974 L 2092,976 L 1968,976 L 1949,973 L 1932,966 L 1918,955 L 1663,700 L 698,700 L 228,1170 L 228,3041 L 737,3550 L 2096,3550 L 2301,3345 z " style="fill-opacity:1.000000;fill:rgb(171,178,205);stroke:rgb(0,0,0);stroke-width:2"/></g>
<g fill-rule="evenodd"><path d="M 1614,1524 L 1614,1530 L 1610,1541 L 1604,1552 L 1596,1562 L 1586,1570 L 1574,1575 L 1562,1578 L 1550,1579 L 1537,1577 L 1526,1573 L 1515,1566 L 1506,1557 L 1499,1547 L 1494,1536 L 1491,1523 L 1488,1518 L 1484,1504 L 1482,1489 L 1482,976 L 1292,976 L 1278,974 L 1263,970 L 1251,962 L 1240,952 L 1231,940 L 1225,927 L 1222,912 L 1222,897 L 1225,883 L 1231,869 L 1240,857 L 1251,848 L 1263,840 L 1278,836 L 1292,834 L 1535,834 L 1553,836 L 1570,844 L 1585,855 L 1603,873 L 1614,888 L 1621,905 L 1624,923 L 1624,1489 L 1622,1504 L 1618,1518 L 1614,1524 z " style="fill-opacity:1.000000;fill:rgb(198,155,180);stroke:rgb(0,0,0);stroke-width:2"/></g>
<g fill-rule="evenodd"><path d="M 2205,1524 L 2204,1530 L 2200,1541 L 2194,1552 L 2186,1562 L 2176,1570 L 2165,1575 L 2153,1578 L 2140,1579 L 2128,1577 L 2116,1573 L 2105,1566 L 2096,1557 L 2089,1547 L 2084,1536 L 2082,1523 L 2079,1518 L 2074,1504 L 2072,1489 L 2072,1320 L 2075,1301 L 2082,1284 L 2093,1270 L 2172,1190 L 2172,1135 L 2175,1116 L 2182,1099 L 2193,1085 L 2226,1052 L 2238,1042 L 2251,1036 L 2265,1032 L 2280,1031 L 2295,1033 L 2309,1039 L 2321,1047 L 2331,1057 L 2339,1070 L 2345,1083 L 2347,1098 L 2346,1113 L 2343,1127 L 2336,1140 L 2326,1152 L 2314,1164 L 2314,1220 L 2312,1238 L 2305,1255 L 2293,1270 L 2214,1349 L 2214,1489 L 2213,1504 L 2208,1518 L 2205,1524 z " style="fill-opacity:1.000000;fill:rgb(84,17,14);stroke:rgb(0,0,0);stroke-width:2"/></g>
</svg>
