<?xml version="1.0" standalone="no"?>
<!DOCTYPE svg PUBLIC "-//W3C//DTD SVG 1.1//EN"
"http://www.w3.org/Graphics/SVG/1.1/DTD/svg11.dtd">
<svg width="7125" height="4019" viewBox="0 0 7125 4019" version="1.1"
xmlns="http://www.w3.org/2000/svg"
xmlns:xlink="http://www.w3.org/1999/xlink">
<g fill-rule="evenodd"><path d="M 0,3769 L 0,10 L 0,8 L 0,5 L 2,4 L 3,2 L 5,1 L 7,0 L 9,0 L 7115,0 L 7117,0 L 7119,1 L 7121,2 L 7122,4 L 7124,5 L 7124,8 L 7125,10 L 7124,3769 L 7124,3773 L 7123,3775 L 7121,3776 L 7120,3777 L 7118,3778 L 7115,3779 L 9,3779 L 7,3778 L 5,3778 L 3,3777 L 2,3775 L 0,3773 L 0,3771 L 0,3769 z " style="fill-opacity:1.000000;fill:rgb(103,198,105);stroke:rgb(0,0,0);stroke-width:2"/></g>
<g fill-rule="evenodd"><path d="M 86,4018 L 84,4018 L 82,4017 L 82,4016 L 81,4015 L 81,4013 L 82,4012 L 83,4011 L 85,4010 L 87,4010 L 88,4011 L 89,4012 L 89,4014 L 89,4015 L 88,4017 L 87,4018 L 86,4018 z " style="fill-opacity:1.000000;fill:rgb(115,81,255);stroke:rgb(0,0,0);stroke-width:2"/></g>
</svg>
