G04 #@! TF.FileFunction,Copper,L1,Top,Signal*
%FSLAX46Y46*%
G04 Gerber Fmt 4.6, Leading zero omitted, Abs format (unit mm)*
G04 Created by KiCad (PCBNEW 4.0.7-e1-6374~58~ubuntu14.04.1) date Fri Aug 18 16:55:42 2017*
%MOMM*%
%LPD*%
G01*
G04 APERTURE LIST*
%ADD10C,0.100000*%
%ADD11C,1.524000*%
%ADD12R,1.562100X1.562100*%
%ADD13C,1.562100*%
%ADD14R,1.524000X1.524000*%
%ADD15R,1.750000X1.750000*%
%ADD16C,1.750000*%
%ADD17R,2.286000X1.574800*%
%ADD18O,2.286000X1.574800*%
%ADD19C,2.000000*%
%ADD20C,0.254000*%
G04 APERTURE END LIST*
D10*
D11*
X167580000Y-140500000D03*
X157420000Y-140500000D03*
X167580000Y-145500000D03*
X157420000Y-145500000D03*
X168080000Y-150500000D03*
X157920000Y-150500000D03*
X191920000Y-138000000D03*
X202080000Y-138000000D03*
X191770000Y-147320000D03*
X201930000Y-147320000D03*
X191770000Y-153670000D03*
X201930000Y-153670000D03*
D12*
X232000000Y-139493000D03*
D13*
X232000000Y-132000000D03*
D12*
X220000000Y-154493000D03*
D13*
X220000000Y-147000000D03*
D12*
X233500000Y-167993000D03*
D13*
X233500000Y-160500000D03*
D14*
X245745000Y-167600000D03*
D11*
X245745000Y-162600000D03*
D14*
X245745000Y-140930000D03*
D11*
X245745000Y-135930000D03*
D14*
X245745000Y-154265000D03*
D11*
X245745000Y-149265000D03*
D14*
X153035000Y-155455000D03*
D11*
X153035000Y-150455000D03*
X153035000Y-145455000D03*
X153035000Y-140455000D03*
D14*
X152908000Y-169338000D03*
D11*
X152908000Y-164338000D03*
X152908000Y-159338000D03*
D15*
X206000000Y-142000000D03*
D16*
X206000000Y-137000000D03*
X206000000Y-132000000D03*
D15*
X206000000Y-155500000D03*
D16*
X206000000Y-150500000D03*
X206000000Y-145500000D03*
D15*
X206000000Y-169000000D03*
D16*
X206000000Y-164000000D03*
X206000000Y-159000000D03*
D17*
X171420000Y-154020000D03*
D18*
X171420000Y-151480000D03*
X181580000Y-151480000D03*
X181580000Y-154020000D03*
D17*
X171420000Y-148520000D03*
D18*
X171420000Y-145980000D03*
X181580000Y-145980000D03*
X181580000Y-148520000D03*
D17*
X171420000Y-143020000D03*
D18*
X171420000Y-140480000D03*
X181580000Y-140480000D03*
X181580000Y-143020000D03*
D19*
X245745000Y-149265000D02*
X222265000Y-149265000D01*
X222265000Y-149265000D02*
X220000000Y-147000000D01*
X206000000Y-150500000D02*
X216500000Y-150500000D01*
X216500000Y-150500000D02*
X220000000Y-147000000D01*
X181580000Y-151480000D02*
X189580000Y-151480000D01*
X189580000Y-151480000D02*
X191770000Y-153670000D01*
X206000000Y-169000000D02*
X157570000Y-169000000D01*
X157570000Y-169000000D02*
X152908000Y-164338000D01*
X201930000Y-147320000D02*
X201930000Y-153670000D01*
X201930000Y-153670000D02*
X203760000Y-155500000D01*
X203760000Y-155500000D02*
X206000000Y-155500000D01*
X220000000Y-154493000D02*
X245517000Y-154493000D01*
X245517000Y-154493000D02*
X245745000Y-154265000D01*
X245745000Y-167600000D02*
X233893000Y-167600000D01*
X233893000Y-167600000D02*
X233500000Y-167993000D01*
X233500000Y-167993000D02*
X207007000Y-167993000D01*
X207007000Y-167993000D02*
X206000000Y-169000000D01*
X206000000Y-155500000D02*
X218993000Y-155500000D01*
X218993000Y-155500000D02*
X220000000Y-154493000D01*
X202080000Y-138000000D02*
X202080000Y-134770000D01*
X149860000Y-166290000D02*
X152908000Y-169338000D01*
X149860000Y-137160000D02*
X149860000Y-166290000D01*
X152400000Y-134620000D02*
X149860000Y-137160000D01*
X201930000Y-134620000D02*
X152400000Y-134620000D01*
X202080000Y-134770000D02*
X201930000Y-134620000D01*
X202080000Y-138000000D02*
X202080000Y-138080000D01*
X202080000Y-138080000D02*
X206000000Y-142000000D01*
X206000000Y-142000000D02*
X229493000Y-142000000D01*
X229493000Y-142000000D02*
X232000000Y-139493000D01*
X232000000Y-139493000D02*
X244308000Y-139493000D01*
X244308000Y-139493000D02*
X245745000Y-140930000D01*
X153035000Y-150455000D02*
X157875000Y-150455000D01*
X157875000Y-150455000D02*
X157920000Y-150500000D01*
X153035000Y-145455000D02*
X157375000Y-145455000D01*
X157375000Y-145455000D02*
X157420000Y-145500000D01*
X153035000Y-140455000D02*
X157375000Y-140455000D01*
X157375000Y-140455000D02*
X157420000Y-140500000D01*
X245745000Y-162600000D02*
X235600000Y-162600000D01*
X235600000Y-162600000D02*
X233500000Y-160500000D01*
X233500000Y-160500000D02*
X209500000Y-160500000D01*
X209500000Y-160500000D02*
X206000000Y-164000000D01*
X206000000Y-137000000D02*
X227000000Y-137000000D01*
X227000000Y-137000000D02*
X232000000Y-132000000D01*
X232000000Y-132000000D02*
X241815000Y-132000000D01*
X241815000Y-132000000D02*
X245745000Y-135930000D01*
X171420000Y-145980000D02*
X168060000Y-145980000D01*
X168060000Y-145980000D02*
X167580000Y-145500000D01*
X171420000Y-151480000D02*
X169060000Y-151480000D01*
X169060000Y-151480000D02*
X168080000Y-150500000D01*
X171420000Y-140480000D02*
X167600000Y-140480000D01*
X167600000Y-140480000D02*
X167580000Y-140500000D01*
X181580000Y-140480000D02*
X189440000Y-140480000D01*
X189440000Y-140480000D02*
X191920000Y-138000000D01*
X181580000Y-145980000D02*
X190430000Y-145980000D01*
X190430000Y-145980000D02*
X191770000Y-147320000D01*
D20*
G36*
X247523000Y-173863000D02*
X147447000Y-173863000D01*
X147447000Y-137160000D01*
X148224999Y-137160000D01*
X148225000Y-137160005D01*
X148225000Y-166289995D01*
X148224999Y-166290000D01*
X148349457Y-166915688D01*
X148703880Y-167446120D01*
X151531194Y-170273434D01*
X151542838Y-170335317D01*
X151681910Y-170551441D01*
X151894110Y-170696431D01*
X152124478Y-170743082D01*
X152282312Y-170848543D01*
X152908000Y-170973001D01*
X153533688Y-170848543D01*
X153690879Y-170743511D01*
X153905317Y-170703162D01*
X154121441Y-170564090D01*
X154266431Y-170351890D01*
X154313082Y-170121522D01*
X154418543Y-169963688D01*
X154543001Y-169338000D01*
X154418543Y-168712312D01*
X154313511Y-168555121D01*
X154273162Y-168340683D01*
X154134090Y-168124559D01*
X153921890Y-167979569D01*
X153846553Y-167964313D01*
X151495000Y-165612760D01*
X151495000Y-165109672D01*
X151751880Y-165494120D01*
X156413878Y-170156117D01*
X156413880Y-170156120D01*
X156885778Y-170471431D01*
X156944313Y-170510543D01*
X157570000Y-170635001D01*
X157570005Y-170635000D01*
X205999995Y-170635000D01*
X206000000Y-170635001D01*
X206565878Y-170522440D01*
X206875000Y-170522440D01*
X207110317Y-170478162D01*
X207326441Y-170339090D01*
X207471431Y-170126890D01*
X207522440Y-169875000D01*
X207522440Y-169789800D01*
X207684240Y-169628000D01*
X233499995Y-169628000D01*
X233500000Y-169628001D01*
X234125688Y-169503543D01*
X234248489Y-169421490D01*
X234281050Y-169421490D01*
X234516367Y-169377212D01*
X234732491Y-169238140D01*
X234734636Y-169235000D01*
X245745000Y-169235000D01*
X246370687Y-169110543D01*
X246527878Y-169005511D01*
X246742317Y-168965162D01*
X246958441Y-168826090D01*
X247103431Y-168613890D01*
X247150082Y-168383521D01*
X247255543Y-168225687D01*
X247380000Y-167600000D01*
X247255543Y-166974313D01*
X247150511Y-166817122D01*
X247110162Y-166602683D01*
X246971090Y-166386559D01*
X246758890Y-166241569D01*
X246528521Y-166194918D01*
X246370687Y-166089457D01*
X245745000Y-165965000D01*
X233893005Y-165965000D01*
X233893000Y-165964999D01*
X233267312Y-166089457D01*
X232865409Y-166358000D01*
X207007005Y-166358000D01*
X207007000Y-166357999D01*
X206381312Y-166482457D01*
X205850880Y-166836880D01*
X205322760Y-167365000D01*
X158247239Y-167365000D01*
X154882240Y-164000000D01*
X204364999Y-164000000D01*
X204489457Y-164625688D01*
X204843880Y-165156120D01*
X205374312Y-165510543D01*
X206000000Y-165635001D01*
X206625688Y-165510543D01*
X207156120Y-165156120D01*
X210177239Y-162135000D01*
X232822760Y-162135000D01*
X234443878Y-163756117D01*
X234443880Y-163756120D01*
X234974313Y-164110543D01*
X235600000Y-164235000D01*
X245745000Y-164235000D01*
X246370687Y-164110543D01*
X246901120Y-163756120D01*
X247255543Y-163225687D01*
X247380000Y-162600000D01*
X247255543Y-161974313D01*
X246901120Y-161443880D01*
X246370687Y-161089457D01*
X245745000Y-160965000D01*
X236277239Y-160965000D01*
X234656120Y-159343880D01*
X234125688Y-158989457D01*
X233500000Y-158864999D01*
X233499995Y-158865000D01*
X209500000Y-158865000D01*
X208874313Y-158989457D01*
X208343880Y-159343880D01*
X208343878Y-159343883D01*
X204843880Y-162843880D01*
X204489457Y-163374312D01*
X204364999Y-164000000D01*
X154882240Y-164000000D01*
X154064120Y-163181880D01*
X153533688Y-162827457D01*
X152908000Y-162702999D01*
X152282312Y-162827457D01*
X151751880Y-163181880D01*
X151495000Y-163566328D01*
X151495000Y-160318213D01*
X152107392Y-160318213D01*
X152176857Y-160560397D01*
X152700302Y-160747144D01*
X153255368Y-160719362D01*
X153639143Y-160560397D01*
X153708608Y-160318213D01*
X152908000Y-159517605D01*
X152107392Y-160318213D01*
X151495000Y-160318213D01*
X151495000Y-159130302D01*
X151498856Y-159130302D01*
X151526638Y-159685368D01*
X151685603Y-160069143D01*
X151927787Y-160138608D01*
X152728395Y-159338000D01*
X153087605Y-159338000D01*
X153888213Y-160138608D01*
X154130397Y-160069143D01*
X154132923Y-160062060D01*
X205117545Y-160062060D01*
X205200884Y-160315953D01*
X205765306Y-160521590D01*
X206365458Y-160495579D01*
X206799116Y-160315953D01*
X206882455Y-160062060D01*
X206000000Y-159179605D01*
X205117545Y-160062060D01*
X154132923Y-160062060D01*
X154317144Y-159545698D01*
X154289362Y-158990632D01*
X154196029Y-158765306D01*
X204478410Y-158765306D01*
X204504421Y-159365458D01*
X204684047Y-159799116D01*
X204937940Y-159882455D01*
X205820395Y-159000000D01*
X206179605Y-159000000D01*
X207062060Y-159882455D01*
X207315953Y-159799116D01*
X207521590Y-159234694D01*
X207495579Y-158634542D01*
X207315953Y-158200884D01*
X207062060Y-158117545D01*
X206179605Y-159000000D01*
X205820395Y-159000000D01*
X204937940Y-158117545D01*
X204684047Y-158200884D01*
X204478410Y-158765306D01*
X154196029Y-158765306D01*
X154130397Y-158606857D01*
X153888213Y-158537392D01*
X153087605Y-159338000D01*
X152728395Y-159338000D01*
X151927787Y-158537392D01*
X151685603Y-158606857D01*
X151498856Y-159130302D01*
X151495000Y-159130302D01*
X151495000Y-158357787D01*
X152107392Y-158357787D01*
X152908000Y-159158395D01*
X153708608Y-158357787D01*
X153639143Y-158115603D01*
X153141161Y-157937940D01*
X205117545Y-157937940D01*
X206000000Y-158820395D01*
X206882455Y-157937940D01*
X206799116Y-157684047D01*
X206234694Y-157478410D01*
X205634542Y-157504421D01*
X205200884Y-157684047D01*
X205117545Y-157937940D01*
X153141161Y-157937940D01*
X153115698Y-157928856D01*
X152560632Y-157956638D01*
X152176857Y-158115603D01*
X152107392Y-158357787D01*
X151495000Y-158357787D01*
X151495000Y-154693000D01*
X151625560Y-154693000D01*
X151625560Y-156217000D01*
X151669838Y-156452317D01*
X151808910Y-156668441D01*
X152021110Y-156813431D01*
X152273000Y-156864440D01*
X153797000Y-156864440D01*
X154032317Y-156820162D01*
X154248441Y-156681090D01*
X154393431Y-156468890D01*
X154444440Y-156217000D01*
X154444440Y-154693000D01*
X154400162Y-154457683D01*
X154261090Y-154241559D01*
X154048890Y-154096569D01*
X153797000Y-154045560D01*
X152273000Y-154045560D01*
X152037683Y-154089838D01*
X151821559Y-154228910D01*
X151676569Y-154441110D01*
X151625560Y-154693000D01*
X151495000Y-154693000D01*
X151495000Y-150932597D01*
X151524457Y-151080687D01*
X151878880Y-151611120D01*
X152409313Y-151965543D01*
X153035000Y-152090000D01*
X157693767Y-152090000D01*
X157920000Y-152135001D01*
X158545688Y-152010543D01*
X159076120Y-151656120D01*
X159430543Y-151125688D01*
X159555001Y-150500000D01*
X159430543Y-149874313D01*
X159076120Y-149343881D01*
X159031120Y-149298880D01*
X158500688Y-148944457D01*
X157875000Y-148819999D01*
X157874995Y-148820000D01*
X153035000Y-148820000D01*
X152409313Y-148944457D01*
X151878880Y-149298880D01*
X151524457Y-149829313D01*
X151495000Y-149977403D01*
X151495000Y-145932597D01*
X151524457Y-146080687D01*
X151878880Y-146611120D01*
X152409313Y-146965543D01*
X153035000Y-147090000D01*
X157193767Y-147090000D01*
X157420000Y-147135001D01*
X158045688Y-147010543D01*
X158576120Y-146656120D01*
X158930543Y-146125688D01*
X159055001Y-145500000D01*
X158930543Y-144874313D01*
X158576120Y-144343881D01*
X158531120Y-144298880D01*
X158000688Y-143944457D01*
X157375000Y-143819999D01*
X157374995Y-143820000D01*
X153035000Y-143820000D01*
X152409313Y-143944457D01*
X151878880Y-144298880D01*
X151524457Y-144829313D01*
X151495000Y-144977403D01*
X151495000Y-140932597D01*
X151524457Y-141080687D01*
X151878880Y-141611120D01*
X152409313Y-141965543D01*
X153035000Y-142090000D01*
X157193767Y-142090000D01*
X157420000Y-142135001D01*
X158045688Y-142010543D01*
X158576120Y-141656120D01*
X158930543Y-141125688D01*
X159055001Y-140500000D01*
X165944999Y-140500000D01*
X166069457Y-141125688D01*
X166423880Y-141656120D01*
X166954312Y-142010543D01*
X167580000Y-142135001D01*
X167680551Y-142115000D01*
X169653375Y-142115000D01*
X169629560Y-142232600D01*
X169629560Y-143807400D01*
X169673838Y-144042717D01*
X169812910Y-144258841D01*
X169939008Y-144345000D01*
X168737240Y-144345000D01*
X168736120Y-144343880D01*
X168205688Y-143989457D01*
X167580000Y-143864999D01*
X166954312Y-143989457D01*
X166423880Y-144343880D01*
X166069457Y-144874312D01*
X165944999Y-145500000D01*
X166069457Y-146125688D01*
X166423880Y-146656120D01*
X166903878Y-147136117D01*
X166903880Y-147136120D01*
X167419597Y-147480710D01*
X167434313Y-147490543D01*
X168060000Y-147615001D01*
X168060005Y-147615000D01*
X169653375Y-147615000D01*
X169629560Y-147732600D01*
X169629560Y-149307400D01*
X169673838Y-149542717D01*
X169812910Y-149758841D01*
X169939008Y-149845000D01*
X169737239Y-149845000D01*
X169236120Y-149343880D01*
X168705688Y-148989457D01*
X168080000Y-148864999D01*
X167454312Y-148989457D01*
X166923880Y-149343880D01*
X166569457Y-149874312D01*
X166444999Y-150500000D01*
X166569457Y-151125688D01*
X166923880Y-151656120D01*
X167903878Y-152636117D01*
X167903880Y-152636120D01*
X168221851Y-152848581D01*
X168434312Y-152990543D01*
X169060000Y-153115000D01*
X169653375Y-153115000D01*
X169629560Y-153232600D01*
X169629560Y-154807400D01*
X169673838Y-155042717D01*
X169812910Y-155258841D01*
X170025110Y-155403831D01*
X170277000Y-155454840D01*
X172563000Y-155454840D01*
X172798317Y-155410562D01*
X173014441Y-155271490D01*
X173159431Y-155059290D01*
X173210440Y-154807400D01*
X173210440Y-154367060D01*
X179844990Y-154367060D01*
X179861673Y-154446996D01*
X180128809Y-154935986D01*
X180562738Y-155285525D01*
X181097400Y-155442400D01*
X181453000Y-155442400D01*
X181453000Y-154147000D01*
X181707000Y-154147000D01*
X181707000Y-155442400D01*
X182062600Y-155442400D01*
X182597262Y-155285525D01*
X183031191Y-154935986D01*
X183298327Y-154446996D01*
X183315010Y-154367060D01*
X183192852Y-154147000D01*
X181707000Y-154147000D01*
X181453000Y-154147000D01*
X179967148Y-154147000D01*
X179844990Y-154367060D01*
X173210440Y-154367060D01*
X173210440Y-153232600D01*
X173166162Y-152997283D01*
X173027090Y-152781159D01*
X172814890Y-152636169D01*
X172643197Y-152601400D01*
X172816222Y-152485789D01*
X173124559Y-152024329D01*
X173232833Y-151480000D01*
X179767167Y-151480000D01*
X179875441Y-152024329D01*
X180183778Y-152485789D01*
X180578830Y-152749754D01*
X180562738Y-152754475D01*
X180128809Y-153104014D01*
X179861673Y-153593004D01*
X179844990Y-153672940D01*
X179967148Y-153893000D01*
X181453000Y-153893000D01*
X181453000Y-153873000D01*
X181707000Y-153873000D01*
X181707000Y-153893000D01*
X183192852Y-153893000D01*
X183315010Y-153672940D01*
X183298327Y-153593004D01*
X183037193Y-153115000D01*
X188902760Y-153115000D01*
X190613881Y-154826120D01*
X191144313Y-155180543D01*
X191770000Y-155305001D01*
X192395688Y-155180543D01*
X192926120Y-154826120D01*
X193280543Y-154295688D01*
X193405001Y-153670000D01*
X200294999Y-153670000D01*
X200419457Y-154295688D01*
X200773880Y-154826120D01*
X202603878Y-156656117D01*
X202603880Y-156656120D01*
X202839313Y-156813431D01*
X203134312Y-157010543D01*
X203760000Y-157135001D01*
X203760005Y-157135000D01*
X218992995Y-157135000D01*
X218993000Y-157135001D01*
X219618688Y-157010543D01*
X220149120Y-156656120D01*
X220677240Y-156128000D01*
X245516995Y-156128000D01*
X245517000Y-156128001D01*
X246142688Y-156003543D01*
X246673120Y-155649120D01*
X246680434Y-155641806D01*
X246742317Y-155630162D01*
X246958441Y-155491090D01*
X247103431Y-155278890D01*
X247150082Y-155048521D01*
X247255543Y-154890687D01*
X247380001Y-154265000D01*
X247255543Y-153639312D01*
X247150511Y-153482121D01*
X247110162Y-153267683D01*
X246971090Y-153051559D01*
X246758890Y-152906569D01*
X246528522Y-152859918D01*
X246370688Y-152754457D01*
X245745000Y-152629999D01*
X245119313Y-152754457D01*
X244964350Y-152858000D01*
X220000005Y-152858000D01*
X220000000Y-152857999D01*
X219374312Y-152982457D01*
X219251511Y-153064510D01*
X219218950Y-153064510D01*
X218983633Y-153108788D01*
X218767509Y-153247860D01*
X218622519Y-153460060D01*
X218597588Y-153583172D01*
X218315760Y-153865000D01*
X204437239Y-153865000D01*
X203565000Y-152992760D01*
X203565000Y-150500000D01*
X204365000Y-150500000D01*
X204489457Y-151125687D01*
X204843880Y-151656120D01*
X205374313Y-152010543D01*
X206000000Y-152135000D01*
X216499995Y-152135000D01*
X216500000Y-152135001D01*
X217125688Y-152010543D01*
X217656120Y-151656120D01*
X220000000Y-149312239D01*
X221108878Y-150421117D01*
X221108880Y-150421120D01*
X221188337Y-150474211D01*
X221639313Y-150775543D01*
X222265000Y-150900001D01*
X222265005Y-150900000D01*
X245745000Y-150900000D01*
X246370687Y-150775543D01*
X246901120Y-150421120D01*
X247255543Y-149890687D01*
X247380000Y-149265000D01*
X247255543Y-148639313D01*
X246901120Y-148108880D01*
X246370687Y-147754457D01*
X245745000Y-147630000D01*
X222942239Y-147630000D01*
X221156120Y-145843880D01*
X220625688Y-145489457D01*
X220000000Y-145364999D01*
X219374312Y-145489457D01*
X218843880Y-145843880D01*
X218843878Y-145843883D01*
X215822760Y-148865000D01*
X206000000Y-148865000D01*
X205374313Y-148989457D01*
X204843880Y-149343880D01*
X204489457Y-149874313D01*
X204365000Y-150500000D01*
X203565000Y-150500000D01*
X203565000Y-147320000D01*
X203440543Y-146694313D01*
X203352175Y-146562060D01*
X205117545Y-146562060D01*
X205200884Y-146815953D01*
X205765306Y-147021590D01*
X206365458Y-146995579D01*
X206799116Y-146815953D01*
X206882455Y-146562060D01*
X206000000Y-145679605D01*
X205117545Y-146562060D01*
X203352175Y-146562060D01*
X203086120Y-146163880D01*
X202555687Y-145809457D01*
X201930000Y-145685000D01*
X201304313Y-145809457D01*
X200773880Y-146163880D01*
X200419457Y-146694313D01*
X200295000Y-147320000D01*
X200295000Y-153669995D01*
X200294999Y-153670000D01*
X193405001Y-153670000D01*
X193280543Y-153044313D01*
X192926120Y-152513881D01*
X190736120Y-150323880D01*
X190205688Y-149969457D01*
X189580000Y-149844999D01*
X189579995Y-149845000D01*
X182394559Y-149845000D01*
X182597262Y-149785525D01*
X183031191Y-149435986D01*
X183298327Y-148946996D01*
X183315010Y-148867060D01*
X183192852Y-148647000D01*
X181707000Y-148647000D01*
X181707000Y-148667000D01*
X181453000Y-148667000D01*
X181453000Y-148647000D01*
X179967148Y-148647000D01*
X179844990Y-148867060D01*
X179861673Y-148946996D01*
X180128809Y-149435986D01*
X180562738Y-149785525D01*
X181094547Y-149941563D01*
X180954313Y-149969457D01*
X180666760Y-150161593D01*
X180645238Y-150165874D01*
X180183778Y-150474211D01*
X179875441Y-150935671D01*
X179767167Y-151480000D01*
X173232833Y-151480000D01*
X173124559Y-150935671D01*
X172816222Y-150474211D01*
X172354762Y-150165874D01*
X172333240Y-150161593D01*
X172045687Y-149969457D01*
X171972202Y-149954840D01*
X172563000Y-149954840D01*
X172798317Y-149910562D01*
X173014441Y-149771490D01*
X173159431Y-149559290D01*
X173210440Y-149307400D01*
X173210440Y-147732600D01*
X173166162Y-147497283D01*
X173027090Y-147281159D01*
X172814890Y-147136169D01*
X172643197Y-147101400D01*
X172816222Y-146985789D01*
X173124559Y-146524329D01*
X173232833Y-145980000D01*
X179767167Y-145980000D01*
X179875441Y-146524329D01*
X180183778Y-146985789D01*
X180578830Y-147249754D01*
X180562738Y-147254475D01*
X180128809Y-147604014D01*
X179861673Y-148093004D01*
X179844990Y-148172940D01*
X179967148Y-148393000D01*
X181453000Y-148393000D01*
X181453000Y-148373000D01*
X181707000Y-148373000D01*
X181707000Y-148393000D01*
X183192852Y-148393000D01*
X183315010Y-148172940D01*
X183298327Y-148093004D01*
X183037193Y-147615000D01*
X189752760Y-147615000D01*
X190613880Y-148476119D01*
X191144312Y-148830543D01*
X191770000Y-148955000D01*
X192395688Y-148830543D01*
X192926119Y-148476119D01*
X193280543Y-147945688D01*
X193405000Y-147320000D01*
X193280543Y-146694312D01*
X192926119Y-146163880D01*
X192027546Y-145265306D01*
X204478410Y-145265306D01*
X204504421Y-145865458D01*
X204684047Y-146299116D01*
X204937940Y-146382455D01*
X205820395Y-145500000D01*
X206179605Y-145500000D01*
X207062060Y-146382455D01*
X207315953Y-146299116D01*
X207521590Y-145734694D01*
X207495579Y-145134542D01*
X207315953Y-144700884D01*
X207062060Y-144617545D01*
X206179605Y-145500000D01*
X205820395Y-145500000D01*
X204937940Y-144617545D01*
X204684047Y-144700884D01*
X204478410Y-145265306D01*
X192027546Y-145265306D01*
X191586120Y-144823880D01*
X191055688Y-144469457D01*
X190897243Y-144437940D01*
X205117545Y-144437940D01*
X206000000Y-145320395D01*
X206882455Y-144437940D01*
X206799116Y-144184047D01*
X206234694Y-143978410D01*
X205634542Y-144004421D01*
X205200884Y-144184047D01*
X205117545Y-144437940D01*
X190897243Y-144437940D01*
X190430000Y-144344999D01*
X190429995Y-144345000D01*
X182394559Y-144345000D01*
X182597262Y-144285525D01*
X183031191Y-143935986D01*
X183298327Y-143446996D01*
X183315010Y-143367060D01*
X183192852Y-143147000D01*
X181707000Y-143147000D01*
X181707000Y-143167000D01*
X181453000Y-143167000D01*
X181453000Y-143147000D01*
X179967148Y-143147000D01*
X179844990Y-143367060D01*
X179861673Y-143446996D01*
X180128809Y-143935986D01*
X180562738Y-144285525D01*
X181094547Y-144441563D01*
X180954313Y-144469457D01*
X180666760Y-144661593D01*
X180645238Y-144665874D01*
X180183778Y-144974211D01*
X179875441Y-145435671D01*
X179767167Y-145980000D01*
X173232833Y-145980000D01*
X173124559Y-145435671D01*
X172816222Y-144974211D01*
X172354762Y-144665874D01*
X172333240Y-144661593D01*
X172045687Y-144469457D01*
X171972202Y-144454840D01*
X172563000Y-144454840D01*
X172798317Y-144410562D01*
X173014441Y-144271490D01*
X173159431Y-144059290D01*
X173210440Y-143807400D01*
X173210440Y-142232600D01*
X173166162Y-141997283D01*
X173027090Y-141781159D01*
X172814890Y-141636169D01*
X172643197Y-141601400D01*
X172816222Y-141485789D01*
X173124559Y-141024329D01*
X173232833Y-140480000D01*
X179767167Y-140480000D01*
X179875441Y-141024329D01*
X180183778Y-141485789D01*
X180578830Y-141749754D01*
X180562738Y-141754475D01*
X180128809Y-142104014D01*
X179861673Y-142593004D01*
X179844990Y-142672940D01*
X179967148Y-142893000D01*
X181453000Y-142893000D01*
X181453000Y-142873000D01*
X181707000Y-142873000D01*
X181707000Y-142893000D01*
X183192852Y-142893000D01*
X183315010Y-142672940D01*
X183298327Y-142593004D01*
X183037193Y-142115000D01*
X189439995Y-142115000D01*
X189440000Y-142115001D01*
X190065688Y-141990543D01*
X190596120Y-141636120D01*
X193076120Y-139156119D01*
X193430543Y-138625687D01*
X193555001Y-138000000D01*
X193430543Y-137374312D01*
X193076120Y-136843880D01*
X192545688Y-136489457D01*
X191920000Y-136364999D01*
X191294313Y-136489457D01*
X190763881Y-136843880D01*
X188762760Y-138845000D01*
X181580000Y-138845000D01*
X180954313Y-138969457D01*
X180666760Y-139161593D01*
X180645238Y-139165874D01*
X180183778Y-139474211D01*
X179875441Y-139935671D01*
X179767167Y-140480000D01*
X173232833Y-140480000D01*
X173124559Y-139935671D01*
X172816222Y-139474211D01*
X172354762Y-139165874D01*
X172333240Y-139161593D01*
X172045687Y-138969457D01*
X171420000Y-138845000D01*
X167600000Y-138845000D01*
X166974312Y-138969457D01*
X166761851Y-139111419D01*
X166443880Y-139323880D01*
X166443878Y-139323883D01*
X166423880Y-139343880D01*
X166069457Y-139874312D01*
X165944999Y-140500000D01*
X159055001Y-140500000D01*
X158930543Y-139874313D01*
X158576120Y-139343881D01*
X158531120Y-139298880D01*
X158000688Y-138944457D01*
X157375000Y-138819999D01*
X157374995Y-138820000D01*
X153035000Y-138820000D01*
X152409313Y-138944457D01*
X151878880Y-139298880D01*
X151524457Y-139829313D01*
X151495000Y-139977403D01*
X151495000Y-137837240D01*
X153077239Y-136255000D01*
X200445000Y-136255000D01*
X200445000Y-138079995D01*
X200444999Y-138080000D01*
X200569457Y-138705688D01*
X200923880Y-139236120D01*
X204477560Y-142789799D01*
X204477560Y-142875000D01*
X204521838Y-143110317D01*
X204660910Y-143326441D01*
X204873110Y-143471431D01*
X205125000Y-143522440D01*
X205434122Y-143522440D01*
X206000000Y-143635000D01*
X229492995Y-143635000D01*
X229493000Y-143635001D01*
X230118688Y-143510543D01*
X230649120Y-143156120D01*
X232677239Y-141128000D01*
X243630760Y-141128000D01*
X244368194Y-141865434D01*
X244379838Y-141927317D01*
X244518910Y-142143441D01*
X244731110Y-142288431D01*
X244961478Y-142335082D01*
X245119312Y-142440543D01*
X245745000Y-142565001D01*
X246370688Y-142440543D01*
X246527879Y-142335511D01*
X246742317Y-142295162D01*
X246958441Y-142156090D01*
X247103431Y-141943890D01*
X247150082Y-141713522D01*
X247255543Y-141555688D01*
X247380001Y-140930000D01*
X247255543Y-140304312D01*
X247150511Y-140147121D01*
X247110162Y-139932683D01*
X246971090Y-139716559D01*
X246758890Y-139571569D01*
X246683553Y-139556313D01*
X245464120Y-138336880D01*
X244933688Y-137982457D01*
X244308000Y-137857999D01*
X244307995Y-137858000D01*
X232000000Y-137858000D01*
X231374313Y-137982457D01*
X231251512Y-138064510D01*
X231218950Y-138064510D01*
X230983633Y-138108788D01*
X230767509Y-138247860D01*
X230622519Y-138460060D01*
X230597588Y-138583173D01*
X228815760Y-140365000D01*
X206677239Y-140365000D01*
X203715000Y-137402760D01*
X203715000Y-137000000D01*
X204365000Y-137000000D01*
X204489457Y-137625687D01*
X204843880Y-138156120D01*
X205374313Y-138510543D01*
X206000000Y-138635000D01*
X226999995Y-138635000D01*
X227000000Y-138635001D01*
X227625688Y-138510543D01*
X228156120Y-138156120D01*
X232677239Y-133635000D01*
X241137760Y-133635000D01*
X244588880Y-137086119D01*
X245119312Y-137440543D01*
X245745000Y-137565000D01*
X246370687Y-137440543D01*
X246901119Y-137086119D01*
X247255543Y-136555687D01*
X247380000Y-135930000D01*
X247255543Y-135304312D01*
X246901119Y-134773880D01*
X242971120Y-130843880D01*
X242440688Y-130489457D01*
X241815000Y-130364999D01*
X241814995Y-130365000D01*
X232000005Y-130365000D01*
X232000000Y-130364999D01*
X231374312Y-130489457D01*
X231109097Y-130666668D01*
X230843880Y-130843880D01*
X230843878Y-130843883D01*
X226322760Y-135365000D01*
X206000000Y-135365000D01*
X205374313Y-135489457D01*
X204843880Y-135843880D01*
X204489457Y-136374313D01*
X204365000Y-137000000D01*
X203715000Y-137000000D01*
X203715000Y-134770005D01*
X203715001Y-134770000D01*
X203590543Y-134144312D01*
X203236120Y-133613880D01*
X203086120Y-133463880D01*
X202555688Y-133109457D01*
X202317409Y-133062060D01*
X205117545Y-133062060D01*
X205200884Y-133315953D01*
X205765306Y-133521590D01*
X206365458Y-133495579D01*
X206799116Y-133315953D01*
X206882455Y-133062060D01*
X206000000Y-132179605D01*
X205117545Y-133062060D01*
X202317409Y-133062060D01*
X201930000Y-132984999D01*
X201929995Y-132985000D01*
X152400000Y-132985000D01*
X151774313Y-133109457D01*
X151243880Y-133463880D01*
X151243878Y-133463883D01*
X148703880Y-136003880D01*
X148349457Y-136534312D01*
X148224999Y-137160000D01*
X147447000Y-137160000D01*
X147447000Y-131765306D01*
X204478410Y-131765306D01*
X204504421Y-132365458D01*
X204684047Y-132799116D01*
X204937940Y-132882455D01*
X205820395Y-132000000D01*
X206179605Y-132000000D01*
X207062060Y-132882455D01*
X207315953Y-132799116D01*
X207521590Y-132234694D01*
X207495579Y-131634542D01*
X207315953Y-131200884D01*
X207062060Y-131117545D01*
X206179605Y-132000000D01*
X205820395Y-132000000D01*
X204937940Y-131117545D01*
X204684047Y-131200884D01*
X204478410Y-131765306D01*
X147447000Y-131765306D01*
X147447000Y-130937940D01*
X205117545Y-130937940D01*
X206000000Y-131820395D01*
X206882455Y-130937940D01*
X206799116Y-130684047D01*
X206234694Y-130478410D01*
X205634542Y-130504421D01*
X205200884Y-130684047D01*
X205117545Y-130937940D01*
X147447000Y-130937940D01*
X147447000Y-125857000D01*
X247523000Y-125857000D01*
X247523000Y-173863000D01*
X247523000Y-173863000D01*
G37*
X247523000Y-173863000D02*
X147447000Y-173863000D01*
X147447000Y-137160000D01*
X148224999Y-137160000D01*
X148225000Y-137160005D01*
X148225000Y-166289995D01*
X148224999Y-166290000D01*
X148349457Y-166915688D01*
X148703880Y-167446120D01*
X151531194Y-170273434D01*
X151542838Y-170335317D01*
X151681910Y-170551441D01*
X151894110Y-170696431D01*
X152124478Y-170743082D01*
X152282312Y-170848543D01*
X152908000Y-170973001D01*
X153533688Y-170848543D01*
X153690879Y-170743511D01*
X153905317Y-170703162D01*
X154121441Y-170564090D01*
X154266431Y-170351890D01*
X154313082Y-170121522D01*
X154418543Y-169963688D01*
X154543001Y-169338000D01*
X154418543Y-168712312D01*
X154313511Y-168555121D01*
X154273162Y-168340683D01*
X154134090Y-168124559D01*
X153921890Y-167979569D01*
X153846553Y-167964313D01*
X151495000Y-165612760D01*
X151495000Y-165109672D01*
X151751880Y-165494120D01*
X156413878Y-170156117D01*
X156413880Y-170156120D01*
X156885778Y-170471431D01*
X156944313Y-170510543D01*
X157570000Y-170635001D01*
X157570005Y-170635000D01*
X205999995Y-170635000D01*
X206000000Y-170635001D01*
X206565878Y-170522440D01*
X206875000Y-170522440D01*
X207110317Y-170478162D01*
X207326441Y-170339090D01*
X207471431Y-170126890D01*
X207522440Y-169875000D01*
X207522440Y-169789800D01*
X207684240Y-169628000D01*
X233499995Y-169628000D01*
X233500000Y-169628001D01*
X234125688Y-169503543D01*
X234248489Y-169421490D01*
X234281050Y-169421490D01*
X234516367Y-169377212D01*
X234732491Y-169238140D01*
X234734636Y-169235000D01*
X245745000Y-169235000D01*
X246370687Y-169110543D01*
X246527878Y-169005511D01*
X246742317Y-168965162D01*
X246958441Y-168826090D01*
X247103431Y-168613890D01*
X247150082Y-168383521D01*
X247255543Y-168225687D01*
X247380000Y-167600000D01*
X247255543Y-166974313D01*
X247150511Y-166817122D01*
X247110162Y-166602683D01*
X246971090Y-166386559D01*
X246758890Y-166241569D01*
X246528521Y-166194918D01*
X246370687Y-166089457D01*
X245745000Y-165965000D01*
X233893005Y-165965000D01*
X233893000Y-165964999D01*
X233267312Y-166089457D01*
X232865409Y-166358000D01*
X207007005Y-166358000D01*
X207007000Y-166357999D01*
X206381312Y-166482457D01*
X205850880Y-166836880D01*
X205322760Y-167365000D01*
X158247239Y-167365000D01*
X154882240Y-164000000D01*
X204364999Y-164000000D01*
X204489457Y-164625688D01*
X204843880Y-165156120D01*
X205374312Y-165510543D01*
X206000000Y-165635001D01*
X206625688Y-165510543D01*
X207156120Y-165156120D01*
X210177239Y-162135000D01*
X232822760Y-162135000D01*
X234443878Y-163756117D01*
X234443880Y-163756120D01*
X234974313Y-164110543D01*
X235600000Y-164235000D01*
X245745000Y-164235000D01*
X246370687Y-164110543D01*
X246901120Y-163756120D01*
X247255543Y-163225687D01*
X247380000Y-162600000D01*
X247255543Y-161974313D01*
X246901120Y-161443880D01*
X246370687Y-161089457D01*
X245745000Y-160965000D01*
X236277239Y-160965000D01*
X234656120Y-159343880D01*
X234125688Y-158989457D01*
X233500000Y-158864999D01*
X233499995Y-158865000D01*
X209500000Y-158865000D01*
X208874313Y-158989457D01*
X208343880Y-159343880D01*
X208343878Y-159343883D01*
X204843880Y-162843880D01*
X204489457Y-163374312D01*
X204364999Y-164000000D01*
X154882240Y-164000000D01*
X154064120Y-163181880D01*
X153533688Y-162827457D01*
X152908000Y-162702999D01*
X152282312Y-162827457D01*
X151751880Y-163181880D01*
X151495000Y-163566328D01*
X151495000Y-160318213D01*
X152107392Y-160318213D01*
X152176857Y-160560397D01*
X152700302Y-160747144D01*
X153255368Y-160719362D01*
X153639143Y-160560397D01*
X153708608Y-160318213D01*
X152908000Y-159517605D01*
X152107392Y-160318213D01*
X151495000Y-160318213D01*
X151495000Y-159130302D01*
X151498856Y-159130302D01*
X151526638Y-159685368D01*
X151685603Y-160069143D01*
X151927787Y-160138608D01*
X152728395Y-159338000D01*
X153087605Y-159338000D01*
X153888213Y-160138608D01*
X154130397Y-160069143D01*
X154132923Y-160062060D01*
X205117545Y-160062060D01*
X205200884Y-160315953D01*
X205765306Y-160521590D01*
X206365458Y-160495579D01*
X206799116Y-160315953D01*
X206882455Y-160062060D01*
X206000000Y-159179605D01*
X205117545Y-160062060D01*
X154132923Y-160062060D01*
X154317144Y-159545698D01*
X154289362Y-158990632D01*
X154196029Y-158765306D01*
X204478410Y-158765306D01*
X204504421Y-159365458D01*
X204684047Y-159799116D01*
X204937940Y-159882455D01*
X205820395Y-159000000D01*
X206179605Y-159000000D01*
X207062060Y-159882455D01*
X207315953Y-159799116D01*
X207521590Y-159234694D01*
X207495579Y-158634542D01*
X207315953Y-158200884D01*
X207062060Y-158117545D01*
X206179605Y-159000000D01*
X205820395Y-159000000D01*
X204937940Y-158117545D01*
X204684047Y-158200884D01*
X204478410Y-158765306D01*
X154196029Y-158765306D01*
X154130397Y-158606857D01*
X153888213Y-158537392D01*
X153087605Y-159338000D01*
X152728395Y-159338000D01*
X151927787Y-158537392D01*
X151685603Y-158606857D01*
X151498856Y-159130302D01*
X151495000Y-159130302D01*
X151495000Y-158357787D01*
X152107392Y-158357787D01*
X152908000Y-159158395D01*
X153708608Y-158357787D01*
X153639143Y-158115603D01*
X153141161Y-157937940D01*
X205117545Y-157937940D01*
X206000000Y-158820395D01*
X206882455Y-157937940D01*
X206799116Y-157684047D01*
X206234694Y-157478410D01*
X205634542Y-157504421D01*
X205200884Y-157684047D01*
X205117545Y-157937940D01*
X153141161Y-157937940D01*
X153115698Y-157928856D01*
X152560632Y-157956638D01*
X152176857Y-158115603D01*
X152107392Y-158357787D01*
X151495000Y-158357787D01*
X151495000Y-154693000D01*
X151625560Y-154693000D01*
X151625560Y-156217000D01*
X151669838Y-156452317D01*
X151808910Y-156668441D01*
X152021110Y-156813431D01*
X152273000Y-156864440D01*
X153797000Y-156864440D01*
X154032317Y-156820162D01*
X154248441Y-156681090D01*
X154393431Y-156468890D01*
X154444440Y-156217000D01*
X154444440Y-154693000D01*
X154400162Y-154457683D01*
X154261090Y-154241559D01*
X154048890Y-154096569D01*
X153797000Y-154045560D01*
X152273000Y-154045560D01*
X152037683Y-154089838D01*
X151821559Y-154228910D01*
X151676569Y-154441110D01*
X151625560Y-154693000D01*
X151495000Y-154693000D01*
X151495000Y-150932597D01*
X151524457Y-151080687D01*
X151878880Y-151611120D01*
X152409313Y-151965543D01*
X153035000Y-152090000D01*
X157693767Y-152090000D01*
X157920000Y-152135001D01*
X158545688Y-152010543D01*
X159076120Y-151656120D01*
X159430543Y-151125688D01*
X159555001Y-150500000D01*
X159430543Y-149874313D01*
X159076120Y-149343881D01*
X159031120Y-149298880D01*
X158500688Y-148944457D01*
X157875000Y-148819999D01*
X157874995Y-148820000D01*
X153035000Y-148820000D01*
X152409313Y-148944457D01*
X151878880Y-149298880D01*
X151524457Y-149829313D01*
X151495000Y-149977403D01*
X151495000Y-145932597D01*
X151524457Y-146080687D01*
X151878880Y-146611120D01*
X152409313Y-146965543D01*
X153035000Y-147090000D01*
X157193767Y-147090000D01*
X157420000Y-147135001D01*
X158045688Y-147010543D01*
X158576120Y-146656120D01*
X158930543Y-146125688D01*
X159055001Y-145500000D01*
X158930543Y-144874313D01*
X158576120Y-144343881D01*
X158531120Y-144298880D01*
X158000688Y-143944457D01*
X157375000Y-143819999D01*
X157374995Y-143820000D01*
X153035000Y-143820000D01*
X152409313Y-143944457D01*
X151878880Y-144298880D01*
X151524457Y-144829313D01*
X151495000Y-144977403D01*
X151495000Y-140932597D01*
X151524457Y-141080687D01*
X151878880Y-141611120D01*
X152409313Y-141965543D01*
X153035000Y-142090000D01*
X157193767Y-142090000D01*
X157420000Y-142135001D01*
X158045688Y-142010543D01*
X158576120Y-141656120D01*
X158930543Y-141125688D01*
X159055001Y-140500000D01*
X165944999Y-140500000D01*
X166069457Y-141125688D01*
X166423880Y-141656120D01*
X166954312Y-142010543D01*
X167580000Y-142135001D01*
X167680551Y-142115000D01*
X169653375Y-142115000D01*
X169629560Y-142232600D01*
X169629560Y-143807400D01*
X169673838Y-144042717D01*
X169812910Y-144258841D01*
X169939008Y-144345000D01*
X168737240Y-144345000D01*
X168736120Y-144343880D01*
X168205688Y-143989457D01*
X167580000Y-143864999D01*
X166954312Y-143989457D01*
X166423880Y-144343880D01*
X166069457Y-144874312D01*
X165944999Y-145500000D01*
X166069457Y-146125688D01*
X166423880Y-146656120D01*
X166903878Y-147136117D01*
X166903880Y-147136120D01*
X167419597Y-147480710D01*
X167434313Y-147490543D01*
X168060000Y-147615001D01*
X168060005Y-147615000D01*
X169653375Y-147615000D01*
X169629560Y-147732600D01*
X169629560Y-149307400D01*
X169673838Y-149542717D01*
X169812910Y-149758841D01*
X169939008Y-149845000D01*
X169737239Y-149845000D01*
X169236120Y-149343880D01*
X168705688Y-148989457D01*
X168080000Y-148864999D01*
X167454312Y-148989457D01*
X166923880Y-149343880D01*
X166569457Y-149874312D01*
X166444999Y-150500000D01*
X166569457Y-151125688D01*
X166923880Y-151656120D01*
X167903878Y-152636117D01*
X167903880Y-152636120D01*
X168221851Y-152848581D01*
X168434312Y-152990543D01*
X169060000Y-153115000D01*
X169653375Y-153115000D01*
X169629560Y-153232600D01*
X169629560Y-154807400D01*
X169673838Y-155042717D01*
X169812910Y-155258841D01*
X170025110Y-155403831D01*
X170277000Y-155454840D01*
X172563000Y-155454840D01*
X172798317Y-155410562D01*
X173014441Y-155271490D01*
X173159431Y-155059290D01*
X173210440Y-154807400D01*
X173210440Y-154367060D01*
X179844990Y-154367060D01*
X179861673Y-154446996D01*
X180128809Y-154935986D01*
X180562738Y-155285525D01*
X181097400Y-155442400D01*
X181453000Y-155442400D01*
X181453000Y-154147000D01*
X181707000Y-154147000D01*
X181707000Y-155442400D01*
X182062600Y-155442400D01*
X182597262Y-155285525D01*
X183031191Y-154935986D01*
X183298327Y-154446996D01*
X183315010Y-154367060D01*
X183192852Y-154147000D01*
X181707000Y-154147000D01*
X181453000Y-154147000D01*
X179967148Y-154147000D01*
X179844990Y-154367060D01*
X173210440Y-154367060D01*
X173210440Y-153232600D01*
X173166162Y-152997283D01*
X173027090Y-152781159D01*
X172814890Y-152636169D01*
X172643197Y-152601400D01*
X172816222Y-152485789D01*
X173124559Y-152024329D01*
X173232833Y-151480000D01*
X179767167Y-151480000D01*
X179875441Y-152024329D01*
X180183778Y-152485789D01*
X180578830Y-152749754D01*
X180562738Y-152754475D01*
X180128809Y-153104014D01*
X179861673Y-153593004D01*
X179844990Y-153672940D01*
X179967148Y-153893000D01*
X181453000Y-153893000D01*
X181453000Y-153873000D01*
X181707000Y-153873000D01*
X181707000Y-153893000D01*
X183192852Y-153893000D01*
X183315010Y-153672940D01*
X183298327Y-153593004D01*
X183037193Y-153115000D01*
X188902760Y-153115000D01*
X190613881Y-154826120D01*
X191144313Y-155180543D01*
X191770000Y-155305001D01*
X192395688Y-155180543D01*
X192926120Y-154826120D01*
X193280543Y-154295688D01*
X193405001Y-153670000D01*
X200294999Y-153670000D01*
X200419457Y-154295688D01*
X200773880Y-154826120D01*
X202603878Y-156656117D01*
X202603880Y-156656120D01*
X202839313Y-156813431D01*
X203134312Y-157010543D01*
X203760000Y-157135001D01*
X203760005Y-157135000D01*
X218992995Y-157135000D01*
X218993000Y-157135001D01*
X219618688Y-157010543D01*
X220149120Y-156656120D01*
X220677240Y-156128000D01*
X245516995Y-156128000D01*
X245517000Y-156128001D01*
X246142688Y-156003543D01*
X246673120Y-155649120D01*
X246680434Y-155641806D01*
X246742317Y-155630162D01*
X246958441Y-155491090D01*
X247103431Y-155278890D01*
X247150082Y-155048521D01*
X247255543Y-154890687D01*
X247380001Y-154265000D01*
X247255543Y-153639312D01*
X247150511Y-153482121D01*
X247110162Y-153267683D01*
X246971090Y-153051559D01*
X246758890Y-152906569D01*
X246528522Y-152859918D01*
X246370688Y-152754457D01*
X245745000Y-152629999D01*
X245119313Y-152754457D01*
X244964350Y-152858000D01*
X220000005Y-152858000D01*
X220000000Y-152857999D01*
X219374312Y-152982457D01*
X219251511Y-153064510D01*
X219218950Y-153064510D01*
X218983633Y-153108788D01*
X218767509Y-153247860D01*
X218622519Y-153460060D01*
X218597588Y-153583172D01*
X218315760Y-153865000D01*
X204437239Y-153865000D01*
X203565000Y-152992760D01*
X203565000Y-150500000D01*
X204365000Y-150500000D01*
X204489457Y-151125687D01*
X204843880Y-151656120D01*
X205374313Y-152010543D01*
X206000000Y-152135000D01*
X216499995Y-152135000D01*
X216500000Y-152135001D01*
X217125688Y-152010543D01*
X217656120Y-151656120D01*
X220000000Y-149312239D01*
X221108878Y-150421117D01*
X221108880Y-150421120D01*
X221188337Y-150474211D01*
X221639313Y-150775543D01*
X222265000Y-150900001D01*
X222265005Y-150900000D01*
X245745000Y-150900000D01*
X246370687Y-150775543D01*
X246901120Y-150421120D01*
X247255543Y-149890687D01*
X247380000Y-149265000D01*
X247255543Y-148639313D01*
X246901120Y-148108880D01*
X246370687Y-147754457D01*
X245745000Y-147630000D01*
X222942239Y-147630000D01*
X221156120Y-145843880D01*
X220625688Y-145489457D01*
X220000000Y-145364999D01*
X219374312Y-145489457D01*
X218843880Y-145843880D01*
X218843878Y-145843883D01*
X215822760Y-148865000D01*
X206000000Y-148865000D01*
X205374313Y-148989457D01*
X204843880Y-149343880D01*
X204489457Y-149874313D01*
X204365000Y-150500000D01*
X203565000Y-150500000D01*
X203565000Y-147320000D01*
X203440543Y-146694313D01*
X203352175Y-146562060D01*
X205117545Y-146562060D01*
X205200884Y-146815953D01*
X205765306Y-147021590D01*
X206365458Y-146995579D01*
X206799116Y-146815953D01*
X206882455Y-146562060D01*
X206000000Y-145679605D01*
X205117545Y-146562060D01*
X203352175Y-146562060D01*
X203086120Y-146163880D01*
X202555687Y-145809457D01*
X201930000Y-145685000D01*
X201304313Y-145809457D01*
X200773880Y-146163880D01*
X200419457Y-146694313D01*
X200295000Y-147320000D01*
X200295000Y-153669995D01*
X200294999Y-153670000D01*
X193405001Y-153670000D01*
X193280543Y-153044313D01*
X192926120Y-152513881D01*
X190736120Y-150323880D01*
X190205688Y-149969457D01*
X189580000Y-149844999D01*
X189579995Y-149845000D01*
X182394559Y-149845000D01*
X182597262Y-149785525D01*
X183031191Y-149435986D01*
X183298327Y-148946996D01*
X183315010Y-148867060D01*
X183192852Y-148647000D01*
X181707000Y-148647000D01*
X181707000Y-148667000D01*
X181453000Y-148667000D01*
X181453000Y-148647000D01*
X179967148Y-148647000D01*
X179844990Y-148867060D01*
X179861673Y-148946996D01*
X180128809Y-149435986D01*
X180562738Y-149785525D01*
X181094547Y-149941563D01*
X180954313Y-149969457D01*
X180666760Y-150161593D01*
X180645238Y-150165874D01*
X180183778Y-150474211D01*
X179875441Y-150935671D01*
X179767167Y-151480000D01*
X173232833Y-151480000D01*
X173124559Y-150935671D01*
X172816222Y-150474211D01*
X172354762Y-150165874D01*
X172333240Y-150161593D01*
X172045687Y-149969457D01*
X171972202Y-149954840D01*
X172563000Y-149954840D01*
X172798317Y-149910562D01*
X173014441Y-149771490D01*
X173159431Y-149559290D01*
X173210440Y-149307400D01*
X173210440Y-147732600D01*
X173166162Y-147497283D01*
X173027090Y-147281159D01*
X172814890Y-147136169D01*
X172643197Y-147101400D01*
X172816222Y-146985789D01*
X173124559Y-146524329D01*
X173232833Y-145980000D01*
X179767167Y-145980000D01*
X179875441Y-146524329D01*
X180183778Y-146985789D01*
X180578830Y-147249754D01*
X180562738Y-147254475D01*
X180128809Y-147604014D01*
X179861673Y-148093004D01*
X179844990Y-148172940D01*
X179967148Y-148393000D01*
X181453000Y-148393000D01*
X181453000Y-148373000D01*
X181707000Y-148373000D01*
X181707000Y-148393000D01*
X183192852Y-148393000D01*
X183315010Y-148172940D01*
X183298327Y-148093004D01*
X183037193Y-147615000D01*
X189752760Y-147615000D01*
X190613880Y-148476119D01*
X191144312Y-148830543D01*
X191770000Y-148955000D01*
X192395688Y-148830543D01*
X192926119Y-148476119D01*
X193280543Y-147945688D01*
X193405000Y-147320000D01*
X193280543Y-146694312D01*
X192926119Y-146163880D01*
X192027546Y-145265306D01*
X204478410Y-145265306D01*
X204504421Y-145865458D01*
X204684047Y-146299116D01*
X204937940Y-146382455D01*
X205820395Y-145500000D01*
X206179605Y-145500000D01*
X207062060Y-146382455D01*
X207315953Y-146299116D01*
X207521590Y-145734694D01*
X207495579Y-145134542D01*
X207315953Y-144700884D01*
X207062060Y-144617545D01*
X206179605Y-145500000D01*
X205820395Y-145500000D01*
X204937940Y-144617545D01*
X204684047Y-144700884D01*
X204478410Y-145265306D01*
X192027546Y-145265306D01*
X191586120Y-144823880D01*
X191055688Y-144469457D01*
X190897243Y-144437940D01*
X205117545Y-144437940D01*
X206000000Y-145320395D01*
X206882455Y-144437940D01*
X206799116Y-144184047D01*
X206234694Y-143978410D01*
X205634542Y-144004421D01*
X205200884Y-144184047D01*
X205117545Y-144437940D01*
X190897243Y-144437940D01*
X190430000Y-144344999D01*
X190429995Y-144345000D01*
X182394559Y-144345000D01*
X182597262Y-144285525D01*
X183031191Y-143935986D01*
X183298327Y-143446996D01*
X183315010Y-143367060D01*
X183192852Y-143147000D01*
X181707000Y-143147000D01*
X181707000Y-143167000D01*
X181453000Y-143167000D01*
X181453000Y-143147000D01*
X179967148Y-143147000D01*
X179844990Y-143367060D01*
X179861673Y-143446996D01*
X180128809Y-143935986D01*
X180562738Y-144285525D01*
X181094547Y-144441563D01*
X180954313Y-144469457D01*
X180666760Y-144661593D01*
X180645238Y-144665874D01*
X180183778Y-144974211D01*
X179875441Y-145435671D01*
X179767167Y-145980000D01*
X173232833Y-145980000D01*
X173124559Y-145435671D01*
X172816222Y-144974211D01*
X172354762Y-144665874D01*
X172333240Y-144661593D01*
X172045687Y-144469457D01*
X171972202Y-144454840D01*
X172563000Y-144454840D01*
X172798317Y-144410562D01*
X173014441Y-144271490D01*
X173159431Y-144059290D01*
X173210440Y-143807400D01*
X173210440Y-142232600D01*
X173166162Y-141997283D01*
X173027090Y-141781159D01*
X172814890Y-141636169D01*
X172643197Y-141601400D01*
X172816222Y-141485789D01*
X173124559Y-141024329D01*
X173232833Y-140480000D01*
X179767167Y-140480000D01*
X179875441Y-141024329D01*
X180183778Y-141485789D01*
X180578830Y-141749754D01*
X180562738Y-141754475D01*
X180128809Y-142104014D01*
X179861673Y-142593004D01*
X179844990Y-142672940D01*
X179967148Y-142893000D01*
X181453000Y-142893000D01*
X181453000Y-142873000D01*
X181707000Y-142873000D01*
X181707000Y-142893000D01*
X183192852Y-142893000D01*
X183315010Y-142672940D01*
X183298327Y-142593004D01*
X183037193Y-142115000D01*
X189439995Y-142115000D01*
X189440000Y-142115001D01*
X190065688Y-141990543D01*
X190596120Y-141636120D01*
X193076120Y-139156119D01*
X193430543Y-138625687D01*
X193555001Y-138000000D01*
X193430543Y-137374312D01*
X193076120Y-136843880D01*
X192545688Y-136489457D01*
X191920000Y-136364999D01*
X191294313Y-136489457D01*
X190763881Y-136843880D01*
X188762760Y-138845000D01*
X181580000Y-138845000D01*
X180954313Y-138969457D01*
X180666760Y-139161593D01*
X180645238Y-139165874D01*
X180183778Y-139474211D01*
X179875441Y-139935671D01*
X179767167Y-140480000D01*
X173232833Y-140480000D01*
X173124559Y-139935671D01*
X172816222Y-139474211D01*
X172354762Y-139165874D01*
X172333240Y-139161593D01*
X172045687Y-138969457D01*
X171420000Y-138845000D01*
X167600000Y-138845000D01*
X166974312Y-138969457D01*
X166761851Y-139111419D01*
X166443880Y-139323880D01*
X166443878Y-139323883D01*
X166423880Y-139343880D01*
X166069457Y-139874312D01*
X165944999Y-140500000D01*
X159055001Y-140500000D01*
X158930543Y-139874313D01*
X158576120Y-139343881D01*
X158531120Y-139298880D01*
X158000688Y-138944457D01*
X157375000Y-138819999D01*
X157374995Y-138820000D01*
X153035000Y-138820000D01*
X152409313Y-138944457D01*
X151878880Y-139298880D01*
X151524457Y-139829313D01*
X151495000Y-139977403D01*
X151495000Y-137837240D01*
X153077239Y-136255000D01*
X200445000Y-136255000D01*
X200445000Y-138079995D01*
X200444999Y-138080000D01*
X200569457Y-138705688D01*
X200923880Y-139236120D01*
X204477560Y-142789799D01*
X204477560Y-142875000D01*
X204521838Y-143110317D01*
X204660910Y-143326441D01*
X204873110Y-143471431D01*
X205125000Y-143522440D01*
X205434122Y-143522440D01*
X206000000Y-143635000D01*
X229492995Y-143635000D01*
X229493000Y-143635001D01*
X230118688Y-143510543D01*
X230649120Y-143156120D01*
X232677239Y-141128000D01*
X243630760Y-141128000D01*
X244368194Y-141865434D01*
X244379838Y-141927317D01*
X244518910Y-142143441D01*
X244731110Y-142288431D01*
X244961478Y-142335082D01*
X245119312Y-142440543D01*
X245745000Y-142565001D01*
X246370688Y-142440543D01*
X246527879Y-142335511D01*
X246742317Y-142295162D01*
X246958441Y-142156090D01*
X247103431Y-141943890D01*
X247150082Y-141713522D01*
X247255543Y-141555688D01*
X247380001Y-140930000D01*
X247255543Y-140304312D01*
X247150511Y-140147121D01*
X247110162Y-139932683D01*
X246971090Y-139716559D01*
X246758890Y-139571569D01*
X246683553Y-139556313D01*
X245464120Y-138336880D01*
X244933688Y-137982457D01*
X244308000Y-137857999D01*
X244307995Y-137858000D01*
X232000000Y-137858000D01*
X231374313Y-137982457D01*
X231251512Y-138064510D01*
X231218950Y-138064510D01*
X230983633Y-138108788D01*
X230767509Y-138247860D01*
X230622519Y-138460060D01*
X230597588Y-138583173D01*
X228815760Y-140365000D01*
X206677239Y-140365000D01*
X203715000Y-137402760D01*
X203715000Y-137000000D01*
X204365000Y-137000000D01*
X204489457Y-137625687D01*
X204843880Y-138156120D01*
X205374313Y-138510543D01*
X206000000Y-138635000D01*
X226999995Y-138635000D01*
X227000000Y-138635001D01*
X227625688Y-138510543D01*
X228156120Y-138156120D01*
X232677239Y-133635000D01*
X241137760Y-133635000D01*
X244588880Y-137086119D01*
X245119312Y-137440543D01*
X245745000Y-137565000D01*
X246370687Y-137440543D01*
X246901119Y-137086119D01*
X247255543Y-136555687D01*
X247380000Y-135930000D01*
X247255543Y-135304312D01*
X246901119Y-134773880D01*
X242971120Y-130843880D01*
X242440688Y-130489457D01*
X241815000Y-130364999D01*
X241814995Y-130365000D01*
X232000005Y-130365000D01*
X232000000Y-130364999D01*
X231374312Y-130489457D01*
X231109097Y-130666668D01*
X230843880Y-130843880D01*
X230843878Y-130843883D01*
X226322760Y-135365000D01*
X206000000Y-135365000D01*
X205374313Y-135489457D01*
X204843880Y-135843880D01*
X204489457Y-136374313D01*
X204365000Y-137000000D01*
X203715000Y-137000000D01*
X203715000Y-134770005D01*
X203715001Y-134770000D01*
X203590543Y-134144312D01*
X203236120Y-133613880D01*
X203086120Y-133463880D01*
X202555688Y-133109457D01*
X202317409Y-133062060D01*
X205117545Y-133062060D01*
X205200884Y-133315953D01*
X205765306Y-133521590D01*
X206365458Y-133495579D01*
X206799116Y-133315953D01*
X206882455Y-133062060D01*
X206000000Y-132179605D01*
X205117545Y-133062060D01*
X202317409Y-133062060D01*
X201930000Y-132984999D01*
X201929995Y-132985000D01*
X152400000Y-132985000D01*
X151774313Y-133109457D01*
X151243880Y-133463880D01*
X151243878Y-133463883D01*
X148703880Y-136003880D01*
X148349457Y-136534312D01*
X148224999Y-137160000D01*
X147447000Y-137160000D01*
X147447000Y-131765306D01*
X204478410Y-131765306D01*
X204504421Y-132365458D01*
X204684047Y-132799116D01*
X204937940Y-132882455D01*
X205820395Y-132000000D01*
X206179605Y-132000000D01*
X207062060Y-132882455D01*
X207315953Y-132799116D01*
X207521590Y-132234694D01*
X207495579Y-131634542D01*
X207315953Y-131200884D01*
X207062060Y-131117545D01*
X206179605Y-132000000D01*
X205820395Y-132000000D01*
X204937940Y-131117545D01*
X204684047Y-131200884D01*
X204478410Y-131765306D01*
X147447000Y-131765306D01*
X147447000Y-130937940D01*
X205117545Y-130937940D01*
X206000000Y-131820395D01*
X206882455Y-130937940D01*
X206799116Y-130684047D01*
X206234694Y-130478410D01*
X205634542Y-130504421D01*
X205200884Y-130684047D01*
X205117545Y-130937940D01*
X147447000Y-130937940D01*
X147447000Y-125857000D01*
X247523000Y-125857000D01*
X247523000Y-173863000D01*
M02*
