M48
METRIC,TZ
T1C0.813
T2C1.016
T3C1.041
T4C1.260
%
G90
G05
T1
X157420Y-140500
X157420Y-145500
X157920Y-150500
X167580Y-140500
X167580Y-145500
X168080Y-150500
X171420Y-140480
X171420Y-143020
X171420Y-145980
X171420Y-148520
X171420Y-151480
X171420Y-154020
X181580Y-140480
X181580Y-143020
X181580Y-145980
X181580Y-148520
X181580Y-151480
X181580Y-154020
X191770Y-147320
X191770Y-153670
X191920Y-138000
X201930Y-147320
X201930Y-153670
X202080Y-138000
T2
X152908Y-159338
X152908Y-164338
X152908Y-169338
X153035Y-140455
X153035Y-145455
X153035Y-150455
X153035Y-155455
X245745Y-135930
X245745Y-140930
X245745Y-149265
X245745Y-154265
X245745Y-162600
X245745Y-167600
T3
X220000Y-147000
X220000Y-154493
X232000Y-132000
X232000Y-139493
X233500Y-160500
X233500Y-167993
T4
X206000Y-132000
X206000Y-137000
X206000Y-142000
X206000Y-145500
X206000Y-150500
X206000Y-155500
X206000Y-159000
X206000Y-164000
X206000Y-169000
T0
M30
