G04 #@! TF.FileFunction,Copper,L2,Bot,Signal*
%FSLAX46Y46*%
G04 Gerber Fmt 4.6, Leading zero omitted, Abs format (unit mm)*
G04 Created by KiCad (PCBNEW 4.0.7-e1-6374~58~ubuntu14.04.1) date Fri Aug 18 16:55:42 2017*
%MOMM*%
%LPD*%
G01*
G04 APERTURE LIST*
%ADD10C,0.100000*%
%ADD11C,1.524000*%
%ADD12R,1.562100X1.562100*%
%ADD13C,1.562100*%
%ADD14R,1.524000X1.524000*%
%ADD15R,1.750000X1.750000*%
%ADD16C,1.750000*%
%ADD17R,2.286000X1.574800*%
%ADD18O,2.286000X1.574800*%
%ADD19C,0.254000*%
G04 APERTURE END LIST*
D10*
D11*
X167580000Y-140500000D03*
X157420000Y-140500000D03*
X167580000Y-145500000D03*
X157420000Y-145500000D03*
X168080000Y-150500000D03*
X157920000Y-150500000D03*
X191920000Y-138000000D03*
X202080000Y-138000000D03*
X191770000Y-147320000D03*
X201930000Y-147320000D03*
X191770000Y-153670000D03*
X201930000Y-153670000D03*
D12*
X232000000Y-139493000D03*
D13*
X232000000Y-132000000D03*
D12*
X220000000Y-154493000D03*
D13*
X220000000Y-147000000D03*
D12*
X233500000Y-167993000D03*
D13*
X233500000Y-160500000D03*
D14*
X245745000Y-167600000D03*
D11*
X245745000Y-162600000D03*
D14*
X245745000Y-140930000D03*
D11*
X245745000Y-135930000D03*
D14*
X245745000Y-154265000D03*
D11*
X245745000Y-149265000D03*
D14*
X153035000Y-155455000D03*
D11*
X153035000Y-150455000D03*
X153035000Y-145455000D03*
X153035000Y-140455000D03*
D14*
X152908000Y-169338000D03*
D11*
X152908000Y-164338000D03*
X152908000Y-159338000D03*
D15*
X206000000Y-142000000D03*
D16*
X206000000Y-137000000D03*
X206000000Y-132000000D03*
D15*
X206000000Y-155500000D03*
D16*
X206000000Y-150500000D03*
X206000000Y-145500000D03*
D15*
X206000000Y-169000000D03*
D16*
X206000000Y-164000000D03*
X206000000Y-159000000D03*
D17*
X171420000Y-154020000D03*
D18*
X171420000Y-151480000D03*
X181580000Y-151480000D03*
X181580000Y-154020000D03*
D17*
X171420000Y-148520000D03*
D18*
X171420000Y-145980000D03*
X181580000Y-145980000D03*
X181580000Y-148520000D03*
D17*
X171420000Y-143020000D03*
D18*
X171420000Y-140480000D03*
X181580000Y-140480000D03*
X181580000Y-143020000D03*
D19*
G36*
X247523000Y-173863000D02*
X147447000Y-173863000D01*
X147447000Y-168576000D01*
X151498560Y-168576000D01*
X151498560Y-170100000D01*
X151542838Y-170335317D01*
X151681910Y-170551441D01*
X151894110Y-170696431D01*
X152146000Y-170747440D01*
X153670000Y-170747440D01*
X153905317Y-170703162D01*
X154121441Y-170564090D01*
X154266431Y-170351890D01*
X154317440Y-170100000D01*
X154317440Y-168576000D01*
X154273162Y-168340683D01*
X154134374Y-168125000D01*
X204477560Y-168125000D01*
X204477560Y-169875000D01*
X204521838Y-170110317D01*
X204660910Y-170326441D01*
X204873110Y-170471431D01*
X205125000Y-170522440D01*
X206875000Y-170522440D01*
X207110317Y-170478162D01*
X207326441Y-170339090D01*
X207471431Y-170126890D01*
X207522440Y-169875000D01*
X207522440Y-168125000D01*
X207478162Y-167889683D01*
X207339090Y-167673559D01*
X207126890Y-167528569D01*
X206875000Y-167477560D01*
X205125000Y-167477560D01*
X204889683Y-167521838D01*
X204673559Y-167660910D01*
X204528569Y-167873110D01*
X204477560Y-168125000D01*
X154134374Y-168125000D01*
X154134090Y-168124559D01*
X153921890Y-167979569D01*
X153670000Y-167928560D01*
X152146000Y-167928560D01*
X151910683Y-167972838D01*
X151694559Y-168111910D01*
X151549569Y-168324110D01*
X151498560Y-168576000D01*
X147447000Y-168576000D01*
X147447000Y-167211950D01*
X232071510Y-167211950D01*
X232071510Y-168774050D01*
X232115788Y-169009367D01*
X232254860Y-169225491D01*
X232467060Y-169370481D01*
X232718950Y-169421490D01*
X234281050Y-169421490D01*
X234516367Y-169377212D01*
X234732491Y-169238140D01*
X234877481Y-169025940D01*
X234928490Y-168774050D01*
X234928490Y-167211950D01*
X234884212Y-166976633D01*
X234795005Y-166838000D01*
X244335560Y-166838000D01*
X244335560Y-168362000D01*
X244379838Y-168597317D01*
X244518910Y-168813441D01*
X244731110Y-168958431D01*
X244983000Y-169009440D01*
X246507000Y-169009440D01*
X246742317Y-168965162D01*
X246958441Y-168826090D01*
X247103431Y-168613890D01*
X247154440Y-168362000D01*
X247154440Y-166838000D01*
X247110162Y-166602683D01*
X246971090Y-166386559D01*
X246758890Y-166241569D01*
X246507000Y-166190560D01*
X244983000Y-166190560D01*
X244747683Y-166234838D01*
X244531559Y-166373910D01*
X244386569Y-166586110D01*
X244335560Y-166838000D01*
X234795005Y-166838000D01*
X234745140Y-166760509D01*
X234532940Y-166615519D01*
X234281050Y-166564510D01*
X232718950Y-166564510D01*
X232483633Y-166608788D01*
X232267509Y-166747860D01*
X232122519Y-166960060D01*
X232071510Y-167211950D01*
X147447000Y-167211950D01*
X147447000Y-164614661D01*
X151510758Y-164614661D01*
X151722990Y-165128303D01*
X152115630Y-165521629D01*
X152628900Y-165734757D01*
X153184661Y-165735242D01*
X153698303Y-165523010D01*
X154091629Y-165130370D01*
X154304757Y-164617100D01*
X154305034Y-164299040D01*
X204489738Y-164299040D01*
X204719138Y-164854229D01*
X205143537Y-165279370D01*
X205698325Y-165509738D01*
X206299040Y-165510262D01*
X206854229Y-165280862D01*
X207279370Y-164856463D01*
X207509738Y-164301675D01*
X207510262Y-163700960D01*
X207280862Y-163145771D01*
X207012222Y-162876661D01*
X244347758Y-162876661D01*
X244559990Y-163390303D01*
X244952630Y-163783629D01*
X245465900Y-163996757D01*
X246021661Y-163997242D01*
X246535303Y-163785010D01*
X246928629Y-163392370D01*
X247141757Y-162879100D01*
X247142242Y-162323339D01*
X246930010Y-161809697D01*
X246537370Y-161416371D01*
X246024100Y-161203243D01*
X245468339Y-161202758D01*
X244954697Y-161414990D01*
X244561371Y-161807630D01*
X244348243Y-162320900D01*
X244347758Y-162876661D01*
X207012222Y-162876661D01*
X206856463Y-162720630D01*
X206301675Y-162490262D01*
X205700960Y-162489738D01*
X205145771Y-162719138D01*
X204720630Y-163143537D01*
X204490262Y-163698325D01*
X204489738Y-164299040D01*
X154305034Y-164299040D01*
X154305242Y-164061339D01*
X154093010Y-163547697D01*
X153700370Y-163154371D01*
X153187100Y-162941243D01*
X152631339Y-162940758D01*
X152117697Y-163152990D01*
X151724371Y-163545630D01*
X151511243Y-164058900D01*
X151510758Y-164614661D01*
X147447000Y-164614661D01*
X147447000Y-160780434D01*
X232083705Y-160780434D01*
X232298831Y-161301080D01*
X232696825Y-161699769D01*
X233217095Y-161915804D01*
X233780434Y-161916295D01*
X234301080Y-161701169D01*
X234699769Y-161303175D01*
X234915804Y-160782905D01*
X234916295Y-160219566D01*
X234701169Y-159698920D01*
X234303175Y-159300231D01*
X233782905Y-159084196D01*
X233219566Y-159083705D01*
X232698920Y-159298831D01*
X232300231Y-159696825D01*
X232084196Y-160217095D01*
X232083705Y-160780434D01*
X147447000Y-160780434D01*
X147447000Y-159614661D01*
X151510758Y-159614661D01*
X151722990Y-160128303D01*
X152115630Y-160521629D01*
X152628900Y-160734757D01*
X153184661Y-160735242D01*
X153698303Y-160523010D01*
X154091629Y-160130370D01*
X154304757Y-159617100D01*
X154305034Y-159299040D01*
X204489738Y-159299040D01*
X204719138Y-159854229D01*
X205143537Y-160279370D01*
X205698325Y-160509738D01*
X206299040Y-160510262D01*
X206854229Y-160280862D01*
X207279370Y-159856463D01*
X207509738Y-159301675D01*
X207510262Y-158700960D01*
X207280862Y-158145771D01*
X206856463Y-157720630D01*
X206301675Y-157490262D01*
X205700960Y-157489738D01*
X205145771Y-157719138D01*
X204720630Y-158143537D01*
X204490262Y-158698325D01*
X204489738Y-159299040D01*
X154305034Y-159299040D01*
X154305242Y-159061339D01*
X154093010Y-158547697D01*
X153700370Y-158154371D01*
X153187100Y-157941243D01*
X152631339Y-157940758D01*
X152117697Y-158152990D01*
X151724371Y-158545630D01*
X151511243Y-159058900D01*
X151510758Y-159614661D01*
X147447000Y-159614661D01*
X147447000Y-155740750D01*
X151638000Y-155740750D01*
X151638000Y-156343309D01*
X151734673Y-156576698D01*
X151913301Y-156755327D01*
X152146690Y-156852000D01*
X152749250Y-156852000D01*
X152908000Y-156693250D01*
X152908000Y-155582000D01*
X153162000Y-155582000D01*
X153162000Y-156693250D01*
X153320750Y-156852000D01*
X153923310Y-156852000D01*
X154156699Y-156755327D01*
X154335327Y-156576698D01*
X154432000Y-156343309D01*
X154432000Y-155740750D01*
X154273250Y-155582000D01*
X153162000Y-155582000D01*
X152908000Y-155582000D01*
X151796750Y-155582000D01*
X151638000Y-155740750D01*
X147447000Y-155740750D01*
X147447000Y-154566691D01*
X151638000Y-154566691D01*
X151638000Y-155169250D01*
X151796750Y-155328000D01*
X152908000Y-155328000D01*
X152908000Y-154216750D01*
X153162000Y-154216750D01*
X153162000Y-155328000D01*
X154273250Y-155328000D01*
X154432000Y-155169250D01*
X154432000Y-154566691D01*
X154335327Y-154333302D01*
X154307776Y-154305750D01*
X169642000Y-154305750D01*
X169642000Y-154933710D01*
X169738673Y-155167099D01*
X169917302Y-155345727D01*
X170150691Y-155442400D01*
X171134250Y-155442400D01*
X171293000Y-155283650D01*
X171293000Y-154147000D01*
X171547000Y-154147000D01*
X171547000Y-155283650D01*
X171705750Y-155442400D01*
X172689309Y-155442400D01*
X172922698Y-155345727D01*
X173101327Y-155167099D01*
X173198000Y-154933710D01*
X173198000Y-154305750D01*
X173039250Y-154147000D01*
X171547000Y-154147000D01*
X171293000Y-154147000D01*
X169800750Y-154147000D01*
X169642000Y-154305750D01*
X154307776Y-154305750D01*
X154156699Y-154154673D01*
X153923310Y-154058000D01*
X153320750Y-154058000D01*
X153162000Y-154216750D01*
X152908000Y-154216750D01*
X152749250Y-154058000D01*
X152146690Y-154058000D01*
X151913301Y-154154673D01*
X151734673Y-154333302D01*
X151638000Y-154566691D01*
X147447000Y-154566691D01*
X147447000Y-150731661D01*
X151637758Y-150731661D01*
X151849990Y-151245303D01*
X152242630Y-151638629D01*
X152755900Y-151851757D01*
X153311661Y-151852242D01*
X153825303Y-151640010D01*
X154218629Y-151247370D01*
X154414084Y-150776661D01*
X156522758Y-150776661D01*
X156734990Y-151290303D01*
X157127630Y-151683629D01*
X157640900Y-151896757D01*
X158196661Y-151897242D01*
X158710303Y-151685010D01*
X159103629Y-151292370D01*
X159316757Y-150779100D01*
X159316759Y-150776661D01*
X166682758Y-150776661D01*
X166894990Y-151290303D01*
X167287630Y-151683629D01*
X167800900Y-151896757D01*
X168356661Y-151897242D01*
X168870303Y-151685010D01*
X169075671Y-151480000D01*
X169607167Y-151480000D01*
X169715441Y-152024329D01*
X170023778Y-152485789D01*
X170191115Y-152597600D01*
X170150691Y-152597600D01*
X169917302Y-152694273D01*
X169738673Y-152872901D01*
X169642000Y-153106290D01*
X169642000Y-153734250D01*
X169800750Y-153893000D01*
X171293000Y-153893000D01*
X171293000Y-153873000D01*
X171547000Y-153873000D01*
X171547000Y-153893000D01*
X173039250Y-153893000D01*
X173198000Y-153734250D01*
X173198000Y-153106290D01*
X173101327Y-152872901D01*
X172922698Y-152694273D01*
X172689309Y-152597600D01*
X172648885Y-152597600D01*
X172816222Y-152485789D01*
X173124559Y-152024329D01*
X173232833Y-151480000D01*
X179767167Y-151480000D01*
X179875441Y-152024329D01*
X180183778Y-152485789D01*
X180579199Y-152750000D01*
X180183778Y-153014211D01*
X179875441Y-153475671D01*
X179767167Y-154020000D01*
X179875441Y-154564329D01*
X180183778Y-155025789D01*
X180645238Y-155334126D01*
X181189567Y-155442400D01*
X181970433Y-155442400D01*
X182514762Y-155334126D01*
X182976222Y-155025789D01*
X183284559Y-154564329D01*
X183392833Y-154020000D01*
X183378245Y-153946661D01*
X190372758Y-153946661D01*
X190584990Y-154460303D01*
X190977630Y-154853629D01*
X191490900Y-155066757D01*
X192046661Y-155067242D01*
X192560303Y-154855010D01*
X192953629Y-154462370D01*
X193166757Y-153949100D01*
X193166759Y-153946661D01*
X200532758Y-153946661D01*
X200744990Y-154460303D01*
X201137630Y-154853629D01*
X201650900Y-155066757D01*
X202206661Y-155067242D01*
X202720303Y-154855010D01*
X202950714Y-154625000D01*
X204477560Y-154625000D01*
X204477560Y-156375000D01*
X204521838Y-156610317D01*
X204660910Y-156826441D01*
X204873110Y-156971431D01*
X205125000Y-157022440D01*
X206875000Y-157022440D01*
X207110317Y-156978162D01*
X207326441Y-156839090D01*
X207471431Y-156626890D01*
X207522440Y-156375000D01*
X207522440Y-154625000D01*
X207478162Y-154389683D01*
X207339090Y-154173559D01*
X207126890Y-154028569D01*
X206875000Y-153977560D01*
X205125000Y-153977560D01*
X204889683Y-154021838D01*
X204673559Y-154160910D01*
X204528569Y-154373110D01*
X204477560Y-154625000D01*
X202950714Y-154625000D01*
X203113629Y-154462370D01*
X203326757Y-153949100D01*
X203326963Y-153711950D01*
X218571510Y-153711950D01*
X218571510Y-155274050D01*
X218615788Y-155509367D01*
X218754860Y-155725491D01*
X218967060Y-155870481D01*
X219218950Y-155921490D01*
X220781050Y-155921490D01*
X221016367Y-155877212D01*
X221232491Y-155738140D01*
X221377481Y-155525940D01*
X221428490Y-155274050D01*
X221428490Y-153711950D01*
X221389174Y-153503000D01*
X244335560Y-153503000D01*
X244335560Y-155027000D01*
X244379838Y-155262317D01*
X244518910Y-155478441D01*
X244731110Y-155623431D01*
X244983000Y-155674440D01*
X246507000Y-155674440D01*
X246742317Y-155630162D01*
X246958441Y-155491090D01*
X247103431Y-155278890D01*
X247154440Y-155027000D01*
X247154440Y-153503000D01*
X247110162Y-153267683D01*
X246971090Y-153051559D01*
X246758890Y-152906569D01*
X246507000Y-152855560D01*
X244983000Y-152855560D01*
X244747683Y-152899838D01*
X244531559Y-153038910D01*
X244386569Y-153251110D01*
X244335560Y-153503000D01*
X221389174Y-153503000D01*
X221384212Y-153476633D01*
X221245140Y-153260509D01*
X221032940Y-153115519D01*
X220781050Y-153064510D01*
X219218950Y-153064510D01*
X218983633Y-153108788D01*
X218767509Y-153247860D01*
X218622519Y-153460060D01*
X218571510Y-153711950D01*
X203326963Y-153711950D01*
X203327242Y-153393339D01*
X203115010Y-152879697D01*
X202722370Y-152486371D01*
X202209100Y-152273243D01*
X201653339Y-152272758D01*
X201139697Y-152484990D01*
X200746371Y-152877630D01*
X200533243Y-153390900D01*
X200532758Y-153946661D01*
X193166759Y-153946661D01*
X193167242Y-153393339D01*
X192955010Y-152879697D01*
X192562370Y-152486371D01*
X192049100Y-152273243D01*
X191493339Y-152272758D01*
X190979697Y-152484990D01*
X190586371Y-152877630D01*
X190373243Y-153390900D01*
X190372758Y-153946661D01*
X183378245Y-153946661D01*
X183284559Y-153475671D01*
X182976222Y-153014211D01*
X182580801Y-152750000D01*
X182976222Y-152485789D01*
X183284559Y-152024329D01*
X183392833Y-151480000D01*
X183284559Y-150935671D01*
X183193266Y-150799040D01*
X204489738Y-150799040D01*
X204719138Y-151354229D01*
X205143537Y-151779370D01*
X205698325Y-152009738D01*
X206299040Y-152010262D01*
X206854229Y-151780862D01*
X207279370Y-151356463D01*
X207509738Y-150801675D01*
X207510262Y-150200960D01*
X207280862Y-149645771D01*
X207176934Y-149541661D01*
X244347758Y-149541661D01*
X244559990Y-150055303D01*
X244952630Y-150448629D01*
X245465900Y-150661757D01*
X246021661Y-150662242D01*
X246535303Y-150450010D01*
X246928629Y-150057370D01*
X247141757Y-149544100D01*
X247142242Y-148988339D01*
X246930010Y-148474697D01*
X246537370Y-148081371D01*
X246024100Y-147868243D01*
X245468339Y-147867758D01*
X244954697Y-148079990D01*
X244561371Y-148472630D01*
X244348243Y-148985900D01*
X244347758Y-149541661D01*
X207176934Y-149541661D01*
X206856463Y-149220630D01*
X206301675Y-148990262D01*
X205700960Y-148989738D01*
X205145771Y-149219138D01*
X204720630Y-149643537D01*
X204490262Y-150198325D01*
X204489738Y-150799040D01*
X183193266Y-150799040D01*
X182976222Y-150474211D01*
X182514762Y-150165874D01*
X181970433Y-150057600D01*
X181189567Y-150057600D01*
X180645238Y-150165874D01*
X180183778Y-150474211D01*
X179875441Y-150935671D01*
X179767167Y-151480000D01*
X173232833Y-151480000D01*
X173124559Y-150935671D01*
X172816222Y-150474211D01*
X172354762Y-150165874D01*
X171810433Y-150057600D01*
X171029567Y-150057600D01*
X170485238Y-150165874D01*
X170023778Y-150474211D01*
X169715441Y-150935671D01*
X169607167Y-151480000D01*
X169075671Y-151480000D01*
X169263629Y-151292370D01*
X169476757Y-150779100D01*
X169477242Y-150223339D01*
X169265010Y-149709697D01*
X168872370Y-149316371D01*
X168359100Y-149103243D01*
X167803339Y-149102758D01*
X167289697Y-149314990D01*
X166896371Y-149707630D01*
X166683243Y-150220900D01*
X166682758Y-150776661D01*
X159316759Y-150776661D01*
X159317242Y-150223339D01*
X159105010Y-149709697D01*
X158712370Y-149316371D01*
X158199100Y-149103243D01*
X157643339Y-149102758D01*
X157129697Y-149314990D01*
X156736371Y-149707630D01*
X156523243Y-150220900D01*
X156522758Y-150776661D01*
X154414084Y-150776661D01*
X154431757Y-150734100D01*
X154432242Y-150178339D01*
X154220010Y-149664697D01*
X153827370Y-149271371D01*
X153314100Y-149058243D01*
X152758339Y-149057758D01*
X152244697Y-149269990D01*
X151851371Y-149662630D01*
X151638243Y-150175900D01*
X151637758Y-150731661D01*
X147447000Y-150731661D01*
X147447000Y-148805750D01*
X169642000Y-148805750D01*
X169642000Y-149433710D01*
X169738673Y-149667099D01*
X169917302Y-149845727D01*
X170150691Y-149942400D01*
X171134250Y-149942400D01*
X171293000Y-149783650D01*
X171293000Y-148647000D01*
X171547000Y-148647000D01*
X171547000Y-149783650D01*
X171705750Y-149942400D01*
X172689309Y-149942400D01*
X172922698Y-149845727D01*
X173101327Y-149667099D01*
X173198000Y-149433710D01*
X173198000Y-148805750D01*
X173039250Y-148647000D01*
X171547000Y-148647000D01*
X171293000Y-148647000D01*
X169800750Y-148647000D01*
X169642000Y-148805750D01*
X147447000Y-148805750D01*
X147447000Y-145731661D01*
X151637758Y-145731661D01*
X151849990Y-146245303D01*
X152242630Y-146638629D01*
X152755900Y-146851757D01*
X153311661Y-146852242D01*
X153825303Y-146640010D01*
X154218629Y-146247370D01*
X154414084Y-145776661D01*
X156022758Y-145776661D01*
X156234990Y-146290303D01*
X156627630Y-146683629D01*
X157140900Y-146896757D01*
X157696661Y-146897242D01*
X158210303Y-146685010D01*
X158603629Y-146292370D01*
X158816757Y-145779100D01*
X158816759Y-145776661D01*
X166182758Y-145776661D01*
X166394990Y-146290303D01*
X166787630Y-146683629D01*
X167300900Y-146896757D01*
X167856661Y-146897242D01*
X168370303Y-146685010D01*
X168763629Y-146292370D01*
X168893336Y-145980000D01*
X169607167Y-145980000D01*
X169715441Y-146524329D01*
X170023778Y-146985789D01*
X170191115Y-147097600D01*
X170150691Y-147097600D01*
X169917302Y-147194273D01*
X169738673Y-147372901D01*
X169642000Y-147606290D01*
X169642000Y-148234250D01*
X169800750Y-148393000D01*
X171293000Y-148393000D01*
X171293000Y-148373000D01*
X171547000Y-148373000D01*
X171547000Y-148393000D01*
X173039250Y-148393000D01*
X173198000Y-148234250D01*
X173198000Y-147606290D01*
X173101327Y-147372901D01*
X172922698Y-147194273D01*
X172689309Y-147097600D01*
X172648885Y-147097600D01*
X172816222Y-146985789D01*
X173124559Y-146524329D01*
X173232833Y-145980000D01*
X179767167Y-145980000D01*
X179875441Y-146524329D01*
X180183778Y-146985789D01*
X180579199Y-147250000D01*
X180183778Y-147514211D01*
X179875441Y-147975671D01*
X179767167Y-148520000D01*
X179875441Y-149064329D01*
X180183778Y-149525789D01*
X180645238Y-149834126D01*
X181189567Y-149942400D01*
X181970433Y-149942400D01*
X182514762Y-149834126D01*
X182976222Y-149525789D01*
X183284559Y-149064329D01*
X183392833Y-148520000D01*
X183284559Y-147975671D01*
X183031314Y-147596661D01*
X190372758Y-147596661D01*
X190584990Y-148110303D01*
X190977630Y-148503629D01*
X191490900Y-148716757D01*
X192046661Y-148717242D01*
X192560303Y-148505010D01*
X192953629Y-148112370D01*
X193166757Y-147599100D01*
X193166759Y-147596661D01*
X200532758Y-147596661D01*
X200744990Y-148110303D01*
X201137630Y-148503629D01*
X201650900Y-148716757D01*
X202206661Y-148717242D01*
X202720303Y-148505010D01*
X203113629Y-148112370D01*
X203326757Y-147599100D01*
X203327035Y-147280434D01*
X218583705Y-147280434D01*
X218798831Y-147801080D01*
X219196825Y-148199769D01*
X219717095Y-148415804D01*
X220280434Y-148416295D01*
X220801080Y-148201169D01*
X221199769Y-147803175D01*
X221415804Y-147282905D01*
X221416295Y-146719566D01*
X221201169Y-146198920D01*
X220803175Y-145800231D01*
X220282905Y-145584196D01*
X219719566Y-145583705D01*
X219198920Y-145798831D01*
X218800231Y-146196825D01*
X218584196Y-146717095D01*
X218583705Y-147280434D01*
X203327035Y-147280434D01*
X203327242Y-147043339D01*
X203115010Y-146529697D01*
X202722370Y-146136371D01*
X202209100Y-145923243D01*
X201653339Y-145922758D01*
X201139697Y-146134990D01*
X200746371Y-146527630D01*
X200533243Y-147040900D01*
X200532758Y-147596661D01*
X193166759Y-147596661D01*
X193167242Y-147043339D01*
X192955010Y-146529697D01*
X192562370Y-146136371D01*
X192049100Y-145923243D01*
X191493339Y-145922758D01*
X190979697Y-146134990D01*
X190586371Y-146527630D01*
X190373243Y-147040900D01*
X190372758Y-147596661D01*
X183031314Y-147596661D01*
X182976222Y-147514211D01*
X182580801Y-147250000D01*
X182976222Y-146985789D01*
X183284559Y-146524329D01*
X183392833Y-145980000D01*
X183356838Y-145799040D01*
X204489738Y-145799040D01*
X204719138Y-146354229D01*
X205143537Y-146779370D01*
X205698325Y-147009738D01*
X206299040Y-147010262D01*
X206854229Y-146780862D01*
X207279370Y-146356463D01*
X207509738Y-145801675D01*
X207510262Y-145200960D01*
X207280862Y-144645771D01*
X206856463Y-144220630D01*
X206301675Y-143990262D01*
X205700960Y-143989738D01*
X205145771Y-144219138D01*
X204720630Y-144643537D01*
X204490262Y-145198325D01*
X204489738Y-145799040D01*
X183356838Y-145799040D01*
X183284559Y-145435671D01*
X182976222Y-144974211D01*
X182514762Y-144665874D01*
X181970433Y-144557600D01*
X181189567Y-144557600D01*
X180645238Y-144665874D01*
X180183778Y-144974211D01*
X179875441Y-145435671D01*
X179767167Y-145980000D01*
X173232833Y-145980000D01*
X173124559Y-145435671D01*
X172816222Y-144974211D01*
X172354762Y-144665874D01*
X171810433Y-144557600D01*
X171029567Y-144557600D01*
X170485238Y-144665874D01*
X170023778Y-144974211D01*
X169715441Y-145435671D01*
X169607167Y-145980000D01*
X168893336Y-145980000D01*
X168976757Y-145779100D01*
X168977242Y-145223339D01*
X168765010Y-144709697D01*
X168372370Y-144316371D01*
X167859100Y-144103243D01*
X167303339Y-144102758D01*
X166789697Y-144314990D01*
X166396371Y-144707630D01*
X166183243Y-145220900D01*
X166182758Y-145776661D01*
X158816759Y-145776661D01*
X158817242Y-145223339D01*
X158605010Y-144709697D01*
X158212370Y-144316371D01*
X157699100Y-144103243D01*
X157143339Y-144102758D01*
X156629697Y-144314990D01*
X156236371Y-144707630D01*
X156023243Y-145220900D01*
X156022758Y-145776661D01*
X154414084Y-145776661D01*
X154431757Y-145734100D01*
X154432242Y-145178339D01*
X154220010Y-144664697D01*
X153827370Y-144271371D01*
X153314100Y-144058243D01*
X152758339Y-144057758D01*
X152244697Y-144269990D01*
X151851371Y-144662630D01*
X151638243Y-145175900D01*
X151637758Y-145731661D01*
X147447000Y-145731661D01*
X147447000Y-143305750D01*
X169642000Y-143305750D01*
X169642000Y-143933710D01*
X169738673Y-144167099D01*
X169917302Y-144345727D01*
X170150691Y-144442400D01*
X171134250Y-144442400D01*
X171293000Y-144283650D01*
X171293000Y-143147000D01*
X171547000Y-143147000D01*
X171547000Y-144283650D01*
X171705750Y-144442400D01*
X172689309Y-144442400D01*
X172922698Y-144345727D01*
X173101327Y-144167099D01*
X173198000Y-143933710D01*
X173198000Y-143305750D01*
X173039250Y-143147000D01*
X171547000Y-143147000D01*
X171293000Y-143147000D01*
X169800750Y-143147000D01*
X169642000Y-143305750D01*
X147447000Y-143305750D01*
X147447000Y-140731661D01*
X151637758Y-140731661D01*
X151849990Y-141245303D01*
X152242630Y-141638629D01*
X152755900Y-141851757D01*
X153311661Y-141852242D01*
X153825303Y-141640010D01*
X154218629Y-141247370D01*
X154414084Y-140776661D01*
X156022758Y-140776661D01*
X156234990Y-141290303D01*
X156627630Y-141683629D01*
X157140900Y-141896757D01*
X157696661Y-141897242D01*
X158210303Y-141685010D01*
X158603629Y-141292370D01*
X158816757Y-140779100D01*
X158816759Y-140776661D01*
X166182758Y-140776661D01*
X166394990Y-141290303D01*
X166787630Y-141683629D01*
X167300900Y-141896757D01*
X167856661Y-141897242D01*
X168370303Y-141685010D01*
X168763629Y-141292370D01*
X168976757Y-140779100D01*
X168977018Y-140480000D01*
X169607167Y-140480000D01*
X169715441Y-141024329D01*
X170023778Y-141485789D01*
X170191115Y-141597600D01*
X170150691Y-141597600D01*
X169917302Y-141694273D01*
X169738673Y-141872901D01*
X169642000Y-142106290D01*
X169642000Y-142734250D01*
X169800750Y-142893000D01*
X171293000Y-142893000D01*
X171293000Y-142873000D01*
X171547000Y-142873000D01*
X171547000Y-142893000D01*
X173039250Y-142893000D01*
X173198000Y-142734250D01*
X173198000Y-142106290D01*
X173101327Y-141872901D01*
X172922698Y-141694273D01*
X172689309Y-141597600D01*
X172648885Y-141597600D01*
X172816222Y-141485789D01*
X173124559Y-141024329D01*
X173232833Y-140480000D01*
X179767167Y-140480000D01*
X179875441Y-141024329D01*
X180183778Y-141485789D01*
X180579199Y-141750000D01*
X180183778Y-142014211D01*
X179875441Y-142475671D01*
X179767167Y-143020000D01*
X179875441Y-143564329D01*
X180183778Y-144025789D01*
X180645238Y-144334126D01*
X181189567Y-144442400D01*
X181970433Y-144442400D01*
X182514762Y-144334126D01*
X182976222Y-144025789D01*
X183284559Y-143564329D01*
X183392833Y-143020000D01*
X183284559Y-142475671D01*
X182976222Y-142014211D01*
X182580801Y-141750000D01*
X182976222Y-141485789D01*
X183217292Y-141125000D01*
X204477560Y-141125000D01*
X204477560Y-142875000D01*
X204521838Y-143110317D01*
X204660910Y-143326441D01*
X204873110Y-143471431D01*
X205125000Y-143522440D01*
X206875000Y-143522440D01*
X207110317Y-143478162D01*
X207326441Y-143339090D01*
X207471431Y-143126890D01*
X207522440Y-142875000D01*
X207522440Y-141125000D01*
X207478162Y-140889683D01*
X207339090Y-140673559D01*
X207126890Y-140528569D01*
X206875000Y-140477560D01*
X205125000Y-140477560D01*
X204889683Y-140521838D01*
X204673559Y-140660910D01*
X204528569Y-140873110D01*
X204477560Y-141125000D01*
X183217292Y-141125000D01*
X183284559Y-141024329D01*
X183392833Y-140480000D01*
X183284559Y-139935671D01*
X182976222Y-139474211D01*
X182514762Y-139165874D01*
X181970433Y-139057600D01*
X181189567Y-139057600D01*
X180645238Y-139165874D01*
X180183778Y-139474211D01*
X179875441Y-139935671D01*
X179767167Y-140480000D01*
X173232833Y-140480000D01*
X173124559Y-139935671D01*
X172816222Y-139474211D01*
X172354762Y-139165874D01*
X171810433Y-139057600D01*
X171029567Y-139057600D01*
X170485238Y-139165874D01*
X170023778Y-139474211D01*
X169715441Y-139935671D01*
X169607167Y-140480000D01*
X168977018Y-140480000D01*
X168977242Y-140223339D01*
X168765010Y-139709697D01*
X168372370Y-139316371D01*
X167859100Y-139103243D01*
X167303339Y-139102758D01*
X166789697Y-139314990D01*
X166396371Y-139707630D01*
X166183243Y-140220900D01*
X166182758Y-140776661D01*
X158816759Y-140776661D01*
X158817242Y-140223339D01*
X158605010Y-139709697D01*
X158212370Y-139316371D01*
X157699100Y-139103243D01*
X157143339Y-139102758D01*
X156629697Y-139314990D01*
X156236371Y-139707630D01*
X156023243Y-140220900D01*
X156022758Y-140776661D01*
X154414084Y-140776661D01*
X154431757Y-140734100D01*
X154432242Y-140178339D01*
X154220010Y-139664697D01*
X153827370Y-139271371D01*
X153314100Y-139058243D01*
X152758339Y-139057758D01*
X152244697Y-139269990D01*
X151851371Y-139662630D01*
X151638243Y-140175900D01*
X151637758Y-140731661D01*
X147447000Y-140731661D01*
X147447000Y-138276661D01*
X190522758Y-138276661D01*
X190734990Y-138790303D01*
X191127630Y-139183629D01*
X191640900Y-139396757D01*
X192196661Y-139397242D01*
X192710303Y-139185010D01*
X193103629Y-138792370D01*
X193316757Y-138279100D01*
X193316759Y-138276661D01*
X200682758Y-138276661D01*
X200894990Y-138790303D01*
X201287630Y-139183629D01*
X201800900Y-139396757D01*
X202356661Y-139397242D01*
X202870303Y-139185010D01*
X203263629Y-138792370D01*
X203297022Y-138711950D01*
X230571510Y-138711950D01*
X230571510Y-140274050D01*
X230615788Y-140509367D01*
X230754860Y-140725491D01*
X230967060Y-140870481D01*
X231218950Y-140921490D01*
X232781050Y-140921490D01*
X233016367Y-140877212D01*
X233232491Y-140738140D01*
X233377481Y-140525940D01*
X233428490Y-140274050D01*
X233428490Y-140168000D01*
X244335560Y-140168000D01*
X244335560Y-141692000D01*
X244379838Y-141927317D01*
X244518910Y-142143441D01*
X244731110Y-142288431D01*
X244983000Y-142339440D01*
X246507000Y-142339440D01*
X246742317Y-142295162D01*
X246958441Y-142156090D01*
X247103431Y-141943890D01*
X247154440Y-141692000D01*
X247154440Y-140168000D01*
X247110162Y-139932683D01*
X246971090Y-139716559D01*
X246758890Y-139571569D01*
X246507000Y-139520560D01*
X244983000Y-139520560D01*
X244747683Y-139564838D01*
X244531559Y-139703910D01*
X244386569Y-139916110D01*
X244335560Y-140168000D01*
X233428490Y-140168000D01*
X233428490Y-138711950D01*
X233384212Y-138476633D01*
X233245140Y-138260509D01*
X233032940Y-138115519D01*
X232781050Y-138064510D01*
X231218950Y-138064510D01*
X230983633Y-138108788D01*
X230767509Y-138247860D01*
X230622519Y-138460060D01*
X230571510Y-138711950D01*
X203297022Y-138711950D01*
X203476757Y-138279100D01*
X203477242Y-137723339D01*
X203301926Y-137299040D01*
X204489738Y-137299040D01*
X204719138Y-137854229D01*
X205143537Y-138279370D01*
X205698325Y-138509738D01*
X206299040Y-138510262D01*
X206854229Y-138280862D01*
X207279370Y-137856463D01*
X207509738Y-137301675D01*
X207510262Y-136700960D01*
X207306022Y-136206661D01*
X244347758Y-136206661D01*
X244559990Y-136720303D01*
X244952630Y-137113629D01*
X245465900Y-137326757D01*
X246021661Y-137327242D01*
X246535303Y-137115010D01*
X246928629Y-136722370D01*
X247141757Y-136209100D01*
X247142242Y-135653339D01*
X246930010Y-135139697D01*
X246537370Y-134746371D01*
X246024100Y-134533243D01*
X245468339Y-134532758D01*
X244954697Y-134744990D01*
X244561371Y-135137630D01*
X244348243Y-135650900D01*
X244347758Y-136206661D01*
X207306022Y-136206661D01*
X207280862Y-136145771D01*
X206856463Y-135720630D01*
X206301675Y-135490262D01*
X205700960Y-135489738D01*
X205145771Y-135719138D01*
X204720630Y-136143537D01*
X204490262Y-136698325D01*
X204489738Y-137299040D01*
X203301926Y-137299040D01*
X203265010Y-137209697D01*
X202872370Y-136816371D01*
X202359100Y-136603243D01*
X201803339Y-136602758D01*
X201289697Y-136814990D01*
X200896371Y-137207630D01*
X200683243Y-137720900D01*
X200682758Y-138276661D01*
X193316759Y-138276661D01*
X193317242Y-137723339D01*
X193105010Y-137209697D01*
X192712370Y-136816371D01*
X192199100Y-136603243D01*
X191643339Y-136602758D01*
X191129697Y-136814990D01*
X190736371Y-137207630D01*
X190523243Y-137720900D01*
X190522758Y-138276661D01*
X147447000Y-138276661D01*
X147447000Y-132299040D01*
X204489738Y-132299040D01*
X204719138Y-132854229D01*
X205143537Y-133279370D01*
X205698325Y-133509738D01*
X206299040Y-133510262D01*
X206854229Y-133280862D01*
X207279370Y-132856463D01*
X207509738Y-132301675D01*
X207509756Y-132280434D01*
X230583705Y-132280434D01*
X230798831Y-132801080D01*
X231196825Y-133199769D01*
X231717095Y-133415804D01*
X232280434Y-133416295D01*
X232801080Y-133201169D01*
X233199769Y-132803175D01*
X233415804Y-132282905D01*
X233416295Y-131719566D01*
X233201169Y-131198920D01*
X232803175Y-130800231D01*
X232282905Y-130584196D01*
X231719566Y-130583705D01*
X231198920Y-130798831D01*
X230800231Y-131196825D01*
X230584196Y-131717095D01*
X230583705Y-132280434D01*
X207509756Y-132280434D01*
X207510262Y-131700960D01*
X207280862Y-131145771D01*
X206856463Y-130720630D01*
X206301675Y-130490262D01*
X205700960Y-130489738D01*
X205145771Y-130719138D01*
X204720630Y-131143537D01*
X204490262Y-131698325D01*
X204489738Y-132299040D01*
X147447000Y-132299040D01*
X147447000Y-125857000D01*
X247523000Y-125857000D01*
X247523000Y-173863000D01*
X247523000Y-173863000D01*
G37*
X247523000Y-173863000D02*
X147447000Y-173863000D01*
X147447000Y-168576000D01*
X151498560Y-168576000D01*
X151498560Y-170100000D01*
X151542838Y-170335317D01*
X151681910Y-170551441D01*
X151894110Y-170696431D01*
X152146000Y-170747440D01*
X153670000Y-170747440D01*
X153905317Y-170703162D01*
X154121441Y-170564090D01*
X154266431Y-170351890D01*
X154317440Y-170100000D01*
X154317440Y-168576000D01*
X154273162Y-168340683D01*
X154134374Y-168125000D01*
X204477560Y-168125000D01*
X204477560Y-169875000D01*
X204521838Y-170110317D01*
X204660910Y-170326441D01*
X204873110Y-170471431D01*
X205125000Y-170522440D01*
X206875000Y-170522440D01*
X207110317Y-170478162D01*
X207326441Y-170339090D01*
X207471431Y-170126890D01*
X207522440Y-169875000D01*
X207522440Y-168125000D01*
X207478162Y-167889683D01*
X207339090Y-167673559D01*
X207126890Y-167528569D01*
X206875000Y-167477560D01*
X205125000Y-167477560D01*
X204889683Y-167521838D01*
X204673559Y-167660910D01*
X204528569Y-167873110D01*
X204477560Y-168125000D01*
X154134374Y-168125000D01*
X154134090Y-168124559D01*
X153921890Y-167979569D01*
X153670000Y-167928560D01*
X152146000Y-167928560D01*
X151910683Y-167972838D01*
X151694559Y-168111910D01*
X151549569Y-168324110D01*
X151498560Y-168576000D01*
X147447000Y-168576000D01*
X147447000Y-167211950D01*
X232071510Y-167211950D01*
X232071510Y-168774050D01*
X232115788Y-169009367D01*
X232254860Y-169225491D01*
X232467060Y-169370481D01*
X232718950Y-169421490D01*
X234281050Y-169421490D01*
X234516367Y-169377212D01*
X234732491Y-169238140D01*
X234877481Y-169025940D01*
X234928490Y-168774050D01*
X234928490Y-167211950D01*
X234884212Y-166976633D01*
X234795005Y-166838000D01*
X244335560Y-166838000D01*
X244335560Y-168362000D01*
X244379838Y-168597317D01*
X244518910Y-168813441D01*
X244731110Y-168958431D01*
X244983000Y-169009440D01*
X246507000Y-169009440D01*
X246742317Y-168965162D01*
X246958441Y-168826090D01*
X247103431Y-168613890D01*
X247154440Y-168362000D01*
X247154440Y-166838000D01*
X247110162Y-166602683D01*
X246971090Y-166386559D01*
X246758890Y-166241569D01*
X246507000Y-166190560D01*
X244983000Y-166190560D01*
X244747683Y-166234838D01*
X244531559Y-166373910D01*
X244386569Y-166586110D01*
X244335560Y-166838000D01*
X234795005Y-166838000D01*
X234745140Y-166760509D01*
X234532940Y-166615519D01*
X234281050Y-166564510D01*
X232718950Y-166564510D01*
X232483633Y-166608788D01*
X232267509Y-166747860D01*
X232122519Y-166960060D01*
X232071510Y-167211950D01*
X147447000Y-167211950D01*
X147447000Y-164614661D01*
X151510758Y-164614661D01*
X151722990Y-165128303D01*
X152115630Y-165521629D01*
X152628900Y-165734757D01*
X153184661Y-165735242D01*
X153698303Y-165523010D01*
X154091629Y-165130370D01*
X154304757Y-164617100D01*
X154305034Y-164299040D01*
X204489738Y-164299040D01*
X204719138Y-164854229D01*
X205143537Y-165279370D01*
X205698325Y-165509738D01*
X206299040Y-165510262D01*
X206854229Y-165280862D01*
X207279370Y-164856463D01*
X207509738Y-164301675D01*
X207510262Y-163700960D01*
X207280862Y-163145771D01*
X207012222Y-162876661D01*
X244347758Y-162876661D01*
X244559990Y-163390303D01*
X244952630Y-163783629D01*
X245465900Y-163996757D01*
X246021661Y-163997242D01*
X246535303Y-163785010D01*
X246928629Y-163392370D01*
X247141757Y-162879100D01*
X247142242Y-162323339D01*
X246930010Y-161809697D01*
X246537370Y-161416371D01*
X246024100Y-161203243D01*
X245468339Y-161202758D01*
X244954697Y-161414990D01*
X244561371Y-161807630D01*
X244348243Y-162320900D01*
X244347758Y-162876661D01*
X207012222Y-162876661D01*
X206856463Y-162720630D01*
X206301675Y-162490262D01*
X205700960Y-162489738D01*
X205145771Y-162719138D01*
X204720630Y-163143537D01*
X204490262Y-163698325D01*
X204489738Y-164299040D01*
X154305034Y-164299040D01*
X154305242Y-164061339D01*
X154093010Y-163547697D01*
X153700370Y-163154371D01*
X153187100Y-162941243D01*
X152631339Y-162940758D01*
X152117697Y-163152990D01*
X151724371Y-163545630D01*
X151511243Y-164058900D01*
X151510758Y-164614661D01*
X147447000Y-164614661D01*
X147447000Y-160780434D01*
X232083705Y-160780434D01*
X232298831Y-161301080D01*
X232696825Y-161699769D01*
X233217095Y-161915804D01*
X233780434Y-161916295D01*
X234301080Y-161701169D01*
X234699769Y-161303175D01*
X234915804Y-160782905D01*
X234916295Y-160219566D01*
X234701169Y-159698920D01*
X234303175Y-159300231D01*
X233782905Y-159084196D01*
X233219566Y-159083705D01*
X232698920Y-159298831D01*
X232300231Y-159696825D01*
X232084196Y-160217095D01*
X232083705Y-160780434D01*
X147447000Y-160780434D01*
X147447000Y-159614661D01*
X151510758Y-159614661D01*
X151722990Y-160128303D01*
X152115630Y-160521629D01*
X152628900Y-160734757D01*
X153184661Y-160735242D01*
X153698303Y-160523010D01*
X154091629Y-160130370D01*
X154304757Y-159617100D01*
X154305034Y-159299040D01*
X204489738Y-159299040D01*
X204719138Y-159854229D01*
X205143537Y-160279370D01*
X205698325Y-160509738D01*
X206299040Y-160510262D01*
X206854229Y-160280862D01*
X207279370Y-159856463D01*
X207509738Y-159301675D01*
X207510262Y-158700960D01*
X207280862Y-158145771D01*
X206856463Y-157720630D01*
X206301675Y-157490262D01*
X205700960Y-157489738D01*
X205145771Y-157719138D01*
X204720630Y-158143537D01*
X204490262Y-158698325D01*
X204489738Y-159299040D01*
X154305034Y-159299040D01*
X154305242Y-159061339D01*
X154093010Y-158547697D01*
X153700370Y-158154371D01*
X153187100Y-157941243D01*
X152631339Y-157940758D01*
X152117697Y-158152990D01*
X151724371Y-158545630D01*
X151511243Y-159058900D01*
X151510758Y-159614661D01*
X147447000Y-159614661D01*
X147447000Y-155740750D01*
X151638000Y-155740750D01*
X151638000Y-156343309D01*
X151734673Y-156576698D01*
X151913301Y-156755327D01*
X152146690Y-156852000D01*
X152749250Y-156852000D01*
X152908000Y-156693250D01*
X152908000Y-155582000D01*
X153162000Y-155582000D01*
X153162000Y-156693250D01*
X153320750Y-156852000D01*
X153923310Y-156852000D01*
X154156699Y-156755327D01*
X154335327Y-156576698D01*
X154432000Y-156343309D01*
X154432000Y-155740750D01*
X154273250Y-155582000D01*
X153162000Y-155582000D01*
X152908000Y-155582000D01*
X151796750Y-155582000D01*
X151638000Y-155740750D01*
X147447000Y-155740750D01*
X147447000Y-154566691D01*
X151638000Y-154566691D01*
X151638000Y-155169250D01*
X151796750Y-155328000D01*
X152908000Y-155328000D01*
X152908000Y-154216750D01*
X153162000Y-154216750D01*
X153162000Y-155328000D01*
X154273250Y-155328000D01*
X154432000Y-155169250D01*
X154432000Y-154566691D01*
X154335327Y-154333302D01*
X154307776Y-154305750D01*
X169642000Y-154305750D01*
X169642000Y-154933710D01*
X169738673Y-155167099D01*
X169917302Y-155345727D01*
X170150691Y-155442400D01*
X171134250Y-155442400D01*
X171293000Y-155283650D01*
X171293000Y-154147000D01*
X171547000Y-154147000D01*
X171547000Y-155283650D01*
X171705750Y-155442400D01*
X172689309Y-155442400D01*
X172922698Y-155345727D01*
X173101327Y-155167099D01*
X173198000Y-154933710D01*
X173198000Y-154305750D01*
X173039250Y-154147000D01*
X171547000Y-154147000D01*
X171293000Y-154147000D01*
X169800750Y-154147000D01*
X169642000Y-154305750D01*
X154307776Y-154305750D01*
X154156699Y-154154673D01*
X153923310Y-154058000D01*
X153320750Y-154058000D01*
X153162000Y-154216750D01*
X152908000Y-154216750D01*
X152749250Y-154058000D01*
X152146690Y-154058000D01*
X151913301Y-154154673D01*
X151734673Y-154333302D01*
X151638000Y-154566691D01*
X147447000Y-154566691D01*
X147447000Y-150731661D01*
X151637758Y-150731661D01*
X151849990Y-151245303D01*
X152242630Y-151638629D01*
X152755900Y-151851757D01*
X153311661Y-151852242D01*
X153825303Y-151640010D01*
X154218629Y-151247370D01*
X154414084Y-150776661D01*
X156522758Y-150776661D01*
X156734990Y-151290303D01*
X157127630Y-151683629D01*
X157640900Y-151896757D01*
X158196661Y-151897242D01*
X158710303Y-151685010D01*
X159103629Y-151292370D01*
X159316757Y-150779100D01*
X159316759Y-150776661D01*
X166682758Y-150776661D01*
X166894990Y-151290303D01*
X167287630Y-151683629D01*
X167800900Y-151896757D01*
X168356661Y-151897242D01*
X168870303Y-151685010D01*
X169075671Y-151480000D01*
X169607167Y-151480000D01*
X169715441Y-152024329D01*
X170023778Y-152485789D01*
X170191115Y-152597600D01*
X170150691Y-152597600D01*
X169917302Y-152694273D01*
X169738673Y-152872901D01*
X169642000Y-153106290D01*
X169642000Y-153734250D01*
X169800750Y-153893000D01*
X171293000Y-153893000D01*
X171293000Y-153873000D01*
X171547000Y-153873000D01*
X171547000Y-153893000D01*
X173039250Y-153893000D01*
X173198000Y-153734250D01*
X173198000Y-153106290D01*
X173101327Y-152872901D01*
X172922698Y-152694273D01*
X172689309Y-152597600D01*
X172648885Y-152597600D01*
X172816222Y-152485789D01*
X173124559Y-152024329D01*
X173232833Y-151480000D01*
X179767167Y-151480000D01*
X179875441Y-152024329D01*
X180183778Y-152485789D01*
X180579199Y-152750000D01*
X180183778Y-153014211D01*
X179875441Y-153475671D01*
X179767167Y-154020000D01*
X179875441Y-154564329D01*
X180183778Y-155025789D01*
X180645238Y-155334126D01*
X181189567Y-155442400D01*
X181970433Y-155442400D01*
X182514762Y-155334126D01*
X182976222Y-155025789D01*
X183284559Y-154564329D01*
X183392833Y-154020000D01*
X183378245Y-153946661D01*
X190372758Y-153946661D01*
X190584990Y-154460303D01*
X190977630Y-154853629D01*
X191490900Y-155066757D01*
X192046661Y-155067242D01*
X192560303Y-154855010D01*
X192953629Y-154462370D01*
X193166757Y-153949100D01*
X193166759Y-153946661D01*
X200532758Y-153946661D01*
X200744990Y-154460303D01*
X201137630Y-154853629D01*
X201650900Y-155066757D01*
X202206661Y-155067242D01*
X202720303Y-154855010D01*
X202950714Y-154625000D01*
X204477560Y-154625000D01*
X204477560Y-156375000D01*
X204521838Y-156610317D01*
X204660910Y-156826441D01*
X204873110Y-156971431D01*
X205125000Y-157022440D01*
X206875000Y-157022440D01*
X207110317Y-156978162D01*
X207326441Y-156839090D01*
X207471431Y-156626890D01*
X207522440Y-156375000D01*
X207522440Y-154625000D01*
X207478162Y-154389683D01*
X207339090Y-154173559D01*
X207126890Y-154028569D01*
X206875000Y-153977560D01*
X205125000Y-153977560D01*
X204889683Y-154021838D01*
X204673559Y-154160910D01*
X204528569Y-154373110D01*
X204477560Y-154625000D01*
X202950714Y-154625000D01*
X203113629Y-154462370D01*
X203326757Y-153949100D01*
X203326963Y-153711950D01*
X218571510Y-153711950D01*
X218571510Y-155274050D01*
X218615788Y-155509367D01*
X218754860Y-155725491D01*
X218967060Y-155870481D01*
X219218950Y-155921490D01*
X220781050Y-155921490D01*
X221016367Y-155877212D01*
X221232491Y-155738140D01*
X221377481Y-155525940D01*
X221428490Y-155274050D01*
X221428490Y-153711950D01*
X221389174Y-153503000D01*
X244335560Y-153503000D01*
X244335560Y-155027000D01*
X244379838Y-155262317D01*
X244518910Y-155478441D01*
X244731110Y-155623431D01*
X244983000Y-155674440D01*
X246507000Y-155674440D01*
X246742317Y-155630162D01*
X246958441Y-155491090D01*
X247103431Y-155278890D01*
X247154440Y-155027000D01*
X247154440Y-153503000D01*
X247110162Y-153267683D01*
X246971090Y-153051559D01*
X246758890Y-152906569D01*
X246507000Y-152855560D01*
X244983000Y-152855560D01*
X244747683Y-152899838D01*
X244531559Y-153038910D01*
X244386569Y-153251110D01*
X244335560Y-153503000D01*
X221389174Y-153503000D01*
X221384212Y-153476633D01*
X221245140Y-153260509D01*
X221032940Y-153115519D01*
X220781050Y-153064510D01*
X219218950Y-153064510D01*
X218983633Y-153108788D01*
X218767509Y-153247860D01*
X218622519Y-153460060D01*
X218571510Y-153711950D01*
X203326963Y-153711950D01*
X203327242Y-153393339D01*
X203115010Y-152879697D01*
X202722370Y-152486371D01*
X202209100Y-152273243D01*
X201653339Y-152272758D01*
X201139697Y-152484990D01*
X200746371Y-152877630D01*
X200533243Y-153390900D01*
X200532758Y-153946661D01*
X193166759Y-153946661D01*
X193167242Y-153393339D01*
X192955010Y-152879697D01*
X192562370Y-152486371D01*
X192049100Y-152273243D01*
X191493339Y-152272758D01*
X190979697Y-152484990D01*
X190586371Y-152877630D01*
X190373243Y-153390900D01*
X190372758Y-153946661D01*
X183378245Y-153946661D01*
X183284559Y-153475671D01*
X182976222Y-153014211D01*
X182580801Y-152750000D01*
X182976222Y-152485789D01*
X183284559Y-152024329D01*
X183392833Y-151480000D01*
X183284559Y-150935671D01*
X183193266Y-150799040D01*
X204489738Y-150799040D01*
X204719138Y-151354229D01*
X205143537Y-151779370D01*
X205698325Y-152009738D01*
X206299040Y-152010262D01*
X206854229Y-151780862D01*
X207279370Y-151356463D01*
X207509738Y-150801675D01*
X207510262Y-150200960D01*
X207280862Y-149645771D01*
X207176934Y-149541661D01*
X244347758Y-149541661D01*
X244559990Y-150055303D01*
X244952630Y-150448629D01*
X245465900Y-150661757D01*
X246021661Y-150662242D01*
X246535303Y-150450010D01*
X246928629Y-150057370D01*
X247141757Y-149544100D01*
X247142242Y-148988339D01*
X246930010Y-148474697D01*
X246537370Y-148081371D01*
X246024100Y-147868243D01*
X245468339Y-147867758D01*
X244954697Y-148079990D01*
X244561371Y-148472630D01*
X244348243Y-148985900D01*
X244347758Y-149541661D01*
X207176934Y-149541661D01*
X206856463Y-149220630D01*
X206301675Y-148990262D01*
X205700960Y-148989738D01*
X205145771Y-149219138D01*
X204720630Y-149643537D01*
X204490262Y-150198325D01*
X204489738Y-150799040D01*
X183193266Y-150799040D01*
X182976222Y-150474211D01*
X182514762Y-150165874D01*
X181970433Y-150057600D01*
X181189567Y-150057600D01*
X180645238Y-150165874D01*
X180183778Y-150474211D01*
X179875441Y-150935671D01*
X179767167Y-151480000D01*
X173232833Y-151480000D01*
X173124559Y-150935671D01*
X172816222Y-150474211D01*
X172354762Y-150165874D01*
X171810433Y-150057600D01*
X171029567Y-150057600D01*
X170485238Y-150165874D01*
X170023778Y-150474211D01*
X169715441Y-150935671D01*
X169607167Y-151480000D01*
X169075671Y-151480000D01*
X169263629Y-151292370D01*
X169476757Y-150779100D01*
X169477242Y-150223339D01*
X169265010Y-149709697D01*
X168872370Y-149316371D01*
X168359100Y-149103243D01*
X167803339Y-149102758D01*
X167289697Y-149314990D01*
X166896371Y-149707630D01*
X166683243Y-150220900D01*
X166682758Y-150776661D01*
X159316759Y-150776661D01*
X159317242Y-150223339D01*
X159105010Y-149709697D01*
X158712370Y-149316371D01*
X158199100Y-149103243D01*
X157643339Y-149102758D01*
X157129697Y-149314990D01*
X156736371Y-149707630D01*
X156523243Y-150220900D01*
X156522758Y-150776661D01*
X154414084Y-150776661D01*
X154431757Y-150734100D01*
X154432242Y-150178339D01*
X154220010Y-149664697D01*
X153827370Y-149271371D01*
X153314100Y-149058243D01*
X152758339Y-149057758D01*
X152244697Y-149269990D01*
X151851371Y-149662630D01*
X151638243Y-150175900D01*
X151637758Y-150731661D01*
X147447000Y-150731661D01*
X147447000Y-148805750D01*
X169642000Y-148805750D01*
X169642000Y-149433710D01*
X169738673Y-149667099D01*
X169917302Y-149845727D01*
X170150691Y-149942400D01*
X171134250Y-149942400D01*
X171293000Y-149783650D01*
X171293000Y-148647000D01*
X171547000Y-148647000D01*
X171547000Y-149783650D01*
X171705750Y-149942400D01*
X172689309Y-149942400D01*
X172922698Y-149845727D01*
X173101327Y-149667099D01*
X173198000Y-149433710D01*
X173198000Y-148805750D01*
X173039250Y-148647000D01*
X171547000Y-148647000D01*
X171293000Y-148647000D01*
X169800750Y-148647000D01*
X169642000Y-148805750D01*
X147447000Y-148805750D01*
X147447000Y-145731661D01*
X151637758Y-145731661D01*
X151849990Y-146245303D01*
X152242630Y-146638629D01*
X152755900Y-146851757D01*
X153311661Y-146852242D01*
X153825303Y-146640010D01*
X154218629Y-146247370D01*
X154414084Y-145776661D01*
X156022758Y-145776661D01*
X156234990Y-146290303D01*
X156627630Y-146683629D01*
X157140900Y-146896757D01*
X157696661Y-146897242D01*
X158210303Y-146685010D01*
X158603629Y-146292370D01*
X158816757Y-145779100D01*
X158816759Y-145776661D01*
X166182758Y-145776661D01*
X166394990Y-146290303D01*
X166787630Y-146683629D01*
X167300900Y-146896757D01*
X167856661Y-146897242D01*
X168370303Y-146685010D01*
X168763629Y-146292370D01*
X168893336Y-145980000D01*
X169607167Y-145980000D01*
X169715441Y-146524329D01*
X170023778Y-146985789D01*
X170191115Y-147097600D01*
X170150691Y-147097600D01*
X169917302Y-147194273D01*
X169738673Y-147372901D01*
X169642000Y-147606290D01*
X169642000Y-148234250D01*
X169800750Y-148393000D01*
X171293000Y-148393000D01*
X171293000Y-148373000D01*
X171547000Y-148373000D01*
X171547000Y-148393000D01*
X173039250Y-148393000D01*
X173198000Y-148234250D01*
X173198000Y-147606290D01*
X173101327Y-147372901D01*
X172922698Y-147194273D01*
X172689309Y-147097600D01*
X172648885Y-147097600D01*
X172816222Y-146985789D01*
X173124559Y-146524329D01*
X173232833Y-145980000D01*
X179767167Y-145980000D01*
X179875441Y-146524329D01*
X180183778Y-146985789D01*
X180579199Y-147250000D01*
X180183778Y-147514211D01*
X179875441Y-147975671D01*
X179767167Y-148520000D01*
X179875441Y-149064329D01*
X180183778Y-149525789D01*
X180645238Y-149834126D01*
X181189567Y-149942400D01*
X181970433Y-149942400D01*
X182514762Y-149834126D01*
X182976222Y-149525789D01*
X183284559Y-149064329D01*
X183392833Y-148520000D01*
X183284559Y-147975671D01*
X183031314Y-147596661D01*
X190372758Y-147596661D01*
X190584990Y-148110303D01*
X190977630Y-148503629D01*
X191490900Y-148716757D01*
X192046661Y-148717242D01*
X192560303Y-148505010D01*
X192953629Y-148112370D01*
X193166757Y-147599100D01*
X193166759Y-147596661D01*
X200532758Y-147596661D01*
X200744990Y-148110303D01*
X201137630Y-148503629D01*
X201650900Y-148716757D01*
X202206661Y-148717242D01*
X202720303Y-148505010D01*
X203113629Y-148112370D01*
X203326757Y-147599100D01*
X203327035Y-147280434D01*
X218583705Y-147280434D01*
X218798831Y-147801080D01*
X219196825Y-148199769D01*
X219717095Y-148415804D01*
X220280434Y-148416295D01*
X220801080Y-148201169D01*
X221199769Y-147803175D01*
X221415804Y-147282905D01*
X221416295Y-146719566D01*
X221201169Y-146198920D01*
X220803175Y-145800231D01*
X220282905Y-145584196D01*
X219719566Y-145583705D01*
X219198920Y-145798831D01*
X218800231Y-146196825D01*
X218584196Y-146717095D01*
X218583705Y-147280434D01*
X203327035Y-147280434D01*
X203327242Y-147043339D01*
X203115010Y-146529697D01*
X202722370Y-146136371D01*
X202209100Y-145923243D01*
X201653339Y-145922758D01*
X201139697Y-146134990D01*
X200746371Y-146527630D01*
X200533243Y-147040900D01*
X200532758Y-147596661D01*
X193166759Y-147596661D01*
X193167242Y-147043339D01*
X192955010Y-146529697D01*
X192562370Y-146136371D01*
X192049100Y-145923243D01*
X191493339Y-145922758D01*
X190979697Y-146134990D01*
X190586371Y-146527630D01*
X190373243Y-147040900D01*
X190372758Y-147596661D01*
X183031314Y-147596661D01*
X182976222Y-147514211D01*
X182580801Y-147250000D01*
X182976222Y-146985789D01*
X183284559Y-146524329D01*
X183392833Y-145980000D01*
X183356838Y-145799040D01*
X204489738Y-145799040D01*
X204719138Y-146354229D01*
X205143537Y-146779370D01*
X205698325Y-147009738D01*
X206299040Y-147010262D01*
X206854229Y-146780862D01*
X207279370Y-146356463D01*
X207509738Y-145801675D01*
X207510262Y-145200960D01*
X207280862Y-144645771D01*
X206856463Y-144220630D01*
X206301675Y-143990262D01*
X205700960Y-143989738D01*
X205145771Y-144219138D01*
X204720630Y-144643537D01*
X204490262Y-145198325D01*
X204489738Y-145799040D01*
X183356838Y-145799040D01*
X183284559Y-145435671D01*
X182976222Y-144974211D01*
X182514762Y-144665874D01*
X181970433Y-144557600D01*
X181189567Y-144557600D01*
X180645238Y-144665874D01*
X180183778Y-144974211D01*
X179875441Y-145435671D01*
X179767167Y-145980000D01*
X173232833Y-145980000D01*
X173124559Y-145435671D01*
X172816222Y-144974211D01*
X172354762Y-144665874D01*
X171810433Y-144557600D01*
X171029567Y-144557600D01*
X170485238Y-144665874D01*
X170023778Y-144974211D01*
X169715441Y-145435671D01*
X169607167Y-145980000D01*
X168893336Y-145980000D01*
X168976757Y-145779100D01*
X168977242Y-145223339D01*
X168765010Y-144709697D01*
X168372370Y-144316371D01*
X167859100Y-144103243D01*
X167303339Y-144102758D01*
X166789697Y-144314990D01*
X166396371Y-144707630D01*
X166183243Y-145220900D01*
X166182758Y-145776661D01*
X158816759Y-145776661D01*
X158817242Y-145223339D01*
X158605010Y-144709697D01*
X158212370Y-144316371D01*
X157699100Y-144103243D01*
X157143339Y-144102758D01*
X156629697Y-144314990D01*
X156236371Y-144707630D01*
X156023243Y-145220900D01*
X156022758Y-145776661D01*
X154414084Y-145776661D01*
X154431757Y-145734100D01*
X154432242Y-145178339D01*
X154220010Y-144664697D01*
X153827370Y-144271371D01*
X153314100Y-144058243D01*
X152758339Y-144057758D01*
X152244697Y-144269990D01*
X151851371Y-144662630D01*
X151638243Y-145175900D01*
X151637758Y-145731661D01*
X147447000Y-145731661D01*
X147447000Y-143305750D01*
X169642000Y-143305750D01*
X169642000Y-143933710D01*
X169738673Y-144167099D01*
X169917302Y-144345727D01*
X170150691Y-144442400D01*
X171134250Y-144442400D01*
X171293000Y-144283650D01*
X171293000Y-143147000D01*
X171547000Y-143147000D01*
X171547000Y-144283650D01*
X171705750Y-144442400D01*
X172689309Y-144442400D01*
X172922698Y-144345727D01*
X173101327Y-144167099D01*
X173198000Y-143933710D01*
X173198000Y-143305750D01*
X173039250Y-143147000D01*
X171547000Y-143147000D01*
X171293000Y-143147000D01*
X169800750Y-143147000D01*
X169642000Y-143305750D01*
X147447000Y-143305750D01*
X147447000Y-140731661D01*
X151637758Y-140731661D01*
X151849990Y-141245303D01*
X152242630Y-141638629D01*
X152755900Y-141851757D01*
X153311661Y-141852242D01*
X153825303Y-141640010D01*
X154218629Y-141247370D01*
X154414084Y-140776661D01*
X156022758Y-140776661D01*
X156234990Y-141290303D01*
X156627630Y-141683629D01*
X157140900Y-141896757D01*
X157696661Y-141897242D01*
X158210303Y-141685010D01*
X158603629Y-141292370D01*
X158816757Y-140779100D01*
X158816759Y-140776661D01*
X166182758Y-140776661D01*
X166394990Y-141290303D01*
X166787630Y-141683629D01*
X167300900Y-141896757D01*
X167856661Y-141897242D01*
X168370303Y-141685010D01*
X168763629Y-141292370D01*
X168976757Y-140779100D01*
X168977018Y-140480000D01*
X169607167Y-140480000D01*
X169715441Y-141024329D01*
X170023778Y-141485789D01*
X170191115Y-141597600D01*
X170150691Y-141597600D01*
X169917302Y-141694273D01*
X169738673Y-141872901D01*
X169642000Y-142106290D01*
X169642000Y-142734250D01*
X169800750Y-142893000D01*
X171293000Y-142893000D01*
X171293000Y-142873000D01*
X171547000Y-142873000D01*
X171547000Y-142893000D01*
X173039250Y-142893000D01*
X173198000Y-142734250D01*
X173198000Y-142106290D01*
X173101327Y-141872901D01*
X172922698Y-141694273D01*
X172689309Y-141597600D01*
X172648885Y-141597600D01*
X172816222Y-141485789D01*
X173124559Y-141024329D01*
X173232833Y-140480000D01*
X179767167Y-140480000D01*
X179875441Y-141024329D01*
X180183778Y-141485789D01*
X180579199Y-141750000D01*
X180183778Y-142014211D01*
X179875441Y-142475671D01*
X179767167Y-143020000D01*
X179875441Y-143564329D01*
X180183778Y-144025789D01*
X180645238Y-144334126D01*
X181189567Y-144442400D01*
X181970433Y-144442400D01*
X182514762Y-144334126D01*
X182976222Y-144025789D01*
X183284559Y-143564329D01*
X183392833Y-143020000D01*
X183284559Y-142475671D01*
X182976222Y-142014211D01*
X182580801Y-141750000D01*
X182976222Y-141485789D01*
X183217292Y-141125000D01*
X204477560Y-141125000D01*
X204477560Y-142875000D01*
X204521838Y-143110317D01*
X204660910Y-143326441D01*
X204873110Y-143471431D01*
X205125000Y-143522440D01*
X206875000Y-143522440D01*
X207110317Y-143478162D01*
X207326441Y-143339090D01*
X207471431Y-143126890D01*
X207522440Y-142875000D01*
X207522440Y-141125000D01*
X207478162Y-140889683D01*
X207339090Y-140673559D01*
X207126890Y-140528569D01*
X206875000Y-140477560D01*
X205125000Y-140477560D01*
X204889683Y-140521838D01*
X204673559Y-140660910D01*
X204528569Y-140873110D01*
X204477560Y-141125000D01*
X183217292Y-141125000D01*
X183284559Y-141024329D01*
X183392833Y-140480000D01*
X183284559Y-139935671D01*
X182976222Y-139474211D01*
X182514762Y-139165874D01*
X181970433Y-139057600D01*
X181189567Y-139057600D01*
X180645238Y-139165874D01*
X180183778Y-139474211D01*
X179875441Y-139935671D01*
X179767167Y-140480000D01*
X173232833Y-140480000D01*
X173124559Y-139935671D01*
X172816222Y-139474211D01*
X172354762Y-139165874D01*
X171810433Y-139057600D01*
X171029567Y-139057600D01*
X170485238Y-139165874D01*
X170023778Y-139474211D01*
X169715441Y-139935671D01*
X169607167Y-140480000D01*
X168977018Y-140480000D01*
X168977242Y-140223339D01*
X168765010Y-139709697D01*
X168372370Y-139316371D01*
X167859100Y-139103243D01*
X167303339Y-139102758D01*
X166789697Y-139314990D01*
X166396371Y-139707630D01*
X166183243Y-140220900D01*
X166182758Y-140776661D01*
X158816759Y-140776661D01*
X158817242Y-140223339D01*
X158605010Y-139709697D01*
X158212370Y-139316371D01*
X157699100Y-139103243D01*
X157143339Y-139102758D01*
X156629697Y-139314990D01*
X156236371Y-139707630D01*
X156023243Y-140220900D01*
X156022758Y-140776661D01*
X154414084Y-140776661D01*
X154431757Y-140734100D01*
X154432242Y-140178339D01*
X154220010Y-139664697D01*
X153827370Y-139271371D01*
X153314100Y-139058243D01*
X152758339Y-139057758D01*
X152244697Y-139269990D01*
X151851371Y-139662630D01*
X151638243Y-140175900D01*
X151637758Y-140731661D01*
X147447000Y-140731661D01*
X147447000Y-138276661D01*
X190522758Y-138276661D01*
X190734990Y-138790303D01*
X191127630Y-139183629D01*
X191640900Y-139396757D01*
X192196661Y-139397242D01*
X192710303Y-139185010D01*
X193103629Y-138792370D01*
X193316757Y-138279100D01*
X193316759Y-138276661D01*
X200682758Y-138276661D01*
X200894990Y-138790303D01*
X201287630Y-139183629D01*
X201800900Y-139396757D01*
X202356661Y-139397242D01*
X202870303Y-139185010D01*
X203263629Y-138792370D01*
X203297022Y-138711950D01*
X230571510Y-138711950D01*
X230571510Y-140274050D01*
X230615788Y-140509367D01*
X230754860Y-140725491D01*
X230967060Y-140870481D01*
X231218950Y-140921490D01*
X232781050Y-140921490D01*
X233016367Y-140877212D01*
X233232491Y-140738140D01*
X233377481Y-140525940D01*
X233428490Y-140274050D01*
X233428490Y-140168000D01*
X244335560Y-140168000D01*
X244335560Y-141692000D01*
X244379838Y-141927317D01*
X244518910Y-142143441D01*
X244731110Y-142288431D01*
X244983000Y-142339440D01*
X246507000Y-142339440D01*
X246742317Y-142295162D01*
X246958441Y-142156090D01*
X247103431Y-141943890D01*
X247154440Y-141692000D01*
X247154440Y-140168000D01*
X247110162Y-139932683D01*
X246971090Y-139716559D01*
X246758890Y-139571569D01*
X246507000Y-139520560D01*
X244983000Y-139520560D01*
X244747683Y-139564838D01*
X244531559Y-139703910D01*
X244386569Y-139916110D01*
X244335560Y-140168000D01*
X233428490Y-140168000D01*
X233428490Y-138711950D01*
X233384212Y-138476633D01*
X233245140Y-138260509D01*
X233032940Y-138115519D01*
X232781050Y-138064510D01*
X231218950Y-138064510D01*
X230983633Y-138108788D01*
X230767509Y-138247860D01*
X230622519Y-138460060D01*
X230571510Y-138711950D01*
X203297022Y-138711950D01*
X203476757Y-138279100D01*
X203477242Y-137723339D01*
X203301926Y-137299040D01*
X204489738Y-137299040D01*
X204719138Y-137854229D01*
X205143537Y-138279370D01*
X205698325Y-138509738D01*
X206299040Y-138510262D01*
X206854229Y-138280862D01*
X207279370Y-137856463D01*
X207509738Y-137301675D01*
X207510262Y-136700960D01*
X207306022Y-136206661D01*
X244347758Y-136206661D01*
X244559990Y-136720303D01*
X244952630Y-137113629D01*
X245465900Y-137326757D01*
X246021661Y-137327242D01*
X246535303Y-137115010D01*
X246928629Y-136722370D01*
X247141757Y-136209100D01*
X247142242Y-135653339D01*
X246930010Y-135139697D01*
X246537370Y-134746371D01*
X246024100Y-134533243D01*
X245468339Y-134532758D01*
X244954697Y-134744990D01*
X244561371Y-135137630D01*
X244348243Y-135650900D01*
X244347758Y-136206661D01*
X207306022Y-136206661D01*
X207280862Y-136145771D01*
X206856463Y-135720630D01*
X206301675Y-135490262D01*
X205700960Y-135489738D01*
X205145771Y-135719138D01*
X204720630Y-136143537D01*
X204490262Y-136698325D01*
X204489738Y-137299040D01*
X203301926Y-137299040D01*
X203265010Y-137209697D01*
X202872370Y-136816371D01*
X202359100Y-136603243D01*
X201803339Y-136602758D01*
X201289697Y-136814990D01*
X200896371Y-137207630D01*
X200683243Y-137720900D01*
X200682758Y-138276661D01*
X193316759Y-138276661D01*
X193317242Y-137723339D01*
X193105010Y-137209697D01*
X192712370Y-136816371D01*
X192199100Y-136603243D01*
X191643339Y-136602758D01*
X191129697Y-136814990D01*
X190736371Y-137207630D01*
X190523243Y-137720900D01*
X190522758Y-138276661D01*
X147447000Y-138276661D01*
X147447000Y-132299040D01*
X204489738Y-132299040D01*
X204719138Y-132854229D01*
X205143537Y-133279370D01*
X205698325Y-133509738D01*
X206299040Y-133510262D01*
X206854229Y-133280862D01*
X207279370Y-132856463D01*
X207509738Y-132301675D01*
X207509756Y-132280434D01*
X230583705Y-132280434D01*
X230798831Y-132801080D01*
X231196825Y-133199769D01*
X231717095Y-133415804D01*
X232280434Y-133416295D01*
X232801080Y-133201169D01*
X233199769Y-132803175D01*
X233415804Y-132282905D01*
X233416295Y-131719566D01*
X233201169Y-131198920D01*
X232803175Y-130800231D01*
X232282905Y-130584196D01*
X231719566Y-130583705D01*
X231198920Y-130798831D01*
X230800231Y-131196825D01*
X230584196Y-131717095D01*
X230583705Y-132280434D01*
X207509756Y-132280434D01*
X207510262Y-131700960D01*
X207280862Y-131145771D01*
X206856463Y-130720630D01*
X206301675Y-130490262D01*
X205700960Y-130489738D01*
X205145771Y-130719138D01*
X204720630Y-131143537D01*
X204490262Y-131698325D01*
X204489738Y-132299040D01*
X147447000Y-132299040D01*
X147447000Y-125857000D01*
X247523000Y-125857000D01*
X247523000Y-173863000D01*
M02*
