G04 MADE WITH FRITZING*
G04 WWW.FRITZING.ORG*
G04 DOUBLE SIDED*
G04 HOLES PLATED*
G04 CONTOUR ON CENTER OF CONTOUR VECTOR*
%ASAXBY*%
%FSLAX23Y23*%
%MOIN*%
%OFA0B0*%
%SFA1.0B1.0*%
%ADD10C,0.085000*%
%ADD11C,0.090000*%
%ADD12R,0.085000X0.085000*%
%ADD13R,0.090000X0.090000*%
%ADD14R,0.089986X0.090000*%
%LNMASK0*%
G90*
G70*
G54D10*
X1186Y2040D03*
X1486Y2040D03*
X1186Y1940D03*
X1486Y1940D03*
X1186Y1340D03*
X1486Y1340D03*
X1186Y1240D03*
X1486Y1240D03*
X1186Y640D03*
X1486Y640D03*
X1186Y540D03*
X1486Y540D03*
X1786Y640D03*
X2186Y640D03*
X1786Y1340D03*
X2186Y1340D03*
X1686Y2040D03*
X2086Y2040D03*
X486Y2040D03*
X886Y2040D03*
X486Y1840D03*
X886Y1840D03*
X486Y1640D03*
X886Y1640D03*
G54D11*
X186Y1640D03*
X186Y1840D03*
X186Y2040D03*
X186Y1440D03*
X3086Y1940D03*
X3086Y1740D03*
X3186Y540D03*
X3186Y340D03*
X3086Y1340D03*
X3086Y1140D03*
X1886Y340D03*
X1686Y340D03*
X2086Y340D03*
X2486Y1840D03*
X2486Y1640D03*
X2486Y2040D03*
X2486Y1140D03*
X2486Y940D03*
X2486Y1340D03*
X2486Y340D03*
X2486Y140D03*
X2486Y540D03*
G54D12*
X1186Y2040D03*
X1186Y1340D03*
X1186Y640D03*
G54D13*
X186Y1440D03*
G54D14*
X3086Y1940D03*
X3186Y540D03*
X3086Y1340D03*
G54D13*
X2086Y340D03*
X2486Y2040D03*
X2486Y1340D03*
X2486Y540D03*
G04 End of Mask0*
M02*