; NON-PLATED HOLES START AT T1
; THROUGH (PLATED) HOLES START AT T100
M48
INCH
T100C0.040000
T101C0.035000
%
T100
X024861Y005398
X024861Y020398
X024861Y003398
X030861Y019398
X018861Y003398
X001861Y020398
X024861Y011398
X016861Y003398
X020861Y003398
X001861Y016398
X024861Y018398
X024861Y013398
X001861Y014398
X030861Y017398
X031861Y003398
X024861Y009398
X030861Y013398
X024861Y001398
X031861Y005398
X030861Y011398
X024861Y016398
X001861Y018398
T101
X014861Y019398
X014861Y020398
X021861Y006398
X017861Y006398
X017861Y013398
X004861Y020398
X008861Y018398
X008861Y016398
X021861Y013398
X011861Y006398
X004861Y016398
X016861Y020398
X014861Y012398
X011861Y019398
X011861Y012398
X014861Y013398
X011861Y013398
X014861Y006398
X020861Y020398
X004861Y018398
X008861Y020398
X011861Y020398
X014861Y005398
X011861Y005398
T00
M30
