G04 MADE WITH FRITZING*
G04 WWW.FRITZING.ORG*
G04 DOUBLE SIDED*
G04 HOLES PLATED*
G04 CONTOUR ON CENTER OF CONTOUR VECTOR*
%ASAXBY*%
%FSLAX23Y23*%
%MOIN*%
%OFA0B0*%
%SFA1.0B1.0*%
%ADD10C,0.075000*%
%ADD11C,0.080000*%
%ADD12R,0.075000X0.075000*%
%ADD13R,0.080000X0.080000*%
%ADD14R,0.079986X0.080000*%
%ADD15C,0.024000*%
%LNCOPPER1*%
G90*
G70*
G54D10*
X1186Y2040D03*
X1486Y2040D03*
X1186Y1940D03*
X1486Y1940D03*
X1186Y1340D03*
X1486Y1340D03*
X1186Y1240D03*
X1486Y1240D03*
X1186Y640D03*
X1486Y640D03*
X1186Y540D03*
X1486Y540D03*
X486Y2040D03*
X886Y2040D03*
X486Y1840D03*
X886Y1840D03*
X486Y1640D03*
X886Y1640D03*
G54D11*
X186Y1640D03*
X186Y1840D03*
X186Y2040D03*
X186Y1440D03*
X1886Y340D03*
X1686Y340D03*
X2086Y340D03*
X3086Y1340D03*
X3086Y1140D03*
X3186Y540D03*
X3186Y340D03*
X3086Y1940D03*
X3086Y1740D03*
X2486Y1840D03*
X2486Y1640D03*
X2486Y2040D03*
X2486Y1140D03*
X2486Y940D03*
X2486Y1340D03*
X2486Y340D03*
X2486Y140D03*
X2486Y540D03*
G54D10*
X1686Y2040D03*
X2086Y2040D03*
X1786Y1340D03*
X2186Y1340D03*
X1786Y640D03*
X2186Y640D03*
G54D12*
X1186Y2040D03*
X1186Y1340D03*
X1186Y640D03*
G54D13*
X186Y1440D03*
X2086Y340D03*
G54D14*
X3086Y1340D03*
X3186Y540D03*
X3086Y1940D03*
G54D13*
X2486Y2040D03*
X2486Y1340D03*
X2486Y540D03*
G54D15*
X217Y1640D02*
X458Y1640D01*
D02*
X217Y2040D02*
X458Y2040D01*
D02*
X217Y1840D02*
X458Y1840D01*
D02*
X1158Y2040D02*
X915Y2040D01*
D02*
X1658Y2040D02*
X1515Y2040D01*
D02*
X3055Y1140D02*
X2517Y1140D01*
D02*
X3155Y340D02*
X2517Y340D01*
D02*
X3086Y1771D02*
X3085Y1841D01*
D02*
X3085Y1841D02*
X2517Y1840D01*
D02*
X1758Y640D02*
X1515Y640D01*
D02*
X986Y1641D02*
X915Y1640D01*
D02*
X986Y640D02*
X986Y1641D01*
D02*
X1158Y640D02*
X986Y640D01*
D02*
X1187Y1841D02*
X915Y1840D01*
D02*
X1186Y1368D02*
X1187Y1841D01*
D02*
X1758Y1340D02*
X1515Y1340D01*
D02*
X1887Y439D02*
X1886Y371D01*
D02*
X2186Y611D02*
X2185Y439D01*
D02*
X2185Y439D02*
X1887Y439D01*
D02*
X1786Y241D02*
X2285Y241D01*
D02*
X2285Y241D02*
X2285Y539D01*
D02*
X1786Y611D02*
X1786Y241D01*
D02*
X2285Y539D02*
X2455Y540D01*
D02*
X2215Y640D02*
X2985Y640D01*
D02*
X2985Y640D02*
X2985Y539D01*
D02*
X2985Y539D02*
X3155Y540D01*
D02*
X2285Y1239D02*
X2285Y1339D01*
D02*
X2285Y1339D02*
X2455Y1340D01*
D02*
X1786Y1239D02*
X2285Y1239D01*
D02*
X1786Y1311D02*
X1786Y1239D01*
D02*
X1485Y941D02*
X2285Y941D01*
D02*
X1486Y1211D02*
X1485Y941D01*
D02*
X2285Y941D02*
X2455Y940D01*
D02*
X1686Y1841D02*
X2285Y1841D01*
D02*
X2285Y1841D02*
X2285Y2039D01*
D02*
X1686Y2011D02*
X1686Y1841D01*
D02*
X2285Y2039D02*
X2455Y2040D01*
G04 End of Copper1*
M02*