G04 MADE WITH FRITZING*
G04 WWW.FRITZING.ORG*
G04 DOUBLE SIDED*
G04 HOLES PLATED*
G04 CONTOUR ON CENTER OF CONTOUR VECTOR*
%ASAXBY*%
%FSLAX23Y23*%
%MOIN*%
%OFA0B0*%
%SFA1.0B1.0*%
%ADD10C,0.075000*%
%ADD11C,0.080000*%
%ADD12R,0.075000X0.075000*%
%ADD13R,0.080000X0.080000*%
%ADD14R,0.079986X0.080000*%
%ADD15C,0.024000*%
%LNCOPPER0*%
G90*
G70*
G54D10*
X1186Y2040D03*
X1486Y2040D03*
X1186Y1940D03*
X1486Y1940D03*
X1186Y1340D03*
X1486Y1340D03*
X1186Y1240D03*
X1486Y1240D03*
X1186Y640D03*
X1486Y640D03*
X1186Y540D03*
X1486Y540D03*
X1786Y640D03*
X2186Y640D03*
X1786Y1340D03*
X2186Y1340D03*
X1686Y2040D03*
X2086Y2040D03*
X486Y2040D03*
X886Y2040D03*
X486Y1840D03*
X886Y1840D03*
X486Y1640D03*
X886Y1640D03*
G54D11*
X186Y1640D03*
X186Y1840D03*
X186Y2040D03*
X186Y1440D03*
X3086Y1940D03*
X3086Y1740D03*
X3186Y540D03*
X3186Y340D03*
X3086Y1340D03*
X3086Y1140D03*
X1886Y340D03*
X1686Y340D03*
X2086Y340D03*
X2486Y340D03*
X2486Y140D03*
X2486Y540D03*
X2486Y1140D03*
X2486Y940D03*
X2486Y1340D03*
X2486Y1840D03*
X2486Y1640D03*
X2486Y2040D03*
G54D12*
X1186Y2040D03*
X1186Y1340D03*
X1186Y640D03*
G54D13*
X186Y1440D03*
G54D14*
X3086Y1940D03*
X3186Y540D03*
X3086Y1340D03*
G54D13*
X2086Y340D03*
X2486Y540D03*
X2486Y1340D03*
X2486Y2040D03*
G54D15*
X3186Y840D02*
X3186Y1339D01*
D02*
X3186Y1339D02*
X3117Y1340D01*
D02*
X3186Y571D02*
X3186Y640D01*
D02*
X3186Y640D02*
X3186Y840D01*
D02*
X1158Y1240D02*
X186Y1239D01*
D02*
X186Y1239D02*
X186Y1409D01*
D02*
X2486Y40D02*
X2486Y141D01*
D02*
X2486Y141D02*
X2486Y171D01*
D02*
X1485Y40D02*
X2486Y40D01*
D02*
X1486Y511D02*
X1485Y40D01*
D02*
X2186Y668D02*
X2186Y1311D01*
D02*
X1288Y1239D02*
X1288Y539D01*
D02*
X1288Y539D02*
X1215Y540D01*
D02*
X1215Y1240D02*
X1288Y1239D01*
D02*
X1215Y1240D02*
X1288Y1239D01*
D02*
X1288Y1239D02*
X1288Y1939D01*
D02*
X1288Y1939D02*
X1215Y1939D01*
D02*
X3286Y241D02*
X2088Y241D01*
D02*
X2088Y241D02*
X2087Y309D01*
D02*
X3286Y844D02*
X3286Y241D01*
D02*
X3286Y2139D02*
X3286Y844D01*
D02*
X3092Y2120D02*
X3286Y2139D01*
D02*
X3092Y2120D02*
X2088Y2139D01*
D02*
X2088Y2139D02*
X2087Y2068D01*
D02*
X3087Y1971D02*
X3092Y2120D01*
D02*
X1485Y1641D02*
X2455Y1640D01*
D02*
X1486Y1911D02*
X1485Y1641D01*
D02*
X2455Y1640D02*
X1686Y1641D01*
D02*
X1686Y1641D02*
X1686Y371D01*
G04 End of Copper0*
M02*